<?xml version="1.0" encoding="utf-8"?>
<!-- Generator: Adobe Illustrator 24.0.2, SVG Export Plug-In . SVG Version: 6.00 Build 0)  -->
<svg version="1.1" id="Capa_1" xmlns="http://www.w3.org/2000/svg" xmlns:xlink="http://www.w3.org/1999/xlink" x="0px" y="0px"
	 viewBox="0 0 200 200" style="enable-background:new 0 0 200 200;" xml:space="preserve">
<style type="text/css">
	.st0{fill:#49707F;}
</style>
<path class="st0" d="M27.7,68.5c0-2.6,0.7-4.5,2.8-6.1c5.3-4.2,10.5-8.6,15.8-12.8c1.6-1.2,2.1-2.5,2.1-4.5
	c-0.1-8.5-0.1-16.9,0-25.4c0-7.3,4.3-11.5,11.5-11.5c8.9,0,17.7-0.1,26.6,0.1c1.6,0,3.2,0.8,3.7,2.4c0.4,1.1,0,2.4-0.9,3.2
	c-1.7,1.5-4.6,1.1-6.7,1.1c-2.4,0-4.9,0-7.3,0c-4.8,0-9.6,0-14.3,0c-4.5,0-5.6,1-5.6,5.5c0,19.2,0,38.4,0,57.6c0,1.8,0.5,3,2,4.2
	c14.5,10.9,29,22,43.6,33.1c6.7-5.1,13.4-10.1,20-15.2c7.9-6,15.8-12,23.7-18.1c1-0.8,1.9-2.5,1.9-3.8c0.1-19.3,0.1-38.6,0.1-57.9
	c0-4.3-1.1-5.4-5.4-5.4c-4.7,0-9.4,0-14.1,0c-2.3,0-4.5,0-6.8,0c-1.8,0-3.7,0.2-5.5-0.1c-1.1-0.1-2.3-0.6-2.9-1.5
	c-1-1.5-0.5-3.7,1-4.6c0.8-0.5,1.9-0.6,2.8-0.6c8.9-0.1,17.8,0,26.7,0c6.8,0,11,4.2,11,11.1c0.1,8.8,0,17.5,0.1,26.3
	c0,1.2,0.8,2.8,1.7,3.6c5.4,4.6,11,8.9,16.3,13.6c1.3,1.1,2.3,3.3,2.3,4.9c0.1,26.5,0.1,53,0.1,79.4c0,7.1-4.3,11.4-11.4,11.4
	c-41.1,0-82.3,0-123.4,0c-7.1,0-11.6-4.4-11.6-11.6C27.8,136.4,27.9,79.5,27.7,68.5z M161.7,151.6c-13.9-13.9-27.8-27.8-41.8-41.8
	c-4.8,3.7-9.9,7.5-15,11.4c-3.4,2.6-4.3,2.6-7.7,0c-5.1-3.9-10.3-7.8-14.7-11.2c-14.1,14.1-28,27.9-41.8,41.6
	C80.8,151.6,121.3,151.6,161.7,151.6z M35.1,145.2c13.4-13.4,26.9-26.8,40.5-40.4C62.3,94.6,48.8,84.4,35.1,74 M126.6,104.7
	c13.6,13.6,27,27.1,40.2,40.4c0-23.3,0-47,0-71C153.2,84.5,139.8,94.7,126.6,104.7z M153.8,75.2c4.1-3.1,7.7-5.9,11.6-8.8
	c-3.9-3.2-7.6-6.2-11.6-9.5 M48.3,57c-4.1,3.3-7.7,6.3-11.6,9.4c3.9,2.9,7.6,5.7,11.6,8.7C48.3,68.9,48.3,63.3,48.3,57z"/>
<path class="st0" d="M129.4,58.6c0,15.5-12.8,28.3-28.4,28.3c-15.5,0-28.3-13-28.2-28.5c0.1-15.3,13-28.1,28.3-28.2
	C116.5,30.2,129.4,43.1,129.4,58.6z M122.3,58.6c0-11.7-9.4-21.3-21.1-21.3c-11.7-0.1-21.5,9.7-21.5,21.3c0,11.6,9.5,21.2,21.2,21.2
	C112.8,79.9,122.3,70.5,122.3,58.6z"/>
<path class="st0" d="M99.1,59.7c3.1-3.3,5.6-5.9,8.1-8.5c1.7-1.8,3.6-2.2,5.4-0.3c1.6,1.7,1.2,3.6-0.4,5.2c-3.3,3.3-6.7,6.7-10,10
	c-1.9,1.9-3.8,1.9-5.7,0c-1.8-1.8-3.6-3.6-5.4-5.4c-1.6-1.6-2-3.5-0.3-5.2c1.8-1.9,3.8-1.3,5.4,0.4C97.2,56.9,98,58.2,99.1,59.7z"/>
<circle class="st0" cx="101.2" cy="11.5" r="3.5"/>
<g>
	<path class="st0" d="M65.8,195.4v0.6c-1.6-0.8-3-1.8-4-2.9c-1.5-1.5-2.7-3.3-3.5-5.5c-0.8-2.1-1.2-4.3-1.2-6.5c0-3.3,0.8-6.3,2.4-9
		c1.6-2.7,3.7-4.7,6.4-5.8v0.7c-1.3,0.7-2.4,1.7-3.2,3c-0.8,1.3-1.5,2.8-1.9,4.8c-0.4,1.9-0.6,3.9-0.6,6c0,2.3,0.2,4.3,0.5,6.2
		c0.3,1.5,0.6,2.6,1,3.5c0.4,0.9,0.9,1.7,1.6,2.6C63.8,193.9,64.7,194.7,65.8,195.4z"/>
	<path class="st0" d="M80.3,183.5c-0.4,1.9-1.2,3.4-2.3,4.4c-1.1,1-2.4,1.6-3.8,1.6c-1.7,0-3.1-0.7-4.4-2.1
		c-1.2-1.4-1.9-3.3-1.9-5.7c0-2.3,0.7-4.2,2.1-5.6c1.4-1.4,3-2.2,4.9-2.2c1.4,0,2.6,0.4,3.5,1.1c0.9,0.8,1.4,1.5,1.4,2.4
		c0,0.4-0.1,0.7-0.4,1c-0.3,0.2-0.6,0.4-1.1,0.4c-0.6,0-1.1-0.2-1.4-0.6c-0.2-0.2-0.3-0.7-0.3-1.3c-0.1-0.6-0.3-1.1-0.6-1.4
		c-0.4-0.3-0.9-0.5-1.5-0.5c-1.1,0-1.9,0.4-2.6,1.2c-0.9,1-1.3,2.4-1.3,4.1c0,1.7,0.4,3.3,1.3,4.6c0.9,1.3,2,2,3.5,2
		c1,0,2-0.4,2.8-1.1c0.6-0.5,1.2-1.4,1.7-2.7L80.3,183.5z"/>
	<path class="st0" d="M87.9,166.3v19.4c0,0.9,0.1,1.5,0.2,1.8c0.1,0.3,0.3,0.5,0.6,0.7c0.3,0.2,0.8,0.2,1.5,0.2v0.6h-7.2v-0.6
		c0.7,0,1.1-0.1,1.4-0.2c0.2-0.1,0.4-0.4,0.6-0.7c0.1-0.3,0.2-0.9,0.2-1.8v-13.3c0-1.7,0-2.7-0.1-3c-0.1-0.4-0.2-0.6-0.4-0.8
		c-0.2-0.1-0.4-0.2-0.6-0.2c-0.3,0-0.6,0.1-1.1,0.3l-0.3-0.6l4.4-1.8H87.9z"/>
	<path class="st0" d="M97.4,174v11.7c0,0.9,0.1,1.5,0.2,1.8c0.1,0.3,0.3,0.5,0.6,0.7c0.3,0.2,0.7,0.2,1.4,0.2v0.6h-7.1v-0.6
		c0.7,0,1.2-0.1,1.4-0.2c0.2-0.1,0.4-0.4,0.6-0.7c0.1-0.3,0.2-0.9,0.2-1.8v-5.6c0-1.6,0-2.6-0.1-3.1c-0.1-0.3-0.2-0.6-0.4-0.7
		c-0.2-0.1-0.4-0.2-0.7-0.2c-0.3,0-0.6,0.1-1.1,0.2l-0.2-0.6l4.4-1.8H97.4z M96,166.3c0.4,0,0.8,0.2,1.1,0.5
		c0.3,0.3,0.5,0.7,0.5,1.1c0,0.4-0.2,0.8-0.5,1.1c-0.3,0.3-0.7,0.5-1.1,0.5c-0.4,0-0.8-0.2-1.1-0.5c-0.3-0.3-0.5-0.7-0.5-1.1
		c0-0.4,0.2-0.8,0.5-1.1C95.2,166.5,95.6,166.3,96,166.3z"/>
	<path class="st0" d="M114.2,183.5c-0.4,1.9-1.2,3.4-2.3,4.4c-1.1,1-2.4,1.6-3.8,1.6c-1.7,0-3.1-0.7-4.4-2.1s-1.9-3.3-1.9-5.7
		c0-2.3,0.7-4.2,2.1-5.6c1.4-1.4,3-2.2,4.9-2.2c1.4,0,2.6,0.4,3.5,1.1c0.9,0.8,1.4,1.5,1.4,2.4c0,0.4-0.1,0.7-0.4,1
		c-0.3,0.2-0.6,0.4-1.1,0.4c-0.6,0-1.1-0.2-1.4-0.6c-0.2-0.2-0.3-0.7-0.3-1.3s-0.3-1.1-0.6-1.4c-0.4-0.3-0.9-0.5-1.5-0.5
		c-1.1,0-1.9,0.4-2.6,1.2c-0.9,1-1.3,2.4-1.3,4.1c0,1.7,0.4,3.3,1.3,4.6c0.9,1.3,2,2,3.5,2c1,0,2-0.4,2.8-1.1
		c0.6-0.5,1.2-1.4,1.7-2.7L114.2,183.5z"/>
	<path class="st0" d="M121.1,166.3v14.5l3.7-3.4c0.8-0.7,1.2-1.2,1.4-1.4c0.1-0.1,0.1-0.3,0.1-0.4c0-0.2-0.1-0.4-0.3-0.5
		c-0.2-0.2-0.5-0.2-0.9-0.3v-0.5h6.3v0.5c-0.9,0-1.6,0.2-2.2,0.4c-0.6,0.2-1.2,0.7-1.9,1.3l-3.7,3.4l3.7,4.7c1,1.3,1.7,2.1,2.1,2.5
		c0.5,0.5,1,0.8,1.3,1c0.3,0.1,0.7,0.2,1.4,0.2v0.6h-7.1v-0.6c0.4,0,0.7-0.1,0.8-0.2c0.1-0.1,0.2-0.3,0.2-0.5c0-0.3-0.2-0.6-0.6-1.2
		l-4.5-5.7v4.9c0,1,0.1,1.6,0.2,1.9c0.1,0.3,0.3,0.5,0.6,0.6c0.2,0.1,0.8,0.2,1.6,0.2v0.6H116v-0.6c0.7,0,1.3-0.1,1.7-0.3
		c0.2-0.1,0.4-0.3,0.5-0.5c0.2-0.4,0.2-1,0.2-1.8v-13.3c0-1.7,0-2.7-0.1-3.1c-0.1-0.4-0.2-0.6-0.4-0.8c-0.2-0.1-0.4-0.2-0.7-0.2
		c-0.2,0-0.6,0.1-1,0.3l-0.3-0.6l4.3-1.8H121.1z"/>
	<path class="st0" d="M133.2,167v-0.7c1.6,0.8,3,1.8,4,2.8c1.5,1.5,2.7,3.4,3.5,5.5c0.8,2.1,1.2,4.3,1.2,6.5c0,3.3-0.8,6.3-2.4,9
		c-1.6,2.7-3.7,4.7-6.4,5.8v-0.6c1.3-0.7,2.4-1.7,3.2-3c0.8-1.2,1.5-2.8,1.9-4.8c0.4-1.9,0.6-3.9,0.6-6c0-2.3-0.2-4.3-0.5-6.2
		c-0.3-1.5-0.6-2.6-1-3.5s-0.9-1.7-1.6-2.6C135.1,168.5,134.3,167.7,133.2,167z"/>
</g>
</svg>
