<?xml version="1.0" encoding="utf-8"?>
<!-- Generator: Adobe Illustrator 24.0.2, SVG Export Plug-In . SVG Version: 6.00 Build 0)  -->
<svg version="1.1" id="Capa_1" xmlns="http://www.w3.org/2000/svg" xmlns:xlink="http://www.w3.org/1999/xlink" x="0px" y="0px"
	 viewBox="0 0 464 200" style="enable-background:new 0 0 464 200;" xml:space="preserve">
<style type="text/css">
	.st0{fill:#818081;}
	.st1{font-family:'Aparajita';}
	.st2{font-size:119.5948px;}
	.st3{fill:#FFFFFF;}
</style>
<path class="st0" d="M32.1,29.8h88.3c5.4,0,10.2,2.2,13.8,5.7c3.5,3.5,5.7,8.4,5.7,13.8v122.6c0,5.4-2.2,10.2-5.7,13.8
	c-3.5,3.5-8.4,5.7-13.8,5.7H32.1c-5.4,0-10.2-2.2-13.8-5.7c-3.5-3.5-5.7-8.4-5.7-13.8V49.3c0-5.4,2.2-10.2,5.7-13.8
	C21.9,32,26.7,29.8,32.1,29.8L32.1,29.8z M117.5,39.2h-81c-3.4,0-6.5,1.4-8.8,3.8c-2.3,2.3-3.7,5.5-3.7,9.1v116.3
	c0,3.5,1.4,6.8,3.7,9.1s5.4,3.8,8.8,3.8h81.1c3.4,0,6.5-1.4,8.8-3.8c2.3-2.3,3.7-5.5,3.7-9.1V52.1c0-3.5-1.4-6.8-3.7-9.1
	C124.1,40.7,121,39.2,117.5,39.2z"/>
<text transform="matrix(1 0 0 1 207.5059 133.9678)" class="st0 st1 st2">Copy</text>
<g id="Capa_1_1_">
	<path class="st0" d="M73.1,4.8h88.3c5.4,0,10.2,2.2,13.8,5.7c3.5,3.5,5.7,8.4,5.7,13.8v122.6c0,5.4-2.2,10.2-5.7,13.8
		c-3.5,3.5-8.4,5.7-13.8,5.7H73.1c-5.4,0-10.2-2.2-13.8-5.7c-3.5-3.5-5.7-8.4-5.7-13.8V24.3c0-5.4,2.2-10.2,5.7-13.8
		C62.9,7,67.7,4.8,73.1,4.8L73.1,4.8z M158.5,14.2h-81c-3.4,0-6.5,1.4-8.8,3.8c-2.3,2.3-3.7,5.5-3.7,9.1v116.3
		c0,3.5,1.4,6.8,3.7,9.1c2.3,2.3,5.4,3.8,8.8,3.8h81.1c3.4,0,6.5-1.4,8.8-3.8c2.3-2.3,3.7-5.5,3.7-9.1V27.1c0-3.5-1.4-6.8-3.7-9.1
		S162,14.2,158.5,14.2z"/>
	<path class="st3" d="M158.5,14h-81c-3.4,0-6.5,1.4-8.8,3.8c-2.3,2.3-3.7,5.5-3.7,9.1v116.3c0,3.5,1.4,6.8,3.7,9.1
		c2.3,2.3,5.4,3.8,8.8,3.8h81.1c3.4,0,6.5-1.4,8.8-3.8c2.3-2.3,3.7-5.5,3.7-9.1V26.9c0-3.5-1.4-6.8-3.7-9.1
		C165.1,15.4,162,14,158.5,14z"/>
</g>
</svg>
