<?xml version="1.0" encoding="utf-8"?>
<!-- Generator: Adobe Illustrator 24.0.2, SVG Export Plug-In . SVG Version: 6.00 Build 0)  -->
<svg version="1.1" id="Capa_1" xmlns="http://www.w3.org/2000/svg" xmlns:xlink="http://www.w3.org/1999/xlink" x="0px" y="0px"
	 viewBox="0 0 200 200" style="enable-background:new 0 0 200 200;" xml:space="preserve">
<style type="text/css">
	.st0{fill:#44586B;}
</style>
<g>
	<g>
		<path class="st0" d="M8,198.4c0.8,0,1.5,0.1,2.2,0.1c26.4,0,52.8,0,79.3,0c1.8,0,2.2-0.6,2.2-2.3c0-32.8,0-65.6,0-98.5
			c0-1.9-0.4-2.5-2.4-2.5c-26.3,0.1-52.7,0-79.1,0c-0.7,0-1.4,0-2.2,0C8,129.8,8,164,8,198.4z M192.8,95.3c-1,0-1.7,0-2.4,0
			c-26.2,0-52.4,0-78.6-0.1c-2.2,0-2.6,0.7-2.6,2.7c0.1,32.6,0.1,65.2,0,97.8c0,2.1,0.4,2.7,2.7,2.7c26.1-0.1,52.3-0.1,78.4-0.1
			c0.8,0,1.6,0,2.6,0C192.8,164,192.8,129.8,192.8,95.3z M154.1,92.8c14.3,0,28.7,0,43,0c1.6,0,2.2-0.4,2.2-2.1
			c-0.1-3.4,0-6.9,0-10.3c-0.1-8.2-5.7-13.8-13.8-13.8c-24.7,0-49.5,0-74.2,0c-1.6,0-2,0.5-2,2c0.1,7.3,0.1,14.6,0,21.9
			c0,1.8,0.5,2.4,2.3,2.4C125.8,92.7,139.9,92.8,154.1,92.8z M168.2,32.2c-0.2-1.2-0.2-1.9-0.4-2.5c-2.7-11.6-13.5-18.5-25.7-16.3
			c-8.4,1.5-15.3,5.9-21.4,11.6C109.1,35.7,101,49,94.1,63c-0.1,0.2-0.1,0.5-0.2,1c2.2,0,4.3-0.1,6.4,0c1.5,0.1,2.4-0.5,3.3-1.6
			c7-9,14.6-17.5,23.7-24.5c7.5-5.7,15.6-9.7,25.3-9.8C157.9,28,162.9,29.4,168.2,32.2z M32.7,32.1c1-0.5,1.6-0.7,2.2-1
			c4.2-2.1,8.6-3.1,13.2-3.1c8,0,15.1,2.7,21.7,7.1c8.3,5.4,15.2,12.5,21.6,19.9c0.7,0.8,1.5,1.6,2.4,2.6c1.7-3,3.2-5.6,4.6-8.3
			c0.2-0.5,0.1-1.4-0.2-1.9c-5.6-9.1-12-17.5-20.3-24.4c-5.6-4.7-11.8-8.3-19.2-9.6c-11.4-2-22,4.1-25.2,14.7
			C33.2,29.4,33,30.6,32.7,32.1z M116,63.5c0,0.1,0.1,0.3,0.1,0.4c6.2,0,12.4,0,18.6,0c0.1,0,0.3-0.1,0.4-0.1
			c8.8-3.3,17.5-6.8,25.1-12.7c3.6-2.8,6-6.4,7.3-10.8c0.4-1.3,0.2-2.2-1.1-3c-4.5-3-9.4-4.4-14.7-4.1c-0.7,0-1.5,0.7-2,1.4
			c-1.8,2.6-3.2,5.5-5.2,7.9c-7,8.5-16.2,14.2-25.7,19.4C117.9,62.4,116.9,63,116,63.5z M84.8,63.9c0-0.1,0.1-0.3,0.1-0.4
			c-0.7-0.4-1.4-0.8-2.1-1.2c-4.1-2.4-8.3-4.7-12.3-7.3c-8-5.5-15.4-11.6-19.6-20.7c-0.2-0.5-1-1-1.6-1c-5.5-0.3-10.6,1.1-15.1,4.2
			c-1,0.7-1.3,1.5-0.9,2.7c1.1,3.9,3,7.3,6,9.9c4.6,4.1,10.1,6.9,15.7,9.4c3.6,1.6,7.3,3.9,11.1,4.3C72.3,64.4,78.6,63.9,84.8,63.9z
			"/>
		<path class="st0" d="M1.7,76.7c0.3-0.7,0.7-1.4,1-2.1c2.5-5.3,6.7-8,12.5-8.1c16.9-0.1,33.7,0,50.6,0c7.9,0,15.9,0,23.8,0
			c1.1,0,2.1-0.1,2,1.6c-0.1,7.9,0,15.9-0.1,23.8c0,0.2-0.1,0.4-0.2,0.8c-0.6,0.1-1.2,0.1-1.8,0.1c-28.8,0-57.6,0-86.4,0
			c-0.5,0-1-0.1-1.5-0.1C1.7,87.4,1.7,82,1.7,76.7z"/>
		<path class="st0" d="M8,198.4C8,164,8,129.8,8,95.3c0.8,0,1.5,0,2.2,0c26.4,0,52.7,0,79.1,0c2,0,2.4,0.7,2.4,2.5
			c0,32.8,0,65.6,0,98.5c0,1.7-0.4,2.3-2.2,2.3c-26.4-0.1-52.8,0-79.3,0C9.5,198.5,8.8,198.5,8,198.4z"/>
		<path class="st0" d="M192.8,95.3c0,34.5,0,68.7,0,103.2c-0.9,0-1.7,0-2.6,0c-26.1,0-52.3,0-78.4,0.1c-2.2,0-2.7-0.7-2.7-2.7
			c0.1-32.6,0.1-65.2,0-97.8c0-2,0.4-2.7,2.6-2.7c26.2,0.1,52.4,0.1,78.6,0.1C191.2,95.3,191.9,95.3,192.8,95.3z"/>
		<path class="st0" d="M154.1,92.8c-14.2,0-28.4,0-42.6,0c-1.9,0-2.4-0.5-2.3-2.4c0.1-7.3,0.1-14.6,0-21.9c0-1.6,0.4-2,2-2
			c24.7,0,49.5,0,74.2,0c8.2,0,13.7,5.6,13.8,13.8c0.1,3.4-0.1,6.9,0,10.3c0.1,1.7-0.6,2.1-2.2,2.1
			C182.8,92.8,168.5,92.8,154.1,92.8z"/>
		<path class="st0" d="M168.2,32.2c-5.2-2.9-10.2-4.2-15.6-4.2c-9.6,0.2-17.8,4.1-25.3,9.8c-9.1,7-16.7,15.4-23.7,24.5
			c-0.9,1.2-1.8,1.7-3.3,1.6c-2.1-0.1-4.2,0-6.4,0c0.1-0.5,0.1-0.8,0.2-1c6.9-14,15-27.2,26.6-37.9c6.1-5.7,13-10.1,21.4-11.6
			c12.2-2.2,23,4.6,25.7,16.3C167.9,30.4,168,31.1,168.2,32.2z"/>
		<path class="st0" d="M32.7,32.1c0.3-1.6,0.5-2.8,0.9-4c3.2-10.6,13.8-16.8,25.2-14.7c7.4,1.3,13.6,4.9,19.2,9.6
			c8.2,6.9,14.7,15.3,20.3,24.4c0.3,0.5,0.4,1.4,0.2,1.9c-1.4,2.7-3,5.4-4.6,8.3c-0.9-1-1.6-1.7-2.4-2.6
			c-6.5-7.4-13.3-14.5-21.6-19.9c-6.6-4.3-13.7-7-21.7-7.1c-4.7,0-9,1-13.2,3.1C34.3,31.4,33.7,31.7,32.7,32.1z"/>
		<path class="st0" d="M116,63.5c1-0.5,1.9-1,2.9-1.6c9.6-5.2,18.7-10.9,25.7-19.4c2-2.4,3.4-5.3,5.2-7.9c0.4-0.6,1.3-1.3,2-1.4
			c5.4-0.3,10.3,1.1,14.7,4.1c1.2,0.8,1.5,1.7,1.1,3c-1.3,4.4-3.7,8-7.3,10.8c-7.6,5.8-16.3,9.3-25.1,12.7c-0.1,0-0.3,0.1-0.4,0.1
			c-6.2,0-12.4,0-18.6,0C116.1,63.8,116,63.6,116,63.5z"/>
		<path class="st0" d="M84.8,63.9c-6.2,0-12.5,0.5-18.6-0.2c-3.8-0.5-7.5-2.7-11.1-4.3c-5.6-2.5-11-5.3-15.7-9.4
			c-3-2.7-4.9-6.1-6-9.9c-0.3-1.2-0.1-2,0.9-2.7c4.6-3.1,9.6-4.5,15.1-4.2c0.6,0,1.4,0.5,1.6,1c4.1,9.2,11.6,15.2,19.6,20.7
			c3.9,2.7,8.2,4.9,12.3,7.3c0.7,0.4,1.4,0.8,2.1,1.2C84.9,63.6,84.8,63.8,84.8,63.9z"/>
	</g>
</g>
<g>
	<g>
		<path class="st0" d="M90.7-164.1c0.3,0,0.5,0,0.8,0c0.2,0,0.4,0,0.6-0.1c0.2-0.1,0.3-0.2,0.5-0.3c0.1-0.1,0.2-0.3,0.3-0.5
			c0.1-0.2,0.1-0.4,0.1-0.6c0-0.1,0-0.3-0.1-0.4c-0.1-0.3-0.2-0.5-0.4-0.7c-0.1-0.1-0.2-0.2-0.3-0.2c-0.2-0.1-0.5-0.2-0.8-0.2
			c-0.3,0-0.5,0-0.8,0c-0.2,0-0.4,0-0.6,0.1c-0.2,0.1-0.3,0.2-0.5,0.3c-0.1,0.1-0.2,0.3-0.3,0.5c-0.1,0.2-0.1,0.4-0.1,0.6
			c0,0.1,0,0.3,0.1,0.4c0.1,0.3,0.2,0.5,0.4,0.7c0.1,0.1,0.2,0.2,0.3,0.2C90.2-164.1,90.4-164.1,90.7-164.1L90.7-164.1z"/>
	</g>
</g>
</svg>
