<?xml version="1.0" encoding="utf-8"?>
<!-- Generator: Adobe Illustrator 24.0.2, SVG Export Plug-In . SVG Version: 6.00 Build 0)  -->
<svg version="1.1" xmlns="http://www.w3.org/2000/svg" xmlns:xlink="http://www.w3.org/1999/xlink" x="0px" y="0px"
	 viewBox="0 0 200 200" style="enable-background:new 0 0 200 200;" xml:space="preserve">
<style type="text/css">
	.st0{fill:#44586B;}
</style>
<g id="Capa_1">
	<path class="st0" d="M192.9,33.9C178.1,0.8,134-7.6,108.2,17.7c-1.1,1-2.1,1.4-3.6,1.4c-25.7,0-51.5-0.1-77.2,0
		c-14,0-24.8,10.8-24.8,24.8c0,43.1,0,86.1,0,129.2c0,1.7,0.1,3.5,0.5,5.2c2.8,12,12.3,19.6,24.7,19.6c21.4,0,42.7,0,64.1,0
		s42.7,0,64.1-0.1c2.8,0,5.8-0.4,8.4-1.2c10.5-3.4,16.9-12.6,16.9-23.6c0-24.8,0-49.6,0.1-74.4c0-1.1,0.4-2.3,1-3.2
		c2.5-4.1,5.2-8,7.6-12.2C198.9,67.3,200.4,50.8,192.9,33.9z M111.3,101.4c10.1,13.8,18.8,28.7,22.9,46.1
		c-11.7-11.7-23.2-23.2-34.5-34.5C103.5,109.2,107.4,105.3,111.3,101.4z M20.5,168.3c-0.4,0.4-0.8,0.8-1.5,1.4
		c-0.1-0.7-0.1-1.2-0.1-1.6c0-41.4,0-82.7,0-124.1c0-5.1,3.3-8.5,8.2-8.5c22.5,0,45.1,0,67.6,0c0.3,0,0.7,0,0.9,0
		c-1,4-2.2,7.9-2.9,11.9c-2.1,12.3,0.5,23.9,6.4,34.8c0.5,1,0.9,2.1,1.7,2.9c1.3,1.6,0.8,2.6-0.6,3.9
		C73.6,115.4,47.1,141.9,20.5,168.3z M31.7,181.5C50.4,162.9,69.3,144,88,125.3c18.4,18.4,37.3,37.3,56.2,56.2
		C106.6,181.5,68.9,181.5,31.7,181.5z M165.1,173.4c0,1.4-0.5,2.8-0.7,4c-6.8-6.8-13.5-13.5-20.1-20.1c0.6-0.1,1.5-0.1,2.3-0.2
		c5.1-0.9,7.7-4.2,8.8-9c1.9-8.1,4.8-15.9,8.5-23.3c0.3-0.5,0.6-1.1,1.1-1.9c0.1,0.7,0.2,1,0.2,1.3
		C165.1,140.6,165.1,157,165.1,173.4z M176.8,73.5c-3.2,5.9-7,11.5-10.8,17.1c-8.2,11.9-15.2,24.4-20.5,37.8
		c-0.2,0.4-0.4,0.8-0.6,1.3c-1.7-4-3.4-7.8-5.1-11.5c-5.5-12-12.8-22.9-20.3-33.7c-4.1-5.8-7.6-11.9-9.7-18.8
		c-6.1-20.3,7.5-42.3,28.4-45.9c19.4-3.3,37.1,7.9,42.2,26.8C182.7,56,181.4,65.1,176.8,73.5z"/>
	<path class="st0" d="M68.4,50.5c-1.9,1.9-3.8,3.8-5.7,5.6c-8.5-5.6-15.1-6-21.3-1.1c-5.5,4.4-7.6,11.7-5.3,18.3
		c2.3,6.4,8.6,10.8,15.5,10.7c5.7-0.1,12-3.8,13.3-8.1c-4.5,0-8.9,0-13.4,0c0-2.8,0-5.4,0-8.1c8,0,16,0,23.9,0
		c2.1,6.7-5.5,18.4-14.3,22.3c-11.5,5-24.9,0.4-31-10.5c-6.1-11-2.9-24.7,7.4-31.9C48,40.6,61.6,43.2,68.4,50.5z"/>
	<path class="st0" d="M132.7,55.6c0.1-6.8,5.5-12.1,12.3-12c6.7,0.1,12.1,5.5,12,12.2c0,6.7-5.5,12.2-12.3,12.1
		C138,67.8,132.6,62.4,132.7,55.6z"/>
</g>
<g id="Capa_2">
</g>
</svg>
