<?xml version="1.0" encoding="utf-8"?>
<!-- Generator: Adobe Illustrator 24.0.2, SVG Export Plug-In . SVG Version: 6.00 Build 0)  -->
<svg version="1.1" id="Capa_1" xmlns="http://www.w3.org/2000/svg" xmlns:xlink="http://www.w3.org/1999/xlink" x="0px" y="0px"
	 viewBox="0 0 200 200" style="enable-background:new 0 0 200 200;" xml:space="preserve">
<style type="text/css">
	.st0{fill-rule:evenodd;clip-rule:evenodd;fill:#44586B;}
</style>
<g>
	<path class="st0" d="M168.8,30.4C150.4,12.1,126.1,2,100.1,2C46.5,2,2.9,45.5,2.9,99.1c0,17.1,4.5,33.8,13,48.6L2.1,198l51.5-13.5
		c14.2,7.7,30.2,11.8,46.4,11.8h0c0,0,0,0,0,0c53.5,0,97.1-43.6,97.1-97.1C197.2,73.2,187.1,48.8,168.8,30.4z M100.1,179.9
		L100.1,179.9c-14.5,0-28.7-3.9-41.1-11.3l-2.9-1.7l-30.6,8l8.2-29.8l-1.9-3.1c-8.1-12.9-12.4-27.7-12.3-43
		c0-44.5,36.2-80.7,80.8-80.7c21.6,0,41.8,8.4,57.1,23.7c15.2,15.3,23.6,35.5,23.6,57.1C180.8,143.7,144.6,179.9,100.1,179.9z"/>
	<path class="st0" d="M144.4,119.4c-2.4-1.2-14.4-7.1-16.6-7.9c-2.2-0.8-3.8-1.2-5.5,1.2c-1.6,2.4-6.3,7.9-7.7,9.5
		c-1.4,1.6-2.8,1.8-5.3,0.6c-2.4-1.2-10.2-3.8-19.5-12c-7.2-6.4-12.1-14.4-13.5-16.8c-1.4-2.4-0.2-3.7,1.1-5
		c1.1-1.1,2.4-2.8,3.6-4.3c1.2-1.4,1.6-2.4,2.4-4c0.8-1.6,0.4-3-0.2-4.3c-0.6-1.2-5.5-13.2-7.5-18c-2-4.7-4-4.1-5.5-4.2
		c-1.4-0.1-3-0.1-4.7-0.1c-1.6,0-4.2,0.6-6.5,3c-2.2,2.4-8.5,8.3-8.5,20.3c0,11.9,8.7,23.5,9.9,25.1c1.2,1.6,17.1,26.1,41.5,36.7
		c5.8,2.5,10.3,4,13.8,5.1c5.8,1.8,11.1,1.6,15.3,1c4.7-0.7,14.4-5.9,16.4-11.5c2-5.7,2-10.5,1.4-11.5
		C148.4,121.3,146.8,120.6,144.4,119.4z"/>
</g>
</svg>
