<?xml version="1.0" encoding="utf-8"?>
<!-- Generator: Adobe Illustrator 25.4.1, SVG Export Plug-In . SVG Version: 6.00 Build 0)  -->
<svg version="1.1" id="Capa_1" xmlns="http://www.w3.org/2000/svg" xmlns:xlink="http://www.w3.org/1999/xlink" x="0px" y="0px"
	 viewBox="0 0 1242 1298" style="enable-background:new 0 0 1242 1298;" xml:space="preserve">
<style type="text/css">
	.st0{enable-background:new    ;}
	.st1{fill:#838283;}
	.st2{fill:#49707F;}
</style>
<g>
	<g class="st0">
		<path class="st1" d="M313.5,1005.1H333l3.1-10.4c0.6-2,0.9-3.6,0.9-4.8c0-0.5-0.1-1-0.4-1.4s-0.7-0.7-1.2-0.9s-1.6-0.3-3.2-0.3
			l0.3-1.2h17l-0.4,1.2c-1.4,0-2.5,0.1-3.2,0.4c-1,0.4-1.8,1-2.2,1.7c-0.7,1-1.4,2.7-2.1,5.2l-7.4,25.5c-0.6,2.1-0.9,3.6-0.9,4.6
			c0,0.8,0.3,1.4,0.8,1.8c0.6,0.4,1.9,0.7,3.9,0.8l-0.3,1.2h-16.5l0.4-1.2c1.6,0,2.7-0.2,3.3-0.4c0.8-0.4,1.4-0.9,1.8-1.4
			c0.5-0.8,1.2-2.6,2-5.3l3.8-12.9h-19.6l-3.8,12.9c-0.6,2.1-0.9,3.6-0.9,4.6c0,0.8,0.3,1.4,0.8,1.8s1.8,0.7,3.9,0.8l-0.2,1.2h-16.6
			l0.4-1.2c1.7,0,2.8-0.2,3.3-0.4c0.8-0.4,1.4-0.9,1.8-1.4c0.5-0.9,1.2-2.6,2-5.3l7.5-25.5c0.6-2.1,0.9-3.7,0.9-4.8
			c0-0.5-0.1-1-0.4-1.4s-0.7-0.7-1.2-0.9c-0.6-0.2-1.6-0.3-3.2-0.3l0.4-1.2h16.7l-0.3,1.2c-1.4,0-2.4,0.1-3.1,0.4
			c-1,0.4-1.7,1-2.1,1.7c-0.6,0.9-1.3,2.7-2.1,5.2L313.5,1005.1z"/>
		<path class="st1" d="M373.9,1000.3l-6.1,21.2l-0.7,2.9c-0.1,0.3-0.1,0.5-0.1,0.7c0,0.3,0.1,0.6,0.3,0.9c0.2,0.2,0.4,0.3,0.6,0.3
			c0.3,0,0.6-0.2,1-0.5c0.8-0.6,1.9-1.8,3.3-3.7l1,0.7c-1.4,2.2-2.9,3.8-4.4,4.9s-2.9,1.7-4.2,1.7c-0.9,0-1.5-0.2-2-0.7
			c-0.5-0.4-0.7-1.1-0.7-1.9c0-1,0.2-2.4,0.7-4l0.7-2.4c-2.7,3.6-5.2,6.1-7.5,7.5c-1.7,1-3.3,1.5-4.8,1.5s-2.8-0.6-3.9-1.9
			s-1.6-3-1.6-5.2c0-3.3,1-6.8,3-10.5s4.5-6.6,7.6-8.8c2.4-1.8,4.6-2.6,6.7-2.6c1.3,0,2.4,0.3,3.2,1c0.8,0.7,1.5,1.8,1.9,3.3
			l1.1-3.6L373.9,1000.3z M362.8,1001.9c-1.3,0-2.7,0.6-4.2,1.9c-2.1,1.8-4,4.4-5.7,7.8c-1.7,3.5-2.5,6.6-2.5,9.4
			c0,1.4,0.4,2.5,1.1,3.3c0.7,0.8,1.5,1.2,2.5,1.2c2.2,0,4.7-1.7,7.4-5c3.6-4.4,5.3-9,5.3-13.7c0-1.8-0.3-3-1-3.8
			C364.9,1002.3,364,1001.9,362.8,1001.9z"/>
		<path class="st1" d="M381.2,1001.1H401v0.8l-21.6,22.5h9.1c2.2,0,3.5-0.1,4.1-0.3c0.6-0.2,1.1-0.5,1.6-1.1c0.5-0.5,1-1.5,1.6-2.9
			h1.2l-2.7,8.5H374v-0.9l21.6-22.5h-9c-1.9,0-3,0.1-3.4,0.2c-0.6,0.1-1.2,0.5-1.7,1c-0.6,0.5-1.1,1.4-1.7,2.6h-1.2L381.2,1001.1z"
			/>
		<path class="st1" d="M441.4,1021.8c-2.2,2.6-4.4,4.5-6.6,5.7s-4.5,1.8-7,1.8c-2.9,0-5.2-0.8-6.9-2.5c-1.7-1.7-2.5-3.9-2.5-6.7
			c0-3.2,0.9-6.3,2.7-9.4c1.8-3.1,4.2-5.6,7.2-7.5s5.9-2.9,8.8-2.9c2.3,0,4,0.5,5.1,1.4s1.7,2.1,1.7,3.5c0,1.3-0.4,2.4-1.2,3.3
			c-0.6,0.7-1.3,1.1-2.1,1.1c-0.6,0-1.2-0.2-1.6-0.6c-0.4-0.4-0.6-0.9-0.6-1.6c0-0.4,0.1-0.7,0.2-1.1c0.2-0.3,0.5-0.7,1-1.2
			s0.8-0.8,0.9-1s0.2-0.4,0.2-0.7c0-0.4-0.2-0.8-0.6-1.1c-0.6-0.4-1.5-0.6-2.6-0.6c-2,0-4.1,0.7-6.1,2.2c-2,1.4-3.7,3.5-5.1,6.1
			c-1.7,3.2-2.6,6.4-2.6,9.6c0,2.1,0.6,3.8,1.8,5c1.2,1.2,2.9,1.9,4.9,1.9c1.6,0,3.2-0.4,4.8-1.2c1.6-0.8,3.3-2.2,5.3-4.3
			L441.4,1021.8z"/>
		<path class="st1" d="M464.1,984.2l-10.7,37.1c-0.5,1.9-0.8,3-0.8,3.4c0,0.3,0.1,0.6,0.3,0.8c0.2,0.2,0.4,0.3,0.7,0.3
			c0.4,0,0.8-0.2,1.3-0.5c1.1-0.9,2.2-2.2,3.4-4l0.9,1c-2,2.8-3.8,4.7-5.5,5.9c-1.2,0.8-2.4,1.2-3.5,1.2c-0.8,0-1.4-0.3-2-0.8
			c-0.5-0.5-0.8-1.2-0.8-1.9c0-0.7,0.3-2.3,1-4.6l8.5-29.3c0.7-2.4,1-3.8,1-4.1c0-0.5-0.2-0.9-0.6-1.3c-0.4-0.3-1-0.5-1.8-0.5
			c-0.5,0-1.2,0.1-2.2,0.2V986L464.1,984.2z"/>
		<path class="st1" d="M477.5,1000.3l-6.2,21.9c-0.4,1.5-0.6,2.4-0.6,2.6c0,0.3,0.1,0.6,0.3,0.8s0.4,0.3,0.7,0.3
			c0.3,0,0.7-0.2,1.1-0.5c1.2-0.9,2.4-2.3,3.6-4l1.1,0.7c-1.4,2.1-3.1,4-5,5.5c-1.4,1.1-2.7,1.6-4,1.6c-0.9,0-1.6-0.3-2.1-0.8
			s-0.8-1.1-0.8-1.9s0.3-2.1,0.8-3.8l4.1-14c0.6-2.3,1-3.7,1-4.3c0-0.4-0.2-0.8-0.5-1.1s-0.8-0.4-1.3-0.4s-1.4,0.1-2.9,0.3v-1.2
			L477.5,1000.3z M477.1,987.9c0.9,0,1.6,0.3,2.2,0.9c0.6,0.6,0.9,1.3,0.9,2.2s-0.3,1.6-0.9,2.2c-0.6,0.6-1.3,0.9-2.2,0.9
			c-0.9,0-1.6-0.3-2.2-0.9c-0.6-0.6-0.9-1.4-0.9-2.2s0.3-1.6,0.9-2.2S476.2,987.9,477.1,987.9z"/>
		<path class="st1" d="M505.3,1021.8c-2.2,2.6-4.4,4.5-6.6,5.7s-4.5,1.8-7,1.8c-2.9,0-5.2-0.8-6.9-2.5c-1.7-1.7-2.5-3.9-2.5-6.7
			c0-3.2,0.9-6.3,2.7-9.4c1.8-3.1,4.2-5.6,7.2-7.5s5.9-2.9,8.8-2.9c2.3,0,4,0.5,5.1,1.4s1.7,2.1,1.7,3.5c0,1.3-0.4,2.4-1.2,3.3
			c-0.6,0.7-1.3,1.1-2.1,1.1c-0.6,0-1.2-0.2-1.6-0.6c-0.4-0.4-0.6-0.9-0.6-1.6c0-0.4,0.1-0.7,0.2-1.1c0.2-0.3,0.5-0.7,1-1.2
			s0.8-0.8,0.9-1s0.2-0.4,0.2-0.7c0-0.4-0.2-0.8-0.6-1.1c-0.6-0.4-1.5-0.6-2.6-0.6c-2,0-4.1,0.7-6.1,2.2c-2,1.4-3.7,3.5-5.1,6.1
			c-1.7,3.2-2.6,6.4-2.6,9.6c0,2.1,0.6,3.8,1.8,5c1.2,1.2,2.9,1.9,4.9,1.9c1.6,0,3.2-0.4,4.8-1.2c1.6-0.8,3.3-2.2,5.3-4.3
			L505.3,1021.8z"/>
		<path class="st1" d="M532.5,1016.8c-0.1,1-0.2,1.9-0.2,2.6c0,1.9,0.7,3.4,2,4.7c1.3,1.3,2.9,2,4.8,2c1.5,0,2.9-0.3,4.3-0.9
			c1.4-0.6,3.4-2,6.1-4.1l0.7,0.9c-4.9,4.9-9.6,7.3-14.1,7.3c-3,0-5.3-1-6.8-2.9s-2.3-4-2.3-6.3c0-3.1,1-6.3,2.9-9.5
			s4.3-5.8,7.2-7.6s5.9-2.7,8.9-2.7c2.2,0,3.8,0.5,4.9,1.4c1.1,0.9,1.6,2,1.6,3.2c0,1.7-0.7,3.4-2.1,5c-1.8,2.1-4.5,3.7-8,5
			C540,1015.6,536.7,1016.3,532.5,1016.8z M532.7,1015.3c3.1-0.4,5.6-1,7.5-1.8c2.6-1.1,4.5-2.5,5.8-4.1s1.9-3.1,1.9-4.6
			c0-0.9-0.3-1.5-0.8-2.1s-1.3-0.8-2.3-0.8c-2.1,0-4.4,1.1-6.7,3.4C535.6,1007.5,533.9,1010.8,532.7,1015.3z"/>
		<path class="st1" d="M567.4,1000.3l-4.1,14.2c3.9-5.8,6.9-9.6,8.9-11.5c2.1-1.8,4.1-2.8,6-2.8c1,0,1.9,0.3,2.6,1
			c0.7,0.7,1,1.6,1,2.7c0,1.3-0.3,2.9-0.9,5l-3.8,13.1c-0.4,1.5-0.7,2.5-0.7,2.8s0.1,0.5,0.3,0.7s0.3,0.3,0.5,0.3s0.5-0.1,0.9-0.4
			c1.1-0.9,2.3-2.2,3.6-4l1,0.6c-1.9,2.8-3.8,4.7-5.5,5.9c-1.2,0.8-2.3,1.2-3.3,1.2c-0.8,0-1.4-0.2-1.8-0.7
			c-0.5-0.5-0.7-1.1-0.7-1.9c0-1,0.3-2.7,1-5.2l3.6-12.6c0.4-1.6,0.7-2.8,0.7-3.6c0-0.4-0.1-0.7-0.4-1c-0.3-0.3-0.6-0.4-1-0.4
			c-0.6,0-1.3,0.2-2.1,0.7c-1.5,0.9-3.1,2.5-4.8,4.6s-3.4,4.9-5.3,8.2c-1,1.8-1.8,3.7-2.4,5.8l-1.6,5.2h-4.7l5.7-19.5
			c0.7-2.4,1-3.8,1-4.2s-0.2-0.9-0.6-1.2c-0.4-0.3-0.8-0.5-1.3-0.5c-0.3,0-0.7,0.1-1.3,0.2l-1.2,0.2l-0.2-1.1L567.4,1000.3z"/>
		<path class="st1" d="M608.8,1016.8c-0.1,1-0.2,1.9-0.2,2.6c0,1.9,0.7,3.4,2,4.7c1.3,1.3,2.9,2,4.8,2c1.5,0,2.9-0.3,4.3-0.9
			c1.4-0.6,3.4-2,6.1-4.1l0.7,0.9c-4.9,4.9-9.6,7.3-14.1,7.3c-3,0-5.3-1-6.8-2.9s-2.3-4-2.3-6.3c0-3.1,1-6.3,2.9-9.5
			s4.3-5.8,7.2-7.6s5.9-2.7,8.9-2.7c2.2,0,3.8,0.5,4.9,1.4c1.1,0.9,1.6,2,1.6,3.2c0,1.7-0.7,3.4-2.1,5c-1.8,2.1-4.5,3.7-8,5
			C616.3,1015.6,613,1016.3,608.8,1016.8z M609,1015.3c3.1-0.4,5.6-1,7.5-1.8c2.6-1.1,4.5-2.5,5.8-4.1s1.9-3.1,1.9-4.6
			c0-0.9-0.3-1.5-0.8-2.1s-1.3-0.8-2.3-0.8c-2.1,0-4.4,1.1-6.7,3.4C611.9,1007.5,610.1,1010.8,609,1015.3z"/>
		<path class="st1" d="M648.5,984.2l-10.7,37.1c-0.5,1.9-0.8,3-0.8,3.4c0,0.3,0.1,0.6,0.3,0.8s0.4,0.3,0.7,0.3
			c0.4,0,0.8-0.2,1.3-0.5c1.1-0.9,2.2-2.2,3.4-4l0.9,1c-2,2.8-3.8,4.7-5.5,5.9c-1.2,0.8-2.4,1.2-3.5,1.2c-0.8,0-1.4-0.3-2-0.8
			c-0.5-0.5-0.8-1.2-0.8-1.9c0-0.7,0.3-2.3,1-4.6l8.5-29.3c0.7-2.4,1-3.8,1-4.1c0-0.5-0.2-0.9-0.6-1.3s-1-0.5-1.8-0.5
			c-0.5,0-1.2,0.1-2.2,0.2V986L648.5,984.2z"/>
		<path class="st1" d="M686.4,1000.3l-1.9,9.6h-1.2c-0.1-2.8-0.7-4.8-1.8-6.1s-2.4-1.9-4-1.9c-1.3,0-2.3,0.3-3,1s-1.1,1.5-1.1,2.6
			c0,0.7,0.1,1.3,0.4,2c0.3,0.6,1,1.5,2,2.6c2.7,3,4.4,5.2,5.2,6.7s1.2,2.9,1.2,4.2c0,2.2-0.9,4.1-2.7,5.8s-4.1,2.5-6.8,2.5
			c-1.5,0-3.2-0.3-5.2-1c-0.7-0.3-1.2-0.4-1.6-0.4c-0.9,0-1.6,0.5-2.1,1.4h-1.1l1.9-10.1h1.2c0.1,3.2,0.7,5.4,1.9,6.7
			c1.2,1.3,2.8,2,4.9,2c1.6,0,2.8-0.4,3.8-1.3c0.9-0.9,1.4-2,1.4-3.3c0-0.8-0.2-1.6-0.5-2.3c-0.6-1.2-1.8-3-3.7-5.2s-3.1-3.9-3.6-5
			s-0.8-2.2-0.8-3.3c0-2,0.7-3.7,2.2-5.1c1.5-1.4,3.4-2.1,5.7-2.1c0.7,0,1.3,0.1,1.8,0.2c0.3,0.1,1,0.3,2,0.7
			c1.1,0.4,1.8,0.6,2.2,0.6c0.9,0,1.6-0.5,2.2-1.5L686.4,1000.3L686.4,1000.3z"/>
		<path class="st1" d="M717.7,1010.1c0,3.1-0.8,6.2-2.5,9.3s-4,5.5-6.9,7.3s-5.8,2.7-8.6,2.7s-5.2-0.9-7-2.7c-1.8-1.8-2.7-4.2-2.7-7
			c0-3.1,0.9-6.1,2.6-9.2c1.8-3.1,4.1-5.5,7.1-7.3s5.8-2.7,8.5-2.7c2.8,0,5,0.9,6.8,2.7C716.8,1004.8,717.7,1007.2,717.7,1010.1z
			 M712.5,1007.9c0-1.9-0.5-3.4-1.4-4.5s-2.2-1.6-3.7-1.6c-3,0-5.9,2.2-8.4,6.6c-2.6,4.4-3.9,8.7-3.9,13.1c0,2,0.5,3.5,1.5,4.6
			s2.3,1.6,3.8,1.6c2.9,0,5.7-2.2,8.3-6.5C711.2,1016.8,712.5,1012.4,712.5,1007.9z"/>
		<path class="st1" d="M738.5,984.2l-6.2,21.6c2-2.1,3.7-3.5,5.2-4.3s3-1.2,4.7-1.2c2.3,0,4.2,0.8,5.6,2.3s2.2,3.6,2.2,6.2
			c0,3.3-1,6.7-2.9,10s-4.3,5.9-7.2,7.8c-2.9,1.8-5.7,2.8-8.5,2.8c-3.2,0-6.4-1.2-9.7-3.5l9.5-32.6c0.7-2.5,1.1-4,1.1-4.5
			s-0.2-0.9-0.5-1.2c-0.5-0.4-1.2-0.6-2.1-0.6c-0.4,0-1.1,0.1-2,0.2V986L738.5,984.2z M726.4,1026.1c2.1,1.1,3.9,1.7,5.5,1.7
			c1.8,0,3.7-0.7,5.7-2s3.7-3.6,5.1-6.8c1.4-3.2,2.2-6.4,2.2-9.6c0-1.9-0.5-3.4-1.4-4.5s-2.1-1.6-3.4-1.6c-1.9,0-3.8,0.8-5.7,2.3
			c-1.9,1.6-3.2,3.7-4,6.5L726.4,1026.1z"/>
		<path class="st1" d="M755.3,1002.1l10.8-1.8l-4.5,15.2c3.6-6.2,6.9-10.6,9.9-13.1c1.7-1.4,3-2.1,4.1-2.1c0.7,0,1.2,0.2,1.6,0.6
			c0.4,0.4,0.6,1,0.6,1.8c0,1.4-0.3,2.7-1,3.9c-0.5,0.9-1.2,1.4-2.2,1.4c-0.5,0-0.9-0.2-1.2-0.5s-0.6-0.8-0.6-1.4
			c0-0.4-0.1-0.6-0.3-0.8s-0.4-0.2-0.6-0.2c-0.4,0-0.7,0.1-1,0.2c-0.5,0.3-1.4,1.1-2.5,2.4c-1.7,2-3.6,4.7-5.6,7.9
			c-0.9,1.4-1.6,2.9-2.2,4.7c-0.9,2.4-1.3,3.8-1.5,4.3l-1,3.9h-4.8l5.8-19.4c0.6-2.2,1-3.8,1-4.8c0-0.4-0.2-0.7-0.5-0.9
			c-0.4-0.3-1-0.5-1.6-0.5c-0.4,0-1.2,0.1-2.4,0.3L755.3,1002.1z"/>
		<path class="st1" d="M784.5,1016.8c-0.1,1-0.2,1.9-0.2,2.6c0,1.9,0.7,3.4,2,4.7c1.3,1.3,2.9,2,4.8,2c1.5,0,2.9-0.3,4.3-0.9
			c1.4-0.6,3.4-2,6.1-4.1l0.7,0.9c-4.9,4.9-9.6,7.3-14.1,7.3c-3,0-5.3-1-6.8-2.9s-2.3-4-2.3-6.3c0-3.1,1-6.3,2.9-9.5
			s4.3-5.8,7.2-7.6s5.9-2.7,8.9-2.7c2.2,0,3.8,0.5,4.9,1.4s1.6,2,1.6,3.2c0,1.7-0.7,3.4-2.1,5c-1.8,2.1-4.5,3.7-8,5
			C792,1015.6,788.7,1016.3,784.5,1016.8z M784.7,1015.3c3.1-0.4,5.6-1,7.5-1.8c2.6-1.1,4.5-2.5,5.8-4.1s1.9-3.1,1.9-4.6
			c0-0.9-0.3-1.5-0.8-2.1s-1.3-0.8-2.3-0.8c-2.1,0-4.4,1.1-6.7,3.4C787.6,1007.5,785.9,1010.8,784.7,1015.3z"/>
		<path class="st1" d="M835.4,1000.3l-2.2,7.2c2.3-2.7,4.3-4.5,6.1-5.6s3.6-1.6,5.4-1.6c1.9,0,3.4,0.7,4.7,2.2s2,3.4,2,5.7
			c0,4.6-1.9,9.2-5.6,14c-3.7,4.7-8.1,7.1-13,7.1c-1,0-2-0.1-2.8-0.3c-0.8-0.2-1.7-0.6-2.7-1.2l-2.3,8.1c-0.5,1.6-0.7,2.6-0.7,3.1
			s0.1,0.9,0.4,1.2c0.2,0.3,0.6,0.6,1.2,0.8c0.5,0.2,1.6,0.3,3.2,0.3l-0.3,1.2h-14.7l0.3-1.2c1.9-0.1,3.2-0.4,3.9-1s1.4-2.2,2.1-4.9
			l7.9-27.3c0.5-1.7,0.7-2.8,0.7-3.2c0-0.6-0.2-1-0.5-1.3s-0.8-0.5-1.5-0.5c-0.6,0-1.5,0.1-2.5,0.2v-1.2L835.4,1000.3z
			 M828.1,1025.3c1.3,1.5,3,2.3,5.2,2.3c1.1,0,2.2-0.3,3.3-0.9s2.2-1.5,3.3-2.7c1.1-1.2,2-2.5,2.9-4.1c0.9-1.5,1.6-3.4,2.3-5.5
			s1-4.2,1-6.3c0-1.7-0.4-2.9-1.1-3.8c-0.8-0.9-1.7-1.3-2.7-1.3c-2.2,0-4.5,1.3-6.6,3.9c-2.2,2.6-3.8,5.6-4.8,9L828.1,1025.3z"/>
		<path class="st1" d="M883.2,1000.3l-6.1,21.2l-0.7,2.9c-0.1,0.3-0.1,0.5-0.1,0.7c0,0.3,0.1,0.6,0.3,0.9c0.2,0.2,0.4,0.3,0.6,0.3
			c0.3,0,0.6-0.2,1-0.5c0.8-0.6,1.9-1.8,3.3-3.7l1,0.7c-1.4,2.2-2.9,3.8-4.4,4.9s-2.9,1.7-4.2,1.7c-0.9,0-1.5-0.2-2-0.7
			c-0.5-0.4-0.7-1.1-0.7-1.9c0-1,0.2-2.4,0.7-4l0.7-2.4c-2.7,3.6-5.2,6.1-7.5,7.5c-1.7,1-3.3,1.5-4.8,1.5s-2.8-0.6-3.9-1.9
			c-1.1-1.3-1.6-3-1.6-5.2c0-3.3,1-6.8,3-10.5s4.5-6.6,7.6-8.8c2.4-1.8,4.6-2.6,6.7-2.6c1.3,0,2.4,0.3,3.2,1s1.5,1.8,1.9,3.3
			l1.1-3.6L883.2,1000.3z M872,1001.9c-1.3,0-2.7,0.6-4.2,1.9c-2.1,1.8-4,4.4-5.7,7.8c-1.7,3.5-2.5,6.6-2.5,9.4
			c0,1.4,0.4,2.5,1.1,3.3c0.7,0.8,1.5,1.2,2.5,1.2c2.2,0,4.7-1.7,7.4-5c3.6-4.4,5.3-9,5.3-13.7c0-1.8-0.3-3-1-3.8
			C874.2,1002.3,873.2,1001.9,872,1001.9z"/>
		<path class="st1" d="M888.4,1002.1l10.8-1.8l-4.5,15.2c3.6-6.2,7-10.6,9.9-13.1c1.7-1.4,3-2.1,4.1-2.1c0.7,0,1.2,0.2,1.6,0.6
			s0.6,1,0.6,1.8c0,1.4-0.3,2.7-1,3.9c-0.5,0.9-1.2,1.4-2.2,1.4c-0.5,0-0.9-0.2-1.2-0.5s-0.6-0.8-0.6-1.4c0-0.4-0.1-0.6-0.3-0.8
			s-0.4-0.2-0.6-0.2c-0.4,0-0.7,0.1-1,0.2c-0.5,0.3-1.4,1.1-2.5,2.4c-1.7,2-3.6,4.7-5.6,7.9c-0.9,1.4-1.6,2.9-2.2,4.7
			c-0.9,2.4-1.3,3.8-1.5,4.3l-1,3.9h-4.8l5.8-19.4c0.6-2.2,1-3.8,1-4.8c0-0.4-0.2-0.7-0.5-0.9c-0.4-0.3-1-0.5-1.6-0.5
			c-0.4,0-1.2,0.1-2.4,0.3L888.4,1002.1z"/>
		<path class="st1" d="M940,1000.3l-6.1,21.2l-0.7,2.9c-0.1,0.3-0.1,0.5-0.1,0.7c0,0.3,0.1,0.6,0.3,0.9c0.2,0.2,0.4,0.3,0.6,0.3
			s0.6-0.2,1-0.5c0.8-0.6,1.9-1.8,3.3-3.7l1,0.7c-1.4,2.2-2.9,3.8-4.4,4.9s-2.9,1.7-4.2,1.7c-0.9,0-1.5-0.2-2-0.7
			c-0.5-0.4-0.7-1.1-0.7-1.9c0-1,0.2-2.4,0.7-4l0.7-2.4c-2.7,3.6-5.2,6.1-7.5,7.5c-1.7,1-3.3,1.5-4.8,1.5s-2.8-0.6-3.9-1.9
			c-1.1-1.3-1.6-3-1.6-5.2c0-3.3,1-6.8,3-10.5s4.5-6.6,7.6-8.8c2.4-1.8,4.6-2.6,6.7-2.6c1.3,0,2.4,0.3,3.2,1s1.5,1.8,1.9,3.3
			l1.1-3.6L940,1000.3z M928.8,1001.9c-1.3,0-2.7,0.6-4.2,1.9c-2.1,1.8-4,4.4-5.7,7.8c-1.7,3.5-2.5,6.6-2.5,9.4
			c0,1.4,0.4,2.5,1.1,3.3c0.7,0.8,1.5,1.2,2.5,1.2c2.2,0,4.7-1.7,7.4-5c3.6-4.4,5.3-9,5.3-13.7c0-1.8-0.3-3-1-3.8
			C931,1002.3,930,1001.9,928.8,1001.9z"/>
	</g>
	<g class="st0">
		<path class="st1" d="M403.2,1093.4l-6.1,21.2l-0.7,2.9c-0.1,0.3-0.1,0.5-0.1,0.7c0,0.3,0.1,0.6,0.3,0.9c0.2,0.2,0.4,0.3,0.6,0.3
			c0.3,0,0.6-0.2,1-0.5c0.8-0.6,1.9-1.8,3.3-3.7l1,0.7c-1.4,2.2-2.9,3.8-4.4,4.9s-2.9,1.7-4.2,1.7c-0.9,0-1.5-0.2-2-0.7
			c-0.5-0.4-0.7-1.1-0.7-1.9c0-1,0.2-2.4,0.7-4l0.7-2.4c-2.7,3.6-5.2,6.1-7.5,7.5c-1.7,1-3.3,1.5-4.8,1.5s-2.8-0.6-3.9-1.9
			s-1.6-3-1.6-5.2c0-3.3,1-6.8,3-10.5s4.5-6.6,7.6-8.8c2.4-1.8,4.6-2.6,6.7-2.6c1.3,0,2.4,0.3,3.2,1c0.8,0.7,1.5,1.8,1.9,3.3
			l1.1-3.6L403.2,1093.4z M392.1,1095c-1.3,0-2.7,0.6-4.2,1.9c-2.1,1.8-4,4.4-5.7,7.8c-1.7,3.5-2.5,6.6-2.5,9.4
			c0,1.4,0.4,2.5,1.1,3.3s1.5,1.2,2.5,1.2c2.2,0,4.7-1.7,7.4-5c3.6-4.4,5.3-9,5.3-13.7c0-1.8-0.3-3-1-3.8
			C394.2,1095.4,393.3,1095,392.1,1095z"/>
		<path class="st1" d="M438.4,1095.3l-0.9,3.3h-5.2c0.4,1.1,0.6,2.2,0.6,3.1c0,2.8-1.2,5.2-3.5,7.4c-2.4,2.1-5.6,3.3-9.6,3.5
			c-2.2,0.7-3.9,1.5-5,2.4c-0.4,0.3-0.6,0.6-0.6,1s0.2,0.8,0.6,1.1c0.4,0.3,1.3,0.7,2.8,1l6.1,1.4c3.3,0.8,5.5,1.7,6.6,2.8
			c1.1,1.1,1.6,2.4,1.6,3.8c0,1.7-0.6,3.3-1.9,4.7c-1.3,1.4-3.1,2.5-5.5,3.3s-5.1,1.2-8,1.2c-2.6,0-4.9-0.3-7.1-0.9
			c-2.1-0.6-3.6-1.4-4.6-2.5c-0.9-1-1.4-2.1-1.4-3.2c0-0.9,0.3-1.8,0.9-2.8s1.3-1.8,2.2-2.4c0.6-0.4,2.2-1.4,4.8-2.8
			c-1-0.7-1.4-1.6-1.4-2.5c0-0.8,0.4-1.7,1.3-2.6s2.6-2,5.3-3.1c-2.3-0.4-4.1-1.4-5.4-2.9s-2-3.1-2-4.9c0-2.9,1.3-5.6,3.9-7.9
			s6-3.5,10.3-3.5c1.6,0,2.8,0.2,3.8,0.5s2,0.8,2.9,1.5H438.4z M412.7,1121.7c-1.7,0.8-3,1.8-3.8,3c-0.9,1.2-1.3,2.4-1.3,3.5
			c0,1.4,0.6,2.5,1.9,3.4c1.8,1.3,4.4,1.9,7.9,1.9c3,0,5.5-0.5,7.6-1.5s3.2-2.3,3.2-3.9c0-0.8-0.4-1.6-1.2-2.3
			c-0.8-0.7-2.3-1.3-4.6-1.8C421.1,1123.8,417.9,1123,412.7,1121.7z M427.6,1100.3c0-1.7-0.5-3-1.4-4s-2.1-1.4-3.6-1.4
			c-2.4,0-4.3,1.2-5.8,3.5c-1.5,2.4-2.3,4.8-2.3,7.4c0,1.6,0.5,2.9,1.5,3.9s2.2,1.5,3.5,1.5c1.1,0,2.2-0.3,3.2-0.9s1.9-1.4,2.6-2.5
			s1.3-2.4,1.7-4S427.6,1101,427.6,1100.3z"/>
		<path class="st1" d="M440.4,1095.2l10.8-1.8l-4.5,15.2c3.6-6.2,6.9-10.6,9.9-13.1c1.7-1.4,3-2.1,4.1-2.1c0.7,0,1.2,0.2,1.6,0.6
			s0.6,1,0.6,1.8c0,1.4-0.3,2.7-1,3.9c-0.5,0.9-1.2,1.4-2.2,1.4c-0.5,0-0.9-0.2-1.2-0.5c-0.3-0.3-0.6-0.8-0.6-1.4
			c0-0.4-0.1-0.6-0.3-0.8c-0.2-0.2-0.4-0.2-0.6-0.2c-0.4,0-0.7,0.1-1,0.2c-0.5,0.3-1.4,1.1-2.5,2.4c-1.7,2-3.6,4.7-5.6,7.9
			c-0.9,1.4-1.6,2.9-2.2,4.7c-0.9,2.4-1.3,3.8-1.5,4.3l-1,3.9h-4.8l5.8-19.4c0.6-2.2,1-3.8,1-4.8c0-0.4-0.2-0.7-0.5-0.9
			c-0.4-0.3-1-0.5-1.6-0.5c-0.4,0-1.2,0.1-2.4,0.3L440.4,1095.2z"/>
		<path class="st1" d="M469.6,1109.9c-0.1,1-0.2,1.9-0.2,2.6c0,1.9,0.7,3.4,2,4.7c1.3,1.3,2.9,2,4.8,2c1.5,0,2.9-0.3,4.3-0.9
			s3.4-2,6.1-4.1l0.7,0.9c-4.9,4.9-9.6,7.3-14.1,7.3c-3,0-5.3-1-6.8-2.9s-2.3-4-2.3-6.3c0-3.1,1-6.3,2.9-9.5s4.3-5.8,7.2-7.6
			c2.9-1.8,5.9-2.7,8.9-2.7c2.2,0,3.8,0.5,4.9,1.4s1.6,2,1.6,3.2c0,1.7-0.7,3.4-2.1,5c-1.8,2.1-4.5,3.7-8,5
			C477.1,1108.8,473.8,1109.4,469.6,1109.9z M469.8,1108.4c3.1-0.4,5.6-1,7.5-1.8c2.6-1.1,4.5-2.5,5.8-4.1s1.9-3.1,1.9-4.6
			c0-0.9-0.3-1.5-0.8-2.1s-1.3-0.8-2.3-0.8c-2.1,0-4.4,1.1-6.7,3.4C472.7,1100.6,470.9,1103.9,469.8,1108.4z"/>
		<path class="st1" d="M523.6,1095.3l-0.9,3.3h-5.2c0.4,1.1,0.6,2.2,0.6,3.1c0,2.8-1.2,5.2-3.5,7.4c-2.4,2.1-5.6,3.3-9.6,3.5
			c-2.2,0.7-3.9,1.5-5,2.4c-0.4,0.3-0.6,0.6-0.6,1s0.2,0.8,0.6,1.1c0.4,0.3,1.3,0.7,2.8,1l6.1,1.4c3.3,0.8,5.5,1.7,6.6,2.8
			c1.1,1.1,1.6,2.4,1.6,3.8c0,1.7-0.6,3.3-1.9,4.7c-1.3,1.4-3.1,2.5-5.5,3.3c-2.4,0.8-5.1,1.2-8,1.2c-2.6,0-4.9-0.3-7.1-0.9
			c-2.1-0.6-3.6-1.4-4.6-2.5c-0.9-1-1.4-2.1-1.4-3.2c0-0.9,0.3-1.8,0.9-2.8s1.3-1.8,2.2-2.4c0.6-0.4,2.2-1.4,4.8-2.8
			c-1-0.7-1.4-1.6-1.4-2.5c0-0.8,0.4-1.7,1.3-2.6s2.6-2,5.3-3.1c-2.3-0.4-4.1-1.4-5.4-2.9s-2-3.1-2-4.9c0-2.9,1.3-5.6,3.9-7.9
			s6-3.5,10.3-3.5c1.6,0,2.8,0.2,3.8,0.5c1,0.3,2,0.8,2.9,1.5H523.6z M497.9,1121.7c-1.7,0.8-3,1.8-3.8,3c-0.9,1.2-1.3,2.4-1.3,3.5
			c0,1.4,0.6,2.5,1.9,3.4c1.8,1.3,4.4,1.9,7.9,1.9c3,0,5.5-0.5,7.6-1.5c2.1-1,3.2-2.3,3.2-3.9c0-0.8-0.4-1.6-1.2-2.3
			c-0.8-0.7-2.3-1.3-4.6-1.8C506.3,1123.8,503.1,1123,497.9,1121.7z M512.8,1100.3c0-1.7-0.5-3-1.4-4s-2.1-1.4-3.6-1.4
			c-2.4,0-4.3,1.2-5.8,3.5c-1.5,2.4-2.3,4.8-2.3,7.4c0,1.6,0.5,2.9,1.5,3.9s2.2,1.5,3.5,1.5c1.1,0,2.2-0.3,3.2-0.9s1.9-1.4,2.6-2.5
			s1.3-2.4,1.7-4C512.6,1102.2,512.8,1101,512.8,1100.3z"/>
		<path class="st1" d="M552.3,1093.4l-6.1,21.2l-0.7,2.9c-0.1,0.3-0.1,0.5-0.1,0.7c0,0.3,0.1,0.6,0.3,0.9c0.2,0.2,0.4,0.3,0.6,0.3
			c0.3,0,0.6-0.2,1-0.5c0.8-0.6,1.9-1.8,3.3-3.7l1,0.7c-1.4,2.2-2.9,3.8-4.4,4.9s-2.9,1.7-4.2,1.7c-0.9,0-1.5-0.2-2-0.7
			c-0.5-0.4-0.7-1.1-0.7-1.9c0-1,0.2-2.4,0.7-4l0.7-2.4c-2.7,3.6-5.2,6.1-7.5,7.5c-1.7,1-3.3,1.5-4.8,1.5s-2.8-0.6-3.9-1.9
			c-1.1-1.3-1.6-3-1.6-5.2c0-3.3,1-6.8,3-10.5s4.5-6.6,7.6-8.8c2.4-1.8,4.6-2.6,6.7-2.6c1.3,0,2.4,0.3,3.2,1s1.5,1.8,1.9,3.3
			l1.1-3.6L552.3,1093.4z M541.1,1095c-1.3,0-2.7,0.6-4.2,1.9c-2.1,1.8-4,4.4-5.7,7.8c-1.7,3.5-2.5,6.6-2.5,9.4
			c0,1.4,0.4,2.5,1.1,3.3c0.7,0.8,1.5,1.2,2.5,1.2c2.2,0,4.7-1.7,7.4-5c3.6-4.4,5.3-9,5.3-13.7c0-1.8-0.3-3-1-3.8
			C543.3,1095.4,542.3,1095,541.1,1095z"/>
		<path class="st1" d="M557.5,1095.2l10.8-1.8l-4.5,15.2c3.6-6.2,6.9-10.6,9.9-13.1c1.7-1.4,3-2.1,4.1-2.1c0.7,0,1.2,0.2,1.6,0.6
			c0.4,0.4,0.6,1,0.6,1.8c0,1.4-0.3,2.7-1,3.9c-0.5,0.9-1.2,1.4-2.2,1.4c-0.5,0-0.9-0.2-1.2-0.5s-0.6-0.8-0.6-1.4
			c0-0.4-0.1-0.6-0.3-0.8c-0.2-0.2-0.4-0.2-0.6-0.2c-0.4,0-0.7,0.1-1,0.2c-0.5,0.3-1.4,1.1-2.5,2.4c-1.7,2-3.6,4.7-5.6,7.9
			c-0.9,1.4-1.6,2.9-2.2,4.7c-0.9,2.4-1.3,3.8-1.5,4.3l-1,3.9h-4.8l5.8-19.4c0.6-2.2,1-3.8,1-4.8c0-0.4-0.2-0.7-0.5-0.9
			c-0.4-0.3-1-0.5-1.6-0.5c-0.4,0-1.2,0.1-2.4,0.3L557.5,1095.2z"/>
		<path class="st1" d="M595.7,1085.7l-2.4,8.5h4.9l-0.5,2h-4.8l-5.4,18.4c-0.6,2-0.9,3.3-0.9,3.8c0,0.4,0.1,0.6,0.2,0.8
			c0.2,0.2,0.3,0.3,0.6,0.3c0.5,0,1.2-0.4,2.1-1.1c0.5-0.4,1.6-1.7,3.4-3.8l1,0.8c-1.9,2.8-3.7,4.7-5.4,5.9
			c-1.2,0.8-2.3,1.2-3.5,1.2c-0.9,0-1.6-0.3-2.2-0.9s-0.9-1.3-0.9-2.2c0-1.1,0.3-2.8,1-5.1l5.2-18.1h-4.7l0.3-1.2
			c2.3-0.6,4.2-1.5,5.7-2.8c1.5-1.2,3.2-3.4,5.1-6.4h1.2V1085.7z"/>
		<path class="st1" d="M604.4,1109.9c-0.1,1-0.2,1.9-0.2,2.6c0,1.9,0.7,3.4,2,4.7c1.3,1.3,2.9,2,4.8,2c1.5,0,2.9-0.3,4.3-0.9
			c1.4-0.6,3.4-2,6.1-4.1l0.7,0.9c-4.9,4.9-9.6,7.3-14.1,7.3c-3,0-5.3-1-6.8-2.9s-2.3-4-2.3-6.3c0-3.1,1-6.3,2.9-9.5
			s4.3-5.8,7.2-7.6c2.9-1.8,5.9-2.7,8.9-2.7c2.2,0,3.8,0.5,4.9,1.4c1.1,0.9,1.6,2,1.6,3.2c0,1.7-0.7,3.4-2.1,5c-1.8,2.1-4.5,3.7-8,5
			C611.9,1108.8,608.7,1109.4,604.4,1109.9z M604.7,1108.4c3.1-0.4,5.6-1,7.5-1.8c2.6-1.1,4.5-2.5,5.8-4.1s1.9-3.1,1.9-4.6
			c0-0.9-0.3-1.5-0.8-2.1s-1.3-0.8-2.3-0.8c-2.1,0-4.4,1.1-6.7,3.4C607.6,1100.6,605.8,1103.9,604.7,1108.4z"/>
		<path class="st1" d="M671.2,1093.4l-6.1,21.2l-0.7,2.9c-0.1,0.3-0.1,0.5-0.1,0.7c0,0.3,0.1,0.6,0.3,0.9c0.2,0.2,0.4,0.3,0.6,0.3
			c0.3,0,0.6-0.2,1-0.5c0.8-0.6,1.9-1.8,3.3-3.7l1,0.7c-1.4,2.2-2.9,3.8-4.4,4.9s-2.9,1.7-4.2,1.7c-0.9,0-1.5-0.2-2-0.7
			c-0.5-0.4-0.7-1.1-0.7-1.9c0-1,0.2-2.4,0.7-4l0.7-2.4c-2.7,3.6-5.2,6.1-7.5,7.5c-1.7,1-3.3,1.5-4.8,1.5s-2.8-0.6-3.9-1.9
			c-1.1-1.3-1.6-3-1.6-5.2c0-3.3,1-6.8,3-10.5s4.5-6.6,7.6-8.8c2.4-1.8,4.6-2.6,6.7-2.6c1.3,0,2.4,0.3,3.2,1s1.5,1.8,1.9,3.3
			l1.1-3.6L671.2,1093.4z M660,1095c-1.3,0-2.7,0.6-4.2,1.9c-2.1,1.8-4,4.4-5.7,7.8c-1.7,3.5-2.5,6.6-2.5,9.4c0,1.4,0.4,2.5,1.1,3.3
			c0.7,0.8,1.5,1.2,2.5,1.2c2.2,0,4.7-1.7,7.4-5c3.6-4.4,5.3-9,5.3-13.7c0-1.8-0.3-3-1-3.8C662.2,1095.4,661.2,1095,660,1095z"/>
		<path class="st1" d="M708.1,1077.3l-10.7,37.1c-0.5,1.9-0.8,3-0.8,3.4c0,0.3,0.1,0.6,0.3,0.8c0.2,0.2,0.4,0.3,0.7,0.3
			c0.4,0,0.8-0.2,1.3-0.5c1.1-0.9,2.2-2.2,3.4-4l0.9,1c-2,2.8-3.8,4.7-5.5,5.9c-1.2,0.8-2.4,1.2-3.5,1.2c-0.8,0-1.4-0.3-2-0.8
			c-0.5-0.5-0.8-1.2-0.8-1.9c0-0.7,0.3-2.3,1-4.6l8.5-29.3c0.7-2.4,1-3.8,1-4.1c0-0.5-0.2-0.9-0.6-1.3c-0.4-0.3-1-0.5-1.8-0.5
			c-0.5,0-1.2,0.1-2.2,0.2v-1.2L708.1,1077.3z"/>
		<path class="st1" d="M736.8,1093.4l-6.1,21.2l-0.7,2.9c-0.1,0.3-0.1,0.5-0.1,0.7c0,0.3,0.1,0.6,0.3,0.9c0.2,0.2,0.4,0.3,0.6,0.3
			c0.3,0,0.6-0.2,1-0.5c0.8-0.6,1.9-1.8,3.3-3.7l1,0.7c-1.4,2.2-2.9,3.8-4.4,4.9s-2.9,1.7-4.2,1.7c-0.9,0-1.5-0.2-2-0.7
			c-0.5-0.4-0.7-1.1-0.7-1.9c0-1,0.2-2.4,0.7-4l0.7-2.4c-2.7,3.6-5.2,6.1-7.5,7.5c-1.7,1-3.3,1.5-4.8,1.5s-2.8-0.6-3.9-1.9
			c-1.1-1.3-1.6-3-1.6-5.2c0-3.3,1-6.8,3-10.5s4.5-6.6,7.6-8.8c2.4-1.8,4.6-2.6,6.7-2.6c1.3,0,2.4,0.3,3.2,1s1.5,1.8,1.9,3.3
			l1.1-3.6L736.8,1093.4z M725.7,1095c-1.3,0-2.7,0.6-4.2,1.9c-2.1,1.8-4,4.4-5.7,7.8c-1.7,3.5-2.5,6.6-2.5,9.4
			c0,1.4,0.4,2.5,1.1,3.3c0.7,0.8,1.5,1.2,2.5,1.2c2.2,0,4.7-1.7,7.4-5c3.6-4.4,5.3-9,5.3-13.7c0-1.8-0.3-3-1-3.8
			S726.9,1095,725.7,1095z"/>
		<path class="st1" d="M773.7,1077.3l-10.7,37.1c-0.5,1.9-0.8,3-0.8,3.4c0,0.3,0.1,0.6,0.3,0.8s0.4,0.3,0.7,0.3
			c0.4,0,0.8-0.2,1.3-0.5c1.1-0.9,2.2-2.2,3.4-4l0.9,1c-2,2.8-3.8,4.7-5.5,5.9c-1.2,0.8-2.4,1.2-3.5,1.2c-0.8,0-1.4-0.3-2-0.8
			c-0.5-0.5-0.8-1.2-0.8-1.9c0-0.7,0.3-2.3,1-4.6l8.5-29.3c0.7-2.4,1-3.8,1-4.1c0-0.5-0.2-0.9-0.6-1.3s-1-0.5-1.8-0.5
			c-0.5,0-1.2,0.1-2.2,0.2v-1.2L773.7,1077.3z"/>
		<path class="st1" d="M787.2,1093.4l-6.2,21.9c-0.4,1.5-0.6,2.4-0.6,2.6c0,0.3,0.1,0.6,0.3,0.8c0.2,0.2,0.4,0.3,0.7,0.3
			s0.7-0.2,1.1-0.5c1.2-0.9,2.4-2.3,3.6-4l1.1,0.7c-1.4,2.1-3.1,4-5,5.5c-1.4,1.1-2.7,1.6-4,1.6c-0.9,0-1.5-0.3-2.1-0.8
			c-0.5-0.5-0.8-1.1-0.8-1.9s0.3-2.1,0.8-3.8l4.1-14c0.6-2.3,1-3.7,1-4.3c0-0.4-0.2-0.8-0.5-1.1c-0.3-0.3-0.8-0.4-1.3-0.4
			s-1.4,0.1-2.9,0.3v-1.2L787.2,1093.4z M786.8,1081c0.9,0,1.6,0.3,2.2,0.9c0.6,0.6,0.9,1.3,0.9,2.2s-0.3,1.6-0.9,2.2
			s-1.3,0.9-2.2,0.9s-1.6-0.3-2.2-0.9s-0.9-1.4-0.9-2.2s0.3-1.6,0.9-2.2C785.1,1081.3,785.9,1081,786.8,1081z"/>
		<path class="st1" d="M813.4,1093.4l-1.9,9.6h-1.2c-0.1-2.8-0.7-4.8-1.8-6.1c-1.1-1.3-2.4-1.9-4-1.9c-1.3,0-2.3,0.3-3,1
			c-0.8,0.7-1.1,1.5-1.1,2.6c0,0.7,0.1,1.3,0.4,2c0.3,0.6,1,1.5,2,2.6c2.7,3,4.4,5.2,5.2,6.7s1.2,2.9,1.2,4.2c0,2.2-0.9,4.1-2.7,5.8
			c-1.8,1.7-4.1,2.5-6.8,2.5c-1.5,0-3.2-0.3-5.2-1c-0.7-0.3-1.2-0.4-1.6-0.4c-0.9,0-1.6,0.5-2.1,1.4h-1.1l1.9-10.1h1.2
			c0.1,3.2,0.7,5.4,1.9,6.7s2.8,2,4.9,2c1.6,0,2.8-0.4,3.8-1.3c0.9-0.9,1.4-2,1.4-3.3c0-0.8-0.2-1.6-0.5-2.3c-0.6-1.2-1.8-3-3.7-5.2
			s-3.1-3.9-3.6-5s-0.8-2.2-0.8-3.3c0-2,0.7-3.7,2.2-5.1s3.4-2.1,5.7-2.1c0.7,0,1.3,0.1,1.8,0.2c0.3,0.1,1,0.3,2,0.7
			s1.8,0.6,2.2,0.6c0.9,0,1.6-0.5,2.2-1.5L813.4,1093.4L813.4,1093.4z"/>
		<path class="st1" d="M831.7,1085.7l-2.4,8.5h4.9l-0.5,2h-4.8l-5.4,18.4c-0.6,2-0.9,3.3-0.9,3.8c0,0.4,0.1,0.6,0.2,0.8
			s0.3,0.3,0.6,0.3c0.5,0,1.2-0.4,2.1-1.1c0.5-0.4,1.6-1.7,3.4-3.8l1,0.8c-1.9,2.8-3.7,4.7-5.4,5.9c-1.2,0.8-2.3,1.2-3.5,1.2
			c-0.9,0-1.6-0.3-2.2-0.9c-0.6-0.6-0.9-1.3-0.9-2.2c0-1.1,0.3-2.8,1-5.1l5.2-18.1h-4.7l0.3-1.2c2.3-0.6,4.2-1.5,5.7-2.8
			s3.2-3.4,5.1-6.4h1.2V1085.7z"/>
		<path class="st1" d="M862.8,1093.4l-6.1,21.2l-0.7,2.9c-0.1,0.3-0.1,0.5-0.1,0.7c0,0.3,0.1,0.6,0.3,0.9c0.2,0.2,0.4,0.3,0.6,0.3
			c0.3,0,0.6-0.2,1-0.5c0.8-0.6,1.9-1.8,3.3-3.7l1,0.7c-1.4,2.2-2.9,3.8-4.4,4.9s-2.9,1.7-4.2,1.7c-0.9,0-1.5-0.2-2-0.7
			c-0.5-0.4-0.7-1.1-0.7-1.9c0-1,0.2-2.4,0.7-4l0.7-2.4c-2.7,3.6-5.2,6.1-7.5,7.5c-1.7,1-3.3,1.5-4.8,1.5s-2.8-0.6-3.9-1.9
			c-1.1-1.3-1.6-3-1.6-5.2c0-3.3,1-6.8,3-10.5s4.5-6.6,7.6-8.8c2.4-1.8,4.6-2.6,6.7-2.6c1.3,0,2.4,0.3,3.2,1s1.5,1.8,1.9,3.3
			l1.1-3.6L862.8,1093.4z M851.7,1095c-1.3,0-2.7,0.6-4.2,1.9c-2.1,1.8-4,4.4-5.7,7.8c-1.7,3.5-2.5,6.6-2.5,9.4
			c0,1.4,0.4,2.5,1.1,3.3c0.7,0.8,1.5,1.2,2.5,1.2c2.2,0,4.7-1.7,7.4-5c3.6-4.4,5.3-9,5.3-13.7c0-1.8-0.3-3-1-3.8
			S852.9,1095,851.7,1095z"/>
	</g>
	<g class="st0">
		<path class="st1" d="M498.3,1169.2l-10.7,36.8c-0.6,2-0.9,3.3-0.9,4c0,0.2,0.1,0.4,0.3,0.6c0.2,0.2,0.4,0.3,0.5,0.3
			c0.3,0,0.6-0.1,1-0.4c0.7-0.5,1.9-1.8,3.6-3.8l1.1,0.7c-1.5,2.1-3,3.7-4.6,5c-1.5,1.3-3,1.9-4.3,1.9c-0.7,0-1.3-0.2-1.8-0.7
			s-0.7-1.2-0.7-2.1c0-1.2,0.3-2.8,0.9-4.8l1.2-3.9c-3,4.7-5.7,7.9-8.2,9.7c-1.7,1.2-3.3,1.8-4.9,1.8s-3-0.7-4.2-2.1
			s-1.8-3.3-1.8-5.7c0-3.1,1-6.4,3-9.9s4.6-6.4,7.8-8.6c2.6-1.8,4.9-2.7,7.1-2.7c1.1,0,2.1,0.2,2.9,0.7s1.6,1.2,2.4,2.3l3.1-10.9
			c0.2-0.8,0.4-1.4,0.5-1.9c0.3-0.8,0.4-1.5,0.4-2.1c0-0.4-0.2-0.8-0.5-1.1c-0.4-0.4-1-0.5-1.7-0.5c-0.5,0-1.3,0.1-2.4,0.2v-1.2
			L498.3,1169.2z M486.7,1191.4c0-1.3-0.4-2.4-1.1-3.2c-0.8-0.8-1.7-1.2-2.9-1.2c-2.6,0-5.4,2.2-8.2,6.5s-4.2,8.4-4.2,12.4
			c0,1.6,0.3,2.8,1,3.6c0.7,0.8,1.5,1.2,2.5,1.2c2.2,0,4.9-2.3,8.1-7C485.1,1198.9,486.7,1194.8,486.7,1191.4z"/>
		<path class="st1" d="M503.3,1201.8c-0.1,1-0.2,1.9-0.2,2.6c0,1.9,0.7,3.4,2,4.7c1.3,1.3,2.9,2,4.8,2c1.5,0,2.9-0.3,4.3-0.9
			c1.4-0.6,3.4-2,6.1-4.1l0.7,0.9c-4.9,4.9-9.6,7.3-14.1,7.3c-3,0-5.3-1-6.8-2.9s-2.3-4-2.3-6.3c0-3.1,1-6.3,2.9-9.5
			s4.3-5.8,7.2-7.6c2.9-1.8,5.9-2.7,8.9-2.7c2.2,0,3.8,0.5,4.9,1.4c1.1,0.9,1.6,2,1.6,3.2c0,1.7-0.7,3.4-2.1,5c-1.8,2.1-4.5,3.7-8,5
			C510.8,1200.7,507.5,1201.3,503.3,1201.8z M503.5,1200.3c3.1-0.4,5.6-1,7.5-1.8c2.6-1.1,4.5-2.5,5.8-4.1s1.9-3.1,1.9-4.6
			c0-0.9-0.3-1.5-0.8-2.1s-1.3-0.8-2.3-0.8c-2.1,0-4.4,1.1-6.7,3.4C506.4,1192.5,504.6,1195.9,503.5,1200.3z"/>
		<path class="st1" d="M554.7,1185.3l-6.2,21.9c-0.4,1.5-0.6,2.4-0.6,2.6c0,0.3,0.1,0.6,0.3,0.8s0.4,0.3,0.7,0.3s0.7-0.2,1.1-0.5
			c1.2-0.9,2.4-2.3,3.6-4l1.1,0.7c-1.4,2.1-3.1,4-5,5.5c-1.4,1.1-2.7,1.6-4,1.6c-0.9,0-1.6-0.3-2.1-0.8s-0.8-1.1-0.8-1.9
			s0.3-2.1,0.8-3.8l4.1-14c0.6-2.3,1-3.7,1-4.3c0-0.4-0.2-0.8-0.5-1.1c-0.3-0.3-0.8-0.4-1.3-0.4s-1.4,0.1-2.9,0.3v-1.2L554.7,1185.3
			z M554.3,1172.9c0.9,0,1.6,0.3,2.2,0.9c0.6,0.6,0.9,1.3,0.9,2.2s-0.3,1.6-0.9,2.2c-0.6,0.6-1.3,0.9-2.2,0.9s-1.6-0.3-2.2-0.9
			c-0.6-0.6-0.9-1.4-0.9-2.2s0.3-1.6,0.9-2.2C552.7,1173.3,553.4,1172.9,554.3,1172.9z"/>
		<path class="st1" d="M571.9,1185.3l-4.1,14.2c3.9-5.8,6.9-9.6,8.9-11.5c2.1-1.8,4.1-2.8,6-2.8c1,0,1.9,0.3,2.6,1
			c0.7,0.7,1,1.6,1,2.7c0,1.3-0.3,2.9-0.9,5l-3.8,13.1c-0.4,1.5-0.7,2.5-0.7,2.8s0.1,0.5,0.3,0.7s0.3,0.3,0.5,0.3s0.5-0.1,0.9-0.4
			c1.1-0.9,2.3-2.2,3.6-4l1,0.6c-1.9,2.8-3.8,4.7-5.5,5.9c-1.2,0.8-2.3,1.2-3.3,1.2c-0.8,0-1.4-0.2-1.8-0.7
			c-0.5-0.5-0.7-1.1-0.7-1.9c0-1,0.3-2.7,1-5.2l3.6-12.6c0.4-1.6,0.7-2.8,0.7-3.6c0-0.4-0.1-0.7-0.4-1c-0.3-0.3-0.6-0.4-1-0.4
			c-0.6,0-1.3,0.2-2.1,0.7c-1.5,0.9-3.1,2.5-4.8,4.6s-3.4,4.9-5.3,8.2c-1,1.8-1.8,3.7-2.4,5.8l-1.6,5.2H559l5.7-19.5
			c0.7-2.4,1-3.8,1-4.2s-0.2-0.9-0.6-1.2c-0.4-0.3-0.8-0.5-1.3-0.5c-0.3,0-0.7,0.1-1.3,0.2l-1.2,0.2l-0.2-1.1L571.9,1185.3z"/>
		<path class="st1" d="M591.1,1187.2l9-1.9c0.6,1.5,1.2,3.1,1.6,4.7c0.6,2.4,1,5.1,1.4,8.4c0.2,1.6,0.4,5.1,0.7,10.3
			c2.6-2.9,4.2-4.6,4.7-5.3c2.8-3.7,4.4-5.9,4.8-6.5c0.7-1.1,1.1-2.1,1.4-2.9c0.2-0.6,0.3-1.2,0.3-1.8c0-0.5-0.5-1.2-1.5-1.9
			c-1-0.7-1.5-1.5-1.5-2.4c0-0.6,0.3-1.2,0.8-1.8c0.5-0.5,1.2-0.8,1.9-0.8c0.9,0,1.6,0.4,2.3,1.1s1,1.6,1,2.7s-0.2,2.1-0.5,3.1
			c-0.5,1.6-1.5,3.5-3,5.8s-3.9,5.3-7.2,9.2c-0.4,0.5-2.7,2.9-6.9,7.2h-1.1c-0.5-13.2-1.6-21.4-3.1-24.6c-0.5-1.1-1.4-1.6-2.6-1.6
			c-0.5,0-1.3,0.1-2.2,0.3L591.1,1187.2z"/>
		<path class="st1" d="M632.8,1185.3l-6.2,21.9c-0.4,1.5-0.6,2.4-0.6,2.6c0,0.3,0.1,0.6,0.3,0.8c0.2,0.2,0.4,0.3,0.7,0.3
			s0.7-0.2,1.1-0.5c1.2-0.9,2.4-2.3,3.6-4l1.1,0.7c-1.4,2.1-3.1,4-5,5.5c-1.4,1.1-2.7,1.6-4,1.6c-0.9,0-1.6-0.3-2.1-0.8
			s-0.8-1.1-0.8-1.9s0.3-2.1,0.8-3.8l4.1-14c0.6-2.3,1-3.7,1-4.3c0-0.4-0.2-0.8-0.5-1.1s-0.8-0.4-1.3-0.4s-1.4,0.1-2.9,0.3v-1.2
			L632.8,1185.3z M632.4,1172.9c0.9,0,1.6,0.3,2.2,0.9c0.6,0.6,0.9,1.3,0.9,2.2s-0.3,1.6-0.9,2.2c-0.6,0.6-1.3,0.9-2.2,0.9
			s-1.6-0.3-2.2-0.9c-0.6-0.6-0.9-1.4-0.9-2.2s0.3-1.6,0.9-2.2C630.7,1173.3,631.5,1172.9,632.4,1172.9z"/>
		<path class="st1" d="M652.4,1177.6l-2.4,8.5h4.9l-0.5,2h-4.8l-5.4,18.4c-0.6,2-0.9,3.3-0.9,3.8c0,0.4,0.1,0.6,0.2,0.8
			c0.2,0.2,0.3,0.3,0.6,0.3c0.5,0,1.2-0.4,2.1-1.1c0.5-0.4,1.6-1.7,3.4-3.8l1,0.8c-1.9,2.8-3.7,4.7-5.4,5.9
			c-1.2,0.8-2.3,1.2-3.5,1.2c-0.9,0-1.6-0.3-2.2-0.9c-0.6-0.6-0.9-1.3-0.9-2.2c0-1.1,0.3-2.8,1-5.1l5.2-18.1h-4.7l0.3-1.2
			c2.3-0.6,4.2-1.5,5.7-2.8c1.5-1.2,3.2-3.4,5.1-6.4h1.2V1177.6z"/>
		<path class="st1" d="M683.6,1185.3l-6.1,21.2l-0.7,2.9c-0.1,0.3-0.1,0.5-0.1,0.7c0,0.3,0.1,0.6,0.3,0.9c0.2,0.2,0.4,0.3,0.6,0.3
			c0.3,0,0.6-0.2,1-0.5c0.8-0.6,1.9-1.8,3.3-3.7l1,0.7c-1.4,2.2-2.9,3.8-4.4,4.9s-2.9,1.7-4.2,1.7c-0.9,0-1.5-0.2-2-0.7
			c-0.5-0.4-0.7-1.1-0.7-1.9c0-1,0.2-2.4,0.7-4l0.7-2.4c-2.7,3.6-5.2,6.1-7.5,7.5c-1.7,1-3.3,1.5-4.8,1.5s-2.8-0.6-3.9-1.9
			c-1.1-1.3-1.6-3-1.6-5.2c0-3.3,1-6.8,3-10.5s4.5-6.6,7.6-8.8c2.4-1.8,4.6-2.6,6.7-2.6c1.3,0,2.4,0.3,3.2,1s1.5,1.8,1.9,3.3
			l1.1-3.6L683.6,1185.3z M672.4,1186.9c-1.3,0-2.7,0.6-4.2,1.9c-2.1,1.8-4,4.4-5.7,7.8c-1.7,3.5-2.5,6.6-2.5,9.4
			c0,1.4,0.4,2.5,1.1,3.3c0.7,0.8,1.5,1.2,2.5,1.2c2.2,0,4.7-1.7,7.4-5c3.6-4.4,5.3-9,5.3-13.7c0-1.8-0.3-3-1-3.8
			C674.6,1187.3,673.6,1186.9,672.4,1186.9z"/>
		<path class="st1" d="M720.1,1169.2l-10.7,36.8c-0.6,2-0.9,3.3-0.9,4c0,0.2,0.1,0.4,0.3,0.6s0.4,0.3,0.5,0.3c0.3,0,0.6-0.1,1-0.4
			c0.7-0.5,1.9-1.8,3.6-3.8l1.1,0.7c-1.5,2.1-3,3.7-4.6,5c-1.5,1.3-3,1.9-4.3,1.9c-0.7,0-1.3-0.2-1.8-0.7s-0.7-1.2-0.7-2.1
			c0-1.2,0.3-2.8,0.9-4.8l1.2-3.9c-3,4.7-5.7,7.9-8.2,9.7c-1.7,1.2-3.3,1.8-4.9,1.8c-1.6,0-3-0.7-4.2-2.1s-1.8-3.3-1.8-5.7
			c0-3.1,1-6.4,3-9.9s4.6-6.4,7.8-8.6c2.6-1.8,4.9-2.7,7.1-2.7c1.1,0,2.1,0.2,2.9,0.7c0.8,0.5,1.6,1.2,2.4,2.3l3.1-10.9
			c0.2-0.8,0.4-1.4,0.5-1.9c0.3-0.8,0.4-1.5,0.4-2.1c0-0.4-0.2-0.8-0.5-1.1c-0.4-0.4-1-0.5-1.7-0.5c-0.5,0-1.3,0.1-2.4,0.2v-1.2
			L720.1,1169.2z M708.5,1191.4c0-1.3-0.4-2.4-1.1-3.2c-0.8-0.8-1.7-1.2-2.9-1.2c-2.6,0-5.4,2.2-8.2,6.5s-4.2,8.4-4.2,12.4
			c0,1.6,0.3,2.8,1,3.6c0.7,0.8,1.5,1.2,2.5,1.2c2.2,0,4.9-2.3,8.1-7C706.9,1198.9,708.5,1194.8,708.5,1191.4z"/>
		<path class="st1" d="M747,1195.1c0,3.1-0.8,6.2-2.5,9.3c-1.7,3.1-4,5.5-6.9,7.3s-5.8,2.7-8.6,2.7s-5.2-0.9-7-2.7
			c-1.8-1.8-2.7-4.2-2.7-7c0-3.1,0.9-6.1,2.6-9.2c1.8-3.1,4.1-5.5,7.1-7.3s5.8-2.7,8.5-2.7c2.8,0,5,0.9,6.8,2.7
			C746.1,1189.9,747,1192.2,747,1195.1z M741.8,1192.9c0-1.9-0.5-3.4-1.4-4.5s-2.2-1.6-3.7-1.6c-3,0-5.9,2.2-8.4,6.6
			c-2.6,4.4-3.9,8.7-3.9,13.1c0,2,0.5,3.5,1.5,4.6s2.3,1.6,3.8,1.6c2.9,0,5.7-2.2,8.3-6.5C740.5,1201.9,741.8,1197.4,741.8,1192.9z"
			/>
		<path class="st1" d="M772.5,1185.3l-1.9,9.6h-1.2c-0.1-2.8-0.7-4.8-1.8-6.1c-1.1-1.3-2.4-1.9-4-1.9c-1.3,0-2.3,0.3-3,1
			c-0.8,0.7-1.1,1.5-1.1,2.6c0,0.7,0.1,1.3,0.4,2c0.3,0.6,1,1.5,2,2.6c2.7,3,4.4,5.2,5.2,6.7s1.2,2.9,1.2,4.2c0,2.2-0.9,4.1-2.7,5.8
			c-1.8,1.7-4.1,2.5-6.8,2.5c-1.5,0-3.2-0.3-5.2-1c-0.7-0.3-1.2-0.4-1.6-0.4c-0.9,0-1.6,0.5-2.1,1.4h-1.1l1.9-10.1h1.2
			c0.1,3.2,0.7,5.4,1.9,6.7s2.8,2,4.9,2c1.6,0,2.8-0.4,3.8-1.3c0.9-0.9,1.4-2,1.4-3.3c0-0.8-0.2-1.6-0.5-2.3c-0.6-1.2-1.8-3-3.7-5.2
			s-3.1-3.9-3.6-5s-0.8-2.2-0.8-3.3c0-2,0.7-3.7,2.2-5.1s3.4-2.1,5.7-2.1c0.7,0,1.3,0.1,1.8,0.2c0.3,0.1,1,0.3,2,0.7
			s1.8,0.6,2.2,0.6c0.9,0,1.6-0.5,2.2-1.5L772.5,1185.3L772.5,1185.3z"/>
	</g>
</g>
<g>
	<g>
		<g>
			<g>
				<g>
					<path class="st2" d="M493.4,883.2c11.2,15.4,32.7,11.9,49.3,8.7c13.4-2.6,26.9-4.3,40.6-3.9c6.8,0.2,13.9,0.5,20.4,2.1
						c3.1,0.8,6.4,1.8,8.7,4.2c3.5,4.2,3.5,8.4-0.1,12.5c-5.6,4.6-7.8,4.1-6.6-1.7c0.2,0.8,1.5,0.6,1.4-0.2
						c-0.4-8.8-15.1-0.6-5.7,5.4c10.4,6.7,19.8-9,13.2-16.9c-4.7-5.6-13.3-6.2-20.3-6.9c-11.9-1.2-23.9-0.8-35.8,0.6
						c-20.9,2.6-47.7,13.4-64.2-4.8C493.9,882,493,882.7,493.4,883.2L493.4,883.2z"/>
				</g>
				<g>
					<path class="st2" d="M584.8,896.3c1-5.3-7-3.9-5.6,1.1c2.5,9,15.2,1.5,16.8-4.1c2.8-10.2-9-16.8-18.1-16.9
						c-7.9-0.1-15.3,3-22.6,5.4c-4.4,1.4-8.9,2.7-13.6,2.6c-3,0-6.3-0.4-9.1-1.7c-1-0.6-1.9-1.2-2.9-1.8c-3.6-2.5-3.6-4.6-0.1-6.4
						c-0.7-0.9-2.1-0.2-1.6,0.9c2.5,5.6,11,1.5,8.2-4c-3.3-6.5-12.3-1.5-12,4.4c0.4,10.4,15.3,12,23.4,10.5
						c8.4-1.5,15.9-5.6,24.2-7.2c5.9-1.1,12-0.8,17,2.6c2.2,1.5,4.9,4.1,5.2,6.9c-0.4,2.2-0.8,4.3-1.2,6.5c-3.1,4.9-6,5.3-8.7,1.2
						C584.2,896.6,584.7,896.6,584.8,896.3L584.8,896.3z"/>
				</g>
			</g>
		</g>
	</g>
	<g>
		<g>
			<g>
				<g>
					<path class="st2" d="M748.6,882.8c-11.2,15.4-32.7,11.9-49.3,8.7c-13.4-2.6-26.9-4.3-40.6-3.9c-6.8,0.2-13.9,0.5-20.4,2.1
						c-3.1,0.8-6.4,1.8-8.7,4.2c-3.5,4.2-3.5,8.4,0.1,12.5c5.6,4.6,7.8,4.1,6.6-1.7c-0.2,0.8-1.4,0.6-1.4-0.2
						c0.4-8.8,15.1-0.6,5.7,5.4c-10.4,6.7-19.8-9-13.2-16.9c4.7-5.6,13.3-6.2,20.3-6.9c11.9-1.2,23.9-0.8,35.8,0.6
						c20.9,2.6,47.7,13.4,64.2-4.8C748.1,881.6,749,882.2,748.6,882.8L748.6,882.8z"/>
				</g>
				<g>
					<path class="st2" d="M657.2,895.9c-1-5.3,7-3.9,5.6,1.1c-2.5,9-15.2,1.5-16.8-4.1c-2.8-10.2,9-16.8,18.1-16.9
						c7.9-0.1,15.3,3,22.6,5.4c4.4,1.4,8.9,2.7,13.6,2.6c3,0,6.3-0.4,9.1-1.7c1-0.6,1.9-1.2,2.9-1.8c3.6-2.5,3.6-4.6,0.1-6.4
						c0.7-0.9,2.1-0.2,1.6,0.9c-2.5,5.6-11,1.5-8.2-4c3.3-6.5,12.3-1.5,12,4.4c-0.4,10.4-15.3,12-23.4,10.5
						c-8.4-1.5-15.9-5.6-24.2-7.2c-5.9-1.1-12-0.8-17,2.6c-2.2,1.5-4.9,4.1-5.2,6.9c0.4,2.2,0.8,4.3,1.2,6.5c3.1,4.9,6,5.3,8.7,1.2
						C657.7,896.1,657.2,896.2,657.2,895.9L657.2,895.9z"/>
				</g>
			</g>
		</g>
	</g>
</g>
<g>
	<path class="st2" d="M329.5,704.1c-9.6,15.2-40.3,11.4-59.7,11.4c-2.5,2.7-4.9,5.6-7.3,8.9c-19.4,27.2-22.2,59.9-7.8,70.8
		c12.7,9.6,33,5.1,51.1-18.4c14.3-18.5,23.6-25,28.1-26c-10,7-17.6,15.3-27.6,28.5c-16,21.2-39.2,28.1-54.8,17.4
		c-23.6-20.7-8.2-60.4,9.8-81.2c-34.9,1.5-52.1,17.4-61.4,29.4c9.8-17.7,32.8-29.3,63-31.2c13.7-14.3,31.7-23.1,49.7-23.3
		C323,690.3,335.6,694.8,329.5,704.1z M312.7,693.2c-10.6,0.4-26.2,5.7-41.4,20.7c13.3,0.3,31.8,1.8,43.6-1.9
		C332,706.6,334.6,692.3,312.7,693.2z"/>
	<path class="st2" d="M332.9,743.9c5.9-0.1,10.7,3.3,10.7,12.3c0,2.7-0.7,6.3-1.7,9.9c1.8-0.8,3.8-1.9,5.8-3.4
		c7.9-6.1,9.8-12.2,13.9-11.8c-4.4,3.2-8.1,10.5-15.5,14.8c-1.5,0.9-3,1.5-4.8,2c-2.9,8.5-8.6,17-15.1,16.7
		c-9.2-0.3-9.9-11.9-5.5-20.1c0.5-1,1.1-2,1.6-2.9C316.9,751.6,325.7,744,332.9,743.9z M326.7,766.2c-1.3,2.3-2.4,4.6-3,6.8
		c-1.7,6.2,1.6,12.9,7.3,8.1c2.8-2.4,5.9-7.3,8.2-12.9C334.8,769,330.3,768.6,326.7,766.2z M330.9,750.8c3.6-0.5,4,2.8,3.7,4.7
		c0,0.1-3.8,4.1-7,9.1c3,2.3,7.4,3.2,12.2,2c2.8-7.6,3.6-15.8-1.1-19.5c-6.2-5.1-13.6,0.8-14.9,5.1c-0.7,2.4-0.7,4.8,0,6.8
		C327.1,753.9,329.9,751,330.9,750.8z"/>
	<path class="st2" d="M366.2,754.9c0.1,4.2-1.3,6.2-3.7,11c5.5-7.6,18.4-19.8,27.1-22.1c5-1.3,7.3,3.2,6.9,6.5
		c-0.7,4.9-15.3,24.2-17.2,31.3c-2.6,10.5,4.2,7.1,6.3,5.6c6.3-4.6,18.2-25.1,23.6-31c6.6-7.4,9.1-4.9,9.1-4.9
		c-10.4,2.4-23.1,34.7-34.7,39.2c-3.4,1.4-8.7,0.5-10.3-4.8c-3-10.6,17-35.2,17.7-38.9c0.7-4.2-12.2,3.3-21.1,13.2
		c-6.1,6.7-9.2,11.8-11.9,15.7c-0.5,0.9-3.6,0.9-4.9-1.3c-0.5-0.9-2.1-2.9,2.8-12.5c5.4-10.5,3.2-10.1,3.2-10.1
		C360.3,750,366.1,750.8,366.2,754.9z"/>
	<path class="st2" d="M439.5,761c-6.7,6.2-19.7,7.7-23.9,6.2c9.1,5.8,7.7,36.2-5.3,35.1c-8.6-0.8-8.5-13.7-4.4-29.4
		c4.4-16.6,16.9-46.6,33.4-67c5.8-7.2,17.6-14.8,21-6.5c4.2,10.4-33.7,47.5-40,52.5c-0.9,2.2-1.8,4.2-2.6,6.3
		c-1.1,2.7-2.1,5.2-2.9,7.7c18.5,1.8,25-6.1,31.4-15C444.7,755.4,443.1,757.7,439.5,761z M408.8,794.2c-0.1,6.7,2.9,8.5,6.3,4.4
		c5.5-6.6,6.9-22.9-0.8-30.8C410.5,779.5,408.9,788.6,408.8,794.2z M459,701.8c0-3.9-6.7-1.9-12.4,5.2c-7.4,9.1-16.8,24.8-24.4,41.3
		C430.9,741.2,459,709.7,459,701.8z"/>
	<path class="st2" d="M457,765.9c-6.1,7.7-10.8,12.5-16,11c-8.2-2.5-1.3-22.2,4.5-25.9c2.6-1.3,4,0.1,3.6,2.2
		c-0.5,3.2-4.1,7.9-5.5,13.4c-1.1,4.2-2.4,9,0.9,8.6c4.1-0.4,11.6-11.5,16.9-17.7c4.4-5.2,5.7-6.7,8.5-6.7
		C465.8,752.7,462.5,759,457,765.9z M450.6,745.8c-1.6-0.5-1.7-1.4-0.5-3.5c1.3-2.4,0.5-2.9,2.6-4.1c1.5-0.8,6.2-0.3,4.6,2.9
		C455.6,744.5,452.5,746.3,450.6,745.8z"/>
	<path class="st2" d="M472.2,752c8.6,5.2,11.5,10.9,4.1,21.3c-7.8,10.9-9,28.4,1.8,20c6.3-4.9,11.1-13.4,19-26.2
		c7.7-12.4,9.5-14.4,12.9-16.2c-1.1,1.9-7,9.6-11,16.5c-8.9,15.5-18.1,30.3-26.2,29.7s-11.4-11.4-6.1-21.5
		c5.7-11.2,12.2-15.6,1.8-21.9c-13.1-8.1-6.2-14.6-3-16.3c3.8-2.2,9.5-1.3,9.5,4.2c0,4.1-2.9,7.5-5.2,9.4
		C470.7,751.1,471.4,751.5,472.2,752z M468.3,738.4c-3.7,1.5-5.7,6.5,0.9,11.7c2.2-2.5,3.8-5.2,4.2-6.7
		C474.4,740,471.4,737.2,468.3,738.4z"/>
	<path class="st2" d="M515.2,756.4c0.1,2.7-3,8.7-3.6,9.9c0.4,0,1.5-1.8,4.4-5.2c3.7-4.4,7.5-7.3,10.4-7c4.2,1.4,4.5,4.7,2.8,8.6
		c-1.7,3.9-3.6,11.2,0.4,6.5c3.2-3.7,16.6-20.7,22.2-23.2c4.5-2,9.6,1.1,6.9,9.4c-0.9,3-4,8.5-9.1,15.8c-7.7,10.9-7.7,21.9,0.7,15.5
		c12.8-9.8,18.1-36.2,30.3-35.9c-9.9,4.3-13.7,16.6-18.1,23.7c-8.2,13.6-15.1,17.9-19.9,14.6c-5-3.3-6.2-9-0.3-18.2
		c8.2-12.7,14.9-28,8.9-23.1c-8.6,7-18.4,20.5-20.9,23.1c-2.2,2.3-4.8,2.3-6.5,0.6c-1.5-1.5-2.2-4.7,0.9-12.3
		c2.9-6.8-0.9-3.5-4.1-0.9c-5.7,4.9-13.1,18.9-14.8,21.5c-2.9,4.4-7-1.1-5.3-5.7c0.3-0.8,9.6-20.7,8.6-22.9
		C510.3,750.5,515,750.2,515.2,756.4z"/>
	<path class="st2" d="M595.5,780.9c7.5-10.6,16.8-28.8,23.3-30.2c-6.6,7.2-8.3,10.5-12.2,16.3c-7.3,11.3-11.2,18.9-15.5,18.2
		c-4.8-0.8-9.1-6.7-4.2-19.5c0.1-0.5,0.4-1,0.5-1.5c-5.4,6.3-10.6,12.4-15.6,7c-5.2-5.6-0.1-15.6,4.6-19.8c3.4-3,9.9-5.7,16.8-4.1
		c7.7,1.9,1.8,1.9,1.8,1.9s-9.8-2-16.8,8.7c-5.2,8-2.2,15.2,1.8,11.5c2.2-2,7.1-8,11-12.7c2-3,4.1-6.7,6.1-6.7
		c2-0.1,6.9,0.5,2.5,5.8C587.8,771,587.5,792.2,595.5,780.9z"/>
	<path class="st2" d="M621.4,752c8.6,5.2,11.5,10.9,4.1,21.3c-7.8,10.9-9,28.4,1.8,20c6.3-4.9,11.1-13.4,19-26.2
		c7.7-12.4,9.5-14.4,12.9-16.2c-1.1,1.9-7,9.6-11,16.5c-8.9,15.5-18.1,30.3-26.2,29.7c-8.1-0.6-11.4-11.4-6.1-21.5
		c5.7-11.2,12.2-15.6,1.8-21.9c-13.1-8.1-6.2-14.6-3-16.3c3.8-2.2,9.5-1.3,9.5,4.2c0,4.1-2.9,7.5-5.2,9.4
		C620,751.1,620.6,751.5,621.4,752z M617.6,738.4c-3.7,1.5-5.7,6.5,0.9,11.7c2.2-2.5,3.8-5.2,4.2-6.7
		C623.7,740,620.6,737.2,617.6,738.4z"/>
	<path class="st2" d="M723.3,780.9c7.5-10.6,16.8-28.8,23.3-30.2c-6.6,7.2-8.3,10.5-12.2,16.3c-7.3,11.3-11.2,18.9-15.5,18.2
		c-4.8-0.8-9.1-6.7-4.2-19.5c0.1-0.5,0.4-1,0.5-1.5c-5.4,6.3-10.6,12.4-15.6,7c-5.2-5.6-0.1-15.6,4.6-19.8c3.4-3,9.9-5.7,16.8-4.1
		c7.7,1.9,1.8,1.9,1.8,1.9s-9.8-2-16.8,8.7c-5.2,8-2.2,15.2,1.8,11.5c2.2-2,7.1-8,11-12.7c2-3,4.1-6.7,6.1-6.7
		c2-0.1,6.9,0.5,2.5,5.8C715.5,771,715.2,792.2,723.3,780.9z"/>
	<path class="st2" d="M747.3,751.9c-0.5,1.8-0.5,4.4,1.2,7.2c2.4,3.9,4.9,7.2,5.9,10.3c13.2-6.2,16.4-9.9,23.1-18.4
		c-2.9,8.6-12.2,14.8-22.7,19.6c2,6,1.7,10.8-2.2,16.7c-6.7,10.3-21.1,13.6-25.8,8.1c-6.3-7.6,3.7-15.8,18.4-22.2
		c2.1-0.9,3.8-1.8,5.5-2.5c-0.4-2.4-1.5-4.8-3.2-7.5c-6.3-9.5-5.3-10.6-5.2-12.8c0.3-4.1,5.3-8.2,5.3-8.2c2.9-2,3.7,2,3,4.4
		C749.3,748.3,747.9,750.2,747.3,751.9z M749.1,772.8c-12.3,5.1-23.1,11.8-22.2,18.2c0.7,4.4,4.6,5.8,9.5,3.2c5-2.7,15.7-11,14.7-22
		C750.4,772.4,749.7,772.5,749.1,772.8z"/>
	<path class="st2" d="M787.8,765.9c-6.1,7.7-10.8,12.5-16,11c-8.2-2.5-1.3-22.2,4.5-25.9c2.6-1.3,4,0.1,3.6,2.2
		c-0.5,3.2-4.1,7.9-5.5,13.4c-1.1,4.2-2.4,9,0.9,8.6c4.1-0.4,11.6-11.5,16.9-17.7c4.4-5.2,5.7-6.7,8.5-6.7
		C796.6,752.7,793.3,759,787.8,765.9z M781.4,745.8c-1.6-0.5-1.7-1.4-0.5-3.5c1.3-2.4,0.5-2.9,2.6-4.1c1.5-0.8,6.2-0.3,4.6,2.9
		C786.4,744.5,783.3,746.3,781.4,745.8z"/>
	<path class="st2" d="M801.1,751.9c-0.5,1.8-0.5,4.4,1.2,7.2c2.4,3.9,4.9,7.2,5.9,10.3c13.2-6.2,16.4-9.9,23.1-18.4
		c-2.9,8.6-12.2,14.8-22.7,19.6c2,6,1.7,10.8-2.2,16.7c-6.7,10.3-21.1,13.6-25.8,8.1c-6.3-7.6,3.7-15.8,18.4-22.2
		c2.1-0.9,3.8-1.8,5.5-2.5c-0.4-2.4-1.5-4.8-3.2-7.5c-6.3-9.5-5.3-10.6-5.2-12.8c0.3-4.1,5.3-8.2,5.3-8.2c2.9-2,3.7,2,3,4.4
		C803.1,748.3,801.6,750.2,801.1,751.9z M802.8,772.8c-12.3,5.1-23.1,11.8-22.2,18.2c0.7,4.4,4.6,5.8,9.5,3.2c5-2.7,15.7-11,14.7-22
		C804.1,772.4,803.5,772.5,802.8,772.8z"/>
	<path class="st2" d="M799.9,701.8c-3.3,2.2-6.1,6.3-2.5,9.8c6.3,6.1,24.6,5.4,46.2,3.3c5.5-9.9,8.6-12.5,8.6-12.5
		c1.3-2,5.7,2.5,4.4,4.7c-1.5,2.3-2.9,4.6-4.4,7c30.1-3.4,64.2-8.7,81.1-3.8c6.3,1.9,8.7,4.1,8.1,7.1c-0.3,1.6-2.1,2.7-2.9,1
		c-0.7-1.4,2.8-4.7-5.9-7.1c-17.4-4.7-51.3,0.8-81.2,4.2c-8.7,14.3-17.8,32.4-25.4,58c-5.4,18.4-0.5,26.7,8.2,16.2
		c9.8-11.8,19.2-37.1,29.6-38.8c-8.3,7.1-11.2,12.4-19,26.4c-11,19.8-17.2,20.9-21.5,17.5c-5.5-4.3-8.5-15.3,5.9-49.5
		c5.5-13.1,10.2-22.4,13.7-28.9c-21.8,2.2-40.2,2.5-46.8-4.2c-3.3-3.4-2-9.4,2.4-12.2C799.8,699,803.3,699.7,799.9,701.8z"/>
	<path class="st2" d="M857.6,763.6c-2.1,9.8,3.4,13.6,9.2,11.3c9.8-3.7,19-24.2,25.9-24.1c-6.7,6-7.3,7.9-11.9,13.6
		c-6.1,7.5-12.4,13.9-19.9,13.2c-9.9-1-11.1-12.9-8.6-18.5c2.6-5.8,7.9-12.4,16.3-12.9c6.9-0.4,9.5,5.8,2.9,11.2
		c-4,3.2-9.8,4.7-13.6,5.3C857.9,762.9,857.6,763.4,857.6,763.6z M863.3,760c10.7-3.4,12.6-11.2,7-9.9c0,0-8.7,1-12,11.2
		C859.6,761,861.5,760.6,863.3,760z"/>
	<path class="st2" d="M898.1,754.9c0.1,4.2-1.3,6.2-3.7,11c5.5-7.6,18.4-19.8,27.1-22.1c5-1.3,7.3,3.2,6.9,6.5
		c-0.7,4.9-15.3,24.2-17.2,31.3c-2.6,10.5,4.2,7.1,6.3,5.6c6.3-4.6,18.2-25.1,23.6-31c6.6-7.4,9.1-4.9,9.1-4.9
		c-10.4,2.4-23.1,34.7-34.7,39.2c-3.4,1.4-8.7,0.5-10.3-4.8c-3-10.6,17-35.2,17.7-38.9c0.7-4.2-12.2,3.3-21.1,13.2
		c-6.1,6.7-9.2,11.8-11.9,15.7c-0.5,0.9-3.6,0.9-4.9-1.3c-0.5-0.9-2.1-2.9,2.8-12.5c5.4-10.5,3.2-10.1,3.2-10.1
		C892.1,750,897.9,750.8,898.1,754.9z"/>
	<path class="st2" d="M945.9,760.7c-3.4,4.4-5.9,9.9-4.4,16.2c0.7,3,5.5,5.2,11.2,1.6c11-6.8,20.9-23.7,29.3-27.8
		c-6.1,4.8-12.5,15-22.1,23.8c-8.7,8.1-15.2,10.1-20.6,5.8c-6.3-5.1-4.2-17.5,1.1-23.7c6.1-7.2,13.5-11,20.3-9.1
		c7.3,1.9,4.6,7.7,2.5,10.6c-2.1,2.9-5.2,5.6-8.1,3.3c-2.9-2.3,1.1-4.7,1.8-4.4s3.4,0,5.3-2c2.5-2.7,0.4-4.8-2.8-4.3
		C957.6,751.1,952.1,752.7,945.9,760.7z"/>
	<path class="st2" d="M990.7,765.9c-6.1,7.7-10.8,12.5-16,11c-8.2-2.5-1.3-22.2,4.5-25.9c2.6-1.3,4,0.1,3.6,2.2
		c-0.5,3.2-4.1,7.9-5.5,13.4c-1.1,4.2-2.4,9,0.9,8.6c4.1-0.4,11.6-11.5,16.9-17.7c4.4-5.2,5.7-6.7,8.5-6.7
		C999.5,752.7,996.2,759,990.7,765.9z M984.3,745.8c-1.6-0.5-1.7-1.4-0.5-3.5c1.3-2.4,0.5-2.9,2.6-4.1c1.5-0.8,6.2-0.3,4.6,2.9
		C989.4,744.5,986.2,746.3,984.3,745.8z"/>
	<path class="st2" d="M1018.8,780.9c7.5-10.6,16.8-28.8,23.3-30.2c-6.6,7.2-8.3,10.5-12.2,16.3c-7.3,11.3-11.2,18.9-15.5,18.2
		c-4.8-0.8-9.1-6.7-4.2-19.5c0.1-0.5,0.4-1,0.5-1.5c-5.4,6.3-10.6,12.4-15.6,7c-5.2-5.6-0.1-15.6,4.6-19.8c3.4-3,9.9-5.7,16.8-4.1
		c7.7,1.9,1.8,1.9,1.8,1.9s-9.8-2-16.8,8.7c-5.2,8-2.2,15.2,1.8,11.5c2.2-2,7.1-8,11-12.7c2-3,4.1-6.7,6.1-6.7
		c2-0.1,6.9,0.5,2.5,5.8C1011,771,1010.8,792.2,1018.8,780.9z"/>
</g>
<g>
	<path class="st2" d="M691.5,516.3c-1.8-0.3-4.7,1.6-6.2,2.3c-2.2,1.1-4.3,2.4-6.4,3.6c-0.1,0.1-0.2,0.2-0.4,0.2
		c-0.6,0.3-1.2,0.7-1.8,1.1c-0.4,0.3-0.9,0.5-1.3,0.8c-0.6,0.4-1.2,0.8-1.8,1.2c-0.4,0.3-0.8,0.5-1.2,0.8c-0.7,0.4-1.3,0.9-2,1.4
		c-0.3,0.2-0.7,0.4-1,0.7c-1,0.7-2,1.4-2.9,2.1c-19,13.9-34.9,30.6-46.5,51.5c-0.7-0.5-1.3-0.9-1.8-1.3c-0.8-0.6-1.6-1.1-2.4-1.7
		c0,0-0.1,0-0.1-0.1c-6.8-4.8-14.3-9.1-22.4-11.3c-0.3-0.1-0.7-0.2-1-0.3h-0.1c-4-1-8.1-1.5-12.4-0.9c-0.8,0.1-1.6,0.3-2.4,0.5
		c-0.2,0.1-0.4,0.1-0.6,0.2c-0.2,0.1-0.3,0.1-0.5,0.2c-0.4,0.2-0.8,0.4-1.2,0.6c-1,0.6-1.9,1.3-2.7,2.3c-0.3,0.4-0.3,1.1-0.5,1.6
		l0,0c0,0.1,0,0.1,0,0.1c0.2,0,0.4,0,0.6,0c0.3,0.1,0.7,0.1,1,0.1c0.2,0,0.3-0.1,0.5-0.1c3-0.1,5.8-0.4,8.9,0.6c3.1,1,6,2.6,8.6,4.6
		c3.2,2.3,5.9,5.2,8.4,8.3c0.1,0.2,0.2,0.3,0.4,0.5c0.4,0.5,0.7,0.9,1.1,1.4c0.2,0.3,0.5,0.7,0.7,1c0.2,0.4,0.5,0.7,0.7,1.1
		c0.5,0.7,1,1.4,1.4,2.2c7.1,11.1,12.2,23.2,16.1,35.8c0.4,1.2,0.8,2.3,1.2,3.5c0.6-0.5,0.8-0.8,0.9-1.2c1.5-4.6,2.9-9.3,4.5-13.9
		c2.8-7.9,5.9-15.6,9.3-23.1c3.4-7.6,7.2-14.9,11.3-22.2c2.7-4.8,5.7-9.5,8.7-14.2c0.7-1.1,1.5-2.2,2.3-3.3c0.6-0.9,1.3-1.8,1.9-2.8
		c0.6-0.9,1.3-1.8,1.9-2.6c0.7-0.9,1.3-1.8,2-2.7c0.6-0.9,1.3-1.7,2-2.5c0.7-0.9,1.4-1.8,2.1-2.6c0.7-0.8,1.4-1.6,2.1-2.5
		c0.7-0.9,1.4-1.7,2.2-2.5c0.7-0.8,1.5-1.6,2.2-2.4c0.8-0.8,1.5-1.6,2.3-2.4s1.5-1.5,2.3-2.3s1.6-1.5,2.4-2.3
		c0.8-0.7,1.6-1.5,2.5-2.2c0.8-0.7,1.7-1.5,2.5-2.2c0.5-0.4,1-0.8,1.5-1.1c1-0.7,2.3-1.5,3.1-2.4l0.1-0.1c0.2-0.2,0.3-0.5,0.7-1
		C692,516.3,691.7,516.3,691.5,516.3z"/>
	<path class="st2" d="M668.7,547c-0.8,0.9-0.7,1.5-0.1,2.4c5.3,8,8.5,16.8,9.4,26.3c1.3,14.1-1.7,27.2-9.9,38.7
		c-13.4,19-32.1,27.6-55.1,25.3c-17-1.7-30.8-10-40.7-23.9c-12.1-17-14.6-35.6-7.1-55.1c7-18.3,20.4-30.2,39.4-35.5
		c13.8-3.9,27.2-2.5,40.1,3.5c3.3,1.5,6.4,3.5,9.6,5.3c2.9-2.3,6-4.6,9-7c-23.6-19.8-64.3-22.5-92.3,4.5
		c-27.8,26.8-28.4,70.9-1.5,98.9c26.3,27.4,70.8,28.5,98.2,2.5c28.7-27.2,27.7-68.7,7.5-93.8C673,541.7,670.9,544.4,668.7,547z"/>
</g>
</svg>
