<?xml version="1.0" encoding="utf-8"?>
<!-- Generator: Adobe Illustrator 25.4.1, SVG Export Plug-In . SVG Version: 6.00 Build 0)  -->
<svg version="1.1" id="Capa_1" xmlns="http://www.w3.org/2000/svg" xmlns:xlink="http://www.w3.org/1999/xlink" x="0px" y="0px"
	 viewBox="0 0 1242 1026.4" style="enable-background:new 0 0 1242 1026.4;" xml:space="preserve">
<style type="text/css">
	.st0{enable-background:new    ;}
	.st1{fill:#765E3A;}
	.st2{fill:#808384;}
</style>
<g>
	<g class="st0">
		<path class="st1" d="M386,603.35l3.5-35.2c0.2-1.8,0.2-3,0.2-3.6c0-0.9-0.3-1.7-1-2.3s-1.8-1-3.3-1h-1.1l0.3-1.2h16.7l-0.3,1.2
			c-1.8,0-3,0.2-3.7,0.6c-0.7,0.3-1.2,0.9-1.6,1.8c-0.2,0.5-0.4,1.8-0.7,3.9l-2.5,25.2l16.5-22.5c1.8-2.4,2.9-4.1,3.4-5.1
			c0.3-0.6,0.5-1.2,0.5-1.7s-0.2-1-0.7-1.5c-0.5-0.4-1.4-0.7-2.7-0.8l0.4-1.2h12.7l-0.3,1.2c-1,0.1-1.8,0.3-2.4,0.6
			c-1.1,0.5-2.3,1.4-3.4,2.5s-2.9,3.3-5.4,6.7l-24,32.4L386,603.35L386,603.35z"/>
		<path class="st1" d="M445.4,574.95l-5.4,18.6c-0.8,2.8-1.2,4.5-1.2,5.2c0,0.4,0.1,0.6,0.2,0.8s0.3,0.3,0.5,0.3
			c0.4,0,0.8-0.2,1.2-0.5s1.5-1.6,3.2-3.9l1,0.7c-1.7,2.6-3.3,4.5-5.1,5.7c-1.1,0.8-2.2,1.2-3.3,1.2c-0.8,0-1.5-0.2-1.9-0.7
			c-0.5-0.5-0.7-1-0.7-1.8s0.1-1.7,0.4-2.8c0.3-1.5,1.3-4.9,2.9-10c-3.5,5.8-6.5,9.8-8.9,12s-4.6,3.3-6.6,3.3c-1,0-1.8-0.3-2.4-1
			c-0.7-0.7-1-1.5-1-2.5c0-1.6,0.5-3.9,1.4-7.2l2.8-9.7c0.6-2.3,1-3.7,1-4.3c0-0.2-0.1-0.4-0.3-0.6c-0.2-0.2-0.4-0.3-0.6-0.3
			c-0.4,0-0.9,0.2-1.3,0.5s-1.4,1.5-3,3.4l-1-0.7c1.6-2.4,3.2-4.2,5-5.3c1.3-0.9,2.6-1.4,3.7-1.4c0.8,0,1.4,0.2,1.9,0.7
			s0.7,1.1,0.7,1.9c0,1.1-0.4,3.1-1.2,6l-2.9,10.1c-0.8,2.8-1.2,4.5-1.2,5.2c0,0.4,0.1,0.7,0.4,0.9s0.6,0.4,1,0.4
			c0.7,0,1.6-0.3,2.7-1s2.6-2.2,4.4-4.6s3.4-4.6,4.6-6.6c1.2-2.1,2.5-5.4,3.8-9.9l0.7-2.4h4.5L445.4,574.95L445.4,574.95z"/>
		<path class="st1" d="M454.9,590.65c-0.1,1-0.2,1.9-0.2,2.6c0,1.9,0.7,3.4,2,4.7s2.9,2,4.8,2c1.5,0,2.9-0.3,4.3-0.9
			c1.4-0.6,3.4-2,6.1-4.1l0.7,0.9c-4.9,4.9-9.6,7.3-14.1,7.3c-3,0-5.3-1-6.8-2.9s-2.3-4-2.3-6.3c0-3.1,1-6.3,2.9-9.5
			s4.3-5.8,7.2-7.6c2.9-1.8,5.9-2.7,8.9-2.7c2.2,0,3.8,0.5,4.9,1.4s1.6,2,1.6,3.2c0,1.7-0.7,3.4-2.1,5c-1.8,2.1-4.5,3.7-8,5
			C462.4,589.55,459.1,590.15,454.9,590.65z M455.1,589.15c3.1-0.4,5.6-1,7.5-1.8c2.6-1.1,4.5-2.5,5.8-4.1s1.9-3.1,1.9-4.6
			c0-0.9-0.3-1.5-0.8-2.1s-1.3-0.8-2.3-0.8c-2.1,0-4.4,1.1-6.7,3.4C458,581.35,456.2,584.65,455.1,589.15z"/>
		<path class="st1" d="M498.8,574.15l-1.9,9.6h-1.2c-0.1-2.8-0.7-4.8-1.8-6.1c-1.1-1.3-2.4-1.9-4-1.9c-1.3,0-2.3,0.3-3,1
			c-0.8,0.7-1.1,1.5-1.1,2.6c0,0.7,0.1,1.3,0.4,2c0.3,0.6,1,1.5,2,2.6c2.7,3,4.4,5.2,5.2,6.7s1.2,2.9,1.2,4.2c0,2.2-0.9,4.1-2.7,5.8
			c-1.8,1.7-4.1,2.5-6.8,2.5c-1.5,0-3.2-0.3-5.2-1c-0.7-0.3-1.2-0.4-1.6-0.4c-0.9,0-1.6,0.5-2.1,1.4h-1.1l1.9-10.1h1.2
			c0.1,3.2,0.7,5.4,1.9,6.7c1.2,1.3,2.8,2,4.9,2c1.6,0,2.8-0.4,3.8-1.3c0.9-0.9,1.4-2,1.4-3.3c0-0.8-0.2-1.6-0.5-2.3
			c-0.6-1.2-1.8-3-3.7-5.2s-3.1-3.9-3.6-5s-0.8-2.2-0.8-3.3c0-2,0.7-3.7,2.2-5.1c1.5-1.4,3.4-2.1,5.7-2.1c0.7,0,1.3,0.1,1.8,0.2
			c0.3,0.1,1,0.3,2,0.7c1.1,0.4,1.8,0.6,2.2,0.6c0.9,0,1.6-0.5,2.2-1.5L498.8,574.15L498.8,574.15z"/>
		<path class="st1" d="M517.1,566.45l-2.4,8.5h4.9l-0.5,2h-4.8l-5.4,18.4c-0.6,2-0.9,3.3-0.9,3.8c0,0.4,0.1,0.6,0.2,0.8
			c0.2,0.2,0.3,0.3,0.6,0.3c0.5,0,1.2-0.4,2.1-1.1c0.5-0.4,1.6-1.7,3.4-3.8l1,0.8c-1.9,2.8-3.7,4.7-5.4,5.9
			c-1.2,0.8-2.3,1.2-3.5,1.2c-0.9,0-1.6-0.3-2.2-0.9s-0.9-1.3-0.9-2.2c0-1.1,0.3-2.8,1-5.1l5.2-18.1h-4.7l0.3-1.2
			c2.3-0.6,4.2-1.5,5.7-2.8c1.5-1.2,3.2-3.4,5.1-6.4h1.2L517.1,566.45L517.1,566.45z"/>
		<path class="st1" d="M521.6,575.95l10.8-1.8l-4.5,15.2c3.6-6.2,6.9-10.6,9.9-13.1c1.7-1.4,3-2.1,4.1-2.1c0.7,0,1.2,0.2,1.6,0.6
			c0.4,0.4,0.6,1,0.6,1.8c0,1.4-0.3,2.7-1,3.9c-0.5,0.9-1.2,1.4-2.2,1.4c-0.5,0-0.9-0.2-1.2-0.5c-0.3-0.3-0.6-0.8-0.6-1.4
			c0-0.4-0.1-0.6-0.3-0.8c-0.2-0.2-0.4-0.2-0.6-0.2c-0.4,0-0.7,0.1-1,0.2c-0.5,0.3-1.4,1.1-2.5,2.4c-1.7,2-3.6,4.7-5.6,7.9
			c-0.9,1.4-1.6,2.9-2.2,4.7c-0.9,2.4-1.3,3.8-1.5,4.3l-1,3.9h-4.8l5.8-19.4c0.6-2.2,1-3.8,1-4.8c0-0.4-0.2-0.7-0.5-0.9
			c-0.4-0.3-1-0.5-1.6-0.5c-0.4,0-1.2,0.1-2.4,0.3L521.6,575.95z"/>
		<path class="st1" d="M573.2,574.15l-6.1,21.2l-0.7,2.9c-0.1,0.3-0.1,0.5-0.1,0.7c0,0.3,0.1,0.6,0.3,0.9c0.2,0.2,0.4,0.3,0.6,0.3
			c0.3,0,0.6-0.2,1-0.5c0.8-0.6,1.9-1.8,3.3-3.7l1,0.7c-1.4,2.2-2.9,3.8-4.4,4.9c-1.5,1.1-2.9,1.7-4.2,1.7c-0.9,0-1.5-0.2-2-0.7
			c-0.5-0.4-0.7-1.1-0.7-1.9c0-1,0.2-2.4,0.7-4l0.7-2.4c-2.7,3.6-5.2,6.1-7.5,7.5c-1.7,1-3.3,1.5-4.8,1.5s-2.8-0.6-3.9-1.9
			c-1.1-1.3-1.6-3-1.6-5.2c0-3.3,1-6.8,3-10.5s4.5-6.6,7.6-8.8c2.4-1.8,4.6-2.6,6.7-2.6c1.3,0,2.4,0.3,3.2,1
			c0.8,0.7,1.5,1.8,1.9,3.3l1.1-3.6L573.2,574.15z M562,575.74c-1.3,0-2.7,0.6-4.2,1.9c-2.1,1.8-4,4.4-5.7,7.8
			c-1.7,3.5-2.5,6.6-2.5,9.4c0,1.4,0.4,2.5,1.1,3.3c0.7,0.8,1.5,1.2,2.5,1.2c2.2,0,4.7-1.7,7.4-5c3.6-4.4,5.3-9,5.3-13.7
			c0-1.8-0.3-3-1-3.8C564.2,576.15,563.2,575.74,562,575.74z"/>
		<path class="st1" d="M605.2,574.15l-2.2,7.2c2.3-2.7,4.3-4.5,6.1-5.6c1.8-1.1,3.6-1.6,5.4-1.6c1.9,0,3.4,0.7,4.7,2.2
			c1.3,1.5,2,3.4,2,5.7c0,4.6-1.9,9.2-5.6,14c-3.7,4.7-8.1,7.1-13,7.1c-1,0-2-0.1-2.8-0.3c-0.8-0.2-1.7-0.6-2.7-1.2l-2.3,8.1
			c-0.5,1.6-0.7,2.6-0.7,3.1s0.1,0.9,0.4,1.2c0.2,0.3,0.6,0.6,1.2,0.8c0.5,0.2,1.6,0.3,3.2,0.3l-0.3,1.2h-14.7l0.3-1.2
			c1.9-0.1,3.2-0.4,3.9-1c0.7-0.6,1.4-2.2,2.1-4.9l7.9-27.3c0.5-1.7,0.7-2.8,0.7-3.2c0-0.6-0.2-1-0.5-1.3c-0.3-0.3-0.8-0.5-1.5-0.5
			c-0.6,0-1.5,0.1-2.5,0.2v-1.2L605.2,574.15z M597.9,599.15c1.3,1.5,3,2.3,5.2,2.3c1.1,0,2.2-0.3,3.3-0.9c1.1-0.6,2.2-1.5,3.3-2.7
			s2-2.5,2.9-4.1c0.9-1.5,1.6-3.4,2.3-5.5c0.7-2.1,1-4.2,1-6.3c0-1.7-0.4-2.9-1.1-3.8c-0.8-0.9-1.7-1.3-2.7-1.3
			c-2.2,0-4.5,1.3-6.6,3.9c-2.2,2.6-3.8,5.6-4.8,9L597.9,599.15z"/>
		<path class="st1" d="M626.3,575.95l10.8-1.8l-4.5,15.2c3.6-6.2,7-10.6,9.9-13.1c1.7-1.4,3-2.1,4.1-2.1c0.7,0,1.2,0.2,1.6,0.6
			c0.4,0.4,0.6,1,0.6,1.8c0,1.4-0.3,2.7-1,3.9c-0.5,0.9-1.2,1.4-2.2,1.4c-0.5,0-0.9-0.2-1.2-0.5c-0.3-0.3-0.6-0.8-0.6-1.4
			c0-0.4-0.1-0.6-0.3-0.8c-0.2-0.2-0.4-0.2-0.6-0.2c-0.4,0-0.7,0.1-1,0.2c-0.5,0.3-1.4,1.1-2.5,2.4c-1.7,2-3.6,4.7-5.6,7.9
			c-0.9,1.4-1.6,2.9-2.2,4.7c-0.9,2.4-1.3,3.8-1.5,4.3l-1,3.9h-4.8l5.8-19.4c0.6-2.2,1-3.8,1-4.8c0-0.4-0.2-0.7-0.5-0.9
			c-0.4-0.3-1-0.5-1.6-0.5c-0.4,0-1.2,0.1-2.4,0.3L626.3,575.95z"/>
		<path class="st1" d="M655.5,590.65c-0.1,1-0.2,1.9-0.2,2.6c0,1.9,0.7,3.4,2,4.7c1.3,1.3,2.9,2,4.8,2c1.5,0,2.9-0.3,4.3-0.9
			c1.4-0.6,3.4-2,6.1-4.1l0.7,0.9c-4.9,4.9-9.6,7.3-14.1,7.3c-3,0-5.3-1-6.8-2.9s-2.3-4-2.3-6.3c0-3.1,1-6.3,2.9-9.5
			s4.3-5.8,7.2-7.6s5.9-2.7,8.9-2.7c2.2,0,3.8,0.5,4.9,1.4c1.1,0.9,1.6,2,1.6,3.2c0,1.7-0.7,3.4-2.1,5c-1.8,2.1-4.5,3.7-8,5
			C663,589.55,659.7,590.15,655.5,590.65z M655.7,589.15c3.1-0.4,5.6-1,7.5-1.8c2.6-1.1,4.5-2.5,5.8-4.1c1.3-1.6,1.9-3.1,1.9-4.6
			c0-0.9-0.3-1.5-0.8-2.1s-1.3-0.8-2.3-0.8c-2.1,0-4.4,1.1-6.7,3.4C658.6,581.35,656.8,584.65,655.7,589.15z"/>
		<path class="st1" d="M699.4,574.15l-1.9,9.6h-1.2c-0.1-2.8-0.7-4.8-1.8-6.1s-2.4-1.9-4-1.9c-1.3,0-2.3,0.3-3,1
			c-0.8,0.7-1.1,1.5-1.1,2.6c0,0.7,0.1,1.3,0.4,2c0.3,0.6,1,1.5,2,2.6c2.7,3,4.4,5.2,5.2,6.7c0.8,1.5,1.2,2.9,1.2,4.2
			c0,2.2-0.9,4.1-2.7,5.8c-1.8,1.7-4.1,2.5-6.8,2.5c-1.5,0-3.2-0.3-5.2-1c-0.7-0.3-1.2-0.4-1.6-0.4c-0.9,0-1.6,0.5-2.1,1.4h-1.1
			l1.9-10.1h1.2c0.1,3.2,0.7,5.4,1.9,6.7c1.2,1.3,2.8,2,4.9,2c1.6,0,2.8-0.4,3.8-1.3c0.9-0.9,1.4-2,1.4-3.3c0-0.8-0.2-1.6-0.5-2.3
			c-0.6-1.2-1.8-3-3.7-5.2s-3.1-3.9-3.6-5s-0.8-2.2-0.8-3.3c0-2,0.7-3.7,2.2-5.1c1.5-1.4,3.4-2.1,5.7-2.1c0.7,0,1.3,0.1,1.8,0.2
			c0.3,0.1,1,0.3,2,0.7s1.8,0.6,2.2,0.6c0.9,0,1.6-0.5,2.2-1.5L699.4,574.15L699.4,574.15z"/>
		<path class="st1" d="M708.7,590.65c-0.1,1-0.2,1.9-0.2,2.6c0,1.9,0.7,3.4,2,4.7c1.3,1.3,2.9,2,4.8,2c1.5,0,2.9-0.3,4.3-0.9
			c1.4-0.6,3.4-2,6.1-4.1l0.7,0.9c-4.9,4.9-9.6,7.3-14.1,7.3c-3,0-5.3-1-6.8-2.9s-2.3-4-2.3-6.3c0-3.1,1-6.3,2.9-9.5
			s4.3-5.8,7.2-7.6s5.9-2.7,8.9-2.7c2.2,0,3.8,0.5,4.9,1.4c1.1,0.9,1.6,2,1.6,3.2c0,1.7-0.7,3.4-2.1,5c-1.8,2.1-4.5,3.7-8,5
			C716.2,589.55,713,590.15,708.7,590.65z M708.9,589.15c3.1-0.4,5.6-1,7.5-1.8c2.6-1.1,4.5-2.5,5.8-4.1c1.3-1.6,1.9-3.1,1.9-4.6
			c0-0.9-0.3-1.5-0.8-2.1s-1.3-0.8-2.3-0.8c-2.1,0-4.4,1.1-6.7,3.4C711.8,581.35,710.1,584.65,708.9,589.15z"/>
		<path class="st1" d="M743.6,574.15l-4.1,14.2c3.9-5.8,6.9-9.6,8.9-11.5c2.1-1.8,4.1-2.8,6-2.8c1,0,1.9,0.3,2.6,1
			c0.7,0.7,1,1.6,1,2.7c0,1.3-0.3,2.9-0.9,5l-3.8,13.1c-0.4,1.5-0.7,2.5-0.7,2.8s0.1,0.5,0.3,0.7c0.2,0.2,0.3,0.3,0.5,0.3
			c0.2,0,0.5-0.1,0.9-0.4c1.1-0.9,2.3-2.2,3.6-4l1,0.6c-1.9,2.8-3.8,4.7-5.5,5.9c-1.2,0.8-2.3,1.2-3.3,1.2c-0.8,0-1.4-0.2-1.8-0.7
			c-0.5-0.5-0.7-1.1-0.7-1.9c0-1,0.3-2.7,1-5.2l3.6-12.6c0.4-1.6,0.7-2.8,0.7-3.6c0-0.4-0.1-0.7-0.4-1s-0.6-0.4-1-0.4
			c-0.6,0-1.3,0.2-2.1,0.7c-1.5,0.9-3.1,2.5-4.8,4.6c-1.7,2.2-3.4,4.9-5.3,8.2c-1,1.8-1.8,3.7-2.4,5.8l-1.5,5.2h-4.7l5.7-19.5
			c0.7-2.4,1-3.8,1-4.2s-0.2-0.9-0.6-1.2c-0.4-0.3-0.8-0.5-1.3-0.5c-0.3,0-0.7,0.1-1.3,0.2l-1.2,0.2l-0.2-1.1L743.6,574.15z"/>
		<path class="st1" d="M786.1,595.65c-2.2,2.6-4.4,4.5-6.6,5.7s-4.5,1.8-7,1.8c-2.9,0-5.2-0.8-6.9-2.5c-1.7-1.7-2.5-3.9-2.5-6.7
			c0-3.2,0.9-6.3,2.7-9.4c1.8-3.1,4.2-5.6,7.2-7.5s5.9-2.9,8.8-2.9c2.3,0,4,0.5,5.1,1.4s1.7,2.1,1.7,3.5c0,1.3-0.4,2.4-1.2,3.3
			c-0.6,0.7-1.3,1.1-2.1,1.1c-0.6,0-1.2-0.2-1.6-0.6c-0.4-0.4-0.6-0.9-0.6-1.6c0-0.4,0.1-0.7,0.2-1.1c0.1-0.4,0.5-0.7,1-1.2
			s0.8-0.8,0.9-1s0.2-0.4,0.2-0.7c0-0.4-0.2-0.8-0.6-1.1c-0.6-0.4-1.5-0.6-2.6-0.6c-2,0-4.1,0.7-6.1,2.2c-2,1.4-3.7,3.5-5.1,6.1
			c-1.7,3.2-2.6,6.4-2.6,9.6c0,2.1,0.6,3.8,1.8,5c1.2,1.2,2.9,1.9,4.9,1.9c1.6,0,3.2-0.4,4.8-1.2s3.3-2.2,5.3-4.3L786.1,595.65z"/>
		<path class="st1" d="M804.5,574.15l-6.2,21.9c-0.4,1.5-0.6,2.4-0.6,2.6c0,0.3,0.1,0.6,0.3,0.8c0.2,0.2,0.4,0.3,0.7,0.3
			c0.3,0,0.7-0.2,1.1-0.5c1.2-0.9,2.4-2.3,3.6-4l1.1,0.7c-1.4,2.1-3.1,4-5,5.5c-1.4,1.1-2.7,1.6-4,1.6c-0.9,0-1.5-0.3-2.1-0.8
			c-0.5-0.5-0.8-1.1-0.8-1.9c0-0.8,0.3-2.1,0.8-3.8l4.1-14c0.6-2.3,1-3.7,1-4.3c0-0.4-0.2-0.8-0.5-1.1c-0.3-0.3-0.8-0.4-1.3-0.4
			s-1.4,0.1-2.9,0.3v-1.2L804.5,574.15z M804.1,561.74c0.9,0,1.6,0.3,2.2,0.9c0.6,0.6,0.9,1.3,0.9,2.2s-0.3,1.6-0.9,2.2
			c-0.6,0.6-1.3,0.9-2.2,0.9s-1.6-0.3-2.2-0.9c-0.6-0.6-0.9-1.4-0.9-2.2s0.3-1.6,0.9-2.2C802.5,562.05,803.2,561.74,804.1,561.74z"
			/>
		<path class="st1" d="M837.5,574.15l-6.1,21.2l-0.7,2.9c-0.1,0.3-0.1,0.5-0.1,0.7c0,0.3,0.1,0.6,0.3,0.9c0.2,0.2,0.4,0.3,0.6,0.3
			c0.3,0,0.6-0.2,1-0.5c0.8-0.6,1.9-1.8,3.3-3.7l1,0.7c-1.4,2.2-2.9,3.8-4.4,4.9s-2.9,1.7-4.2,1.7c-0.9,0-1.5-0.2-2-0.7
			c-0.5-0.4-0.7-1.1-0.7-1.9c0-1,0.2-2.4,0.7-4l0.7-2.4c-2.7,3.6-5.2,6.1-7.5,7.5c-1.7,1-3.3,1.5-4.8,1.5s-2.8-0.6-3.9-1.9
			c-1.1-1.3-1.6-3-1.6-5.2c0-3.3,1-6.8,3-10.5s4.5-6.6,7.6-8.8c2.4-1.8,4.6-2.6,6.7-2.6c1.3,0,2.4,0.3,3.2,1
			c0.8,0.7,1.5,1.8,1.9,3.3l1.1-3.6L837.5,574.15z M826.4,575.74c-1.3,0-2.7,0.6-4.2,1.9c-2.1,1.8-4,4.4-5.7,7.8
			c-1.7,3.5-2.5,6.6-2.5,9.4c0,1.4,0.4,2.5,1.1,3.3s1.5,1.2,2.5,1.2c2.2,0,4.7-1.7,7.4-5c3.6-4.4,5.3-9,5.3-13.7c0-1.8-0.3-3-1-3.8
			C828.6,576.05,827.6,575.74,826.4,575.74z"/>
	</g>
	<g class="st0">
		<path class="st1" d="M379.5,681.35c-0.1,1-0.2,1.9-0.2,2.6c0,1.9,0.7,3.4,2,4.7s2.9,2,4.8,2c1.5,0,2.9-0.3,4.3-0.9
			c1.4-0.6,3.4-2,6.1-4.1l0.7,0.9c-4.9,4.9-9.6,7.3-14.1,7.3c-3,0-5.3-1-6.8-2.9s-2.3-4-2.3-6.3c0-3.1,1-6.3,2.9-9.5
			s4.3-5.8,7.2-7.6c2.9-1.8,5.9-2.7,8.9-2.7c2.2,0,3.8,0.5,4.9,1.4s1.6,2,1.6,3.2c0,1.7-0.7,3.4-2.1,5c-1.8,2.1-4.5,3.7-8,5
			C387,680.24,383.7,680.85,379.5,681.35z M379.7,679.85c3.1-0.4,5.6-1,7.5-1.8c2.6-1.1,4.5-2.5,5.8-4.1s1.9-3.1,1.9-4.6
			c0-0.9-0.3-1.5-0.8-2.1s-1.3-0.8-2.3-0.8c-2.1,0-4.4,1.1-6.7,3.4C382.6,672.05,380.9,675.35,379.7,679.85z"/>
		<path class="st1" d="M423.5,664.85l-1.9,9.6h-1.2c-0.1-2.8-0.7-4.8-1.8-6.1c-1.1-1.3-2.4-1.9-4-1.9c-1.3,0-2.3,0.3-3,1
			c-0.8,0.7-1.1,1.5-1.1,2.6c0,0.7,0.1,1.3,0.4,2c0.3,0.6,1,1.5,2,2.6c2.7,3,4.4,5.2,5.2,6.7s1.2,2.9,1.2,4.2c0,2.2-0.9,4.1-2.7,5.8
			c-1.8,1.7-4.1,2.5-6.8,2.5c-1.5,0-3.2-0.3-5.2-1c-0.7-0.3-1.2-0.4-1.6-0.4c-0.9,0-1.6,0.5-2.1,1.4h-1.1l1.9-10.1h1.2
			c0.1,3.2,0.7,5.4,1.9,6.7c1.2,1.3,2.8,2,4.9,2c1.6,0,2.8-0.4,3.8-1.3c0.9-0.9,1.4-2,1.4-3.3c0-0.8-0.2-1.6-0.5-2.3
			c-0.6-1.2-1.8-3-3.7-5.2s-3.1-3.9-3.6-5s-0.8-2.2-0.8-3.3c0-2,0.7-3.7,2.2-5.1c1.5-1.4,3.4-2.1,5.7-2.1c0.7,0,1.3,0.1,1.8,0.2
			c0.3,0.1,1,0.3,2,0.7c1.1,0.4,1.8,0.6,2.2,0.6c0.9,0,1.6-0.5,2.2-1.5L423.5,664.85L423.5,664.85z"/>
		<path class="st1" d="M455,664.85l-4,14.1c1.8-3.3,3.3-5.8,4.6-7.5c2-2.6,3.9-4.5,5.8-5.6c1.1-0.7,2.3-1,3.4-1c1,0,1.9,0.3,2.6,1
			s1,1.5,1,2.6s-0.2,2.4-0.7,4l-2.2,7.9c3.4-6.4,6.6-10.8,9.7-13.4c1.7-1.4,3.3-2.1,5-2.1c1,0,1.7,0.3,2.4,1c0.6,0.7,0.9,1.7,0.9,3
			c0,1.2-0.2,2.5-0.6,3.8l-3.4,12.1c-0.7,2.7-1.1,4.1-1.1,4.4c0,0.3,0.1,0.5,0.3,0.7c0.1,0.2,0.3,0.2,0.5,0.2s0.6-0.2,1.1-0.6
			c1.2-0.9,2.3-2.1,3.3-3.6l1,0.7c-0.5,0.8-1.4,2-2.8,3.4c-1.3,1.5-2.4,2.4-3.4,3c-0.9,0.5-1.8,0.8-2.6,0.8c-0.7,0-1.4-0.2-1.8-0.7
			c-0.5-0.5-0.7-1.1-0.7-1.8c0-1,0.4-3,1.3-6l2.8-10c0.6-2.3,1-3.6,1-3.8c0.1-0.4,0.1-0.8,0.1-1.2c0-0.5-0.1-0.9-0.3-1.2
			c-0.3-0.3-0.5-0.5-0.9-0.5c-0.9,0-1.8,0.5-2.8,1.4c-2.9,2.6-5.6,6.3-8.1,11.1c-1.7,3.2-3.2,7.2-4.6,12.1h-4.7l5.3-18.9
			c0.6-2,0.9-3.4,0.9-4.1c0-0.6-0.1-1-0.3-1.3c-0.2-0.3-0.5-0.4-0.8-0.4c-0.7,0-1.4,0.2-2.2,0.7c-1.2,0.8-2.8,2.6-4.8,5.2
			c-2,2.7-3.5,5.2-4.6,7.6c-0.5,1.1-1.8,4.8-3.7,11h-4.6l5.8-20.2l0.7-2.6c0.2-0.4,0.2-0.7,0.2-0.9c0-0.5-0.2-0.9-0.6-1.2
			c-0.4-0.4-0.9-0.5-1.6-0.5c-0.3,0-1,0.1-2.2,0.4l-0.3-1.2L455,664.85z"/>
		<path class="st1" d="M517.4,665.65l-5.4,18.6c-0.8,2.8-1.2,4.5-1.2,5.2c0,0.4,0.1,0.6,0.2,0.8s0.3,0.3,0.5,0.3
			c0.4,0,0.8-0.2,1.2-0.5s1.5-1.6,3.2-3.9l1,0.7c-1.7,2.6-3.3,4.5-5.1,5.7c-1.1,0.8-2.2,1.2-3.3,1.2c-0.8,0-1.5-0.2-1.9-0.7
			c-0.5-0.5-0.7-1-0.7-1.8s0.1-1.7,0.4-2.8c0.3-1.5,1.3-4.9,2.9-10c-3.5,5.8-6.5,9.8-8.9,12s-4.6,3.3-6.6,3.3c-1,0-1.8-0.3-2.4-1
			c-0.7-0.7-1-1.5-1-2.5c0-1.6,0.5-3.9,1.4-7.2l2.8-9.7c0.6-2.3,1-3.7,1-4.3c0-0.2-0.1-0.4-0.3-0.6c-0.2-0.2-0.4-0.3-0.6-0.3
			c-0.4,0-0.9,0.2-1.3,0.5s-1.4,1.5-3,3.4l-1-0.7c1.6-2.4,3.2-4.2,5-5.3c1.3-0.9,2.6-1.4,3.7-1.4c0.8,0,1.4,0.2,1.9,0.7
			s0.7,1.1,0.7,1.9c0,1.1-0.4,3.1-1.2,6l-2.9,10.1c-0.8,2.8-1.2,4.5-1.2,5.2c0,0.4,0.1,0.7,0.4,0.9s0.6,0.4,1,0.4
			c0.7,0,1.6-0.3,2.7-1s2.6-2.2,4.4-4.6s3.4-4.6,4.6-6.6c1.2-2.1,2.5-5.4,3.8-9.9l0.7-2.4h4.5V665.65L517.4,665.65z"/>
		<path class="st1" d="M529.4,664.85c0.7,1.2,1.2,2.3,1.5,3.4c0.3,1,0.5,3.1,0.8,6.2l1.4,15.3c1.3-1.5,3.1-3.9,5.4-7.1
			c1.2-1.6,2.6-3.7,4.3-6.5c1-1.7,1.6-2.8,1.9-3.5c0.1-0.3,0.2-0.7,0.2-1c0-0.2-0.1-0.4-0.2-0.6c-0.1-0.1-0.5-0.3-1.1-0.5
			s-1.1-0.6-1.5-1.1s-0.6-1.1-0.6-1.8c0-0.9,0.3-1.5,0.8-2.1c0.5-0.5,1.1-0.8,1.9-0.8c0.9,0,1.7,0.4,2.3,1.1c0.6,0.8,1,1.8,1,3.2
			c0,1.6-0.6,3.5-1.7,5.6c-1.1,2.1-3.3,5.4-6.5,9.7c-3.2,4.3-7.1,9.1-11.6,14.3c-3.2,3.5-5.5,5.8-7,6.7s-2.8,1.4-3.9,1.4
			c-0.6,0-1.2-0.2-1.7-0.7s-0.7-1.1-0.7-1.7c0-0.8,0.3-1.5,1-2.2c0.7-0.7,1.4-1,2.2-1c0.4,0,0.7,0.1,1,0.3c0.2,0.1,0.4,0.4,0.6,0.9
			s0.4,0.8,0.6,1c0.1,0.1,0.2,0.2,0.3,0.2s0.3-0.1,0.7-0.3c1.1-0.7,2.5-1.8,4-3.4c2-2,3.5-3.7,4.5-5l-2.2-19.7
			c-0.3-3.3-0.7-5.3-1.3-6s-1.6-1.1-2.9-1.1c-0.4,0-1.2,0.1-2.3,0.2l-0.3-1.2L529.4,664.85z"/>
		<path class="st1" d="M578.2,664.85l-6.2,21.9c-0.4,1.5-0.6,2.4-0.6,2.6c0,0.3,0.1,0.6,0.3,0.8c0.2,0.2,0.4,0.3,0.7,0.3
			c0.3,0,0.7-0.2,1.1-0.5c1.2-0.9,2.4-2.3,3.6-4l1.1,0.7c-1.4,2.1-3.1,4-5,5.5c-1.4,1.1-2.7,1.6-4,1.6c-0.9,0-1.6-0.3-2.1-0.8
			s-0.8-1.1-0.8-1.9c0-0.8,0.3-2.1,0.8-3.8l4.1-14c0.6-2.3,1-3.7,1-4.3c0-0.4-0.2-0.8-0.5-1.1c-0.3-0.3-0.8-0.4-1.3-0.4
			s-1.4,0.1-2.9,0.3v-1.2L578.2,664.85z M577.9,652.45c0.9,0,1.6,0.3,2.2,0.9c0.6,0.6,0.9,1.3,0.9,2.2s-0.3,1.6-0.9,2.2
			c-0.6,0.6-1.3,0.9-2.2,0.9s-1.6-0.3-2.2-0.9c-0.6-0.6-0.9-1.4-0.9-2.2s0.3-1.6,0.9-2.2C576.2,652.74,577,652.45,577.9,652.45z"/>
		<path class="st1" d="M595.1,664.85l-4,14.1c1.8-3.3,3.3-5.8,4.6-7.5c2-2.6,3.9-4.5,5.8-5.6c1.1-0.7,2.3-1,3.4-1c1,0,1.9,0.3,2.6,1
			s1,1.5,1,2.6s-0.2,2.4-0.7,4l-2.2,7.9c3.4-6.4,6.6-10.8,9.7-13.4c1.7-1.4,3.3-2.1,5-2.1c1,0,1.7,0.3,2.4,1c0.6,0.7,0.9,1.7,0.9,3
			c0,1.2-0.2,2.5-0.6,3.8l-3.4,12.1c-0.7,2.7-1.1,4.1-1.1,4.4c0,0.3,0.1,0.5,0.3,0.7c0.1,0.2,0.3,0.2,0.5,0.2c0.2,0,0.6-0.2,1.1-0.6
			c1.2-0.9,2.3-2.1,3.3-3.6l1,0.7c-0.5,0.8-1.4,2-2.8,3.4c-1.3,1.5-2.4,2.4-3.4,3c-0.9,0.5-1.8,0.8-2.6,0.8c-0.7,0-1.4-0.2-1.8-0.7
			c-0.5-0.5-0.7-1.1-0.7-1.8c0-1,0.4-3,1.3-6l2.8-10c0.6-2.3,1-3.6,1-3.8c0.1-0.4,0.1-0.8,0.1-1.2c0-0.5-0.1-0.9-0.3-1.2
			c-0.3-0.3-0.5-0.5-0.9-0.5c-0.9,0-1.8,0.5-2.8,1.4c-2.9,2.6-5.6,6.3-8.1,11.1c-1.7,3.2-3.2,7.2-4.6,12.1h-4.7l5.3-18.9
			c0.6-2,0.9-3.4,0.9-4.1c0-0.6-0.1-1-0.3-1.3c-0.2-0.3-0.5-0.4-0.8-0.4c-0.7,0-1.4,0.2-2.2,0.7c-1.2,0.8-2.8,2.6-4.8,5.2
			c-2,2.7-3.5,5.2-4.6,7.6c-0.5,1.1-1.8,4.8-3.7,11h-4.6l5.8-20.2l0.7-2.6c0.2-0.4,0.2-0.7,0.2-0.9c0-0.5-0.2-0.9-0.6-1.2
			c-0.4-0.4-0.9-0.5-1.6-0.5c-0.3,0-1,0.1-2.2,0.4l-0.3-1.2L595.1,664.85z"/>
		<path class="st1" d="M641.6,664.85l-2.2,7.2c2.3-2.7,4.3-4.5,6.1-5.6c1.8-1.1,3.6-1.6,5.4-1.6c1.9,0,3.4,0.7,4.7,2.2
			c1.3,1.5,2,3.4,2,5.7c0,4.6-1.9,9.2-5.6,14c-3.7,4.7-8.1,7.1-13,7.1c-1,0-2-0.1-2.8-0.3c-0.8-0.2-1.7-0.6-2.7-1.2l-2.3,8.1
			c-0.5,1.6-0.7,2.6-0.7,3.1s0.1,0.9,0.4,1.2c0.2,0.3,0.6,0.6,1.2,0.8c0.5,0.2,1.6,0.3,3.2,0.3l-0.3,1.2h-14.7l0.3-1.2
			c1.9-0.1,3.2-0.4,3.9-1c0.7-0.6,1.4-2.2,2.1-4.9l7.9-27.3c0.5-1.7,0.7-2.8,0.7-3.2c0-0.6-0.2-1-0.5-1.3c-0.3-0.3-0.8-0.5-1.5-0.5
			c-0.6,0-1.5,0.1-2.5,0.2v-1.2L641.6,664.85z M634.3,689.85c1.3,1.5,3,2.3,5.2,2.3c1.1,0,2.2-0.3,3.3-0.9c1.1-0.6,2.2-1.5,3.3-2.7
			s2-2.5,2.9-4.1c0.9-1.5,1.6-3.4,2.3-5.5c0.7-2.1,1-4.2,1-6.3c0-1.7-0.4-2.9-1.1-3.8c-0.8-0.9-1.7-1.3-2.7-1.3
			c-2.2,0-4.5,1.3-6.6,3.9c-2.2,2.6-3.8,5.6-4.8,9L634.3,689.85z"/>
		<path class="st1" d="M688.9,674.65c0,3.1-0.8,6.2-2.5,9.3c-1.7,3.1-4,5.5-6.9,7.3s-5.8,2.7-8.6,2.7c-2.8,0-5.2-0.9-7-2.7
			c-1.8-1.8-2.7-4.2-2.7-7c0-3.1,0.9-6.1,2.6-9.2c1.8-3.1,4.1-5.5,7.1-7.3s5.8-2.7,8.5-2.7c2.8,0,5,0.9,6.8,2.7
			C688,669.45,688.9,671.74,688.9,674.65z M683.8,672.45c0-1.9-0.5-3.4-1.4-4.5s-2.2-1.6-3.7-1.6c-3,0-5.9,2.2-8.4,6.6
			c-2.6,4.4-3.9,8.7-3.9,13.1c0,2,0.5,3.5,1.5,4.6s2.3,1.6,3.8,1.6c2.9,0,5.7-2.2,8.3-6.5C682.5,681.45,683.8,676.95,683.8,672.45z"
			/>
		<path class="st1" d="M694.7,666.65l10.8-1.8l-4.5,15.2c3.6-6.2,7-10.6,9.9-13.1c1.7-1.4,3-2.1,4.1-2.1c0.7,0,1.2,0.2,1.6,0.6
			c0.4,0.4,0.6,1,0.6,1.8c0,1.4-0.3,2.7-1,3.9c-0.5,0.9-1.2,1.4-2.2,1.4c-0.5,0-0.9-0.2-1.2-0.5c-0.3-0.3-0.6-0.8-0.6-1.4
			c0-0.4-0.1-0.6-0.3-0.8c-0.2-0.2-0.4-0.2-0.6-0.2c-0.4,0-0.7,0.1-1,0.2c-0.5,0.3-1.4,1.1-2.5,2.4c-1.7,2-3.6,4.7-5.6,7.9
			c-0.9,1.4-1.6,2.9-2.2,4.7c-0.9,2.4-1.3,3.8-1.5,4.3l-1,3.9h-4.8l5.8-19.4c0.6-2.2,1-3.8,1-4.8c0-0.4-0.2-0.7-0.5-0.9
			c-0.4-0.3-1-0.5-1.6-0.5c-0.4,0-1.2,0.1-2.4,0.3L694.7,666.65z"/>
		<path class="st1" d="M732.8,657.15l-2.4,8.5h4.9l-0.5,2H730l-5.4,18.4c-0.6,2-0.9,3.3-0.9,3.8c0,0.4,0.1,0.6,0.2,0.8
			c0.1,0.2,0.3,0.3,0.6,0.3c0.5,0,1.2-0.4,2.1-1.1c0.5-0.4,1.6-1.7,3.4-3.8l1,0.8c-1.9,2.8-3.7,4.7-5.4,5.9
			c-1.2,0.8-2.3,1.2-3.5,1.2c-0.9,0-1.6-0.3-2.2-0.9c-0.6-0.6-0.9-1.3-0.9-2.2c0-1.1,0.3-2.8,1-5.1l5.2-18.1h-4.7l0.3-1.2
			c2.3-0.6,4.2-1.5,5.7-2.8s3.2-3.4,5.1-6.4h1.2L732.8,657.15L732.8,657.15z"/>
		<path class="st1" d="M764,664.85l-6.1,21.2l-0.7,2.9c-0.1,0.3-0.1,0.5-0.1,0.7c0,0.3,0.1,0.6,0.3,0.9c0.2,0.2,0.4,0.3,0.6,0.3
			c0.3,0,0.6-0.2,1-0.5c0.8-0.6,1.9-1.8,3.3-3.7l1,0.7c-1.4,2.2-2.9,3.8-4.4,4.9c-1.5,1.1-2.9,1.7-4.2,1.7c-0.9,0-1.5-0.2-2-0.7
			c-0.5-0.4-0.7-1.1-0.7-1.9c0-1,0.2-2.4,0.7-4l0.7-2.4c-2.7,3.6-5.2,6.1-7.5,7.5c-1.7,1-3.3,1.5-4.8,1.5s-2.8-0.6-3.9-1.9
			c-1.1-1.3-1.6-3-1.6-5.2c0-3.3,1-6.8,3-10.5s4.5-6.6,7.6-8.8c2.4-1.8,4.6-2.6,6.7-2.6c1.3,0,2.4,0.3,3.2,1
			c0.8,0.7,1.5,1.8,1.9,3.3l1.1-3.6L764,664.85z M752.8,666.45c-1.3,0-2.7,0.6-4.2,1.9c-2.1,1.8-4,4.4-5.7,7.8
			c-1.7,3.5-2.5,6.6-2.5,9.4c0,1.4,0.4,2.5,1.1,3.3s1.5,1.2,2.5,1.2c2.2,0,4.7-1.7,7.4-5c3.6-4.4,5.3-9,5.3-13.7c0-1.8-0.3-3-1-3.8
			C755,666.85,754,666.45,752.8,666.45z"/>
		<path class="st1" d="M780,664.85l-4.1,14.2c3.9-5.8,6.9-9.6,8.9-11.5c2.1-1.8,4.1-2.8,6-2.8c1,0,1.9,0.3,2.6,1s1,1.6,1,2.7
			c0,1.3-0.3,2.9-0.9,5l-3.8,13.1c-0.4,1.5-0.7,2.5-0.7,2.8s0.1,0.5,0.3,0.7c0.2,0.2,0.3,0.3,0.5,0.3c0.2,0,0.5-0.1,0.9-0.4
			c1.1-0.9,2.3-2.2,3.6-4l1,0.6c-1.9,2.8-3.8,4.7-5.5,5.9c-1.2,0.8-2.3,1.2-3.3,1.2c-0.8,0-1.4-0.2-1.8-0.7
			c-0.5-0.5-0.7-1.1-0.7-1.9c0-1,0.3-2.7,1-5.2l3.6-12.6c0.4-1.6,0.7-2.8,0.7-3.6c0-0.4-0.1-0.7-0.4-1s-0.6-0.4-1-0.4
			c-0.6,0-1.3,0.2-2.1,0.7c-1.5,0.9-3.1,2.5-4.8,4.6c-1.7,2.2-3.4,4.9-5.3,8.2c-1,1.8-1.8,3.7-2.4,5.8l-1.6,5.2h-4.6l5.7-19.5
			c0.7-2.4,1-3.8,1-4.2s-0.2-0.9-0.6-1.2c-0.4-0.3-0.8-0.5-1.3-0.5c-0.3,0-0.7,0.1-1.3,0.2l-1.2,0.2l-0.2-1.1L780,664.85z"/>
		<path class="st1" d="M814.4,657.15l-2.4,8.5h4.9l-0.5,2h-4.8l-5.4,18.4c-0.6,2-0.9,3.3-0.9,3.8c0,0.4,0.1,0.6,0.2,0.8
			c0.2,0.2,0.3,0.3,0.6,0.3c0.5,0,1.2-0.4,2.1-1.1c0.5-0.4,1.6-1.7,3.4-3.8l1,0.8c-1.9,2.8-3.7,4.7-5.4,5.9
			c-1.2,0.8-2.3,1.2-3.5,1.2c-0.9,0-1.6-0.3-2.2-0.9c-0.6-0.6-0.9-1.3-0.9-2.2c0-1.1,0.3-2.8,1-5.1l5.2-18.1h-4.7l0.3-1.2
			c2.3-0.6,4.2-1.5,5.7-2.8c1.5-1.2,3.2-3.4,5.1-6.4h1.2V657.15z"/>
		<path class="st1" d="M823.2,681.35c-0.1,1-0.2,1.9-0.2,2.6c0,1.9,0.7,3.4,2,4.7c1.3,1.3,2.9,2,4.8,2c1.5,0,2.9-0.3,4.3-0.9
			c1.4-0.6,3.4-2,6.1-4.1l0.7,0.9c-4.9,4.9-9.6,7.3-14.1,7.3c-3,0-5.3-1-6.8-2.9s-2.3-4-2.3-6.3c0-3.1,1-6.3,2.9-9.5
			s4.3-5.8,7.2-7.6s5.9-2.7,8.9-2.7c2.2,0,3.8,0.5,4.9,1.4c1.1,0.9,1.6,2,1.6,3.2c0,1.7-0.7,3.4-2.1,5c-1.8,2.1-4.5,3.7-8,5
			C830.7,680.24,827.4,680.85,823.2,681.35z M823.4,679.85c3.1-0.4,5.6-1,7.5-1.8c2.6-1.1,4.5-2.5,5.8-4.1c1.3-1.6,1.9-3.1,1.9-4.6
			c0-0.9-0.3-1.5-0.8-2.1s-1.3-0.8-2.3-0.8c-2.1,0-4.4,1.1-6.7,3.4C826.3,672.05,824.5,675.35,823.4,679.85z"/>
	</g>
	<g class="st0">
		<path class="st1" d="M446.9,755.55l-2.2,7.2c2.3-2.7,4.3-4.5,6.1-5.6s3.6-1.6,5.4-1.6c1.9,0,3.4,0.7,4.7,2.2c1.3,1.5,2,3.4,2,5.7
			c0,4.6-1.9,9.2-5.6,14c-3.7,4.7-8.1,7.1-13,7.1c-1,0-2-0.1-2.8-0.3s-1.7-0.6-2.7-1.2l-2.3,8.1c-0.5,1.6-0.7,2.6-0.7,3.1
			s0.1,0.9,0.4,1.2c0.2,0.3,0.6,0.6,1.2,0.8c0.5,0.2,1.6,0.3,3.2,0.3l-0.3,1.2h-14.7l0.3-1.2c1.9-0.1,3.2-0.4,3.9-1
			c0.7-0.6,1.4-2.2,2.1-4.9l7.9-27.3c0.5-1.7,0.7-2.8,0.7-3.2c0-0.6-0.2-1-0.5-1.3s-0.8-0.5-1.5-0.5c-0.6,0-1.5,0.1-2.5,0.2v-1.4
			L446.9,755.55z M439.6,780.55c1.3,1.5,3,2.3,5.2,2.3c1.1,0,2.2-0.3,3.3-0.9c1.1-0.6,2.2-1.5,3.3-2.7c1.1-1.2,2-2.5,2.9-4.1
			c0.9-1.5,1.6-3.4,2.3-5.5s1-4.2,1-6.3c0-1.7-0.4-2.9-1.1-3.8c-0.8-0.9-1.7-1.3-2.7-1.3c-2.2,0-4.5,1.3-6.6,3.9
			c-2.2,2.6-3.8,5.6-4.8,9L439.6,780.55z"/>
		<path class="st1" d="M494.6,755.55l-6.1,21.2l-0.7,2.9c-0.1,0.3-0.1,0.5-0.1,0.7c0,0.3,0.1,0.6,0.3,0.9c0.2,0.2,0.4,0.3,0.6,0.3
			c0.3,0,0.6-0.2,1-0.5c0.8-0.6,1.9-1.8,3.3-3.7l1,0.7c-1.4,2.2-2.9,3.8-4.4,4.9c-1.5,1.1-2.9,1.7-4.2,1.7c-0.9,0-1.5-0.2-2-0.7
			c-0.5-0.4-0.7-1.1-0.7-1.9c0-1,0.2-2.4,0.7-4l0.7-2.4c-2.7,3.6-5.2,6.1-7.5,7.5c-1.7,1-3.3,1.5-4.8,1.5s-2.8-0.6-3.9-1.9
			c-1.1-1.3-1.6-3-1.6-5.2c0-3.3,1-6.8,3-10.5s4.5-6.6,7.6-8.8c2.4-1.8,4.6-2.6,6.7-2.6c1.3,0,2.4,0.3,3.2,1
			c0.8,0.7,1.5,1.8,1.9,3.3l1.1-3.6L494.6,755.55z M483.5,757.15c-1.3,0-2.7,0.6-4.2,1.9c-2.1,1.8-4,4.4-5.7,7.8
			c-1.7,3.5-2.5,6.6-2.5,9.4c0,1.4,0.4,2.5,1.1,3.3s1.5,1.2,2.5,1.2c2.2,0,4.7-1.7,7.4-5c3.6-4.4,5.3-9,5.3-13.7c0-1.8-0.3-3-1-3.8
			C485.6,757.55,484.7,757.15,483.5,757.15z"/>
		<path class="st1" d="M499.9,757.35l10.8-1.8l-4.5,15.2c3.6-6.2,6.9-10.6,9.9-13.1c1.7-1.4,3-2.1,4.1-2.1c0.7,0,1.2,0.2,1.6,0.6
			c0.4,0.4,0.6,1,0.6,1.8c0,1.4-0.3,2.7-1,3.9c-0.5,0.9-1.2,1.4-2.2,1.4c-0.5,0-0.9-0.2-1.2-0.5c-0.3-0.3-0.6-0.8-0.6-1.4
			c0-0.4-0.1-0.6-0.3-0.8c-0.2-0.2-0.4-0.2-0.6-0.2c-0.4,0-0.7,0.1-1,0.2c-0.5,0.3-1.4,1.1-2.5,2.4c-1.7,2-3.6,4.7-5.6,7.9
			c-0.9,1.4-1.6,2.9-2.2,4.7c-0.9,2.4-1.3,3.8-1.5,4.3l-1,3.9h-4.8l5.8-19.4c0.6-2.2,1-3.8,1-4.8c0-0.4-0.2-0.7-0.5-0.9
			c-0.4-0.3-1-0.5-1.6-0.5c-0.4,0-1.2,0.1-2.4,0.3L499.9,757.35z"/>
		<path class="st1" d="M551.5,755.55l-6.1,21.2l-0.7,2.9c-0.1,0.3-0.1,0.5-0.1,0.7c0,0.3,0.1,0.6,0.3,0.9c0.2,0.2,0.4,0.3,0.6,0.3
			c0.3,0,0.6-0.2,1-0.5c0.8-0.6,1.9-1.8,3.3-3.7l1,0.7c-1.4,2.2-2.9,3.8-4.4,4.9c-1.5,1.1-2.9,1.7-4.2,1.7c-0.9,0-1.5-0.2-2-0.7
			c-0.5-0.4-0.7-1.1-0.7-1.9c0-1,0.2-2.4,0.7-4l0.7-2.4c-2.7,3.6-5.2,6.1-7.5,7.5c-1.7,1-3.3,1.5-4.8,1.5s-2.8-0.6-3.9-1.9
			c-1.1-1.3-1.6-3-1.6-5.2c0-3.3,1-6.8,3-10.5s4.5-6.6,7.6-8.8c2.4-1.8,4.6-2.6,6.7-2.6c1.3,0,2.4,0.3,3.2,1
			c0.8,0.7,1.5,1.8,1.9,3.3l1.1-3.6L551.5,755.55z M540.3,757.15c-1.3,0-2.7,0.6-4.2,1.9c-2.1,1.8-4,4.4-5.7,7.8
			c-1.7,3.5-2.5,6.6-2.5,9.4c0,1.4,0.4,2.5,1.1,3.3s1.5,1.2,2.5,1.2c2.2,0,4.7-1.7,7.4-5c3.6-4.4,5.3-9,5.3-13.7c0-1.8-0.3-3-1-3.8
			C542.5,757.55,541.5,757.15,540.3,757.15z"/>
		<path class="st1" d="M583.5,755.55l-4.1,14.2c3.9-5.8,6.9-9.6,8.9-11.5c2.1-1.8,4.1-2.8,6-2.8c1,0,1.9,0.3,2.6,1
			c0.7,0.7,1,1.6,1,2.7c0,1.3-0.3,2.9-0.9,5l-3.8,13.1c-0.4,1.5-0.7,2.5-0.7,2.8s0.1,0.5,0.3,0.7c0.2,0.2,0.3,0.3,0.5,0.3
			c0.2,0,0.5-0.1,0.9-0.4c1.1-0.9,2.3-2.2,3.6-4l1,0.6c-1.9,2.8-3.8,4.7-5.5,5.9c-1.2,0.8-2.3,1.2-3.3,1.2c-0.8,0-1.4-0.2-1.8-0.7
			c-0.5-0.5-0.7-1.1-0.7-1.9c0-1,0.3-2.7,1-5.2l3.6-12.6c0.4-1.6,0.7-2.8,0.7-3.6c0-0.4-0.1-0.7-0.4-1s-0.6-0.4-1-0.4
			c-0.6,0-1.3,0.2-2.1,0.7c-1.5,0.9-3.1,2.5-4.8,4.6c-1.7,2.1-3.4,4.9-5.3,8.2c-1,1.8-1.8,3.7-2.4,5.8l-1.6,5.2h-4.7l5.7-19.5
			c0.7-2.4,1-3.8,1-4.2s-0.2-0.9-0.6-1.2c-0.4-0.3-0.8-0.5-1.3-0.5c-0.3,0-0.7,0.1-1.3,0.2l-1.2,0.2l-0.2-1.1L583.5,755.55z"/>
		<path class="st1" d="M630.8,765.35c0,3.1-0.8,6.2-2.5,9.3c-1.7,3.1-4,5.5-6.9,7.3s-5.8,2.7-8.6,2.7c-2.8,0-5.2-0.9-7-2.7
			c-1.8-1.8-2.7-4.2-2.7-7c0-3.1,0.9-6.1,2.6-9.2c1.8-3.1,4.1-5.5,7.1-7.3s5.8-2.7,8.5-2.7c2.8,0,5,0.9,6.8,2.7
			C629.9,760.15,630.8,762.45,630.8,765.35z M625.7,763.15c0-1.9-0.5-3.4-1.4-4.5s-2.2-1.6-3.7-1.6c-3,0-5.9,2.2-8.4,6.6
			c-2.6,4.4-3.9,8.7-3.9,13.1c0,2,0.5,3.5,1.5,4.6s2.3,1.6,3.8,1.6c2.9,0,5.7-2.2,8.3-6.5C624.4,772.15,625.7,767.65,625.7,763.15z"
			/>
		<path class="st1" d="M656.4,755.55l-1.9,9.6h-1.2c-0.1-2.8-0.7-4.8-1.8-6.1s-2.4-1.9-4-1.9c-1.3,0-2.3,0.3-3,1
			c-0.8,0.7-1.1,1.5-1.1,2.6c0,0.7,0.1,1.3,0.4,2c0.3,0.6,1,1.5,2,2.6c2.7,3,4.4,5.2,5.2,6.7c0.8,1.5,1.2,2.9,1.2,4.2
			c0,2.2-0.9,4.1-2.7,5.8c-1.8,1.7-4.1,2.5-6.8,2.5c-1.5,0-3.2-0.3-5.2-1c-0.7-0.3-1.2-0.4-1.6-0.4c-0.9,0-1.6,0.5-2.1,1.4h-1.1
			l1.9-10.1h1.2c0.1,3.2,0.7,5.4,1.9,6.7c1.2,1.3,2.8,2,4.9,2c1.6,0,2.8-0.4,3.8-1.3c0.9-0.9,1.4-2,1.4-3.3c0-0.8-0.2-1.6-0.5-2.3
			c-0.6-1.2-1.8-3-3.7-5.2s-3.1-3.9-3.6-5s-0.8-2.2-0.8-3.3c0-2,0.7-3.7,2.2-5.1c1.5-1.4,3.4-2.1,5.7-2.1c0.7,0,1.3,0.1,1.8,0.2
			c0.3,0.1,1,0.3,2,0.7s1.8,0.6,2.2,0.6c0.9,0,1.6-0.5,2.2-1.5L656.4,755.55L656.4,755.55z"/>
		<path class="st1" d="M687.6,765.35c0,3.1-0.8,6.2-2.5,9.3c-1.7,3.1-4,5.5-6.9,7.3s-5.8,2.7-8.6,2.7c-2.8,0-5.2-0.9-7-2.7
			c-1.8-1.8-2.7-4.2-2.7-7c0-3.1,0.9-6.1,2.6-9.2c1.8-3.1,4.1-5.5,7.1-7.3s5.8-2.7,8.5-2.7c2.8,0,5,0.9,6.8,2.7
			C686.8,760.15,687.6,762.45,687.6,765.35z M682.5,763.15c0-1.9-0.5-3.4-1.4-4.5s-2.2-1.6-3.7-1.6c-3,0-5.9,2.2-8.4,6.6
			c-2.6,4.4-3.9,8.7-3.9,13.1c0,2,0.5,3.5,1.5,4.6s2.3,1.6,3.8,1.6c2.9,0,5.7-2.2,8.3-6.5C681.2,772.15,682.5,767.65,682.5,763.15z"
			/>
		<path class="st1" d="M706.6,747.85l-2.4,8.5h4.9l-0.5,2h-4.8l-5.4,18.4c-0.6,2-0.9,3.3-0.9,3.8c0,0.4,0.1,0.6,0.2,0.8
			c0.1,0.2,0.3,0.3,0.6,0.3c0.5,0,1.2-0.4,2.1-1.1c0.5-0.4,1.6-1.7,3.4-3.8l1,0.8c-1.9,2.8-3.7,4.7-5.4,5.9
			c-1.2,0.8-2.3,1.2-3.5,1.2c-0.9,0-1.6-0.3-2.2-0.9c-0.6-0.6-0.9-1.3-0.9-2.2c0-1.1,0.3-2.8,1-5.1l5.2-18.1h-4.7l0.3-1.2
			c2.3-0.6,4.2-1.5,5.7-2.8s3.2-3.4,5.1-6.4h1.2L706.6,747.85L706.6,747.85z"/>
		<path class="st1" d="M711.1,757.35l10.8-1.8l-4.5,15.2c3.6-6.2,7-10.6,9.9-13.1c1.7-1.4,3-2.1,4.1-2.1c0.7,0,1.2,0.2,1.6,0.6
			c0.4,0.4,0.6,1,0.6,1.8c0,1.4-0.3,2.7-1,3.9c-0.5,0.9-1.2,1.4-2.2,1.4c-0.5,0-0.9-0.2-1.2-0.5c-0.3-0.3-0.6-0.8-0.6-1.4
			c0-0.4-0.1-0.6-0.3-0.8c-0.2-0.2-0.4-0.2-0.6-0.2c-0.4,0-0.7,0.1-1,0.2c-0.5,0.3-1.4,1.1-2.5,2.4c-1.7,2-3.6,4.7-5.6,7.9
			c-0.9,1.4-1.6,2.9-2.2,4.7c-0.9,2.4-1.3,3.8-1.5,4.3l-1,3.9h-4.8l5.8-19.4c0.6-2.2,1-3.8,1-4.8c0-0.4-0.2-0.7-0.5-0.9
			c-0.4-0.3-1-0.5-1.6-0.5c-0.4,0-1.2,0.1-2.4,0.3L711.1,757.35z"/>
		<path class="st1" d="M762.2,765.35c0,3.1-0.8,6.2-2.5,9.3c-1.7,3.1-4,5.5-6.9,7.3s-5.8,2.7-8.6,2.7c-2.8,0-5.2-0.9-7-2.7
			c-1.8-1.8-2.7-4.2-2.7-7c0-3.1,0.9-6.1,2.6-9.2c1.8-3.1,4.1-5.5,7.1-7.3s5.8-2.7,8.5-2.7c2.8,0,5,0.9,6.8,2.7
			C761.3,760.15,762.2,762.45,762.2,765.35z M757.1,763.15c0-1.9-0.5-3.4-1.4-4.5s-2.2-1.6-3.7-1.6c-3,0-5.9,2.2-8.4,6.6
			c-2.6,4.4-3.9,8.7-3.9,13.1c0,2,0.5,3.5,1.5,4.6s2.3,1.6,3.8,1.6c2.9,0,5.7-2.2,8.3-6.5C755.8,772.15,757.1,767.65,757.1,763.15z"
			/>
		<path class="st1" d="M787.8,755.55l-1.9,9.6h-1.2c-0.1-2.8-0.7-4.8-1.8-6.1s-2.4-1.9-4-1.9c-1.3,0-2.3,0.3-3,1
			c-0.8,0.7-1.1,1.5-1.1,2.6c0,0.7,0.1,1.3,0.4,2c0.3,0.6,1,1.5,2,2.6c2.7,3,4.4,5.2,5.2,6.7c0.8,1.5,1.2,2.9,1.2,4.2
			c0,2.2-0.9,4.1-2.7,5.8c-1.8,1.7-4.1,2.5-6.8,2.5c-1.5,0-3.2-0.3-5.2-1c-0.7-0.3-1.2-0.4-1.6-0.4c-0.9,0-1.6,0.5-2.1,1.4h-1.1
			l1.9-10.1h1.2c0.1,3.2,0.7,5.4,1.9,6.7c1.2,1.3,2.8,2,4.9,2c1.6,0,2.8-0.4,3.8-1.3c0.9-0.9,1.4-2,1.4-3.3c0-0.8-0.2-1.6-0.5-2.3
			c-0.6-1.2-1.8-3-3.7-5.2s-3.1-3.9-3.6-5s-0.8-2.2-0.8-3.3c0-2,0.7-3.7,2.2-5.1c1.5-1.4,3.4-2.1,5.7-2.1c0.7,0,1.3,0.1,1.8,0.2
			c0.3,0.1,1,0.3,2,0.7s1.8,0.6,2.2,0.6c0.9,0,1.6-0.5,2.2-1.5L787.8,755.55L787.8,755.55z"/>
	</g>
</g>
<g>
	<g>
		<g>
			<g>
				<g>
					<path class="st1" d="M493.4,459.05c11.2,15.4,32.7,11.9,49.3,8.7c13.4-2.6,26.9-4.3,40.6-3.9c6.8,0.2,13.9,0.5,20.4,2.1
						c3.1,0.8,6.4,1.8,8.7,4.2c3.5,4.2,3.5,8.4-0.1,12.5c-5.6,4.6-7.8,4.1-6.6-1.7c0.2,0.8,1.5,0.6,1.4-0.2
						c-0.4-8.8-15.1-0.6-5.7,5.4c10.4,6.7,19.8-9,13.2-16.9c-4.7-5.6-13.3-6.2-20.3-6.9c-11.9-1.2-23.9-0.8-35.8,0.6
						c-20.9,2.6-47.7,13.4-64.2-4.8C493.9,457.85,493,458.55,493.4,459.05L493.4,459.05z"/>
				</g>
				<g>
					<path class="st1" d="M584.8,472.15c1-5.3-7-3.9-5.6,1.1c2.5,9,15.2,1.5,16.8-4.1c2.8-10.2-9-16.8-18.1-16.9
						c-7.9-0.1-15.3,3-22.6,5.4c-4.4,1.4-8.9,2.7-13.6,2.6c-3,0-6.3-0.4-9.1-1.7c-1-0.6-1.9-1.2-2.9-1.8c-3.6-2.5-3.6-4.6-0.1-6.4
						c-0.7-0.9-2.1-0.2-1.6,0.9c2.5,5.6,11,1.5,8.2-4c-3.3-6.5-12.3-1.5-12,4.4c0.4,10.4,15.3,12,23.4,10.5
						c8.4-1.5,15.9-5.6,24.2-7.2c5.9-1.1,12-0.8,17,2.6c2.2,1.5,4.9,4.1,5.2,6.9c-0.4,2.2-0.8,4.3-1.2,6.5c-3.1,4.9-6,5.3-8.7,1.2
						C584.2,472.45,584.7,472.45,584.8,472.15L584.8,472.15z"/>
				</g>
			</g>
		</g>
	</g>
	<g>
		<g>
			<g>
				<g>
					<path class="st1" d="M748.6,458.65c-11.2,15.4-32.7,11.9-49.3,8.7c-13.4-2.6-26.9-4.3-40.6-3.9c-6.8,0.2-13.9,0.5-20.4,2.1
						c-3.1,0.8-6.4,1.8-8.7,4.2c-3.5,4.2-3.5,8.4,0.1,12.5c5.6,4.6,7.8,4.1,6.6-1.7c-0.2,0.8-1.4,0.6-1.4-0.2
						c0.4-8.8,15.1-0.6,5.7,5.4c-10.4,6.7-19.8-9-13.2-16.9c4.7-5.6,13.3-6.2,20.3-6.9c11.9-1.2,23.9-0.8,35.8,0.6
						c20.9,2.6,47.7,13.4,64.2-4.8C748.1,457.45,749,458.05,748.6,458.65L748.6,458.65z"/>
				</g>
				<g>
					<path class="st1" d="M657.2,471.75c-1-5.3,7-3.9,5.6,1.1c-2.5,9-15.2,1.5-16.8-4.1c-2.8-10.2,9-16.8,18.1-16.9
						c7.9-0.1,15.3,3,22.6,5.4c4.4,1.4,8.9,2.7,13.6,2.6c3,0,6.3-0.4,9.1-1.7c1-0.6,1.9-1.2,2.9-1.8c3.6-2.5,3.6-4.6,0.1-6.4
						c0.7-0.9,2.1-0.2,1.6,0.9c-2.5,5.6-11,1.5-8.2-4c3.3-6.5,12.3-1.5,12,4.4c-0.4,10.4-15.3,12-23.4,10.5
						c-8.4-1.5-15.9-5.6-24.2-7.2c-5.9-1.1-12-0.8-17,2.6c-2.2,1.5-4.9,4.1-5.2,6.9c0.4,2.2,0.8,4.3,1.2,6.5c3.1,4.9,6,5.3,8.7,1.2
						C657.7,471.95,657.2,472.05,657.2,471.75L657.2,471.75z"/>
				</g>
			</g>
		</g>
	</g>
</g>
<g>
	<g>
		<path class="st1" d="M329.5,279.95c-9.6,15.2-40.3,11.4-59.7,11.4c-2.5,2.7-4.9,5.6-7.3,8.9c-19.4,27.2-22.2,59.9-7.8,70.8
			c12.7,9.6,33,5.1,51.1-18.4c14.3-18.5,23.6-25,28.1-26c-10,7-17.6,15.3-27.6,28.5c-16,21.2-39.2,28.1-54.8,17.4
			c-23.6-20.7-8.2-60.4,9.8-81.2c-34.9,1.5-52.1,17.4-61.4,29.4c9.8-17.7,32.8-29.3,63-31.2c13.7-14.3,31.7-23.1,49.7-23.3
			C323,266.15,335.6,270.65,329.5,279.95z M312.7,269.05c-10.6,0.4-26.2,5.7-41.4,20.7c13.3,0.3,31.8,1.8,43.6-1.9
			C332,282.45,334.6,268.15,312.7,269.05z"/>
	</g>
	<g>
		<path class="st1" d="M332.9,319.75c5.9-0.1,10.7,3.3,10.7,12.3c0,2.7-0.7,6.3-1.7,9.9c1.8-0.8,3.8-1.9,5.8-3.4
			c7.9-6.1,9.8-12.2,13.9-11.8c-4.4,3.2-8.1,10.5-15.5,14.8c-1.5,0.9-3,1.5-4.8,2c-2.9,8.5-8.6,17-15.1,16.7
			c-9.2-0.3-9.9-11.9-5.5-20.1c0.5-1,1.1-2,1.6-2.9C316.9,327.45,325.7,319.85,332.9,319.75z M326.7,342.05c-1.3,2.3-2.4,4.6-3,6.8
			c-1.7,6.2,1.6,12.9,7.3,8.1c2.8-2.4,5.9-7.3,8.2-12.9C334.8,344.85,330.3,344.45,326.7,342.05z M330.9,326.65
			c3.6-0.5,4,2.8,3.7,4.7c0,0.1-3.8,4.1-7,9.1c3,2.3,7.4,3.2,12.2,2c2.8-7.6,3.6-15.8-1.1-19.5c-6.2-5.1-13.6,0.8-14.9,5.1
			c-0.7,2.4-0.7,4.8,0,6.8C327.1,329.75,329.9,326.85,330.9,326.65z"/>
	</g>
	<g>
		<path class="st1" d="M366.2,330.75c0.1,4.2-1.3,6.2-3.7,11c5.5-7.6,18.4-19.8,27.1-22.1c5-1.3,7.3,3.2,6.9,6.5
			c-0.7,4.9-15.3,24.2-17.2,31.3c-2.6,10.5,4.2,7.1,6.3,5.6c6.3-4.6,18.2-25.1,23.6-31c6.6-7.4,9.1-4.9,9.1-4.9
			c-10.4,2.4-23.1,34.7-34.7,39.2c-3.4,1.4-8.7,0.5-10.3-4.8c-3-10.6,17-35.2,17.7-38.9c0.7-4.2-12.2,3.3-21.1,13.2
			c-6.1,6.7-9.2,11.8-11.9,15.7c-0.5,0.9-3.6,0.9-4.9-1.3c-0.5-0.9-2.1-2.9,2.8-12.5c5.4-10.5,3.2-10.1,3.2-10.1
			C360.3,325.85,366.1,326.65,366.2,330.75z"/>
	</g>
	<g>
		<path class="st1" d="M439.5,336.85c-6.7,6.2-19.7,7.7-23.9,6.2c9.1,5.8,7.7,36.2-5.3,35.1c-8.6-0.8-8.5-13.7-4.4-29.4
			c4.4-16.6,16.9-46.6,33.4-67c5.8-7.2,17.6-14.8,21-6.5c4.2,10.4-33.7,47.5-40,52.5c-0.9,2.2-1.8,4.2-2.6,6.3
			c-1.1,2.7-2.1,5.2-2.9,7.7c18.5,1.8,25-6.1,31.4-15C444.7,331.25,443.1,333.55,439.5,336.85z M408.8,370.05
			c-0.1,6.7,2.9,8.5,6.3,4.4c5.5-6.6,6.9-22.9-0.8-30.8C410.5,355.35,408.9,364.45,408.8,370.05z M459,277.65
			c0-3.9-6.7-1.9-12.4,5.2c-7.4,9.1-16.8,24.8-24.4,41.3C430.9,317.05,459,285.55,459,277.65z"/>
	</g>
	<g>
		<path class="st1" d="M457,341.75c-6.1,7.7-10.8,12.5-16,11c-8.2-2.5-1.3-22.2,4.5-25.9c2.6-1.3,4,0.1,3.6,2.2
			c-0.5,3.2-4.1,7.9-5.5,13.4c-1.1,4.2-2.4,9,0.9,8.6c4.1-0.4,11.6-11.5,16.9-17.7c4.4-5.2,5.7-6.7,8.5-6.7
			C465.8,328.55,462.5,334.85,457,341.75z M450.6,321.65c-1.6-0.5-1.7-1.4-0.5-3.5c1.3-2.4,0.5-2.9,2.6-4.1c1.5-0.8,6.2-0.3,4.6,2.9
			C455.6,320.35,452.5,322.15,450.6,321.65z"/>
	</g>
	<g>
		<path class="st1" d="M472.2,327.85c8.6,5.2,11.5,10.9,4.1,21.3c-7.8,10.9-9,28.4,1.8,20c6.3-4.9,11.1-13.4,19-26.2
			c7.7-12.4,9.5-14.4,12.9-16.2c-1.1,1.9-7,9.6-11,16.5c-8.9,15.5-18.1,30.3-26.2,29.7s-11.4-11.4-6.1-21.5
			c5.7-11.2,12.2-15.6,1.8-21.9c-13.1-8.1-6.2-14.6-3-16.3c3.8-2.2,9.5-1.3,9.5,4.2c0,4.1-2.9,7.5-5.2,9.4
			C470.7,326.95,471.4,327.35,472.2,327.85z M468.3,314.25c-3.7,1.5-5.7,6.5,0.9,11.7c2.2-2.5,3.8-5.2,4.2-6.7
			C474.4,315.85,471.4,313.05,468.3,314.25z"/>
	</g>
	<g>
		<path class="st1" d="M515.2,332.25c0.1,2.7-3,8.7-3.6,9.9c0.4,0,1.5-1.8,4.4-5.2c3.7-4.4,7.5-7.3,10.4-7c4.2,1.4,4.5,4.7,2.8,8.6
			c-1.7,3.9-3.6,11.2,0.4,6.5c3.2-3.7,16.6-20.7,22.2-23.2c4.5-2,9.6,1.1,6.9,9.4c-0.9,3-4,8.5-9.1,15.8
			c-7.7,10.9-7.7,21.9,0.7,15.5c12.8-9.8,18.1-36.2,30.3-35.9c-9.9,4.3-13.7,16.6-18.1,23.7c-8.2,13.6-15.1,17.9-19.9,14.6
			c-5-3.3-6.2-9-0.3-18.2c8.2-12.7,14.9-28,8.9-23.1c-8.6,7-18.4,20.5-20.9,23.1c-2.2,2.3-4.8,2.3-6.5,0.6
			c-1.5-1.5-2.2-4.7,0.9-12.3c2.9-6.8-0.9-3.5-4.1-0.9c-5.7,4.9-13.1,18.9-14.8,21.5c-2.9,4.4-7-1.1-5.3-5.7
			c0.3-0.8,9.6-20.7,8.6-22.9C510.3,326.35,515,326.05,515.2,332.25z"/>
	</g>
	<g>
		<path class="st1" d="M595.5,356.75c7.5-10.6,16.8-28.8,23.3-30.2c-6.6,7.2-8.3,10.5-12.2,16.3c-7.3,11.3-11.2,18.9-15.5,18.2
			c-4.8-0.8-9.1-6.7-4.2-19.5c0.1-0.5,0.4-1,0.5-1.5c-5.4,6.3-10.6,12.4-15.6,7c-5.2-5.6-0.1-15.6,4.6-19.8c3.4-3,9.9-5.7,16.8-4.1
			c7.7,1.9,1.8,1.9,1.8,1.9s-9.8-2-16.8,8.7c-5.2,8-2.2,15.2,1.8,11.5c2.2-2,7.1-8,11-12.7c2-3,4.1-6.7,6.1-6.7
			c2-0.1,6.9,0.5,2.5,5.8C587.8,346.85,587.5,368.05,595.5,356.75z"/>
	</g>
	<g>
		<path class="st1" d="M621.4,327.85c8.6,5.2,11.5,10.9,4.1,21.3c-7.8,10.9-9,28.4,1.8,20c6.3-4.9,11.1-13.4,19-26.2
			c7.7-12.4,9.5-14.4,12.9-16.2c-1.1,1.9-7,9.6-11,16.5c-8.9,15.5-18.1,30.3-26.2,29.7c-8.1-0.6-11.4-11.4-6.1-21.5
			c5.7-11.2,12.2-15.6,1.8-21.9c-13.1-8.1-6.2-14.6-3-16.3c3.8-2.2,9.5-1.3,9.5,4.2c0,4.1-2.9,7.5-5.2,9.4
			C620,326.95,620.6,327.35,621.4,327.85z M617.6,314.25c-3.7,1.5-5.7,6.5,0.9,11.7c2.2-2.5,3.8-5.2,4.2-6.7
			C623.7,315.85,620.6,313.05,617.6,314.25z"/>
	</g>
	<g>
		<path class="st1" d="M723.3,356.75c7.5-10.6,16.8-28.8,23.3-30.2c-6.6,7.2-8.3,10.5-12.2,16.3c-7.3,11.3-11.2,18.9-15.5,18.2
			c-4.8-0.8-9.1-6.7-4.2-19.5c0.1-0.5,0.4-1,0.5-1.5c-5.4,6.3-10.6,12.4-15.6,7c-5.2-5.6-0.1-15.6,4.6-19.8c3.4-3,9.9-5.7,16.8-4.1
			c7.7,1.9,1.8,1.9,1.8,1.9s-9.8-2-16.8,8.7c-5.2,8-2.2,15.2,1.8,11.5c2.2-2,7.1-8,11-12.7c2-3,4.1-6.7,6.1-6.7
			c2-0.1,6.9,0.5,2.5,5.8C715.5,346.85,715.2,368.05,723.3,356.75z"/>
	</g>
	<g>
		<path class="st1" d="M747.3,327.75c-0.5,1.8-0.5,4.4,1.2,7.2c2.4,3.9,4.9,7.2,5.9,10.3c13.2-6.2,16.4-9.9,23.1-18.4
			c-2.9,8.6-12.2,14.8-22.7,19.6c2,6,1.7,10.8-2.2,16.7c-6.7,10.3-21.1,13.6-25.8,8.1c-6.3-7.6,3.7-15.8,18.4-22.2
			c2.1-0.9,3.8-1.8,5.5-2.5c-0.4-2.4-1.5-4.8-3.2-7.5c-6.3-9.5-5.3-10.6-5.2-12.8c0.3-4.1,5.3-8.2,5.3-8.2c2.9-2,3.7,2,3,4.4
			C749.3,324.15,747.9,326.05,747.3,327.75z M749.1,348.65c-12.3,5.1-23.1,11.8-22.2,18.2c0.7,4.4,4.6,5.8,9.5,3.2
			c5-2.7,15.7-11,14.7-22C750.4,348.25,749.7,348.35,749.1,348.65z"/>
	</g>
	<g>
		<path class="st1" d="M787.8,341.75c-6.1,7.7-10.8,12.5-16,11c-8.2-2.5-1.3-22.2,4.5-25.9c2.6-1.3,4,0.1,3.6,2.2
			c-0.5,3.2-4.1,7.9-5.5,13.4c-1.1,4.2-2.4,9,0.9,8.6c4.1-0.4,11.6-11.5,16.9-17.7c4.4-5.2,5.7-6.7,8.5-6.7
			C796.6,328.55,793.3,334.85,787.8,341.75z M781.4,321.65c-1.6-0.5-1.7-1.4-0.5-3.5c1.3-2.4,0.5-2.9,2.6-4.1
			c1.5-0.8,6.2-0.3,4.6,2.9C786.4,320.35,783.3,322.15,781.4,321.65z"/>
	</g>
	<g>
		<path class="st1" d="M801.1,327.75c-0.5,1.8-0.5,4.4,1.2,7.2c2.4,3.9,4.9,7.2,5.9,10.3c13.2-6.2,16.4-9.9,23.1-18.4
			c-2.9,8.6-12.2,14.8-22.7,19.6c2,6,1.7,10.8-2.2,16.7c-6.7,10.3-21.1,13.6-25.8,8.1c-6.3-7.6,3.7-15.8,18.4-22.2
			c2.1-0.9,3.8-1.8,5.5-2.5c-0.4-2.4-1.5-4.8-3.2-7.5c-6.3-9.5-5.3-10.6-5.2-12.8c0.3-4.1,5.3-8.2,5.3-8.2c2.9-2,3.7,2,3,4.4
			C803.1,324.15,801.6,326.05,801.1,327.75z M802.8,348.65c-12.3,5.1-23.1,11.8-22.2,18.2c0.7,4.4,4.6,5.8,9.5,3.2
			c5-2.7,15.7-11,14.7-22C804.1,348.25,803.5,348.35,802.8,348.65z"/>
	</g>
	<g>
		<path class="st1" d="M799.9,277.65c-3.3,2.2-6.1,6.3-2.5,9.8c6.3,6.1,24.6,5.4,46.2,3.3c5.5-9.9,8.6-12.5,8.6-12.5
			c1.3-2,5.7,2.5,4.4,4.7c-1.5,2.3-2.9,4.6-4.4,7c30.1-3.4,64.2-8.7,81.1-3.8c6.3,1.9,8.7,4.1,8.1,7.1c-0.3,1.6-2.1,2.7-2.9,1
			c-0.7-1.4,2.8-4.7-5.9-7.1c-17.4-4.7-51.3,0.8-81.2,4.2c-8.7,14.3-17.8,32.4-25.4,58c-5.4,18.4-0.5,26.7,8.2,16.2
			c9.8-11.8,19.2-37.1,29.6-38.8c-8.3,7.1-11.2,12.4-19,26.4c-11,19.8-17.2,20.9-21.5,17.5c-5.5-4.3-8.5-15.3,5.9-49.5
			c5.5-13.1,10.2-22.4,13.7-28.9c-21.8,2.2-40.2,2.5-46.8-4.2c-3.3-3.4-2-9.4,2.4-12.2C799.8,274.85,803.3,275.55,799.9,277.65z"/>
	</g>
	<g>
		<path class="st1" d="M857.6,339.45c-2.1,9.8,3.4,13.6,9.2,11.3c9.8-3.7,19-24.2,25.9-24.1c-6.7,6-7.3,7.9-11.9,13.6
			c-6.1,7.5-12.4,13.9-19.9,13.2c-9.9-1-11.1-12.9-8.6-18.5c2.6-5.8,7.9-12.4,16.3-12.9c6.9-0.4,9.5,5.8,2.9,11.2
			c-4,3.2-9.8,4.7-13.6,5.3C857.9,338.75,857.6,339.25,857.6,339.45z M863.3,335.85c10.7-3.4,12.6-11.2,7-9.9c0,0-8.7,1-12,11.2
			C859.6,336.85,861.5,336.45,863.3,335.85z"/>
	</g>
	<g>
		<path class="st1" d="M898.1,330.75c0.1,4.2-1.3,6.2-3.7,11c5.5-7.6,18.4-19.8,27.1-22.1c5-1.3,7.3,3.2,6.9,6.5
			c-0.7,4.9-15.3,24.2-17.2,31.3c-2.6,10.5,4.2,7.1,6.3,5.6c6.3-4.6,18.2-25.1,23.6-31c6.6-7.4,9.1-4.9,9.1-4.9
			c-10.4,2.4-23.1,34.7-34.7,39.2c-3.4,1.4-8.7,0.5-10.3-4.8c-3-10.6,17-35.2,17.7-38.9c0.7-4.2-12.2,3.3-21.1,13.2
			c-6.1,6.7-9.2,11.8-11.9,15.7c-0.5,0.9-3.6,0.9-4.9-1.3c-0.5-0.9-2.1-2.9,2.8-12.5c5.4-10.5,3.2-10.1,3.2-10.1
			C892.1,325.85,897.9,326.65,898.1,330.75z"/>
	</g>
	<g>
		<path class="st1" d="M945.9,336.55c-3.4,4.4-5.9,9.9-4.4,16.2c0.7,3,5.5,5.2,11.2,1.6c11-6.8,20.9-23.7,29.3-27.8
			c-6.1,4.8-12.5,15-22.1,23.8c-8.7,8.1-15.2,10.1-20.6,5.8c-6.3-5.1-4.2-17.5,1.1-23.7c6.1-7.2,13.5-11,20.3-9.1
			c7.3,1.9,4.6,7.7,2.5,10.6s-5.2,5.6-8.1,3.3c-2.9-2.3,1.1-4.7,1.8-4.4c0.7,0.3,3.4,0,5.3-2c2.5-2.7,0.4-4.8-2.8-4.3
			C957.6,326.95,952.1,328.55,945.9,336.55z"/>
	</g>
	<g>
		<path class="st1" d="M990.7,341.75c-6.1,7.7-10.8,12.5-16,11c-8.2-2.5-1.3-22.2,4.5-25.9c2.6-1.3,4,0.1,3.6,2.2
			c-0.5,3.2-4.1,7.9-5.5,13.4c-1.1,4.2-2.4,9,0.9,8.6c4.1-0.4,11.6-11.5,16.9-17.7c4.4-5.2,5.7-6.7,8.5-6.7
			C999.5,328.55,996.2,334.85,990.7,341.75z M984.3,321.65c-1.6-0.5-1.7-1.4-0.5-3.5c1.3-2.4,0.5-2.9,2.6-4.1
			c1.5-0.8,6.2-0.3,4.6,2.9C989.4,320.35,986.2,322.15,984.3,321.65z"/>
	</g>
	<g>
		<path class="st1" d="M1018.8,356.75c7.5-10.6,16.8-28.8,23.3-30.2c-6.6,7.2-8.3,10.5-12.2,16.3c-7.3,11.3-11.2,18.9-15.5,18.2
			c-4.8-0.8-9.1-6.7-4.2-19.5c0.1-0.5,0.4-1,0.5-1.5c-5.4,6.3-10.6,12.4-15.6,7c-5.2-5.6-0.1-15.6,4.6-19.8c3.4-3,9.9-5.7,16.8-4.1
			c7.7,1.9,1.8,1.9,1.8,1.9s-9.8-2-16.8,8.7c-5.2,8-2.2,15.2,1.8,11.5c2.2-2,7.1-8,11-12.7c2-3,4.1-6.7,6.1-6.7
			c2-0.1,6.9,0.5,2.5,5.8C1011,346.85,1010.8,368.05,1018.8,356.75z"/>
	</g>
</g>
<path class="st2" d="M560.5,839.3c0.2,5-2.2,8.7-5.3,12.5c-3,3.8-6,7.3-8.3,11.6c-3.5,6.7-5.6,16.1-2.6,23.3
	c0.1,0.2,0.2,0.3,0.4,0.3c-3.2,7.6-7.3,14.8-13.8,20.1c-0.1,0.1-0.2,0.2-0.3,0.4c-4.5,2.7-9.4,4.4-14.5,3.1H516
	c-17.4-3.7-34.7-8.2-51.2-14.7c-0.5-0.2-0.9,0.5-0.4,0.8c5.2,3.1,11,5,16.8,6.8c6.9,2.1,13.8,4,20.8,5.7c12.5,3.1,25.3,6,38.1,7.6
	c10.4,1.3,20.9,2,31.4,1.9c6,1.8,11.5,4.5,16.8,7.6c3.1,3,5.2,7.8,7.7,10.9c5,6.6,12.6,12.1,20.2,15.4c6.9,3,14.5,4.1,22,4.5
	c3.5,0.2,7,0.1,10.5-0.2c2.8-0.2,6.2-0.5,8.8-1.8c0.1,0,0.2,0,0.2,0c0.1,0,0.2,0,0.3-0.1c0.1,0,0.2,0,0.3,0c0.4-0.1,0.4-0.7,0-0.7
	h-0.1c-0.1-0.2-0.3-0.3-0.5-0.3c-6.2,0-11.6-4.4-16.1-8.2c-4.3-3.7-8.2-8-12.9-11.3c-5.2-3.8-11.2-6.8-17.5-8.3
	c-3.7-0.9-7.3-1.3-11.1-1.2c-3.1,0-6.5-0.4-9.6,0c-0.1,0-0.1,0-0.2,0c-0.1,0-0.3,0-0.3,0.1c-3.9-2.5-8.1-4.9-12.5-6.6
	c16.6-0.5,33.2-2.8,49.2-7.1l0,0c2.2,0.5,4.4,0.8,6.7,1c7.9,1.6,14.3,4.6,20.8,9.4c5.9,4.5,11.3,9.7,16.9,14.5
	c5.4,4.6,11.2,8.8,17.7,11.9c6.7,3.2,16.3,5.7,23.7,3.7c0.4-0.1,0.5-0.8,0-0.8c-0.1,0-0.2,0-0.2,0c-0.1,0-0.1,0-0.2-0.1
	c-6.1-2.7-11-6.3-15.6-11.2c-5-5.2-9.4-11-14.3-16.2c-10.4-11.2-26-14.2-40.7-11.9c-3.1-0.7-6.7-1.4-10-1.5c4-1.2,8-2.5,11.9-3.9
	c7-2.5,13.9-5.1,20.9-7.4c6.6-1.5,12.9-0.5,19.1,1.5c3.2,2.6,5.8,5.5,8.5,8.6c1.6,1.8,3.4,3.7,5.7,4.6c2.4,0.9,4.7,1.2,7.3,1.2
	c3.5,0.1,7.2,0.9,10.7,0.7c0.4,0,0.4-0.6,0.1-0.7c-0.1,0-0.1,0-0.2-0.1c-1.5-2.5-3.8-4.6-5.7-6.7c-2.4-2.8-4.9-5.5-8.2-7.3
	c-2-1.1-4.3-1.3-6.5-1.4c-3.7-0.2-7.4-0.1-11.1-0.1c-3.7-1.3-7.8-2.5-11.8-2.7c3.1-0.9,6.1-1.6,9.3-2.3c11.8-2.5,23.4-2.9,35.2-1.4
	c-0.4,1.2-0.3,2.5,0.9,3.8c1.4,1.5,3.6,2.3,5.5,1.4c1.7-0.8,2.7-2.9,2.7-4.7c0-0.1,0-0.1,0-0.2c0.6-1.3,0.4-2.9-0.8-3.7
	c-1-0.7-2.3-0.7-3.5-0.4c-1.3-0.1-2.7,0.1-3.2,1.4c-0.1,0.1-0.1,0.2-0.1,0.4c-0.2,0.2-0.3,0.3-0.5,0.5c-14.4-2.7-29.5-0.6-43.5,2.9
	c-16.8,4.3-32.6,11.8-49.4,16.1c-2.4,0.6-4.7,1.2-7.1,1.7c2.5-1.1,4.9-2.5,7.3-4c2.8-0.3,5.6-1.6,8.3-2.5c4.4-1.6,8.8-3.5,13.1-5.4
	c8.5-3.8,16.8-8.2,24.3-13.7c7.3-5.4,13.2-11.8,18.5-19.2c3-4.2,5.8-8.6,9.6-12.2c3.6-3.4,8.2-5.5,12.3-8.2c0.8-0.5,0-1.9-0.8-1.4
	c-0.1,0-0.2,0.1-0.2,0.1c-0.7,0-1.5,0.1-2.2,0.2c-3.5,0-7.1,0.2-10.6,0.3c-4.6,0-9.1,0-13.7,0.3c-9.5,0.5-18.9,2.5-27,7.8
	c-8,5.2-12.7,14.3-16.8,22.7c-2.7,5.4-5.1,11-7.9,16.4c-2.4,4.7-5.6,8.9-8,13.6c-4.5,2.8-9.1,5.1-14.1,6.9
	c-12.2,2.2-24.6,3.2-37,3.3c1.4-0.4,2.8-0.9,4.1-1.4c5.6-1.9,10.7-4.9,15.9-7.8c9.1-5.2,18.7-11.6,25.5-19.9
	c0.8,0.1,1.6,0.1,2.4-0.2c1.6-0.6,2.9-2,3-3.7c0.2-2.1-1.4-3.5-3.2-4.3c-1.4-0.7-3.3-1.1-4.5,0.2l-0.1,0.1c-1.4,0.2-2.7,0.8-3,2.2
	c-0.4,1.6,1.1,3.2,2.1,4.2c0.4,0.4,0.9,0.7,1.4,1c-7.3,6.9-14.8,13.2-23.7,18.4c-4.5,2.7-9.1,5.2-13.9,7.3c-4.7,2-9.5,2.5-14.3,3.9
	c-13.3-0.4-26.6-1.9-39.7-4.5c-0.3-0.1-0.5-0.1-0.8-0.2c4.6-1.1,9.1-4.1,12.7-6.8c5-3.7,9.5-7.6,14.4-11.2c0.5,0,0.9,0,1.4-0.1
	c2.4,0.1,4.8-0.3,7.1-0.8c8.3-1.3,16.4-4,23.9-7.7c5.9-2.9,11.1-6.8,16.3-10.6c2.8-2,5.6-4.1,8.4-6.2c2.2-1.7,4.7-3.3,6.7-5.3
	c0.7-0.3,1.3-0.6,1.9-1.1c0.3-0.2,0.1-0.8-0.3-0.7c-0.1,0-0.3,0.1-0.4,0.1c-0.1-0.1-0.1-0.1-0.2-0.1l0,0c0,0,0,0-0.1,0l0,0
	c-1.1,0.3-2.2,0.6-3.2,0.9c-2.2,0.5-4.5,0.8-6.9,0.8c-3.1,0.1-6.2-0.1-9.3-0.1c-6.9,0.1-13.5,1-20,3.4
	c-11.8,4.4-21.5,15.4-27.4,26.3c0,0,0,0,0,0.1c-1.6,1.1-3.2,2.3-4.7,3.6c-1.7,1.4-3.5,3-5.4,4.6c3.1-4,5.5-8.6,7.5-13.3
	c7.4-8.3,13.5-16.9,16.6-27.7c1.2-4,1.9-8.1,1.8-12.3c0-2.8-0.6-7.1-3.1-8.9c0-0.1,0-0.1,0-0.2C561.4,838.5,560.5,838.7,560.5,839.3
	z M650.6,955.3c-0.7,0.1-1.3,0.2-2,0.3c-4,0.4-8.1,0.3-12.1,0.1c-7.1-0.5-14.6-1.7-21-4.9c-7.3-3.6-14.5-8.7-19.2-15.5
	c-1.7-2.4-3.3-4.9-5.1-7.2c7.4,4.6,14.6,9.9,22.3,14c6.9,3.8,14.1,7.1,21.5,9.6C639.9,953.4,645.3,954.9,650.6,955.3z M599.9,926.5
	c4.1-0.1,8.1,0.4,12,1.5c7,1.9,13.6,5.6,19.1,10.3c5.3,4.5,11,11.3,17.8,14.8c-0.1,0-0.3,0-0.4-0.1c-8.1-2.6-15.1-7.7-22.2-12.4
	c-8.9-5.9-18.5-11.1-28.9-14C598.2,926.6,599.1,926.5,599.9,926.5z M592.8,926.6c6.6,1.7,13,3.8,19.2,6.8c5.7,2.8,11.1,6.3,16.4,9.8
	c4.7,3.1,9.5,6.4,14.7,8.8c-2.8-0.6-5.6-1.3-8.4-2.3c-7.4-2.5-14.5-6-21.4-9.7c-7.3-4-14-8.6-20.9-13.2c-0.2-0.1-0.4-0.3-0.6-0.4
	C592.1,926.5,592.5,926.5,592.8,926.6z M698.9,950.2c-3.6-0.7-7.2-2-10.5-3.6c-7.4-3.4-13.7-8.8-19.8-14.1c-2.3-2-4.7-4.2-7.2-6.4
	c1.6,1,3.2,2,4.8,3.1c4.1,2.8,8.1,5.8,12.1,8.8c4,2.9,8.1,5.8,12.5,8c5.1,2.6,10.8,4,16.4,5C704.4,950.8,701.7,950.7,698.9,950.2z
	 M663.4,914c8.1,1.9,14.4,6.9,19.8,13c4,4.5,7.8,9.3,11.9,13.7c-1.6-1.2-3.2-2.5-4.8-3.8c-5-4.2-9.7-8.6-15-12.4
	c-5-3.6-10.3-6.7-16-9.1c-2.2-0.9-4.6-1.8-7.1-2.5C655.9,912.9,659.6,913.1,663.4,914z M696.9,943.9c-7.2-4.6-13.8-10.3-20.6-15.4
	c-6.6-4.9-13.6-9.2-21.1-12.5c-1.9-0.8-3.8-1.5-5.8-2.2c4.2,0.9,8.2,2,12.3,3.9c5.7,2.6,11,6.2,16,10
	C684.2,932.9,690.2,939,696.9,943.9z M655.5,918.2c7.6,3.3,14.6,8,21.2,12.9c7.6,5.7,15.2,12.8,23.9,17.1c-3.8-1.1-7.5-2.4-11.1-4.4
	c-4.2-2.3-8.1-5.2-11.9-8c-7.6-5.5-15.3-12-23.9-16.1c-2.8-2-5.6-3.9-8.7-5.3C648.6,915.5,652.1,916.7,655.5,918.2z M689.1,902.6
	c0.4,0.1,0.7,0.3,1.1,0.4c4.7,2,9.3,4.3,13.9,6.7c1.4,0.8,2.9,1.6,4.4,2.5c-3.1-0.6-6.4-0.9-9.3-2.3c-2.5-1.2-4.9-2.9-7.1-4.7
	C691,904.5,690.1,903.5,689.1,902.6z M699.1,912.8c-3.3-0.9-5.6-3.6-7.7-6.1c2.1,1.5,4.3,2.9,6.2,3.9c2.5,1.4,5.4,2.3,8.3,2.9
	C703.6,913.4,701.3,913.4,699.1,912.8z M700.8,901.9c3.2,1.5,5.7,4.4,7.9,7.1c0.9,1,1.7,2.2,2.7,3.3c-2.3-1.3-4.6-2.4-6.9-3.6
	c-4.8-2.6-9.6-5-14.6-7.1c-0.8-0.3-1.7-0.7-2.6-1.1C691.9,900.5,696.8,900,700.8,901.9z M721.7,896.3c-1.8,0.4-4-1.3-3.4-3.1
	c0.5,1.1,1.3,2,2.1,2.6C720.8,896.1,721.3,896.3,721.7,896.3z M722.1,891c1.5,0.4,1.8,2,1.5,3.3c0-0.4,0-0.8-0.1-1.2
	c0-0.1,0-0.1,0-0.2c-0.1-0.3-0.1-0.6-0.2-0.9c-0.1-0.6-1-0.9-1.4-0.5c-0.2,0.2-0.4,0.3-0.6,0.5c-0.5-0.1-0.9-0.2-1.4-0.3l0,0
	c0,0,0,0,0-0.1c0.5-0.3,1-0.5,1.5-0.7C721.6,890.9,721.9,891,722.1,891z M695.4,850.5c-2.9,1.7-5.7,3.5-8.2,5.1
	c-9.2,5.8-17.8,12.4-26.2,19.3c-7.5,6.2-14.1,13.3-21.4,19.7c-2.2,1.9-4.4,3.7-6.7,5.5c1-1.3,1.9-2.6,2.8-4c1.8-2.1,3.6-4.1,5.4-6.1
	c5.8-6.5,11.6-13,18-19c6.1-5.8,13.1-10.7,20.6-14.6C684.7,853.7,690,851.9,695.4,850.5z M700.8,847.8c-0.4,0.2-0.9,0.4-1.3,0.6
	c-14,2.5-27.2,10.2-37.9,19.1c-6.7,5.6-12.6,12.3-18.4,18.8c-1.4,1.6-2.9,3.2-4.3,4.7c0.2-0.3,0.3-0.6,0.5-0.8
	c4.8-8.2,8.8-17,14.7-24.4C665.3,851.8,684,850.3,700.8,847.8z M632.4,895.1c2.4-4.6,4.6-9.2,6.8-13.9c4.3-9.1,8.9-18.9,17.2-25.1
	c7.7-5.8,17.7-7.5,27-8c2.2-0.1,4.4-0.2,6.6-0.2c-3.3,0.6-6.6,1.2-9.8,2c-8.6,2.1-17.4,5.3-23.9,11.5c-10.7,10.3-15.2,25.1-24,36.7
	c-1.6,1.8-3.2,3.5-4.8,5.3C629.5,900.8,630.9,897.8,632.4,895.1z M636.4,899.4c8.1-6.5,15-14.1,22.9-20.9c7.8-6.8,16.1-13,24.7-18.8
	c4.4-2.9,8.8-5.7,13.5-8.2c0.9-0.5,1.9-1,2.9-1.5c-4.6,2.7-8.7,6.3-12.5,10.1c-7.2,7.4-13.6,15.1-21.8,21.4
	c-6.6,5.1-13.9,9-20.9,13.4c-4.5,2.9-9,5.8-13.7,8.3C633.2,902,634.8,900.7,636.4,899.4z M642,898c6.6-4.2,13.6-8,20-12.4
	c7.9-5.4,14.6-11.9,21-18.9c5.7-6.3,11.4-12.2,18.7-16.5c-0.7,0.5-1.4,1-2.2,1.5c-3.7,2.7-6.5,6.4-9.2,10.1
	c-2.7,3.7-5.2,7.5-8.1,11.1c-2.9,3.6-6.6,6.8-10.2,9.7c-7.3,6-15.6,10.5-24.1,14.5c-4,1.9-8.1,3.6-12.2,5.3
	c-0.6,0.2-1.1,0.4-1.7,0.6C636.8,901.5,639.5,899.6,642,898z M620.4,882.6C620.4,882.7,620.4,882.7,620.4,882.6
	c-1-0.4-2.4-0.8-3.5-0.1c-0.1-0.3-0.1-0.7,0-1C618.1,881.6,619.4,881.9,620.4,882.6z M614.4,882.6c0-0.4,0.2-0.6,0.6-0.8
	c0,0.6,0.1,1.1,0.3,1.6c0.1,0.4,0.3,0.9,0.6,1.3c0,0.1,0,0.1,0,0.2C615.1,884.2,614.5,883.3,614.4,882.6z M617.7,884.1
	c0.1-0.3,0.7-0.2,1.3,0C618.5,884.5,618.1,884.5,617.7,884.1z M600.8,872.5c-5.3,3.8-10.5,7.8-16.3,10.9c-3.7,2-7.5,3.6-11.5,5
	c2.9-1.4,5.6-2.9,8.4-4.4c5.2-3,10.2-6.3,15.1-9.7c4-2.7,8.8-5.2,12.6-8.3c0.2-0.1,0.3-0.1,0.5-0.2
	C606.6,867.9,603.7,870.4,600.8,872.5z M605.5,865c0.3,0,0.6,0,0.9,0c-4.4,1.8-8.7,3.9-12.9,5.7c-9.8,4.2-19.5,8.6-29,13.4
	c-3,1.5-6,3.1-8.9,4.8c2.6-2.5,5.1-5.2,8-7.6c3.9-3.2,8.2-5.8,12.7-8C585.5,868.7,595.4,866.9,605.5,865z M580.5,866.8
	c6.2-1.9,12.6-2.2,18.9-2c-8.2,1.6-16.3,4.3-23.7,7.8c-4.4,2.1-8.4,4.7-12.2,7.7c-3.8,2.9-7.8,6.4-10.7,10.3c-0.5,0.3-1,0.6-1.5,1
	C558.7,880.5,567.4,870.8,580.5,866.8z M558.1,889.5c9.8-5.5,20.1-10.1,30.4-14.6c4.3-1.9,8.7-3.8,13.1-5.7c-1.4,1-2.9,2.1-4.3,3
	c-4.9,3.3-9.9,6.6-14.9,9.7c-5,3-10.2,5.7-15.7,7.8c-2.4,0.9-4.8,1.5-7.2,2c-2.1,0.3-4.2,0.6-6.3,0.8
	C554.8,891.5,556.4,890.4,558.1,889.5z M545.1,872.3c1-4.8,3.3-9.1,5.9-13.1c2.3-3.6,6.7-7.4,9.1-11.7c-0.6,2-1.4,4-2.5,6.1
	c-1.9,3.6-4.2,7-6,10.7c-2,4.2-3.8,9.1-4.7,14c1-0.4,2.4-0.8,2.4-0.7c0.1,0.2-1.4,0.7-2.5,1.1c-0.2,1.4-0.4,2.7-0.5,4
	c-0.4,1-0.8,2-1.2,3.1C544.9,881.1,544.2,877,545.1,872.3z M561,862.1c-1.6,4.9-3.7,9.5-6.5,13.8c-2,3-4.3,5.7-6.6,8.4
	c0.5-1.3,1-2.6,1.5-4c3.2-5.8,6.8-11.4,9.9-17.2c1.3-2.4,2.7-5.4,3.7-8.5C562.5,857.2,561.8,859.7,561,862.1z M556.7,865.1
	c-1.5,2.7-3.1,5.3-4.7,8c0.8-2.2,1.7-4.5,2.6-6.6c0.1-0.3-0.4-0.5-0.6-0.3c-2,2.9-3.5,6.2-4.9,9.4c0.2-0.9,0.4-1.8,0.6-2.7
	c1.2-4.5,3.1-8.7,5.4-12.8c2.4-4.3,6.5-9.8,7.3-15.2C563.6,851.9,560.1,858.8,556.7,865.1z"/>
<g>
	<g>
		<path class="st1" d="M626.3,152.25c2.5-2.2,4.5-4.6,7.1-6.2c5.4-3.5,11.2-3.1,16.6,0.1c5.9,3.4,8.2,8.9,8.1,15.6
			c-0.2,7.7-3.7,14-8.4,19.7c-5.5,6.5-12.1,11.7-19.4,15.9c-1.2,0.7-3.4,0.9-4.6,0.3c-10.6-5.6-20.5-12.2-26.6-23
			c-4-6.9-5.6-14.3-1.4-21.7c5.1-9,17.4-11.5,25.6-3.6C624.3,150.25,625.4,151.35,626.3,152.25z M598.6,161.95c1,3,1.7,6.2,3.2,9
			c5.4,10.2,14.5,16.5,24.3,22c0.9,0.5,2.7,0.4,3.5-0.2c5.2-3.9,10.5-7.8,15.1-12.2c5.1-5,8.8-11,9.7-18.4
			c0.8-6.6-3.7-14.2-12.5-14.5c-6.2-0.2-11.8,6.4-12.7,12.5c-0.2,1-1.5,2.7-2.2,2.7c-1-0.1-2.1-1.4-3-2.2c-0.2-0.2-0.2-0.8-0.2-1.2
			c-0.6-4.9-6.9-11.5-13-10.8C603.6,149.25,598.9,154.95,598.6,161.95z"/>
		<path class="st1" d="M640.2,86.95c4.1,0,8,0.1,12-0.1c0.9,0,2.1-1.1,2.7-2c5.4-9.1,15.5-11.7,24.6-9.8c3.4,0.7,5.7,3.7,6.4,7.1
			c0.6,3.2,1.7,4.8,5.7,4.7c6.5-0.2,8.9,2.1,9.2,8.7c0.4,9.2,0.3,18.4,0.2,27.5c-0.1,6.5-0.8,12.9-0.8,19.4c0,5.4,0.5,10.8,0.7,16.2
			c0.1,5.2,0.2,10.4,0,15.6c-0.4,15.4-1,30.8-1.5,46.3c0,0.1,0,0.2,0,0.4c0.7,10-1.3,12.5-13.5,12.6c-28.8,0.3-57.5,0.3-86.3,0.1
			c-12.2-0.1-24.5-1.3-36.7-2c-3.4-0.2-5.7-2.4-5.9-6c-0.4-7.5-0.6-14.9-0.9-22.4c-1.2-30.2-2.6-60.4-3.7-90.7
			c-0.2-6.4,0.8-12.9,1.5-19.4c0.5-4.3,2.9-6.4,7.5-6.9c1.8-0.2,3.6-0.2,5.6-0.3c1.7-7.4,7.4-10.2,14.4-11.7
			c7.7-1.7,15.5,2.5,17.5,9.8c0.6,2.3,1.6,3,3.9,2.8c2.4-0.2,5,0.8,5.9-2.9c2.4-9.5,14.3-13,21.3-10.1
			C635.6,76.15,638.7,80.55,640.2,86.95z M626.4,116.95c0,0.1,0,0.2,0,0.3c-21.1,0-42.2,0-63.3,0c-6.1,0-6.1-0.2-5.9,5.8
			c0.9,19.3,1.8,38.5,2.7,57.8c0.6,13.6,1.2,27.2,1.5,40.8c0.1,3.5,1.5,5.2,5.1,5.5c12.7,0.8,25.4,2,38.1,2.2
			c19.4,0.4,38.7,0.2,58.1-0.1c9.1-0.1,18.3-0.9,27.4-1.4c1.8-0.1,3.7-0.2,3.7-2.9c0.1-5.3,0.8-10.5,1-15.8
			c0.4-11.7,0.6-23.4,1-35.1c0.1-4.1,0.9-8.1,1-12.2c0-3.3-0.9-6.6-0.9-9.9c-0.1-10.2-0.2-20.3,0-30.5c0.1-3.8-1.2-4.7-5-4.7
			C669.4,117.05,647.9,116.95,626.4,116.95z M574.3,89.45c2.2,3.6,2.2,3.7,7.1,3.9c3,0.1,5.1,2.1,5.1,5c0.1,2.4-1,5.7-2.6,7.1
			c-1.3,1.2-5,1.2-6.2,0c-3.9-4.2-7.6-8.9-10.6-13.9c-1.7-2.8-3.4-1.8-5-1.5c-0.9,0.1-2.3,1.8-2.5,3c-0.7,4.5-1.1,9.1-1.4,13.7
			c-0.4,6.7-0.4,6.8,5.4,6.8c38.5,0.1,77,0.1,115.4,0.1c4.3,0,8.7-0.1,13-0.5c1-0.1,2.9-1.5,2.9-2.3c0-6.6-0.3-13.2-0.6-20.4
			c-10.3,0-20,0-29.8,0c0,0.1-0.1,0.3,0,0.4c1.7,2.8,3.5,4.2,6.8,2.8c2.5-1.1,5.2-0.3,6.8,2.9c1.5,3,1.4,6.1-0.9,8.1
			c-1.6,1.4-5,2.7-6.2,1.8c-5.2-4.1-9.8-9.1-14.7-13.6c-1.4-1.2-3.1-2.8-4.7-2.8c-10.6-0.2-21.3,0.1-31.9,0.2
			c-0.9,0-1.9,0.3-3.2,0.5c2.3,3.6,4.2,5.4,7.7,2.5c2.6-2.1,5.3-0.8,7.3,1.8s2,5.4,0.2,8.1c-1.9,2.8-4.5,3.5-7.4,2.3
			c-1.8-0.8-3.6-1.8-5.4-2.5c-4.1-1.7-7.4-4.8-9-9.3c-1.1-3.1-2.7-3.4-5-3.5c-7.3-0.1-14.7-0.4-22-0.6
			C580.1,89.45,577.4,89.45,574.3,89.45z M632.7,86.55c-1.8-5.2-5.5-7.8-9.5-7.1c-4.9,0.8-7.4,3.2-7.4,7.1
			C621.4,86.55,626.9,86.55,632.7,86.55z M679.3,86.55c0.3-0.3,0.6-0.7,0.9-1c-1.3-1.5-2.3-3.7-4-4.2c-5.1-1.5-11.4,1.2-13.6,5.2
			C668.2,86.55,673.8,86.55,679.3,86.55z M592.5,85.95c-1.9-3.8-4.3-5.9-8.2-5.6c-5.4,0.3-8.3,2.1-9.2,5.6
			C580.6,85.95,586.2,85.95,592.5,85.95z"/>
	</g>
</g>
</svg>
