<?xml version="1.0" encoding="utf-8"?>
<!-- Generator: Adobe Illustrator 25.4.1, SVG Export Plug-In . SVG Version: 6.00 Build 0)  -->
<svg version="1.1" id="Capa_1" xmlns="http://www.w3.org/2000/svg" xmlns:xlink="http://www.w3.org/1999/xlink" x="0px" y="0px"
	 viewBox="0 0 1242 294.5" style="enable-background:new 0 0 1242 294.5;" xml:space="preserve">
<style type="text/css">
	.st0{fill:#486F7F;}
</style>
<g>
	<path class="st0" d="M311.4,118.7c22.4,18.1,55-14.8,56.9-34.2c0.3-0.2,1,23.3-16.3,34.9c-36.6,25-65.5-10.1-45.7-39.8
		c7.5-11.3,37.8-34.7,95.1-27.4c54,6.9,68.4,3.8,81.3,0.2c23.6-6.9,32.1-20,32.1-20c-18.8,33.5-77.8,31.4-108.2,26
		C310.2,41.3,288.5,100.2,311.4,118.7z M380,148.2c-13.2,34.6-30,56.9-41.5,64.2c-11.5,7.3-18.8,2.6-18.8,2.6s18.8-3.6,35.9-35.4
		c19.8-36.5,40.8-99,47.6-111.1c5.6-10.1,7.3-5.2,7.3-5.2C416.5,67,396.7,104.7,380,148.2z"/>
	<path class="st0" d="M412.3,156.8c-2.8,13.4,4.5,18.6,12.2,15.5c12.8-5,25-33.2,34-33c-8.9,8.2-9.5,10.8-15.6,18.6
		c-8,10.2-16.3,19.1-26.2,18.1c-13-1.4-14.6-17.7-11.3-25.3c3.5-8,10.4-17,21.4-17.7c9-0.5,12.5,8,3.8,15.3
		c-5.2,4.3-12.8,6.4-17.9,7.3C412.7,155.7,412.3,156.4,412.3,156.8z M419.8,151.7c14.1-4.7,16.5-15.3,9.2-13.5
		c0,0-11.5,1.4-15.8,15.3C414.9,153.1,417.4,152.6,419.8,151.7z"/>
	<path class="st0" d="M512.8,156.8c-2.8,13.4,4.5,18.6,12.2,15.5c12.8-5,25-33.2,34-33c-8.9,8.2-9.5,10.8-15.6,18.6
		c-8,10.2-16.3,19.1-26.2,18.1c-13-1.4-14.6-17.7-11.3-25.3c3.5-8,10.4-17,21.4-17.7c9-0.5,12.5,8,3.8,15.3
		c-5.2,4.3-12.8,6.4-17.9,7.3C513.2,155.7,512.8,156.4,512.8,156.8z M520.3,151.7c14.1-4.7,16.5-15.3,9.2-13.5
		c0,0-11.5,1.4-15.8,15.3C515.5,153.1,517.9,152.6,520.3,151.7z"/>
	<path class="st0" d="M560.8,140.6c-0.7,2.4-0.7,6.1,1.6,9.9c3.1,5.4,6.4,9.9,7.8,14.1c17.4-8.5,21.5-13.5,30.4-25.2
		c-3.8,11.8-16,20.3-29.9,26.9c2.6,8.2,2.3,14.8-3,22.9c-8.9,14.1-27.8,18.6-33.9,11.1c-8.3-10.4,4.9-21.7,24.1-30.4
		c2.8-1.2,5-2.4,7.3-3.5c-0.5-3.3-1.9-6.6-4.2-10.2c-8.3-13-6.9-14.6-6.8-17.5c0.3-5.6,6.9-11.3,6.9-11.3c3.8-2.8,4.9,2.8,4,6.1
		C563.4,135.7,561.5,138.4,560.8,140.6z M563,169.3c-16.1,6.9-30.4,16.1-29.2,25c0.9,6.1,6.1,8,12.5,4.3
		c6.6-3.6,20.7-15.1,19.3-30.2C564.8,168.7,563.9,168.9,563,169.3z"/>
	<path class="st0" d="M530.7,248.6c-1.6-22.9,40.5-60.6,47.2-66.7c2.6-2.4,4.9-4.3,6.4-5.4c3-9.9,5-17.4,5.9-19.6
		c5.6-16.1,9-18.4,11.1-17.5c3,1.4,2.8,4.9,1,10.2c5.6-6.8,12.8-13.4,22.6-13.5c12-0.3,15.5,11.3,11.5,24.7
		c9.2-3.1,18.2-8.3,26.4-21c-4.3,13.7-15.1,18.9-26.9,22.7c-1.4,4-3.6,8.5-6.6,12.5c-12.7,18.1-29,15.8-31.1,9.9
		c-1.7-5,1.7-9.5,6.9-13c7.5-4.9,15.1-6.6,22.7-8.7c4.2-10.8,5-23.6-2.6-24.3c-10.1-1-18.8,8-24.8,16.1c-2.8,7.1-6.9,16.5-10.2,27.4
		c-6.1,20.3-14.4,44.8-25,61.1C551.4,264.9,531.8,264.4,530.7,248.6z M572.7,190.3c-14.4,13.4-24.3,24.7-33,39.1
		c-9.4,15.6-7.8,28.6,0.9,28c17.9-1.7,34-48.3,42.9-77.6C581.3,182.1,578,185.6,572.7,190.3z M606.9,173.1c-6.3,4-7.6,9.2-6.3,11.5
		c3.6,5.9,14.8-1.2,22.2-12c1.6-2.1,3-4.5,4.2-7.3C619.8,167.3,612.9,169.4,606.9,173.1z"/>
	<path class="st0" d="M657.1,156.8c-2.8,13.4,4.5,18.6,12.2,15.5c12.8-5,25-33.2,34-33c-8.9,8.2-9.5,10.8-15.6,18.6
		c-8,10.2-16.3,19.1-26.2,18.1c-13-1.4-14.6-17.7-11.3-25.3c3.5-8,10.4-17,21.4-17.7c9-0.5,12.5,8,3.8,15.3
		c-5.2,4.3-12.8,6.4-17.9,7.3C657.5,155.7,657.1,156.4,657.1,156.8z M664.6,151.7c14.1-4.7,16.5-15.3,9.2-13.5
		c0,0-11.5,1.4-15.8,15.3C659.7,153.1,662.2,152.6,664.6,151.7z"/>
	<path class="st0" d="M707.5,140.8c11.3,7.1,15.1,14.9,5.4,29.2c-10.2,14.9-11.8,38.9,2.4,27.4c8.3-6.8,14.6-18.4,25-35.9
		c10.1-17,12.5-19.8,17-22.2c-1.4,2.6-9.2,13.2-14.4,22.6c-11.6,21.2-23.8,41.5-34.4,40.6c-10.6-0.9-14.9-15.6-8-29.5
		c7.5-15.3,16-21.4,2.4-30c-17.2-11.1-8.2-20-4-22.4c5-3,12.5-1.7,12.5,5.7c0,5.6-3.8,10.2-6.8,12.8
		C705.6,139.6,706.4,140.1,707.5,140.8z M702.4,122.2c-4.9,2.1-7.5,8.9,1.2,16c3-3.5,5-7.1,5.6-9.2
		C710.4,124.3,706.4,120.5,702.4,122.2z"/>
	<path class="st0" d="M779.7,180.4c9.9-14.6,22-39.4,30.6-41.3c-8.7,9.9-10.9,14.4-16,22.4c-9.5,15.5-14.8,25.9-20.3,25
		c-6.3-1-12-9.2-5.6-26.7c0.2-0.7,0.5-1.4,0.7-2.1c-7.1,8.7-13.9,17-20.5,9.5c-6.8-7.6-0.2-21.4,6.1-27.1c4.5-4.2,13-7.8,22-5.6
		c10.1,2.6,2.4,2.6,2.4,2.6s-12.8-2.8-22,12c-6.8,10.9-3,20.8,2.4,15.8c3-2.8,9.4-10.9,14.4-17.4c2.6-4.2,5.4-9.2,8-9.2
		c2.6-0.2,9,0.7,3.3,8C769.5,166.8,769.1,195.8,779.7,180.4z"/>
	<path class="st0" d="M815.1,146.9c0.2,3.6-4,12-4.7,13.5c0.5,0,1.9-2.4,5.7-7.1c4.9-6.1,9.9-10.1,13.7-9.5
		c5.6,1.9,5.9,6.4,3.6,11.8c-2.3,5.4-4.7,15.3,0.5,8.9c4.2-5,21.9-28.3,29.2-31.8c5.9-2.8,12.7,1.6,9,12.8
		c-1.2,4.2-5.2,11.6-12,21.7c-10.1,14.9-10.1,30,0.9,21.2c16.8-13.4,23.8-49.7,39.8-49.1c-13,5.9-18.1,22.7-23.8,32.5
		c-10.8,18.6-19.8,24.5-26.2,20c-6.6-4.5-8.2-12.3-0.3-25c10.8-17.4,19.6-38.4,11.6-31.6c-11.3,9.5-24.1,28.1-27.4,31.6
		c-3,3.1-6.3,3.1-8.5,0.9c-1.9-2.1-3-6.4,1.2-16.8c3.8-9.4-1.2-4.9-5.4-1.2c-7.5,6.8-17.2,25.9-19.4,29.5c-3.8,6.1-9.2-1.6-6.9-7.8
		c0.3-1,12.7-28.3,11.3-31.4C808.7,138.7,814.8,138.4,815.1,146.9z"/>
	<path class="st0" d="M900.4,129.7c7.8-0.2,14.1,4.5,14.1,16.8c0,3.6-0.9,8.7-2.3,13.5c2.4-1,5-2.6,7.6-4.7
		c10.4-8.3,12.8-16.7,18.2-16.1c-5.7,4.3-10.6,14.4-20.3,20.3c-1.9,1.2-4,2.1-6.3,2.8c-3.8,11.6-11.3,23.3-19.8,22.9
		c-12.2-0.3-13-16.3-7.3-27.6c0.7-1.4,1.4-2.8,2.1-4C879.4,140.3,890.8,129.8,900.4,129.7z M892.2,160.2c-1.7,3.1-3.1,6.3-4,9.4
		c-2.3,8.5,2.1,17.7,9.5,11.1c3.6-3.3,7.8-10.1,10.8-17.7C902.8,164,896.9,163.5,892.2,160.2z M897.8,139.2c4.7-0.7,5.2,3.8,4.9,6.4
		c0,0.2-5,5.6-9.2,12.5c4,3.1,9.7,4.3,16,2.8c3.6-10.4,4.7-21.7-1.4-26.7c-8.2-6.9-17.9,1-19.6,6.9c-0.9,3.3-0.9,6.6,0,9.4
		C892.7,143.4,896.4,139.4,897.8,139.2z"/>
	<path class="st0" d="M938.9,140.6c-0.7,2.4-0.7,6.1,1.6,9.9c3.1,5.4,6.4,9.9,7.8,14.1c17.4-8.5,21.5-13.5,30.4-25.2
		c-3.8,11.8-16,20.3-29.9,26.9c2.6,8.2,2.3,14.8-3,22.9c-8.9,14.1-27.8,18.6-33.9,11.1c-8.3-10.4,4.9-21.7,24.1-30.4
		c2.8-1.2,5-2.4,7.3-3.5c-0.5-3.3-1.9-6.6-4.2-10.2c-8.3-13-6.9-14.6-6.8-17.5c0.3-5.6,6.9-11.3,6.9-11.3c3.8-2.8,4.9,2.8,4,6.1
		C941.5,135.7,939.6,138.4,938.9,140.6z M941.2,169.3c-16.1,6.9-30.4,16.1-29.2,25c0.9,6.1,6.1,8,12.5,4.3
		c6.6-3.6,20.7-15.1,19.3-30.2C942.9,168.7,942,168.9,941.2,169.3z"/>
</g>
<path class="st0" d="M995.3,203.1c-2.2,0.5-3.2-2.6-3.2-3.8c0.4-3.8,4.6-8.5,7.9-6.2C1004,196,997.9,202.3,995.3,203.1z
	 M1025.4,97.8c2.7-6.7,3.2-8.3,4.8-8.8c3.8-0.9,6.7,1.6,5.5,4c-6.9,15.2-11.8,30.6-16,42.7c-5.3,15.1-9.3,29.8-13.1,41.1
	c-1.5,4.3-8.2,4.3-5.5-3.8C1009.6,146.9,1018.5,114.4,1025.4,97.8z"/>
<path class="st0" d="M278.8,88.9c2.2-0.5,3.2,2.6,3.2,3.8c-0.4,3.8-4.6,8.5-7.9,6.2C270.2,96.1,276.2,89.7,278.8,88.9z M248.8,194.2
	c-2.7,6.7-3.2,8.3-4.8,8.8c-3.8,0.9-6.7-1.6-5.5-4c6.9-15.2,11.8-30.6,16-42.7c5.3-15.1,9.3-29.8,13.1-41.1c1.5-4.3,8.2-4.3,5.5,3.8
	C264.5,145.1,255.6,177.6,248.8,194.2z"/>
</svg>
