<?xml version="1.0" encoding="utf-8"?>
<!-- Generator: Adobe Illustrator 25.4.1, SVG Export Plug-In . SVG Version: 6.00 Build 0)  -->
<svg version="1.1" id="ok" xmlns="http://www.w3.org/2000/svg" xmlns:xlink="http://www.w3.org/1999/xlink" x="0px" y="0px"
	 viewBox="0 0 214 248" style="enable-background:new 0 0 214 248;" xml:space="preserve">
<style type="text/css">
	.st0{fill:#49707F;}
	.st1{fill:none;}
</style>
<path class="st0" d="M34.6,89.2c0-2.6,0.7-4.5,2.8-6.1c5.3-4.2,10.5-8.6,15.8-12.8c1.6-1.2,2.1-2.5,2.1-4.5
	c-0.1-8.5-0.1-16.9,0-25.4c0-7.3,4.3-11.5,11.5-11.5c8.9,0,17.7-0.1,26.6,0.1c1.6,0,3.2,0.8,3.7,2.4c0.4,1.1,0,2.4-0.9,3.2
	c-1.7,1.5-4.6,1.1-6.7,1.1c-2.4,0-4.9,0-7.3,0c-4.8,0-9.6,0-14.3,0c-4.5,0-5.6,1-5.6,5.5c0,19.2,0,38.4,0,57.6c0,1.8,0.5,3,2,4.2
	c14.5,10.9,29,22,43.6,33.1c6.7-5.1,13.4-10.1,20-15.2c7.9-6,15.8-12,23.7-18.1c1-0.8,1.9-2.5,1.9-3.8c0.1-19.3,0.1-38.6,0.1-57.9
	c0-4.3-1.1-5.4-5.4-5.4c-4.7,0-9.4,0-14.1,0c-2.3,0-4.5,0-6.8,0c-1.8,0-3.7,0.2-5.5-0.1c-1.1-0.1-2.3-0.6-2.9-1.5
	c-1-1.5-0.5-3.7,1-4.6c0.8-0.5,1.9-0.6,2.8-0.6c8.9-0.1,17.8,0,26.7,0c6.8,0,11,4.2,11,11.1c0.1,8.8,0,17.5,0.1,26.3
	c0,1.2,0.8,2.8,1.7,3.6c5.4,4.6,11,8.9,16.3,13.6c1.3,1.1,2.3,3.3,2.3,4.9c0.1,26.5,0.1,53,0.1,79.4c0,7.1-4.3,11.4-11.4,11.4
	c-41.1,0-82.3,0-123.4,0c-7.1,0-11.6-4.4-11.6-11.6C34.7,157.1,34.8,100.2,34.6,89.2z M168.6,172.3c-13.9-13.9-27.8-27.8-41.8-41.8
	c-4.8,3.7-9.9,7.5-15,11.4c-3.4,2.6-4.3,2.6-7.7,0c-5.1-3.9-10.3-7.8-14.7-11.2c-14.1,14.1-28,27.9-41.8,41.6
	C87.7,172.3,128.2,172.3,168.6,172.3z M42,165.9c13.4-13.4,26.9-26.8,40.5-40.4C69.2,115.3,55.7,105.1,42,94.7 M133.5,125.4
	c13.6,13.6,27,27.1,40.2,40.4c0-23.3,0-47,0-71C160.1,105.2,146.7,115.4,133.5,125.4z M160.7,95.9c4.1-3.1,7.7-5.9,11.6-8.8
	c-3.9-3.2-7.6-6.2-11.6-9.5 M55.2,77.7c-4.1,3.3-7.7,6.3-11.6,9.4c3.9,2.9,7.6,5.7,11.6,8.7C55.2,89.6,55.2,84,55.2,77.7z"/>
<path class="st0" d="M136.3,79.3c0,15.5-12.8,28.3-28.4,28.3c-15.5,0-28.3-13-28.2-28.5c0.1-15.3,13-28.1,28.3-28.2
	C123.4,50.9,136.3,63.8,136.3,79.3z M129.2,79.3c0-11.7-9.4-21.3-21.1-21.3c-11.7-0.1-21.5,9.7-21.5,21.3s9.5,21.2,21.2,21.2
	C119.7,100.6,129.2,91.2,129.2,79.3z"/>
<path class="st0" d="M106,80.4c3.1-3.3,5.6-5.9,8.1-8.5c1.7-1.8,3.6-2.2,5.4-0.3c1.6,1.7,1.2,3.6-0.4,5.2c-3.3,3.3-6.7,6.7-10,10
	c-1.9,1.9-3.8,1.9-5.7,0c-1.8-1.8-3.6-3.6-5.4-5.4c-1.6-1.6-2-3.5-0.3-5.2c1.8-1.9,3.8-1.3,5.4,0.4C104.1,77.6,104.9,78.9,106,80.4z
	"/>
<circle class="st0" cx="108.1" cy="32.2" r="3.5"/>
<g>
	<path class="st0" d="M80.7,216.1v0.6c-1.6-0.8-3-1.8-4-2.9c-1.5-1.5-2.7-3.3-3.5-5.5c-0.8-2.1-1.2-4.3-1.2-6.5c0-3.3,0.8-6.3,2.4-9
		s3.7-4.7,6.4-5.8v0.7c-1.3,0.7-2.4,1.7-3.2,3s-1.5,2.8-1.9,4.8c-0.4,1.9-0.6,3.9-0.6,6c0,2.3,0.2,4.3,0.5,6.2
		c0.3,1.5,0.6,2.6,1,3.5s0.9,1.7,1.6,2.6C78.7,214.6,79.6,215.4,80.7,216.1z"/>
	<path class="st0" d="M95.2,204.2c-0.4,1.9-1.2,3.4-2.3,4.4s-2.4,1.6-3.8,1.6c-1.7,0-3.1-0.7-4.4-2.1c-1.2-1.4-1.9-3.3-1.9-5.7
		c0-2.3,0.7-4.2,2.1-5.6c1.4-1.4,3-2.2,4.9-2.2c1.4,0,2.6,0.4,3.5,1.1c0.9,0.8,1.4,1.5,1.4,2.4c0,0.4-0.1,0.7-0.4,1
		c-0.3,0.2-0.6,0.4-1.1,0.4c-0.6,0-1.1-0.2-1.4-0.6c-0.2-0.2-0.3-0.7-0.3-1.3c-0.1-0.6-0.3-1.1-0.6-1.4c-0.4-0.3-0.9-0.5-1.5-0.5
		c-1.1,0-1.9,0.4-2.6,1.2c-0.9,1-1.3,2.4-1.3,4.1c0,1.7,0.4,3.3,1.3,4.6s2,2,3.5,2c1,0,2-0.4,2.8-1.1c0.6-0.5,1.2-1.4,1.7-2.7
		L95.2,204.2z"/>
	<path class="st0" d="M102.8,187v19.4c0,0.9,0.1,1.5,0.2,1.8s0.3,0.5,0.6,0.7s0.8,0.2,1.5,0.2v0.6h-7.2v-0.6c0.7,0,1.1-0.1,1.4-0.2
		c0.2-0.1,0.4-0.4,0.6-0.7c0.1-0.3,0.2-0.9,0.2-1.8v-13.3c0-1.7,0-2.7-0.1-3c-0.1-0.4-0.2-0.6-0.4-0.8c-0.2-0.1-0.4-0.2-0.6-0.2
		c-0.3,0-0.6,0.1-1.1,0.3l-0.3-0.6l4.4-1.8H102.8L102.8,187z"/>
	<path class="st0" d="M112.3,194.7v11.7c0,0.9,0.1,1.5,0.2,1.8s0.3,0.5,0.6,0.7s0.7,0.2,1.4,0.2v0.6h-7.1v-0.6
		c0.7,0,1.2-0.1,1.4-0.2c0.2-0.1,0.4-0.4,0.6-0.7c0.1-0.3,0.2-0.9,0.2-1.8v-5.6c0-1.6,0-2.6-0.1-3.1c-0.1-0.3-0.2-0.6-0.4-0.7
		c-0.2-0.1-0.4-0.2-0.7-0.2s-0.6,0.1-1.1,0.2l-0.2-0.6l4.4-1.8h0.8L112.3,194.7L112.3,194.7z M110.9,187c0.4,0,0.8,0.2,1.1,0.5
		s0.5,0.7,0.5,1.1c0,0.4-0.2,0.8-0.5,1.1s-0.7,0.5-1.1,0.5s-0.8-0.2-1.1-0.5s-0.5-0.7-0.5-1.1c0-0.4,0.2-0.8,0.5-1.1
		S110.5,187,110.9,187z"/>
	<path class="st0" d="M129.1,204.2c-0.4,1.9-1.2,3.4-2.3,4.4s-2.4,1.6-3.8,1.6c-1.7,0-3.1-0.7-4.4-2.1c-1.3-1.4-1.9-3.3-1.9-5.7
		c0-2.3,0.7-4.2,2.1-5.6c1.4-1.4,3-2.2,4.9-2.2c1.4,0,2.6,0.4,3.5,1.1c0.9,0.8,1.4,1.5,1.4,2.4c0,0.4-0.1,0.7-0.4,1
		c-0.3,0.2-0.6,0.4-1.1,0.4c-0.6,0-1.1-0.2-1.4-0.6c-0.2-0.2-0.3-0.7-0.3-1.3s-0.3-1.1-0.6-1.4c-0.4-0.3-0.9-0.5-1.5-0.5
		c-1.1,0-1.9,0.4-2.6,1.2c-0.9,1-1.3,2.4-1.3,4.1c0,1.7,0.4,3.3,1.3,4.6s2,2,3.5,2c1,0,2-0.4,2.8-1.1c0.6-0.5,1.2-1.4,1.7-2.7
		L129.1,204.2z"/>
	<path class="st0" d="M130.1,187.7V187c1.6,0.8,3,1.8,4,2.8c1.5,1.5,2.7,3.4,3.5,5.5s1.2,4.3,1.2,6.5c0,3.3-0.8,6.3-2.4,9
		c-1.6,2.7-3.7,4.7-6.4,5.8V216c1.3-0.7,2.4-1.7,3.2-3c0.8-1.2,1.5-2.8,1.9-4.8c0.4-1.9,0.6-3.9,0.6-6c0-2.3-0.2-4.3-0.5-6.2
		c-0.3-1.5-0.6-2.6-1-3.5s-0.9-1.7-1.6-2.6C132,189.2,131.2,188.4,130.1,187.7z"/>
</g>
<rect x="5.6" y="17.6" class="st1" width="203.9" height="203.9"/>
</svg>
