<?xml version="1.0" encoding="utf-8"?>
<!-- Generator: Adobe Illustrator 25.4.1, SVG Export Plug-In . SVG Version: 6.00 Build 0)  -->
<svg version="1.1" id="ok" xmlns="http://www.w3.org/2000/svg" xmlns:xlink="http://www.w3.org/1999/xlink" x="0px" y="0px"
	 viewBox="0 0 1242 327" style="enable-background:new 0 0 1242 327;" xml:space="preserve">
<style type="text/css">
	.st0{fill:#517C5A;}
</style>
<g>
	<path class="st0" d="M315,77.3c-13.4,1.9-34,9-38.4,27.5c2.2-17.7,21.3-25.8,35.3-28.1c3.3-0.6,6.8-0.9,10.4-1.2
		c10.4-11.7,22.9-16.7,29.1-17.9c19.1-4.1,27.8,6,17.1,13.8c-7.2,5.3-25.1,4.4-41.4,5.1c-9.7,11-13.6,22.2-13.8,33.9
		c-0.2,12,5,20.3,19.1,10.7c17.2-11.6,27.1-38,29.3-41.3c1.4-2,4.8,1.3,4,3.1c-1.7,3.3-6.5,13.1-9.3,22.2c-8,27.2,7.8,39.6,31,33.5
		c8-2.1,18.1-9.9,18.1-9.9c-14.9,14.6-42.9,18.4-52.5-0.2c-4.5-8.9-3.8-19.6,0.4-30.1c-4.8,11.2-16.1,22.7-24.7,26.4
		c-12.8,5.5-17.7-0.8-19.5-9.4c-0.8-3.6-2.8-12.2,5.6-29.6c1.9-3.4,4.2-6.4,6.4-9.2C319.1,76.7,317,77,315,77.3z M331.2,72.2
		c-1,0.9-1.9,1.9-2.7,2.7c14.3-0.7,28.4-0.2,34.2-2.3c14.5-5.5,9.1-13.6-0.2-14.5C352.3,57.2,339,64.7,331.2,72.2z"/>
	<path class="st0" d="M376.3,100.7c-0.4,1.3-0.4,3.2,0.9,5.3c1.7,2.8,3.4,5.3,4.2,7.5c9.3-4.5,11.4-7.2,16.2-13.3
		c-2,6.2-8.5,10.8-15.9,14.3c1.4,4.3,1.2,7.8-1.6,12.2c-4.7,7.5-14.7,9.8-17.9,5.9c-4.4-5.6,2.6-11.5,12.8-16.2
		c1.5-0.7,2.6-1.3,3.9-1.9c-0.3-1.8-1-3.5-2.2-5.5c-4.4-6.9-3.7-7.7-3.6-9.4c0.2-2.9,3.7-6,3.7-6c2-1.5,2.6,1.5,2.1,3.2
		C377.6,98,376.6,99.4,376.3,100.7z M377.5,115.9c-8.6,3.7-16.2,8.6-15.5,13.2c0.5,3.2,3.2,4.3,6.6,2.3c3.5-1.9,11-8,10.2-16.1
		C378.4,115.6,377.9,115.7,377.5,115.9z"/>
	<path class="st0" d="M404.5,110.9c-4.3,5.6-7.6,9.2-11.1,8c-5.7-1.9-0.9-16.2,3.1-18.8c1.9-0.9,2.7,0.1,2.5,1.6
		c-0.4,2.3-2.8,5.7-3.9,9.7c-0.8,3-1.7,6.5,0.7,6.2c2.8-0.3,8.1-8.4,11.8-12.9c3-3.8,4-4.9,5.9-4.9
		C410.6,101.3,408.3,105.8,404.5,110.9z M400,96.2c-1.1-0.4-1.2-1-0.4-2.6c0.9-1.8,0.4-2.1,1.9-2.9c1-0.6,4.3-0.2,3.2,2.1
		C403.5,95.3,401.4,96.6,400,96.2z"/>
	<path class="st0" d="M413.8,100.7c-0.4,1.3-0.4,3.2,0.9,5.3c1.7,2.8,3.4,5.3,4.2,7.5c9.3-4.5,11.4-7.2,16.2-13.3
		c-2,6.2-8.5,10.8-15.9,14.3c1.4,4.3,1.2,7.8-1.6,12.2c-4.7,7.5-14.7,9.8-17.9,5.9c-4.4-5.6,2.6-11.5,12.8-16.2
		c1.5-0.7,2.6-1.3,3.9-1.9c-0.3-1.8-1-3.5-2.2-5.5c-4.4-6.9-3.7-7.7-3.6-9.4c0.2-2.9,3.7-6,3.7-6c2-1.5,2.6,1.5,2.1,3.2
		C415.1,98,414.1,99.4,413.8,100.7z M415,115.9c-8.6,3.7-16.2,8.6-15.5,13.2c0.5,3.2,3.2,4.3,6.6,2.3c3.5-1.9,11-8,10.2-16.1
		C415.9,115.6,415.4,115.7,415,115.9z"/>
	<path class="st0" d="M413,64.3c-2.3,1.6-4.3,4.6-1.8,7.1c4.4,4.4,17.1,4,32.2,2.4c3.9-7.2,6-9.2,6-9.2c0.9-1.5,4,1.9,3,3.4
		c-1,1.7-2,3.3-3,5.1c21-2.5,44.8-6.3,56.6-2.7c4.4,1.4,6,2.9,5.6,5.2c-0.2,1.2-1.5,1.9-2,0.8c-0.5-1,1.9-3.4-4.2-5.2
		c-12.2-3.4-35.7,0.6-56.7,3c-6,10.4-12.5,23.6-17.7,42.2c-3.8,13.3-0.4,19.5,5.7,11.8c6.8-8.6,13.3-27,20.6-28.1
		c-5.8,5.2-7.8,9.1-13.2,19.2c-7.7,14.4-12,15.2-15,12.8c-3.9-3.1-5.9-11.1,4.2-36c3.9-9.4,7.1-16.3,9.5-21c-15.2,1.6-28,1.9-32.6-3
		c-2.3-2.5-1.4-6.8,1.7-8.9C412.9,62.2,415.3,62.7,413,64.3z"/>
	<path class="st0" d="M453.2,109.2c-1.5,7.1,2.4,9.8,6.4,8.2c6.8-2.6,13.2-17.6,18-17.5c-4.7,4.3-5.1,5.7-8.3,9.8
		c-4.3,5.5-8.7,10.1-13.9,9.5c-6.9-0.8-7.7-9.4-6-13.4c1.9-4.3,5.6-9.1,11.3-9.4c4.8-0.3,6.6,4.3,2,8.1c-2.7,2.3-6.8,3.4-9.4,3.9
		C453.4,108.7,453.2,109.1,453.2,109.2z M457.2,106.5c7.5-2.5,8.8-8.1,4.9-7.2c0,0-6,0.8-8.4,8.1C454.6,107.3,455.8,107,457.2,106.5
		z"/>
	<path class="st0" d="M481.3,102.8c0.1,3-0.9,4.5-2.6,8c3.9-5.6,12.8-14.4,18.9-16.1c3.5-0.9,5.1,2.3,4.8,4.7
		c-0.5,3.6-10.7,17.6-12,22.8c-1.9,7.7,2.9,5.2,4.4,4.1c4.4-3.3,12.8-18.2,16.5-22.6c4.6-5.4,6.3-3.6,6.3-3.6
		c-7.3,1.8-16.2,25.2-24.3,28.4c-2.4,1-6,0.4-7.2-3.5c-2.1-7.7,11.9-25.6,12.4-28.2c0.5-3-8.5,2.4-14.7,9.5
		c-4.3,4.9-6.4,8.6-8.3,11.4c-0.4,0.7-2.5,0.7-3.4-0.9c-0.4-0.7-1.5-2.1,1.9-9.2c3.8-7.7,2.2-7.4,2.2-7.4
		C477.2,99.3,481.3,99.9,481.3,102.8z"/>
	<path class="st0" d="M514.7,107.1c-2.4,3.2-4.2,7.2-3,11.8c0.5,2.2,3.9,3.8,7.8,1.2c7.7-5,14.5-17.2,20.5-20.2
		c-4.3,3.5-8.8,10.9-15.4,17.3c-6,5.9-10.6,7.4-14.4,4.3c-4.4-3.7-2.9-12.8,0.8-17.2c4.3-5.3,9.4-8,14.2-6.6
		c5.1,1.4,3.2,5.6,1.8,7.7c-1.5,2.1-3.6,4.1-5.6,2.4s0.8-3.4,1.3-3.2c0.6,0.2,2.4,0,3.7-1.5c1.8-1.9,0.3-3.5-1.9-3.1
		C522.9,100.1,519,101.3,514.7,107.1z"/>
	<path class="st0" d="M545.9,110.9c-4.3,5.6-7.6,9.2-11.1,8c-5.7-1.9-0.9-16.2,3.1-18.8c1.9-0.9,2.7,0.1,2.5,1.6
		c-0.4,2.3-2.8,5.7-3.9,9.7c-0.8,3-1.7,6.5,0.7,6.2c2.8-0.3,8.1-8.4,11.8-12.9c3-3.8,4-4.9,5.9-4.9
		C552.1,101.3,549.8,105.8,545.9,110.9z M541.5,96.2c-1.1-0.4-1.2-1-0.4-2.6c0.9-1.8,0.4-2.1,1.9-2.9c1-0.6,4.3-0.2,3.2,2.1
		C545,95.3,542.8,96.6,541.5,96.2z"/>
	<path class="st0" d="M565.6,121.7c5.3-7.7,11.7-20.9,16.2-21.9c-4.6,5.3-5.8,7.7-8.5,11.9c-5.1,8.2-7.8,13.7-10.8,13.2
		c-3.3-0.6-6.3-4.9-2.9-14.2c0.1-0.4,0.3-0.8,0.4-1.1c-3.8,4.6-7.4,9.1-10.9,5.1c-3.6-4.1-0.1-11.3,3.2-14.4
		c2.4-2.2,6.9-4.2,11.7-2.9c5.4,1.4,1.3,1.4,1.3,1.4s-6.8-1.5-11.7,6.3c-3.6,5.8-1.6,11.1,1.3,8.4c1.6-1.5,5-5.8,7.7-9.3
		c1.4-2.2,2.8-4.9,4.3-4.9c1.4-0.1,4.8,0.4,1.8,4.3C560.1,114.6,559.9,130,565.6,121.7z"/>
	<path class="st0" d="M698.6,65.9c-6.7,11.1-28.1,8.3-41.7,8.3c-1.8,1.9-3.4,4.1-5.1,6.4c-13.5,19.8-15.5,43.5-5.5,51.5
		c8.9,7,23,3.7,35.6-13.3c9.9-13.4,16.5-18.1,19.6-18.9c-7,5.1-12.3,11.1-19.3,20.7c-11.1,15.4-27.4,20.5-38.3,12.7
		c-16.5-15-5.7-43.9,6.8-59c-24.3,1.1-36.3,12.7-42.9,21.3c6.8-12.9,22.9-21.3,43.9-22.7c9.5-10.4,22.1-16.8,34.7-16.9
		C694,55.9,702.8,59.2,698.6,65.9z M686.9,58c-7.4,0.3-18.2,4.2-28.8,15c9.4,0.2,22.2,1.3,30.4-1.4C700.4,67.8,702.2,57.3,686.9,58z
		"/>
	<path class="st0" d="M701,94.8c4.2-0.1,7.5,2.4,7.5,9c0,1.9-0.5,4.6-1.2,7.2c1.3-0.6,2.6-1.4,4.1-2.5c5.6-4.4,6.8-8.9,9.6-8.6
		c-3,2.3-5.6,7.7-10.8,10.8c-1,0.7-2.1,1.1-3.3,1.5c-2,6.1-6,12.4-10.5,12.2c-6.4-0.2-6.9-8.7-3.9-14.6c0.4-0.8,0.8-1.5,1.1-2.1
		C689.9,100.5,695.9,94.9,701,94.8z M696.7,111.1c-0.9,1.7-1.7,3.3-2.1,5c-1.2,4.5,1.1,9.4,5.1,5.9c1.9-1.8,4.2-5.4,5.7-9.4
		C702.3,113,699.1,112.9,696.7,111.1z M699.6,99.9c2.5-0.4,2.7,2,2.6,3.4c0,0.1-2.6,2.9-4.9,6.6c2.1,1.7,5.2,2.3,8.5,1.5
		c1.9-5.6,2.5-11.5-0.8-14.2c-4.3-3.7-9.4,0.6-10.4,3.7c-0.5,1.8-0.5,3.5,0,5C697,102.1,698.9,100,699.6,99.9z"/>
	<path class="st0" d="M724.2,102.8c0.1,3-0.9,4.5-2.6,8c3.9-5.6,12.8-14.4,18.9-16.1c3.5-0.9,5.1,2.3,4.8,4.7
		c-0.5,3.6-10.7,17.6-12,22.8c-1.9,7.7,2.9,5.2,4.4,4.1c4.4-3.3,12.8-18.2,16.5-22.6c4.6-5.4,6.3-3.6,6.3-3.6
		c-7.3,1.8-16.2,25.2-24.3,28.4c-2.4,1-6,0.4-7.2-3.5c-2.1-7.7,11.9-25.6,12.4-28.2c0.5-3-8.5,2.4-14.7,9.5
		c-4.3,4.9-6.4,8.6-8.3,11.4c-0.4,0.7-2.5,0.7-3.4-0.9c-0.4-0.7-1.5-2.1,1.9-9.2c3.8-7.7,2.2-7.4,2.2-7.4
		C720,99.3,724.1,99.9,724.2,102.8z"/>
	<path class="st0" d="M775.4,107.3c-4.7,4.5-13.7,5.6-16.7,4.5c6.3,4.3,5.4,26.4-3.7,25.5c-6-0.6-5.9-9.9-3-21.3
		c3-12.1,11.8-33.9,23.3-48.7c4.1-5.3,12.3-10.8,14.6-4.7c2.9,7.6-23.5,34.6-28,38.2c-0.7,1.6-1.3,3-1.9,4.6c-0.8,1.9-1.5,3.8-2,5.6
		c12.9,1.3,17.4-4.4,21.9-10.9C778.9,103.2,777.8,104.9,775.4,107.3z M753.8,131.5c-0.1,4.9,2,6.1,4.4,3.2
		c3.9-4.8,4.8-16.7-0.6-22.4C755.1,120.7,753.9,127.4,753.8,131.5z M788.9,64.3c0-2.8-4.7-1.4-8.7,3.8c-5.2,6.6-11.7,18-17,30
		C769.3,92.9,788.9,70,788.9,64.3z"/>
	<path class="st0" d="M787.4,110.9c-4.3,5.6-7.6,9.2-11.1,8c-5.7-1.9-0.9-16.2,3.1-18.8c1.9-0.9,2.7,0.1,2.5,1.6
		c-0.4,2.3-2.8,5.7-3.9,9.7c-0.8,3-1.7,6.5,0.7,6.2c2.8-0.3,8.1-8.4,11.8-12.9c3-3.8,4-4.9,5.9-4.9
		C793.7,101.3,791.3,105.8,787.4,110.9z M783.1,96.2c-1.1-0.4-1.2-1-0.4-2.6c0.9-1.8,0.4-2.1,1.9-2.9c1-0.6,4.3-0.2,3.2,2.1
		C786.6,95.3,784.3,96.6,783.1,96.2z"/>
	<path class="st0" d="M798.1,100.8c6,3.8,8,7.9,2.8,15.5c-5.5,7.9-6.2,20.6,1.3,14.5c4.4-3.6,7.7-9.7,13.2-19.1
		c5.4-9.1,6.6-10.5,9.1-11.8c-0.8,1.4-4.9,7-7.7,12c-6.1,11.2-12.7,22-18.2,21.5c-5.6-0.5-7.9-8.3-4.3-15.7c4-8.1,8.5-11.3,1.3-16
		c-9.2-5.9-4.3-10.6-2.1-11.9c2.6-1.6,6.6-0.9,6.6,3c0,2.9-2,5.5-3.6,6.8C797.1,100.1,797.6,100.4,798.1,100.8z M795.4,90.9
		c-2.6,1.1-4,4.7,0.7,8.5c1.6-1.9,2.6-3.8,2.9-4.9C799.6,92,797.6,90,795.4,90.9z"/>
	<path class="st0" d="M828.1,104c0.1,1.9-2.1,6.3-2.5,7.2c0.3,0,1-1.3,3-3.8c2.6-3.2,5.3-5.4,7.3-5.1c2.9,1,3.1,3.4,1.9,6.2
		c-1.2,2.8-2.5,8.1,0.3,4.7c2.2-2.6,11.6-15,15.5-16.8c3.1-1.5,6.7,0.9,4.8,6.8c-0.7,2.2-2.7,6.1-6.3,11.5c-5.4,7.9-5.4,16,0.5,11.2
		c9-7.1,12.7-26.4,21.1-26.1c-6.9,3.1-9.5,12.1-12.7,17.2c-5.7,9.8-10.5,13-13.9,10.6c-3.5-2.4-4.3-6.5-0.2-13.2
		c5.7-9.3,10.4-20.4,6.1-16.8c-6,5.1-12.8,14.9-14.5,16.8c-1.6,1.7-3.3,1.7-4.5,0.5c-1-1.1-1.6-3.4,0.7-9c2-5-0.7-2.6-2.8-0.7
		c-4,3.6-9.2,13.7-10.3,15.7c-2,3.2-4.9-0.9-3.7-4.2c0.2-0.6,6.7-15,6-16.7C824.7,99.6,828,99.4,828.1,104z"/>
	<path class="st0" d="M884.1,121.7c5.3-7.7,11.7-20.9,16.2-21.9c-4.6,5.3-5.8,7.7-8.5,11.9c-5.1,8.2-7.8,13.7-10.8,13.2
		c-3.3-0.6-6.3-4.9-2.9-14.2c0.1-0.4,0.3-0.8,0.4-1.1c-3.8,4.6-7.4,9.1-10.9,5.1c-3.6-4.1-0.1-11.3,3.2-14.4
		c2.4-2.2,6.9-4.2,11.7-2.9c5.4,1.4,1.3,1.4,1.3,1.4s-6.8-1.5-11.7,6.3c-3.6,5.8-1.6,11.1,1.3,8.4c1.6-1.5,5-5.8,7.7-9.3
		c1.4-2.2,2.8-4.9,4.3-4.9c1.4-0.1,4.8,0.4,1.8,4.3C878.7,114.6,878.5,130,884.1,121.7z"/>
	<path class="st0" d="M943.9,56.6c2.3,0.3,4.1,3.7,2.2,7.7c-2.3,5.7-23,28.2-26.6,29.5c-0.1,0-0.2,0.1-0.3,0.1
		c-2.3,5.5-3.7,10.6-5.1,14.8c-1.1,3.7-4.5,27.2-0.1,17.3c2.7-6.1,12.6-24.3,18-25.6c-7.9,7.9-13.7,20.2-15.6,23.7
		c-1.9,3.7-2.8,7.2-4.8,6.7c-3.6-0.8-4.8-11.7-1.7-24.1c0.4-1.5,0.9-3,1.4-4.7c-1.1,1.9-2.6,4.3-4.3,6.3c-4.1,5-8.2,9.8-11.7,5.6
		c-3.8-4.3,0.8-12.7,3.6-15c2.5-2.1,6.6-4.2,11.6-3.2c1.6,0.4,2.5,0.8,2.8,0.9c4.3-10.9,11.1-23.4,17-30.9c6-7.6,10.2-9.2,12.7-9.2
		L943.9,56.6L943.9,56.6z M900.2,103.7c-3.9,6.1-2.1,11.8,1,9.2c4.4-3.9,8.3-9.6,12.2-16c-0.4,0-0.8,0.1-0.8,0.1s-0.6-0.2-1.5-0.2
		C908.8,96.8,903.9,97.7,900.2,103.7z M940.2,62.6c-9.3,8.6-15.8,19.5-20.2,29.5c0.6-0.6,1.1-1.1,1.7-1.6
		c7.2-6.5,20.5-22.1,22.8-26.4c1.5-2.9,1.1-3.9,0.2-3.9C943.5,60.3,941.1,61.8,940.2,62.6z"/>
	<path class="st0" d="M943.6,121.7c5.3-7.7,11.7-20.9,16.2-21.9c-4.6,5.3-5.8,7.7-8.5,11.9c-5.1,8.2-7.8,13.7-10.8,13.2
		c-3.3-0.6-6.3-4.9-2.9-14.2c0.1-0.4,0.3-0.8,0.4-1.1c-3.8,4.6-7.4,9.1-10.9,5.1c-3.6-4.1-0.1-11.3,3.2-14.4
		c2.4-2.2,6.9-4.2,11.7-2.9c5.4,1.4,1.3,1.4,1.3,1.4s-6.8-1.5-11.7,6.3c-3.6,5.8-1.6,11.1,1.3,8.4c1.6-1.5,5-5.8,7.7-9.3
		c1.4-2.2,2.8-4.9,4.3-4.9c1.4-0.1,4.8,0.4,1.8,4.3C938.1,114.6,937.9,130,943.6,121.7z"/>
</g>
<g>
	<path class="st0" d="M366.4,181.6c7.7,0,14.4,5.8,14.4,14.6c0,9.5-6.5,15.4-14.7,15.4c-8.6,0-14.8-6.5-14.8-14.8
		C351.3,188.9,356.9,181.6,366.4,181.6z M365.5,183.2c-4.9,0-9.2,4.2-9.2,12.4c0,8.1,4.2,14.2,10.5,14.2c5.1,0,9-4,9-12.5
		C375.9,188.2,371.2,183.2,365.5,183.2z"/>
	<path class="st0" d="M396.1,196.8c-0.9-2.7-2.1-4.4-4.7-4.4c-1.5,0-2.7,1.1-2.7,2.8c0,1.8,1.2,2.7,3.7,3.9c3.8,1.8,5.8,3.1,5.8,6.2
		c0,4.1-3.8,6.2-7.4,6.2c-2.3,0-4.4-0.7-5.3-1.3c-0.2-1.2-0.6-3.8-0.8-5.3l1.3-0.2c0.8,2.8,2.4,5.2,5.5,5.2c1.7,0,3-1.1,3-2.9
		c0-1.9-1.1-2.9-3.5-4.1c-3.1-1.5-5.6-2.9-5.6-6.2s2.8-5.8,7-5.8c1.9,0,3.4,0.4,4.4,0.6c0.1,1.1,0.5,3.9,0.7,5L396.1,196.8z"/>
	<path class="st0" d="M427.8,207.1c-2.8,3.6-6,4.4-7.5,4.4c-5.5,0-8.8-4.4-8.8-9.5c0-3,1.1-5.9,3-7.8c1.9-2.1,4.3-3.2,6.6-3.2
		c3.9,0,6.9,3.4,6.9,6.9c0,0.9-0.1,1.3-0.8,1.5c-0.9,0.2-6.6,0.6-11.7,0.7c-0.1,5.7,3.4,8.1,6.5,8.1c1.8,0,3.5-0.7,5.1-2.2
		L427.8,207.1z M420,192.7c-2,0-3.9,1.9-4.5,5.5c2.4,0,4.7,0,7.2-0.1c0.8,0,1-0.2,1-0.9C423.9,194.8,422.4,192.7,420,192.7z"/>
	<path class="st0" d="M442.3,196.8c-0.9-2.7-2.1-4.4-4.7-4.4c-1.5,0-2.7,1.1-2.7,2.8c0,1.8,1.2,2.7,3.7,3.9c3.8,1.8,5.8,3.1,5.8,6.2
		c0,4.1-3.8,6.2-7.4,6.2c-2.3,0-4.4-0.7-5.3-1.3c-0.2-1.2-0.6-3.8-0.8-5.3l1.3-0.2c0.8,2.8,2.4,5.2,5.5,5.2c1.7,0,3-1.1,3-2.9
		c0-1.9-1.1-2.9-3.5-4.1c-3.1-1.5-5.6-2.9-5.6-6.2s2.8-5.8,7-5.8c1.9,0,3.4,0.4,4.4,0.6c0.1,1.1,0.5,3.9,0.7,5L442.3,196.8z"/>
	<path class="st0" d="M446.8,192.4c2.1-0.3,4.5-1.1,6.7-1.9c0,1,0,2.4,0,3.5c0.1-0.1,3.5-2.1,3.7-2.1c1.1-0.6,2-0.9,2.6-0.9
		c4.9,0,7.8,4.1,7.8,8.5c0,6.7-5.3,10.9-11.1,12c-1.3,0-2.5-0.4-3.1-0.7v5.9c0,3.1,0.3,3.4,3.7,3.7v1.3h-10.7v-1.3
		c2.9-0.3,3.2-0.6,3.2-3.4v-20.1c0-2.6-0.1-2.8-2.8-3.2L446.8,192.4L446.8,192.4z M453.5,207.6c1,1,2.7,1.7,4.1,1.7
		c3.6,0,5.9-3.2,5.9-8.1c0-4.9-2.8-7.5-5.8-7.5c-1.5,0-3.2,0.9-4.3,1.7V207.6z"/>
	<path class="st0" d="M487.5,207.1c-2.8,3.6-6,4.4-7.5,4.4c-5.5,0-8.8-4.4-8.8-9.5c0-3,1.1-5.9,3-7.8c1.9-2.1,4.3-3.2,6.6-3.2
		c3.9,0,6.9,3.4,6.9,6.9c0,0.9-0.1,1.3-0.8,1.5c-0.9,0.2-6.6,0.6-11.7,0.7c-0.1,5.7,3.4,8.1,6.5,8.1c1.8,0,3.5-0.7,5.1-2.2
		L487.5,207.1z M479.8,192.7c-2,0-3.9,1.9-4.5,5.5c2.4,0,4.7,0,7.2-0.1c0.8,0,1-0.2,1-0.9C483.6,194.8,482.2,192.7,479.8,192.7z"/>
	<path class="st0" d="M500.8,211h-10.5v-1.3c2.7-0.3,3-0.5,3-3.3V197c0-2.8-0.2-2.9-2.7-3.3v-1.1c2.3-0.4,4.4-0.9,6.5-1.8
		c0,1.5,0,3.4,0,4.9c1.6-2.4,3.4-4.7,5.6-4.7c1.6,0,2.6,1,2.6,2.2c0,1.2-0.9,2.2-1.6,2.7c-0.5,0.3-0.8,0.2-1.2-0.1
		c-0.7-0.7-1.2-1.1-2-1.1c-0.9,0-2.4,1.2-3.4,3.4v8.3c0,2.9,0.2,3.1,3.6,3.4L500.8,211L500.8,211L500.8,211z"/>
	<path class="st0" d="M521.4,211.5c-0.8,0-1.7-0.4-2.2-0.9c-0.6-0.6-0.9-1.2-1.1-1.9c-1.8,1.2-3.9,2.8-5.2,2.8
		c-3.3,0-5.5-2.7-5.5-5.5c0-2.2,1.2-3.6,3.6-4.4c2.7-0.9,6-2.1,7-2.9v-1.1c0-3-1.5-4.7-3.7-4.7c-1,0-1.6,0.5-2,1
		c-0.5,0.6-0.8,1.6-1.2,2.9c-0.2,0.8-0.7,1.1-1.4,1.1c-0.9,0-2.1-0.9-2.1-2c0-0.6,0.6-1.2,1.5-1.8c1.4-1,4-2.6,6.5-3.1
		c1.4,0,2.8,0.4,3.9,1.2c1.6,1.3,2.3,2.9,2.3,5.2v8.4c0,2.1,0.7,2.7,1.5,2.7c0.5,0,1.1-0.2,1.5-0.5l0.5,1.3L521.4,211.5z M518,200.3
		c-0.9,0.5-2.8,1.3-3.8,1.8c-1.6,0.8-2.6,1.6-2.6,3.2c0,2.4,1.8,3.4,3.1,3.4c1.1,0,2.5-0.6,3.3-1.4C518,205.1,518,202.4,518,200.3z"
		/>
	<path class="st0" d="M551.5,211v-1.3c2.5-0.3,2.8-0.4,2.8-3.5v-7.4c0-3.2-1.2-5-3.7-5c-1.5,0-3,0.8-4.6,2.1c0,0.5,0.1,1.1,0.1,1.9
		v8.6c0,2.7,0.3,3,2.7,3.2v1.3h-9.6v-1.3c2.6-0.3,3-0.4,3-3.3v-7.7c0-3.2-1.1-4.9-3.6-4.9c-1.7,0-3.3,1.1-4.6,2.1v10.5
		c0,2.8,0.3,3,2.7,3.3v1.3h-9.6v-1.3c2.8-0.3,3.1-0.4,3.1-3.3v-9.2c0-2.8-0.2-3-2.6-3.4v-1.2c2.2-0.3,4.3-0.9,6.5-1.8
		c0,1.1,0,2.5,0,3.5c0.9-0.7,1.8-1.4,3.2-2.2c1.2-0.7,2.2-1.2,3.5-1.2c2.2,0,4,1.3,4.8,3.6c1.2-0.9,2.3-1.7,3.4-2.4
		c1-0.6,2.2-1.2,3.5-1.2c3.5,0,5.6,2.5,5.6,6.9v8.6c0,2.9,0.3,3,2.7,3.3v1.3L551.5,211L551.5,211z"/>
	<path class="st0" d="M573.5,190.9c5.7,0,9.8,4.3,9.8,9.9c0,7.2-5.3,10.6-9.8,10.6c-6.2,0-10-4.9-10-9.9
		C563.6,194.4,569.2,190.9,573.5,190.9z M573,192.5c-2.6,0-4.9,2.5-4.9,7.7c0,5.6,2.4,9.7,5.8,9.7c2.5,0,4.8-1.8,4.8-8
		C578.7,196.6,576.7,192.5,573,192.5z"/>
	<path class="st0" d="M598.1,196.8c-0.9-2.7-2.1-4.4-4.7-4.4c-1.5,0-2.7,1.1-2.7,2.8c0,1.8,1.2,2.7,3.7,3.9c3.8,1.8,5.8,3.1,5.8,6.2
		c0,4.1-3.8,6.2-7.4,6.2c-2.3,0-4.4-0.7-5.3-1.3c-0.2-1.2-0.6-3.8-0.8-5.3l1.3-0.2c0.8,2.8,2.4,5.2,5.5,5.2c1.7,0,3-1.1,3-2.9
		c0-1.9-1.1-2.9-3.5-4.1c-3.1-1.5-5.7-2.9-5.7-6.2s2.8-5.8,7-5.8c1.9,0,3.4,0.4,4.3,0.6c0.1,1.1,0.5,3.9,0.7,5L598.1,196.8z"/>
	<path class="st0" d="M612.9,192.4c2.1-0.3,4.5-1.1,6.7-1.9c0,1,0,2.4,0,3.5c0.1-0.1,3.5-2.1,3.7-2.1c1.1-0.6,2-0.9,2.6-0.9
		c4.9,0,7.8,4.1,7.8,8.5c0,6.7-5.3,10.9-11.1,12c-1.3,0-2.5-0.4-3.1-0.7v5.9c0,3.1,0.3,3.4,3.7,3.7v1.3h-10.7v-1.3
		c2.8-0.3,3.2-0.6,3.2-3.4v-20.1c0-2.6-0.1-2.8-2.8-3.2L612.9,192.4L612.9,192.4z M619.7,207.6c1,1,2.7,1.7,4.1,1.7
		c3.6,0,5.9-3.2,5.9-8.1c0-4.9-2.8-7.5-5.8-7.5c-1.5,0-3.2,0.9-4.3,1.7L619.7,207.6L619.7,207.6z"/>
	<path class="st0" d="M651.2,211.5c-0.8,0-1.7-0.4-2.2-0.9c-0.6-0.6-0.9-1.2-1.1-1.9c-1.8,1.2-3.9,2.8-5.2,2.8
		c-3.3,0-5.5-2.7-5.5-5.5c0-2.2,1.2-3.6,3.6-4.4c2.7-0.9,6-2.1,7-2.9v-1.1c0-3-1.5-4.7-3.7-4.7c-1,0-1.6,0.5-2,1
		c-0.5,0.6-0.8,1.6-1.2,2.9c-0.2,0.8-0.7,1.1-1.4,1.1c-0.9,0-2.1-0.9-2.1-2c0-0.6,0.6-1.2,1.5-1.8c1.4-1,4-2.6,6.5-3.1
		c1.4,0,2.8,0.4,3.9,1.2c1.6,1.3,2.3,2.9,2.3,5.2v8.4c0,2.1,0.7,2.7,1.5,2.7c0.5,0,1.1-0.2,1.5-0.5l0.5,1.3L651.2,211.5z
		 M647.8,200.3c-0.9,0.5-2.8,1.3-3.8,1.8c-1.6,0.8-2.6,1.6-2.6,3.2c0,2.4,1.8,3.4,3.1,3.4c1.1,0,2.5-0.6,3.3-1.4
		C647.8,205.1,647.8,202.4,647.8,200.3z"/>
	<path class="st0" d="M667.4,211h-10.5v-1.3c2.7-0.3,3-0.5,3-3.3V197c0-2.8-0.2-2.9-2.7-3.3v-1.1c2.3-0.4,4.3-0.9,6.5-1.8
		c0,1.5,0,3.4,0,4.9c1.6-2.4,3.4-4.7,5.6-4.7c1.6,0,2.6,1,2.6,2.2c0,1.2-0.9,2.2-1.6,2.7c-0.5,0.3-0.8,0.2-1.2-0.1
		c-0.7-0.7-1.2-1.1-2-1.1c-0.9,0-2.4,1.2-3.4,3.4v8.3c0,2.9,0.2,3.1,3.6,3.4L667.4,211L667.4,211L667.4,211z"/>
	<path class="st0" d="M688,211.5c-0.8,0-1.7-0.4-2.2-0.9c-0.6-0.6-0.9-1.2-1.1-1.9c-1.8,1.2-3.9,2.8-5.2,2.8c-3.3,0-5.5-2.7-5.5-5.5
		c0-2.2,1.2-3.6,3.6-4.4c2.7-0.9,6-2.1,7-2.9v-1.1c0-3-1.5-4.7-3.7-4.7c-1,0-1.6,0.5-2,1c-0.5,0.6-0.8,1.6-1.2,2.9
		c-0.2,0.8-0.7,1.1-1.4,1.1c-0.9,0-2.1-0.9-2.1-2c0-0.6,0.6-1.2,1.5-1.8c1.4-1,4-2.6,6.5-3.1c1.4,0,2.8,0.4,3.9,1.2
		c1.6,1.3,2.3,2.9,2.3,5.2v8.4c0,2.1,0.8,2.7,1.5,2.7c0.5,0,1.1-0.2,1.5-0.5l0.5,1.3L688,211.5z M684.6,200.3
		c-0.9,0.5-2.8,1.3-3.8,1.8c-1.6,0.8-2.6,1.6-2.6,3.2c0,2.4,1.8,3.4,3.1,3.4c1.1,0,2.5-0.6,3.3-1.4
		C684.6,205.1,684.6,202.4,684.6,200.3z"/>
	<path class="st0" d="M713.2,191.5c0.8-0.4,1.6-0.5,2.2-0.5c4.9,0,8.8,4.2,8.8,9.4c0,6-5.1,11.2-11.1,11.2c-2,0-4.5-0.4-7-1.6
		c0-1.1,0-2.3,0-3.5v-21.2c0-2.7-0.2-3-2.9-3.2v-1.2c2.1-0.3,5-0.9,6.8-1.5c0,1.7,0,3.4,0,5.2v8.4L713.2,191.5z M709.9,205.9
		c0,0.7,0.1,1.1,0.2,1.5c0.5,1,2.1,2.3,4.2,2.3c3.5,0,5.4-3.2,5.4-8.2c0-5.2-3-8-6.5-8c-1.2,0-2.5,0.4-3.3,0.8L709.9,205.9
		L709.9,205.9z"/>
	<path class="st0" d="M741.3,211.5c-0.8,0-1.7-0.4-2.2-0.9c-0.6-0.6-0.9-1.2-1.1-1.9c-1.8,1.2-3.9,2.8-5.2,2.8
		c-3.3,0-5.5-2.7-5.5-5.5c0-2.2,1.2-3.6,3.6-4.4c2.7-0.9,6-2.1,7-2.9v-1.1c0-3-1.5-4.7-3.7-4.7c-1,0-1.6,0.5-2,1
		c-0.5,0.6-0.8,1.6-1.2,2.9c-0.2,0.8-0.7,1.1-1.4,1.1c-0.9,0-2.1-0.9-2.1-2c0-0.6,0.6-1.2,1.5-1.8c1.4-1,4-2.6,6.5-3.1
		c1.4,0,2.8,0.4,3.9,1.2c1.6,1.3,2.3,2.9,2.3,5.2v8.4c0,2.1,0.8,2.7,1.5,2.7c0.5,0,1.1-0.2,1.5-0.5l0.5,1.3L741.3,211.5z M738,200.3
		c-0.9,0.5-2.8,1.3-3.8,1.8c-1.6,0.8-2.6,1.6-2.6,3.2c0,2.4,1.8,3.4,3.1,3.4c1.1,0,2.5-0.6,3.3-1.4C738,205.1,738,202.4,738,200.3z"
		/>
	<path class="st0" d="M747,211v-1.3c2.7-0.3,3-0.5,3-3.5v-9c0-2.8-0.2-3-2.7-3.4v-1.1c2.4-0.4,4.6-1,6.6-1.7c0,1.9,0,3.7,0,5.6v9.7
		c0,3,0.3,3.2,3.1,3.5v1.3L747,211L747,211L747,211z M751.8,186.8c-1.3,0-2.5-1.2-2.5-2.5c0-1.5,1.2-2.6,2.5-2.6
		c1.3,0,2.4,1.1,2.4,2.6C754.2,185.7,753.1,186.8,751.8,186.8z"/>
	<path class="st0" d="M758.9,211v-1.3c2.8-0.3,3.1-0.5,3.1-3.4v-21c0-2.6-0.2-2.9-3-3.3v-1.2c2.5-0.3,5.3-0.9,6.9-1.5
		c0,2.1,0,4.2,0,6.2v20.8c0,2.9,0.2,3.1,3.1,3.4v1.3L758.9,211L758.9,211z"/>
	<path class="st0" d="M785.5,211.5c-0.8,0-1.7-0.4-2.2-0.9c-0.6-0.6-0.9-1.2-1.1-1.9c-1.8,1.2-3.9,2.8-5.2,2.8
		c-3.3,0-5.5-2.7-5.5-5.5c0-2.2,1.2-3.6,3.6-4.4c2.7-0.9,6-2.1,7-2.9v-1.1c0-3-1.5-4.7-3.7-4.7c-1,0-1.6,0.5-2,1
		c-0.5,0.6-0.8,1.6-1.2,2.9c-0.2,0.8-0.7,1.1-1.4,1.1c-0.9,0-2.1-0.9-2.1-2c0-0.6,0.6-1.2,1.5-1.8c1.4-1,4-2.6,6.5-3.1
		c1.4,0,2.8,0.4,3.9,1.2c1.6,1.3,2.3,2.9,2.3,5.2v8.4c0,2.1,0.8,2.7,1.5,2.7c0.5,0,1.1-0.2,1.5-0.5l0.5,1.3L785.5,211.5z
		 M782.1,200.3c-0.9,0.5-2.8,1.3-3.8,1.8c-1.6,0.8-2.6,1.6-2.6,3.2c0,2.4,1.8,3.4,3.1,3.4c1.1,0,2.5-0.6,3.3-1.4
		C782.1,205.1,782.1,202.4,782.1,200.3z"/>
	<path class="st0" d="M801.7,211h-10.5v-1.3c2.7-0.3,3-0.5,3-3.3V197c0-2.8-0.2-2.9-2.7-3.3v-1.1c2.3-0.4,4.3-0.9,6.5-1.8
		c0,1.5,0,3.4,0,4.9c1.6-2.4,3.4-4.7,5.6-4.7c1.6,0,2.6,1,2.6,2.2c0,1.2-0.9,2.2-1.6,2.7c-0.5,0.3-0.8,0.2-1.2-0.1
		c-0.7-0.7-1.2-1.1-2-1.1c-0.9,0-2.4,1.2-3.4,3.4v8.3c0,2.9,0.2,3.1,3.6,3.4L801.7,211L801.7,211L801.7,211z"/>
	<path class="st0" d="M837.7,192.7c-2.3,0.4-2.8,0.7-3.9,3.2c-1.1,2.4-2.3,5.5-5.3,12.9c-2.9,7.1-3.7,9.9-4.4,12.2
		c-0.3,0.9-0.8,1.2-1.4,1.2c-1.5,0-2.8-1.1-2.8-2.2c0-0.6,0.3-1,1-1.6c1.5-1.1,2.5-2.1,3.1-3.3c0.8-1.7,1.5-3.1,1.7-3.7
		c0.2-0.7,0.2-1.1-0.1-1.8c-1.8-5.3-4.3-10.9-5.5-13.8c-0.9-2.3-1.4-2.9-3.7-3.2v-1.2h9.3v1.2c-2,0.3-2.2,0.7-1.7,2.3l4.1,10.6
		c1.2-2.9,2.9-7.7,3.8-10.4c0.5-1.6,0.2-2.1-2.3-2.5v-1.2h8.1V192.7z"/>
	<path class="st0" d="M859,211h-10.5v-1.3c2.7-0.3,3-0.5,3-3.3V197c0-2.8-0.2-2.9-2.7-3.3v-1.1c2.3-0.4,4.3-0.9,6.5-1.8
		c0,1.5,0,3.4,0,4.9c1.6-2.4,3.4-4.7,5.6-4.7c1.6,0,2.6,1,2.6,2.2c0,1.2-0.9,2.2-1.6,2.7c-0.5,0.3-0.8,0.2-1.2-0.1
		c-0.7-0.7-1.2-1.1-2-1.1c-0.9,0-2.4,1.2-3.4,3.4v8.3c0,2.9,0.2,3.1,3.6,3.4L859,211L859,211L859,211z"/>
	<path class="st0" d="M881.4,207.1c-2.8,3.6-6,4.4-7.5,4.4c-5.5,0-8.8-4.4-8.8-9.5c0-3,1.1-5.9,3-7.8c1.9-2.1,4.3-3.2,6.7-3.2
		c3.9,0,6.9,3.4,6.9,6.9c0,0.9-0.2,1.3-0.8,1.5c-0.9,0.2-6.7,0.6-11.7,0.7c-0.1,5.7,3.4,8.1,6.5,8.1c1.8,0,3.5-0.7,5.1-2.2
		L881.4,207.1z M873.7,192.7c-2,0-3.9,1.9-4.5,5.5c2.4,0,4.7,0,7.2-0.1c0.8,0,1-0.2,1-0.9C877.5,194.8,876.1,192.7,873.7,192.7z"/>
	<path class="st0" d="M884.5,211v-1.3c2.7-0.3,3-0.5,3-3.5v-9c0-2.8-0.2-3-2.7-3.4v-1.1c2.4-0.4,4.6-1,6.6-1.7c0,1.9,0,3.7,0,5.6
		v9.7c0,3,0.3,3.2,3.1,3.5v1.3L884.5,211L884.5,211L884.5,211z M889.2,186.8c-1.3,0-2.5-1.2-2.5-2.5c0-1.5,1.2-2.6,2.5-2.6
		c1.3,0,2.4,1.1,2.4,2.6C891.7,185.7,890.6,186.8,889.2,186.8z"/>
	<path class="st0" d="M907.2,211h-10.5v-1.3c2.7-0.3,3-0.5,3-3.3V197c0-2.8-0.2-2.9-2.7-3.3v-1.1c2.3-0.4,4.3-0.9,6.5-1.8
		c0,1.5,0,3.4,0,4.9c1.6-2.4,3.4-4.7,5.6-4.7c1.6,0,2.6,1,2.6,2.2c0,1.2-0.9,2.2-1.6,2.7c-0.5,0.3-0.8,0.2-1.2-0.1
		c-0.7-0.7-1.2-1.1-2-1.1c-0.9,0-2.4,1.2-3.4,3.4v8.3c0,2.9,0.2,3.1,3.6,3.4L907.2,211L907.2,211L907.2,211z"/>
	<path class="st0" d="M483.8,267.1c-2.8,3.6-6,4.4-7.5,4.4c-5.5,0-8.8-4.4-8.8-9.5c0-3,1.1-5.9,3-7.8c1.9-2.1,4.3-3.2,6.6-3.2
		c3.9,0,6.9,3.4,6.9,6.9c0,0.9-0.1,1.3-0.8,1.5c-0.9,0.2-6.6,0.6-11.7,0.7c-0.1,5.7,3.4,8.1,6.5,8.1c1.8,0,3.5-0.7,5.1-2.2
		L483.8,267.1z M476.1,252.7c-2,0-3.9,1.9-4.5,5.5c2.4,0,4.7,0,7.2-0.1c0.8,0,1-0.2,1-0.9C479.9,254.8,478.4,252.7,476.1,252.7z"/>
	<path class="st0" d="M499.3,271v-1.3c2.4-0.3,2.7-0.5,2.7-3.6v-7.4c0-3.1-1.2-5-3.9-5c-1.7,0-3.3,0.9-4.6,2.1v10.4
		c0,3,0.2,3.1,2.7,3.4v1.3h-9.7v-1.3c2.8-0.3,3.1-0.5,3.1-3.4v-9.1c0-2.8-0.3-3-2.6-3.4v-1.2c2.2-0.4,4.6-0.9,6.5-1.8
		c0,0.9,0,2.4,0,3.4c0.9-0.6,1.9-1.3,3-2c1.3-0.8,2.4-1.3,3.6-1.3c3.5,0,5.8,2.6,5.8,7v8.4c0,3,0.3,3.1,2.8,3.4v1.3L499.3,271
		L499.3,271z"/>
	<path class="st0" d="M537.9,267.1c-2.8,3.6-6,4.4-7.5,4.4c-5.5,0-8.8-4.4-8.8-9.5c0-3,1.1-5.9,3-7.8c1.9-2.1,4.3-3.2,6.7-3.2
		c3.9,0,6.9,3.4,6.9,6.9c0,0.9-0.2,1.3-0.8,1.5c-0.9,0.2-6.7,0.6-11.7,0.7c-0.1,5.7,3.4,8.1,6.5,8.1c1.8,0,3.5-0.7,5.1-2.2
		L537.9,267.1z M530.2,252.7c-2,0-3.9,1.9-4.5,5.5c2.4,0,4.7,0,7.2-0.1c0.8,0,1-0.2,1-0.9C534,254.8,532.6,252.7,530.2,252.7z"/>
	<path class="st0" d="M552.5,256.8c-0.9-2.7-2.1-4.4-4.7-4.4c-1.5,0-2.7,1.1-2.7,2.8c0,1.8,1.2,2.7,3.7,3.9c3.8,1.8,5.8,3.1,5.8,6.2
		c0,4.1-3.8,6.2-7.4,6.2c-2.3,0-4.4-0.7-5.3-1.3c-0.2-1.2-0.6-3.8-0.8-5.3l1.3-0.2c0.8,2.8,2.4,5.2,5.5,5.2c1.7,0,3-1.1,3-2.9
		c0-1.9-1.1-2.9-3.5-4.1c-3.1-1.5-5.7-2.9-5.7-6.2s2.8-5.8,7-5.8c1.9,0,3.4,0.4,4.3,0.6c0.1,1.1,0.5,3.9,0.7,5L552.5,256.8z"/>
	<path class="st0" d="M565.8,270.9c-0.8,0.4-1.5,0.6-1.9,0.6c-2.9,0-4.5-1.7-4.5-5.3v-12.8h-3l-0.2-0.5l1.2-1.4h2v-3.7
		c1-0.9,2.4-2.1,3.4-3l0.7,0.1c-0.1,1.7-0.1,4.3-0.1,6.6h4.9c0.4,0.4,0.3,1.5-0.3,1.9h-4.7v11.2c0,3.6,1.4,4.2,2.5,4.2
		c1,0,2-0.4,2.6-0.7l0.4,1.2L565.8,270.9z"/>
	<path class="st0" d="M586.4,267.1c-2.8,3.6-6,4.4-7.5,4.4c-5.5,0-8.8-4.4-8.8-9.5c0-3,1.1-5.9,3-7.8c1.9-2.1,4.3-3.2,6.7-3.2
		c3.9,0,6.9,3.4,6.9,6.9c0,0.9-0.2,1.3-0.8,1.5c-0.9,0.2-6.7,0.6-11.7,0.7c-0.1,5.7,3.4,8.1,6.5,8.1c1.8,0,3.5-0.7,5.1-2.2
		L586.4,267.1z M578.8,252.7c-2,0-3.9,1.9-4.5,5.5c2.4,0,4.7,0,7.2-0.1c0.8,0,1-0.2,1-0.9C582.5,254.8,581.1,252.7,578.8,252.7z"/>
	<path class="st0" d="M621.2,269.9c-1,0.2-4.4,0.7-7.2,1.6c0-0.9,0-1.9,0-2.8c-0.8,0.5-1.9,1.1-2.7,1.6c-1.6,1-2.7,1.2-3.3,1.2
		c-3.6,0-8.4-3.5-8.4-9.8c0-6.1,5.4-10.8,11.6-10.8c0.6,0,1.9,0.1,2.8,0.4v-6.2c0-2.8-0.3-2.9-3.4-3.1v-1.2c2.3-0.3,5.5-0.9,7.3-1.5
		c0,1.6,0,3.5,0,5.4v21.1c0,2.3,0.3,2.6,2,2.7l1.3,0.1L621.2,269.9L621.2,269.9z M614.1,255c-0.9-1.5-2.7-2.2-4.4-2.2
		c-2,0-5.6,1.3-5.6,7.7c0,5.4,3.3,8.1,6,8.2c1.5,0,3-0.7,4-1.4L614.1,255L614.1,255z"/>
	<path class="st0" d="M623.2,271v-1.3c2.8-0.3,3.1-0.5,3.1-3.5v-9c0-2.8-0.2-3-2.7-3.4v-1.1c2.4-0.4,4.6-1,6.6-1.7
		c0,1.9,0,3.7,0,5.6v9.7c0,3,0.3,3.2,3.1,3.5v1.3L623.2,271L623.2,271z M626.2,247.5l4.8-7.2c1-0.3,4-0.4,4.5-0.2l0.1,0.6l-8.3,7.6
		L626.2,247.5z"/>
	<path class="st0" d="M649.7,271.5c-0.8,0-1.7-0.4-2.2-0.9c-0.6-0.6-0.9-1.2-1.1-1.9c-1.8,1.2-3.9,2.8-5.2,2.8
		c-3.3,0-5.5-2.7-5.5-5.5c0-2.2,1.2-3.5,3.6-4.4c2.7-0.9,6-2.1,7-2.9v-1.1c0-3-1.5-4.7-3.7-4.7c-1,0-1.6,0.5-2,1
		c-0.5,0.6-0.8,1.6-1.2,2.9c-0.2,0.8-0.7,1.1-1.4,1.1c-0.9,0-2.1-0.9-2.1-2c0-0.6,0.6-1.2,1.5-1.8c1.4-1,4-2.6,6.5-3.1
		c1.4,0,2.8,0.4,3.9,1.2c1.6,1.3,2.3,2.9,2.3,5.2v8.4c0,2,0.7,2.7,1.5,2.7c0.5,0,1.1-0.2,1.5-0.5l0.5,1.3L649.7,271.5z M646.3,260.3
		c-0.9,0.5-2.8,1.3-3.8,1.8c-1.6,0.8-2.6,1.6-2.6,3.2c0,2.4,1.8,3.4,3.1,3.4c1.1,0,2.5-0.6,3.3-1.4
		C646.3,265.1,646.3,262.4,646.3,260.3z"/>
	<path class="st0" d="M690,271v-1.3c2.5-0.3,2.8-0.4,2.8-3.5v-7.4c0-3.2-1.2-5-3.7-5c-1.5,0-3,0.8-4.6,2.1c0,0.5,0.1,1.1,0.1,1.9
		v8.6c0,2.7,0.3,3,2.7,3.2v1.3h-9.6v-1.3c2.6-0.3,3-0.4,3-3.3v-7.7c0-3.2-1.1-4.9-3.6-4.9c-1.7,0-3.3,1.1-4.6,2.1v10.5
		c0,2.8,0.3,3,2.7,3.3v1.3h-9.6v-1.3c2.8-0.3,3.1-0.5,3.1-3.3v-9.2c0-2.8-0.2-3-2.6-3.4v-1.2c2.2-0.3,4.3-0.9,6.5-1.8
		c0,1.1,0,2.5,0,3.5c0.9-0.7,1.8-1.4,3.2-2.2c1.2-0.7,2.1-1.2,3.5-1.2c2.2,0,4,1.3,4.8,3.6c1.2-0.9,2.3-1.7,3.4-2.4
		c1-0.6,2.2-1.2,3.5-1.2c3.5,0,5.6,2.5,5.6,6.9v8.5c0,2.9,0.3,3,2.7,3.3v1.3L690,271L690,271z"/>
	<path class="st0" d="M716.2,271.5c-0.8,0-1.7-0.4-2.2-0.9c-0.6-0.6-0.9-1.2-1.1-1.9c-1.8,1.2-3.9,2.8-5.2,2.8
		c-3.3,0-5.5-2.7-5.5-5.5c0-2.2,1.2-3.5,3.6-4.4c2.7-0.9,6-2.1,7-2.9v-1.1c0-3-1.5-4.7-3.7-4.7c-1,0-1.6,0.5-2,1
		c-0.5,0.6-0.8,1.6-1.2,2.9c-0.2,0.8-0.7,1.1-1.4,1.1c-0.9,0-2.1-0.9-2.1-2c0-0.6,0.6-1.2,1.5-1.8c1.4-1,4-2.6,6.5-3.1
		c1.4,0,2.8,0.4,3.9,1.2c1.6,1.3,2.3,2.9,2.3,5.2v8.4c0,2,0.8,2.7,1.5,2.7c0.5,0,1.1-0.2,1.5-0.5l0.5,1.3L716.2,271.5z M712.8,260.3
		c-0.9,0.5-2.8,1.3-3.8,1.8c-1.6,0.8-2.6,1.6-2.6,3.2c0,2.4,1.8,3.4,3.1,3.4c1.1,0,2.5-0.6,3.3-1.4
		C712.8,265.1,712.8,262.4,712.8,260.3z M708.1,247.4l4.8-7.2c1-0.3,4-0.4,4.5-0.2l0.1,0.6l-8.3,7.6L708.1,247.4z"/>
	<path class="st0" d="M727.9,264.4c-1,0.8-1.3,1.6-1.3,2.1c0,0.8,0.8,1.7,2.7,1.7c1.6,0,3.5,0,5,0c2.8,0,6.5,1,6.5,5.3
		c0,4.7-5.6,9-11.5,9c-5.2,0-7.8-2.9-7.9-5.5c0-1,0.4-1.8,1.2-2.5c0.9-0.9,2.6-2.2,3.6-3c-1.6-0.5-2.7-1.5-3.3-2.4
		c-0.4-0.7-0.6-1.5-0.6-2c1.8-0.7,3.3-1.9,4.2-3.1L727.9,264.4z M730,264.9c-4.3,0-7.7-2.6-7.7-6.7c0-5,4.5-7.3,8.1-7.3
		c1.5,0,3,0.4,4.4,1.1c2,0,4.8-0.4,6-0.7l0.3,0.4c-0.3,0.7-1,2-1.6,2.4c-0.7,0-2.1-0.2-2.7-0.2c0.7,1,1.2,2.4,1.2,4
		C738,262.6,734,264.9,730,264.9z M731,271.6c-2.2,0-3.2,0.3-4,0.9c-1.2,1-2,2.2-2,3.4c0,2.4,2.5,4.2,6,4.2c4.1,0,6.4-2.1,6.4-4.8
		c0-1.5-0.8-2.7-2-3.2C734.2,271.6,732.8,271.6,731,271.6z M730.1,252.3c-1.9,0-3.6,1.8-3.6,5.2c0,3.4,1.6,5.9,4,5.9
		c1.9-0.1,3.5-1.7,3.5-5.3C734,254.8,732.5,252.3,730.1,252.3z"/>
	<path class="st0" d="M742.8,271v-1.3c2.7-0.3,3-0.5,3-3.5v-9c0-2.8-0.2-3-2.7-3.4v-1.1c2.4-0.4,4.6-1,6.6-1.7c0,1.9,0,3.7,0,5.6
		v9.7c0,3,0.3,3.2,3.1,3.5v1.3L742.8,271L742.8,271L742.8,271z M747.5,246.8c-1.3,0-2.5-1.2-2.5-2.5c0-1.5,1.2-2.6,2.5-2.6
		c1.3,0,2.4,1.1,2.4,2.6C750,245.7,748.9,246.8,747.5,246.8z"/>
	<path class="st0" d="M771.8,266.9c-2,2.6-4.9,4.6-7.6,4.6c-5.7,0-9.1-4.6-9.1-9.3c0-3.5,1.5-6.4,4.5-8.6c2.5-1.9,5.1-2.6,6.9-2.6
		c1.9,0,3.4,0.6,4.1,1.2c0.6,0.5,0.7,0.8,0.7,1.4c0,1.1-1.1,2.1-1.7,2.1c-0.2,0-0.4-0.1-0.9-0.4c-1.5-1.3-3-1.9-4.5-1.9
		c-2.7,0-5.2,2.3-5.2,7c0,6.1,4.2,8.1,6.6,8.1c1.8,0,3.3-0.5,5.3-2.3L771.8,266.9z"/>
	<path class="st0" d="M784.1,250.9c5.7,0,9.8,4.3,9.8,9.9c0,7.2-5.3,10.6-9.8,10.6c-6.2,0-10-4.9-10-9.9
		C774.2,254.4,779.8,250.9,784.1,250.9z M783.6,252.5c-2.6,0-4.9,2.5-4.9,7.7c0,5.6,2.4,9.7,5.8,9.7c2.5,0,4.8-1.8,4.8-8
		C789.3,256.6,787.3,252.5,783.6,252.5z"/>
</g>
</svg>
