<?xml version="1.0" encoding="utf-8"?>
<!-- Generator: Adobe Illustrator 25.4.1, SVG Export Plug-In . SVG Version: 6.00 Build 0)  -->
<svg version="1.1" id="ok" xmlns="http://www.w3.org/2000/svg" xmlns:xlink="http://www.w3.org/1999/xlink" x="0px" y="0px"
	 viewBox="0 0 1242 327" style="enable-background:new 0 0 1242 327;" xml:space="preserve">
<style type="text/css">
	.st0{fill:#D32020;}
</style>
<g>
	<path class="st0" d="M298.53,66.53c1.25,0.07,2.5,0.21,3.75,0.28c-0.07-6.66,6.8-11.65,15.81-11.3c8.04,0.35,9.29,6.03,8.25,8.04
		c-1.18,2.36-3.4,5.83-21.22,4.51c0,2.15,0.76,4.02,2.08,4.99c1.39,0.97,2.98,1.87,1.87,4.72c-12.07,0.21-35.16,11.1-32.73,27.74
		c1.87,12.83,27.32,6.17,38.77-9.64c2.22-3.05,4.23,0.35,3.75,1.8c-3.47,11.23-0.62,15.4,2.64,18.52c4.09,3.88,15.19,7.63,36.2-1.04
		c-7.84,4.37-23.65,8.74-34.88,3.4c-5.69-2.7-11.03-10.54-8.11-20.18c-8.95,11.93-39.81,24.55-42.1,4.79
		c-1.8-15.74,22.12-26.35,34.26-26.98c-2.77-2.84-4.23-5.69-4.51-8.32c-0.9-0.07-1.87-0.21-2.84-0.28
		c-15.26-1.66-30.58,2.36-37.38,14.91C266.35,72.91,278.21,65,298.53,66.53z M325.37,62.92c0.97-2.77-2.7-6.73-9.85-5.69
		c-6.94,1.04-10.06,5.62-10.4,9.78C314.83,67.78,323.63,67.98,325.37,62.92z"/>
	<path class="st0" d="M334.52,88.58c4.51,2.84,6.03,5.96,2.15,11.65c-4.09,5.96-4.72,15.53,0.97,10.96
		c3.33-2.7,5.83-7.35,9.99-14.36c4.02-6.8,4.99-7.91,6.8-8.88c-0.56,1.04-3.68,5.27-5.76,9.02c-4.65,8.46-9.5,16.57-13.73,16.23
		s-5.96-6.24-3.19-11.79c2.98-6.1,6.38-8.53,0.97-12c-6.87-4.44-3.26-7.98-1.6-8.95c2.01-1.18,4.99-0.69,4.99,2.29
		c0,2.22-1.53,4.09-2.7,5.13C333.75,88.1,334.1,88.3,334.52,88.58z M332.5,81.16c-1.94,0.83-2.98,3.54,0.49,6.38
		c1.18-1.39,2.01-2.84,2.22-3.68C335.69,81.99,334.1,80.47,332.5,81.16z"/>
	<path class="st0" d="M356.57,88.58c4.51,2.84,6.03,5.96,2.15,11.65c-4.09,5.96-4.72,15.53,0.97,10.96
		c3.33-2.7,5.83-7.35,9.99-14.36c4.02-6.8,4.99-7.91,6.8-8.88c-0.56,1.04-3.68,5.27-5.76,9.02c-4.65,8.46-9.5,16.57-13.73,16.23
		s-5.96-6.24-3.19-11.79c2.98-6.1,6.38-8.53,0.97-12c-6.87-4.44-3.26-7.98-1.6-8.95c2.01-1.18,4.99-0.69,4.99,2.29
		c0,2.22-1.53,4.09-2.7,5.13C355.8,88.1,356.15,88.3,356.57,88.58z M354.56,81.16c-1.94,0.83-2.98,3.54,0.49,6.38
		c1.18-1.39,2.01-2.84,2.22-3.68C357.75,81.99,356.15,80.47,354.56,81.16z"/>
	<path class="st0" d="M377.3,84.14c3.12-0.07,5.62,1.8,5.62,6.73c0,1.46-0.35,3.47-0.9,5.41c0.97-0.42,2.01-1.04,3.05-1.87
		c4.16-3.33,5.13-6.66,7.28-6.45c-2.29,1.73-4.23,5.76-8.11,8.11c-0.76,0.49-1.59,0.83-2.5,1.11c-1.53,4.65-4.51,9.29-7.91,9.15
		c-4.85-0.14-5.2-6.52-2.91-11.03c0.28-0.56,0.56-1.11,0.83-1.6C368.91,88.37,373.49,84.21,377.3,84.14z M374.04,96.35
		c-0.69,1.25-1.25,2.5-1.6,3.75c-0.9,3.4,0.83,7.07,3.81,4.44c1.46-1.32,3.12-4.02,4.3-7.07C378.27,97.87,375.91,97.67,374.04,96.35
		z M376.26,87.96c1.87-0.28,2.08,1.53,1.94,2.57c0,0.07-2.01,2.22-3.68,4.99c1.6,1.25,3.88,1.73,6.38,1.11
		c1.46-4.16,1.87-8.67-0.55-10.68c-3.26-2.77-7.14,0.42-7.84,2.77c-0.35,1.32-0.35,2.64,0,3.74
		C374.25,89.62,375.7,88.03,376.26,87.96z"/>
	<path class="st0" d="M393.67,88.58c4.51,2.84,6.03,5.96,2.15,11.65c-4.09,5.96-4.72,15.53,0.97,10.96
		c3.33-2.7,5.83-7.35,9.99-14.36c4.02-6.8,4.99-7.91,6.8-8.88c-0.56,1.04-3.68,5.27-5.76,9.02c-4.65,8.46-9.5,16.57-13.73,16.23
		s-5.96-6.24-3.19-11.79c2.98-6.1,6.38-8.53,0.97-12c-6.87-4.44-3.26-7.98-1.6-8.95c2.01-1.18,4.99-0.69,4.99,2.29
		c0,2.22-1.53,4.09-2.7,5.13C392.9,88.1,393.25,88.3,393.67,88.58z M391.65,81.16c-1.94,0.83-2.98,3.54,0.49,6.38
		c1.18-1.39,2.01-2.84,2.22-3.68C394.84,81.99,393.25,80.47,391.65,81.16z"/>
	<path class="st0" d="M447.13,104.39c3.95-5.83,8.81-15.74,12.21-16.51c-3.47,3.95-4.37,5.76-6.38,8.95
		c-3.81,6.17-5.89,10.33-8.11,9.99c-2.5-0.42-4.79-3.68-2.22-10.68c0.07-0.28,0.21-0.55,0.28-0.83c-2.84,3.47-5.55,6.8-8.18,3.81
		c-2.7-3.05-0.07-8.53,2.43-10.82c1.8-1.66,5.2-3.12,8.81-2.22c4.02,1.04,0.97,1.04,0.97,1.04s-5.13-1.11-8.81,4.79
		c-2.7,4.37-1.18,8.32,0.97,6.31c1.18-1.11,3.75-4.37,5.76-6.94c1.04-1.66,2.15-3.68,3.19-3.68c1.04-0.07,3.61,0.28,1.32,3.19
		C443.04,98.98,442.9,110.57,447.13,104.39z"/>
	<path class="st0" d="M454.69,107.38c-0.21,2.01,0.07,3.61,1.87,1.04c5.41-7.56,12-17.96,17.55-20.39
		c-3.81,3.54-8.67,9.09-12.62,14.91c-5.41,7.98-6.17,8.46-7.7,7.63c-2.84-1.46-1.46-9.71,0.28-15.33
		c2.08-6.73,7.56-20.18,13.73-29.06c2.98-4.3,5.55-7.63,8.18-9.36c2.08-1.46,4.72-2.01,6.1,0.07c3.05,4.58-14.08,24.2-19.21,28.85
		c-0.97,0.9-1.66,1.53-2.22,1.94C456.35,97.8,455.1,103.7,454.69,107.38z M463.7,81.02c-0.83,1.73-1.6,3.4-2.29,4.92
		c2.7-2.77,7.7-8.04,10.61-11.79c6.66-8.53,8.74-12.83,9.22-14.77c1.18-4.85-3.75,0.21-5.13,1.73
		C473.83,63.68,469.39,69.3,463.7,81.02z"/>
	<path class="st0" d="M561.9,62.37c-5.06,8.32-21.15,6.24-31.35,6.24c-1.32,1.46-2.57,3.05-3.81,4.85
		c-10.19,14.91-11.65,32.8-4.09,38.77c6.66,5.27,17.34,2.77,26.84-10.06c7.49-10.13,12.41-13.66,14.77-14.22
		c-5.27,3.81-9.22,8.39-14.49,15.6c-8.39,11.58-20.6,15.4-28.78,9.5c-12.41-11.3-4.3-33.08,5.13-44.45
		c-18.31,0.83-27.32,9.5-32.25,16.09c5.13-9.71,17.2-16.02,33.08-17.06c7.21-7.84,16.64-12.62,26.08-12.76
		C558.5,54.81,565.09,57.3,561.9,62.37z M553.09,56.4c-5.55,0.21-13.73,3.12-21.71,11.3c7,0.14,16.71,0.97,22.89-1.04
		C563.22,63.75,564.6,55.92,553.09,56.4z"/>
	<path class="st0" d="M563.69,84.14c3.12-0.07,5.62,1.8,5.62,6.73c0,1.46-0.35,3.47-0.9,5.41c0.97-0.42,2.01-1.04,3.05-1.87
		c4.16-3.33,5.13-6.66,7.28-6.45c-2.29,1.73-4.23,5.76-8.11,8.11c-0.76,0.49-1.59,0.83-2.5,1.11c-1.53,4.65-4.51,9.29-7.91,9.15
		c-4.85-0.14-5.2-6.52-2.91-11.03c0.28-0.56,0.56-1.11,0.83-1.6C555.3,88.37,559.88,84.21,563.69,84.14z M560.43,96.35
		c-0.69,1.25-1.25,2.5-1.6,3.75c-0.9,3.4,0.83,7.07,3.81,4.44c1.46-1.32,3.12-4.02,4.3-7.07C564.67,97.87,562.31,97.67,560.43,96.35
		z M562.65,87.96c1.87-0.28,2.08,1.53,1.94,2.57c0,0.07-2.01,2.22-3.68,4.99c1.6,1.25,3.88,1.73,6.38,1.11
		c1.46-4.16,1.87-8.67-0.55-10.68c-3.26-2.77-7.14,0.42-7.84,2.77c-0.35,1.32-0.35,2.64,0,3.74
		C560.64,89.62,562.1,88.03,562.65,87.96z"/>
	<path class="st0" d="M581.17,90.18c0.07,2.29-0.69,3.4-1.94,6.03c2.91-4.16,9.64-10.82,14.22-12.07c2.64-0.69,3.81,1.73,3.61,3.54
		c-0.35,2.71-8.04,13.25-9.02,17.13c-1.39,5.76,2.22,3.88,3.33,3.05c3.33-2.5,9.57-13.73,12.41-16.99c3.47-4.02,4.79-2.7,4.79-2.7
		c-5.48,1.32-12.14,19-18.24,21.43c-1.8,0.76-4.58,0.28-5.41-2.64c-1.6-5.83,8.95-19.28,9.29-21.29c0.35-2.29-6.38,1.8-11.1,7.21
		c-3.19,3.68-4.85,6.45-6.24,8.6c-0.28,0.49-1.87,0.49-2.57-0.69c-0.28-0.49-1.11-1.6,1.46-6.87c2.84-5.76,1.66-5.55,1.66-5.55
		C578.05,87.47,581.1,87.96,581.17,90.18z"/>
	<path class="st0" d="M619.65,93.5c-3.54,3.4-10.33,4.23-12.55,3.4c4.79,3.19,4.02,19.83-2.77,19.21
		c-4.51-0.42-4.44-7.49-2.29-16.09c2.29-9.08,8.88-25.52,17.55-36.69c3.05-3.95,9.22-8.11,11.03-3.54
		c2.22,5.69-17.68,26.01-21.01,28.71c-0.49,1.18-0.97,2.29-1.39,3.47c-0.55,1.46-1.11,2.84-1.53,4.23
		c9.71,0.97,13.11-3.33,16.51-8.18C622.36,90.45,621.53,91.7,619.65,93.5z M603.5,111.67c-0.07,3.68,1.53,4.65,3.33,2.43
		c2.91-3.61,3.61-12.55-0.42-16.85C604.4,103.63,603.57,108.62,603.5,111.67z M629.85,61.12c0-2.15-3.54-1.04-6.52,2.84
		c-3.88,4.99-8.81,13.59-12.83,22.61C615.15,82.69,629.85,65.42,629.85,61.12z"/>
	<path class="st0" d="M628.81,96.21c-3.19,4.23-5.69,6.87-8.39,6.03c-4.3-1.39-0.69-12.14,2.36-14.15c1.39-0.69,2.08,0.07,1.87,1.18
		c-0.28,1.73-2.15,4.3-2.91,7.35c-0.56,2.29-1.25,4.92,0.49,4.72c2.15-0.21,6.1-6.31,8.88-9.71c2.29-2.84,2.98-3.68,4.44-3.68
		C633.45,89,631.72,92.4,628.81,96.21z M625.48,85.18c-0.83-0.28-0.9-0.76-0.28-1.94c0.69-1.32,0.28-1.59,1.39-2.22
		c0.76-0.42,3.26-0.14,2.43,1.6C628.11,84.49,626.45,85.46,625.48,85.18z"/>
	<path class="st0" d="M636.78,88.58c4.51,2.84,6.03,5.96,2.15,11.65c-4.09,5.96-4.72,15.53,0.97,10.96
		c3.33-2.7,5.83-7.35,9.99-14.36c4.02-6.8,4.99-7.91,6.8-8.88c-0.55,1.04-3.68,5.27-5.76,9.02c-4.65,8.46-9.5,16.57-13.73,16.23
		c-4.23-0.35-5.96-6.24-3.19-11.79c2.98-6.1,6.38-8.53,0.97-12c-6.87-4.44-3.26-7.98-1.59-8.95c2.01-1.18,4.99-0.69,4.99,2.29
		c0,2.22-1.53,4.09-2.71,5.13C636.02,88.1,636.36,88.3,636.78,88.58z M634.77,81.16c-1.94,0.83-2.98,3.54,0.49,6.38
		c1.18-1.39,2.01-2.84,2.22-3.68C637.96,81.99,636.36,80.47,634.77,81.16z"/>
	<path class="st0" d="M659.39,91.01c0.07,1.46-1.6,4.79-1.87,5.41c0.21,0,0.76-0.97,2.29-2.84c1.94-2.43,3.95-4.02,5.48-3.81
		c2.22,0.76,2.36,2.57,1.46,4.72s-1.87,6.1,0.21,3.54c1.67-2.01,8.74-11.3,11.65-12.69c2.36-1.11,5.06,0.62,3.61,5.13
		c-0.49,1.66-2.08,4.65-4.79,8.67c-4.02,5.96-4.02,12,0.35,8.46c6.73-5.34,9.5-19.83,15.88-19.63c-5.2,2.36-7.21,9.09-9.5,12.97
		c-4.3,7.42-7.91,9.78-10.47,7.98c-2.64-1.8-3.26-4.92-0.14-9.99c4.3-6.94,7.84-15.33,4.65-12.62c-4.51,3.81-9.64,11.23-10.96,12.62
		c-1.18,1.25-2.5,1.25-3.4,0.35c-0.76-0.83-1.18-2.57,0.49-6.73c1.53-3.75-0.49-1.94-2.15-0.49c-2.98,2.7-6.87,10.33-7.77,11.79
		c-1.53,2.43-3.67-0.62-2.77-3.12c0.14-0.42,5.06-11.3,4.51-12.55C656.82,87.75,659.25,87.61,659.39,91.01z"/>
	<path class="st0" d="M701.55,104.39c3.95-5.83,8.81-15.74,12.21-16.51c-3.47,3.95-4.37,5.76-6.38,8.95
		c-3.81,6.17-5.89,10.33-8.11,9.99c-2.5-0.42-4.79-3.68-2.22-10.68c0.07-0.28,0.21-0.55,0.28-0.83c-2.84,3.47-5.55,6.8-8.18,3.81
		c-2.7-3.05-0.07-8.53,2.43-10.82c1.8-1.66,5.2-3.12,8.81-2.22c4.02,1.04,0.97,1.04,0.97,1.04s-5.13-1.11-8.81,4.79
		c-2.71,4.37-1.18,8.32,0.97,6.31c1.18-1.11,3.75-4.37,5.76-6.94c1.04-1.66,2.15-3.68,3.19-3.68c1.04-0.07,3.61,0.28,1.32,3.19
		C697.46,98.98,697.32,110.57,701.55,104.39z"/>
	<path class="st0" d="M715.14,88.58c4.51,2.84,6.03,5.96,2.15,11.65c-4.09,5.96-4.72,15.53,0.97,10.96
		c3.33-2.7,5.83-7.35,9.99-14.36c4.02-6.8,4.99-7.91,6.8-8.88c-0.55,1.04-3.68,5.27-5.76,9.02c-4.65,8.46-9.5,16.57-13.73,16.23
		c-4.23-0.35-5.96-6.24-3.19-11.79c2.98-6.1,6.38-8.53,0.97-12c-6.87-4.44-3.26-7.98-1.59-8.95c2.01-1.18,4.99-0.69,4.99,2.29
		c0,2.22-1.53,4.09-2.71,5.13C714.38,88.1,714.72,88.3,715.14,88.58z M713.13,81.16c-1.94,0.83-2.98,3.54,0.49,6.38
		c1.18-1.39,2.01-2.84,2.22-3.68C716.32,81.99,714.72,80.47,713.13,81.16z"/>
	<path class="st0" d="M784.62,70.9c-10.13,1.39-25.59,6.73-28.92,20.67c1.66-13.32,16.09-19.42,26.56-21.15
		c2.5-0.42,5.13-0.69,7.84-0.9c7.84-8.81,17.2-12.55,21.92-13.52c14.36-3.05,20.87,4.51,12.9,10.4c-5.41,3.95-18.93,3.33-31.14,3.81
		c-7.35,8.25-10.26,16.71-10.4,25.52c-0.14,9.02,3.75,15.26,14.36,8.04c12.97-8.74,20.39-28.57,22.05-31.07
		c1.04-1.53,3.61,0.97,2.98,2.36c-1.25,2.5-4.92,9.92-6.93,16.71c-6.03,20.46,5.89,29.82,23.3,25.24c6.03-1.6,13.66-7.49,13.66-7.49
		c-11.24,11.03-32.32,13.87-39.53-0.14c-3.4-6.66-2.84-14.7,0.28-22.68c-3.61,8.46-12.07,17.06-18.66,19.9
		c-9.64,4.09-13.32-0.55-14.63-7.07c-0.56-2.71-2.15-9.15,4.23-22.26c1.46-2.57,3.12-4.85,4.86-6.87
		C787.67,70.48,786.15,70.69,784.62,70.9z M796.76,67.15c-0.76,0.69-1.39,1.39-2.08,2.08c10.75-0.49,21.43-0.14,25.73-1.73
		c10.96-4.09,6.8-10.26-0.14-10.96C812.71,55.85,802.65,61.46,796.76,67.15z"/>
	<path class="st0" d="M830.73,88.51c-0.28,0.97-0.28,2.43,0.62,3.95c1.25,2.15,2.57,3.95,3.12,5.62c6.94-3.4,8.6-5.41,12.14-10.06
		c-1.53,4.72-6.38,8.11-11.93,10.75c1.04,3.26,0.9,5.9-1.18,9.15c-3.54,5.62-11.1,7.42-13.52,4.44c-3.33-4.16,1.94-8.67,9.64-12.14
		c1.11-0.49,2.01-0.97,2.91-1.39c-0.21-1.32-0.76-2.64-1.67-4.09c-3.33-5.2-2.77-5.83-2.7-7c0.14-2.22,2.77-4.51,2.77-4.51
		c1.53-1.11,1.94,1.11,1.6,2.43C831.77,86.57,831.01,87.61,830.73,88.51z M831.63,99.95c-6.45,2.77-12.14,6.45-11.65,9.99
		c0.35,2.43,2.43,3.19,4.99,1.73c2.63-1.46,8.25-6.03,7.7-12.07C832.33,99.75,831.98,99.82,831.63,99.95z"/>
	<path class="st0" d="M851.95,96.21c-3.19,4.23-5.69,6.87-8.39,6.03c-4.3-1.39-0.69-12.14,2.36-14.15c1.39-0.69,2.08,0.07,1.87,1.18
		c-0.28,1.73-2.15,4.3-2.91,7.35c-0.56,2.29-1.25,4.92,0.49,4.72c2.15-0.21,6.1-6.31,8.88-9.71c2.29-2.84,2.98-3.68,4.44-3.68
		C856.6,89,854.87,92.4,851.95,96.21z M848.62,85.18c-0.83-0.28-0.9-0.76-0.28-1.94c0.69-1.32,0.28-1.59,1.39-2.22
		c0.76-0.42,3.26-0.14,2.43,1.6C851.26,84.49,849.59,85.46,848.62,85.18z"/>
	<path class="st0" d="M858.96,88.51c-0.28,0.97-0.28,2.43,0.62,3.95c1.25,2.15,2.57,3.95,3.12,5.62c6.94-3.4,8.6-5.41,12.14-10.06
		c-1.53,4.72-6.38,8.11-11.93,10.75c1.04,3.26,0.9,5.9-1.18,9.15c-3.54,5.62-11.1,7.42-13.52,4.44c-3.33-4.16,1.94-8.67,9.64-12.14
		c1.11-0.49,2.01-0.97,2.91-1.39c-0.21-1.32-0.76-2.64-1.67-4.09c-3.33-5.2-2.77-5.83-2.7-7c0.14-2.22,2.77-4.51,2.77-4.51
		c1.53-1.11,1.94,1.11,1.6,2.43C860,86.57,859.23,87.61,858.96,88.51z M859.86,99.95c-6.45,2.77-12.14,6.45-11.65,9.99
		c0.35,2.43,2.43,3.19,4.99,1.73c2.63-1.46,8.25-6.03,7.7-12.07C860.55,99.75,860.2,99.82,859.86,99.95z"/>
	<path class="st0" d="M858.33,61.12c-1.73,1.18-3.19,3.47-1.32,5.34c3.33,3.33,12.9,2.98,24.27,1.8c2.91-5.41,4.51-6.87,4.51-6.87
		c0.69-1.11,2.98,1.39,2.29,2.57c-0.76,1.25-1.53,2.5-2.29,3.81c15.81-1.87,33.71-4.79,42.58-2.08c3.33,1.04,4.58,2.22,4.23,3.88
		c-0.14,0.9-1.11,1.46-1.53,0.55c-0.35-0.76,1.46-2.57-3.12-3.88c-9.15-2.57-26.91,0.42-42.65,2.29
		c-4.58,7.84-9.36,17.75-13.32,31.76c-2.84,10.06-0.28,14.63,4.3,8.88c5.13-6.45,10.06-20.32,15.54-21.22
		c-4.37,3.88-5.9,6.8-9.99,14.43c-5.76,10.82-9.02,11.44-11.3,9.57c-2.91-2.36-4.44-8.39,3.12-27.12
		c2.91-7.14,5.34-12.28,7.21-15.81c-11.44,1.18-21.08,1.39-24.55-2.29c-1.73-1.87-1.04-5.13,1.25-6.66
		C858.26,59.59,860.13,59.94,858.33,61.12z"/>
	<path class="st0" d="M888.63,94.96c-1.11,5.34,1.8,7.42,4.85,6.17c5.13-2.01,9.99-13.25,13.59-13.18c-3.54,3.26-3.81,4.3-6.24,7.42
		c-3.19,4.09-6.52,7.63-10.47,7.21c-5.2-0.55-5.83-7.07-4.51-10.13c1.39-3.19,4.16-6.8,8.53-7.07c3.61-0.21,4.99,3.19,1.53,6.1
		c-2.08,1.73-5.13,2.57-7.14,2.91C888.77,94.54,888.63,94.82,888.63,94.96z M891.61,92.95c5.62-1.87,6.59-6.1,3.68-5.41
		c0,0-4.58,0.56-6.31,6.1C889.67,93.5,890.64,93.3,891.61,92.95z"/>
	<path class="st0" d="M909.85,90.18c0.07,2.29-0.69,3.4-1.94,6.03c2.91-4.16,9.64-10.82,14.22-12.07c2.64-0.69,3.81,1.73,3.61,3.54
		c-0.35,2.71-8.04,13.25-9.02,17.13c-1.39,5.76,2.22,3.88,3.33,3.05c3.33-2.5,9.57-13.73,12.41-16.99c3.47-4.02,4.79-2.7,4.79-2.7
		c-5.48,1.32-12.14,19-18.24,21.43c-1.8,0.76-4.58,0.28-5.41-2.64c-1.59-5.83,8.95-19.28,9.29-21.29c0.35-2.29-6.38,1.8-11.1,7.21
		c-3.19,3.68-4.85,6.45-6.24,8.6c-0.28,0.49-1.87,0.49-2.57-0.69c-0.28-0.49-1.11-1.6,1.46-6.87c2.84-5.76,1.67-5.55,1.67-5.55
		C906.73,87.47,909.78,87.96,909.85,90.18z"/>
	<path class="st0" d="M934.95,93.37c-1.8,2.43-3.12,5.41-2.29,8.88c0.35,1.66,2.91,2.84,5.89,0.9c5.76-3.74,10.96-12.97,15.4-15.19
		c-3.19,2.64-6.59,8.18-11.58,13.04c-4.58,4.44-7.98,5.55-10.82,3.19c-3.33-2.77-2.22-9.57,0.55-12.97
		c3.19-3.95,7.07-6.03,10.68-4.99c3.81,1.04,2.43,4.23,1.32,5.83c-1.11,1.6-2.71,3.05-4.23,1.8c-1.53-1.25,0.55-2.57,0.97-2.43
		s1.8,0,2.77-1.11c1.32-1.46,0.21-2.64-1.46-2.36C941.13,88.1,938.21,89,934.95,93.37z"/>
	<path class="st0" d="M958.46,96.21c-3.19,4.23-5.69,6.87-8.39,6.03c-4.3-1.39-0.69-12.14,2.36-14.15c1.39-0.69,2.08,0.07,1.87,1.18
		c-0.28,1.73-2.15,4.3-2.91,7.35c-0.56,2.29-1.25,4.92,0.49,4.72c2.15-0.21,6.1-6.31,8.88-9.71c2.29-2.84,2.98-3.68,4.44-3.68
		C963.11,89,961.38,92.4,958.46,96.21z M955.13,85.18c-0.83-0.28-0.9-0.76-0.28-1.94c0.69-1.32,0.28-1.59,1.39-2.22
		c0.76-0.42,3.26-0.14,2.43,1.6C957.77,84.49,956.1,85.46,955.13,85.18z"/>
	<path class="st0" d="M973.23,104.39c3.95-5.83,8.81-15.74,12.21-16.51c-3.47,3.95-4.37,5.76-6.38,8.95
		c-3.81,6.17-5.89,10.33-8.11,9.99c-2.5-0.42-4.79-3.68-2.22-10.68c0.07-0.28,0.21-0.55,0.28-0.83c-2.84,3.47-5.55,6.8-8.18,3.81
		c-2.71-3.05-0.07-8.53,2.43-10.82c1.8-1.66,5.2-3.12,8.81-2.22c4.02,1.04,0.97,1.04,0.97,1.04s-5.13-1.11-8.81,4.79
		c-2.71,4.37-1.18,8.32,0.97,6.31c1.18-1.11,3.75-4.37,5.76-6.94c1.04-1.66,2.15-3.68,3.19-3.68c1.04-0.07,3.61,0.28,1.32,3.19
		C969.14,98.98,969,110.57,973.23,104.39z"/>
</g>
<g>
	<path class="st0" d="M352.2,153.44c0.54,0,1.11-0.07,1.75-0.17c1.72,5.13,4.35,11.98,7.69,19.94c2.16-4.89,5.9-14.78,7.66-19.94
		c0.4,0.1,0.81,0.17,1.25,0.17c0.44,0,0.84-0.07,1.25-0.17c-3.64,7.96-6.75,15.49-9.72,23.28c-0.4-0.1-0.74-0.17-1.11-0.17
		c-0.4,0-0.78,0.07-1.11,0.17c-2.09-5.5-6.01-15.18-9.41-23.28C351.08,153.37,351.66,153.44,352.2,153.44z"/>
	<path class="st0" d="M386.41,167v0.57l-0.07,0.71c-2.02-0.03-4.22-0.1-6.61-0.1c-1.62,0-3.31,0.07-5.03,0.1
		c-0.03,0.17-0.03,0.64-0.03,0.74c0,4.18,2.43,6.44,5.8,6.44c1.72,0,3.78-0.94,5.09-2.4l0.17,0.1l-0.2,1.65
		c-1.75,1.35-3.88,2.06-5.67,2.06c-4.69,0-8.16-3.34-8.16-7.96c0-5.53,2.83-8.84,7.73-8.84C383.75,160.08,386.41,162.82,386.41,167z
		 M379.16,167.1c1.18,0,3.17-0.1,4.49-0.1c-0.03-3.88-1.42-5.84-4.15-5.84c-2.6,0-4.35,2.19-4.72,5.84
		C376.09,167,378.62,167.1,379.16,167.1z"/>
	<path class="st0" d="M398.15,160.29c-0.1,0.24-0.24,0.81-0.24,2.26v0.47l-0.24,0.17c-0.37-0.37-1.08-0.54-1.65-0.54
		c-2.16,0-3.44,2.02-3.44,4.62v4.59c0,2.02,0.03,3.58,0.14,4.69c-0.51-0.1-0.94-0.17-1.35-0.17c-0.44,0-0.88,0.07-1.42,0.17
		c0.1-0.91,0.14-2.02,0.14-3.61v-7.52c0-1.45-0.03-3.98-0.14-4.99c0.64,0.13,1.01,0.17,1.42,0.17s0.84-0.07,1.35-0.17l-0.14,1.69
		c-0.03,0.37-0.03,0.91-0.03,1.59l0.07,0.03c1.32-2.43,2.87-3.64,4.49-3.64C397.51,160.08,397.75,160.15,398.15,160.29z"/>
	<path class="st0" d="M405.04,154.55c0,0.94-0.78,1.72-1.72,1.72s-1.72-0.78-1.72-1.72c0-0.98,0.81-1.72,1.72-1.72
		S405.04,153.57,405.04,154.55z M403.32,160.59c0.51,0,0.94-0.03,1.52-0.17c-0.17,1.52-0.27,4.52-0.27,5.97v4.18
		c0,2.29,0.1,4.25,0.27,5.97c-0.57-0.1-1.08-0.17-1.52-0.17c-0.51,0-0.98,0.07-1.52,0.17c0.27-2.12,0.27-4.59,0.27-5.94v-4.55
		c0-2.02-0.1-3.88-0.27-5.63C402.37,160.56,402.88,160.59,403.32,160.59z"/>
	<path class="st0" d="M418.06,151.01c-0.03,1.05-0.13,1.72-0.13,2.7l-0.2,0.1c-0.54-0.34-1.15-0.51-1.86-0.51
		c-1.75,0-2.77,1.32-2.77,3.37c0,0.81,0.27,3.07,0.37,3.71l0.03,0.24c2.13,0,3.04-0.03,3.48-0.03c-0.03,0.24-0.07,0.34-0.07,0.57
		c0,0.27,0.03,0.51,0.07,0.78c-1.45-0.03-2.53-0.1-3.48-0.1v2.6c0,4.62,0.03,8.3,0.14,12.11c-0.51-0.1-0.94-0.17-1.45-0.17
		c-0.51,0-0.94,0.07-1.48,0.17c0.3-4.89,0.3-9.45,0.3-14.71c-0.78,0-1.52,0.07-2.43,0.1c0.1-0.3,0.07-0.44,0.07-0.67
		s-0.03-0.4-0.07-0.67l2.43,0.03c0.03-2.06,0.51-3.68,1.18-5.4c1.35-3.37,3.78-4.32,5.16-4.32
		C417.62,150.91,417.89,150.97,418.06,151.01z M424.2,154.55c0,0.94-0.78,1.72-1.72,1.72c-0.94,0-1.72-0.78-1.72-1.72
		c0-0.98,0.81-1.72,1.72-1.72C423.39,152.83,424.2,153.57,424.2,154.55z M422.48,160.59c0.51,0,0.94-0.03,1.52-0.17
		c-0.17,1.52-0.27,4.52-0.27,5.97v4.18c0,2.29,0.1,4.25,0.27,5.97c-0.57-0.1-1.08-0.17-1.52-0.17c-0.51,0-0.98,0.07-1.52,0.17
		c0.27-2.12,0.27-4.59,0.27-5.94v-4.55c0-2.02-0.1-3.88-0.27-5.63C421.54,160.56,422.04,160.59,422.48,160.59z"/>
	<path class="st0" d="M440.77,163.73h0.07c0-1.08-0.1-2.13-0.27-3.31c0.57,0.13,1.08,0.17,1.52,0.17c0.51,0,0.94-0.03,1.52-0.17
		c-0.17,1.75-0.27,7.69-0.27,9.31v6.51c0,1.55,0.1,7.62,0.27,9.18c-0.57-0.1-1.08-0.17-1.52-0.17c-0.51,0-0.98,0.07-1.52,0.17
		c0.27-2.7,0.27-7.93,0.27-9.18v-3.07h-0.07c-1.32,2.56-3.31,3.71-5.5,3.71c-3.61,0-7.08-2.4-7.08-8.3c0-5.7,3.61-8.5,7.08-8.5
		C437.87,160.08,439.83,161.26,440.77,163.73z M435.68,175.64c3.17,0,5.16-3.34,5.16-7.49c0-4.05-1.75-6.65-4.89-6.65
		c-2.97,0-4.79,2.56-4.79,7.32C431.16,173.04,432.84,175.64,435.68,175.64z"/>
	<path class="st0" d="M448.13,160.42c0.57,0.1,1.05,0.17,1.42,0.17c0.4,0,0.84-0.07,1.38-0.17c-0.24,2.83-0.34,6.27-0.34,9.38
		c0,0.84,0,2.94,0.98,3.98c0.64,0.78,1.65,1.35,2.97,1.35c1.86,0,2.94-0.81,3.58-1.86c0.81-1.35,0.88-2.36,0.88-6
		c0-3.41-0.03-6.14-0.07-6.85c0.57,0.13,0.98,0.17,1.42,0.17c0.51,0,0.88-0.03,1.38-0.17c-0.13,2.16-0.24,5.5-0.24,10.12
		c0,2.6,0.03,4.42,0.14,6c-0.51-0.1-0.94-0.17-1.32-0.17s-0.81,0.07-1.32,0.17c0.03-0.44,0.07-1.18,0.07-1.69v-1.21h-0.07
		c-1.18,2.16-3.1,3.24-5.26,3.24c-3.51,0-5.63-1.89-5.63-5.67c0-1.38,0.1-4.49,0.1-5.57C448.2,163.9,448.16,162.18,448.13,160.42z"
		/>
	<path class="st0" d="M480.18,167v0.57l-0.07,0.71c-2.02-0.03-4.22-0.1-6.61-0.1c-1.62,0-3.31,0.07-5.03,0.1
		c-0.03,0.17-0.03,0.64-0.03,0.74c0,4.18,2.43,6.44,5.8,6.44c1.72,0,3.78-0.94,5.09-2.4l0.17,0.1l-0.2,1.65
		c-1.75,1.35-3.88,2.06-5.67,2.06c-4.69,0-8.16-3.34-8.16-7.96c0-5.53,2.83-8.84,7.73-8.84C477.52,160.08,480.18,162.82,480.18,167z
		 M472.93,167.1c1.18,0,3.17-0.1,4.49-0.1c-0.03-3.88-1.42-5.84-4.15-5.84c-2.6,0-4.35,2.19-4.72,5.84
		C469.86,167,472.39,167.1,472.93,167.1z"/>
	<path class="st0" d="M504.55,163.73h0.07c0-1.08-0.1-2.13-0.27-3.31c0.57,0.13,1.08,0.17,1.52,0.17c0.51,0,0.94-0.03,1.52-0.17
		c-0.17,1.75-0.27,7.69-0.27,9.31v6.51c0,1.55,0.1,7.62,0.27,9.18c-0.57-0.1-1.08-0.17-1.52-0.17c-0.51,0-0.98,0.07-1.52,0.17
		c0.27-2.7,0.27-7.93,0.27-9.18v-3.07h-0.07c-1.32,2.56-3.31,3.71-5.5,3.71c-3.61,0-7.08-2.4-7.08-8.3c0-5.7,3.61-8.5,7.08-8.5
		C501.65,160.08,503.6,161.26,504.55,163.73z M499.45,175.64c3.17,0,5.16-3.34,5.16-7.49c0-4.05-1.75-6.65-4.89-6.65
		c-2.97,0-4.79,2.56-4.79,7.32C494.93,173.04,496.62,175.64,499.45,175.64z"/>
	<path class="st0" d="M511.91,160.42c0.57,0.1,1.05,0.17,1.42,0.17c0.4,0,0.84-0.07,1.38-0.17c-0.24,2.83-0.34,6.27-0.34,9.38
		c0,0.84,0,2.94,0.98,3.98c0.64,0.78,1.65,1.35,2.97,1.35c1.86,0,2.94-0.81,3.58-1.86c0.81-1.35,0.88-2.36,0.88-6
		c0-3.41-0.03-6.14-0.07-6.85c0.57,0.13,0.98,0.17,1.42,0.17c0.51,0,0.88-0.03,1.38-0.17c-0.13,2.16-0.24,5.5-0.24,10.12
		c0,2.6,0.03,4.42,0.14,6c-0.51-0.1-0.94-0.17-1.32-0.17s-0.81,0.07-1.32,0.17c0.03-0.44,0.07-1.18,0.07-1.69v-1.21h-0.07
		c-1.18,2.16-3.1,3.24-5.26,3.24c-3.51,0-5.63-1.89-5.63-5.67c0-1.38,0.1-4.49,0.1-5.57C511.97,163.9,511.94,162.18,511.91,160.42z"
		/>
	<path class="st0" d="M543.96,167v0.57l-0.07,0.71c-2.02-0.03-4.22-0.1-6.61-0.1c-1.62,0-3.31,0.07-5.03,0.1
		c-0.03,0.17-0.03,0.64-0.03,0.74c0,4.18,2.43,6.44,5.8,6.44c1.72,0,3.78-0.94,5.09-2.4l0.17,0.1l-0.2,1.65
		c-1.75,1.35-3.88,2.06-5.67,2.06c-4.69,0-8.16-3.34-8.16-7.96c0-5.53,2.83-8.84,7.73-8.84C541.3,160.08,543.96,162.82,543.96,167z
		 M536.71,167.1c1.18,0,3.17-0.1,4.49-0.1c-0.03-3.88-1.42-5.84-4.15-5.84c-2.6,0-4.35,2.19-4.72,5.84
		C533.64,167,536.17,167.1,536.71,167.1z"/>
	<path class="st0" d="M559.79,155.9h0.17c-0.14,1.75-0.17,3.1-0.27,4.99c0.91,0,2.6-0.1,3.58-0.1c-0.03,0.13-0.03,0.74-0.03,0.84
		c0,0.3,0,0.47,0.03,0.57c-0.78-0.03-1.96-0.07-2.4-0.07h-1.18c-0.1,0.94-0.24,6.58-0.24,8.67c0,2.56,0.17,4.99,2.7,4.99
		c0.51,0,1.15-0.1,1.55-0.24v0.81c-0.84,0.3-1.79,0.51-2.6,0.51c-2.77,0-4.15-1.42-4.15-4.28c0-1.52,0.2-5.43,0.24-10.46
		c-1.18,0-1.92,0.03-2.29,0.07c0.1-0.37,0.07-0.51,0.07-0.78c0-0.24-0.03-0.44-0.07-0.67c1.21,0.1,1.86,0.1,2.23,0.1l-0.14-3.78
		L559.79,155.9z"/>
	<path class="st0" d="M579.59,167v0.57l-0.07,0.71c-2.02-0.03-4.22-0.1-6.61-0.1c-1.62,0-3.31,0.07-5.03,0.1
		c-0.03,0.17-0.03,0.64-0.03,0.74c0,4.18,2.43,6.44,5.8,6.44c1.72,0,3.78-0.94,5.09-2.4l0.17,0.1l-0.2,1.65
		c-1.75,1.35-3.88,2.06-5.67,2.06c-4.69,0-8.16-3.34-8.16-7.96c0-5.53,2.83-8.84,7.73-8.84C576.93,160.08,579.59,162.82,579.59,167z
		 M572.34,167.1c1.18,0,3.17-0.1,4.49-0.1c-0.03-3.88-1.42-5.84-4.15-5.84c-2.6,0-4.35,2.19-4.72,5.84
		C569.27,167,571.8,167.1,572.34,167.1z"/>
	<path class="st0" d="M596.77,166.06c0,1.79-0.13,3.75-0.13,6.31c0,2.97,0.07,3.58,0.07,4.18c-0.57-0.13-0.98-0.17-1.42-0.17
		s-0.84,0.03-1.38,0.17c0-1.92,0.24-4.96,0.24-7.15v-2.6c0-2.8-1.25-4.96-3.71-4.96c-2.97,0-4.52,1.89-4.52,5.4v4.05
		c0,1.45,0.1,3.74,0.27,5.26c-0.54-0.1-1.01-0.17-1.52-0.17c-0.51,0-0.98,0.07-1.52,0.17c0.27-2.12,0.27-4.59,0.27-5.94v-4.55
		c0-2.02-0.1-3.88-0.27-5.63c0.57,0.13,1.08,0.17,1.52,0.17c0.34,0,0.78-0.07,1.35-0.17c-0.03,0.57-0.1,1.89-0.1,2.7h0.07
		c1.25-1.92,2.94-3.04,5.36-3.04C594.71,160.08,596.77,162.01,596.77,166.06z"/>
	<path class="st0" d="M612.66,160.35c1.05,0,2.13-0.07,2.63-0.17c-0.03,0.24-0.07,0.54-0.07,0.71c0,0.24,0.03,0.47,0.07,0.71
		c-1.38-0.1-2.53-0.24-3.74-0.27l-0.07,0.07c1.45,0.81,2.33,2.63,2.33,4.28c0,3.37-2.46,5.36-6.27,5.36c-0.57,0-1.25-0.07-1.82-0.07
		c-0.84,0-1.69,0.67-1.69,1.59c0,1.38,0.81,1.69,1.99,1.69c0.17,0,3.27,0.1,3.71,0.1c3,0.1,5.77,1.15,5.77,4.39
		c0,3.1-2.5,6.78-7.93,6.78c-4.42,0-7.12-1.86-7.12-4.86c0-2.16,1.42-3.74,3.61-4.45v-0.07c-1.38-0.4-2.13-1.38-2.13-2.7
		s1.01-2.5,2.4-2.8v-0.07c-2.06-0.91-3.31-2.53-3.31-4.99c0-3.37,2.43-5.5,6.48-5.5C608.14,160.08,612.12,160.35,612.66,160.35z
		 M607.57,184.54c3.14,0,5.43-1.72,5.43-4.42c0-2.56-1.38-3.74-5.13-3.74c-3.64,0-5.26,1.32-5.26,3.91
		C602.61,183.13,604.43,184.54,607.57,184.54z M607.47,170.17c2.4,0,3.71-1.92,3.71-4.76c0-2.7-1.42-4.35-3.71-4.35
		c-2.29,0-3.81,1.69-3.81,4.52C603.66,168.55,605.04,170.17,607.47,170.17z"/>
	<path class="st0" d="M630.01,165.14c0,2.29-0.13,5.09-0.13,7.66c0,1.72,0.13,2.63,1.32,2.63c0.24,0,0.4,0,0.71-0.13v0.74
		c-0.54,0.24-1.32,0.47-2.16,0.47c-1.25,0-2.16-0.74-2.33-2.09c-1.89,1.89-3.24,2.46-5.3,2.46c-2.33,0-4.49-1.69-4.49-4.15
		s1.55-3.98,4.25-4.52c1.32-0.27,2.77-0.4,4.01-0.78c1.32-0.37,1.55-0.61,1.55-1.69c0-2.7-1.28-4.25-3.71-4.25
		c-1.75,0-3.41,0.81-4.25,2.29h-0.37v-1.75c1.75-1.32,3.27-1.96,5.43-1.96C627.68,160.08,630.01,161.94,630.01,165.14z
		 M623.33,175.47c1.48,0,3.04-0.84,3.98-2.36l0.13-5.06c-0.3,0.1-1.18,0.3-2.8,0.61c-3.1,0.57-4.25,1.75-4.25,3.61
		C620.39,174.25,621.71,175.47,623.33,175.47z"/>
	<path class="st0" d="M656.26,165.14c0,2.29-0.13,5.09-0.13,7.66c0,1.72,0.13,2.63,1.32,2.63c0.24,0,0.4,0,0.71-0.13v0.74
		c-0.54,0.24-1.32,0.47-2.16,0.47c-1.25,0-2.16-0.74-2.33-2.09c-1.89,1.89-3.24,2.46-5.3,2.46c-2.33,0-4.49-1.69-4.49-4.15
		s1.55-3.98,4.25-4.52c1.32-0.27,2.77-0.4,4.01-0.78c1.32-0.37,1.55-0.61,1.55-1.69c0-2.7-1.28-4.25-3.71-4.25
		c-1.75,0-3.41,0.81-4.25,2.29h-0.37v-1.75c1.75-1.32,3.27-1.96,5.43-1.96C653.93,160.08,656.26,161.94,656.26,165.14z
		 M649.58,175.47c1.48,0,3.04-0.84,3.98-2.36l0.13-5.06c-0.3,0.1-1.18,0.3-2.8,0.61c-3.1,0.57-4.25,1.75-4.25,3.61
		C646.65,174.25,647.96,175.47,649.58,175.47z"/>
	<path class="st0" d="M674.79,161.57c-0.3,0.78-0.57,1.42-0.74,2.23h-0.27c-0.98-1.65-2.6-2.63-4.35-2.63c-3.68,0-5.7,2.67-5.7,7.29
		c0,4.72,2.06,7.02,5.84,7.02c1.59,0,3.75-0.88,5.06-2.4l0.17,0.1c-0.1,0.54-0.17,0.98-0.2,1.65c-1.72,1.32-3.81,2.06-5.6,2.06
		c-4.79,0-8.23-3.14-8.23-8.4c0-5.53,3.95-8.4,8.6-8.4C671.62,160.08,673.88,160.76,674.79,161.57z"/>
	<path class="st0" d="M691.66,161.57c-0.3,0.78-0.57,1.42-0.74,2.23h-0.27c-0.98-1.65-2.6-2.63-4.35-2.63c-3.68,0-5.7,2.67-5.7,7.29
		c0,4.72,2.06,7.02,5.84,7.02c1.59,0,3.75-0.88,5.06-2.4l0.17,0.1c-0.1,0.54-0.17,0.98-0.2,1.65c-1.72,1.32-3.81,2.06-5.6,2.06
		c-4.79,0-8.23-3.14-8.23-8.4c0-5.53,3.95-8.4,8.6-8.4C688.49,160.08,690.75,160.76,691.66,161.57z"/>
	<path class="st0" d="M708.97,167v0.57l-0.07,0.71c-2.02-0.03-4.22-0.1-6.61-0.1c-1.62,0-3.31,0.07-5.03,0.1
		c-0.03,0.17-0.03,0.64-0.03,0.74c0,4.18,2.43,6.44,5.8,6.44c1.72,0,3.78-0.94,5.09-2.4l0.17,0.1l-0.2,1.65
		c-1.75,1.35-3.88,2.06-5.67,2.06c-4.69,0-8.16-3.34-8.16-7.96c0-5.53,2.83-8.84,7.73-8.84C706.3,160.08,708.97,162.82,708.97,167z
		 M701.72,167.1c1.18,0,3.17-0.1,4.49-0.1c-0.03-3.88-1.42-5.84-4.15-5.84c-2.6,0-4.35,2.19-4.72,5.84
		C698.65,167,701.18,167.1,701.72,167.1z"/>
	<path class="st0" d="M720.82,161.03c-0.44,0.81-0.78,2.02-0.81,2.4h-0.41c-0.44-1.32-1.62-2.09-2.97-2.09
		c-1.59,0-2.87,1.11-2.87,2.83c0,1.48,0.91,2.33,2.83,2.87c2.83,0.81,5.13,1.38,5.13,4.49c0,2.73-2.43,5.36-6.11,5.36
		c-1.89,0-3.1-0.44-4.32-1.11c0.37-0.81,0.64-1.92,0.64-2.46h0.41c0.71,1.32,2.23,2.33,3.81,2.33c1.89,0,3.27-1.15,3.27-3.04
		c0-1.45-0.98-2.26-3-2.83c-2.97-0.81-4.96-1.62-4.96-4.59c0-3.1,2.23-5.09,5.6-5.09C718.79,160.08,720.38,160.93,720.82,161.03z"/>
	<path class="st0" d="M740.66,168.48c0,5.57-3.68,8.4-8.16,8.4c-4.72,0-8.23-3.04-8.23-8.2c0-6.88,4.76-8.6,8.17-8.6
		C737.15,160.08,740.66,163.09,740.66,168.48z M732.46,175.81c3.41,0,5.23-2.6,5.23-7.32c0-4.69-1.75-7.32-5.26-7.32
		c-3.37,0-5.2,2.56-5.2,7.32C727.23,173.21,729.08,175.81,732.46,175.81z"/>
	<path class="st0" d="M765.02,165.14c0,2.29-0.13,5.09-0.13,7.66c0,1.72,0.13,2.63,1.32,2.63c0.24,0,0.41,0,0.71-0.13v0.74
		c-0.54,0.24-1.32,0.47-2.16,0.47c-1.25,0-2.16-0.74-2.33-2.09c-1.89,1.89-3.24,2.46-5.3,2.46c-2.33,0-4.49-1.69-4.49-4.15
		s1.55-3.98,4.25-4.52c1.32-0.27,2.77-0.4,4.01-0.78c1.32-0.37,1.55-0.61,1.55-1.69c0-2.7-1.28-4.25-3.71-4.25
		c-1.75,0-3.41,0.81-4.25,2.29h-0.37v-1.75c1.75-1.32,3.27-1.96,5.43-1.96C762.69,160.08,765.02,161.94,765.02,165.14z
		 M758.34,175.47c1.48,0,3.04-0.84,3.98-2.36l0.13-5.06c-0.3,0.1-1.18,0.3-2.8,0.61c-3.1,0.57-4.25,1.75-4.25,3.61
		C755.4,174.25,756.72,175.47,758.34,175.47z"/>
	<path class="st0" d="M783.88,154.55c0,0.94-0.78,1.72-1.72,1.72c-0.95,0-1.72-0.78-1.72-1.72c0-0.98,0.81-1.72,1.72-1.72
		C783.07,152.83,783.88,153.57,783.88,154.55z M782.16,160.59c0.51,0,0.94-0.03,1.52-0.17c-0.17,1.52-0.27,4.52-0.27,5.97v4.18
		c0,2.29,0.1,4.25,0.27,5.97c-0.57-0.1-1.08-0.17-1.52-0.17c-0.51,0-0.98,0.07-1.52,0.17c0.27-2.12,0.27-4.59,0.27-5.94v-4.55
		c0-2.02-0.1-3.88-0.27-5.63C781.22,160.56,781.72,160.59,782.16,160.59z"/>
	<path class="st0" d="M803.05,166.06c0,1.79-0.13,3.75-0.13,6.31c0,2.97,0.07,3.58,0.07,4.18c-0.57-0.13-0.98-0.17-1.42-0.17
		c-0.44,0-0.84,0.03-1.38,0.17c0-1.92,0.24-4.96,0.24-7.15v-2.6c0-2.8-1.25-4.96-3.71-4.96c-2.97,0-4.52,1.89-4.52,5.4v4.05
		c0,1.45,0.1,3.74,0.27,5.26c-0.54-0.1-1.01-0.17-1.52-0.17s-0.98,0.07-1.52,0.17c0.27-2.12,0.27-4.59,0.27-5.94v-4.55
		c0-2.02-0.1-3.88-0.27-5.63c0.57,0.13,1.08,0.17,1.52,0.17c0.34,0,0.78-0.07,1.35-0.17c-0.03,0.57-0.1,1.89-0.1,2.7h0.07
		c1.25-1.92,2.93-3.04,5.36-3.04C800.99,160.08,803.05,162.01,803.05,166.06z"/>
	<path class="st0" d="M811.08,155.9h0.17c-0.13,1.75-0.17,3.1-0.27,4.99c0.91,0,2.6-0.1,3.58-0.1c-0.03,0.13-0.03,0.74-0.03,0.84
		c0,0.3,0,0.47,0.03,0.57c-0.78-0.03-1.96-0.07-2.4-0.07h-1.18c-0.1,0.94-0.24,6.58-0.24,8.67c0,2.56,0.17,4.99,2.7,4.99
		c0.51,0,1.15-0.1,1.55-0.24v0.81c-0.84,0.3-1.79,0.51-2.6,0.51c-2.77,0-4.15-1.42-4.15-4.28c0-1.52,0.2-5.43,0.24-10.46
		c-1.18,0-1.92,0.03-2.29,0.07c0.1-0.37,0.07-0.51,0.07-0.78c0-0.24-0.03-0.44-0.07-0.67c1.21,0.1,1.86,0.1,2.23,0.1l-0.13-3.78
		L811.08,155.9z"/>
	<path class="st0" d="M830.89,167v0.57l-0.07,0.71c-2.02-0.03-4.22-0.1-6.61-0.1c-1.62,0-3.31,0.07-5.03,0.1
		c-0.03,0.17-0.03,0.64-0.03,0.74c0,4.18,2.43,6.44,5.8,6.44c1.72,0,3.78-0.94,5.09-2.4l0.17,0.1l-0.2,1.65
		c-1.75,1.35-3.88,2.06-5.67,2.06c-4.69,0-8.16-3.34-8.16-7.96c0-5.53,2.83-8.84,7.73-8.84C828.22,160.08,830.89,162.82,830.89,167z
		 M823.63,167.1c1.18,0,3.17-0.1,4.49-0.1c-0.03-3.88-1.42-5.84-4.15-5.84c-2.6,0-4.35,2.19-4.72,5.84
		C820.56,167,823.09,167.1,823.63,167.1z"/>
	<path class="st0" d="M842.63,160.29c-0.1,0.24-0.24,0.81-0.24,2.26v0.47l-0.24,0.17c-0.37-0.37-1.08-0.54-1.65-0.54
		c-2.16,0-3.44,2.02-3.44,4.62v4.59c0,2.02,0.03,3.58,0.13,4.69c-0.51-0.1-0.94-0.17-1.35-0.17c-0.44,0-0.88,0.07-1.42,0.17
		c0.1-0.91,0.13-2.02,0.13-3.61v-7.52c0-1.45-0.03-3.98-0.13-4.99c0.64,0.13,1.01,0.17,1.42,0.17c0.4,0,0.84-0.07,1.35-0.17
		l-0.13,1.69c-0.03,0.37-0.03,0.91-0.03,1.59l0.07,0.03c1.32-2.43,2.87-3.64,4.49-3.64C841.99,160.08,842.23,160.15,842.63,160.29z"
		/>
	<path class="st0" d="M859.3,166.06c0,1.79-0.13,3.75-0.13,6.31c0,2.97,0.07,3.58,0.07,4.18c-0.57-0.13-0.98-0.17-1.42-0.17
		c-0.44,0-0.84,0.03-1.38,0.17c0-1.92,0.24-4.96,0.24-7.15v-2.6c0-2.8-1.25-4.96-3.71-4.96c-2.97,0-4.52,1.89-4.52,5.4v4.05
		c0,1.45,0.1,3.74,0.27,5.26c-0.54-0.1-1.01-0.17-1.52-0.17s-0.98,0.07-1.52,0.17c0.27-2.12,0.27-4.59,0.27-5.94v-4.55
		c0-2.02-0.1-3.88-0.27-5.63c0.57,0.13,1.08,0.17,1.52,0.17c0.34,0,0.78-0.07,1.35-0.17c-0.03,0.57-0.1,1.89-0.1,2.7h0.07
		c1.25-1.92,2.93-3.04,5.36-3.04C857.24,160.08,859.3,162.01,859.3,166.06z"/>
	<path class="st0" d="M877.76,167v0.57l-0.07,0.71c-2.02-0.03-4.22-0.1-6.61-0.1c-1.62,0-3.31,0.07-5.03,0.1
		c-0.03,0.17-0.03,0.64-0.03,0.74c0,4.18,2.43,6.44,5.8,6.44c1.72,0,3.78-0.94,5.09-2.4l0.17,0.1l-0.2,1.65
		c-1.75,1.35-3.88,2.06-5.67,2.06c-4.69,0-8.16-3.34-8.16-7.96c0-5.53,2.83-8.84,7.73-8.84C875.09,160.08,877.76,162.82,877.76,167z
		 M870.5,167.1c1.18,0,3.17-0.1,4.49-0.1c-0.03-3.88-1.42-5.84-4.15-5.84c-2.6,0-4.35,2.19-4.72,5.84
		C867.43,167,869.96,167.1,870.5,167.1z"/>
	<path class="st0" d="M884.21,155.9h0.17c-0.13,1.75-0.17,3.1-0.27,4.99c0.91,0,2.6-0.1,3.58-0.1c-0.03,0.13-0.03,0.74-0.03,0.84
		c0,0.3,0,0.47,0.03,0.57c-0.78-0.03-1.96-0.07-2.4-0.07h-1.18c-0.1,0.94-0.24,6.58-0.24,8.67c0,2.56,0.17,4.99,2.7,4.99
		c0.51,0,1.15-0.1,1.55-0.24v0.81c-0.84,0.3-1.79,0.51-2.6,0.51c-2.77,0-4.15-1.42-4.15-4.28c0-1.52,0.2-5.43,0.24-10.46
		c-1.18,0-1.92,0.03-2.29,0.07c0.1-0.37,0.07-0.51,0.07-0.78c0-0.24-0.03-0.44-0.07-0.67c1.21,0.1,1.86,0.1,2.23,0.1l-0.13-3.78
		L884.21,155.9z"/>
	<path class="st0" d="M894.73,174.86c0,1.05-0.88,1.92-1.92,1.92s-1.92-0.88-1.92-1.92s0.88-1.92,1.92-1.92
		S894.73,173.81,894.73,174.86z"/>
	<path class="st0" d="M392.11,203.38c-0.24,0.34-0.54,1.75-0.71,2.63l-0.2,0.07c-1.72-1.89-3.98-3-6.41-3
		c-5.8,0-9.35,3.95-9.35,10.83s3.54,10.83,9.35,10.83c2.19,0,4.28-0.78,6.85-2.8l0.13,0.13l-0.3,1.99
		c-1.62,1.15-4.49,1.92-7.02,1.92c-7.02,0-12.31-4.45-12.31-11.91c0-7.69,4.96-12.25,12.65-12.25
		C387.36,201.83,389.82,202.34,392.11,203.38z"/>
	<path class="st0" d="M410.81,217.48c0,5.57-3.68,8.4-8.16,8.4c-4.72,0-8.23-3.04-8.23-8.2c0-6.88,4.76-8.6,8.16-8.6
		C407.3,209.08,410.81,212.09,410.81,217.48z M402.61,224.81c3.41,0,5.23-2.6,5.23-7.32c0-4.69-1.75-7.32-5.26-7.32
		c-3.37,0-5.2,2.56-5.2,7.32C397.38,222.21,399.24,224.81,402.61,224.81z"/>
	<path class="st0" d="M428.19,215.06c0,1.79-0.13,3.74-0.13,6.31c0,2.97,0.07,3.58,0.07,4.18c-0.57-0.13-0.98-0.17-1.42-0.17
		s-0.84,0.03-1.38,0.17c0-1.92,0.24-4.96,0.24-7.15v-2.6c0-2.8-1.25-4.96-3.71-4.96c-2.97,0-4.52,1.89-4.52,5.4v4.05
		c0,1.45,0.1,3.75,0.27,5.26c-0.54-0.1-1.01-0.17-1.52-0.17c-0.51,0-0.98,0.07-1.52,0.17c0.27-2.13,0.27-4.59,0.27-5.94v-4.55
		c0-2.02-0.1-3.88-0.27-5.63c0.57,0.14,1.08,0.17,1.52,0.17c0.34,0,0.78-0.07,1.35-0.17c-0.03,0.57-0.1,1.89-0.1,2.7h0.07
		c1.25-1.92,2.94-3.04,5.36-3.04C426.13,209.08,428.19,211.01,428.19,215.06z"/>
	<path class="st0" d="M436.22,204.9h0.17c-0.14,1.75-0.17,3.1-0.27,4.99c0.91,0,2.6-0.1,3.58-0.1c-0.03,0.14-0.03,0.74-0.03,0.84
		c0,0.3,0,0.47,0.03,0.57c-0.78-0.03-1.96-0.07-2.4-0.07h-1.18c-0.1,0.95-0.24,6.58-0.24,8.67c0,2.56,0.17,4.99,2.7,4.99
		c0.51,0,1.15-0.1,1.55-0.24v0.81c-0.84,0.3-1.79,0.51-2.6,0.51c-2.77,0-4.15-1.42-4.15-4.28c0-1.52,0.2-5.43,0.24-10.46
		c-1.18,0-1.92,0.03-2.29,0.07c0.1-0.37,0.07-0.51,0.07-0.78c0-0.24-0.03-0.44-0.07-0.67c1.21,0.1,1.86,0.1,2.23,0.1l-0.14-3.78
		L436.22,204.9z"/>
	<path class="st0" d="M453.93,214.14c0,2.29-0.13,5.09-0.13,7.66c0,1.72,0.13,2.63,1.32,2.63c0.24,0,0.4,0,0.71-0.14v0.74
		c-0.54,0.24-1.32,0.47-2.16,0.47c-1.25,0-2.16-0.74-2.33-2.09c-1.89,1.89-3.24,2.46-5.3,2.46c-2.33,0-4.49-1.69-4.49-4.15
		s1.55-3.98,4.25-4.52c1.32-0.27,2.77-0.41,4.01-0.78c1.32-0.37,1.55-0.61,1.55-1.69c0-2.7-1.28-4.25-3.71-4.25
		c-1.75,0-3.41,0.81-4.25,2.29h-0.37v-1.75c1.75-1.32,3.27-1.96,5.43-1.96C451.6,209.08,453.93,210.94,453.93,214.14z
		 M447.25,224.47c1.48,0,3.04-0.84,3.98-2.36l0.13-5.06c-0.3,0.1-1.18,0.3-2.8,0.61c-3.1,0.57-4.25,1.75-4.25,3.61
		C444.32,223.25,445.63,224.47,447.25,224.47z"/>
	<path class="st0" d="M472.46,210.57c-0.3,0.78-0.57,1.42-0.74,2.23h-0.27c-0.98-1.65-2.6-2.63-4.35-2.63c-3.68,0-5.7,2.67-5.7,7.29
		c0,4.72,2.06,7.02,5.84,7.02c1.59,0,3.75-0.88,5.06-2.4l0.17,0.1c-0.1,0.54-0.17,0.98-0.2,1.65c-1.72,1.32-3.81,2.06-5.6,2.06
		c-4.79,0-8.23-3.14-8.23-8.4c0-5.53,3.95-8.4,8.6-8.4C469.29,209.08,471.55,209.76,472.46,210.57z"/>
	<path class="st0" d="M479.34,204.9h0.17c-0.14,1.75-0.17,3.1-0.27,4.99c0.91,0,2.6-0.1,3.58-0.1c-0.03,0.14-0.03,0.74-0.03,0.84
		c0,0.3,0,0.47,0.03,0.57c-0.78-0.03-1.96-0.07-2.4-0.07h-1.18c-0.1,0.95-0.24,6.58-0.24,8.67c0,2.56,0.17,4.99,2.7,4.99
		c0.51,0,1.15-0.1,1.55-0.24v0.81c-0.84,0.3-1.79,0.51-2.6,0.51c-2.77,0-4.15-1.42-4.15-4.28c0-1.52,0.2-5.43,0.24-10.46
		c-1.18,0-1.92,0.03-2.29,0.07c0.1-0.37,0.07-0.51,0.07-0.78c0-0.24-0.03-0.44-0.07-0.67c1.21,0.1,1.86,0.1,2.23,0.1l-0.14-3.78
		L479.34,204.9z"/>
	<path class="st0" d="M497.06,214.14c0,2.29-0.13,5.09-0.13,7.66c0,1.72,0.13,2.63,1.32,2.63c0.24,0,0.4,0,0.71-0.14v0.74
		c-0.54,0.24-1.32,0.47-2.16,0.47c-1.25,0-2.16-0.74-2.33-2.09c-1.89,1.89-3.24,2.46-5.3,2.46c-2.33,0-4.49-1.69-4.49-4.15
		s1.55-3.98,4.25-4.52c1.32-0.27,2.77-0.41,4.01-0.78c1.32-0.37,1.55-0.61,1.55-1.69c0-2.7-1.28-4.25-3.71-4.25
		c-1.75,0-3.41,0.81-4.25,2.29h-0.37v-1.75c1.75-1.32,3.27-1.96,5.43-1.96C494.73,209.08,497.06,210.94,497.06,214.14z
		 M490.38,224.47c1.48,0,3.04-0.84,3.98-2.36l0.13-5.06c-0.3,0.1-1.18,0.3-2.8,0.61c-3.1,0.57-4.25,1.75-4.25,3.61
		C487.44,223.25,488.76,224.47,490.38,224.47z"/>
	<path class="st0" d="M510.89,209.29c-0.1,0.24-0.24,0.81-0.24,2.26v0.47l-0.24,0.17c-0.37-0.37-1.08-0.54-1.65-0.54
		c-2.16,0-3.44,2.02-3.44,4.62v4.59c0,2.02,0.03,3.58,0.14,4.69c-0.51-0.1-0.94-0.17-1.35-0.17c-0.44,0-0.88,0.07-1.42,0.17
		c0.1-0.91,0.14-2.02,0.14-3.61v-7.52c0-1.45-0.03-3.98-0.14-4.99c0.64,0.14,1.01,0.17,1.42,0.17s0.84-0.07,1.35-0.17l-0.14,1.69
		c-0.03,0.37-0.03,0.91-0.03,1.58l0.07,0.03c1.32-2.43,2.87-3.64,4.49-3.64C510.25,209.08,510.49,209.15,510.89,209.29z"/>
	<path class="st0" d="M534.55,214.14c0,2.29-0.13,5.09-0.13,7.66c0,1.72,0.13,2.63,1.32,2.63c0.24,0,0.4,0,0.71-0.14v0.74
		c-0.54,0.24-1.32,0.47-2.16,0.47c-1.25,0-2.16-0.74-2.33-2.09c-1.89,1.89-3.24,2.46-5.3,2.46c-2.33,0-4.49-1.69-4.49-4.15
		s1.55-3.98,4.25-4.52c1.32-0.27,2.77-0.41,4.01-0.78c1.32-0.37,1.55-0.61,1.55-1.69c0-2.7-1.28-4.25-3.71-4.25
		c-1.75,0-3.41,0.81-4.25,2.29h-0.37v-1.75c1.75-1.32,3.27-1.96,5.43-1.96C532.22,209.08,534.55,210.94,534.55,214.14z
		 M527.87,224.47c1.48,0,3.04-0.84,3.98-2.36l0.13-5.06c-0.3,0.1-1.18,0.3-2.8,0.61c-3.1,0.57-4.25,1.75-4.25,3.61
		C524.93,223.25,526.25,224.47,527.87,224.47z"/>
	<path class="st0" d="M542.31,200.18c0.51,0,0.98-0.07,1.52-0.17c-0.17,1.45-0.27,6.95-0.27,9.21v7.12c0,2.29,0.1,7.76,0.27,9.21
		c-0.54-0.1-1.01-0.17-1.52-0.17s-0.98,0.07-1.52,0.17c0.27-2.67,0.27-7.86,0.27-9.21v-7.12c0-1.38,0-6.48-0.27-9.21
		C541.33,200.11,541.8,200.18,542.31,200.18z"/>
	<path class="st0" d="M570.18,214.14c0,2.29-0.13,5.09-0.13,7.66c0,1.72,0.13,2.63,1.32,2.63c0.24,0,0.4,0,0.71-0.14v0.74
		c-0.54,0.24-1.32,0.47-2.16,0.47c-1.25,0-2.16-0.74-2.33-2.09c-1.89,1.89-3.24,2.46-5.3,2.46c-2.33,0-4.49-1.69-4.49-4.15
		s1.55-3.98,4.25-4.52c1.32-0.27,2.77-0.41,4.01-0.78c1.32-0.37,1.55-0.61,1.55-1.69c0-2.7-1.28-4.25-3.71-4.25
		c-1.75,0-3.41,0.81-4.25,2.29h-0.37v-1.75c1.75-1.32,3.27-1.96,5.43-1.96C567.85,209.08,570.18,210.94,570.18,214.14z
		 M563.5,224.47c1.48,0,3.04-0.84,3.98-2.36l0.13-5.06c-0.3,0.1-1.18,0.3-2.8,0.61c-3.1,0.57-4.25,1.75-4.25,3.61
		C560.57,223.25,561.88,224.47,563.5,224.47z"/>
	<path class="st0" d="M588.57,200.18c0.44,0,0.94-0.07,1.52-0.17c-0.27,3.41-0.4,11.23-0.4,17.37c0,2.67,0.07,4.93,0.1,8.17
		c-0.54-0.1-0.91-0.17-1.32-0.17s-0.84,0.07-1.28,0.17l0.1-3.31h-0.07c-1.08,2.29-3.14,3.64-5.7,3.64c-3.64,0-6.85-2.73-6.85-8.3
		c0-5.5,3.54-8.5,7.19-8.5c2.53,0,4.28,1.11,5.26,3.37h0.07v-4.12c0-1.25-0.03-5.36-0.14-8.33
		C587.42,200.11,588.07,200.18,588.57,200.18z M582.3,224.64c3.17,0,5.03-3.24,5.03-7.52c0-4.32-1.72-6.61-4.93-6.61
		c-2.97,0-4.76,2.7-4.76,7.29C577.64,222.34,579.43,224.64,582.3,224.64z"/>
	<path class="st0" d="M607.13,212.42h0.07c1.11-2.19,3-3.34,5.43-3.34c3.27,0,5.16,1.82,5.16,5.36c0,0.91-0.2,4.22-0.2,7.39
		c0,1.62,0,2.53,0.1,3.71c-0.51-0.1-0.94-0.17-1.45-0.17c-0.51,0-0.98,0.07-1.48,0.17c0.14-1.35,0.34-5.09,0.34-10.49
		c0-3.21-1.48-4.22-3.54-4.22c-1.52,0-2.7,0.67-3.37,1.59c-0.64,0.84-0.81,1.59-0.81,4.99v2.5c0,1.25,0.03,2.94,0.17,5.63
		c-0.54-0.1-1.05-0.17-1.48-0.17c-0.51,0-0.91,0.07-1.48,0.17c0.17-2.13,0.3-5.09,0.3-7.79v-2.36c0-1.52-0.14-2.26-0.64-3.04
		c-0.64-1.05-1.82-1.52-2.8-1.52c-2.87,0-4.28,2.13-4.28,5.4v4.08c0,1.42,0.1,3.68,0.27,5.23c-0.57-0.1-1.08-0.17-1.52-0.17
		c-0.51,0-0.98,0.07-1.52,0.17c0.27-2.06,0.27-4.59,0.27-5.94v-4.22c0-2.46-0.1-4.45-0.27-5.97c0.54,0.1,1.01,0.17,1.52,0.17
		c0.34,0,0.78-0.07,1.35-0.17c-0.07,0.98-0.1,1.89-0.1,2.7h0.07c1.25-2.02,2.9-3.04,5.03-3.04
		C604.5,209.08,606.59,210.4,607.13,212.42z"/>
	<path class="st0" d="M626.54,203.55c0,0.94-0.78,1.72-1.72,1.72c-0.94,0-1.72-0.78-1.72-1.72c0-0.98,0.81-1.72,1.72-1.72
		C625.73,201.83,626.54,202.57,626.54,203.55z M624.81,209.59c0.51,0,0.95-0.03,1.52-0.17c-0.17,1.52-0.27,4.52-0.27,5.97v4.18
		c0,2.29,0.1,4.25,0.27,5.97c-0.57-0.1-1.08-0.17-1.52-0.17c-0.51,0-0.98,0.07-1.52,0.17c0.27-2.13,0.27-4.59,0.27-5.94v-4.55
		c0-2.02-0.1-3.88-0.27-5.63C623.87,209.56,624.38,209.59,624.81,209.59z"/>
	<path class="st0" d="M645.7,215.06c0,1.79-0.13,3.74-0.13,6.31c0,2.97,0.07,3.58,0.07,4.18c-0.57-0.13-0.98-0.17-1.42-0.17
		s-0.84,0.03-1.38,0.17c0-1.92,0.24-4.96,0.24-7.15v-2.6c0-2.8-1.25-4.96-3.71-4.96c-2.97,0-4.52,1.89-4.52,5.4v4.05
		c0,1.45,0.1,3.75,0.27,5.26c-0.54-0.1-1.01-0.17-1.52-0.17c-0.51,0-0.98,0.07-1.52,0.17c0.27-2.13,0.27-4.59,0.27-5.94v-4.55
		c0-2.02-0.1-3.88-0.27-5.63c0.57,0.14,1.08,0.17,1.52,0.17c0.34,0,0.78-0.07,1.35-0.17c-0.03,0.57-0.1,1.89-0.1,2.7h0.07
		c1.25-1.92,2.93-3.04,5.36-3.04C643.64,209.08,645.7,211.01,645.7,215.06z"/>
	<path class="st0" d="M654.68,203.55c0,0.94-0.78,1.72-1.72,1.72c-0.94,0-1.72-0.78-1.72-1.72c0-0.98,0.81-1.72,1.72-1.72
		C653.87,201.83,654.68,202.57,654.68,203.55z M652.96,209.59c0.51,0,0.95-0.03,1.52-0.17c-0.17,1.52-0.27,4.52-0.27,5.97v4.18
		c0,2.29,0.1,4.25,0.27,5.97c-0.57-0.1-1.08-0.17-1.52-0.17c-0.51,0-0.98,0.07-1.52,0.17c0.27-2.13,0.27-4.59,0.27-5.94v-4.55
		c0-2.02-0.1-3.88-0.27-5.63C652.01,209.56,652.52,209.59,652.96,209.59z"/>
	<path class="st0" d="M668.51,210.03c-0.44,0.81-0.78,2.02-0.81,2.4h-0.4c-0.44-1.32-1.62-2.09-2.97-2.09
		c-1.59,0-2.87,1.11-2.87,2.83c0,1.48,0.91,2.33,2.83,2.87c2.83,0.81,5.13,1.38,5.13,4.49c0,2.73-2.43,5.36-6.11,5.36
		c-1.89,0-3.1-0.44-4.32-1.11c0.37-0.81,0.64-1.92,0.64-2.46h0.4c0.71,1.32,2.23,2.33,3.81,2.33c1.89,0,3.27-1.15,3.27-3.04
		c0-1.45-0.98-2.26-3-2.83c-2.97-0.81-4.96-1.62-4.96-4.59c0-3.1,2.23-5.09,5.6-5.09C666.49,209.08,668.07,209.93,668.51,210.03z"/>
	<path class="st0" d="M676.24,204.9h0.17c-0.13,1.75-0.17,3.1-0.27,4.99c0.91,0,2.6-0.1,3.58-0.1c-0.03,0.14-0.03,0.74-0.03,0.84
		c0,0.3,0,0.47,0.03,0.57c-0.78-0.03-1.96-0.07-2.4-0.07h-1.18c-0.1,0.95-0.24,6.58-0.24,8.67c0,2.56,0.17,4.99,2.7,4.99
		c0.51,0,1.15-0.1,1.55-0.24v0.81c-0.84,0.3-1.79,0.51-2.6,0.51c-2.77,0-4.15-1.42-4.15-4.28c0-1.52,0.2-5.43,0.24-10.46
		c-1.18,0-1.92,0.03-2.29,0.07c0.1-0.37,0.07-0.51,0.07-0.78c0-0.24-0.03-0.44-0.07-0.67c1.21,0.1,1.86,0.1,2.23,0.1l-0.13-3.78
		L676.24,204.9z"/>
	<path class="st0" d="M690.92,209.29c-0.1,0.24-0.24,0.81-0.24,2.26v0.47l-0.24,0.17c-0.37-0.37-1.08-0.54-1.65-0.54
		c-2.16,0-3.44,2.02-3.44,4.62v4.59c0,2.02,0.03,3.58,0.13,4.69c-0.51-0.1-0.94-0.17-1.35-0.17c-0.44,0-0.88,0.07-1.42,0.17
		c0.1-0.91,0.14-2.02,0.14-3.61v-7.52c0-1.45-0.03-3.98-0.14-4.99c0.64,0.14,1.01,0.17,1.42,0.17c0.41,0,0.84-0.07,1.35-0.17
		l-0.13,1.69c-0.03,0.37-0.03,0.91-0.03,1.58l0.07,0.03c1.32-2.43,2.87-3.64,4.49-3.64C690.28,209.08,690.51,209.15,690.92,209.29z"
		/>
	<path class="st0" d="M704.79,214.14c0,2.29-0.13,5.09-0.13,7.66c0,1.72,0.13,2.63,1.32,2.63c0.24,0,0.41,0,0.71-0.14v0.74
		c-0.54,0.24-1.32,0.47-2.16,0.47c-1.25,0-2.16-0.74-2.33-2.09c-1.89,1.89-3.24,2.46-5.3,2.46c-2.33,0-4.49-1.69-4.49-4.15
		s1.55-3.98,4.25-4.52c1.32-0.27,2.77-0.41,4.01-0.78c1.32-0.37,1.55-0.61,1.55-1.69c0-2.7-1.28-4.25-3.71-4.25
		c-1.75,0-3.41,0.81-4.25,2.29h-0.37v-1.75c1.75-1.32,3.27-1.96,5.43-1.96C702.46,209.08,704.79,210.94,704.79,214.14z
		 M698.11,224.47c1.48,0,3.04-0.84,3.98-2.36l0.13-5.06c-0.3,0.1-1.18,0.3-2.8,0.61c-3.1,0.57-4.25,1.75-4.25,3.61
		C695.17,223.25,696.49,224.47,698.11,224.47z"/>
	<path class="st0" d="M723.18,200.18c0.44,0,0.94-0.07,1.52-0.17c-0.27,3.41-0.4,11.23-0.4,17.37c0,2.67,0.07,4.93,0.1,8.17
		c-0.54-0.1-0.91-0.17-1.32-0.17c-0.41,0-0.84,0.07-1.28,0.17l0.1-3.31h-0.07c-1.08,2.29-3.14,3.64-5.7,3.64
		c-3.64,0-6.85-2.73-6.85-8.3c0-5.5,3.54-8.5,7.19-8.5c2.53,0,4.28,1.11,5.26,3.37h0.07v-4.12c0-1.25-0.03-5.36-0.13-8.33
		C722.03,200.11,722.67,200.18,723.18,200.18z M716.9,224.64c3.17,0,5.03-3.24,5.03-7.52c0-4.32-1.72-6.61-4.93-6.61
		c-2.97,0-4.76,2.7-4.76,7.29C712.25,222.34,714.03,224.64,716.9,224.64z"/>
	<path class="st0" d="M744.2,217.48c0,5.57-3.68,8.4-8.16,8.4c-4.72,0-8.23-3.04-8.23-8.2c0-6.88,4.76-8.6,8.17-8.6
		C740.69,209.08,744.2,212.09,744.2,217.48z M736,224.81c3.41,0,5.23-2.6,5.23-7.32c0-4.69-1.75-7.32-5.26-7.32
		c-3.37,0-5.2,2.56-5.2,7.32C730.77,222.21,732.63,224.81,736,224.81z"/>
	<path class="st0" d="M756.15,209.29c-0.1,0.24-0.24,0.81-0.24,2.26v0.47l-0.24,0.17c-0.37-0.37-1.08-0.54-1.65-0.54
		c-2.16,0-3.44,2.02-3.44,4.62v4.59c0,2.02,0.03,3.58,0.14,4.69c-0.51-0.1-0.95-0.17-1.35-0.17c-0.44,0-0.88,0.07-1.42,0.17
		c0.1-0.91,0.13-2.02,0.13-3.61v-7.52c0-1.45-0.03-3.98-0.13-4.99c0.64,0.14,1.01,0.17,1.42,0.17c0.4,0,0.84-0.07,1.35-0.17
		l-0.14,1.69c-0.03,0.37-0.03,0.91-0.03,1.58l0.07,0.03c1.32-2.43,2.87-3.64,4.49-3.64C755.5,209.08,755.74,209.15,756.15,209.29z"
		/>
	<path class="st0" d="M781.89,216v0.57l-0.07,0.71c-2.02-0.03-4.22-0.1-6.61-0.1c-1.62,0-3.31,0.07-5.03,0.1
		c-0.03,0.17-0.03,0.64-0.03,0.74c0,4.18,2.43,6.44,5.8,6.44c1.72,0,3.78-0.94,5.09-2.4l0.17,0.1l-0.2,1.65
		c-1.75,1.35-3.88,2.06-5.67,2.06c-4.69,0-8.16-3.34-8.16-7.96c0-5.53,2.83-8.84,7.73-8.84C779.23,209.08,781.89,211.82,781.89,216z
		 M774.64,216.1c1.18,0,3.17-0.1,4.49-0.1c-0.03-3.88-1.42-5.84-4.15-5.84c-2.6,0-4.35,2.19-4.72,5.84
		C771.57,216,774.1,216.1,774.64,216.1z"/>
	<path class="st0" d="M799.07,215.06c0,1.79-0.14,3.74-0.14,6.31c0,2.97,0.07,3.58,0.07,4.18c-0.57-0.13-0.98-0.17-1.42-0.17
		c-0.44,0-0.84,0.03-1.38,0.17c0-1.92,0.24-4.96,0.24-7.15v-2.6c0-2.8-1.25-4.96-3.71-4.96c-2.97,0-4.52,1.89-4.52,5.4v4.05
		c0,1.45,0.1,3.75,0.27,5.26c-0.54-0.1-1.01-0.17-1.52-0.17s-0.98,0.07-1.52,0.17c0.27-2.13,0.27-4.59,0.27-5.94v-4.55
		c0-2.02-0.1-3.88-0.27-5.63c0.57,0.14,1.08,0.17,1.52,0.17c0.34,0,0.78-0.07,1.35-0.17c-0.03,0.57-0.1,1.89-0.1,2.7h0.07
		c1.25-1.92,2.94-3.04,5.36-3.04C797.01,209.08,799.07,211.01,799.07,215.06z"/>
	<path class="st0" d="M826.47,210.57c-0.3,0.78-0.57,1.42-0.74,2.23h-0.27c-0.98-1.65-2.6-2.63-4.35-2.63c-3.68,0-5.7,2.67-5.7,7.29
		c0,4.72,2.06,7.02,5.84,7.02c1.58,0,3.74-0.88,5.06-2.4l0.17,0.1c-0.1,0.54-0.17,0.98-0.2,1.65c-1.72,1.32-3.81,2.06-5.6,2.06
		c-4.79,0-8.23-3.14-8.23-8.4c0-5.53,3.95-8.4,8.6-8.4C823.3,209.08,825.56,209.76,826.47,210.57z"/>
	<path class="st0" d="M841.69,214.14c0,2.29-0.14,5.09-0.14,7.66c0,1.72,0.14,2.63,1.32,2.63c0.24,0,0.4,0,0.71-0.14v0.74
		c-0.54,0.24-1.32,0.47-2.16,0.47c-1.25,0-2.16-0.74-2.33-2.09c-1.89,1.89-3.24,2.46-5.3,2.46c-2.33,0-4.49-1.69-4.49-4.15
		s1.55-3.98,4.25-4.52c1.32-0.27,2.77-0.41,4.01-0.78c1.32-0.37,1.55-0.61,1.55-1.69c0-2.7-1.28-4.25-3.71-4.25
		c-1.75,0-3.41,0.81-4.25,2.29h-0.37v-1.75c1.75-1.32,3.27-1.96,5.43-1.96C839.36,209.08,841.69,210.94,841.69,214.14z
		 M835.01,224.47c1.48,0,3.04-0.84,3.98-2.36l0.13-5.06c-0.3,0.1-1.18,0.3-2.8,0.61c-3.1,0.57-4.25,1.75-4.25,3.61
		C832.07,223.25,833.39,224.47,835.01,224.47z"/>
	<path class="st0" d="M855.62,210.03c-0.44,0.81-0.78,2.02-0.81,2.4h-0.41c-0.44-1.32-1.62-2.09-2.97-2.09
		c-1.58,0-2.87,1.11-2.87,2.83c0,1.48,0.91,2.33,2.83,2.87c2.83,0.81,5.13,1.38,5.13,4.49c0,2.73-2.43,5.36-6.11,5.36
		c-1.89,0-3.1-0.44-4.32-1.11c0.37-0.81,0.64-1.92,0.64-2.46h0.41c0.71,1.32,2.23,2.33,3.81,2.33c1.89,0,3.27-1.15,3.27-3.04
		c0-1.45-0.98-2.26-3-2.83c-2.97-0.81-4.96-1.62-4.96-4.59c0-3.1,2.23-5.09,5.6-5.09C853.6,209.08,855.18,209.93,855.62,210.03z"/>
	<path class="st0" d="M875.46,217.48c0,5.57-3.68,8.4-8.16,8.4c-4.72,0-8.23-3.04-8.23-8.2c0-6.88,4.76-8.6,8.16-8.6
		C871.95,209.08,875.46,212.09,875.46,217.48z M867.26,224.81c3.41,0,5.23-2.6,5.23-7.32c0-4.69-1.75-7.32-5.26-7.32
		c-3.37,0-5.2,2.56-5.2,7.32C862.04,222.21,863.89,224.81,867.26,224.81z"/>
	<path class="st0" d="M499.62,249.18c0.44,0,0.94-0.07,1.52-0.17c-0.27,3.41-0.4,11.23-0.4,17.37c0,2.67,0.07,4.93,0.1,8.17
		c-0.54-0.1-0.91-0.17-1.32-0.17s-0.84,0.07-1.28,0.17l0.1-3.31h-0.07c-1.08,2.29-3.14,3.64-5.7,3.64c-3.64,0-6.85-2.73-6.85-8.3
		c0-5.5,3.54-8.5,7.19-8.5c2.53,0,4.28,1.11,5.26,3.37h0.07v-4.12c0-1.25-0.03-5.36-0.14-8.33
		C498.48,249.11,499.12,249.18,499.62,249.18z M493.35,273.64c3.17,0,5.03-3.24,5.03-7.52c0-4.32-1.72-6.61-4.93-6.61
		c-2.97,0-4.76,2.7-4.76,7.29C488.69,271.34,490.48,273.64,493.35,273.64z"/>
	<path class="st0" d="M518.96,265v0.57l-0.07,0.71c-2.02-0.03-4.22-0.1-6.61-0.1c-1.62,0-3.31,0.07-5.03,0.1
		c-0.03,0.17-0.03,0.64-0.03,0.74c0,4.18,2.43,6.44,5.8,6.44c1.72,0,3.78-0.94,5.09-2.4l0.17,0.1l-0.2,1.65
		c-1.75,1.35-3.88,2.06-5.67,2.06c-4.69,0-8.16-3.34-8.16-7.96c0-5.53,2.83-8.84,7.73-8.84C516.29,258.08,518.96,260.82,518.96,265z
		 M511.7,265.1c1.18,0,3.17-0.1,4.49-0.1c-0.03-3.88-1.42-5.84-4.15-5.84c-2.6,0-4.35,2.19-4.72,5.84
		C508.63,265,511.16,265.1,511.7,265.1z"/>
	<path class="st0" d="M546.66,266.38c0,5.53-3.61,8.5-7.29,8.5c-2.43,0-4.18-1.11-5.3-3.31h-0.07v2.67c0,1.55,0.1,7.62,0.27,9.18
		c-0.57-0.1-1.08-0.17-1.52-0.17c-0.51,0-0.98,0.07-1.52,0.17c0.27-2.7,0.27-7.93,0.27-9.18v-6.51c0-1.28,0-6.41-0.27-9.31
		c0.57,0.14,1.08,0.17,1.52,0.17c0.51,0,0.94-0.03,1.52-0.17c-0.17,1.25-0.27,2.26-0.27,3.31h0.07c1.11-2.33,3.1-3.64,5.7-3.64
		C543.42,258.08,546.66,260.82,546.66,266.38z M538.94,273.64c3,0,4.76-2.8,4.76-7.29s-1.72-6.85-4.69-6.85
		c-3.1,0-4.99,2.43-4.99,7.15C534.01,271.24,535.7,273.64,538.94,273.64z"/>
	<path class="st0" d="M563.97,265v0.57l-0.07,0.71c-2.02-0.03-4.22-0.1-6.61-0.1c-1.62,0-3.31,0.07-5.03,0.1
		c-0.03,0.17-0.03,0.64-0.03,0.74c0,4.18,2.43,6.44,5.8,6.44c1.72,0,3.78-0.94,5.09-2.4l0.17,0.1l-0.2,1.65
		c-1.75,1.35-3.88,2.06-5.67,2.06c-4.69,0-8.16-3.34-8.16-7.96c0-5.53,2.83-8.84,7.73-8.84C561.31,258.08,563.97,260.82,563.97,265z
		 M556.72,265.1c1.18,0,3.17-0.1,4.49-0.1c-0.03-3.88-1.42-5.84-4.15-5.84c-2.6,0-4.35,2.19-4.72,5.84
		C553.65,265,556.18,265.1,556.72,265.1z"/>
	<path class="st0" d="M575.72,258.29c-0.1,0.24-0.24,0.81-0.24,2.26v0.47l-0.24,0.17c-0.37-0.37-1.08-0.54-1.65-0.54
		c-2.16,0-3.44,2.02-3.44,4.62v4.59c0,2.02,0.03,3.58,0.14,4.69c-0.51-0.1-0.94-0.17-1.35-0.17c-0.44,0-0.88,0.07-1.42,0.17
		c0.1-0.91,0.13-2.02,0.13-3.61v-7.52c0-1.45-0.03-3.98-0.13-4.99c0.64,0.14,1.01,0.17,1.42,0.17s0.84-0.07,1.35-0.17l-0.14,1.69
		c-0.03,0.37-0.03,0.91-0.03,1.58l0.07,0.03c1.32-2.43,2.87-3.64,4.49-3.64C575.08,258.08,575.31,258.15,575.72,258.29z"/>
	<path class="st0" d="M587.05,259.03c-0.44,0.81-0.78,2.02-0.81,2.4h-0.4c-0.44-1.32-1.62-2.09-2.97-2.09
		c-1.59,0-2.87,1.11-2.87,2.83c0,1.48,0.91,2.33,2.83,2.87c2.83,0.81,5.13,1.38,5.13,4.49c0,2.73-2.43,5.36-6.11,5.36
		c-1.89,0-3.1-0.44-4.32-1.11c0.37-0.81,0.64-1.92,0.64-2.46h0.4c0.71,1.32,2.23,2.33,3.81,2.33c1.89,0,3.27-1.15,3.27-3.04
		c0-1.45-0.98-2.26-3-2.83c-2.97-0.81-4.96-1.62-4.96-4.59c0-3.1,2.23-5.09,5.6-5.09C585.03,258.08,586.62,258.93,587.05,259.03z"/>
	<path class="st0" d="M595.73,252.55c0,0.94-0.78,1.72-1.72,1.72s-1.72-0.78-1.72-1.72c0-0.98,0.81-1.72,1.72-1.72
		S595.73,251.57,595.73,252.55z M594.01,258.59c0.51,0,0.94-0.03,1.52-0.17c-0.17,1.52-0.27,4.52-0.27,5.97v4.18
		c0,2.29,0.1,4.25,0.27,5.97c-0.57-0.1-1.08-0.17-1.52-0.17c-0.51,0-0.98,0.07-1.52,0.17c0.27-2.13,0.27-4.59,0.27-5.94v-4.55
		c0-2.02-0.1-3.88-0.27-5.63C593.06,258.56,593.57,258.59,594.01,258.59z"/>
	<path class="st0" d="M609.56,259.03c-0.44,0.81-0.78,2.02-0.81,2.4h-0.4c-0.44-1.32-1.62-2.09-2.97-2.09
		c-1.59,0-2.87,1.11-2.87,2.83c0,1.48,0.91,2.33,2.83,2.87c2.83,0.81,5.13,1.38,5.13,4.49c0,2.73-2.43,5.36-6.11,5.36
		c-1.89,0-3.1-0.44-4.32-1.11c0.37-0.81,0.64-1.92,0.64-2.46h0.4c0.71,1.32,2.23,2.33,3.81,2.33c1.89,0,3.27-1.15,3.27-3.04
		c0-1.45-0.98-2.26-3-2.83c-2.97-0.81-4.96-1.62-4.96-4.59c0-3.1,2.23-5.09,5.6-5.09C607.54,258.08,609.12,258.93,609.56,259.03z"/>
	<path class="st0" d="M617.29,253.9h0.17c-0.14,1.75-0.17,3.1-0.27,4.99c0.91,0,2.6-0.1,3.58-0.1c-0.03,0.14-0.03,0.74-0.03,0.84
		c0,0.3,0,0.47,0.03,0.57c-0.78-0.03-1.96-0.07-2.4-0.07h-1.18c-0.1,0.95-0.24,6.58-0.24,8.67c0,2.56,0.17,4.99,2.7,4.99
		c0.51,0,1.15-0.1,1.55-0.24v0.81c-0.84,0.3-1.79,0.51-2.6,0.51c-2.77,0-4.15-1.42-4.15-4.28c0-1.52,0.2-5.43,0.24-10.46
		c-1.18,0-1.92,0.03-2.29,0.07c0.1-0.37,0.07-0.51,0.07-0.78c0-0.24-0.03-0.44-0.07-0.67c1.21,0.1,1.86,0.1,2.23,0.1l-0.14-3.78
		L617.29,253.9z"/>
	<path class="st0" d="M627.62,252.55c0,0.94-0.78,1.72-1.72,1.72c-0.95,0-1.72-0.78-1.72-1.72c0-0.98,0.81-1.72,1.72-1.72
		S627.62,251.57,627.62,252.55z M625.89,258.59c0.51,0,0.94-0.03,1.52-0.17c-0.17,1.52-0.27,4.52-0.27,5.97v4.18
		c0,2.29,0.1,4.25,0.27,5.97c-0.57-0.1-1.08-0.17-1.52-0.17c-0.51,0-0.98,0.07-1.52,0.17c0.27-2.13,0.27-4.59,0.27-5.94v-4.55
		c0-2.02-0.1-3.88-0.27-5.63C624.95,258.56,625.46,258.59,625.89,258.59z"/>
	<path class="st0" d="M641.35,258.29c-0.1,0.24-0.24,0.81-0.24,2.26v0.47l-0.24,0.17c-0.37-0.37-1.08-0.54-1.65-0.54
		c-2.16,0-3.44,2.02-3.44,4.62v4.59c0,2.02,0.03,3.58,0.13,4.69c-0.51-0.1-0.94-0.17-1.35-0.17c-0.44,0-0.88,0.07-1.42,0.17
		c0.1-0.91,0.14-2.02,0.14-3.61v-7.52c0-1.45-0.03-3.98-0.14-4.99c0.64,0.14,1.01,0.17,1.42,0.17c0.41,0,0.84-0.07,1.35-0.17
		l-0.13,1.69c-0.03,0.37-0.03,0.91-0.03,1.58l0.07,0.03c1.32-2.43,2.87-3.64,4.49-3.64C640.71,258.08,640.94,258.15,641.35,258.29z"
		/>
	<path class="st0" d="M667.09,265v0.57l-0.07,0.71c-2.02-0.03-4.22-0.1-6.61-0.1c-1.62,0-3.31,0.07-5.03,0.1
		c-0.03,0.17-0.03,0.64-0.03,0.74c0,4.18,2.43,6.44,5.8,6.44c1.72,0,3.78-0.94,5.09-2.4l0.17,0.1l-0.2,1.65
		c-1.75,1.35-3.88,2.06-5.67,2.06c-4.69,0-8.17-3.34-8.17-7.96c0-5.53,2.83-8.84,7.73-8.84C664.43,258.08,667.09,260.82,667.09,265z
		 M659.84,265.1c1.18,0,3.17-0.1,4.49-0.1c-0.03-3.88-1.42-5.84-4.15-5.84c-2.6,0-4.35,2.19-4.72,5.84
		C656.77,265,659.3,265.1,659.84,265.1z"/>
	<path class="st0" d="M672.76,249.18c0.51,0,0.98-0.07,1.52-0.17c-0.17,1.45-0.27,6.95-0.27,9.21v7.12c0,2.29,0.1,7.76,0.27,9.21
		c-0.54-0.1-1.01-0.17-1.52-0.17s-0.98,0.07-1.52,0.17c0.27-2.67,0.27-7.86,0.27-9.21v-7.12c0-1.38,0-6.48-0.27-9.21
		C671.79,249.11,672.26,249.18,672.76,249.18z"/>
	<path class="st0" d="M702.73,265v0.57l-0.07,0.71c-2.02-0.03-4.22-0.1-6.61-0.1c-1.62,0-3.31,0.07-5.03,0.1
		c-0.03,0.17-0.03,0.64-0.03,0.74c0,4.18,2.43,6.44,5.8,6.44c1.72,0,3.78-0.94,5.09-2.4l0.17,0.1l-0.2,1.65
		c-1.75,1.35-3.88,2.06-5.67,2.06c-4.69,0-8.17-3.34-8.17-7.96c0-5.53,2.83-8.84,7.73-8.84C700.06,258.08,702.73,260.82,702.73,265z
		 M695.47,265.1c1.18,0,3.17-0.1,4.49-0.1c-0.03-3.88-1.42-5.84-4.15-5.84c-2.6,0-4.35,2.19-4.72,5.84
		C692.4,265,694.93,265.1,695.47,265.1z"/>
	<path class="st0" d="M714.47,258.29c-0.1,0.24-0.24,0.81-0.24,2.26v0.47l-0.24,0.17c-0.37-0.37-1.08-0.54-1.65-0.54
		c-2.16,0-3.44,2.02-3.44,4.62v4.59c0,2.02,0.03,3.58,0.14,4.69c-0.51-0.1-0.95-0.17-1.35-0.17c-0.44,0-0.88,0.07-1.42,0.17
		c0.1-0.91,0.13-2.02,0.13-3.61v-7.52c0-1.45-0.03-3.98-0.13-4.99c0.64,0.14,1.01,0.17,1.42,0.17c0.4,0,0.84-0.07,1.35-0.17
		l-0.14,1.69c-0.03,0.37-0.03,0.91-0.03,1.58l0.07,0.03c1.32-2.43,2.87-3.64,4.49-3.64C713.83,258.08,714.07,258.15,714.47,258.29z"
		/>
	<path class="st0" d="M725.71,258.29c-0.1,0.24-0.24,0.81-0.24,2.26v0.47l-0.24,0.17c-0.37-0.37-1.08-0.54-1.65-0.54
		c-2.16,0-3.44,2.02-3.44,4.62v4.59c0,2.02,0.03,3.58,0.14,4.69c-0.51-0.1-0.95-0.17-1.35-0.17c-0.44,0-0.88,0.07-1.42,0.17
		c0.1-0.91,0.13-2.02,0.13-3.61v-7.52c0-1.45-0.03-3.98-0.13-4.99c0.64,0.14,1.01,0.17,1.42,0.17c0.4,0,0.84-0.07,1.35-0.17
		l-0.14,1.69c-0.03,0.37-0.03,0.91-0.03,1.58l0.07,0.03c1.32-2.43,2.87-3.64,4.49-3.64C725.07,258.08,725.3,258.15,725.71,258.29z"
		/>
	<path class="st0" d="M743.76,266.48c0,5.57-3.68,8.4-8.17,8.4c-4.72,0-8.23-3.04-8.23-8.2c0-6.88,4.76-8.6,8.16-8.6
		C740.25,258.08,743.76,261.09,743.76,266.48z M735.56,273.81c3.41,0,5.23-2.6,5.23-7.32c0-4.69-1.75-7.32-5.26-7.32
		c-3.37,0-5.2,2.56-5.2,7.32C730.33,271.21,732.19,273.81,735.56,273.81z"/>
	<path class="st0" d="M755.71,258.29c-0.1,0.24-0.24,0.81-0.24,2.26v0.47l-0.24,0.17c-0.37-0.37-1.08-0.54-1.65-0.54
		c-2.16,0-3.44,2.02-3.44,4.62v4.59c0,2.02,0.03,3.58,0.13,4.69c-0.51-0.1-0.94-0.17-1.35-0.17c-0.44,0-0.88,0.07-1.42,0.17
		c0.1-0.91,0.14-2.02,0.14-3.61v-7.52c0-1.45-0.03-3.98-0.14-4.99c0.64,0.14,1.01,0.17,1.42,0.17c0.41,0,0.84-0.07,1.35-0.17
		l-0.13,1.69c-0.03,0.37-0.03,0.91-0.03,1.58l0.07,0.03c1.32-2.43,2.87-3.64,4.49-3.64C755.07,258.08,755.3,258.15,755.71,258.29z"
		/>
	<path class="st0" d="M760.3,272.86c0,1.05-0.88,1.92-1.92,1.92s-1.92-0.88-1.92-1.92s0.88-1.92,1.92-1.92
		S760.3,271.81,760.3,272.86z"/>
</g>
</svg>
