<?xml version="1.0" encoding="utf-8"?>
<!-- Generator: Adobe Illustrator 25.4.1, SVG Export Plug-In . SVG Version: 6.00 Build 0)  -->
<svg version="1.1" id="Capa_1" xmlns="http://www.w3.org/2000/svg" xmlns:xlink="http://www.w3.org/1999/xlink" x="0px" y="0px"
	 viewBox="0 0 1242 1777.1" style="enable-background:new 0 0 1242 1777.1;" xml:space="preserve">
<style type="text/css">
	.st0{fill:#486F7F;}
</style>
<g>
	<path class="st0" d="M333.8,1595c27.6-14.6,46,4.7,43.3,32.5c-1.2,12.3-5,28.3-12.8,42.2c10.8-2.1,20.4-8.5,26.4-16.9
		c-4.9,10.5-15.4,16.7-27.3,18.4c-3.2,5.5-7.2,10.8-12.1,15.3c-17,16.1-41.6,18.7-47.7-0.6c-4.2-13.6,1.6-31.5,11-47.4
		C310.8,1618.5,320.5,1602,333.8,1595z M317.5,1647.8c-2.4,4-4.5,7.7-5.8,11.3c-5.1,13.7-6,33,5.5,37.8c8.8,3.7,29.5-1.6,44.2-25.6
		C344.3,1673.1,325.2,1665.6,317.5,1647.8z M333.4,1613.4c3-3.9,6-0.4,2.7,9.1c-0.2,0-9.7,11-17.2,22.6c2,6.8,6.3,13.8,15.3,18.9
		c9.5,5.5,19.2,7.1,27.9,5.8c2.9-5,5.5-10.6,7.7-17.2c13.6-39.9,0-56.9-11.6-59.5c-20.7-4.6-39.5,14.1-40.7,33.4
		c-0.1,2.1-0.2,4.5-0.2,7.2C322.4,1626.1,328,1619,333.4,1613.4z"/>
	<path class="st0" d="M392.9,1653.7c-0.5,1.7-0.5,4.4,1.1,7.1c2.2,3.9,4.6,7.1,5.6,10.1c12.4-6.1,15.4-9.7,21.8-18
		c-2.7,8.5-11.4,14.6-21.4,19.3c1.9,5.8,1.6,10.6-2.1,16.4c-6.3,10.1-19.9,13.3-24.3,8c-6-7.5,3.5-15.6,17.3-21.8
		c2-0.9,3.6-1.7,5.2-2.5c-0.4-2.4-1.4-4.7-3-7.3c-6-9.3-5-10.5-4.9-12.6c0.2-4,5-8.1,5-8.1c2.7-2,3.5,2,2.9,4.4
		C394.8,1650.2,393.4,1652.1,392.9,1653.7z M394.5,1674.2c-11.6,5-21.8,11.6-20.9,17.9c0.6,4.4,4.4,5.7,9,3.1
		c4.7-2.6,14.8-10.8,13.8-21.7C395.8,1673.9,395.2,1674,394.5,1674.2z"/>
	<path class="st0" d="M461,1665.3c-2,9.6,3.2,13.3,8.7,11.1c9.2-3.6,17.9-23.8,24.4-23.6c-6.3,5.8-6.8,7.7-11.2,13.3
		c-5.7,7.3-11.7,13.7-18.8,12.9c-9.3-1-10.5-12.7-8.1-18.2c2.5-5.7,7.5-12.2,15.3-12.7c6.5-0.4,9,5.7,2.7,11
		c-3.7,3.1-9.2,4.6-12.8,5.2C461.3,1664.5,461,1665,461,1665.3z M466.4,1661.7c10.1-3.4,11.8-11,6.6-9.7c0,0-8.2,1-11.3,11
		C462.9,1662.7,464.6,1662.3,466.4,1661.7z"/>
	<path class="st0" d="M495.4,1653.7c-0.5,1.7-0.5,4.4,1.1,7.1c2.2,3.9,4.6,7.1,5.6,10.1c12.4-6.1,15.4-9.7,21.8-18
		c-2.7,8.5-11.4,14.6-21.4,19.3c1.9,5.8,1.6,10.6-2.1,16.4c-6.3,10.1-19.9,13.3-24.3,8c-6-7.5,3.5-15.6,17.3-21.8
		c2-0.9,3.6-1.7,5.2-2.5c-0.4-2.4-1.4-4.7-3-7.3c-6-9.3-5-10.5-4.9-12.6c0.2-4,5-8.1,5-8.1c2.7-2,3.5,2,2.9,4.4
		C497.2,1650.2,495.8,1652.1,495.4,1653.7z M497,1674.2c-11.6,5-21.8,11.6-20.9,17.9c0.6,4.4,4.4,5.7,9,3.1
		c4.7-2.6,14.8-10.8,13.8-21.7C498.2,1673.9,497.6,1674,497,1674.2z"/>
	<path class="st0" d="M473.8,1731.1c-1.1-16.4,29-43.4,33.9-47.8c1.9-1.7,3.5-3.1,4.6-3.9c2.1-7.1,3.6-12.4,4.2-14.1
		c4-11.6,6.5-13.2,8-12.6c2.1,1,2,3.5,0.7,7.3c4-4.9,9.2-9.6,16.2-9.7c8.6-0.2,11.1,8.1,8.2,17.7c6.6-2.2,13.1-6,18.9-15.1
		c-3.1,9.8-10.8,13.6-19.3,16.3c-1,2.9-2.6,6.1-4.7,9c-9.1,12.9-20.8,11.3-22.3,7.1c-1.2-3.6,1.2-6.8,5-9.3
		c5.4-3.5,10.8-4.7,16.3-6.2c3-7.7,3.6-16.9-1.9-17.4c-7.2-0.7-13.4,5.7-17.8,11.6c-2,5.1-5,11.8-7.3,19.7
		c-4.4,14.6-10.3,32.1-17.9,43.8C488.6,1742.8,474.6,1742.4,473.8,1731.1z M503.9,1689.3c-10.3,9.6-17.4,17.7-23.6,28
		c-6.7,11.2-5.6,20.5,0.6,20c12.8-1.2,24.4-34.6,30.7-55.6C510,1683.4,507.7,1685.9,503.9,1689.3z M528.5,1677
		c-4.5,2.9-5.5,6.6-4.5,8.2c2.6,4.2,10.6-0.9,15.9-8.6c1.1-1.5,2.1-3.2,3-5.2C537.7,1672.9,532.7,1674.4,528.5,1677z"/>
	<path class="st0" d="M564.4,1665.3c-2,9.6,3.2,13.3,8.7,11.1c9.2-3.6,17.9-23.8,24.4-23.6c-6.3,5.8-6.8,7.7-11.2,13.3
		c-5.7,7.3-11.7,13.7-18.8,12.9c-9.3-1-10.5-12.7-8.1-18.2c2.5-5.7,7.5-12.2,15.3-12.7c6.5-0.4,9,5.7,2.7,11
		c-3.7,3.1-9.2,4.6-12.8,5.2C564.7,1664.5,564.4,1665,564.4,1665.3z M569.8,1661.7c10.1-3.4,11.8-11,6.6-9.7c0,0-8.2,1-11.3,11
		C566.3,1662.7,568,1662.3,569.8,1661.7z"/>
	<path class="st0" d="M600.5,1653.8c8.1,5.1,10.8,10.7,3.9,20.9c-7.3,10.7-8.5,27.9,1.7,19.7c6-4.9,10.5-13.2,17.9-25.8
		c7.2-12.2,9-14.2,12.2-15.9c-1,1.9-6.6,9.5-10.3,16.2c-8.3,15.2-17.1,29.7-24.6,29.1c-7.6-0.6-10.7-11.2-5.7-21.2
		c5.4-11,11.4-15.3,1.7-21.5c-12.3-8-5.8-14.3-2.9-16.1c3.6-2.1,9-1.2,9,4.1c0,4-2.7,7.3-4.9,9.2
		C599.1,1652.9,599.8,1653.3,600.5,1653.8z M596.9,1640.5c-3.5,1.5-5.4,6.3,0.9,11.5c2.1-2.5,3.6-5.1,4-6.6
		C602.6,1642,599.8,1639.3,596.9,1640.5z"/>
	<path class="st0" d="M652.3,1682.2c7.1-10.5,15.8-28.3,21.9-29.6c-6.2,7.1-7.8,10.3-11.4,16.1c-6.8,11.1-10.6,18.5-14.6,17.9
		c-4.5-0.7-8.6-6.6-4-19.2c0.1-0.5,0.4-1,0.5-1.5c-5.1,6.2-10,12.2-14.7,6.8c-4.9-5.5-0.1-15.3,4.4-19.4c3.2-3,9.3-5.6,15.8-4
		c7.2,1.9,1.7,1.9,1.7,1.9s-9.2-2-15.8,8.6c-4.9,7.8-2.1,14.9,1.7,11.3c2.1-2,6.7-7.8,10.3-12.4c1.9-3,3.9-6.6,5.7-6.6
		c1.9-0.1,6.5,0.5,2.4,5.7C644.9,1672.5,644.7,1693.3,652.3,1682.2z"/>
	<path class="st0" d="M677.7,1658.2c0.1,2.6-2.9,8.6-3.4,9.7c0.4,0,1.4-1.7,4.1-5.1c3.5-4.4,7.1-7.2,9.8-6.8c4,1.4,4.2,4.6,2.6,8.5
		c-1.6,3.9-3.4,11,0.4,6.3c3-3.6,15.7-20.3,20.9-22.8c4.2-2,9.1,1.1,6.5,9.2c-0.9,3-3.7,8.3-8.6,15.6c-7.2,10.7-7.2,21.5,0.6,15.2
		c12.1-9.6,17-35.6,28.5-35.2c-9.3,4.2-12.9,16.3-17,23.3c-7.7,13.3-14.2,17.5-18.8,14.3c-4.7-3.2-5.8-8.8-0.2-17.9
		c7.7-12.4,14.1-27.5,8.3-22.6c-8.1,6.8-17.3,20.2-19.7,22.6c-2.1,2.2-4.5,2.2-6.1,0.6c-1.4-1.5-2.1-4.6,0.9-12.1
		c2.7-6.7-0.9-3.5-3.9-0.9c-5.4,4.9-12.3,18.5-13.9,21.2c-2.7,4.4-6.6-1.1-5-5.6c0.2-0.7,9.1-20.3,8.1-22.5
		C673.1,1652.3,677.4,1652.1,677.7,1658.2z"/>
	<path class="st0" d="M738.8,1645.9c5.6-0.1,10.1,3.2,10.1,12.1c0,2.6-0.6,6.2-1.6,9.7c1.7-0.7,3.6-1.9,5.5-3.4
		c7.5-6,9.2-11.9,13.1-11.6c-4.1,3.1-7.6,10.3-14.6,14.6c-1.4,0.9-2.9,1.5-4.5,2c-2.7,8.3-8.1,16.7-14.2,16.4
		c-8.7-0.2-9.3-11.7-5.2-19.8c0.5-1,1-2,1.5-2.9C723.7,1653.4,731.9,1646,738.8,1645.9z M732.9,1667.8c-1.2,2.2-2.2,4.5-2.9,6.7
		c-1.6,6.1,1.5,12.7,6.8,8c2.6-2.4,5.6-7.2,7.7-12.7C740.5,1670.5,736.3,1670.1,732.9,1667.8z M736.9,1652.7
		c3.4-0.5,3.7,2.7,3.5,4.6c0,0.1-3.6,4-6.6,9c2.9,2.2,7,3.1,11.4,2c2.6-7.5,3.4-15.6-1-19.2c-5.8-5-12.8,0.7-14.1,5
		c-0.6,2.4-0.6,4.7,0,6.7C733.3,1655.7,735.9,1652.8,736.9,1652.7z"/>
	<path class="st0" d="M766.4,1653.7c-0.5,1.7-0.5,4.4,1.1,7.1c2.2,3.9,4.6,7.1,5.6,10.1c12.4-6.1,15.4-9.7,21.8-18
		c-2.7,8.5-11.5,14.6-21.4,19.3c1.9,5.8,1.6,10.6-2.1,16.4c-6.3,10.1-19.9,13.3-24.3,8c-6-7.5,3.5-15.6,17.3-21.8
		c2-0.9,3.6-1.7,5.2-2.5c-0.4-2.4-1.4-4.7-3-7.3c-6-9.3-5-10.5-4.9-12.6c0.2-4,5-8.1,5-8.1c2.7-2,3.5,2,2.9,4.4
		C768.3,1650.2,766.9,1652.1,766.4,1653.7z M768,1674.2c-11.6,5-21.8,11.6-20.9,17.9c0.6,4.4,4.4,5.7,9,3.1
		c4.7-2.6,14.8-10.8,13.8-21.7C769.3,1673.9,768.6,1674,768,1674.2z"/>
	<path class="st0" d="M834.5,1665.3c-2,9.6,3.2,13.3,8.7,11.1c9.2-3.6,17.9-23.8,24.4-23.6c-6.3,5.8-6.8,7.7-11.2,13.3
		c-5.7,7.3-11.7,13.7-18.8,12.9c-9.3-1-10.5-12.7-8.1-18.2c2.5-5.7,7.5-12.2,15.3-12.7c6.5-0.4,9,5.7,2.7,11
		c-3.7,3.1-9.2,4.6-12.8,5.2C834.7,1664.5,834.5,1665,834.5,1665.3z M839.8,1661.7c10.1-3.4,11.8-11,6.6-9.7c0,0-8.2,1-11.3,11
		C836.3,1662.7,838.1,1662.3,839.8,1661.7z"/>
	<path class="st0" d="M872.6,1656.7c0.1,4.1-1.2,6.1-3.5,10.8c5.2-7.5,17.3-19.4,25.5-21.7c4.7-1.2,6.8,3.1,6.5,6.3
		c-0.6,4.9-14.4,23.8-16.2,30.7c-2.5,10.3,4,7,6,5.5c6-4.5,17.2-24.6,22.3-30.5c6.2-7.2,8.6-4.9,8.6-4.9
		c-9.8,2.4-21.8,34.1-32.7,38.5c-3.2,1.4-8.2,0.5-9.7-4.7c-2.9-10.5,16.1-34.6,16.7-38.2c0.6-4.1-11.4,3.2-19.9,12.9
		c-5.7,6.6-8.7,11.6-11.2,15.4c-0.5,0.9-3.4,0.9-4.6-1.2c-0.5-0.9-2-2.9,2.6-12.3c5.1-10.3,3-10,3-10
		C867,1651.8,872.4,1652.7,872.6,1656.7z"/>
</g>
<text transform="matrix(1 0 0 1 1456.8408 1656.8)" class="st0" style="font-family:'AisyahDemo'; font-size:124.4526px;">Os esperamos en </text>
</svg>
