<?xml version="1.0" encoding="utf-8"?>
<!-- Generator: Adobe Illustrator 25.4.1, SVG Export Plug-In . SVG Version: 6.00 Build 0)  -->
<svg version="1.1" id="Capa_1" xmlns="http://www.w3.org/2000/svg" xmlns:xlink="http://www.w3.org/1999/xlink" x="0px" y="0px"
	 viewBox="0 0 1242 2208" style="enable-background:new 0 0 1242 2208;" xml:space="preserve">
<style type="text/css">
	.st0{display:none;}
	.st1{display:inline;opacity:0.3;fill:#FCF8F0;enable-background:new    ;}
	.st2{fill:#49707F;}
	.st3{fill:none;}
	.st4{fill-rule:evenodd;clip-rule:evenodd;fill:#49707F;}
	.st5{fill:#4D4D4D;}
</style>
<g id="fondo" class="st0">
	<rect x="-16.9" y="-29.6" class="st1" width="1275.5" height="2267.5"/>
</g>
<g id="Capa_2_00000086679546629099905610000014225892356357704576_" class="st0">
</g>
<g>
	<g>
		<g>
			<g>
				<g>
					<g>
						<path class="st2" d="M506.1,621.3c11.9,16.6,35.2,12.8,53,9.4c14.3-2.8,28.8-4.6,43.5-4.2c7.2,0.2,14.9,0.5,21.9,2.3
							c3.4,0.9,6.9,1.9,9.2,4.5c3.7,4.5,3.7,9-0.1,13.4c-6,5-8.3,4.4-7-1.8c0.2,0.8,1.6,0.7,1.6-0.2c-0.5-9.5-16.2-0.7-6.1,5.9
							c11.2,7.2,21.3-9.6,14.1-18.1c-5.1-6-14.3-6.6-21.7-7.4c-12.7-1.2-25.7-0.9-38.4,0.7c-22.4,2.8-51.2,14.4-68.8-5.1
							C506.6,620.1,505.8,620.7,506.1,621.3L506.1,621.3z"/>
					</g>
					<g>
						<path class="st2" d="M604.2,635.4c1.1-5.7-7.4-4.2-6,1.1c2.7,9.6,16.3,1.6,17.9-4.4c3-10.9-9.7-18-19.4-18.1
							c-8.6-0.1-16.3,3.3-24.2,5.7c-4.7,1.5-9.6,2.8-14.6,2.8c-3.3,0-6.8-0.5-9.8-1.9c-1-0.7-2-1.2-3-1.9c-3.8-2.7-3.8-5,0-6.9
							c-0.8-1-2.3-0.2-1.8,1c2.7,6,11.8,1.7,8.8-4.3c-3.6-7-13.2-1.6-12.8,4.7c0.5,11.2,16.5,12.8,25.1,11.3c9-1.6,17-6.1,26-7.7
							c6.3-1.1,13-0.9,18.3,2.7c2.4,1.6,5.3,4.4,5.6,7.4c-0.5,2.4-0.8,4.6-1.2,7c-3.3,5.3-6.4,5.7-9.2,1.2
							C603.5,635.6,604.2,635.7,604.2,635.4L604.2,635.4z"/>
					</g>
				</g>
			</g>
		</g>
		<g>
			<g>
				<g>
					<g>
						<path class="st2" d="M779.8,620.8c-11.9,16.6-35.2,12.8-52.8,9.4c-14.3-2.8-28.8-4.6-43.5-4.2c-7.2,0.2-14.9,0.5-21.9,2.3
							c-3.4,0.9-6.9,1.9-9.2,4.5c-3.7,4.5-3.7,9,0.1,13.4c6,5,8.3,4.4,7-1.8c-0.2,0.8-1.6,0.7-1.5-0.2c0.5-9.5,16.2-0.7,6.1,5.9
							c-11.2,7.2-21.3-9.6-14.1-18.1c5.1-6,14.3-6.6,21.7-7.4c12.7-1.2,25.7-0.9,38.4,0.7c22.4,2.8,51.2,14.4,68.8-5.1
							C779.3,619.6,780.2,620.3,779.8,620.8L779.8,620.8z"/>
					</g>
					<g>
						<path class="st2" d="M681.8,634.9c-1.1-5.7,7.4-4.2,6,1.1c-2.7,9.6-16.3,1.6-17.9-4.4c-3-10.9,9.7-18,19.4-18.1
							c8.6-0.1,16.3,3.3,24.2,5.7c4.7,1.5,9.6,2.8,14.6,2.8c3.3,0,6.8-0.5,9.8-1.9c1-0.7,2-1.2,3.2-1.9c3.8-2.7,3.8-5,0-6.9
							c0.8-1,2.3-0.2,1.8,1c-2.7,6-11.8,1.7-8.8-4.3c3.6-7,13.2-1.6,13,4.7c-0.5,11.2-16.5,12.8-25.1,11.3c-8.9-1.6-17-6.1-26-7.7
							c-6.3-1.1-13-0.9-18.3,2.7c-2.4,1.7-5.3,4.4-5.6,7.4c0.5,2.4,0.8,4.6,1.2,7c3.3,5.3,6.4,5.7,9.2,1.2
							C682.4,635.2,681.9,635.3,681.8,634.9L681.8,634.9z"/>
					</g>
				</g>
			</g>
		</g>
	</g>
</g>
<g>
	<path class="st2" d="M400.9,1450.4c3-17.4,21.4-25.8,36.4-27.6c1.4-0.2,2.8-0.3,4.4-0.3c8.6-10.4,19.8-13.9,25-14.6
		c13.2-2,20.2,5.5,13,10.7c-5.2,3.6-21.3,4.1-33.6,4.7c-6.8,8.5-9.6,17.2-8.5,23c1.6,7.8,6.8,9.9,19.7,4.7
		c9.9-3.9,19.4-18,22.6-23.7c0.5-1,0.8-1.6,0.8-1.6c1.5-0.9,2.7,0.3,2.3,5.1c0,0-7.8,21.1-16,38.4c4.3,0.7,8.6,1.5,15.3,2
		c13.5,1.1,20.5-1,28.5-4.1c-7.9,3.6-16.3,7.4-42.7,2.9c-0.5-0.1-1-0.2-1.6-0.3c-3.5,7.4-7.2,14.1-10.4,18.1
		c-7.3,9.1-16.3,11.4-23.1,10.8c-11.6-0.9-11.9-11.3-8.6-16.9c5-8.6,17.9-13.3,29.7-13.6c3.3-0.1,6.1,0,8.6,0.3
		c1.2-2.8,2.3-5.7,3.5-8.8c4.2-10.8,7.9-19.3,10.4-24.9c-4.7,7.3-12.5,15.2-22,18.4c-22.1,7.3-24.1-12.5-16.9-25.1
		c0.9-1.6,1.9-3,3-4.5C419.6,1425.3,406,1434.9,400.9,1450.4z M432.1,1475.9c-11.4,7.3-10.6,20.8,0.5,22
		c14.3,1.4,22.3-10.9,29.7-28.4C448.7,1468.2,439.3,1471.4,432.1,1475.9z M450.4,1418.5c-1.2,1.1-2.3,2.4-3.4,3.6
		c10.5-0.7,23.2-1.1,28.1-2.7c11.2-3.5,5.1-10.4-1.6-10.6C464.1,1408.4,456.2,1412.8,450.4,1418.5z"/>
	<path class="st2" d="M491.3,1439.4c3.6-0.1,6.6,2.1,6.6,8c0,1.7-0.3,4.2-1,6.4c1.1-0.5,2.4-1.2,3.6-2.3c4.8-3.9,6.1-8,8.6-7.7
		c-2.7,2-5,6.9-9.7,9.7c-0.9,0.6-1.9,0.9-2.9,1.4c-1.8,5.4-5.3,11-9.4,10.8c-5.7-0.2-6.2-7.8-3.5-13.1c0.3-0.7,0.7-1.4,0.9-1.9
		C481.3,1444.4,486.7,1439.5,491.3,1439.4z M487.4,1453.8c-0.9,1.5-1.5,2.9-1.9,4.4c-1,4.1,0.9,8.5,4.5,5.3c1.7-1.6,3.6-4.7,5.1-8.5
		C492.5,1455.7,489.7,1455.4,487.4,1453.8z M490,1444c2.3-0.3,2.5,1.8,2.3,3c0,0.1-2.4,2.6-4.3,6c1.9,1.5,4.6,2,7.5,1.4
		c1.7-4.8,2.3-10.4-0.7-12.6c-3.8-3.3-8.6,0.5-9.2,3.3c-0.3,1.6-0.3,3,0,4.4C487.7,1445.9,489.3,1444,490,1444z"/>
	<path class="st2" d="M509.2,1439.4c3.6-0.1,6.6,2.1,6.6,8c0,1.7-0.3,4.2-1,6.4c1.1-0.5,2.4-1.2,3.6-2.3c4.8-3.9,6.1-8,8.6-7.7
		c-2.7,2-5,6.9-9.7,9.7c-0.9,0.6-1.9,0.9-2.9,1.4c-1.8,5.4-5.3,11-9.4,10.8c-5.7-0.2-6.2-7.8-3.5-13.1c0.3-0.7,0.7-1.4,0.9-1.9
		C499.3,1444.4,504.7,1439.5,509.2,1439.4z M505.3,1453.8c-0.9,1.5-1.5,2.9-1.9,4.4c-1,4.1,0.9,8.5,4.5,5.3c1.7-1.6,3.6-4.7,5.1-8.5
		C510.3,1455.7,507.5,1455.4,505.3,1453.8z M507.9,1444c2.3-0.3,2.5,1.8,2.3,3c0,0.1-2.4,2.6-4.3,6c1.9,1.5,4.6,2,7.5,1.4
		c1.7-4.8,2.3-10.4-0.7-12.6c-3.8-3.3-8.6,0.5-9.2,3.3c-0.3,1.6-0.3,3,0,4.4C505.6,1445.9,507.3,1444,507.9,1444z"/>
	<path class="st2" d="M528.2,1458.6c3.2-0.9,5.7-0.8,7.7,0.2c7.9-5,12.4-8.5,16-15c-0.8,5.3-7.1,10.5-15,15.6
		c3.5,2.4,4.3,7.7,3.5,11.8c-1.6,7.8-6.2,14.3-14.6,19.7c-6.4,4.1-15,5-18.4,2.7c-8.6-6,3.6-19.2,12.8-25c5.6-3.6,10.4-6.6,14.2-9
		c-1.5-0.6-3.2-0.8-5.5-0.3c-3.8,0.9-6.5,2-6.5,2S524.7,1459.5,528.2,1458.6z M520.9,1469.6c-19.7,13.1-19.4,29.1-3.3,21.7
		c18.3-8.6,20.7-21.3,19.9-26.8c-0.3-1.5-0.9-3-2.3-4.1C530.8,1463.4,525.7,1466.3,520.9,1469.6z M536.1,1442.7
		c0.3,0.3,0.9,0.7,1.1,1.4c1.5,4.2-3.5,10.6-9.4,13.7c-5.3,2.9-8.9,1.7-9.7-2.8c-1.4-7.3,7.3-13.1,11.2-14.1c1.7-0.5,3-0.6,4.2-0.6
		C536.1,1440.7,536.8,1442.1,536.1,1442.7z M524.8,1448c-4.2,4.5-5.2,10-1.8,9.8c3.5-0.3,7.2-2.8,10.5-6.9c2.6-3.3,2.5-6.6,1.7-8
		C533.7,1443,529.1,1443.9,524.8,1448z"/>
	<path class="st2" d="M547,1466.9c-0.3,2.4,0.1,4.2,2.3,1.2c6.4-9,14.2-21.3,20.8-24.1c-4.5,4.2-10.4,10.8-15,17.7
		c-6.4,9.5-7.3,10-9.1,9.1c-3.4-1.7-1.7-11.5,0.3-18.1c2.5-8,9-23.9,16.2-34.5c3.5-5.1,6.6-9.1,9.8-11.2c2.5-1.7,5.5-2.4,7.3,0.1
		c3.6,5.4-16.7,28.6-22.8,34.1c-1.1,1-1.9,1.8-2.6,2.3C548.8,1455.6,547.5,1462.5,547,1466.9z M557.6,1435.6c-0.9,2-1.9,4.1-2.7,5.9
		c3.2-3.3,9.1-9.6,12.5-14c8-10.1,10.4-15.2,10.9-17.5c1.5-5.7-4.4,0.3-6.1,2C569.7,1415.1,564.4,1421.8,557.6,1435.6z"/>
	<path class="st2" d="M566.1,1452.2c-1.4,6.4,2.1,8.8,5.7,7.3c6.1-2.4,11.8-15.7,16.1-15.6c-4.2,3.8-4.5,5.1-7.4,8.8
		c-3.7,4.7-7.8,9.1-12.4,8.6c-6.2-0.7-6.9-8.5-5.3-11.9c1.6-3.7,4.8-8,10.1-8.5c4.2-0.3,6,3.7,1.8,7.3c-2.5,2-6.1,3-8.6,3.5
		C566.2,1451.6,566.1,1452,566.1,1452.2z M569.6,1449.7c6.6-2.3,7.9-7.3,4.3-6.4c0,0-5.4,0.7-7.4,7.3
		C567.3,1450.4,568.4,1450.2,569.6,1449.7z"/>
	<path class="st2" d="M619.7,1447.5c0.1,1.7-1.9,5.6-2.3,6.4c0.3,0,0.9-1.1,2.7-3.4c2.3-2.8,4.7-4.7,6.5-4.5c2.6,0.9,2.8,3,1.7,5.5
		c-1,2.5-2.3,7.3,0.3,4.2c1.9-2.4,10.4-13.4,13.7-15c2.8-1.4,6.1,0.8,4.2,6.1c-0.6,2-2.5,5.4-5.6,10.4c-4.7,7.1-4.7,14.2,0.3,10
		c8-6.4,11.3-23.6,18.8-23.2c-6.2,2.8-8.6,10.8-11.3,15.3c-5.1,8.8-9.4,11.6-12.4,9.5s-3.8-5.9-0.2-11.8c5.1-8.2,9.2-18.1,5.4-15
		c-5.3,4.5-11.4,13.3-13.1,15c-1.5,1.5-2.9,1.5-4.1,0.3c-0.9-0.9-1.5-3,0.6-8c1.8-4.4-0.6-2.3-2.5-0.6c-3.5,3.2-8.1,12.3-9.2,14
		c-1.8,2.8-4.3-0.8-3.3-3.6c0.2-0.5,6.1-13.4,5.3-14.9C616.7,1443.5,619.6,1443.4,619.7,1447.5z"/>
	<path class="st2" d="M669.9,1463.4c4.7-6.9,10.5-18.7,14.4-19.6c-4.2,4.7-5.2,6.9-7.5,10.6c-4.5,7.3-7,12.3-9.7,11.8
		c-2.9-0.5-5.6-4.3-2.6-12.6c0.1-0.3,0.3-0.7,0.3-0.9c-3.4,4.2-6.6,8-9.8,4.5c-3.2-3.6-0.1-10.1,2.8-12.8c2.1-2,6.2-3.6,10.5-2.6
		c4.7,1.2,1.1,1.2,1.1,1.2s-6.1-1.4-10.5,5.6c-3.2,5.2-1.5,9.9,1.1,7.4c1.5-1.4,4.4-5.2,6.9-8.2c1.2-2,2.5-4.3,3.7-4.3
		c1.2-0.1,4.2,0.3,1.6,3.7C664.9,1456.9,664.8,1470.7,669.9,1463.4z"/>
	<path class="st2" d="M650.4,1495.7c-0.8-10.8,19.2-28.6,22.4-31.6c1.2-1.1,2.3-2,3-2.5c1.5-4.7,2.4-8.2,2.8-9.2
		c2.6-7.7,4.2-8.7,5.3-8.3c1.5,0.7,1.4,2.3,0.5,4.7c2.6-3.2,6.1-6.4,10.7-6.4c5.6-0.2,7.3,5.3,5.4,11.7c4.3-1.5,8.6-3.9,12.4-9.9
		c-2,6.5-7.2,9-12.7,10.8c-0.7,1.9-1.7,4.1-3,6c-6.1,8.6-13.7,7.4-14.6,4.7c-0.8-2.4,0.8-4.5,3.3-6.2c3.5-2.3,7.2-3,10.8-4.2
		c1.9-5.1,2.4-11.2-1.2-11.5c-4.7-0.5-8.9,3.7-11.8,7.7c-1.4,3.4-3.3,7.9-4.7,13.1c-2.8,9.7-6.9,21.3-11.8,29
		C660.3,1503.5,650.9,1503.3,650.4,1495.7z M670.4,1468.1c-6.9,6.4-11.5,11.7-15.5,18.6c-4.4,7.4-3.6,13.6,0.3,13.2
		c8.6-0.8,16.1-22.9,20.3-36.7C674.4,1464.2,672.8,1465.7,670.4,1468.1z M686.4,1459.9c-2.9,1.9-3.6,4.3-2.9,5.4
		c1.7,2.8,7-0.6,10.5-5.6c0.8-0.9,1.5-2.1,1.9-3.5C692.7,1457.3,689.3,1458.2,686.4,1459.9z"/>
	<path class="st2" d="M714.6,1444.7c-0.3,1.1-0.3,2.8,0.8,4.7c1.5,2.5,3,4.7,3.6,6.6c8.2-4.1,10.3-6.4,14.3-11.8
		c-1.8,5.5-7.5,9.7-14.2,12.7c1.2,3.8,1,7-1.5,10.8c-4.2,6.6-13.1,8.8-16,5.3c-3.9-4.8,2.3-10.4,11.4-14.3c1.4-0.6,2.4-1.1,3.5-1.6
		c-0.3-1.6-0.9-3-1.9-4.7c-3.9-6.2-3.3-6.9-3.2-8.3c0.2-2.6,3.3-5.3,3.3-5.3c1.8-1.4,2.3,1.4,1.9,2.8
		C715.8,1442.2,714.9,1443.4,714.6,1444.7z M715.7,1458.1c-7.7,3.3-14.3,7.7-13.7,11.8c0.3,2.8,2.8,3.7,6,2c3-1.7,9.8-7.2,9.1-14.3
		C716.5,1458,716.1,1458,715.7,1458.1z"/>
	<path class="st2" d="M757.7,1466.9c-0.3,2.4,0.1,4.2,2.3,1.2c6.4-9,14.2-21.3,20.8-24.1c-4.5,4.2-10.4,10.8-15,17.7
		c-6.4,9.5-7.3,10-9.1,9.1c-3.4-1.7-1.7-11.5,0.3-18.1c2.5-8,9-23.9,16.2-34.5c3.5-5.1,6.6-9.1,9.8-11.2c2.5-1.7,5.5-2.4,7.3,0.1
		c3.6,5.4-16.7,28.6-22.8,34.1c-1.1,1-1.9,1.8-2.6,2.3C759.8,1455.6,758.3,1462.5,757.7,1466.9z M768.6,1435.6
		c-0.9,2-1.9,4.1-2.7,5.9c3.2-3.3,9.1-9.6,12.5-14c8-10.1,10.4-15.2,10.9-17.5c1.5-5.7-4.4,0.3-6.1,2
		C780.5,1415.1,775.3,1421.8,768.6,1435.6z"/>
	<path class="st2" d="M786.4,1453.6c-3.7,5-6.8,8.1-9.9,7.2c-5.1-1.6-0.8-14.3,2.8-16.8c1.6-0.8,2.5,0.1,2.3,1.4
		c-0.3,2-2.5,5.1-3.5,8.7c-0.7,2.7-1.5,5.9,0.6,5.5c2.5-0.3,7.3-7.4,10.5-11.5c2.7-3.4,3.5-4.3,5.3-4.3
		C791.8,1445.2,789.7,1449.1,786.4,1453.6z M782.3,1440.6c-0.9-0.3-1-0.9-0.3-2.3c0.8-1.6,0.3-1.9,1.6-2.6c0.9-0.5,3.8-0.2,2.8,1.9
		C785.5,1439.7,783.4,1440.8,782.3,1440.6z"/>
	<path class="st2" d="M797.1,1446.6c0.1,2.7-0.8,4.1-2.3,7.2c3.5-4.8,11.4-12.8,16.9-14.3c3-0.8,4.5,2,4.2,4.2
		c-0.3,3.2-9.6,15.7-10.7,20.3c-1.6,6.9,2.6,4.6,3.9,3.6c3.9-2.9,11.4-16.2,14.6-20.2c4.2-4.7,5.6-3.2,5.6-3.2
		c-6.5,1.6-14.3,22.5-21.6,25.4c-2.1,0.9-5.4,0.3-6.4-3c-1.9-6.9,10.6-22.9,11-25.2c0.3-2.7-7.5,2.1-13.1,8.6
		c-3.7,4.3-5.7,7.7-7.4,10.3c-0.3,0.6-2.3,0.6-3-0.8c-0.3-0.6-1.4-1.9,1.7-8.1c3.4-6.9,1.9-6.6,1.9-6.6
		C793.4,1443.3,797.1,1444,797.1,1446.6z"/>
	<path class="st2" d="M859.4,1409.2c-0.8,9.8-22,29.9-29,35.4c-1.7,3-1.9,4.7-3.2,8.1c1.2-2.3,8.8-11.5,14.9-10.4
		c5.6,1.1,3.5,7.4-0.9,9.9c-3,1.7-8.7,3.7-8.9,4.4c6.2,2.7,1.5,10.1,4.2,13.1c4.7,3,12.4-20.6,22-25.8c-1,0.9-1.9,2.5-3.4,4.2
		c-6.9,7.7-10.4,17.2-14.3,21.3c-1.9,1.9-4.2,1.7-5.2,1c-6.4-3.6-0.5-12.2-4.7-13.1c-0.9-0.2-1.7-1.7-0.7-2.8
		c1.6-1.7,7.1-3.3,10.8-6.1c6.2-4.4,1.4-7.4-4.7-3.2c-7.8,5.4-9.1,10.4-11.7,18.1c-3.5,0-3.4-2.9-2.8-6.1c0.2-0.8,8-24.6,15.5-35.8
		c7.3-11.8,13.9-15.2,15.3-15.8C856.6,1404.4,859.6,1406.3,859.4,1409.2z M854,1408.7c-9.9,6.4-18.8,23.4-23.1,33.9
		c10.6-8.8,26.1-26.5,27-32.3C858.5,1407.7,856.5,1407.1,854,1408.7z"/>
</g>
<g>
	<g>
		<g>
			<path class="st2" d="M601.9,1740.8v0.7c-1.8-0.9-3.3-1.9-4.4-3.2c-1.7-1.7-3-3.7-3.9-6.1s-1.4-4.7-1.4-7.2c0-3.6,0.9-7,2.7-10
				s4.2-5.2,7-6.4v0.8c-1.5,0.8-2.6,1.9-3.5,3.3s-1.7,3.2-2,5.3c-0.5,2.1-0.7,4.3-0.7,6.6c0,2.6,0.2,4.8,0.6,6.9
				c0.3,1.7,0.7,2.9,1.1,3.9c0.3,1,1,1.9,1.8,2.8C599.8,1739.2,600.8,1740.1,601.9,1740.8z"/>
			<path class="st2" d="M618.1,1727.6c-0.3,2.1-1.2,3.8-2.6,4.8c-1.2,1.1-2.6,1.8-4.2,1.8c-1.9,0-3.4-0.8-4.8-2.4
				c-1.4-1.6-2-3.6-2-6.3c0-2.6,0.8-4.6,2.3-6.2s3.4-2.4,5.5-2.4c1.6,0,2.9,0.3,3.9,1.2s1.6,1.8,1.6,2.6c0,0.5-0.1,0.8-0.3,1.1
				c-0.3,0.3-0.7,0.3-1.1,0.3c-0.7,0-1.1-0.2-1.6-0.7c-0.2-0.3-0.3-0.7-0.3-1.4c-0.1-0.7-0.3-1.2-0.7-1.6s-1-0.5-1.7-0.5
				c-1.1,0-2.1,0.3-2.8,1.2c-1,1.1-1.5,2.6-1.5,4.6s0.5,3.6,1.4,5.1c1,1.5,2.3,2.3,3.8,2.3c1.1,0,2.1-0.3,3.2-1.1
				c0.7-0.6,1.2-1.6,1.9-2.9L618.1,1727.6z"/>
			<path class="st2" d="M626.3,1708.8v21.4c0,1,0.1,1.7,0.2,2c0.1,0.3,0.3,0.6,0.7,0.8c0.3,0.2,0.9,0.3,1.7,0.3v0.6H621v-0.6
				c0.8,0,1.2-0.1,1.6-0.2c0.3-0.2,0.5-0.3,0.6-0.8s0.2-1.1,0.2-2v-14.6c0-1.9,0-2.9-0.1-3.3c-0.1-0.3-0.2-0.7-0.3-0.9
				c-0.2-0.2-0.3-0.2-0.7-0.2s-0.7,0.1-1.1,0.3l-0.3-0.6l4.8-1.9h0.9L626.3,1708.8L626.3,1708.8z"/>
			<path class="st2" d="M636.8,1717.1v13.1c0,1,0.1,1.7,0.2,2c0.1,0.3,0.3,0.6,0.7,0.8c0.3,0.2,0.8,0.3,1.6,0.3v0.6h-7.9v-0.6
				c0.8,0,1.2-0.1,1.6-0.2c0.3-0.2,0.5-0.3,0.6-0.8c0.2-0.3,0.2-1.1,0.2-2v-6.3c0-1.8-0.1-2.8-0.2-3.4c-0.1-0.3-0.2-0.7-0.3-0.8
				c-0.2-0.1-0.3-0.2-0.7-0.2c-0.3,0-0.7,0.1-1.1,0.3l-0.3-0.6l4.8-1.9h0.9L636.8,1717.1L636.8,1717.1z M635.4,1708.8
				c0.5,0,0.9,0.2,1.2,0.5s0.5,0.8,0.5,1.2c0,0.5-0.2,0.9-0.5,1.2c-0.3,0.3-0.8,0.5-1.2,0.5s-0.9-0.2-1.2-0.5s-0.5-0.8-0.5-1.2
				c0-0.5,0.2-0.9,0.5-1.2C634.5,1708.9,634.9,1708.8,635.4,1708.8z"/>
			<path class="st2" d="M655.4,1727.6c-0.3,2.1-1.2,3.8-2.6,4.8c-1.2,1.1-2.6,1.8-4.2,1.8c-1.9,0-3.4-0.8-4.8-2.4
				c-1.4-1.6-2-3.6-2-6.3c0-2.6,0.8-4.6,2.3-6.2s3.4-2.4,5.5-2.4c1.6,0,2.9,0.3,3.9,1.2s1.6,1.8,1.6,2.6c0,0.5-0.1,0.8-0.3,1.1
				c-0.3,0.3-0.7,0.3-1.1,0.3c-0.7,0-1.1-0.2-1.6-0.7c-0.2-0.3-0.3-0.7-0.3-1.4c-0.1-0.7-0.3-1.2-0.7-1.6s-1-0.5-1.7-0.5
				c-1.1,0-2.1,0.3-2.8,1.2c-1,1.1-1.5,2.6-1.5,4.6s0.5,3.6,1.4,5.1c1,1.5,2.3,2.3,3.8,2.3c1.1,0,2.1-0.3,3.2-1.1
				c0.7-0.6,1.2-1.6,1.9-2.9L655.4,1727.6z"/>
			<path class="st2" d="M657.4,1709.5v-0.8c1.8,0.9,3.3,1.9,4.5,3.2c1.7,1.7,2.9,3.7,3.9,6.1c0.9,2.4,1.4,4.7,1.4,7.2
				c0,3.6-0.9,7-2.6,10c-1.8,3-4.2,5.2-7,6.4v-0.7c1.5-0.8,2.6-1.9,3.5-3.3c1-1.4,1.7-3.2,2-5.3c0.5-2.1,0.7-4.4,0.7-6.6
				c0-2.6-0.2-4.8-0.6-6.9c-0.3-1.7-0.7-2.9-1.1-3.9c-0.3-1-1-1.9-1.8-2.8C659.5,1711.1,658.7,1710.4,657.4,1709.5z"/>
		</g>
	</g>
	<a xlink:href="https://goo.gl/maps/nWVgdsXkV1RojiYa8"  pointer-events="all" target="_blank">
		<rect x="548.5" y="1548.3" class="st3" width="163.3" height="202.8"/>
		<path class="st2" d="M698.6,1582c-10.3-23.2-41.2-29.1-59.3-11.3c-0.8,0.7-1.5,1-2.5,1c-18,0-36.1,0-54.1,0
			c-9.8,0-17.4,7.5-17.4,17.4c0,30.2,0,60.2,0,90.4c0,1.1,0.1,2.5,0.3,3.6c1.9,8.5,8.6,13.7,17.2,13.7c15,0,29.9,0,44.8,0
			c15,0,29.9,0,44.8,0c1.9,0,4.1-0.3,5.9-0.9c7.3-2.5,11.8-8.8,11.8-16.6c0-17.4,0-34.7,0-51.9c0-0.8,0.3-1.6,0.7-2.3
			c1.8-2.8,3.6-5.5,5.3-8.6C702.9,1605.5,703.9,1593.8,698.6,1582z M641.9,1626.3c8.5,11.5,15.7,23.9,19,38.3
			c-9.7-9.7-19.3-19.3-28.7-28.6C635.5,1632.7,638.8,1629.5,641.9,1626.3z M574.5,1684.2c-0.3,0.3-0.6,0.7-1.1,1
			c-0.1-0.7-0.1-0.9-0.1-1.4c0-32.6,0-65.1,0-97.9c0-4.1,2.6-6.6,6.5-6.6c17.7,0,35.6,0,53.3,0c0.3,0,0.6,0,0.7,0
			c-0.8,3.2-1.8,6.2-2.3,9.4c-1.7,9.7,0.5,18.9,5.1,27.4c0.5,0.8,0.7,1.7,1.4,2.3c1,1.2,0.6,2-0.5,3.2
			C616.3,1642.5,595.5,1663.5,574.5,1684.2z M579,1690c16.1-16.1,32.3-32.3,48.6-48.5c15.9,15.9,32.1,32.1,48.5,48.5
			C643.6,1690,611,1690,579,1690z M683.2,1681.4c0,1.4-0.5,2.7-0.8,3.9c-6.6-6.6-13.1-13.1-19.5-19.5c0.7-0.1,1.4-0.1,2.1-0.2
			c5-0.9,7.4-4.2,8.5-8.8c1.8-7.9,4.6-15.4,8.3-22.6c0.2-0.6,0.6-1.1,1-1.8c0.1,0.7,0.2,1,0.2,1.4
			C683.3,1649.5,683.3,1665.4,683.2,1681.4z M689.2,1608.6c-2.5,4.5-5.3,8.7-8.1,13c-6.2,9-11.5,18.5-15.5,28.6
			c-0.1,0.3-0.3,0.6-0.5,1c-1.4-3-2.6-5.9-3.8-8.7c-4.2-9.1-9.7-17.4-15.3-25.6c-3-4.4-5.7-9-7.3-14.2c-4.6-15.3,5.6-32.1,21.5-34.8
			c14.6-2.6,28.1,6,31.9,20.4C693.7,1595.4,692.7,1602.3,689.2,1608.6z"/>
		<path class="st2" d="M611.6,1593.7c-1.4,1.4-2.6,2.6-4.1,3.9c-6-3.9-10.6-4.2-14.9-0.8c-3.9,3-5.4,8.1-3.7,12.8
			c1.6,4.5,6.1,7.5,10.8,7.4c3.9-0.1,8.5-2.6,9.2-5.6c-3.2,0-6.2,0-9.4,0c0-1.9,0-3.7,0-5.6c5.6,0,11.2,0,16.8,0
			c1.5,4.7-3.8,13-10,15.6c-8,3.5-17.5,0.3-21.7-7.3s-2-17.2,5.2-22.3C597.3,1586.7,606.9,1588.7,611.6,1593.7z"/>
		<path class="st2" d="M656.6,1597.2c0-4.7,3.8-8.6,8.6-8.5c4.7,0,8.5,3.8,8.5,8.6s-3.8,8.6-8.6,8.6
			C660.3,1605.9,656.4,1602.1,656.6,1597.2z"/>
		<rect x="555.6" y="1553.4" class="st3" width="154.4" height="150.8"/>
	</a>
</g>
<g id="Capa_4" class="st0">
</g>
<g>
	<g>
		<path class="st2" d="M505.1,435.6c-11.2,18.4-46.7,13.8-69.2,13.8c-2.9,3.2-5.7,6.7-8.4,10.7c-22.5,32.9-25.7,72.4-9,85.5
			c14.7,11.6,38.3,6.1,59.2-22.2c16.5-22.3,27.4-30.1,32.6-31.4c-11.6,8.4-20.4,18.5-32,34.4c-18.5,25.6-45.4,34-63.5,21
			c-27.4-24.9-9.5-73,11.3-98.1c-40.4,1.8-60.3,21-71.2,35.5c11.3-21.4,37.9-35.3,73-37.6c15.9-17.3,36.7-27.8,57.5-28.2
			C497.6,418.9,512.1,424.4,505.1,435.6z M485.7,422.4c-12.2,0.5-30.3,6.9-47.9,24.9c15.5,0.3,36.9,2.1,50.5-2.3
			C508,438.7,511.1,421.4,485.7,422.4z"/>
		<path class="st2" d="M501.9,507.5c-2.4,11.8,4,16.4,10.7,13.6c11.3-4.4,22-29.2,30-29.1c-7.8,7.2-8.4,9.5-13.8,16.4
			c-7,9-14.4,16.8-23.1,15.9c-11.5-1.2-12.9-15.6-9.9-22.3c3.1-7,9.2-15,18.8-15.6c8-0.5,11,7,3.4,13.5c-4.6,3.8-11.3,5.7-15.8,6.4
			C502.2,506.6,501.9,507.2,501.9,507.5z M508.5,503.1c12.4-4.1,14.5-13.5,8.1-11.9c0,0-10.1,1.2-13.9,13.5
			C504.2,504.3,506.3,503.8,508.5,503.1z"/>
		<path class="st2" d="M532.9,534.9c-0.5,4.4,0.2,8,4.1,2.3c11.9-16.7,26.5-39.6,38.7-45c-8.4,7.8-19.1,20-27.8,32.9
			c-11.9,17.6-13.6,18.7-17,16.8c-6.3-3.2-3.2-21.4,0.6-33.8c4.6-14.8,16.7-44.5,30.3-64.1c6.6-9.5,12.2-16.8,18.1-20.7
			c4.6-3.2,10.4-4.4,13.5,0.2c6.7,10.1-31.1,53.4-42.4,63.7c-2.1,2-3.7,3.4-4.9,4.3C536.6,513.8,533.9,526.8,532.9,534.9z
			 M552.8,476.8c-1.8,3.8-3.5,7.5-5,10.9c6-6.1,17-17.7,23.4-26c14.7-18.8,19.3-28.3,20.4-32.6c2.6-10.7-8.3,0.5-11.3,3.8
			C575.2,438.5,565.4,450.9,552.8,476.8z"/>
		<path class="st2" d="M568.4,507.5c-2.4,11.8,4,16.4,10.7,13.6c11.3-4.4,22-29.2,30-29.1c-7.8,7.2-8.4,9.5-13.8,16.4
			c-7,9-14.4,16.8-23.1,15.9c-11.5-1.2-12.9-15.6-9.9-22.3c3.1-7,9.2-15,18.8-15.6c8-0.5,11,7,3.4,13.5c-4.6,3.8-11.3,5.7-15.8,6.4
			C568.7,506.6,568.4,507.2,568.4,507.5z M575,503.1c12.4-4.1,14.5-13.5,8.1-11.9c0,0-10.1,1.2-13.9,13.5
			C570.7,504.3,572.9,503.8,575,503.1z"/>
		<path class="st2" d="M633.6,500.5c-0.3-6.7-6.4-11.6-14.8-6c-8,5.4-10.6,12.4-12.9,18.7c0,0-9.3,2.9-5.4-9.3
			c5.7-17,14.1-34.9,25.2-50.8c12.5-17.8,29.7-35.3,40.2-28.9c7.3,4.4-7.2,31.1-33.2,52.2c-11.3,9.2-16.8,12.7-19.4,13.9
			c-1.2,2.9-2.6,6.4-4,10.4c1.2-1.8,2.6-3.7,4.4-5.4c12.5-11.6,25.1-4.1,25.2,7.2c0,3.1-0.5,6.3-1.7,9.6
			c16.8-6.9,21.9-17.6,21.9-17.1c0.2,3.7-8,13.6-22.6,19.3c-6.3,15.6-22.8,31.7-33.5,30.3c-8.3-1.1-11.3-10.1-4.6-17.3
			c3.4-3.7,9-8.1,24.6-11c2.4-0.5,4.7-0.9,6.9-1.5C632.5,509.7,633.8,504.8,633.6,500.5z M620.8,518.5
			c-28.9,5.7-26.8,24.5-18.1,22.8c8.6-1.5,20-12.9,26.3-24.6C626.4,517.3,623.8,517.9,620.8,518.5z M618.8,484.6
			c15.6-10.7,33.5-27.8,43-44.5c6.4-11.5,5-16.4-3.7-11c-9.5,6-24.8,23.3-33.8,40.1c-5,9.5-7.5,14.2-9.5,18.4
			C615.9,486.7,617.1,485.8,618.8,484.6z"/>
		<path class="st2" d="M665.1,493.4c9.9,6.3,13.3,13.2,4.7,25.7c-9,13.2-10.4,34.3,2.1,24.2c7.3-6,12.9-16.2,22-31.7
			c8.9-15,11-17.4,15-19.6c-1.2,2.3-8.1,11.6-12.7,19.9c-10.3,18.7-21,36.6-30.3,35.8s-13.2-13.8-7-26c6.6-13.5,14.1-18.8,2.1-26.5
			c-15.1-9.8-7.2-17.6-3.5-19.7c4.4-2.6,11-1.5,11,5c0,4.9-3.4,9-6,11.3C663.5,492.4,664.2,492.8,665.1,493.4z M660.7,477.1
			c-4.3,1.8-6.6,7.8,1.1,14.1c2.6-3.1,4.4-6.3,4.9-8.1C667.7,478.9,664.2,475.5,660.7,477.1z"/>
		<path class="st2" d="M728.8,528.3c8.7-12.9,19.4-34.7,26.9-36.4c-7.7,8.7-9.6,12.7-14.1,19.7c-8.4,13.6-13,22.8-17.9,22
			c-5.5-0.9-10.6-8.1-4.9-23.6c0.2-0.6,0.5-1.2,0.6-1.8c-6.3,7.7-12.2,15-18.1,8.4c-6-6.7-0.2-18.8,5.4-23.9
			c4-3.7,11.5-6.9,19.4-4.9c8.9,2.3,2.1,2.3,2.1,2.3s-11.3-2.4-19.4,10.6c-6,9.6-2.6,18.4,2.1,13.9c2.6-2.4,8.3-9.6,12.7-15.3
			c2.3-3.7,4.7-8.1,7-8.1c2.3-0.2,8,0.6,2.9,7C719.8,516.4,719.5,541.9,728.8,528.3z"/>
		<path class="st2" d="M751.4,504c-4,5.4-6.9,11.9-5,19.6c0.8,3.7,6.4,6.3,13,2c12.7-8.3,24.2-28.6,34-33.5
			c-7,5.8-14.5,18.1-25.6,28.8c-10.1,9.8-17.6,12.2-23.9,7c-7.3-6.1-4.9-21.1,1.2-28.6c7-8.7,15.6-13.3,23.6-11
			c8.4,2.3,5.4,9.3,2.9,12.9c-2.4,3.5-6,6.7-9.3,4s1.2-5.7,2.1-5.4s4,0,6.1-2.4c2.9-3.2,0.5-5.8-3.2-5.2
			C765,492.4,758.6,494.4,751.4,504z"/>
		<path class="st2" d="M803.3,510.3c-7,9.3-12.5,15.1-18.5,13.3c-9.5-3.1-1.5-26.8,5.2-31.2c3.1-1.5,4.6,0.2,4.1,2.6
			c-0.6,3.8-4.7,9.5-6.4,16.2c-1.2,5-2.8,10.9,1.1,10.4c4.7-0.5,13.5-13.9,19.6-21.4c5-6.3,6.6-8.1,9.8-8.1
			C813.6,494.4,809.7,501.9,803.3,510.3z M796,485.9c-1.8-0.6-2-1.7-0.6-4.3c1.5-2.9,0.6-3.5,3.1-4.9c1.7-0.9,7.2-0.3,5.4,3.5
			C801.8,484.4,798.1,486.5,796,485.9z"/>
		<path class="st2" d="M818,483.6c6.9-0.2,12.4,4,12.4,14.8c0,3.2-0.8,7.7-2,11.9c2.1-0.9,4.4-2.3,6.7-4.1
			c9.2-7.3,11.3-14.7,16.1-14.2c-5,3.8-9.3,12.7-17.9,17.9c-1.7,1.1-3.5,1.8-5.5,2.4c-3.4,10.3-9.9,20.5-17.4,20.2
			c-10.7-0.3-11.5-14.4-6.4-24.3c0.6-1.2,1.2-2.4,1.8-3.5C799.5,493,809.6,483.8,818,483.6z M810.8,510.6c-1.5,2.8-2.8,5.5-3.5,8.3
			c-2,7.5,1.8,15.6,8.4,9.8c3.2-2.9,6.9-8.9,9.5-15.6C820.1,513.9,814.9,513.5,810.8,510.6z M815.7,492.1c4.1-0.6,4.6,3.4,4.3,5.7
			c0,0.2-4.4,4.9-8.1,11c3.5,2.8,8.6,3.8,14.1,2.4c3.2-9.2,4.1-19.1-1.2-23.6c-7.2-6.1-15.8,0.9-17.3,6.1c-0.8,2.9-0.8,5.8,0,8.3
			C811.3,495.7,814.5,492.2,815.7,492.1z"/>
		<path class="st2" d="M856.5,497c0.2,5-1.5,7.5-4.3,13.3c6.4-9.2,21.3-23.9,31.4-26.6c5.8-1.5,8.4,3.8,8,7.8
			c-0.8,6-17.8,29.2-19.9,37.8c-3.1,12.7,4.9,8.6,7.3,6.7c7.3-5.5,21.1-30.3,27.4-37.5c7.7-8.9,10.6-6,10.6-6
			c-12.1,2.9-26.8,41.9-40.2,47.3c-4,1.7-10.1,0.6-11.9-5.8c-3.5-12.9,19.7-42.5,20.5-47c0.8-5-14.1,4-24.5,15.9
			c-7,8.1-10.7,14.2-13.8,19c-0.6,1.1-4.1,1.1-5.7-1.5c-0.6-1.1-2.4-3.5,3.2-15.1c6.3-12.7,3.7-12.2,3.7-12.2
			C849.7,491,856.4,492.1,856.5,497z"/>
	</g>
	<g>
		<path class="st2" d="M831.1,476.9h-4.5l11.7-12.7h8.2L831.1,476.9z"/>
	</g>
</g>
<g>
	<path class="st4" d="M667.6,849.9c-1-4-6.2-7-9.9-4.5c-2.7,1.8-5,4.3-6.9,7.2c-0.7-4.1-0.5-8.6,0.5-12.5c0.7-3,3.5-6.6,6.8-9.2
		c1,1.7,2.5,3.3,4.4,4.5c3.6,2.3,8.6,1.9,9-2.7c0.1,0.4,0.2,0.8,0.3,1.3c0.1,0.4,0.7,0.3,0.7-0.1c-0.5-10.5-7.4-8.7-13.5-4.1
		c-2.8-5,0.3-11.2,3.8-15.4c6.4-7.8,6.5,4,11.8,5.5c7.2,2.1,10.4-10.1,7-16.8c3.3-0.7,6.2-4.9,7.9-8.9c1.1,0.2,2.2,0.3,3.3,0
		c0.5-0.1,0.3-0.8-0.2-0.8c-3.5,0.6-6.2-1.9-5.4-5.4c0.7-3.5,4.6-4.3,7.5-3.4c1.5,0.5,3.4,1.9,4.8,3.7c-1.9,2.4-2.7,5.7-1.5,8.6
		c0.1,0.3,0.4,0.5,0.7,0.4c5.2-1.4,4.9-5.3,2.6-8.7c0.8-0.9,1.8-1.8,2.8-2.8c0.3-0.2,0-0.7-0.3-0.6c-1.3,0.4-2.4,1.2-3.4,2.1
		c-1.9-2.3-4.7-4.1-7.1-4.4c-4-0.5-7.5,2.2-7.7,6.3c-0.1,2.4,1.2,3.9,2.9,4.7c-0.7,0.9-1.4,1.9-2.1,2.9c-0.8,1-1.6,2-2.3,3
		c-2.6-0.3-4.5-0.3-5.6-0.1c-0.6-0.4-1.3-0.6-2.1-0.8c-0.6-0.1-1.4,0.6-0.9,1.2c1.5,1.9,3,2.8,4.4,3.1c0.1,0.1,0.2,0.1,0.3,0.2
		c1.9,2.9,1.4,7.2,0.5,10.3c-1.3,4.9-6.6,6.4-9.1,1.8c-0.7-1.3-1.2-2.7-2-3.9c-3.4-5.8-10.1,4.6-11.6,7c-2.4,4-2.2,8.4-0.2,12
		c-3.4,2.8-6.4,6.4-7.7,9c-1.3,2.7-1.6,9.1-0.5,14.8c-6.2,11.3-5.6,27.5,5.5,34.2c0.8,0.5,1.4-0.7,0.7-1.2
		c-9.4-6.1-9.6-16.1-7.1-25.8c0.4-1.5,1-2.9,1.6-4.3c1.7,5.6,5.1,9.6,10.7,6.6C666.6,860.8,669.3,856.1,667.6,849.9z M699,796
		c-0.5-2.7,0.2-4.6,1.4-6.4C702.1,792.2,702.5,795,699,796z M671.1,831.5c-0.4-0.1-0.9,0-0.8,0.5c0.5,6.4-7.5,1.9-9.5,0
		c-0.7-0.6-1.2-1.3-1.6-2C663.7,826.8,668.9,825.9,671.1,831.5z M651.9,856.6c-0.2-0.5-0.3-1.1-0.5-1.6c0-0.1,0.1-0.1,0.1-0.2
		c2.1-5.6,6.8-7.5,14.3-5.9C672.3,858,655.9,867.6,651.9,856.6z"/>
	<path class="st4" d="M637,833.4c1.6-9.3-7.5-19.8-16-23.6l0,0c-0.5-6.9-7.3-13.3-14.2-13.7c-0.4-11.2-11.3-17.2-21.2-19
		c-1-0.2-1.4,1.3-0.4,1.6c6.6,1.9,14.4,4.5,18.1,10.8c1.2,2,1.6,4.4,1.8,6.7c-1.9,0.2-3.7,0.8-5.3,2.1c-0.5,0.4-0.6,0.9-0.2,1.4
		c4.1,5.2,7.1,3.2,7.3-2.2c0.8-0.1,1.5-0.1,1.7-0.1c4.7,0.8,8.1,6,9.7,10.1c0.2,0.6,0.4,1.2,0.5,1.8c-4.4-0.8-9.8,0.5-8.8,6.1
		c0.7,4,8.2,3.3,9.8,0.4c0.8-1.5,1.2-3.1,1.3-4.7c6.9,4.2,15.4,12.6,14.3,21.2c-4.6-2.8-10.3-4.1-11.4,1.5c-0.8,4.3,3,11.8,8.1,7.6
		c2.5-2.1,4-4.4,4.7-6.9c0.3,0.3,0.6,0.5,0.9,0.8c2.7,2.3,3.9,6.1,4.8,9.5c2.8,10.2,0.5,22.1-1,32.4c-0.1,0.7,1,1.1,1.2,0.3
		c2.2-12.9,4.9-27.4-1.2-39.7C640.8,836.6,639.1,834.9,637,833.4z M601.9,799.9c-0.9-0.9,1.2-1.7,3.3-2.1
		C605.6,800,604.5,800.7,601.9,799.9z M619,813.5c-0.5,2-1.9,3-4.1,3c-1.1-1-2.2-2-3.3-3c2.2-2.8,4.6-3.9,7.4-3.3
		C619.2,811.3,619.2,812.4,619,813.5z M632.3,839.1c-2.2-0.5-4.4-1-6.6-1.5c2.9-5.1,6.1-6.5,9.5-4.3
		C634.8,835.2,633.9,837.2,632.3,839.1z"/>
	<path class="st4" d="M651.1,782.3c-0.2-0.8-1.5-0.9-1.7,0c-1.7,6.3-8.6,11.2-12.2,2.6c-2.7-6.5,4.7-11.6,9.9-13.2
		c1.2-0.4,3.4-0.4,4.2-1.6c3.8-5.5,0.1-16.3-2.6-21.5c-0.5-1-2.1-0.1-1.5,0.9c2.5,5,3.3,10.2,3.5,15.7c0.2,5.2-3.4,4.3-6.1,5.6
		c-4.8,2.3-8.4,5.3-9.4,10.7c-0.9,4.7,4.4,12.8,9.9,10.4c1.9-0.8,5.9-3.9,5.2-6c1.4,4.9,3.4,20.4-5.9,20.1c-1.4,0-2.8,0.7-4.1,1.1
		c-9.3,2.6,4.3,20.9,7.2,23.2c0.7,0.5,1.6-0.4,1-1c-0.8-0.7-14.8-20.6-6.9-20.6c2,0,4.6-0.7,6.6-1.3
		C656.5,805.1,652.6,787.2,651.1,782.3z"/>
	<path class="st4" d="M738.2,813.3c0.8-0.3,0.5-1.5-0.4-1.3c-37.3,7.3-65.8,39.2-72.9,75.9c-0.2,0.8,1,1.2,1.2,0.3
		C675.7,849.3,700.8,825.6,738.2,813.3z"/>
	<path class="st4" d="M679,752c-0.5,0.2-0.5,0.7-0.1,1c0.5,0.3,1.1,0.5,1.7,0.6c-12,16.7-19.8,38.4-24.7,57.8
		c-0.1,0.4,0.5,0.6,0.7,0.2c4.5-11.4,8.3-22.9,13.3-34.1c3.7-8.3,8.4-16,12.9-23.8c0.4-0.1,0.8-0.1,1.2-0.2c1.9-0.4,3.5-1.7,4.7-3.2
		c0.6-0.8-0.4-1.9-1.1-1.1c-1,1.2-2.2,1.9-3.6,2.4c0.5-0.9,1-1.9,1.6-2.8c0.2-0.4-0.4-0.9-0.7-0.5c-1,1.2-2,2.4-2.9,3.7
		C680.8,751.8,679.9,751.7,679,752z"/>
	<path class="st4" d="M632.1,807.3c-0.9-18.6-14.4-41.7-29.2-53c-0.6-0.5-1.3,0.5-0.8,1c12.9,15,26.6,31.3,28.7,51.9
		C630.8,808.1,632.1,808.2,632.1,807.3z"/>
	<path class="st4" d="M615.4,752.8c0.7-0.4,1.3-0.9,1.9-1.4c0.6-0.3,1.2-0.6,1.8-0.7c0,0.3,0.1,0.5,0.1,0.8
		c-0.7,1.2-1.3,2.4-1.9,3.6c-0.2-0.3-0.4-0.7-0.7-1c-0.4-0.6-1.3-0.1-1,0.6c0.3,0.7,0.7,1.4,1,2.1c0,0.2,0.1,0.4,0.3,0.5
		c4.8,9.5,10.6,18.4,13,29c0.1,0.5,0.9,0.3,0.8-0.2c-1.7-10.4-6.7-20.5-12.4-29.5c0.6-0.8,1.2-1.7,1.8-2.6c0.5,0,1.1-0.4,1-1
		c0-0.1,0-0.3,0-0.4c0.4-0.6,0.7-1.2,1.1-1.8c0.7,0.2,1.5,0.7,2.2,1.3c0.6,0.6,1.9,0,1.6-0.9c-0.5-1.3-1.1-2.6-1.8-3.8
		c0.4-0.7,0.8-1.3,1.1-2c0.5-0.9-0.5-1.8-1.3-1.3c-0.5,0.2-0.9,0.6-1.3,0.8c-0.7-1.1-1.5-2.2-2.2-3.4c-0.4-0.6-1.6-0.4-1.5,0.4
		c0.1,1.9,0.1,3.8,0.1,5.7c-0.9,0.8-1.9,1.6-2.8,2.3c-0.6,0.4-1.3,0.8-1.9,1.4C613.4,752,614.5,753.4,615.4,752.8z"/>
	<path class="st4" d="M595.1,739.6c0.1-2.9,0.8-5.8,2.1-8.4c0.6-1.3,1.5-2.4,2.5-3.4c0.8-0.8,1.6-1.1,2.1-2.1c0.2-0.3,0-0.6-0.4-0.7
		c-2.6-0.3-4.7,3.4-5.8,5.3c-1.5,2.8-2.1,6.1-2.1,9.3C593.5,740.6,595.1,740.6,595.1,739.6z"/>
	<path class="st4" d="M597.8,735.7c-0.4,0.9,0.8,1.6,1.3,0.8c0.9-1.6,2-3.1,3.6-4.2c0.8-0.6,1.7-1,2.7-1c0.7,0,1.3,0.2,2,0
		c0.3-0.1,0.4-0.4,0.2-0.6c-1-1.8-3.5-1.1-5-0.4C600.4,731.1,598.8,733.6,597.8,735.7z"/>
	<path class="st4" d="M600,742c1.7-1.3,3.5-2.2,5.6-2.6c2.4-0.5,4.2,0.6,6.1,1.7c0.3,0.2,0.8-0.1,0.6-0.5c-1.9-6-10.2-2.5-13.3,0.1
		C598.4,741.4,599.3,742.6,600,742z"/>
	<path class="st4" d="M607.3,746.1c1.4,0.8,2.5,2,3.8,2.9c0.4,0.3,1.1-0.2,0.9-0.7c-1.3-3.3-5.4-4.7-8.6-5.3
		c-0.9-0.2-1.3,1.2-0.4,1.4C604.5,744.8,605.9,745.3,607.3,746.1z"/>
	<path class="st4" d="M598.9,746.1c-0.7-0.7-1.7,0.3-1,1c1,1,1.9,2,2.8,3.1c0.7,0.9,1.2,2.5,2.3,2.8c0.3,0.1,0.5-0.1,0.6-0.4
		c0.4-1.1-0.8-2.3-1.4-3.1C601.2,748.3,600.1,747.2,598.9,746.1z"/>
	<path class="st4" d="M594.1,764.7c4.2-3.2,3.9-8.7,2.1-13.2c-0.3-0.8-1.8-0.2-1.4,0.6c1.7,4.3,1,8.1-1.5,11.9
		C592.9,764.6,593.7,765.1,594.1,764.7z"/>
	<path class="st4" d="M586.7,755.7c1.3-0.5,2.3-1.5,3-2.8c0.5-0.9-0.9-1.7-1.4-0.8c-0.6,1.1-1.4,1.8-2.6,2.1c-0.9,0.3-2,0.2-2.8,0.8
		c-0.3,0.2-0.3,0.6,0,0.8C584,756.6,585.6,756.2,586.7,755.7z"/>
	<path class="st4" d="M584.7,747.3c0.9-0.4,0.1-1.6-0.7-1.3c-1,0.4-2,0.7-3.1,0.6c-1,0-1.9-0.8-2.9-0.9c-0.3,0-0.6,0.2-0.5,0.5
		C578.2,749.3,582.7,748.3,584.7,747.3z"/>
	<path class="st4" d="M581.7,742.1c0.9,0.3,1.2-1.1,0.4-1.4c-3.5-1.4-4.2-4.3-4.9-7.7c-0.1-0.5-1-0.6-1.1,0
		C575.3,737.1,577.9,740.8,581.7,742.1z"/>
	<path class="st4" d="M586.7,738c-1.2-2-1.9-4.2-2.4-6.5c-0.4-2.1,0.1-4.1-0.2-6.2c-0.1-0.4-0.6-0.4-0.8-0.1
		c-2.7,3.7-0.1,10.2,2.1,13.5C586,739.5,587.2,738.8,586.7,738z"/>
	<path class="st4" d="M589.1,732.9c-0.3-1.3-0.4-2.6-0.4-3.9c0-1.2,0.2-2.4,0.1-3.7c-0.1-0.4-0.5-0.3-0.7-0.1
		c-1.5,2.2-0.9,5.7-0.4,8C587.9,734.2,589.3,733.8,589.1,732.9z"/>
	<path class="st4" d="M689.5,748.1c0.9,0.4,1.6-1.2,0.7-1.6c-0.2-0.1-0.3-0.2-0.4-0.2c0.2,0.1,0.4,0.2,0.6,0.2
		c2.8-0.1,5.6-1.2,5.8-4.3c0.1-2.6-2.3-4.7-4.6-5.1c-0.8-0.2-1.5-0.1-2.3,0c0.1-0.1,0.1-0.3,0.1-0.5c-0.4-2.3-0.3-4.5,0.2-6.8
		c0.5-2.4,2.1-4.1,3.1-6.3c0.2-0.5-0.2-1-0.7-0.7c-4.7,2.5-5.1,9.7-4,14.2c0,0.2,0.1,0.3,0.3,0.4c-1.6,0.6-3,1.9-3.2,3.8
		C684.4,744.2,686.7,747,689.5,748.1z M690.8,741.3c0.2-0.9,1.3-1.3,2.1-1.7c0.7,0.6,1.2,1.3,1.3,2.2c0.2,1.8-1.6,2.5-3.2,2.6
		C690.8,743.4,690.6,742.4,690.8,741.3z M690.4,738.8c-1.9,1.3-1.6,4.9-1,7c0.1,0.2,0.2,0.4,0.3,0.5
		C686.1,744.3,685.4,738.8,690.4,738.8z"/>
	<path class="st4" d="M692.2,734.5c0.7-2.3,1.5-4.4,2.9-6.4c1.4-2.1,3.7-2.6,5.5-4.1c0.2-0.2,0.1-0.7-0.2-0.7
		c-2.5-0.5-4.9,1.5-6.4,3.3c-1.8,2.1-2.7,4.8-3.3,7.5C690.6,735,691.9,735.4,692.2,734.5z"/>
	<path class="st4" d="M697.9,734.8c1.4-1.2,2.8-2,4.7-2.1s3,1.3,4.6,1.9c0.3,0.1,0.6-0.2,0.5-0.5c-0.5-1.9-2.7-3.1-4.6-3.2
		c-2.5-0.1-4.6,1.1-6.3,2.8C696.1,734.4,697.2,735.5,697.9,734.8z"/>
	<path class="st4" d="M701.5,737.9c1.8,0.1,3.4,0.6,4.7,1.8c1.4,1.1,2.1,2.8,3,4.3c0.3,0.5,1.1,0.3,1.1-0.3
		c-0.2-4.6-4.6-7.2-8.8-7.2C700.6,736.5,700.6,737.9,701.5,737.9z"/>
	<path class="st4" d="M704.6,750.9c0.1,0.3,0.6,0.4,0.7,0.1c1.7-3.3-0.4-7.2-2.8-9.6c-0.7-0.7-1.7,0.3-1,1c1.1,1.2,1.9,2.4,2.4,3.9
		C704.4,747.8,704.3,749.4,704.6,750.9z"/>
	<path class="st4" d="M693.5,758.7c-0.2,0.2-0.1,0.7,0.3,0.7c5.5-0.5,7.7-7.3,6-11.8c-0.3-0.9-1.8-0.5-1.5,0.4
		c0.7,2.1,0.6,4.1-0.4,6.1C697,756.1,694.9,757.1,693.5,758.7z"/>
	<path class="st4" d="M692.6,750c-0.7,1.9-1.7,3.4-3.1,4.9c-1.1,1.2-2.9,1.9-3.7,3.3c-0.2,0.3,0.1,0.6,0.4,0.7
		c1.9,0.1,3.7-1.9,4.8-3.1c1.4-1.5,2.3-3.5,2.9-5.4C694.2,749.5,692.9,749.2,692.6,750z"/>
	<path class="st4" d="M681.1,748c1-0.2,0.6-1.7-0.4-1.6c-1.2,0.2-2.3,0-3.2-0.8c-0.8-0.7-1-1.8-1.4-2.8c-0.2-0.5-0.8-0.2-1,0.1
		c-0.6,1.5,0.2,3.1,1.3,4.1C677.7,748.2,679.5,748.3,681.1,748z"/>
	<path class="st4" d="M676.4,734.1c-0.9,1.5,0,3.6,0.8,4.9c0.9,1.5,2.5,2.5,4.1,3.1c0.8,0.3,1.4-1.1,0.6-1.4
		c-1.3-0.6-2.4-1.4-3.2-2.6c-0.9-1.2-0.7-2.8-1.5-4.1C677,733.8,676.5,733.7,676.4,734.1z"/>
	<path class="st4" d="M586.1,745.3c0.4,2.5,2.8,3.9,5.1,4.4c0.9,0.2,1.3-1.2,0.4-1.4c-1.5-0.4-3-1.2-3.6-2.7
		c-0.6-1.4,0.4-2.5,1.7-2.9c1.4-0.6,3.9-0.9,4.9,0.6c0.9,1.4-1,2.3-1.8,3c-0.4,0.4,0,1,0.4,1c2.2,0.2,3.9-2.2,3.3-4.2
		c-0.8-2.7-4.3-2.8-6.5-2.3C587.7,741.2,585.7,742.9,586.1,745.3z"/>
	<path class="st4" d="M554.2,821.4c0.3,0.6,0.7,1.1,1,1.7c0.5,0.9,2.2,0.3,1.7-0.7c0-0.1-0.1-0.1-0.1-0.2l0,0l0,0
		c-1.4-3.3-3.2-6.3-5.4-9.2c-0.2-0.2-0.4-0.5-0.5-0.7c1.5-1.1,2.9-2.3,4.2-3.6c0.8-0.4,1.5-0.7,2.4-1c1.1-0.4,0.7-2.1-0.5-1.8l0,0
		c-0.1-0.4-0.4-0.7-0.9-0.7c-1.9,0-3.7-0.1-5.6-0.2c-0.1-1.5-0.2-2.9-0.6-4.3c0-0.2-0.1-0.3-0.2-0.4c-0.1-0.5-0.2-0.9-0.3-1.4
		c-0.2-0.8-1.6-0.9-1.7,0c-0.3,1.7-0.6,3.8-0.8,5.8c-2.2-0.2-4.3-0.4-6.5-0.6c-0.9-0.1-1.1,1-0.7,1.6c1.7,2.2,3.5,4.6,5.3,6.8
		c-0.3,1.2-0.8,2.3-1.6,3.3c-1.1,0.9-2.2,1.8-3.2,2.7c-0.8,0.8,0.2,2.1,1.2,1.5c1.4-0.8,2.5-1.8,3.3-2.8c0.9-0.7,1.7-1.3,2.6-2
		C549.3,817.5,551.5,819.6,554.2,821.4z M550.5,806.9c1.1,0.1,2.3,0.1,3.4,0.2c-0.1,0.1-0.1,0.1-0.2,0.2c-1.1,0.6-2.2,1.4-3.3,2.2
		c0-0.8,0-1.5-0.1-2.3C550.4,807.1,550.4,807,550.5,806.9z M542.2,806.1c0.8,0.1,1.6,0.2,2.4,0.3c-0.1,0.2-0.1,0.4,0,0.6
		c0.3,0.9,0.4,1.8,0.5,2.7C544,808.5,543.1,807.3,542.2,806.1z"/>
	<path class="st4" d="M760.7,802.2c-1.7,0.3-3.4,0.7-5.1,1c0.2-1.5,0.6-3,1-4.5c0.3-0.9-1-1.7-1.7-1c-1.8,2.1-3.5,4.4-5.1,6.8
		c-1,0.2-2,0.4-3,0.6c-2.6-2-5.6-3.5-9.3-4.1c-1.2-0.2-1.7,1.7-0.5,1.9c2.8,0.4,5.1,1.4,7.1,2.7c-1.5,0.3-3,0.5-4.5,0.7
		c-1.1,0.1-1.2,1.9,0,1.8c2.3-0.2,4.5-0.5,6.7-0.9c0.4,0.3,0.7,0.6,1.1,1c-1.6,2.8-3.2,5.6-4.5,8.6c-0.4,0.8,0.5,2,1.4,1.4
		c2.5-1.7,5-3.4,7.4-5.2c1.4,1.8,2.8,3.6,4.2,5.5l0,0c0.1,0.1,0.1,0.1,0.2,0.2c0.7,0.9,2.1-0.3,1.6-1.2c-1.3-2.4-2-4.8-2.2-7.4
		c2.2-1.9,4.3-3.9,6.2-6.2C762.3,803.1,761.7,802.1,760.7,802.2z M747.2,813.8c-0.2,0.2-0.5,0.4-0.7,0.5c0.7-1.3,1.4-2.6,2.1-3.9
		c0,0.1,0.1,0.2,0.2,0.3C748.3,811.7,747.7,812.7,747.2,813.8z M752.1,810.2c-0.1-0.1-0.3-0.3-0.4-0.4c0.6-0.5,1-1.2,1.3-2l0,0l0,0
		c0-0.1,0.1-0.2,0.1-0.2c0.3-1.1-1.2-1.6-1.8-0.8c-0.1,0.1-0.1,0.2-0.2,0.3c-0.2,0-0.4,0-0.6,0.1c0.2-0.3,0.4-0.6,0.6-0.9
		c0.8-0.2,1.5-0.3,2.3-0.5c-0.1,1.1,0,2.2,0,3.3C753,809.5,752.5,809.9,752.1,810.2z M755.3,807.5c0-0.7,0-1.5,0.1-2.2
		c1-0.2,1.9-0.4,2.9-0.6C757.3,805.7,756.3,806.6,755.3,807.5z"/>
	<path class="st4" d="M656.8,772.6c1.2-1.3,2.5-2.7,3.8-4v0.1c0.3,1.2,2,0.7,1.8-0.5c-0.1-0.4-0.1-0.9-0.2-1.3
		c0.4-0.5,0.8-0.9,1.3-1.4c1.2,0.1,2.3,0.4,3.4,0.9c0.8,0.4,1.9-0.4,1.3-1.3c-0.6-1.1-1.2-2.1-1.9-3.2c0.7-0.9,1.3-1.9,1.9-2.9
		c0.5-0.9-0.8-2.1-1.5-1.2c-0.5,0.6-1.1,1.2-1.7,1.8c-1.1-1.9-2-3.9-2.8-6c-0.3-0.9-1.6-0.7-1.6,0.2c-0.2,3.2-0.6,6.4-0.6,9.5
		c-0.4,0.2-0.7,0.3-1.1,0.4c-1.4,0.2-2.8,0.5-4.2,0.9c-1.1,0.3-0.9,2,0.3,1.9c1.6-0.1,3-0.4,4.4-0.9c0.2,0,0.5-0.1,0.7-0.1
		c0,0.1,0,0.3,0,0.4c-1.7,1.8-3.4,3.6-4.7,5.6C654.8,772.4,656.1,773.3,656.8,772.6z M662.1,757.9c0.4,1,0.9,2,1.4,2.9
		c-0.5,0.4-1.1,0.9-1.6,1.2C662,760.7,662.1,759.3,662.1,757.9z"/>
	<path class="st4" d="M606.8,778.1c0.8,0.5,1.9-0.5,1.3-1.3c-0.7-1.1-1.4-2.1-2.1-3.2c0.4-0.8,0.7-1.7,1.1-2.5
		c0.4-0.9-1-1.7-1.6-0.9c-0.3,0.4-0.7,0.7-1.1,1.1c-0.9-1.4-1.9-2.7-2.9-4c-0.6-0.7-1.7,0.1-1.4,0.8c0.6,1.8,1.1,3.7,1.6,5.6
		c-0.7,0.5-1.5,1-2.3,1.4c-1,0.3-2.1,0.7-3.1,1.4c-0.9,0.6-0.3,2.2,0.8,1.8c0.1,0,0.2-0.1,0.2-0.1l0,0c1-0.4,1.9-0.8,2.8-1.2
		c0.8-0.2,1.5-0.3,2.3-0.3c-0.5,1.1-1.1,2.1-1.5,3.2c-0.4,1,0.8,1.7,1.4,0.8c0.3-0.4,0.5-0.8,0.8-1.2c0.3,1,1.9,0.5,1.7-0.6
		c-0.1-0.6-0.2-1.1-0.3-1.7c0,0,0-0.1,0.1-0.1C605.1,777.2,606,777.6,606.8,778.1z"/>
	<path class="st4" d="M559,811.3c-0.8-0.1-1,1.2-0.2,1.4c35.1,9.3,73.2,34.2,71.1,75.3c-0.1,1.2,1.7,1.1,1.8,0
		C634.5,849.4,595.2,815.5,559,811.3z"/>
	<path class="st4" d="M579.9,806.6c9.4,5.4,17.9,10.7,25.6,18.5c6.9,6.9,12.7,14.7,19,22.1c0.5,0.6,1.4-0.3,0.9-0.9
		c-12.1-15.6-25.5-34.2-45-40.7C579.7,805.4,579.3,806.3,579.9,806.6z"/>
	<path class="st4" d="M574.8,811.3c0.8-1,1.3-2.1,1.8-3.3c0.6,0.9,1.2,1.8,1.8,2.7c0.5,0.9,1.9,0.1,1.4-0.8
		c-0.8-1.3-1.6-2.6-2.6-3.8c0.2-0.9,0.3-1.7,0.4-2.6c0.6-0.2,1.1-0.3,1.7-0.4c1-0.2,0.8-1.6,0-1.9c-0.5-0.2-1-0.3-1.5-0.5
		c0-1.1,0-2.3-0.1-3.3c-0.1-1.1-1.5-1.3-1.9-0.3c-0.3,0.9-0.7,1.8-1,2.7c-1.6-0.4-3.2-0.7-4.8-0.9c-1-0.2-1.6,1.1-0.7,1.7
		c1.3,0.8,2.4,1.8,3.5,2.9c-1.9,1.2-3.7,2.7-5,4.7c-0.6,0.9,0.6,1.7,1.4,1.4c2.3-1,3.9-2.6,5.2-4.5c0.3,0.3,0.6,0.7,0.8,1
		c-0.5,1.6-1.1,3.2-1.3,4.9C573.6,811.4,574.4,811.8,574.8,811.3z"/>
	<path class="st4" d="M727.1,851.7c1,1.1,2.3,1.9,3.7,2.3c1.1,0.4,1.5-1.3,0.5-1.7c-0.7-0.3-1.3-0.6-1.9-1c0.5-0.1,0.5-0.9,0-1
		c-0.4-0.1-0.8-0.1-1.1-0.1c-0.1-0.2-0.3-0.4-0.4-0.6c-0.8-1.2-0.8-2.8-1-4.2c-0.1-0.5-0.9-0.6-1.1-0.1c-0.7,1.7-0.5,3.3,0.2,4.8
		c-23-1.3-51.2,15.9-55.3,38.9c-0.2,1.1,1.5,1.6,1.7,0.5C677.4,863.3,704.1,855.1,727.1,851.7z"/>
	<path class="st4" d="M574.1,847.7c-1.7-1.2-3.7-2-5.5-2.3c-1-0.2-1.4,1.3-0.4,1.5c1.6,0.4,3,1,4.3,2c1.4,1,2.4,2.5,3.7,3.6
		c0.5,0.4,1.3,0,1.1-0.6c-0.3-1-0.9-1.9-1.6-2.7c24.3,0.5,42.5,15.3,47.8,39.6c0.2,1.1,1.8,0.6,1.6-0.5
		C621.7,865.3,598.5,842.8,574.1,847.7z"/>
	<path class="st4" d="M567.1,831.6c0.1-0.3-0.2-0.6-0.5-0.6c-1.7-0.2-3.1,1.9-3.7,3.2c-0.7,1.7-0.6,3.5,0,5.1
		c0.4,0.9,1.8,0.6,1.5-0.4c-0.5-1.4-0.5-2.8,0.2-4.2C565.3,833.5,566.7,832.9,567.1,831.6z"/>
	<path class="st4" d="M567.9,840.3c0.1-1.5,0.6-2.8,1.6-3.8c0.9-0.9,2.2-0.9,3.3-1.5c0.4-0.2,0.4-0.9,0-1.1
		c-1.6-0.7-3.4,0.3-4.5,1.3c-1.4,1.3-1.9,3.3-1.8,5.1C566.5,841.2,567.9,841.2,567.9,840.3z"/>
	<path class="st4" d="M569.4,843.3c1.1-0.8,2.3-1.3,3.7-1.4c1.3-0.1,2.3,0.7,3.6,0.7c0.5,0,0.7-0.5,0.5-0.9
		c-0.6-1.3-2.3-1.6-3.6-1.7c-1.8-0.1-3.6,0.9-4.9,1.9C567.8,842.6,568.5,843.9,569.4,843.3z"/>
	<path class="st4" d="M568.2,851.4c-0.9-0.6-1.7,0.8-0.8,1.4c4.3,3,4,7.8,1.9,12.1c-0.2,0.3,0.2,0.6,0.5,0.4
		C574.6,861.3,573,854.5,568.2,851.4z"/>
	<path class="st4" d="M564.2,858c-0.1,1.8-1,3.2-2.5,4.1c-1.5,0.9-3.1,0.2-4.6,0.7c-0.4,0.1-0.5,0.6-0.2,0.9
		c1.4,1.6,4.5,0.8,6.1-0.1c1.9-1.1,2.7-3.4,2.6-5.5C565.5,857.1,564.2,857.1,564.2,858z"/>
	<path class="st4" d="M555.4,857.2c-1,0-2.1-0.1-3.1-0.2c-0.9-0.1-1.7-0.6-2.6-0.8c-0.5-0.1-1,0.4-0.7,0.9c1.4,1.9,4.4,1.7,6.4,1.6
		C556.4,858.7,556.4,857.3,555.4,857.2z"/>
	<path class="st4" d="M550.7,850.1c-1.3-0.1-2.6-0.3-3.5-1.3s-0.6-2.6-1.5-3.5c-0.2-0.2-0.4-0.2-0.6,0c-1.1,1.2-0.2,3.5,0.7,4.5
		c1.2,1.5,3.1,1.9,4.9,1.8C551.8,851.7,551.8,850.1,550.7,850.1z"/>
	<path class="st4" d="M553.1,845.6c-0.7-1.1-1.4-2.2-1.8-3.5c-0.5-1.4-0.1-2.9-0.6-4.2c-0.1-0.3-0.6-0.6-0.9-0.2
		c-2.1,2.5,0.4,6.9,2,9c0.2,0.3,0.6,0.4,0.9,0.3c-0.7,3.9,3.5,6.7,6.7,7.7c1,0.3,1.4-1.2,0.4-1.5c-2.6-0.9-5.9-3.2-5.2-6.4
		c0.5-2.1,2.6-3.5,4.7-3.4c1.5,0.1,3,1.1,3.8,2.3c1,1.5-0.1,2.7-1.4,3.4c-0.5-1-0.4-2.2-1.1-3.1c-0.3-0.4-0.8-0.2-0.8,0.2
		c-0.2,1.7-0.2,3.4,1,4.8c0.3,0.3,0.8,0.3,1.1,0.1c2.3-1,4.2-3.1,3.2-5.7c-0.9-2.4-3.4-3.7-5.8-4
		C556.5,841.1,554.1,843.1,553.1,845.6z"/>
	<path class="st4" d="M556.4,834.4c0-0.3-0.3-0.5-0.6-0.3c-2.5,1.2-2.1,5.2-1.1,7.2c0.5,1,1.8,0.1,1.4-0.8c-0.5-1.2-0.6-2.4-0.3-3.6
		C556,836,556.4,835.3,556.4,834.4z"/>
	<path class="st4" d="M737.8,839.5c-0.3,0.9,1.1,1.5,1.5,0.6c0.7-1.4,1.6-2.5,2.9-3.4c1.2-0.8,2.8-1,4.2-1.2
		c0.4-0.1,0.5-0.7,0.1-0.9C742.9,832.8,738.9,836.1,737.8,839.5z"/>
	<path class="st4" d="M754.5,840.8c0.4,0,0.7-0.5,0.5-0.8c-1.9-3-7.3-2.2-10.1-1.2c-1,0.4-0.6,2.1,0.5,1.7c1.5-0.5,2.9-0.8,4.5-0.7
		C751.4,839.9,752.9,840.8,754.5,840.8z"/>
	<path class="st4" d="M753.1,844.3c-0.9-0.5-1.7,0.8-0.8,1.4c1.5,1,2.6,2.3,3.5,3.8c0.7,1.3,1,2.8,1.9,4c0.2,0.3,0.6,0.1,0.7-0.2
		C759.5,849.9,755.8,845.9,753.1,844.3z"/>
	<path class="st4" d="M752,850.7c0.8,1.2,1.3,2.5,1.6,3.9c0.3,1.1,0,2.4,0.4,3.5c0.1,0.3,0.5,0.4,0.7,0.2c2.1-2.1,0.1-6.5-1.4-8.4
		C752.8,849.1,751.4,849.8,752,850.7z"/>
	<path class="st4" d="M749.1,857c0.4,1.7,0.3,3.1-0.5,4.6c-0.7,1.4-2,2.4-2.8,3.7c-0.3,0.4,0.2,1.1,0.7,0.9c3.7-1.5,5.3-6,4.1-9.6
		C750.2,855.7,748.8,856,749.1,857z"/>
	<path class="st4" d="M743.4,861.6c-1.1,1.3-2.4,2.3-3.9,3.1c-1.4,0.8-3,0.5-4.5,1c-0.4,0.1-0.5,0.7-0.1,0.9c3.4,2.2,7.7-1.6,9.6-4
		C745,861.9,744,860.8,743.4,861.6z"/>
	<path class="st4" d="M736,862.4c-1.5,0.5-3,0.7-4.6,0.7c-1.7-0.1-2.8-1.3-4.4-1.5c-0.4-0.1-0.8,0.2-0.7,0.7
		c0.4,1.6,2.3,2.2,3.7,2.6c2.1,0.5,4.4,0,6.5-0.7C737.5,863.7,737.1,862.1,736,862.4z"/>
	<path class="st4" d="M727.5,853.3c-0.2-0.1-0.4,0-0.5,0.1c-0.9,1.1,0.4,2.6,1.2,3.4c1.2,1,2.7,1.6,4.2,2c1.1,0.3,1.6-1.4,0.5-1.7
		c-1.2-0.3-2.4-0.8-3.4-1.6C728.8,854.9,728.5,853.6,727.5,853.3z"/>
	<path class="st4" d="M731.8,841.6c-1.2,0.6-1.1,2.2-1.1,3.4c0,0.9,1.5,0.9,1.5,0c0-1,0.1-1.9,0.4-2.8
		C732.8,841.7,732.2,841.4,731.8,841.6z"/>
	<path class="st4" d="M741.4,850.2c0.5-0.5,0-1.3-0.7-1.1c-1.8,0.4-3.8,2-3.8,4c0,1.6,1.5,2.6,2.9,3.1c3.2,1.2,8,0.1,8.6-3.8
		c0.8-5.7-5.1-9.5-10.1-7.2c-2.3,1.1-4.2,3-4.8,5.5c-0.8,2.9,0.9,5.6,3.1,7.3c0.3,0.3,0.7,0.5,1,0.7c0.9,0.6,1.7-0.8,0.9-1.5
		c-1.9-1.3-3.6-3.3-3.2-5.8c0.3-1.9,1.7-3.3,3.2-4.3c3.8-2.3,8.3,0.1,8.2,4.6c-0.1,2.7-3.6,3.1-5.7,2.6c-0.7-0.2-1.8-0.5-2-1.4
		C738.7,852,740.9,850.8,741.4,850.2z"/>
	<path class="st4" d="M634.3,729.4c-0.1,0.2-0.1,0.4-0.2,0.5c-0.2,0.8,0.8,1.4,1.4,0.9c2.3,2.8,4.9,5.4,7.7,7.9c0,0.3,0,0.7,0.1,1
		c0.1,0.6,0.9,0.4,1,0l0,0c0.3,0.3,0.6,0.5,0.9,0.7c0,0.7-0.1,1.4-0.1,2.1c0,0.4,0.6,0.6,0.7,0.2c0.2-0.4,0.3-0.9,0.5-1.3
		c0.7,0.6,1.5,1.1,2.2,1.6c-0.1,0.1-0.1,0.2-0.2,0.3c-0.6,0.8,0.6,1.6,1.3,1c0.1-0.1,0.2-0.2,0.4-0.4c0.6,0.2,1.2-0.5,1.1-1
		c6.4-6.3,11.6-14.8,15.6-22.6c2.2-4.3,6.5-13.8,2.4-18.3c-7-7.6-18.7,7-20,13.9c-0.3-0.5-0.6-1-0.9-1.5c0.1-0.5-0.3-0.8-0.7-0.9
		c-5.5-7.3-17.6-13.3-21.3-2.6c-2,5.7,3.2,12.1,6.4,16.2C633.1,727.9,633.7,728.6,634.3,729.4z M645.4,737.6
		c-0.1-0.1-0.2-0.2-0.3-0.3c0.6-2.5,0.9-5.1,1.5-7.6c0.1-0.6,0.3-1.2,0.5-1.7C646.3,731.2,645.7,734.4,645.4,737.6z M650.4,716.8
		c1-4.6,3.6-8.2,7.1-11.3c1.2-1.1,2.6-1.9,4.1-2.6c-1.5,1.8-2.7,3.8-4.4,5.4c-0.2,0.2-0.2,0.3-0.2,0.5c-2.1,7-4.3,14-6.4,20.9
		c0.9-5,1.3-10.2,1.9-15c0.1-0.7-1.1-0.8-1.2-0.2c-0.2,1.1-0.4,2.3-0.6,3.4c-0.2-0.4-0.7-0.5-1-0.2c0,0,0-0.1-0.1-0.1
		c0-0.1-0.1-0.3-0.1-0.4C650,717.4,650.3,717.2,650.4,716.8z M648.9,739.2c0.7-1,1.4-2.1,2-3.2c0.2,0,0.4,0,0.5-0.2
		c3.8-6.6,5.1-14.8,7.9-21.9c0.4-0.9-1.1-1.3-1.5-0.4c-0.1,0.3-0.3,0.7-0.4,1c0.4-1.7,0.8-3.4,1.2-5.1c1.8-1.9,3.9-4.2,4.4-6.8
		c0,0,0,0,0-0.1c0.2-0.1,0.5-0.2,0.7-0.2c5.3-1.5,5,4.9,4.5,8.2c-1.1,7.3-5.1,13.7-9.6,19.8c0.8-2,1.6-4.1,2.3-6.1
		c0.2,0,0.3,0,0.5-0.2c2.2-3.2,3.7-7,5.4-10.5c0.4-0.8-0.8-1.5-1.2-0.7c-1,1.9-2.1,3.9-3.1,5.9c1.3-4.7,2.5-9.5,3.7-14.2
		c0.2-0.9-1.1-1.2-1.3-0.4c-3.4,11.5-6.7,22.7-12,33.4c-1.1,1.3-2.1,2.7-3.2,4c-0.6-0.6-1.3-1.1-1.9-1.7c0.1-0.2,0.2-0.4,0.2-0.6
		C648.2,739.5,648.7,739.5,648.9,739.2z M647.4,716.8c0.3,0.5,0.5,1,0.7,1.6c-1.9,5-4.6,11.4-5,17.2c-0.5-0.5-1-0.9-1.4-1.4
		c1.2-1.9,1.8-4.8,2.4-6.6C645.4,724,646.4,720.4,647.4,716.8z M644.3,712.5c-1.6,4.6-3.4,9-5,13.6c-0.3,0.9-1.1,2.7-0.5,3.6
		c0.5,0.9,1.4,0.1,1.5-0.6c0-0.1,0-0.2,0-0.2s0,0,0-0.1c0.2-0.4,0.3-0.9,0.5-1.3c0.5-1.7,1.1-3.4,1.6-5.1c1-2.9,2-5.9,2.9-8.9
		c0.4,0.4,0.7,0.9,1,1.3c-1.1,3.7-2.3,7.4-3.6,11.1c-0.6,1.9-2,4.3-2.7,6.5c-1.2-1.2-2.4-2.5-3.5-3.7c0.9-2.2,1.7-4.4,2.4-6.7l0,0
		l0,0c0.6-2.1,1.3-4.3,2-6.4c0.3-0.8-1-1.1-1.3-0.3c-1.3,3.4-2.3,6.8-3.6,10.1c-0.3,0.6-0.6,1.2-0.9,1.8l0,0
		c2.5-5.6,2.4-12.9,2.9-18.9c0-0.2-0.1-0.3-0.1-0.4C640.2,708.9,642.4,710.5,644.3,712.5z M631.4,708.2c-0.9,3.6-1.9,8.1-1.4,12l0,0
		c-3.3-5.4-3-14.5,5.5-12.9c0.6,0.1,1.2,0.3,1.7,0.5c-0.3,0.1-0.6,0.2-0.6,0.6c-0.4,3.4-0.8,6.8-1.3,10.2c-0.4,2.4-1,4.9-1.3,7.3
		c-1-1.2-1.9-2.5-2.8-3.8c0.4-1.7,0.4-3.4,0.5-5.1c0.1-2.9,0.3-5.7,0.9-8.5C632.8,707.8,631.6,707.4,631.4,708.2z"/>
	<path class="st4" d="M634.2,722.8c0.9-1.8,0.9-4,1.1-6c0.3-2.4,0.4-4.8,0.3-7.2c0-1-1.5-1-1.5,0c-0.1,2.1-0.2,4.2-0.5,6.3
		c-0.3,2.2-0.9,4.6-0.4,6.8C633.4,723.1,634,723.2,634.2,722.8z"/>
	<path class="st4" d="M563.8,780.3c4.1-0.5,10.6-1.2,14.1-3.9c0.5-0.1,1-0.5,0.8-1.2c-2.1-6.8-5-13.3-8.1-19.7
		c-2.2-4.4-4.9-10.2-10.2-11.3c-7.4-1.6-1.4,15.7,0.4,19.5c-0.5,0.1-1.1,0.3-1.7,0.5c-0.3-0.1-0.6,0-0.8,0.3
		c-1.5,0.5-3.1,1.1-4.6,1.9c-0.1-0.1-0.1-0.1-0.2-0.2c-0.6-0.6-1.4,0.2-1.1,0.9c-4.5,2.6-7.4,6.5-2.5,11.2
		C553.7,781.7,559.4,780.9,563.8,780.3z M559.3,753.9c-0.5-1.9-0.7-3.9-0.7-5.8c2.1,3.7,4.3,7.7,6.8,11.5c-1.6-1.9-3.2-3.9-4.8-5.8
		c-0.5-0.6-1.3,0.1-1.2,0.7C559.4,754.3,559.4,754.1,559.3,753.9z M559.5,754.6c0,0.1,0.1,0.2,0.1,0.3c2.7,3.4,5.5,6.8,8.1,10.3
		c0.9,1.2,1.8,2.5,2.7,3.7c-0.5-0.6-1-1.2-1.5-1.7c-1.8-2.3-3.5-4.6-5.4-6.8c-0.6-0.7-1.5,0.3-1,0.9c0.5,0.6,1,1.2,1.5,1.9
		c-0.6-0.3-1.5,0.3-1,1c2.7,3.8,5.6,9.1,9.8,11.3c0.4,0.2,1.1-0.3,0.7-0.7c-0.3-0.4-0.7-0.8-1-1.1c0.3,0.2,0.6,0.5,0.9,0.7
		c0.4,0.2,0.8-0.2,0.7-0.5c0.3,0.4,0.6,0.7,1,1.1c0.5,0.4,1-0.1,0.8-0.6c-1.1-2.6-2.9-5-4.7-7.3c0.5,0.5,1,1,1.5,1.5
		c0.5,0.4,1.1-0.1,0.8-0.7c-1.8-3.4-4.6-6.5-6.8-9.6c-2.5-3.6-4.9-7.3-7.2-11c-0.1-0.2-0.3-0.3-0.5-0.3c1.2-1.7,5.1,1.7,5.9,2.8
		c5.4,7.2,8.9,17,11.7,25.6c-2.2,0.6-4.4,1.2-6.6,1.8c0-0.1,0-0.1,0-0.2c-0.6-2.1-2.3-3.9-3.5-5.7c-1.4-2.1-2.7-4.2-3.7-6.5
		c0-0.1,0-0.2-0.1-0.3c0.1-0.2,0.2-0.5,0-0.8C561.2,760.5,560.3,757.6,559.5,754.6z M561.6,765.3c1,2.2,2.2,4.3,3.5,6.3
		c1.2,1.9,2.4,4,4.1,5.3c-0.6,0.2-1.2,0.3-1.9,0.5c-0.7-1.8-2-3.5-3-5.2c-1.3-2.2-2.6-4.3-3.9-6.5
		C560.8,765.7,561.2,765.5,561.6,765.3z M558.9,766.4c1.3,2.2,2.6,4.5,3.9,6.8c0.5,0.9,1,1.8,1.6,2.7c-0.9-1.2-2-2.2-2.8-3.4
		c-1.2-1.8-2.3-3.7-3.2-5.7c-0.1-0.1-0.1-0.2-0.2-0.2C558.4,766.6,558.7,766.5,558.9,766.4z M557.1,767.1c0,0.1,0,0.2,0,0.4
		c0.9,2.1,1.8,4.1,3,6c0.1,0.1,0.2,0.2,0.2,0.4c-0.5-0.4-0.9-0.9-1.3-1.3c-1.3-1.5-2.6-3-4-4.5C555.8,767.6,556.4,767.3,557.1,767.1
		z M553.5,768.7c0.1,0,0.1-0.1,0.2-0.1c1.4,1.7,2.7,3.4,4.1,5.1c1.3,1.6,2.8,3.7,4.7,4.8c-0.4,0.1-0.8,0.2-1.2,0.2
		c0.1-0.2,0.1-0.4,0-0.5c-0.8-1.5-2.6-2.6-3.8-3.8c-1.7-1.6-3.3-3.1-5-4.7c-0.1-0.1-0.2-0.1-0.2-0.2
		C552.7,769.2,553.2,768.9,553.5,768.7z M551.1,770.3c0,0.2,0.1,0.3,0.2,0.5c1.6,1.6,3.2,3.3,4.8,4.9c1.1,1.1,2.3,2.5,3.8,3.1
		c-1,0.1-1.9,0.1-2.9,0c0.1-0.1,0.2-0.3,0.1-0.5c-0.3-1.4-1.9-2.6-2.9-3.7c-1.2-1.3-2.4-2.6-3.7-3.9
		C550.8,770.5,550.9,770.4,551.1,770.3z M549.5,772c1,1.1,2.1,2.3,3.1,3.5c0.9,1,1.9,2.5,3.1,3.2c-0.2,0-0.4,0-0.6-0.1
		c-2.5-0.4-4.9-2.3-5.8-4.7C549.1,773.3,549.2,772.6,549.5,772z"/>
	<path class="st4" d="M563.7,751.1c2.4,4.1,4.8,8.8,7.9,12.3c0.3,0.3,0.8,0,0.7-0.4c-1.6-4.5-5.1-8.5-7.5-12.6
		C564.4,749.7,563.3,750.4,563.7,751.1z"/>
	<path class="st4" d="M706.1,787.9c0,0.6,0.9,0.9,1.2,0.3c0.1-0.2,0.2-0.5,0.3-0.7c0.2,0.4,0.6,0.8,1.2,0.7
		c9.5-1.5,19.6-2.5,28.5-6.5c3.7-1.6,10.9-4.3,10.8-9.5c-0.3-7.7-14.7-5.7-20.2-3.1c1.9-4.2,4.6-9.6,2.1-13.6
		c-2.5-4.2-5.8-5.6-10.3-3.3c-4.6,2.3-7,7.9-8.6,12.7c0,0.1-0.1,0.1-0.1,0.2c-0.1,0.1-0.1,0.3-0.1,0.4c-0.1,0.3-0.2,0.7-0.3,1
		C708.6,773,706.1,781.2,706.1,787.9z M742.1,769.5c0.7,0.3,1.3,0.6,1.8,1c-1.8,1.4-3.6,2.7-5.4,4.1c-1.9,1.4-4.3,3.1-5.3,5.3
		c-0.3,0.6,0.3,1.4,1,1c1.8-1.2,3.4-3,5.1-4.4c1.9-1.5,3.9-3,5.8-4.6c0.5,1.1,0.3,2.4-1,3.8c0.1-0.7-0.6-1.5-1.3-0.9
		c-2.5,1.9-5.4,3.4-7.5,5.8c-0.1,0.1-0.1,0.2-0.1,0.3c-2.8,1.1-5.7,1.9-8.7,2.6c1.4-0.9,2.7-2,4-2.9c2.9-2.1,5.8-4.4,8.6-6.7
		c0.5-0.4,0.2-1.1-0.3-1.3c1-0.8,2-1.5,3-2.2C742.1,770,742.2,769.8,742.1,769.5z M711.3,772.4c1.9-1.2,3.7-2.8,5.4-4.2
		c2.9-2.4,5.6-4.9,8.2-7.5c0.6-0.7-0.3-1.6-1-1c-2.4,2.3-4.9,4.5-7.5,6.6c-1.5,1.2-3.1,2.4-4.6,3.6c0.3-1.5,0.7-3.1,1.1-4.5l0,0
		c0.3-0.2,0.5-0.3,0.8-0.5c-0.4,0.5-0.7,1-0.9,1.5c-0.2,0.4,0.2,1,0.7,0.7c2-1.3,3.6-3.2,5.4-4.8c2.1-1.9,4.1-3.7,6.1-5.7
		c0.2-0.2,0.2-0.4,0.2-0.6c0.3-0.2,0.5-0.3,0.8-0.5c0.8-0.5,0.1-1.6-0.7-1.2c-2.7,1.5-5.2,3.2-7.6,5c-1.1,0.9-2.3,1.7-3.5,2.6
		c1.9-4.2,4.9-8.5,9.5-9c7.8-0.9,4.8,9.2,3.8,12.1c-0.4,1.2-0.9,2.4-1.4,3.5c0,0,0,0-0.1,0c-2.8,0.4-5.8,1.4-8.7,2.8
		c0.1-0.1,0.3-0.2,0.4-0.3c3.3-2.7,6.5-5.4,9.6-8.4c0.8-0.8-0.4-2-1.2-1.2c-2.8,2.7-5.7,5.1-8.7,7.5c-2.1,1.7-4.4,3.2-6.5,5
		C711.2,773.4,711.2,772.9,711.3,772.4z M720.8,772.7c0.3-0.1,0.4-0.4,0.4-0.6c1.5-0.6,3-1.3,4.4-2.2c-0.1,0.2-0.2,0.4-0.2,0.6
		c-0.2,0.5,0.1,0.8,0.4,0.9c-5,1.9-9.7,4.8-14.1,7.5c-0.9,0.5-0.1,1.9,0.8,1.4c5.9-3.4,12.3-5.7,18.2-9c0.7-0.4,0.2-1.3-0.5-1.2
		c-0.3,0.1-0.5,0.1-0.8,0.2c2.6-1.2,5.4-1.7,8.4-1.6c1.1,0,2.3,0.2,3.3,0.4c-0.8,0.5-1.5,1-2.3,1.4c-0.1-0.1-0.1-0.1-0.2-0.1
		c-1.5,0.5-3,1.1-4.5,1.8c-0.1,0-0.1-0.1-0.2,0c-7.7,1.6-15.2,6-22.5,8.9c-1,0.4-0.6,2,0.4,1.6c2.2-0.8,4.6-1.7,7-2.5
		c-0.5,0.3-0.9,0.5-1.4,0.8c-1.7,0.9-3.4,1.7-5.1,2.6c-1,0.5-0.1,1.9,0.8,1.4c6.4-3,12.7-6.4,18.9-10c0,0-0.1,0-0.1,0.1
		c-3.5,2.4-7.3,4.4-10.6,6.9c-0.5,0.4-0.2,1.2,0.4,1c1.3-0.4,2.6-1,3.9-1.6c-1.3,0.8-2.5,1.7-3.7,2.7c-4.6,0.8-9.2,1.4-13.6,2.1
		c-0.1,0-0.1,0-0.1,0.1c1-2.6,1.7-5.4,2.2-8.3C713.9,776.4,717.3,774.5,720.8,772.7z"/>
	<path class="st4" d="M711.2,809.4c-1.9,0.6-1.5-2.1-2.3-3c-0.2-0.2-0.6-0.2-0.8,0c-1.1,1-0.6,3.1,0.3,4.1c0.9,0.9,2.1,1.1,3.3,0.8
		c2.2-0.5,4.2-3.1,2.4-5.1c-2.6-2.8-7.5-3.1-10.3-0.6c-1.3,1.2-1.6,3-1.4,4.6c0.1,0.7,0.5,1.8,1.1,2.7c-12,7.8-23.9,22.6-28.1,36
		c-0.3,0.8,1.1,1.4,1.4,0.6c6.5-14.7,16.9-24.3,27.7-35.6c0.4,0.2,0.9,0.3,1.4,0c0.3-0.2,0.5-0.5,0.5-0.8c0-0.9-0.9-1.4-1.3-2.1
		c-0.1-0.2-0.3-0.3-0.4-0.3c-0.6-1.5-0.6-3.1,1.1-4.2c2.1-1.4,5-0.6,6.8,0.9C713.5,808.2,712,809.2,711.2,809.4z"/>
	<path class="st4" d="M619.5,865.4c0.6,0.9,1.9,0.1,1.4-0.8c-4.7-8.4-12.8-16.1-21.7-20c-0.6-0.3-1,0.5-0.5,0.8
		C606.7,851.4,614.1,856.9,619.5,865.4z"/>
	<path class="st4" d="M596.8,872c-0.7-0.1-1.3,0.9-0.5,1.2c6.8,3.3,15.2,2.8,19.9,9.7c0.4,0.6,1.3,0.1,0.9-0.5
		C613,875.4,604.4,873.3,596.8,872z"/>
	<path class="st4" d="M698.7,873.2c-3.9-0.6-8.8,2.1-12.1,4.1c-3.7,2.3-6.7,5.6-7.8,9.8c-0.3,1.1,1.3,1.5,1.6,0.4
		c1.3-4.1,4.4-6.9,8-9.1c3.3-2,7.2-2.3,10.4-4.1C699.3,874.2,699.3,873.3,698.7,873.2z"/>
	<path class="st4" d="M583.4,867.8c-1.5,4.4,3.4,8.6,7.4,8.6c0.9,0,0.9-1.4,0-1.4c-3-0.2-6.2-3.2-5.7-6.3c0.4-2.7,5.3-3.9,7.2-2.2
		c1.3,1.1,1.3,3.3,0.7,4.8c-0.9,2-2.3-1-3-1.8c-0.3-0.4-1-0.1-1,0.4c0.3,2.6,3.1,5.7,5.3,2.8c1.6-2.1,1.1-5.9-0.9-7.6
		C590.4,862.3,584.6,864.2,583.4,867.8z"/>
	<path class="st4" d="M595.9,806.2c2.1,2,4.2,4.1,6.2,6.2c0.5,0.6,1.3-0.2,0.8-0.8c-1.8-2.3-3.7-4.5-5.8-6.6
		c-1.8-1.8-3.8-4.1-6.1-5.2c-0.5-0.2-1.1,0.3-0.8,0.8C591.7,802.7,594.1,804.4,595.9,806.2z"/>
	<path class="st4" d="M668.5,796.5c-0.3,0.7,0.9,1.1,1.2,0.5c4.3-9.3,11.3-16.1,17.7-23.9c0.6-0.8-0.3-1.7-1.1-1.1
		C678.6,778.4,672,787.3,668.5,796.5z"/>
	<path class="st4" d="M694,769.2c-1.8,1.5-2.5,4.4-0.4,5.9c1.8,1.3,4.4,0.1,5.7-1.4c2.6-2.9,2.5-8.1-1.3-9.7c-3-1.3-7-0.3-9.3,2
		c-3.3,3.3-0.7,7.6,2.3,10c0.8,0.7,2-0.4,1.2-1.2c-1.9-1.8-4.3-4.6-2.5-7.2c1.3-1.9,4.2-2.5,6.3-2.3c2.6,0.2,3.7,2.2,3.3,4.6
		c-0.3,1.9-1.5,3.8-3.6,3.9c-2.5,0.1-0.9-2.9-0.6-4.1C695.2,769.2,694.4,768.8,694,769.2z"/>
	<path class="st4" d="M637.7,769.6c1-7.8-0.8-16.1-5.2-22.7c-0.4-0.5-1.3-0.2-1.1,0.5c2.4,7.6,5.2,14.1,5.5,22.2
		C636.9,770.2,637.6,770.1,637.7,769.6z"/>
	<path class="st4" d="M664.8,750.2c0,1,1.5,1,1.5,0c0.4-7,3.2-12.7,5-19.3c0.2-0.6-0.6-0.8-0.9-0.4
		C666.5,735.9,664.8,743.6,664.8,750.2z"/>
	<path class="st4" d="M583.1,786c-2.4,0-2.4,3.7,0,3.7S585.5,786,583.1,786z"/>
	<path class="st4" d="M573.1,784.4c-2.2,0-2.2,3.4,0,3.4C575.3,787.8,575.3,784.4,573.1,784.4z"/>
	<path class="st4" d="M571.9,877.5c-2.2,0-2.2,3.3,0,3.3C574.1,880.8,574.1,877.5,571.9,877.5z"/>
	<path class="st4" d="M558.4,879c-1.7,0-1.7,2.6,0,2.6C560.1,881.7,560.1,879,558.4,879z"/>
	<path class="st4" d="M571.9,869.5c0.5,0,0.5-0.8,0-0.8C571.4,868.8,571.4,869.5,571.9,869.5z"/>
	<path class="st4" d="M564.9,790.1c1.4,0,1.4-2.2,0-2.2S563.4,790.1,564.9,790.1z"/>
	<path class="st4" d="M657.5,782.5c2.1,1.2,3.9-0.6,2.7-2.7C658.6,777,654.6,780.9,657.5,782.5z"/>
	<path class="st4" d="M662.6,775.7c-1.3,0-1.3,2,0,2C663.9,777.7,663.9,775.7,662.6,775.7z"/>
	<path class="st4" d="M703.3,759.3c1.9,0,1.9-3,0-3C701.3,756.3,701.3,759.3,703.3,759.3z"/>
	<path class="st4" d="M721.5,803c-2.5,0.1-2.5,3.8,0,4c0.7,0,1.2,0,1.8-0.3c1.2-0.6,1.2-2.6,0-3.3C722.7,803,722.2,802.9,721.5,803z
		"/>
	<path class="st4" d="M716.8,800.6c2,0,2-3.1,0-3.1S714.8,800.6,716.8,800.6z"/>
	<path class="st4" d="M719.2,837.3c0.7,0,0.7-1.1,0-1.1S718.4,837.3,719.2,837.3z"/>
	<path class="st4" d="M702.6,866.6L702.6,866.6c0.4-0.6,0.4-1.4,0.1-1.8l-0.1-0.1c-1.1-1.5-3.7-1.1-3.7,1
		C698.9,867.7,701.5,868.1,702.6,866.6z"/>
	<path class="st4" d="M702.7,874c-2.1,0-2.1,3.2,0,3.2C704.7,877.2,704.7,874,702.7,874z"/>
	<path class="st4" d="M708,868.8c-2,0-2,3.1,0,3.1C710,871.9,710,868.8,708,868.8z"/>
	<path class="st4" d="M718.6,874.2c-1.8,0-1.8,2.8,0,2.8C720.4,877,720.4,874.2,718.6,874.2z"/>
	<path class="st4" d="M619.6,734.5c2.6,0,2.6-4,0-4S617,734.5,619.6,734.5z"/>
	<path class="st4" d="M612,726.7c1.7,0,1.7-2.6,0-2.6C610.3,724.2,610.3,726.7,612,726.7z"/>
	<path class="st4" d="M675.6,727.5c1.9,0,1.9-3,0-3C673.6,724.5,673.6,727.5,675.6,727.5z"/>
	<path class="st4" d="M727.4,793c-2.6,0-2.6,4,0,4C730,796.9,730,793,727.4,793z"/>
	<path class="st4" d="M723.3,796.3c-2,0-2,3.2,0,3.2S725.3,796.3,723.3,796.3z"/>
	<path class="st4" d="M730.3,806.3c1.8,0,1.8-2.8,0-2.8C728.6,803.6,728.6,806.3,730.3,806.3z"/>
	<path class="st4" d="M736.8,794.5c1.6,0,1.6-2.6,0-2.6S735.2,794.5,736.8,794.5z"/>
	<path class="st4" d="M722.7,838c2.4,0,2.4-3.7,0-3.7S720.3,838,722.7,838z"/>
	<path class="st4" d="M715,841.5c-2.3,0-2.3,3.6,0,3.6C717.3,845,717.3,841.5,715,841.5z"/>
	<path class="st4" d="M715.6,832.5c-1.7,0-1.7,2.7,0,2.7C717.3,835.1,717.3,832.5,715.6,832.5z"/>
	<path class="st4" d="M581.4,833.6c-1.8,0-1.8,2.9,0,2.9C583.2,836.4,583.2,833.6,581.4,833.6z"/>
	<path class="st4" d="M554.9,830.5c-1.3,0-1.3,2,0,2C556.1,832.4,556.1,830.5,554.9,830.5z"/>
	<path class="st4" d="M547.8,872.6c-1.7,0-1.7,2.6,0,2.6C549.5,875.2,549.5,872.6,547.8,872.6z"/>
	<path class="st4" d="M552.5,867c-2,0-2,3.1,0,3.1S554.5,867,552.5,867z"/>
	<path class="st4" d="M617.3,790.6c-1.9,0-1.9,2.9,0,2.9C619.1,793.4,619.1,790.6,617.3,790.6z"/>
	<path class="st4" d="M633.8,853.2c-1.2,0.3-1.8,1.8-1.1,2.8c0.7,1.2,2.6,1.3,3.3,0C636.8,854.5,635.5,852.7,633.8,853.2z"/>
	<path class="st4" d="M636.1,845.9c-1.9,0-1.9,2.9,0,2.9C638,848.8,638,845.9,636.1,845.9z"/>
	<path class="st4" d="M629.1,852c-0.9,0-0.9,1.3,0,1.3C629.9,853.3,629.9,852,629.1,852z"/>
	<path class="st4" d="M656.1,871c-2.2,0-2.2,3.4,0,3.4C658.4,874.4,658.4,871,656.1,871z"/>
	<path class="st4" d="M656.7,878.3c-1.9,0-1.9,2.9,0,2.9C658.6,881.2,658.6,878.3,656.7,878.3z"/>
	<path class="st4" d="M678.5,827.8c-1.7,0-1.7,2.7,0,2.7C680.3,830.4,680.3,827.8,678.5,827.8z"/>
	<path class="st4" d="M651.4,821.6c1.7,0,1.7-2.6,0-2.6C649.8,819,649.8,821.6,651.4,821.6z"/>
	<path class="st4" d="M666.6,842.6v0.5c0,2.4,3.8,2.4,3.8,0v-0.5C670.4,840.2,666.6,840.2,666.6,842.6z"/>
	<path class="st4" d="M640.2,799.6c-2.4,0-2.4,3.7,0,3.7C642.7,803.3,642.7,799.6,640.2,799.6z"/>
	<path class="st4" d="M635.5,799.7c1.6,0,1.6-2.4,0-2.4C634,797.3,634,799.7,635.5,799.7z"/>
	<path class="st4" d="M619.6,799.6c1.5,0,1.5-2.3,0-2.3S618.1,799.6,619.6,799.6z"/>
	<path class="st4" d="M619,708.8c1.3,0,1.3-2,0-2S617.7,708.8,619,708.8z"/>
	<path class="st4" d="M611.4,713.3c1.8,0,1.8-2.9,0-2.9C609.5,710.5,609.5,713.3,611.4,713.3z"/>
	<path class="st4" d="M546,793.3c1.6,0,1.6-2.6,0-2.6S544.4,793.3,546,793.3z"/>
	<path class="st4" d="M540.7,784.3c1.4,0,1.4-2.2,0-2.2S539.3,784.3,540.7,784.3z"/>
	<path class="st4" d="M719.7,743.9c2.5,0,2.5-3.8,0-3.8C717.3,740,717.3,743.9,719.7,743.9z"/>
	<path class="st4" d="M713.9,735.7c1.8,0,1.8-2.8,0-2.8C712,732.9,712,735.7,713.9,735.7z"/>
	<path class="st4" d="M713.3,722.6c1.6,0,1.6-2.6,0-2.6S711.6,722.6,713.3,722.6z"/>
	<path class="st4" d="M533.6,835.8c-2,0-2,3.1,0,3.1C535.7,838.9,535.7,835.8,533.6,835.8z"/>
	<path class="st4" d="M762.1,828.2c-2,0-2,3.1,0,3.1C764.1,831.2,764.1,828.2,762.1,828.2z"/>
	<path class="st4" d="M765.1,837.2c-1.7,0-1.7,2.6,0,2.6S766.8,837.2,765.1,837.2z"/>
	<path class="st4" d="M773.3,837c-1.9,0-1.9,3,0,3S775.3,837,773.3,837z"/>
</g>
<g>
	<path class="st5" d="M442.1,998.8l4-17.8h1.2c-0.2,1.7-0.3,3.2-0.3,4.3c0,3.3,1,5.9,3.1,7.9s4.8,3,8.1,3c3.1,0,5.4-0.9,7-2.8
		c1.6-1.9,2.4-4.1,2.4-6.6c0-1.6-0.4-3.1-1.1-4.4c-1.1-2-4.1-5.4-8.9-10.3c-2.3-2.3-3.8-4.1-4.5-5.3c-1.1-1.9-1.6-3.9-1.6-6
		c0-3.3,1.3-6.2,3.8-8.6c2.5-2.4,5.7-3.6,9.6-3.6c1.3,0,2.6,0.1,3.8,0.4c0.7,0.1,2.1,0.6,4,1.5c1.3,0.5,2.1,0.8,2.2,0.9
		c0.4,0.1,0.7,0.1,1.1,0.1c0.7,0,1.3-0.2,1.8-0.5c0.5-0.4,1.1-1.1,1.7-2.3h1.4l-3.7,16H476c0.1-1.4,0.2-2.6,0.2-3.4
		c0-2.9-0.9-5.2-2.8-7s-4.4-2.7-7.5-2.7c-2.4,0-4.4,0.7-6,2.2c-1.5,1.4-2.3,3.1-2.3,5c0,1.6,0.5,3.2,1.5,4.7s3.2,3.9,6.8,7.3
		c3.5,3.4,5.8,6,6.8,7.9s1.5,3.9,1.5,6.1c0,2.4-0.6,4.8-1.9,7.1s-3.1,4.1-5.5,5.3s-5.1,1.9-7.9,1.9c-1.4,0-2.7-0.1-4-0.4
		c-1.2-0.3-3.2-0.9-5.9-1.9c-0.9-0.4-1.7-0.5-2.3-0.5c-1.4,0-2.5,0.9-3.3,2.8h-1.3V998.8z"/>
	<path class="st5" d="M511.9,965.6l-6.9,24l-0.8,3.3c-0.1,0.3-0.1,0.5-0.1,0.7c0,0.4,0.1,0.7,0.4,1c0.2,0.2,0.4,0.3,0.7,0.3
		c0.3,0,0.7-0.2,1.2-0.6c0.9-0.7,2.1-2.1,3.7-4.2l1.2,0.8c-1.6,2.5-3.3,4.3-5,5.6s-3.3,1.9-4.8,1.9c-1,0-1.8-0.2-2.3-0.7
		s-0.8-1.2-0.8-2.2c0-1.2,0.3-2.7,0.8-4.6l0.7-2.7c-3.1,4-6,6.9-8.5,8.5c-1.9,1.1-3.7,1.7-5.5,1.7c-1.7,0-3.2-0.7-4.5-2.1
		c-1.2-1.4-1.9-3.4-1.9-5.9c0-3.8,1.1-7.7,3.4-11.9c2.2-4.2,5.1-7.5,8.6-10c2.7-2,5.2-3,7.7-3c1.5,0,2.7,0.4,3.6,1.1
		c1,0.8,1.7,2,2.2,3.8l1.3-4L511.9,965.6z M499.2,967.5c-1.5,0-3.1,0.7-4.8,2.2c-2.4,2-4.6,5-6.5,8.9s-2.8,7.5-2.8,10.7
		c0,1.6,0.4,2.8,1.2,3.8c0.8,0.9,1.7,1.4,2.8,1.4c2.6,0,5.3-1.9,8.4-5.7c4-5,6.1-10.2,6.1-15.5c0-2-0.4-3.4-1.2-4.4
		C501.7,967.9,500.6,967.5,499.2,967.5z"/>
	<path class="st5" d="M535.6,947.3l-12.1,42.1c-0.6,2.1-0.9,3.4-0.9,3.9c0,0.4,0.1,0.6,0.3,0.9c0.2,0.2,0.5,0.4,0.8,0.4
		c0.5,0,1-0.2,1.5-0.6c1.2-1,2.5-2.5,3.9-4.5l1.1,1.1c-2.2,3.2-4.3,5.4-6.2,6.6c-1.4,0.9-2.7,1.3-4,1.3c-0.9,0-1.6-0.3-2.2-0.9
		c-0.6-0.6-0.9-1.3-0.9-2.1s0.4-2.6,1.1-5.2l9.6-33.2c0.8-2.7,1.1-4.3,1.1-4.7c0-0.6-0.2-1.1-0.7-1.4c-0.5-0.4-1.2-0.5-2.1-0.5
		c-0.5,0-1.3,0.1-2.5,0.3v-1.3L535.6,947.3z"/>
	<path class="st5" d="M567.7,976.7c0,3.5-0.9,7.1-2.8,10.5c-1.9,3.5-4.5,6.2-7.8,8.2s-6.6,3-9.8,3s-5.9-1-7.9-3.1
		c-2.1-2.1-3.1-4.7-3.1-8c0-3.5,1-7,3-10.5s4.7-6.3,8-8.3s6.6-3.1,9.7-3.1c3.1,0,5.7,1,7.7,3.1C566.7,970.8,567.7,973.5,567.7,976.7
		z M561.9,974.3c0-2.2-0.5-3.9-1.6-5.1c-1.1-1.2-2.5-1.8-4.2-1.8c-3.5,0-6.6,2.5-9.6,7.5c-2.9,5-4.4,9.9-4.4,14.8
		c0,2.2,0.6,4,1.7,5.2c1.1,1.2,2.6,1.8,4.3,1.8c3.3,0,6.5-2.5,9.4-7.4S561.9,979.4,561.9,974.3z M566.4,948L556,960.2h-1.2l3.7-12.2
		H566.4z"/>
	<path class="st5" d="M586.5,965.6l-4.7,16.1c4.4-6.6,7.8-10.9,10.1-13c2.4-2.1,4.6-3.1,6.8-3.1c1.2,0,2.1,0.4,2.9,1.2
		c0.8,0.8,1.1,1.8,1.1,3c0,1.4-0.3,3.3-1,5.7l-4.3,14.9c-0.5,1.7-0.7,2.8-0.7,3.2c0,0.3,0.1,0.6,0.3,0.8s0.4,0.3,0.6,0.3
		c0.3,0,0.6-0.1,1-0.4c1.3-1,2.6-2.5,4.1-4.5l1.1,0.7c-2.2,3.1-4.3,5.4-6.2,6.7c-1.4,0.9-2.6,1.4-3.7,1.4c-0.9,0-1.6-0.3-2.1-0.8
		s-0.8-1.2-0.8-2.1c0-1.1,0.4-3.1,1.2-5.8l4.1-14.2c0.5-1.8,0.7-3.1,0.7-4.1c0-0.5-0.2-0.9-0.5-1.1c-0.3-0.3-0.7-0.4-1.1-0.4
		c-0.6,0-1.4,0.3-2.4,0.8c-1.7,1.1-3.5,2.8-5.4,5.3c-1.9,2.4-3.9,5.6-6,9.3c-1.1,2-2,4.2-2.8,6.6l-1.8,5.8h-5.3l6.5-22.2
		c0.8-2.7,1.1-4.3,1.1-4.8s-0.2-1-0.6-1.4c-0.4-0.4-0.9-0.6-1.5-0.6c-0.3,0-0.8,0.1-1.5,0.2l-1.4,0.2l-0.2-1.3L586.5,965.6z"/>
	<path class="st5" d="M648.3,952.3l-5.5,19h4.5c3.2,0,5.6-0.5,7-1.5s2.7-2.8,3.7-5.4h1.3l-4.9,17.4H653c0.4-1.5,0.6-2.7,0.6-3.8
		c0-1-0.2-1.8-0.6-2.4c-0.4-0.6-1-1.1-1.7-1.4c-0.7-0.3-2.2-0.4-4.6-0.4h-4.6l-4.6,15.9c-0.4,1.6-0.7,2.7-0.7,3.5
		c0,0.6,0.3,1.2,0.9,1.6c0.4,0.3,1.4,0.5,3,0.5h4.3c4.6,0,8.3-0.8,11.1-2.4c2.8-1.6,5.3-4.4,7.5-8.5h1.3l-4.5,13.3h-37.1l0.4-1.3
		c1.8,0,3.1-0.2,3.7-0.5c0.9-0.4,1.6-1,2.1-1.6c0.6-1,1.4-3,2.2-6.1l8.4-28.9c0.6-2.3,1-4.1,1-5.4c0-0.9-0.3-1.6-0.9-2.1
		c-0.6-0.5-1.8-0.8-3.7-0.8h-0.7l0.4-1.3h34.5l-2.9,11.6h-1.3c0.2-1.1,0.3-2,0.3-2.7c0-1.3-0.3-2.3-0.9-3.2c-0.8-1.1-2-1.9-3.5-2.5
		c-1.1-0.4-3.8-0.7-7.8-0.7h-6.3V952.3z"/>
	<path class="st5" d="M695.4,965.6l-2.2,10.9h-1.3c-0.1-3.2-0.8-5.5-2-6.9s-2.8-2.2-4.6-2.2c-1.4,0-2.6,0.4-3.5,1.2
		s-1.3,1.8-1.3,2.9c0,0.8,0.2,1.5,0.5,2.2s1.1,1.7,2.3,3c3,3.4,5,5.9,5.9,7.6c0.9,1.7,1.3,3.3,1.3,4.8c0,2.5-1,4.6-3.1,6.5
		c-2,1.9-4.6,2.8-7.7,2.8c-1.7,0-3.7-0.4-5.9-1.2c-0.8-0.3-1.4-0.4-1.8-0.4c-1.1,0-1.9,0.5-2.4,1.6h-1.3l2.2-11.5h1.3
		c0.1,3.6,0.8,6.2,2.2,7.6c1.3,1.5,3.2,2.2,5.5,2.2c1.8,0,3.2-0.5,4.3-1.5s1.6-2.2,1.6-3.7c0-0.9-0.2-1.8-0.6-2.6
		c-0.7-1.4-2.1-3.4-4.2-5.9c-2.1-2.5-3.5-4.4-4.1-5.6c-0.6-1.2-0.9-2.5-0.9-3.8c0-2.3,0.8-4.2,2.5-5.8s3.8-2.4,6.4-2.4
		c0.8,0,1.5,0.1,2.1,0.2c0.3,0.1,1.1,0.4,2.3,0.8c1.2,0.5,2,0.7,2.4,0.7c1,0,1.8-0.6,2.6-1.7h1.5V965.6z"/>
	<path class="st5" d="M716.2,956.9l-2.8,9.6h5.6l-0.6,2.2h-5.5l-6.1,20.8c-0.6,2.3-1,3.7-1,4.4c0,0.4,0.1,0.7,0.3,0.9
		s0.4,0.3,0.7,0.3c0.6,0,1.4-0.4,2.3-1.3c0.6-0.5,1.9-1.9,3.8-4.4l1.1,0.9c-2.2,3.1-4.2,5.4-6.2,6.7c-1.3,0.9-2.7,1.3-4,1.3
		c-1,0-1.9-0.3-2.5-1c-0.7-0.6-1-1.5-1-2.5c0-1.3,0.4-3.2,1.1-5.8l5.9-20.5H702l0.4-1.4c2.6-0.7,4.8-1.8,6.5-3.2s3.6-3.8,5.8-7.3
		h1.5V956.9z"/>
	<path class="st5" d="M726.1,984.4c-0.1,1.2-0.2,2.1-0.2,2.9c0,2.1,0.7,3.9,2.2,5.4s3.3,2.2,5.4,2.2c1.7,0,3.3-0.4,4.9-1.1
		s3.9-2.2,7-4.6l0.7,1c-5.6,5.5-10.9,8.3-16,8.3c-3.4,0-6-1.1-7.8-3.3c-1.7-2.2-2.6-4.6-2.6-7.2c0-3.5,1.1-7.1,3.3-10.8
		s4.9-6.5,8.2-8.6s6.6-3.1,10.1-3.1c2.5,0,4.3,0.5,5.5,1.5s1.8,2.2,1.8,3.6c0,2-0.8,3.8-2.3,5.6c-2.1,2.3-5.1,4.2-9.1,5.7
		C734.6,983,730.9,983.8,726.1,984.4z M726.4,982.6c3.5-0.4,6.3-1.1,8.5-2.1c2.9-1.3,5.1-2.8,6.5-4.6c1.5-1.8,2.2-3.5,2.2-5.2
		c0-1-0.3-1.8-0.9-2.4c-0.6-0.6-1.5-0.9-2.7-0.9c-2.4,0-5,1.3-7.7,3.8C729.6,973.8,727.6,977.6,726.4,982.6z"/>
	<path class="st5" d="M771.2,947.3l-12.1,42.1c-0.6,2.1-0.9,3.4-0.9,3.9c0,0.4,0.1,0.6,0.3,0.9c0.2,0.2,0.5,0.4,0.8,0.4
		c0.5,0,1-0.2,1.5-0.6c1.2-1,2.5-2.5,3.9-4.5l1.1,1.1c-2.2,3.2-4.3,5.4-6.2,6.6c-1.4,0.9-2.7,1.3-4,1.3c-0.9,0-1.6-0.3-2.2-0.9
		s-0.9-1.3-0.9-2.1s0.4-2.6,1.1-5.2l9.6-33.2c0.8-2.7,1.1-4.3,1.1-4.7c0-0.6-0.2-1.1-0.7-1.4c-0.5-0.4-1.2-0.5-2.1-0.5
		c-0.5,0-1.3,0.1-2.5,0.3v-1.3L771.2,947.3z"/>
	<path class="st5" d="M803.8,965.6l-6.9,24l-0.8,3.3c-0.1,0.3-0.1,0.5-0.1,0.7c0,0.4,0.1,0.7,0.4,1c0.2,0.2,0.4,0.3,0.7,0.3
		s0.7-0.2,1.2-0.6c0.9-0.7,2.1-2.1,3.7-4.2l1.2,0.8c-1.6,2.5-3.3,4.3-5,5.6s-3.3,1.9-4.8,1.9c-1,0-1.8-0.2-2.3-0.7s-0.8-1.2-0.8-2.2
		c0-1.2,0.3-2.7,0.8-4.6l0.7-2.7c-3.1,4-6,6.9-8.5,8.5c-1.9,1.1-3.7,1.7-5.5,1.7c-1.7,0-3.2-0.7-4.5-2.1c-1.2-1.4-1.9-3.4-1.9-5.9
		c0-3.8,1.1-7.7,3.4-11.9c2.2-4.2,5.1-7.5,8.6-10c2.7-2,5.2-3,7.7-3c1.5,0,2.7,0.4,3.6,1.1c1,0.8,1.7,2,2.2,3.8l1.3-4L803.8,965.6z
		 M791.2,967.5c-1.5,0-3.1,0.7-4.8,2.2c-2.4,2-4.6,5-6.5,8.9s-2.8,7.5-2.8,10.7c0,1.6,0.4,2.8,1.2,3.8c0.8,0.9,1.7,1.4,2.8,1.4
		c2.6,0,5.3-1.9,8.4-5.7c4-5,6.1-10.2,6.1-15.5c0-2-0.4-3.4-1.2-4.4C793.6,967.9,792.6,967.5,791.2,967.5z"/>
	<path class="st5" d="M809.8,967.6l12.2-2l-5.1,17.2c4.1-7.1,7.9-12,11.3-14.8c1.9-1.6,3.5-2.4,4.7-2.4c0.8,0,1.4,0.2,1.8,0.7
		c0.4,0.5,0.7,1.1,0.7,2c0,1.6-0.4,3-1.2,4.4c-0.6,1.1-1.4,1.6-2.5,1.6c-0.5,0-1-0.2-1.4-0.5c-0.4-0.4-0.6-0.9-0.7-1.6
		c0-0.4-0.1-0.7-0.3-0.9s-0.4-0.3-0.7-0.3c-0.4,0-0.8,0.1-1.1,0.3c-0.6,0.3-1.6,1.2-2.8,2.8c-2,2.3-4.1,5.3-6.4,9
		c-1,1.6-1.8,3.3-2.6,5.3c-1,2.7-1.5,4.3-1.7,4.9l-1.1,4.4h-5.4l6.6-22c0.7-2.6,1.1-4.4,1.1-5.5c0-0.4-0.2-0.8-0.5-1.1
		c-0.5-0.4-1.1-0.6-1.8-0.6c-0.5,0-1.4,0.1-2.7,0.3L809.8,967.6z"/>
	<path class="st5" d="M253.9,1120.7l-1.2,0.6c-2.8-5.4-4.8-10.1-6.1-14.2c-0.9-3.2-1.4-6.5-1.4-9.7c0-7.6,1.8-14.4,5.3-20.4
		c4.3-7.4,11.3-14.5,21-21.5l0.8,1.2c-4.4,3.3-7.9,6.9-10.7,10.9c-3.4,5-6.2,11-8.4,18.1s-3.3,13.5-3.3,19.3
		C249.9,1109.4,251.2,1114.7,253.9,1120.7z"/>
	<path class="st5" d="M282.3,1079.2h22.1l3.5-11.8c0.7-2.3,1-4.1,1-5.4c0-0.6-0.1-1.1-0.4-1.6c-0.3-0.4-0.7-0.7-1.4-1
		s-1.8-0.3-3.6-0.3l0.4-1.3h19.3l-0.4,1.3c-1.6,0-2.8,0.1-3.6,0.5c-1.1,0.5-2,1.1-2.6,1.9c-0.8,1.1-1.6,3.1-2.4,5.8l-8.4,29
		c-0.7,2.4-1.1,4.1-1.1,5.2c0,0.9,0.3,1.6,0.9,2c0.6,0.5,2.1,0.8,4.5,0.9l-0.4,1.3H291l0.5-1.3c1.8,0,3.1-0.2,3.7-0.5
		c0.9-0.4,1.6-1,2.1-1.6c0.6-0.9,1.4-2.9,2.2-6l4.4-14.7h-22.3l-4.4,14.7c-0.7,2.4-1,4.1-1,5.2c0,0.9,0.3,1.6,0.9,2
		c0.6,0.5,2.1,0.8,4.4,0.9l-0.3,1.3h-18.8l0.4-1.3c1.9,0,3.1-0.2,3.7-0.5c0.9-0.4,1.6-1,2.1-1.6c0.6-1,1.4-3,2.3-6l8.5-29
		c0.7-2.4,1-4.2,1-5.4c0-0.6-0.1-1.1-0.4-1.6c-0.3-0.4-0.8-0.7-1.4-1c-0.6-0.2-1.9-0.3-3.7-0.3l0.4-1.3h19l-0.4,1.3
		c-1.6,0-2.8,0.1-3.5,0.5c-1.1,0.5-1.9,1.1-2.4,1.9c-0.7,1.1-1.5,3-2.4,5.9L282.3,1079.2z"/>
	<path class="st5" d="M350.3,1084.8c0,3.5-0.9,7.1-2.8,10.5c-1.9,3.5-4.5,6.2-7.8,8.2s-6.6,3-9.8,3c-3.2,0-5.9-1-7.9-3.1
		c-2.1-2.1-3.1-4.7-3.1-8c0-3.5,1-7,3-10.5s4.7-6.3,8-8.3s6.6-3.1,9.7-3.1s5.7,1,7.7,3.1C349.3,1078.9,350.3,1081.5,350.3,1084.8z
		 M344.4,1082.4c0-2.2-0.5-3.9-1.6-5.1s-2.5-1.8-4.2-1.8c-3.5,0-6.6,2.5-9.6,7.5c-2.9,5-4.4,9.9-4.4,14.8c0,2.2,0.6,4,1.7,5.2
		s2.6,1.8,4.3,1.8c3.3,0,6.5-2.5,9.4-7.4S344.4,1087.5,344.4,1082.4z"/>
	<path class="st5" d="M371.8,1065l-2.8,9.6h5.6l-0.6,2.2h-5.5l-6.1,20.8c-0.6,2.3-1,3.7-1,4.4c0,0.4,0.1,0.7,0.3,0.9
		s0.4,0.3,0.7,0.3c0.6,0,1.4-0.4,2.3-1.3c0.6-0.5,1.9-1.9,3.8-4.4l1.1,0.9c-2.2,3.1-4.2,5.4-6.2,6.7c-1.3,0.9-2.7,1.3-4,1.3
		c-1,0-1.9-0.3-2.5-1s-1-1.5-1-2.5c0-1.3,0.4-3.2,1.1-5.8l5.9-20.5h-5.4l0.4-1.4c2.6-0.7,4.8-1.8,6.5-3.2c1.7-1.4,3.6-3.8,5.8-7.3
		h1.6V1065z"/>
	<path class="st5" d="M381.8,1092.4c-0.1,1.2-0.2,2.1-0.2,2.9c0,2.1,0.7,3.9,2.2,5.4s3.3,2.2,5.4,2.2c1.7,0,3.3-0.4,4.9-1.1
		s3.9-2.2,7-4.6l0.7,1c-5.6,5.5-10.9,8.3-16,8.3c-3.4,0-6-1.1-7.8-3.3c-1.7-2.2-2.6-4.6-2.6-7.2c0-3.5,1.1-7.1,3.3-10.8
		c2.2-3.7,4.9-6.5,8.2-8.6c3.3-2.1,6.6-3.1,10.1-3.1c2.5,0,4.3,0.5,5.5,1.5s1.8,2.2,1.8,3.6c0,2-0.8,3.8-2.3,5.6
		c-2.1,2.3-5.1,4.2-9.1,5.7C390.3,1091.1,386.6,1091.9,381.8,1092.4z M382,1090.7c3.5-0.4,6.3-1.1,8.5-2.1c2.9-1.3,5.1-2.8,6.5-4.6
		c1.5-1.8,2.2-3.5,2.2-5.2c0-1-0.3-1.8-0.9-2.4s-1.5-0.9-2.7-0.9c-2.4,0-5,1.3-7.7,3.8C385.3,1081.9,383.3,1085.7,382,1090.7z"/>
	<path class="st5" d="M426.9,1055.4l-12.1,42.1c-0.6,2.1-0.9,3.4-0.9,3.9c0,0.4,0.1,0.6,0.3,0.9c0.2,0.2,0.5,0.4,0.8,0.4
		c0.5,0,1-0.2,1.5-0.6c1.2-1,2.5-2.5,3.9-4.5l1.1,1.1c-2.2,3.2-4.3,5.4-6.2,6.6c-1.4,0.9-2.7,1.3-4,1.3c-0.9,0-1.6-0.3-2.2-0.9
		s-0.9-1.3-0.9-2.1c0-0.8,0.4-2.6,1.1-5.2l9.6-33.2c0.8-2.7,1.1-4.3,1.1-4.7c0-0.6-0.2-1.1-0.7-1.4c-0.5-0.4-1.2-0.5-2.1-0.5
		c-0.5,0-1.3,0.1-2.5,0.3v-1.3L426.9,1055.4z"/>
	<path class="st5" d="M467.1,1060.3l-5.5,19h4.5c3.2,0,5.6-0.5,7-1.5s2.7-2.8,3.7-5.4h1.3l-4.9,17.4h-1.4c0.4-1.5,0.6-2.7,0.6-3.8
		c0-1-0.2-1.8-0.6-2.4s-1-1.1-1.7-1.4s-2.2-0.4-4.6-0.4h-4.6l-4.6,15.9c-0.4,1.6-0.7,2.7-0.7,3.5c0,0.6,0.3,1.2,0.9,1.6
		c0.4,0.3,1.4,0.5,3,0.5h4.3c4.6,0,8.3-0.8,11.1-2.4c2.8-1.6,5.3-4.4,7.5-8.5h1.3l-4.5,13.3H442l0.4-1.3c1.8,0,3.1-0.2,3.7-0.5
		c0.9-0.4,1.6-1,2.1-1.6c0.6-1,1.4-3,2.2-6.1l8.4-28.9c0.6-2.3,1-4.1,1-5.4c0-0.9-0.3-1.6-0.9-2.1s-1.8-0.8-3.7-0.8h-0.7l0.4-1.3
		h34.5l-2.9,11.6h-1.3c0.2-1.1,0.3-2,0.3-2.7c0-1.3-0.3-2.3-0.9-3.2c-0.8-1.1-2-1.9-3.5-2.5c-1.1-0.4-3.8-0.7-7.8-0.7h-6.2V1060.3z"
		/>
	<path class="st5" d="M514.2,1073.7l-2.2,10.9h-1.3c-0.1-3.2-0.8-5.5-2-6.9s-2.8-2.2-4.6-2.2c-1.4,0-2.6,0.4-3.5,1.2
		c-0.9,0.8-1.3,1.8-1.3,2.9c0,0.8,0.2,1.5,0.5,2.2s1.1,1.7,2.3,3c3,3.4,5,5.9,5.9,7.6s1.3,3.3,1.3,4.8c0,2.5-1,4.6-3.1,6.5
		c-2,1.9-4.6,2.8-7.7,2.8c-1.7,0-3.7-0.4-5.9-1.2c-0.8-0.3-1.4-0.4-1.8-0.4c-1.1,0-1.9,0.5-2.4,1.6h-1.3l2.2-11.5h1.3
		c0.1,3.6,0.8,6.2,2.2,7.6c1.3,1.5,3.2,2.2,5.5,2.2c1.8,0,3.2-0.5,4.3-1.5c1.1-1,1.6-2.2,1.6-3.7c0-0.9-0.2-1.8-0.6-2.6
		c-0.7-1.4-2.1-3.4-4.2-5.9s-3.5-4.4-4.1-5.6s-0.9-2.5-0.9-3.8c0-2.3,0.8-4.2,2.5-5.8c1.7-1.6,3.8-2.4,6.4-2.4
		c0.8,0,1.5,0.1,2.1,0.2c0.3,0.1,1.1,0.4,2.3,0.8c1.2,0.5,2,0.7,2.4,0.7c1,0,1.8-0.6,2.6-1.7h1.5V1073.7z"/>
	<path class="st5" d="M534.9,1065l-2.8,9.6h5.6l-0.6,2.2h-5.5l-6.1,20.8c-0.6,2.3-1,3.7-1,4.4c0,0.4,0.1,0.7,0.3,0.9
		s0.4,0.3,0.7,0.3c0.6,0,1.4-0.4,2.3-1.3c0.6-0.5,1.9-1.9,3.8-4.4l1.1,0.9c-2.2,3.1-4.2,5.4-6.2,6.7c-1.3,0.9-2.7,1.3-4,1.3
		c-1,0-1.9-0.3-2.5-1s-1-1.5-1-2.5c0-1.3,0.4-3.2,1.1-5.8l5.9-20.5h-5.4l0.4-1.4c2.6-0.7,4.8-1.8,6.5-3.2c1.7-1.4,3.6-3.8,5.8-7.3
		h1.6V1065z"/>
	<path class="st5" d="M544.9,1092.4c-0.1,1.2-0.2,2.1-0.2,2.9c0,2.1,0.7,3.9,2.2,5.4s3.3,2.2,5.4,2.2c1.7,0,3.3-0.4,4.9-1.1
		c1.6-0.7,3.9-2.2,7-4.6l0.7,1c-5.6,5.5-10.9,8.3-16,8.3c-3.4,0-6-1.1-7.8-3.3c-1.7-2.2-2.6-4.6-2.6-7.2c0-3.5,1.1-7.1,3.3-10.8
		c2.2-3.7,4.9-6.5,8.2-8.6s6.6-3.1,10.1-3.1c2.5,0,4.3,0.5,5.5,1.5s1.8,2.2,1.8,3.6c0,2-0.8,3.8-2.3,5.6c-2.1,2.3-5.1,4.2-9.1,5.7
		C553.4,1091.1,549.7,1091.9,544.9,1092.4z M545.1,1090.7c3.5-0.4,6.3-1.1,8.5-2.1c2.9-1.3,5.1-2.8,6.5-4.6c1.5-1.8,2.2-3.5,2.2-5.2
		c0-1-0.3-1.8-0.9-2.4c-0.6-0.6-1.5-0.9-2.7-0.9c-2.4,0-5,1.3-7.7,3.8C548.4,1081.9,546.4,1085.7,545.1,1090.7z"/>
	<path class="st5" d="M590,1055.4l-12.1,42.1c-0.6,2.1-0.9,3.4-0.9,3.9c0,0.4,0.1,0.6,0.3,0.9c0.2,0.2,0.5,0.4,0.8,0.4
		c0.5,0,1-0.2,1.5-0.6c1.2-1,2.5-2.5,3.9-4.5l1.1,1.1c-2.2,3.2-4.3,5.4-6.2,6.6c-1.4,0.9-2.7,1.3-4,1.3c-0.9,0-1.6-0.3-2.2-0.9
		c-0.6-0.6-0.9-1.3-0.9-2.1c0-0.8,0.4-2.6,1.1-5.2l9.6-33.2c0.8-2.7,1.1-4.3,1.1-4.7c0-0.6-0.2-1.1-0.7-1.4
		c-0.5-0.4-1.2-0.5-2.1-0.5c-0.5,0-1.3,0.1-2.5,0.3v-1.3L590,1055.4z"/>
	<path class="st5" d="M622.6,1073.7l-6.9,24l-0.8,3.3c-0.1,0.3-0.1,0.5-0.1,0.7c0,0.4,0.1,0.7,0.4,1c0.2,0.2,0.4,0.3,0.7,0.3
		s0.7-0.2,1.2-0.6c0.9-0.7,2.1-2.1,3.7-4.2l1.2,0.8c-1.6,2.5-3.3,4.3-5,5.6c-1.7,1.3-3.3,1.9-4.8,1.9c-1,0-1.8-0.2-2.3-0.7
		s-0.8-1.2-0.8-2.2c0-1.2,0.3-2.7,0.8-4.6l0.7-2.7c-3.1,4-6,6.9-8.5,8.5c-1.9,1.1-3.7,1.7-5.5,1.7c-1.7,0-3.2-0.7-4.5-2.1
		c-1.2-1.4-1.9-3.4-1.9-5.9c0-3.8,1.1-7.7,3.4-11.9c2.2-4.2,5.1-7.5,8.6-10c2.7-2,5.2-3,7.7-3c1.5,0,2.7,0.4,3.6,1.1
		c1,0.8,1.7,2,2.2,3.8l1.3-4L622.6,1073.7z M610,1075.6c-1.5,0-3.1,0.7-4.8,2.2c-2.4,2-4.6,5-6.5,8.9s-2.8,7.5-2.8,10.7
		c0,1.6,0.4,2.8,1.2,3.8c0.8,0.9,1.7,1.4,2.8,1.4c2.6,0,5.3-1.9,8.4-5.7c4-5,6.1-10.2,6.1-15.5c0-2-0.4-3.4-1.2-4.4
		S611.4,1075.6,610,1075.6z"/>
	<path class="st5" d="M628.6,1075.7l12.2-2l-5.1,17.2c4.1-7.1,7.9-12,11.3-14.8c1.9-1.6,3.5-2.4,4.7-2.4c0.8,0,1.4,0.2,1.8,0.7
		c0.4,0.5,0.7,1.1,0.7,2c0,1.6-0.4,3-1.2,4.4c-0.6,1.1-1.4,1.6-2.5,1.6c-0.5,0-1-0.2-1.4-0.5c-0.4-0.4-0.6-0.9-0.7-1.6
		c0-0.4-0.1-0.7-0.3-0.9c-0.2-0.2-0.4-0.3-0.7-0.3c-0.4,0-0.8,0.1-1.1,0.3c-0.6,0.3-1.6,1.2-2.8,2.8c-2,2.3-4.1,5.3-6.4,9
		c-1,1.6-1.8,3.3-2.6,5.3c-1,2.7-1.5,4.3-1.7,4.9l-1.1,4.4h-5.4l6.6-22c0.7-2.6,1.1-4.4,1.1-5.5c0-0.4-0.2-0.8-0.5-1.1
		c-0.5-0.4-1.1-0.6-1.8-0.6c-0.5,0-1.4,0.1-2.7,0.3L628.6,1075.7z"/>
	<path class="st5" d="M704.4,1105.8h-35.6l0.5-1.3c1.9,0,3.2-0.2,3.8-0.4c1-0.4,1.7-1,2.2-1.7c0.7-1.1,1.5-3,2.3-5.9l8.5-29.2
		c0.7-2.4,1.1-4.2,1.1-5.3c0-0.9-0.3-1.6-1-2.1c-0.6-0.5-1.9-0.7-3.7-0.7c-0.4,0-0.7,0-0.9,0l0.4-1.3h19.6l-0.3,1.3
		c-2.2,0-3.8,0.2-4.7,0.6s-1.7,1.1-2.3,2.1c-0.4,0.6-1.1,2.6-2.1,5.9l-8.3,28.7c-0.6,2.2-1,3.7-1,4.5c0,0.6,0.3,1.1,1,1.6
		c0.4,0.4,1.3,0.5,2.7,0.5h4.6c3.4,0,6.1-0.4,8-1.3c1.5-0.6,2.8-1.6,4-2.9c0.6-0.7,1.8-2.5,3.5-5.3l0.9-1.6h1.3L704.4,1105.8z"/>
	<path class="st5" d="M745.6,1073.7l-6.9,24l-0.8,3.3c-0.1,0.3-0.1,0.5-0.1,0.7c0,0.4,0.1,0.7,0.4,1c0.2,0.2,0.4,0.3,0.7,0.3
		s0.7-0.2,1.2-0.6c0.9-0.7,2.1-2.1,3.7-4.2l1.2,0.8c-1.6,2.5-3.3,4.3-5,5.6c-1.7,1.3-3.3,1.9-4.8,1.9c-1,0-1.8-0.2-2.3-0.7
		s-0.8-1.2-0.8-2.2c0-1.2,0.3-2.7,0.8-4.6l0.7-2.7c-3.1,4-6,6.9-8.5,8.5c-1.9,1.1-3.7,1.7-5.5,1.7c-1.7,0-3.2-0.7-4.5-2.1
		c-1.2-1.4-1.9-3.4-1.9-5.9c0-3.8,1.1-7.7,3.4-11.9c2.2-4.2,5.1-7.5,8.6-10c2.7-2,5.2-3,7.7-3c1.5,0,2.7,0.4,3.6,1.1
		c1,0.8,1.7,2,2.2,3.8l1.3-4L745.6,1073.7z M732.9,1075.6c-1.5,0-3.1,0.7-4.8,2.2c-2.4,2-4.6,5-6.5,8.9s-2.8,7.5-2.8,10.7
		c0,1.6,0.4,2.8,1.2,3.8c0.8,0.9,1.7,1.4,2.8,1.4c2.6,0,5.3-1.9,8.4-5.7c4-5,6.1-10.2,6.1-15.5c0-2-0.4-3.4-1.2-4.4
		C735.3,1076,734.3,1075.6,732.9,1075.6z"/>
	<path class="st5" d="M789.4,1060.3l-5.7,19h6.3c2.8,0,4.9-0.4,6.3-1.3c1.4-0.9,2.9-2.7,4.4-5.6h1.3l-5,17.5h-1.4
		c0.4-1.4,0.5-2.6,0.5-3.5c0-1.4-0.5-2.6-1.5-3.3c-1-0.8-2.8-1.2-5.4-1.2h-6.4l-4.2,14.5c-0.8,2.6-1.1,4.3-1.1,5.1s0.3,1.5,1,2
		s2.2,0.8,4.8,0.9l-0.4,1.3h-19l0.4-1.3c1.8,0,3.1-0.2,3.7-0.5c0.9-0.4,1.6-1,2.1-1.6c0.6-1,1.4-3,2.3-6l8.4-28.9
		c0.7-2.3,1.1-4.2,1.1-5.5c0-0.6-0.2-1.1-0.5-1.6c-0.3-0.4-0.8-0.7-1.4-1c-0.6-0.2-1.8-0.3-3.6-0.3l0.4-1.3h37.3l-3.5,12.2h-1.4
		c0.3-1.5,0.4-2.7,0.4-3.7c0-1.6-0.4-2.8-1.3-3.7c-0.9-0.9-2-1.6-3.3-1.9c-0.9-0.2-3-0.4-6.3-0.4h-9.3V1060.3z"/>
	<path class="st5" d="M843.7,1084.8c0,3.5-0.9,7.1-2.8,10.5c-1.9,3.5-4.5,6.2-7.8,8.2s-6.6,3-9.8,3s-5.9-1-7.9-3.1
		c-2.1-2.1-3.1-4.7-3.1-8c0-3.5,1-7,3-10.5s4.7-6.3,8-8.3s6.6-3.1,9.7-3.1c3.1,0,5.7,1,7.7,3.1
		C842.7,1078.9,843.7,1081.5,843.7,1084.8z M837.8,1082.4c0-2.2-0.5-3.9-1.6-5.1s-2.5-1.8-4.2-1.8c-3.5,0-6.6,2.5-9.6,7.5
		s-4.4,9.9-4.4,14.8c0,2.2,0.6,4,1.7,5.2c1.1,1.2,2.6,1.8,4.3,1.8c3.3,0,6.5-2.5,9.4-7.4C836.4,1092.5,837.8,1087.5,837.8,1082.4z"
		/>
	<path class="st5" d="M862.4,1073.7l-4.7,16.1c4.4-6.6,7.8-10.9,10.1-13c2.4-2.1,4.6-3.1,6.8-3.1c1.2,0,2.1,0.4,2.9,1.2
		c0.8,0.8,1.1,1.8,1.1,3c0,1.4-0.3,3.3-1,5.7l-4.3,14.9c-0.5,1.7-0.7,2.8-0.7,3.2c0,0.3,0.1,0.6,0.3,0.8c0.2,0.2,0.4,0.3,0.6,0.3
		c0.3,0,0.6-0.1,1-0.4c1.3-1,2.6-2.5,4.1-4.5l1.1,0.7c-2.2,3.1-4.3,5.4-6.2,6.7c-1.4,0.9-2.6,1.4-3.7,1.4c-0.9,0-1.6-0.3-2.1-0.8
		s-0.8-1.2-0.8-2.1c0-1.1,0.4-3.1,1.2-5.8l4.1-14.2c0.5-1.8,0.7-3.1,0.7-4.1c0-0.5-0.2-0.9-0.5-1.1c-0.3-0.3-0.7-0.4-1.1-0.4
		c-0.6,0-1.4,0.3-2.4,0.8c-1.7,1.1-3.5,2.8-5.4,5.3c-1.9,2.4-3.9,5.6-6,9.3c-1.1,2-2,4.2-2.8,6.6l-1.8,5.8h-5.3l6.5-22.2
		c0.8-2.7,1.1-4.3,1.1-4.8s-0.2-1-0.6-1.4c-0.4-0.4-0.9-0.6-1.5-0.6c-0.3,0-0.8,0.1-1.5,0.2l-1.4,0.2l-0.2-1.3L862.4,1073.7z"/>
	<path class="st5" d="M901.5,1065l-2.8,9.6h5.6l-0.6,2.2h-5.5l-6.1,20.8c-0.6,2.3-1,3.7-1,4.4c0,0.4,0.1,0.7,0.3,0.9
		s0.4,0.3,0.7,0.3c0.6,0,1.4-0.4,2.3-1.3c0.6-0.5,1.9-1.9,3.8-4.4l1.1,0.9c-2.2,3.1-4.2,5.4-6.2,6.7c-1.3,0.9-2.7,1.3-4,1.3
		c-1,0-1.9-0.3-2.5-1c-0.7-0.6-1-1.5-1-2.5c0-1.3,0.4-3.2,1.1-5.8l5.9-20.5h-5.4l0.4-1.4c2.6-0.7,4.8-1.8,6.5-3.2
		c1.7-1.4,3.6-3.8,5.8-7.3h1.6V1065z"/>
	<path class="st5" d="M936.8,1073.7l-6.9,24l-0.8,3.3c-0.1,0.3-0.1,0.5-0.1,0.7c0,0.4,0.1,0.7,0.4,1c0.2,0.2,0.4,0.3,0.7,0.3
		s0.7-0.2,1.2-0.6c0.9-0.7,2.1-2.1,3.7-4.2l1.2,0.8c-1.6,2.5-3.3,4.3-5,5.6c-1.7,1.3-3.3,1.9-4.8,1.9c-1,0-1.8-0.2-2.3-0.7
		s-0.8-1.2-0.8-2.2c0-1.2,0.3-2.7,0.8-4.6l0.7-2.7c-3.1,4-6,6.9-8.5,8.5c-1.9,1.1-3.7,1.7-5.5,1.7c-1.7,0-3.2-0.7-4.5-2.1
		c-1.2-1.4-1.9-3.4-1.9-5.9c0-3.8,1.1-7.7,3.4-11.9c2.2-4.2,5.1-7.5,8.6-10c2.7-2,5.2-3,7.7-3c1.5,0,2.7,0.4,3.6,1.1
		c1,0.8,1.7,2,2.2,3.8l1.3-4L936.8,1073.7z M924.2,1075.6c-1.5,0-3.1,0.7-4.8,2.2c-2.4,2-4.6,5-6.5,8.9s-2.8,7.5-2.8,10.7
		c0,1.6,0.4,2.8,1.2,3.8c0.8,0.9,1.7,1.4,2.8,1.4c2.6,0,5.3-1.9,8.4-5.7c4-5,6.1-10.2,6.1-15.5c0-2-0.4-3.4-1.2-4.4
		C926.6,1076,925.5,1075.6,924.2,1075.6z"/>
	<path class="st5" d="M955,1073.7l-4.7,16.1c4.4-6.6,7.8-10.9,10.1-13c2.4-2.1,4.6-3.1,6.8-3.1c1.2,0,2.1,0.4,2.9,1.2
		c0.8,0.8,1.1,1.8,1.1,3c0,1.4-0.3,3.3-1,5.7l-4.3,14.9c-0.5,1.7-0.7,2.8-0.7,3.2c0,0.3,0.1,0.6,0.3,0.8c0.2,0.2,0.4,0.3,0.6,0.3
		c0.3,0,0.6-0.1,1-0.4c1.3-1,2.6-2.5,4.1-4.5l1.1,0.7c-2.2,3.1-4.3,5.4-6.2,6.7c-1.4,0.9-2.6,1.4-3.7,1.4c-0.9,0-1.6-0.3-2.1-0.8
		s-0.8-1.2-0.8-2.1c0-1.1,0.4-3.1,1.2-5.8l4.1-14.2c0.5-1.8,0.7-3.1,0.7-4.1c0-0.5-0.2-0.9-0.5-1.1c-0.3-0.3-0.7-0.4-1.1-0.4
		c-0.6,0-1.4,0.3-2.4,0.8c-1.7,1.1-3.5,2.8-5.4,5.3c-1.9,2.4-3.9,5.6-6,9.3c-1.1,2-2,4.2-2.8,6.6l-1.8,5.8h-5.3l6.5-22.2
		c0.8-2.7,1.1-4.3,1.1-4.8s-0.2-1-0.6-1.4c-0.4-0.4-0.9-0.6-1.5-0.6c-0.3,0-0.8,0.1-1.5,0.2l-1.4,0.2l-0.2-1.3L955,1073.7z"/>
	<path class="st5" d="M1009.3,1073.7l-6.9,24l-0.8,3.3c-0.1,0.3-0.1,0.5-0.1,0.7c0,0.4,0.1,0.7,0.4,1c0.2,0.2,0.4,0.3,0.7,0.3
		s0.7-0.2,1.2-0.6c0.9-0.7,2.1-2.1,3.7-4.2l1.2,0.8c-1.6,2.5-3.3,4.3-5,5.6c-1.7,1.3-3.3,1.9-4.8,1.9c-1,0-1.8-0.2-2.3-0.7
		s-0.8-1.2-0.8-2.2c0-1.2,0.3-2.7,0.8-4.6l0.7-2.7c-3.1,4-6,6.9-8.5,8.5c-1.9,1.1-3.7,1.7-5.5,1.7c-1.7,0-3.2-0.7-4.5-2.1
		c-1.2-1.4-1.9-3.4-1.9-5.9c0-3.8,1.1-7.7,3.4-11.9c2.2-4.2,5.1-7.5,8.6-10c2.7-2,5.2-3,7.7-3c1.5,0,2.7,0.4,3.6,1.1
		c1,0.8,1.7,2,2.2,3.8l1.3-4L1009.3,1073.7z M996.7,1075.6c-1.5,0-3.1,0.7-4.8,2.2c-2.4,2-4.6,5-6.5,8.9s-2.8,7.5-2.8,10.7
		c0,1.6,0.4,2.8,1.2,3.8c0.8,0.9,1.7,1.4,2.8,1.4c2.6,0,5.3-1.9,8.4-5.7c4-5,6.1-10.2,6.1-15.5c0-2-0.4-3.4-1.2-4.4
		C999.1,1076,998,1075.6,996.7,1075.6z"/>
	<path class="st5" d="M1022.1,1056.1l1.2-0.7c2.8,5.3,4.8,10.1,6,14.2c1,3.2,1.5,6.5,1.5,9.7c0,7.6-1.8,14.4-5.3,20.4
		c-4.3,7.4-11.3,14.6-21,21.6l-0.9-1.1c4.4-3.3,7.9-6.9,10.7-10.9c3.4-5,6.2-11.1,8.4-18.2s3.3-13.5,3.3-19.4
		C1026.1,1067.4,1024.7,1062.2,1022.1,1056.1z"/>
</g>
<g>
	<path class="st5" d="M279.3,1226.6h-16.5l-2.9,6.7c-0.7,1.6-1.1,2.9-1.1,3.7c0,0.7,0.3,1.2,0.9,1.7s2,0.8,4,0.9v1.2h-13.4v-1.2
		c1.8-0.3,2.9-0.7,3.4-1.2c1.1-1,2.3-3.1,3.6-6.1l15-35.1h1.1l14.8,35.5c1.2,2.8,2.2,4.7,3.2,5.5s2.3,1.3,4.1,1.4v1.2h-16.8v-1.2
		c1.7-0.1,2.9-0.4,3.5-0.8c0.6-0.5,0.9-1.1,0.9-1.8c0-0.9-0.4-2.4-1.2-4.3L279.3,1226.6z M278.5,1224.3l-7.2-17.2l-7.4,17.2H278.5z"
		/>
	<path class="st5" d="M296.9,1212.1h13.6v1.1h-0.9c-0.8,0-1.4,0.2-1.9,0.6c-0.4,0.4-0.6,0.9-0.6,1.6s0.2,1.6,0.7,2.6l6.7,15.9
		l6.7-16.5c0.5-1.2,0.7-2.1,0.7-2.7c0-0.3-0.1-0.5-0.3-0.7c-0.2-0.3-0.5-0.5-0.9-0.6s-1.1-0.2-2.2-0.2v-1.1h9.4v1.1
		c-1.1,0.1-1.8,0.3-2.3,0.7c-0.7,0.6-1.4,1.7-2,3.2l-10.2,24.7h-1.3l-10.3-24.3c-0.4-1.1-0.9-1.9-1.3-2.4s-1-0.9-1.6-1.2
		c-0.4-0.2-1.1-0.4-2.1-0.5L296.9,1212.1L296.9,1212.1z"/>
	<path class="st5" d="M335.4,1222.9c0,4.3,1,7.7,3.1,10.1s4.6,3.6,7.4,3.6c1.9,0,3.5-0.5,4.9-1.5s2.6-2.8,3.5-5.3l1,0.6
		c-0.4,2.9-1.7,5.5-3.8,7.9c-2.1,2.4-4.8,3.6-8,3.6c-3.5,0-6.4-1.3-8.9-4s-3.7-6.3-3.7-10.9c0-4.9,1.3-8.8,3.8-11.5
		c2.5-2.8,5.7-4.1,9.5-4.1c3.2,0,5.9,1.1,7.9,3.2c2.1,2.1,3.1,5,3.1,8.5h-19.8V1222.9z M335.4,1221.1h13.4c-0.1-1.8-0.3-3.2-0.7-3.9
		c-0.5-1.2-1.3-2.1-2.3-2.8c-1-0.7-2.1-1-3.2-1c-1.7,0-3.3,0.7-4.7,2C336.5,1216.8,335.6,1218.7,335.4,1221.1z"/>
	<path class="st5" d="M367.6,1217.3c3.4-4.1,6.6-6.1,9.7-6.1c1.6,0,2.9,0.4,4,1.2s2,2.1,2.7,3.9c0.4,1.3,0.7,3.2,0.7,5.8v12.3
		c0,1.8,0.2,3.1,0.5,3.7c0.2,0.5,0.6,0.9,1.1,1.2c0.5,0.3,1.5,0.4,2.8,0.4v1.1h-14.3v-1.1h0.6c1.3,0,2.3-0.2,2.8-0.6s0.9-1,1.1-1.8
		c0.1-0.3,0.2-1.3,0.2-3v-11.8c0-2.6-0.3-4.5-1-5.7s-1.8-1.8-3.5-1.8c-2.5,0-5,1.4-7.5,4.1v15.2c0,2,0.1,3.2,0.4,3.6
		c0.3,0.6,0.7,1,1.2,1.3s1.5,0.4,3.1,0.4v1.1H358v-1.1h0.6c1.5,0,2.4-0.4,3-1.1c0.5-0.7,0.8-2.2,0.8-4.3v-10.7
		c0-3.5-0.1-5.6-0.2-6.3c-0.2-0.8-0.4-1.3-0.7-1.5c-0.3-0.3-0.8-0.4-1.3-0.4c-0.6,0-1.3,0.2-2.1,0.5l-0.5-1.1l8.7-3.5h1.3
		L367.6,1217.3L367.6,1217.3z"/>
	<path class="st5" d="M401.3,1211.2v23.1c0,1.8,0.1,3,0.4,3.6s0.6,1,1.2,1.3c0.5,0.3,1.5,0.4,2.8,0.4v1.1h-14v-1.1
		c1.4,0,2.3-0.1,2.8-0.4s0.9-0.7,1.1-1.3s0.4-1.8,0.4-3.6v-11.1c0-3.1-0.1-5.1-0.3-6.1c-0.2-0.7-0.4-1.1-0.7-1.4
		c-0.3-0.3-0.7-0.4-1.3-0.4c-0.6,0-1.3,0.2-2.1,0.5l-0.5-1.1l8.7-3.5H401.3z M398.7,1196.1c0.9,0,1.6,0.3,2.2,0.9s0.9,1.4,0.9,2.3
		s-0.3,1.6-0.9,2.2s-1.4,1-2.2,1c-0.9,0-1.6-0.3-2.3-1c-0.6-0.6-0.9-1.4-0.9-2.2c0-0.9,0.3-1.6,0.9-2.3
		C397,1196.4,397.8,1196.1,398.7,1196.1z"/>
	<path class="st5" d="M429.6,1237.6c-1.4,1.5-2.8,2.5-4.1,3.2c-1.3,0.7-2.8,1-4.3,1c-3.2,0-5.9-1.3-8.2-4c-2.3-2.6-3.5-6-3.5-10.1
		s1.3-7.9,3.9-11.3s5.9-5.1,10-5.1c2.6,0,4.6,0.8,6.3,2.4v-5.3c0-3.3-0.1-5.3-0.2-6.1c-0.2-0.8-0.4-1.3-0.7-1.5
		c-0.3-0.3-0.7-0.4-1.3-0.4c-0.5,0-1.3,0.2-2.1,0.5l-0.4-1.1l8.6-3.5h1.4v33.3c0,3.4,0.1,5.4,0.2,6.2c0.2,0.8,0.4,1.3,0.8,1.6
		c0.4,0.3,0.8,0.4,1.2,0.4c0.5,0,1.3-0.2,2.2-0.5l0.4,1.1l-8.6,3.6h-1.4v-4.4H429.6z M429.6,1235.4v-14.8c-0.1-1.4-0.5-2.7-1.1-3.9
		c-0.6-1.2-1.5-2.1-2.5-2.7s-2-0.9-3-0.9c-1.8,0-3.5,0.8-5,2.5c-1.9,2.2-2.9,5.3-2.9,9.5s0.9,7.5,2.8,9.7c1.8,2.3,3.9,3.4,6.2,3.4
		C426,1238.3,427.8,1237.3,429.6,1235.4z"/>
	<path class="st5" d="M457.8,1236.7c-2.9,2.3-4.8,3.6-5.5,3.9c-1.1,0.5-2.4,0.8-3.6,0.8c-2,0-3.6-0.7-4.9-2
		c-1.3-1.4-1.9-3.2-1.9-5.4c0-1.4,0.3-2.6,0.9-3.6c0.9-1.4,2.3-2.8,4.5-4c2.1-1.2,5.7-2.8,10.6-4.6v-1.1c0-2.9-0.5-4.8-1.4-5.9
		s-2.2-1.6-4-1.6c-1.3,0-2.3,0.4-3.1,1.1c-0.8,0.7-1.2,1.5-1.2,2.5l0.1,1.8c0,1-0.2,1.7-0.7,2.2s-1.1,0.8-1.9,0.8s-1.4-0.3-1.9-0.8
		s-0.7-1.3-0.7-2.2c0-1.8,0.9-3.5,2.8-5c1.8-1.5,4.4-2.3,7.8-2.3c2.6,0,4.6,0.4,6.3,1.3c1.2,0.7,2.1,1.7,2.7,3
		c0.4,0.9,0.5,2.8,0.5,5.5v9.8c0,2.7,0.1,4.4,0.2,5s0.3,1,0.5,1.2s0.5,0.3,0.8,0.3s0.6-0.1,0.9-0.2c0.4-0.3,1.3-1,2.6-2.3v1.8
		c-2.4,3.1-4.6,4.7-6.8,4.7c-1,0-1.8-0.4-2.4-1.1C458.1,1239.7,457.8,1238.4,457.8,1236.7z M457.8,1234.7v-11
		c-3.2,1.3-5.2,2.2-6.1,2.7c-1.6,0.9-2.8,1.9-3.5,2.9s-1.1,2.1-1.1,3.3c0,1.5,0.4,2.8,1.3,3.8s1.9,1.5,3.1,1.5
		C453.1,1237.8,455.2,1236.8,457.8,1234.7z"/>
	<path class="st5" d="M522.9,1197.2l1,14.5h-1c-1.3-4.3-3.2-7.5-5.6-9.4c-2.4-1.9-5.3-2.9-8.7-2.9c-2.8,0-5.4,0.7-7.7,2.2
		c-2.3,1.4-4.1,3.7-5.4,6.9c-1.3,3.1-2,7.1-2,11.7c0,3.9,0.6,7.2,1.9,10c1.2,2.8,3.1,5,5.6,6.5s5.3,2.3,8.5,2.3
		c2.8,0,5.2-0.6,7.3-1.8c2.1-1.2,4.4-3.5,7-7.1l0.9,0.6c-2.1,3.8-4.6,6.6-7.5,8.3s-6.2,2.6-10.1,2.6c-7.1,0-12.5-2.6-16.4-7.9
		c-2.9-3.9-4.3-8.5-4.3-13.8c0-4.2,1-8.2,2.9-11.7c1.9-3.6,4.5-6.3,7.9-8.3c3.3-2,7-2.9,11-2.9c3.1,0,6.1,0.8,9.1,2.3
		c0.9,0.5,1.5,0.7,1.9,0.7c0.6,0,1.1-0.2,1.5-0.6c0.5-0.6,0.9-1.4,1.1-2.4h1.1V1197.2z"/>
	<path class="st5" d="M545.4,1236.7c-2.9,2.3-4.8,3.6-5.5,3.9c-1.1,0.5-2.4,0.8-3.6,0.8c-2,0-3.6-0.7-4.9-2
		c-1.3-1.4-1.9-3.2-1.9-5.4c0-1.4,0.3-2.6,0.9-3.6c0.9-1.4,2.3-2.8,4.5-4c2.1-1.2,5.7-2.8,10.6-4.6v-1.1c0-2.9-0.5-4.8-1.4-5.9
		s-2.2-1.6-4-1.6c-1.3,0-2.3,0.4-3.1,1.1s-1.2,1.5-1.2,2.5l0.1,1.8c0,1-0.2,1.7-0.7,2.2s-1.1,0.8-1.9,0.8s-1.4-0.3-1.9-0.8
		s-0.7-1.3-0.7-2.2c0-1.8,0.9-3.5,2.8-5c1.8-1.5,4.4-2.3,7.8-2.3c2.6,0,4.6,0.4,6.3,1.3c1.2,0.7,2.1,1.7,2.7,3
		c0.4,0.9,0.5,2.8,0.5,5.5v9.8c0,2.7,0.1,4.4,0.2,5c0.1,0.6,0.3,1,0.5,1.2s0.5,0.3,0.8,0.3s0.6-0.1,0.9-0.2c0.4-0.3,1.3-1,2.6-2.3
		v1.8c-2.4,3.1-4.6,4.7-6.8,4.7c-1,0-1.8-0.4-2.4-1.1C545.8,1239.7,545.4,1238.4,545.4,1236.7z M545.4,1234.7v-11
		c-3.2,1.3-5.2,2.2-6.1,2.7c-1.6,0.9-2.8,1.9-3.5,2.9s-1.1,2.1-1.1,3.3c0,1.5,0.4,2.8,1.3,3.8c0.9,1,1.9,1.5,3.1,1.5
		C540.7,1237.8,542.8,1236.8,545.4,1234.7z"/>
	<path class="st5" d="M567.6,1196.1v38.2c0,1.8,0.1,3,0.4,3.6c0.3,0.6,0.7,1,1.2,1.3s1.6,0.4,3,0.4v1.1h-14.1v-1.1
		c1.3,0,2.2-0.1,2.7-0.4s0.9-0.7,1.1-1.3c0.3-0.6,0.4-1.8,0.4-3.6v-26.1c0-3.3-0.1-5.3-0.2-6c-0.1-0.7-0.4-1.2-0.7-1.5
		s-0.7-0.4-1.2-0.4s-1.2,0.2-2.1,0.5l-0.5-1.1l8.6-3.5L567.6,1196.1L567.6,1196.1z"/>
	<path class="st5" d="M585.5,1196.1v38.2c0,1.8,0.1,3,0.4,3.6c0.3,0.6,0.7,1,1.2,1.3s1.6,0.4,3,0.4v1.1H576v-1.1
		c1.3,0,2.2-0.1,2.7-0.4s0.9-0.7,1.1-1.3c0.3-0.6,0.4-1.8,0.4-3.6v-26.1c0-3.3-0.1-5.3-0.2-6c-0.1-0.7-0.4-1.2-0.7-1.5
		s-0.7-0.4-1.2-0.4s-1.2,0.2-2.1,0.5l-0.5-1.1l8.6-3.5L585.5,1196.1L585.5,1196.1z"/>
	<path class="st5" d="M598.3,1222.9c0,4.3,1,7.7,3.1,10.1s4.6,3.6,7.4,3.6c1.9,0,3.5-0.5,4.9-1.5s2.6-2.8,3.5-5.3l1,0.6
		c-0.4,2.9-1.7,5.5-3.8,7.9s-4.8,3.6-8,3.6c-3.5,0-6.4-1.3-8.9-4s-3.7-6.3-3.7-10.9c0-4.9,1.3-8.8,3.8-11.5c2.5-2.8,5.7-4.1,9.5-4.1
		c3.2,0,5.9,1.1,7.9,3.2c2.1,2.1,3.1,5,3.1,8.5h-19.8V1222.9z M598.3,1221.1h13.4c-0.1-1.8-0.3-3.2-0.7-3.9
		c-0.5-1.2-1.3-2.1-2.3-2.8c-1-0.7-2.1-1-3.2-1c-1.7,0-3.3,0.7-4.7,2C599.3,1216.8,598.5,1218.7,598.3,1221.1z"/>
	<path class="st5" d="M643.7,1202.4l10.4-5h1v36c0,2.4,0.1,3.8,0.3,4.4s0.6,1,1.2,1.4c0.6,0.3,1.9,0.5,3.8,0.5v1.2h-16v-1.2
		c2,0,3.3-0.2,3.9-0.5s1-0.7,1.2-1.2s0.4-2,0.4-4.6v-23c0-3.1-0.1-5.1-0.3-6c-0.2-0.7-0.4-1.1-0.8-1.5c-0.4-0.3-0.9-0.5-1.4-0.5
		c-0.8,0-1.9,0.3-3.2,1L643.7,1202.4z"/>
	<path class="st5" d="M697.9,1232.7l-3,8.2h-25.2v-1.2c7.4-6.7,12.6-12.3,15.6-16.5c3-4.3,4.5-8.2,4.5-11.7c0-2.7-0.8-4.9-2.5-6.7
		c-1.7-1.7-3.6-2.6-5.9-2.6c-2.1,0-4,0.6-5.7,1.8c-1.7,1.2-2.9,3-3.7,5.4h-1c0.5-3.9,1.9-6.9,4-8.9c2.2-2.1,4.9-3.1,8.1-3.1
		c3.5,0,6.4,1.1,8.7,3.3c2.3,2.2,3.5,4.8,3.5,7.8c0,2.2-0.5,4.3-1.5,6.5c-1.5,3.4-4,7-7.5,10.8c-5.2,5.7-8.5,9.1-9.8,10.3h11.1
		c2.3,0,3.9-0.1,4.8-0.2c0.9-0.2,1.7-0.5,2.5-1c0.7-0.5,1.4-1.2,1.9-2.2L697.9,1232.7L697.9,1232.7z"/>
	<path class="st5" d="M707,1198.2h22.9v1.2l-14.2,42.3h-3.5l12.7-38.4h-11.7c-2.4,0-4.1,0.3-5.1,0.8c-1.7,1-3.2,2.5-4.2,4.5
		l-0.9-0.4L707,1198.2z"/>
	<path class="st5" d="M752.4,1241.8l2.9-14.3H750v-2.6h5.9l2.2-10.8h-8v-2.5h8.6l2.9-14.3h2.6l-2.9,14.3h10.6l3-14.3h2.6l-3,14.3
		h5.4v2.5H774l-2.2,10.8h8v2.6h-8.6l-2.9,14.3h-2.5l2.9-14.3H758l-3,14.3H752.4z M758.5,1224.8h10.7l2.3-10.8h-10.7L758.5,1224.8z"
		/>
	<path class="st5" d="M804.6,1202.4l10.4-5h1v36c0,2.4,0.1,3.8,0.3,4.4s0.6,1,1.2,1.4c0.6,0.3,1.9,0.5,3.8,0.5v1.2h-16v-1.2
		c2,0,3.3-0.2,3.9-0.5s1-0.7,1.2-1.2s0.4-2,0.4-4.6v-23c0-3.1-0.1-5.1-0.3-6c-0.2-0.7-0.4-1.1-0.8-1.5c-0.4-0.3-0.9-0.5-1.4-0.5
		c-0.8,0-1.9,0.3-3.2,1L804.6,1202.4z"/>
	<path class="st5" d="M857.3,1198.2l-2.5,5.4h-12.9l-2.8,5.7c5.5,0.8,9.9,2.9,13.2,6.2c2.8,2.9,4.2,6.2,4.2,10.1
		c0,2.2-0.5,4.3-1.4,6.2c-0.9,1.9-2.1,3.5-3.4,4.9c-1.4,1.3-2.9,2.4-4.6,3.2c-2.4,1.1-4.9,1.7-7.4,1.7c-2.6,0-4.4-0.4-5.6-1.3
		c-1.2-0.9-1.7-1.8-1.7-2.9c0-0.6,0.2-1.1,0.7-1.5c0.5-0.5,1.1-0.7,1.8-0.7c0.5,0,1,0.1,1.4,0.3c0.4,0.2,1.1,0.6,2.1,1.3
		c1.6,1.1,3.2,1.6,4.8,1.6c2.4,0,4.6-0.9,6.4-2.8c1.8-1.8,2.8-4.1,2.8-6.8c0-2.6-0.8-5-2.5-7.2s-3.9-4-6.9-5.2
		c-2.3-1-5.4-1.5-9.3-1.6l8.2-16.6L857.3,1198.2L857.3,1198.2z"/>
	<path class="st5" d="M890.9,1226.6h-16.5l-2.9,6.7c-0.7,1.6-1.1,2.9-1.1,3.7c0,0.7,0.3,1.2,0.9,1.7c0.6,0.5,2,0.8,4,0.9v1.2H862
		v-1.2c1.8-0.3,2.9-0.7,3.4-1.2c1.1-1,2.3-3.1,3.6-6.1l15-35.1h1.1l14.8,35.5c1.2,2.8,2.2,4.7,3.2,5.5s2.3,1.3,4.1,1.4v1.2h-16.8
		v-1.2c1.7-0.1,2.9-0.4,3.5-0.8c0.6-0.5,0.9-1.1,0.9-1.8c0-0.9-0.4-2.4-1.2-4.3L890.9,1226.6z M890.1,1224.3l-7.2-17.2l-7.4,17.2
		H890.1z"/>
	<path class="st5" d="M926.7,1224H943v4.8h-16.2L926.7,1224L926.7,1224z"/>
	<path class="st5" d="M969.2,1202.4l10.4-5h1v36c0,2.4,0.1,3.8,0.3,4.4s0.6,1,1.2,1.4c0.6,0.3,1.9,0.5,3.8,0.5v1.2h-16v-1.2
		c2,0,3.3-0.2,3.9-0.5s1-0.7,1.2-1.2s0.4-2,0.4-4.6v-23c0-3.1-0.1-5.1-0.3-6c-0.2-0.7-0.4-1.1-0.8-1.5c-0.4-0.3-0.9-0.5-1.4-0.5
		c-0.8,0-1.9,0.3-3.2,1L969.2,1202.4z"/>
	<path class="st5" d="M996.2,1219.8c0-4.9,0.7-9.1,2.2-12.6s3.4-6.1,5.9-7.9c1.9-1.4,3.8-2,5.8-2c3.3,0,6.2,1.7,8.8,5
		c3.3,4.1,4.9,9.7,4.9,16.8c0,4.9-0.7,9.1-2.1,12.6c-1.4,3.5-3.3,6-5.5,7.5c-2.2,1.6-4.3,2.3-6.4,2.3c-4.1,0-7.4-2.4-10.2-7.2
		C997.3,1230.4,996.2,1225.5,996.2,1219.8z M1002.3,1220.6c0,5.9,0.7,10.7,2.2,14.4c1.2,3.1,3,4.7,5.4,4.7c1.1,0,2.3-0.5,3.5-1.5
		s2.1-2.7,2.8-5.1c1-3.6,1.4-8.7,1.4-15.3c0-4.8-0.5-8.9-1.5-12.1c-0.8-2.4-1.7-4.1-2.9-5.1c-0.9-0.7-1.9-1.1-3.1-1.1
		c-1.4,0-2.7,0.6-3.8,1.9c-1.5,1.7-2.5,4.5-3.1,8.2C1002.6,1213.3,1002.3,1217,1002.3,1220.6z"/>
</g>
<text transform="matrix(1 0 0 1 1589.8656 937.6852)" style="font-family:'Vijaya'; font-size:90.0707px;">Saln Estelar</text>
<text transform="matrix(1 0 0 1 1388.4656 1045.7852)" style="font-family:'Vijaya'; font-size:90.0707px;">(Hotel Estelar La Fontana)</text>
<text transform="matrix(1 0 0 1 1640.6366 1290.769)" style="font-family:'Vijaya'; font-size:80px;">- 10:30 am -</text>
<g>
	<path class="st5" d="M486.9,1336.7l-1.3,4.2h-16.3l1.3-4.2H486.9z"/>
	<path class="st5" d="M534,1309.3l-10.1,35.2c-0.6,2.1-0.9,3.6-0.9,4.5c0,0.8,0.3,1.4,0.8,1.8c0.5,0.4,1.8,0.7,3.7,0.8l-0.3,1.2H511
		l0.4-1.2c1.7,0,2.9-0.2,3.4-0.4c0.9-0.4,1.5-0.9,2-1.5c0.7-1,1.4-2.7,2.1-5.2l7.3-25.3c0.4-1.5,0.7-2.4,0.7-2.6
		c0.1-0.4,0.1-0.8,0.1-1.2c0-0.7-0.2-1.3-0.6-1.7s-0.9-0.6-1.6-0.6c-0.5,0-1.4,0.1-2.5,0.4l-0.4-1.1l10.6-3H534z"/>
	<path class="st5" d="M562.5,1309.3c2.7,0,4.9,1.1,6.8,3.4s2.8,5.8,2.8,10.6c0,4.1-0.7,8.4-2.1,12.7s-3.3,8.1-5.8,11.2
		c-2,2.5-4,4.3-6.2,5.4c-1.3,0.6-2.7,0.9-4.4,0.9c-2.7,0-5-1.1-6.9-3.4s-2.8-5.8-2.8-10.7c0-4.8,0.9-9.6,2.8-14.5
		c2.2-5.7,4.9-9.9,8.3-12.9C557.3,1310.2,559.8,1309.3,562.5,1309.3z M562.5,1310.9c-1.2,0-2.5,0.5-3.7,1.4s-2.5,2.9-3.9,6
		s-2.6,6.9-3.8,11.7c-1.6,6.2-2.3,11.5-2.3,15.9c0,2.2,0.5,3.8,1.4,4.9s2.1,1.6,3.4,1.6c1.3,0,2.4-0.4,3.3-1.3
		c2.4-2.3,4.5-6.1,6.2-11.6c2.8-8.9,4.2-16.2,4.2-21.8c0-2.3-0.5-4.1-1.4-5.2S563.8,1310.9,562.5,1310.9z"/>
	<path class="st5" d="M580.4,1347c0.9,0,1.6,0.3,2.2,0.9c0.6,0.6,0.9,1.4,0.9,2.3c0,0.9-0.3,1.6-0.9,2.2c-0.6,0.6-1.3,0.9-2.2,0.9
		c-0.9,0-1.6-0.3-2.3-0.9s-0.9-1.3-0.9-2.2c0-0.9,0.3-1.6,0.9-2.3S579.5,1347,580.4,1347z M587.1,1324.3c0.9,0,1.6,0.3,2.3,0.9
		s0.9,1.4,0.9,2.2s-0.3,1.6-0.9,2.3s-1.4,0.9-2.3,0.9c-0.9,0-1.6-0.3-2.3-0.9s-0.9-1.4-0.9-2.3s0.3-1.6,0.9-2.2
		S586.2,1324.3,587.1,1324.3z"/>
	<path class="st5" d="M605.6,1329.4v-0.9c5.1-0.8,8.9-2.3,11.4-4.5c1.8-1.6,2.7-3.5,2.7-5.7c0-1.7-0.5-3-1.6-4.1s-2.3-1.6-3.8-1.6
		c-2.3,0-4.4,1.5-6.2,4.4l-1.2-0.4c1.1-2.4,2.5-4.3,4.2-5.5c1.7-1.2,3.6-1.9,5.6-1.9c2.5,0,4.5,0.7,6,2.2c1.5,1.5,2.3,3.3,2.3,5.6
		c0,1.9-0.7,3.8-2.1,5.6c-1.4,1.8-3.9,3.4-7.4,4.8c2.2,0.9,3.8,2.2,4.9,3.9c1.1,1.7,1.7,3.7,1.7,6.1c0,2.6-0.8,5.3-2.3,7.9
		c-1.5,2.6-3.6,4.7-6.2,6.1c-2.6,1.4-5.4,2.1-8.3,2.1c-2.6,0-4.6-0.5-6-1.4c-0.9-0.6-1.3-1.4-1.3-2.2c0-0.8,0.3-1.4,0.8-1.9
		c0.5-0.5,1.2-0.8,2-0.8c0.5,0,1.1,0.1,1.6,0.3c0.3,0.1,1.2,0.5,2.5,1.2c1.3,0.7,2.3,1.2,3.1,1.4c0.7,0.2,1.5,0.4,2.3,0.4
		c1.9,0,3.5-1.1,4.7-3.3c1.2-2.2,1.8-4.5,1.8-7c0-2-0.4-3.8-1.2-5.4c-0.8-1.6-2.1-2.9-3.9-3.8
		C609.7,1330.1,607.7,1329.6,605.6,1329.4z"/>
	<path class="st5" d="M651.2,1309.3c2.7,0,4.9,1.1,6.8,3.4s2.8,5.8,2.8,10.6c0,4.1-0.7,8.4-2.1,12.7s-3.3,8.1-5.8,11.2
		c-2,2.5-4,4.3-6.2,5.4c-1.3,0.6-2.7,0.9-4.4,0.9c-2.7,0-5-1.1-6.9-3.4s-2.8-5.8-2.8-10.7c0-4.8,0.9-9.6,2.8-14.5
		c2.2-5.7,4.9-9.9,8.3-12.9C646,1310.2,648.5,1309.3,651.2,1309.3z M651.2,1310.9c-1.2,0-2.5,0.5-3.7,1.4s-2.5,2.9-3.9,6
		s-2.6,6.9-3.8,11.7c-1.6,6.2-2.3,11.5-2.3,15.9c0,2.2,0.5,3.8,1.4,4.9s2.1,1.6,3.4,1.6c1.3,0,2.4-0.4,3.3-1.3
		c2.4-2.3,4.5-6.1,6.2-11.6c2.8-8.9,4.2-16.2,4.2-21.8c0-2.3-0.5-4.1-1.4-5.2S652.5,1310.9,651.2,1310.9z"/>
	<path class="st5" d="M709.4,1324.3l-6.1,21.3l-0.7,2.9c-0.1,0.3-0.1,0.5-0.1,0.7c0,0.3,0.1,0.6,0.3,0.9c0.2,0.2,0.4,0.3,0.6,0.3
		c0.3,0,0.6-0.2,1.1-0.5c0.8-0.6,1.9-1.8,3.3-3.8l1.1,0.7c-1.4,2.2-2.9,3.8-4.5,5c-1.5,1.1-3,1.7-4.3,1.7c-0.9,0-1.6-0.2-2-0.7
		c-0.5-0.4-0.7-1.1-0.7-2c0-1,0.2-2.4,0.7-4.1l0.7-2.4c-2.8,3.6-5.3,6.1-7.6,7.5c-1.7,1-3.3,1.5-4.9,1.5c-1.5,0-2.9-0.6-4-1.9
		c-1.1-1.3-1.7-3-1.7-5.2c0-3.3,1-6.9,3-10.6s4.5-6.7,7.6-8.9c2.4-1.8,4.7-2.7,6.8-2.7c1.3,0,2.4,0.3,3.2,1c0.8,0.7,1.5,1.8,1.9,3.4
		l1.1-3.6L709.4,1324.3z M698.2,1325.9c-1.3,0-2.7,0.6-4.3,1.9c-2.2,1.8-4.1,4.4-5.7,7.9c-1.7,3.5-2.5,6.7-2.5,9.5
		c0,1.4,0.4,2.5,1.1,3.4c0.7,0.8,1.5,1.2,2.5,1.2c2.3,0,4.7-1.7,7.4-5.1c3.6-4.5,5.4-9.1,5.4-13.8c0-1.8-0.3-3.1-1-3.9
		C700.3,1326.3,699.4,1325.9,698.2,1325.9z"/>
	<path class="st5" d="M726.2,1324.3l-4.1,14.2c1.8-3.3,3.4-5.8,4.6-7.5c2-2.6,3.9-4.5,5.8-5.7c1.1-0.7,2.3-1,3.5-1
		c1,0,1.9,0.3,2.6,1s1.1,1.5,1.1,2.6s-0.2,2.4-0.7,4l-2.2,8c3.4-6.4,6.7-10.9,9.7-13.5c1.7-1.4,3.4-2.1,5-2.1c1,0,1.8,0.3,2.4,1
		s0.9,1.7,0.9,3.1c0,1.2-0.2,2.5-0.6,3.9l-3.4,12.2c-0.8,2.7-1.1,4.2-1.1,4.5s0.1,0.5,0.3,0.7c0.1,0.2,0.3,0.2,0.5,0.2
		c0.2,0,0.6-0.2,1.1-0.6c1.2-0.9,2.3-2.2,3.4-3.7l1.1,0.7c-0.5,0.8-1.4,2-2.8,3.5s-2.5,2.5-3.4,3c-1,0.5-1.8,0.8-2.6,0.8
		c-0.8,0-1.4-0.2-1.9-0.7c-0.5-0.5-0.7-1.1-0.7-1.8c0-1,0.4-3,1.3-6.1l2.9-10.1c0.7-2.3,1-3.6,1-3.9c0.1-0.4,0.1-0.8,0.1-1.2
		c0-0.5-0.1-0.9-0.4-1.2c-0.3-0.3-0.5-0.5-0.9-0.5c-0.9,0-1.8,0.5-2.8,1.4c-2.9,2.7-5.6,6.4-8.1,11.2c-1.7,3.2-3.2,7.2-4.6,12.2
		h-4.8l5.4-19c0.6-2.1,0.9-3.4,0.9-4.1c0-0.6-0.1-1-0.3-1.3c-0.2-0.3-0.5-0.4-0.8-0.4c-0.7,0-1.4,0.2-2.2,0.7
		c-1.2,0.8-2.9,2.6-4.8,5.3c-2,2.7-3.5,5.2-4.6,7.7c-0.5,1.1-1.8,4.8-3.8,11.1h-4.6l5.8-20.4l0.7-2.6c0.2-0.4,0.2-0.7,0.2-0.9
		c0-0.5-0.2-0.9-0.6-1.2c-0.4-0.4-1-0.5-1.6-0.5c-0.3,0-1,0.1-2.3,0.4l-0.3-1.2L726.2,1324.3z"/>
	<path class="st5" d="M796.1,1336.7l-1.3,4.2h-16.3l1.3-4.2H796.1z"/>
</g>
<text transform="matrix(1 0 0 1 1398.1475 1180.8625)" style="font-family:'Aparajita'; font-size:80px;">Avenida Calle 127 # 15A - 10</text>
</svg>
