<?xml version="1.0" encoding="utf-8"?>
<!-- Generator: Adobe Illustrator 25.4.1, SVG Export Plug-In . SVG Version: 6.00 Build 0)  -->
<svg version="1.1" id="Capa_1" xmlns="http://www.w3.org/2000/svg" xmlns:xlink="http://www.w3.org/1999/xlink" x="0px" y="0px"
	 viewBox="0 0 1242 2208" style="enable-background:new 0 0 1242 2208;" xml:space="preserve">
<style type="text/css">
	.st0{fill:#49707F;}
	.st1{fill:none;}
	.st2{fill:#808080;}
	.st3{fill:#4D4D4D;}
</style>
<g id="fondo">
</g>
<g id="Capa_2_00000066499612342883336880000000839420589308407978_">
</g>
<g>
	<path class="st0" d="M392.3,1527.5c3.1-17.6,21.8-26.2,37-28.1c1.4-0.2,2.9-0.3,4.5-0.3c8.7-10.5,20.2-14.1,25.4-14.9
		c13.4-2.1,20.5,5.6,13.2,10.9c-5.3,3.7-21.6,4.1-34.1,4.8c-6.9,8.6-9.7,17.5-8.6,23.4c1.6,7.9,6.9,10.1,20,4.8
		c10.1-4,19.7-18.3,23-24.1c0.5-1,0.8-1.6,0.8-1.6c1.5-0.9,2.7,0.3,2.3,5.2c0,0-7.9,21.4-16.3,39.1c4.4,0.7,8.7,1.5,15.6,2.1
		c13.7,1.1,20.8-1,29-4.1c-8,3.7-16.6,7.6-43.4,3c-0.5-0.1-1-0.2-1.6-0.3c-3.6,7.6-7.3,14.3-10.5,18.4c-7.4,9.3-16.6,11.6-23.5,11
		c-11.8-0.9-12.1-11.5-8.7-17.2c5-8.7,18.2-13.5,30.2-13.9c3.3-0.1,6.2,0,8.7,0.3c1.3-2.9,2.3-5.8,3.6-8.9c4.2-11,8-19.6,10.5-25.3
		c-4.8,7.4-12.7,15.5-22.3,18.7c-22.5,7.4-24.5-12.7-17.2-25.5c0.9-1.6,1.9-3.1,3.1-4.6C411.3,1502,397.5,1511.7,392.3,1527.5z
		 M424.1,1553.4c-11.6,7.4-10.8,21.2,0.5,22.3c14.5,1.4,22.7-11.1,30.2-28.9C440.9,1545.6,431.4,1548.8,424.1,1553.4z M442.6,1495.1
		c-1.3,1.1-2.3,2.4-3.4,3.7c10.7-0.7,23.6-1.1,28.5-2.7c11.3-3.6,5.2-10.5-1.6-10.8C456.6,1484.8,448.6,1489.3,442.6,1495.1z"/>
	<path class="st0" d="M484.2,1516.3c3.7-0.1,6.8,2.2,6.8,8.1c0,1.7-0.3,4.2-1,6.5c1.1-0.5,2.4-1.3,3.7-2.3c4.9-4,6.2-8.1,8.7-7.8
		c-2.7,2.1-5,7-9.9,9.9c-0.9,0.6-1.9,0.9-3,1.4c-1.8,5.5-5.4,11.2-9.5,11c-5.8-0.2-6.3-7.9-3.6-13.3c0.3-0.7,0.7-1.4,0.9-1.9
		C474.1,1521.5,479.6,1516.4,484.2,1516.3z M480.3,1531c-0.9,1.5-1.5,3-1.9,4.5c-1,4.1,0.9,8.6,4.6,5.4c1.7-1.6,3.7-4.8,5.2-8.6
		C485.5,1532.9,482.6,1532.6,480.3,1531z M482.9,1521c2.3-0.3,2.5,1.8,2.3,3.1c0,0.1-2.4,2.6-4.4,6.1c1.9,1.5,4.7,2.1,7.7,1.4
		c1.7-4.9,2.3-10.5-0.7-12.8c-3.9-3.3-8.7,0.5-9.4,3.3c-0.3,1.6-0.3,3.1,0,4.5C480.5,1522.9,482.3,1521,482.9,1521z"/>
	<path class="st0" d="M502.4,1516.3c3.7-0.1,6.8,2.2,6.8,8.1c0,1.7-0.3,4.2-1,6.5c1.1-0.5,2.4-1.3,3.7-2.3c4.9-4,6.2-8.1,8.7-7.8
		c-2.7,2.1-5,7-9.9,9.9c-0.9,0.6-1.9,0.9-3,1.4c-1.8,5.5-5.4,11.2-9.5,11c-5.8-0.2-6.3-7.9-3.6-13.3c0.3-0.7,0.7-1.4,0.9-1.9
		C492.3,1521.5,497.8,1516.4,502.4,1516.3z M498.5,1531c-0.9,1.5-1.5,3-1.9,4.5c-1,4.1,0.9,8.6,4.6,5.4c1.7-1.6,3.7-4.8,5.2-8.6
		C503.6,1532.9,500.7,1532.6,498.5,1531z M501.2,1521c2.3-0.3,2.5,1.8,2.3,3.1c0,0.1-2.4,2.6-4.4,6.1c1.9,1.5,4.7,2.1,7.7,1.4
		c1.7-4.9,2.3-10.5-0.7-12.8c-3.9-3.3-8.7,0.5-9.4,3.3c-0.3,1.6-0.3,3.1,0,4.5C498.7,1522.9,500.5,1521,501.2,1521z"/>
	<path class="st0" d="M521.8,1535.9c3.2-0.9,5.8-0.8,7.8,0.2c8-5,12.6-8.6,16.3-15.2c-0.8,5.4-7.2,10.7-15.2,15.8
		c3.6,2.4,4.4,7.8,3.6,12c-1.6,7.9-6.3,14.5-14.9,20c-6.5,4.1-15.2,5-18.7,2.7c-8.7-6.1,3.7-19.5,13.1-25.4
		c5.7-3.7,10.5-6.8,14.4-9.2c-1.5-0.6-3.2-0.8-5.6-0.3c-3.9,0.9-6.6,2.1-6.6,2.1S518.2,1536.8,521.8,1535.9z M514.3,1547
		c-20,13.3-19.7,29.6-3.3,22.1c18.6-8.7,21.1-21.6,20.3-27.3c-0.3-1.5-0.9-3.1-2.3-4.1C524.4,1540.7,519.3,1543.7,514.3,1547z
		 M529.8,1519.7c0.3,0.3,0.9,0.7,1.1,1.4c1.5,4.2-3.6,10.8-9.5,14c-5.4,3-9,1.7-9.9-2.9c-1.4-7.4,7.4-13.3,11.3-14.3
		c1.7-0.5,3.1-0.6,4.2-0.6C529.8,1517.7,530.5,1519.1,529.8,1519.7z M518.3,1525.1c-4.2,4.6-5.3,10.2-1.8,10c3.6-0.3,7.3-2.9,10.7-7
		c2.6-3.3,2.5-6.8,1.7-8.1C527.4,1520,522.7,1520.9,518.3,1525.1z"/>
	<path class="st0" d="M540.9,1544.3c-0.3,2.4,0.1,4.2,2.3,1.3c6.5-9.2,14.4-21.6,21.2-24.5c-4.6,4.2-10.5,11-15.2,18
		c-6.5,9.6-7.4,10.2-9.3,9.3c-3.4-1.7-1.7-11.7,0.3-18.4c2.5-8.1,9.2-24.3,16.5-35.1c3.6-5.2,6.8-9.3,10-11.3
		c2.5-1.7,5.6-2.4,7.4,0.1c3.7,5.5-17,29.1-23.1,34.7c-1.1,1-1.9,1.8-2.6,2.3C542.7,1532.8,541.4,1539.8,540.9,1544.3z
		 M551.7,1512.5c-0.9,2.1-1.9,4.1-2.7,6c3.2-3.3,9.3-9.7,12.7-14.2c8.1-10.3,10.5-15.5,11.1-17.8c1.5-5.8-4.5,0.3-6.2,2.1
		C563.9,1491.7,558.5,1498.4,551.7,1512.5z"/>
	<path class="st0" d="M560.3,1529.4c-1.4,6.5,2.2,8.9,5.8,7.4c6.2-2.4,12-15.9,16.4-15.8c-4.2,3.9-4.6,5.2-7.6,8.9
		c-3.8,4.8-7.9,9.3-12.6,8.7c-6.3-0.7-7-8.6-5.4-12.1c1.6-3.8,4.9-8.1,10.3-8.6c4.2-0.3,6.1,3.8,1.8,7.4c-2.5,2.1-6.2,3.1-8.7,3.6
		C560.4,1528.8,560.3,1529.1,560.3,1529.4z M563.8,1526.8c6.8-2.3,8-7.4,4.4-6.5c0,0-5.5,0.7-7.6,7.4
		C561.5,1527.5,562.7,1527.3,563.8,1526.8z"/>
	<path class="st0" d="M614.8,1524.6c0.1,1.7-1.9,5.7-2.3,6.5c0.3,0,0.9-1.1,2.7-3.4c2.3-2.9,4.8-4.8,6.6-4.6
		c2.6,0.9,2.9,3.1,1.7,5.6c-1,2.5-2.3,7.4,0.3,4.2c1.9-2.4,10.5-13.6,14-15.2c2.9-1.4,6.2,0.8,4.2,6.2c-0.6,2.1-2.5,5.5-5.7,10.5
		c-4.8,7.2-4.8,14.4,0.3,10.2c8.1-6.5,11.5-23.9,19.1-23.6c-6.3,2.9-8.7,11-11.5,15.6c-5.2,8.9-9.5,11.8-12.6,9.6
		c-3.1-2.2-3.9-6-0.2-12c5.2-8.4,9.4-18.4,5.5-15.2c-5.4,4.6-11.6,13.5-13.3,15.2c-1.5,1.5-3,1.5-4.1,0.3c-0.9-0.9-1.5-3.1,0.6-8.1
		c1.8-4.5-0.6-2.3-2.5-0.6c-3.6,3.2-8.2,12.5-9.4,14.2c-1.8,2.9-4.4-0.8-3.3-3.7c0.2-0.5,6.2-13.6,5.4-15.1
		C611.7,1520.5,614.7,1520.4,614.8,1524.6z"/>
	<path class="st0" d="M665.8,1540.7c4.8-7,10.7-19,14.7-19.9c-4.2,4.8-5.3,7-7.7,10.8c-4.6,7.4-7.1,12.5-9.9,12
		c-3-0.5-5.7-4.4-2.6-12.8c0.1-0.3,0.3-0.7,0.3-0.9c-3.4,4.2-6.8,8.1-10,4.6c-3.2-3.7-0.1-10.3,2.9-13.1c2.2-2.1,6.3-3.7,10.7-2.6
		c4.8,1.3,1.1,1.3,1.1,1.3s-6.2-1.4-10.7,5.7c-3.2,5.3-1.5,10.1,1.1,7.6c1.5-1.4,4.5-5.3,7-8.4c1.3-2.1,2.5-4.4,3.8-4.4
		c1.3-0.1,4.2,0.3,1.6,3.8C660.7,1534.2,660.6,1548.1,665.8,1540.7z"/>
	<path class="st0" d="M645.9,1573.6c-0.8-11,19.5-29.1,22.8-32.1c1.3-1.1,2.3-2.1,3.1-2.5c1.5-4.8,2.4-8.4,2.9-9.4
		c2.6-7.8,4.2-8.8,5.4-8.5c1.5,0.7,1.4,2.3,0.5,4.8c2.6-3.2,6.2-6.5,10.9-6.5c5.7-0.2,7.4,5.4,5.5,11.9c4.4-1.5,8.7-4,12.6-10.1
		c-2.1,6.6-7.3,9.2-12.9,11c-0.7,1.9-1.7,4.1-3.1,6.1c-6.2,8.7-14,7.6-14.9,4.8c-0.8-2.4,0.8-4.6,3.3-6.3c3.6-2.3,7.3-3.1,11-4.2
		c1.9-5.2,2.4-11.3-1.3-11.7c-4.8-0.5-9,3.8-12,7.8c-1.4,3.4-3.3,8-4.8,13.3c-2.9,9.9-7,21.6-12,29.4
		C656,1581.5,646.5,1581.3,645.9,1573.6z M666.3,1545.5c-7,6.5-11.7,11.9-15.8,18.9c-4.5,7.6-3.7,13.9,0.3,13.4
		c8.7-0.8,16.4-23.3,20.6-37.3C670.3,1541.5,668.7,1543.1,666.3,1545.5z M682.6,1537.2c-3,1.9-3.7,4.4-3,5.5
		c1.7,2.9,7.1-0.6,10.7-5.7c0.8-0.9,1.5-2.2,1.9-3.6C689,1534.5,685.6,1535.4,682.6,1537.2z"/>
	<path class="st0" d="M711.2,1521.7c-0.3,1.1-0.3,2.9,0.8,4.8c1.5,2.5,3.1,4.8,3.7,6.8c8.4-4.1,10.4-6.5,14.5-12
		c-1.8,5.6-7.7,9.9-14.4,12.9c1.3,3.9,1,7.1-1.5,11c-4.2,6.8-13.3,8.9-16.3,5.4c-4-4.9,2.3-10.5,11.6-14.5c1.4-0.6,2.4-1.1,3.6-1.6
		c-0.3-1.6-0.9-3.1-1.9-4.8c-4-6.3-3.3-7-3.2-8.5c0.2-2.6,3.3-5.4,3.3-5.4c1.8-1.4,2.3,1.4,1.9,2.9
		C712.5,1519.2,711.6,1520.4,711.2,1521.7z M712.4,1535.3c-7.8,3.3-14.5,7.8-14,12c0.3,2.9,2.9,3.8,6.1,2.1c3.1-1.7,10-7.3,9.3-14.5
		C713.2,1535.2,712.7,1535.2,712.4,1535.3z"/>
	<path class="st0" d="M755.1,1544.3c-0.3,2.4,0.1,4.2,2.3,1.3c6.5-9.2,14.4-21.6,21.2-24.5c-4.6,4.2-10.5,11-15.2,18
		c-6.5,9.6-7.4,10.2-9.3,9.3c-3.4-1.7-1.7-11.7,0.3-18.4c2.5-8.1,9.2-24.3,16.5-35.1c3.6-5.2,6.8-9.3,10-11.3
		c2.5-1.7,5.6-2.4,7.4,0.1c3.7,5.5-17,29.1-23.1,34.7c-1.1,1-1.9,1.8-2.6,2.3C757.2,1532.8,755.7,1539.8,755.1,1544.3z
		 M766.1,1512.5c-0.9,2.1-1.9,4.1-2.7,6c3.2-3.3,9.3-9.7,12.7-14.2c8.1-10.3,10.5-15.5,11.1-17.8c1.5-5.8-4.5,0.3-6.2,2.1
		C778.2,1491.7,773,1498.4,766.1,1512.5z"/>
	<path class="st0" d="M784.2,1530.7c-3.8,5-6.9,8.2-10.1,7.3c-5.2-1.6-0.8-14.5,2.9-17.1c1.6-0.8,2.5,0.1,2.3,1.4
		c-0.3,2.1-2.5,5.2-3.6,8.8c-0.7,2.7-1.5,6,0.6,5.6c2.5-0.3,7.4-7.6,10.7-11.7c2.7-3.4,3.6-4.4,5.4-4.4
		C789.7,1522.3,787.6,1526.2,784.2,1530.7z M780.1,1517.6c-0.9-0.3-1-0.9-0.3-2.3c0.8-1.6,0.3-1.9,1.6-2.6c0.9-0.5,3.9-0.2,2.9,1.9
		C783.3,1516.6,781.2,1517.8,780.1,1517.6z"/>
	<path class="st0" d="M795.1,1523.6c0.1,2.7-0.8,4.1-2.3,7.3c3.6-4.9,11.6-13.1,17.2-14.5c3.1-0.8,4.6,2.1,4.2,4.2
		c-0.3,3.2-9.7,15.9-10.9,20.6c-1.6,7,2.6,4.7,4,3.7c4-3,11.6-16.5,14.9-20.5c4.2-4.8,5.7-3.2,5.7-3.2c-6.6,1.6-14.5,22.9-22,25.8
		c-2.2,0.9-5.5,0.3-6.5-3.1c-1.9-7,10.8-23.3,11.2-25.7c0.3-2.7-7.7,2.2-13.3,8.7c-3.8,4.4-5.8,7.8-7.6,10.4
		c-0.3,0.6-2.3,0.6-3.1-0.8c-0.3-0.6-1.4-1.9,1.7-8.2c3.4-7,1.9-6.8,1.9-6.8C791.3,1520.3,795.1,1521,795.1,1523.6z"/>
	<path class="st0" d="M858.4,1485.6c-0.8,10-22.3,30.4-29.4,36c-1.7,3.1-1.9,4.8-3.2,8.2c1.3-2.3,8.9-11.7,15.1-10.5
		c5.7,1.1,3.6,7.6-0.9,10.1c-3.1,1.7-8.8,3.8-9,4.5c6.3,2.7,1.5,10.3,4.2,13.3c4.8,3.1,12.6-21,22.3-26.2c-1,0.9-1.9,2.5-3.4,4.2
		c-7,7.8-10.5,17.5-14.5,21.6c-1.9,1.9-4.2,1.7-5.3,1c-6.5-3.7-0.5-12.4-4.8-13.3c-0.9-0.2-1.7-1.7-0.7-2.9c1.6-1.7,7.2-3.3,11-6.2
		c6.3-4.5,1.4-7.6-4.8-3.2c-7.9,5.5-9.3,10.5-11.9,18.4c-3.6,0-3.4-3-2.9-6.2c0.2-0.8,8.1-25,15.8-36.4c7.4-12,14.1-15.5,15.6-16
		C855.6,1480.8,858.7,1482.7,858.4,1485.6z M852.9,1485.1c-10.1,6.5-19.1,23.8-23.5,34.5c10.8-8.9,26.6-26.9,27.5-32.9
		C857.5,1484.1,855.5,1483.5,852.9,1485.1z"/>
</g>
<g>
	<g>
		<g>
			<path class="st0" d="M595.6,1822.8v0.7c-1.8-0.9-3.3-2-4.5-3.2c-1.7-1.7-3.1-3.8-4-6.2c-0.9-2.4-1.4-4.8-1.4-7.4
				c0-3.7,0.9-7.1,2.8-10.1c1.8-3.1,4.2-5.3,7.2-6.6v0.8c-1.5,0.8-2.7,1.9-3.6,3.4c-0.9,1.4-1.7,3.2-2.1,5.4
				c-0.5,2.2-0.7,4.4-0.7,6.8c0,2.6,0.2,4.9,0.6,7c0.3,1.7,0.7,3,1.1,4c0.4,1,1,2,1.8,2.9C593.4,1821.1,594.4,1822,595.6,1822.8z"/>
			<path class="st0" d="M612,1809.4c-0.4,2.2-1.3,3.9-2.6,5c-1.3,1.2-2.7,1.8-4.3,1.8c-1.9,0-3.5-0.8-4.9-2.4s-2.1-3.7-2.1-6.4
				c0-2.6,0.8-4.7,2.3-6.3c1.5-1.6,3.4-2.4,5.6-2.4c1.6,0,3,0.4,4,1.3s1.6,1.8,1.6,2.7c0,0.5-0.1,0.8-0.4,1.1
				c-0.3,0.3-0.7,0.4-1.2,0.4c-0.7,0-1.2-0.2-1.6-0.7c-0.2-0.3-0.3-0.7-0.4-1.4s-0.3-1.3-0.7-1.6c-0.4-0.4-1-0.5-1.7-0.5
				c-1.2,0-2.2,0.4-2.9,1.3c-1,1.2-1.5,2.7-1.5,4.7s0.5,3.7,1.4,5.2c1,1.5,2.3,2.3,3.9,2.3c1.2,0,2.2-0.4,3.2-1.2
				c0.7-0.6,1.3-1.6,1.9-3L612,1809.4z"/>
			<path class="st0" d="M620.5,1790.2v21.8c0,1,0.1,1.7,0.2,2.1c0.1,0.4,0.4,0.6,0.7,0.8s0.9,0.3,1.7,0.3v0.6H615v-0.6
				c0.8,0,1.3-0.1,1.6-0.2c0.3-0.2,0.5-0.4,0.6-0.8s0.2-1.1,0.2-2.1v-14.9c0-1.9,0-3-0.1-3.4s-0.2-0.7-0.4-0.9
				c-0.2-0.2-0.4-0.2-0.7-0.2s-0.7,0.1-1.2,0.3l-0.3-0.6l4.9-2h0.9V1790.2L620.5,1790.2z"/>
			<path class="st0" d="M631.1,1798.7v13.2c0,1,0.1,1.7,0.2,2.1c0.1,0.3,0.4,0.6,0.7,0.8s0.8,0.3,1.6,0.3v0.6h-8v-0.6
				c0.8,0,1.3-0.1,1.6-0.2c0.3-0.2,0.5-0.4,0.6-0.8c0.2-0.4,0.2-1.1,0.2-2.1v-6.4c0-1.8-0.1-2.9-0.2-3.5c-0.1-0.4-0.2-0.7-0.4-0.8
				c-0.2-0.1-0.4-0.2-0.7-0.2s-0.7,0.1-1.2,0.3l-0.3-0.6l5-2h0.9L631.1,1798.7L631.1,1798.7z M629.6,1790.2c0.5,0,0.9,0.2,1.3,0.5
				c0.4,0.4,0.5,0.8,0.5,1.3s-0.2,0.9-0.5,1.3c-0.4,0.4-0.8,0.5-1.3,0.5s-0.9-0.2-1.3-0.5c-0.4-0.4-0.5-0.8-0.5-1.3s0.2-0.9,0.5-1.3
				C628.6,1790.4,629.1,1790.2,629.6,1790.2z"/>
			<path class="st0" d="M650,1809.4c-0.4,2.2-1.3,3.9-2.6,5c-1.3,1.2-2.7,1.8-4.3,1.8c-1.9,0-3.5-0.8-4.9-2.4s-2.1-3.7-2.1-6.4
				c0-2.6,0.8-4.7,2.3-6.3c1.5-1.6,3.4-2.4,5.6-2.4c1.6,0,3,0.4,4,1.3s1.6,1.8,1.6,2.7c0,0.5-0.1,0.8-0.4,1.1
				c-0.3,0.3-0.7,0.4-1.2,0.4c-0.7,0-1.2-0.2-1.6-0.7c-0.2-0.3-0.3-0.7-0.4-1.4c-0.1-0.7-0.3-1.3-0.7-1.6c-0.4-0.4-1-0.5-1.7-0.5
				c-1.2,0-2.2,0.4-2.9,1.3c-1,1.2-1.5,2.7-1.5,4.7s0.5,3.7,1.4,5.2c1,1.5,2.3,2.3,3.9,2.3c1.2,0,2.2-0.4,3.2-1.2
				c0.7-0.6,1.3-1.6,1.9-3L650,1809.4z"/>
			<path class="st0" d="M653.3,1790.9v-0.8c1.8,0.9,3.3,2,4.6,3.2c1.7,1.7,3,3.8,4,6.2c0.9,2.4,1.4,4.8,1.4,7.4
				c0,3.7-0.9,7.1-2.7,10.1c-1.8,3.1-4.2,5.3-7.2,6.6v-0.7c1.5-0.8,2.7-2,3.6-3.4c1-1.4,1.7-3.2,2.1-5.4c0.5-2.2,0.7-4.5,0.7-6.8
				c0-2.6-0.2-4.9-0.6-7c-0.3-1.7-0.7-3-1.1-4c-0.4-1-1-2-1.8-2.9C655.5,1792.6,654.6,1791.8,653.3,1790.9z"/>
		</g>
	</g>
	<a xlink:href="https://goo.gl/maps/nWVgdsXkV1RojiYa8"  pointer-events="all" target="_blank">
		<rect x="542.4" y="1627.1" class="st1" width="166" height="206.2"/>
		<path class="st0" d="M695,1661.4c-10.4-23.6-41.9-29.6-60.2-11.4c-0.8,0.7-1.5,1-2.5,1c-18.3,0-36.6,0-54.9,0
			c-10,0-17.6,7.7-17.6,17.6c0,30.7,0,61.2,0,91.8c0,1.2,0.1,2.5,0.4,3.7c2,8.6,8.8,13.9,17.5,13.9c15.2,0,30.4,0,45.6,0
			c15.2,0,30.4,0,45.6,0c2,0,4.1-0.3,6-0.9c7.5-2.5,12-9,12-16.8c0-17.6,0-35.2,0-52.8c0-0.8,0.3-1.6,0.7-2.3
			c1.8-2.9,3.7-5.7,5.4-8.7C699.3,1685.2,700.4,1673.4,695,1661.4z M637.4,1706.3c8.6,11.7,16,24.3,19.4,38.9
			c-9.9-9.9-19.6-19.6-29.2-29.2C630.8,1712.9,634.1,1709.6,637.4,1706.3z M568.9,1765.3c-0.3,0.3-0.6,0.6-1.2,1.1
			c-0.1-0.6-0.1-0.9-0.1-1.4c0-33.1,0-66.3,0-99.5c0-4.1,2.6-6.8,6.6-6.8c18,0,36.2,0,54.2,0c0.3,0,0.5,0,0.7,0
			c-0.8,3.3-1.8,6.3-2.3,9.5c-1.7,9.9,0.4,19.2,5.1,27.9c0.4,0.8,0.7,1.7,1.4,2.3c1.1,1.3,0.6,2.1-0.4,3.2
			C611.4,1722.8,590.2,1744.1,568.9,1765.3z M573.4,1771.1c16.3-16.3,32.9-32.9,49.4-49.3c16.1,16.1,32.7,32.7,49.3,49.3
			C639,1771.1,606,1771.1,573.4,1771.1z M679.3,1762.3c0,1.3-0.4,2.7-0.8,4c-6.7-6.7-13.3-13.3-19.8-19.8c0.7-0.1,1.4-0.1,2.2-0.2
			c5.1-0.9,7.6-4.2,8.6-8.9c1.9-8,4.7-15.6,8.5-23c0.2-0.5,0.5-1.1,1-1.9c0.1,0.7,0.2,1,0.2,1.3
			C679.4,1729.9,679.4,1746.1,679.3,1762.3z M685.5,1688.4c-2.5,4.6-5.4,8.9-8.3,13.1c-6.3,9.2-11.7,18.8-15.8,29.2
			c-0.1,0.3-0.3,0.6-0.5,1c-1.4-3.1-2.6-6-3.9-8.9c-4.3-9.3-9.9-17.6-15.6-26c-3.1-4.5-5.9-9.2-7.5-14.4
			c-4.7-15.6,5.8-32.6,21.9-35.4c14.9-2.6,28.6,6.1,32.4,20.7C690.1,1675,689.1,1682,685.5,1688.4z"/>
		<path class="st0" d="M606.6,1673.2c-1.4,1.4-2.7,2.7-4.1,4c-6.1-4-10.7-4.3-15.1-0.8c-4,3.1-5.5,8.3-3.8,13
			c1.6,4.6,6.2,7.7,11,7.6c4-0.1,8.6-2.7,9.5-5.8c-3.2,0-6.3,0-9.6,0c0-2,0-3.8,0-5.8c5.7,0,11.3,0,17,0c1.5,4.8-3.9,13.1-10.1,15.8
			c-8.2,3.6-17.7,0.3-22.1-7.5c-4.4-7.8-2.1-17.5,5.3-22.7C592.1,1666.2,601.7,1668.1,606.6,1673.2z"/>
		<path class="st0" d="M652.3,1676.8c0-4.8,3.9-8.7,8.8-8.6c4.8,0,8.6,3.9,8.6,8.7c0,4.8-3.9,8.7-8.8,8.7S652.2,1681.7,652.3,1676.8
			z"/>
	</a>
</g>
<g>
	<g>
		<g>
			<g>
				<g>
					<path class="st0" d="M634.8,443.2c9.7,10.9,19.3,22,28.7,33.2c9.8,11.6,19.4,23.5,28.6,35.6c5.7,7.5,11.3,15,17,22.6
						c0.2,0.3,0.7,0.5,1,0.1c1.5-1.7,3.1-3.6,4.6-5.3c0.2-0.2,0.3-0.5,0.1-0.8c-10.1-13.9-20.6-27.6-31.5-41
						c-10.2-12.7-20.7-25.2-31.4-37.5c-5.1-5.9-10.2-11.8-15.4-17.7c-0.6-0.7-1.2-1.4-1.9-2.1c-0.4-0.4-0.8-0.8-1.4-0.7
						c-0.7,0.1-1.2,0.9-1.7,1.3c-0.8,0.8-1.6,1.6-2.6,2.3c-3.1,3-6.1,5.9-9.2,8.9c-12.1,11.9-23.8,24.4-35.2,37
						c-11.3,12.5-22.4,25-33.5,37.6c-1.3,1.5-2.8,3.1-4.1,4.6c-0.2,0.3-0.2,0.6,0,0.9c1.1,1.2,2.1,2.8,3.5,3.7
						c1.2,0.9,2.8,0.5,3.7-0.6c1.5-1.6,3.1-3.5,4.6-5.2c5.8-6.6,11.8-13.3,17.6-19.9c11.5-13.1,23.3-25.9,35.6-38.4
						c3.6-3.7,7.1-7.3,10.8-10.8c1.8-1.8,3.7-3.6,5.6-5.4C630,444.1,632.6,440.8,634.8,443.2c0.6,0.6,1.5-0.3,0.9-0.9
						c-1-1-2.5-1.5-3.8-1.1c-1.8,0.5-3.2,2.3-4.5,3.7c-3.4,3.3-6.6,6.4-10,9.7c-6.3,6.2-12.5,12.7-18.5,19.1
						c-11.9,12.7-23.5,25.7-35,38.8c-3.4,3.8-6.7,7.7-10.1,11.4c-0.8,0.9-1.6,1.7-2.9,0.7c-0.3-0.3-0.6-0.6-0.9-1
						c-0.7-0.7-1.4-1.5-2.1-2.2c0,0.3,0,0.6,0,0.9c10.8-12.3,21.7-24.6,32.6-36.8c11.1-12.3,22.4-24.4,34-36.3
						c5.9-6,11.9-11.9,18.1-17.7c0.5-0.4,0.8-0.7,1.3-0.3c0.4,0.2,0.7,0.8,1,1.1c0.6,0.7,1.2,1.4,1.9,2.1c1.2,1.4,2.6,2.9,3.8,4.3
						c2.6,2.9,5,5.7,7.5,8.6c10.3,11.9,20.6,24,30.5,36.3c10.6,13.1,21,26.5,31.1,40c1.3,1.7,2.7,3.6,3.9,5.3c0-0.3,0.1-0.5,0.1-0.8
						c-1.5,1.7-3.1,3.6-4.6,5.3c0.3,0,0.7,0.1,1,0.1c-9.6-13.1-19.4-25.9-29.5-38.6c-9.3-11.5-18.8-22.9-28.4-34
						c-5.5-6.3-11-12.7-16.6-18.9C635.2,441.7,634.3,442.6,634.8,443.2z"/>
				</g>
			</g>
			<g>
				<g>
					<path class="st0" d="M651.7,644.6c4.8-0.2,9.5-0.4,14.3-0.6c1.4-0.1,3.2,0,4.5-0.6c1.5-0.7,2-2.5,2.5-3.9
						c2.2-9.4,4.4-18.9,6.3-28.4c4.2-20.1,8-40.5,11.4-60.7c1.9-11,3.8-22.1,5.7-33.2c0.1-0.8-1.1-1.1-1.2-0.3
						c-3.4,19.3-6.6,38.6-10.1,57.9c-3.6,19.4-7.4,38.7-11.9,57.9c-0.5,2.3-1,4.7-1.6,7c-0.3,1-0.7,2.1-1.8,2.6
						c-0.8,0.3-1.8,0.3-2.8,0.4c-5,0.4-10.1,0.5-15.2,0.7C650.9,643.3,650.9,644.6,651.7,644.6L651.7,644.6z"/>
				</g>
			</g>
			<g>
				<g>
					<path class="st0" d="M569.9,506.9c2.3,21.7,4.6,43.3,7,65c2.5,21.1,5.1,42.2,8.5,63.2c0.2,1.5,0.5,3.1,0.7,4.6
						c0.2,1.3,0.3,2.8,0.8,4c0.7,2,2.5,3.1,4.6,3.5c2.6,0.4,5.3,0,7.9-0.1c3.2-0.1,6.3-0.3,9.5-0.4c0.8,0,0.8-1.3,0-1.2
						c-5.2,0.2-10.4,0.7-15.6,0.6c-2.6-0.1-4.7-0.8-5.4-3.5c-0.6-2.5-0.9-5-1.3-7.6c-1.6-10.2-3.2-20.5-4.6-30.8
						c-2.8-20.3-4.9-40.9-7.1-61.3c-1.2-11.9-2.6-23.9-3.9-35.9C571.3,506,569.8,506,569.9,506.9L569.9,506.9z"/>
				</g>
			</g>
			<g>
				<g>
					<path class="st0" d="M614.2,634.4c-1.1-12.2-3-24.4-2.9-36.7c0.1-6.3,0.5-12.8,1.8-18.9c0.9-4.1,2.2-8.1,4.5-11.5
						c4.3-6.6,12.6-10.1,20.2-7.8c5.5,1.6,8.8,6.9,10.7,12.1c2.1,5.7,2.9,11.9,3.2,17.9c0.8,14.9-1.6,29.7-4,44.3
						c-0.1,0.8,1.1,1.1,1.2,0.3c2.2-13.8,4.5-27.7,4.1-41.6c-0.2-6.2-0.7-12.6-2.5-18.6c-1.5-5.2-4.1-10.9-8.8-14
						c-7.1-4.7-17.6-2.3-23.2,3.8c-6.3,6.9-7.9,17.5-8.5,26.5c-0.5,7.4-0.4,14.7,0.3,22c0.6,7.5,1.5,14.8,2.2,22.3
						C612.8,635.2,614.2,635.2,614.2,634.4L614.2,634.4z"/>
				</g>
			</g>
			<g>
				<g>
					<path class="st0" d="M630.5,558.4c-0.1,19.6-0.1,39.3-0.2,58.9c0,5.6,0,11.1,0,16.8c0,0.8,1.2,0.8,1.2,0
						c0.1-19.7,0.1-39.3,0.2-59c0-5.5,0-11.1,0-16.7C631.6,557.5,630.5,557.5,630.5,558.4L630.5,558.4z"/>
				</g>
			</g>
			<g>
				<g>
					<path class="st0" d="M608.7,635.6c0.2,4.1,0.4,8.7,2,12.5c0.3,0.8,0.8,1.4,1.6,1.4c0.5,0,1,0,1.5,0c3.9,0,7.9,0,11.8,0.1
						c4.8,0,9.6,0,14.4,0c2.9,0,5.8,0.2,8.7-0.1c1.3-0.2,1.7-1.7,2-2.9c1.1-3.6,1.1-7.6,0.8-11.3c0-0.4-0.3-0.6-0.6-0.6
						c-13.9-0.7-27.8,0.5-41.7,0.3c-0.8,0-0.8,1.2,0,1.2c13.9,0.2,27.8-1,41.7-0.3c-0.2-0.2-0.4-0.4-0.6-0.6c0.3,3.4,0.3,6.7-0.5,10
						c-0.2,0.9-0.5,1.7-0.9,2.6c0,0.1-0.3,0.4-0.2,0.3c0,0,0.1,0,0,0c-2.6,0.3-5.2,0.1-7.7,0.1c-8.4,0-16.9,0-25.2-0.1
						c-0.7,0-1.4,0-2.1,0c-0.4,0-1.1,0.1-1.4,0c-0.3-0.2-0.7-1.6-0.8-2.1c-0.3-1-0.5-2.1-0.7-3.2c-0.4-2.5-0.6-4.9-0.7-7.4
						C610.1,634.8,608.6,634.8,608.7,635.6L608.7,635.6z"/>
				</g>
			</g>
			<g>
				<g>
					<path class="st0" d="M627.5,484.3c-4.4,0.9-7.7,3.3-10.8,6.3c-3,2.9-5.2,6.3-6.2,10.3c-2.1,8.7,0.3,18.7,7.4,24.5
						c7.5,6.2,18.6,5.8,26,0c7.8-6.1,10.6-16.7,7.9-26c-1.5-5.2-4.6-10.3-9.4-13.2C637.8,483.5,632.7,483.3,627.5,484.3
						c-0.8,0.2-0.5,1.4,0.3,1.2c4.4-0.9,8.9-0.8,12.9,1.2c4.2,2.1,7.1,6,8.9,10.3c3.5,8.6,2.1,18.6-4.4,25.3
						c-6.3,6.5-16.9,8.4-24.7,3.4c-7.3-4.6-10.2-13.6-9.3-21.9c0.5-4.4,2.3-8.3,5.3-11.4c3.2-3.4,6.6-6,11.2-7
						C628.6,485.3,628.3,484.1,627.5,484.3z"/>
				</g>
			</g>
			<g>
				<g>
					<path class="st0" d="M630,484.9c0.1,5,0.2,10,0.2,15c0.1,8,0.2,15.9,0.4,23.8c0,1.8,0.1,3.7,0.1,5.5c0,0.8,1.3,0.8,1.2,0
						c-0.1-5-0.2-10-0.2-15c-0.1-8-0.2-15.9-0.4-23.8c0-1.8-0.1-3.7-0.1-5.5C631.2,484.1,630,484.1,630,484.9L630,484.9z"/>
				</g>
			</g>
			<g>
				<g>
					<path class="st0" d="M610.6,509.8c5.1-0.5,10.3-0.5,15.5-0.6c6.9-0.2,13.9-0.4,20.8-0.6c1.5,0,3.1-0.1,4.6-0.1
						c0.8,0,0.8-1.3,0-1.2c-11.4,0.3-22.9,0.6-34.4,1c-2.1,0.1-4.4,0.1-6.5,0.3C609.8,508.7,609.8,509.9,610.6,509.8L610.6,509.8z"
						/>
				</g>
			</g>
			<g>
				<g>
					<path class="st0" d="M574.5,544.6c-0.6,0.1-1.1,0.7-1.5,1c-0.8,0.7-1.5,1.6-2.2,2.5c-2.2,2.7-4.4,5.3-6.4,8.1
						c-4.4,5.7-8.7,11.5-12.9,17.4c-0.5,0.8-1.1,1.5-1.6,2.3c-0.2,0.3-0.5,0.6-0.5,0.9c-0.1,0.8,0.2,1.9,0.3,2.8
						c0.5,5.5,1.1,11,1.6,16.6c1.4,14.5,2.9,29,4.1,43.6c0.2,1.9,0.3,3.9,0.5,5.8c0,0.4,0,0.8,0.1,1.3v0.1c0-0.4,0,0.2,0,0.2
						c0.1,0.3,0.3,0.4,0.6,0.5c1.2,0.5,3,0.2,4.3,0.2c3,0,5.9,0,8.9-0.1c13-0.3,25.8-0.8,38.8-1.4c0.3,0,0.5,0,0.8,0
						c0.8,0,0.8-1.3,0-1.2c-11,0.5-22.2,0.9-33.2,1.3c-5.8,0.2-11.6,0.5-17.5,0.2c-0.4,0-1.3-0.2-1.5-0.1c-0.2,0.1,0-0.2,0,0
						c0-0.2,0.2,1.1,0.3,0.4c0-0.1,0-0.2,0-0.3c0-1.3-0.2-2.8-0.3-4.2c-1.1-13.7-2.6-27.3-3.9-40.9c-0.6-6.2-1.2-12.6-1.8-18.8
						c-0.2-1.7-0.3-3.4-0.5-5.1c0-0.3-0.1-0.6-0.1-0.9c0-0.1-0.2,0.4,0,0.2c0.1-0.1,0.3-0.4,0.4-0.5c3.5-4.8,6.9-9.6,10.5-14.4
						c2.3-3.1,4.7-6.2,7-9.2c1.7-2.1,3.4-4.3,5.3-6.2c0.3-0.3,0.9-0.8,1.1-0.9C575.7,545.7,575.5,544.5,574.5,544.6L574.5,544.6z"/>
				</g>
			</g>
			<g>
				<g>
					<path class="st0" d="M667.4,644c5.3-0.2,10.6-0.4,16-0.6c8.5-0.3,17-0.6,25.4-0.9c1.9-0.1,3.9-0.1,5.8-0.2
						c0.3,0,0.6-0.3,0.6-0.6c0.1-5,0.1-10,0.2-15c0.1-8.1,0.2-16,0.3-24.1c0-1.8,0-3.7,0.1-5.5c0-0.2-0.1-0.5-0.3-0.5
						c-9.1-4-18.2-8.1-27.4-12.1c-1.2-0.6-2.6-1.1-3.8-1.7c-0.7-0.3-1.4,0.8-0.6,1.1c9.1,4,18.2,8.1,27.4,12.1
						c1.2,0.6,2.6,1.1,3.8,1.7c-0.1-0.2-0.2-0.4-0.3-0.5c-0.1,5-0.1,10-0.2,15c-0.1,8.1-0.2,16-0.3,24.1c0,1.8,0,3.7-0.1,5.5
						c0.2-0.2,0.4-0.4,0.6-0.6c-5.3,0.2-10.6,0.4-16,0.6c-8.5,0.3-17,0.6-25.4,0.9c-1.9,0.1-3.9,0.1-5.8,0.2
						C666.6,642.7,666.6,644.1,667.4,644L667.4,644z"/>
				</g>
			</g>
			<g>
				<g>
					<path class="st0" d="M637.4,394.1c0.1,13.9,0.3,27.9,1.4,41.8c0.1,0.8,1.3,0.8,1.2,0c-1.1-13.9-1.3-27.8-1.4-41.8
						C638.7,393.3,637.3,393.3,637.4,394.1L637.4,394.1z"/>
				</g>
			</g>
			<g>
				<g>
					<path class="st0" d="M628.8,383.1c0-2.9-0.1-5.7-0.2-8.6c-0.1-1.3-0.1-2.7-0.2-4c-0.1-1.3-0.3-2.7-0.2-4c0.2-1.8,2-1.6,3.5-1.7
						c0.8-0.1,1.5-0.1,2.3-0.2c0.7-0.1,1.5-0.3,2.2-0.1c0.8,0.2,0.7,1.2,0.8,1.9c0,0.8,0.1,1.5,0.1,2.3c0,1.4,0.1,2.9,0.1,4.3
						c0.1,3.4,0.1,6.6,0.2,10c0,0.8,1.3,0.8,1.2,0c0-3.5-0.1-6.9-0.2-10.3c0-1.7-0.1-3.5-0.1-5.2c0-1.2,0.2-3.1-0.9-3.9
						c-1.1-0.8-3-0.3-4.2-0.2c-1.4,0.1-3.3,0-4.6,0.6c-1.1,0.5-1.5,1.7-1.5,3c0,1.6,0.2,3.3,0.3,4.9c0.2,3.8,0.3,7.6,0.4,11.3
						C627.5,384,629,384.1,628.8,383.1L628.8,383.1z"/>
				</g>
			</g>
			<g>
				<g>
					<path class="st0" d="M629.6,434.2c-1-13.1-0.7-26.3-0.7-39.4c0-0.8-1.2-0.8-1.2,0c0,13.2-0.3,26.3,0.7,39.4
						C628.5,435,629.7,435,629.6,434.2L629.6,434.2z"/>
				</g>
			</g>
			<g>
				<g>
					<path class="st0" d="M610.7,395.6c12.5-0.7,25-1.3,37.5-2c2.8-0.1,5.5-0.3,8.3-0.4c1.9-0.1,4.2-0.1,4.4-2.7
						c0.1-1.5,0-3.1,0-4.5c0-0.6,0-1.3,0-1.9c-0.2-1.3-1.2-1.8-2.5-1.9c-8.1-1-16.1,0-24.2,0.8c-4.6,0.4-9.3,0.8-13.9,0.8
						c-2.3,0-4.7-0.1-7-0.2c-1,0-2-0.1-3-0.1c-1-0.1-2.2-0.3-3.3-0.2c-1.6,0.2-1.4,2-1.4,3.3c0.1,2,0.5,4.1,0.7,6.1
						c0.1,1.3,0.5,2.6,1.9,3C609.1,395.7,610.1,395.6,610.7,395.6c0.8,0,0.8-1.2,0-1.2c-0.5,0-1.1,0.1-1.7,0
						c-1.9-0.2-1.5-3.3-1.7-4.7c-0.1-0.8-0.2-1.6-0.3-2.3c-0.1-0.6-0.2-1.5-0.1-2.1c0.3-1.1,2-0.6,3-0.5s2,0.1,3,0.1
						c7.6,0.3,14.9,0.1,22.4-0.7c7.3-0.7,14.5-1.5,21.7-0.8c1.2,0.1,2.6,0,2.8,1.5c0,0.1,0,0.2,0,0.3c0,0.8,0,1.7,0,2.6
						c0,1.2,0.5,3.8-1.1,4.2c-1.1,0.2-2.5,0.1-3.6,0.2c-2.8,0.1-5.5,0.3-8.2,0.4c-7.4,0.4-14.7,0.8-22.1,1.2
						c-4.7,0.2-9.3,0.5-14,0.7C609.9,394.4,609.9,395.7,610.7,395.6z"/>
				</g>
			</g>
			<g>
				<g>
					<path class="st0" d="M623.6,601.6c-0.5,0.5-0.6,1.3-0.3,2c0.2,0.3,0.5,0.5,0.8,0.5s0.7,0,1-0.1s0.6-0.3,0.8-0.6
						c0.1-0.3,0.2-0.6,0.1-1c0-0.6-0.2-1.3-0.8-1.5c-0.7-0.3-1.5,0.3-1.8,0.9c-0.2,0.3,0.3,0.5,0.4,0.3c0.2-0.4,0.6-0.8,1.1-0.7
						c0.4,0.1,0.6,0.5,0.6,0.9c0.1,0.4,0.1,1-0.4,1.2c-0.2,0.1-0.5,0.1-0.7,0.1s-0.5,0-0.6-0.1c-0.2-0.2-0.2-0.5-0.2-0.8
						s0.1-0.5,0.3-0.7c0.1-0.1,0.1-0.3,0-0.4C623.8,601.5,623.7,601.5,623.6,601.6L623.6,601.6z"/>
				</g>
			</g>
			<g>
				<g>
					<path class="st0" d="M637.3,600.4c-0.4,0-0.7,0.2-1,0.4c-0.1,0.1-0.3,0.2-0.4,0.3c-0.1,0.1-0.2,0.3-0.2,0.5
						c-0.1,0.6,0,1.4,0.4,1.9s1.1,0.7,1.7,0.4c0.6-0.3,0.7-1,0.8-1.5c0-0.4,0.1-0.8-0.1-1.2c-0.1-0.3-0.4-0.6-0.8-0.7
						c-0.1,0-0.3,0-0.3,0.2c0,0.1,0,0.3,0.2,0.3c0.6,0.1,0.5,0.8,0.5,1.2s-0.1,0.9-0.4,1.2c-0.3,0.3-0.8,0.2-1.1-0.1
						c-0.4-0.3-0.5-0.8-0.4-1.3c0-0.1,0-0.3,0.1-0.4c0-0.1,0.1-0.2,0.3-0.3c0.2-0.2,0.5-0.3,0.8-0.3c0.1,0,0.2-0.1,0.2-0.2
						C637.5,600.6,637.4,600.4,637.3,600.4L637.3,600.4z"/>
				</g>
			</g>
		</g>
	</g>
	<g>
		<g>
			<path class="st2" d="M577.4,521.2c-0.9-6.1-1.6-12.3-2.2-18.4c0-0.3-0.5-0.3-0.5,0c0.5,6.2,1.3,12.4,2.2,18.5
				C576.9,521.6,577.4,521.5,577.4,521.2L577.4,521.2z"/>
		</g>
	</g>
	<g>
		<g>
			<path class="st2" d="M579.1,508.2c-0.2-3.5-0.5-6.8-0.7-10.3c0-0.3-0.5-0.3-0.5,0c0.2,3.5,0.5,6.8,0.7,10.3
				C578.6,508.5,579.1,508.5,579.1,508.2L579.1,508.2z"/>
		</g>
	</g>
	<g>
		<g>
			<path class="st2" d="M578.2,526c0.3,0,0.3-0.5,0-0.5S577.9,526,578.2,526L578.2,526z"/>
		</g>
	</g>
	<g>
		<g>
			<path class="st2" d="M687.8,535.3c1.2-7.7,2.9-15.1,5.2-22.5c0.1-0.3-0.4-0.4-0.5-0.1c-2.5,7.4-4,14.8-5.2,22.5
				C687.2,535.5,687.7,535.6,687.8,535.3L687.8,535.3z"/>
		</g>
	</g>
	<g>
		<g>
			<path class="st2" d="M686.9,522.5c1.4-4.4,2.8-8.9,4.2-13.3c0.1-0.3-0.4-0.4-0.5-0.1c-1.4,4.4-2.8,8.9-4.2,13.3
				C686.3,522.6,686.8,522.8,686.9,522.5L686.9,522.5z"/>
		</g>
	</g>
	<g>
		<g>
			<path class="st2" d="M687.5,510.3c0.5-1.2,1-2.6,1.5-3.8c0.1-0.1-0.1-0.3-0.2-0.3c-0.1,0-0.3,0.1-0.3,0.2c-0.5,1.2-1,2.6-1.5,3.8
				c-0.1,0.1,0.1,0.3,0.2,0.3S687.4,510.4,687.5,510.3L687.5,510.3z"/>
		</g>
	</g>
	<g>
		<g>
			<path class="st2" d="M646.6,456.3c-0.1,2.1-0.3,4.3-0.6,6.4c0,0.3,0.4,0.5,0.5,0.1c0.3-2.1,0.5-4.4,0.6-6.6
				C647.1,456,646.6,456,646.6,456.3L646.6,456.3z"/>
		</g>
	</g>
	<g>
		<g>
			<path class="st2" d="M649.4,459.9c-0.2,2.7-0.3,5.4-0.5,8.1c0,0.3,0.5,0.3,0.5,0c0.2-2.7,0.3-5.4,0.5-8.1
				C650,459.6,649.4,459.6,649.4,459.9L649.4,459.9z"/>
		</g>
	</g>
	<g>
		<g>
			<path class="st2" d="M653.1,463.2c-0.1,0.7-0.1,1.3-0.2,2c0,0.1,0.1,0.2,0.2,0.2s0.2-0.1,0.2-0.2c0.1-0.7,0.1-1.3,0.2-2
				c0-0.1-0.1-0.2-0.2-0.2C653.2,463,653.1,463.1,653.1,463.2L653.1,463.2z"/>
		</g>
	</g>
	<g>
		<g>
			<path class="st2" d="M622.6,502.8c0.9-1.1,1.8-2.3,2.8-3.5c0.1-0.1,0.1-0.2,0-0.4c-0.1-0.1-0.3-0.1-0.4,0
				c-0.9,1.1-1.8,2.3-2.8,3.5c-0.1,0.1-0.1,0.2,0,0.4C622.4,502.9,622.5,502.9,622.6,502.8L622.6,502.8z"/>
		</g>
	</g>
	<g>
		<g>
			<path class="st2" d="M618.8,502.8c1.9-2.7,4-5.2,6.1-7.7c0.2-0.2-0.1-0.6-0.4-0.4c-2.1,2.6-4.3,5.1-6.2,7.8
				C618.1,502.8,618.6,503,618.8,502.8L618.8,502.8z"/>
		</g>
	</g>
	<g>
		<g>
			<path class="st2" d="M637.8,501c0.5-0.7,1-1.3,1.5-2c0.1-0.1,0.1-0.2,0-0.4c-0.1-0.1-0.3-0.1-0.4,0c-0.5,0.7-1,1.3-1.5,2
				c-0.1,0.1-0.1,0.2,0,0.4C637.5,501.1,637.8,501.1,637.8,501L637.8,501z"/>
		</g>
	</g>
	<g>
		<g>
			<path class="st2" d="M638.8,521.8c1-1.7,2.3-3.5,3.8-4.9c0.2-0.2-0.1-0.6-0.4-0.4c-1.4,1.5-2.8,3.2-3.9,5
				C638.2,521.9,638.5,522.1,638.8,521.8L638.8,521.8z"/>
		</g>
	</g>
	<g>
		<g>
			<path class="st2" d="M638,517.5c0.2-0.6,0.6-1.2,1.1-1.6c0.1-0.1,0.1-0.3,0-0.4c-0.1-0.1-0.2-0.1-0.4,0c-0.6,0.5-1,1.1-1.2,1.9
				c0,0.1,0,0.3,0.2,0.3C637.9,517.7,638,517.6,638,517.5L638,517.5z"/>
		</g>
	</g>
	<g>
		<g>
			<path class="st2" d="M624.9,516.4c0.3,0,0.3-0.5,0-0.5C624.5,515.8,624.5,516.4,624.9,516.4L624.9,516.4z"/>
		</g>
	</g>
	<g>
		<g>
			<path class="st2" d="M617.2,634.7c-0.1-2.3-0.2-4.6-0.3-6.9c0-0.3-0.5-0.3-0.5,0c0.1,2.3,0.2,4.6,0.3,6.9
				C616.7,635.1,617.2,635.1,617.2,634.7L617.2,634.7z"/>
		</g>
	</g>
	<g>
		<g>
			<path class="st2" d="M620.5,634.7c-0.3-1.2-0.5-2.5-0.4-3.8c0-0.3-0.5-0.3-0.5,0c0,1.3,0.1,2.7,0.5,3.9
				C620.1,635.1,620.6,635,620.5,634.7L620.5,634.7z"/>
		</g>
	</g>
	<g>
		<g>
			<path class="st2" d="M617.5,623c0.3,0,0.3-0.5,0-0.5S617.3,623,617.5,623L617.5,623z"/>
		</g>
	</g>
	<g>
		<g>
			<path class="st2" d="M644.4,634.1c0.8-5.6,1.6-11.2,2.5-16.9c0-0.3-0.4-0.5-0.5-0.1c-0.8,5.6-1.6,11.2-2.5,16.9
				C643.9,634.3,644.3,634.5,644.4,634.1L644.4,634.1z"/>
		</g>
	</g>
	<g>
		<g>
			<path class="st2" d="M640.9,634.3c-0.1-2.1,0.1-4.2,0.6-6.2c0.1-0.3-0.4-0.4-0.5-0.1c-0.5,2-0.7,4.2-0.6,6.3
				C640.4,634.6,640.9,634.6,640.9,634.3L640.9,634.3z"/>
		</g>
	</g>
	<g>
		<g>
			<path class="st2" d="M596.5,640.9c-2.8-0.7-4-3.5-4.5-6c-0.6-2.6-1-5.1-1.4-7.8c-0.8-5.4-1.2-10.8-1.2-16.2c0-0.3-0.5-0.3-0.5,0
				c0,6,0.5,11.9,1.5,17.9c0.4,2.8,0.8,5.8,1.8,8.5c0.7,1.9,2.1,3.7,4.3,4.2C596.6,641.5,596.9,641,596.5,640.9L596.5,640.9z"/>
		</g>
	</g>
	<g>
		<g>
			<path class="st2" d="M596.4,636.9c-2.1-4.4-3.1-9.2-2.8-14.1c0-0.3-0.5-0.3-0.5,0c-0.3,4.9,0.7,9.9,2.9,14.3
				C596.1,637.4,596.5,637.1,596.4,636.9L596.4,636.9z"/>
		</g>
	</g>
	<g>
		<g>
			<path class="st2" d="M593.5,617.4c0.3,0,0.3-0.5,0-0.5S593.2,617.4,593.5,617.4L593.5,617.4z"/>
		</g>
	</g>
	<g>
		<g>
			<path class="st2" d="M582.6,643.1c-1.2-3.8-1.6-7.7-1.2-11.6c0-0.3-0.5-0.3-0.5,0c-0.4,4,0,8,1.3,11.8
				C582.1,643.7,582.6,643.4,582.6,643.1L582.6,643.1z"/>
		</g>
	</g>
	<g>
		<g>
			<path class="st2" d="M579.5,643c-0.1-1.7-0.3-3.4-0.7-5c-0.1-0.3-0.6-0.2-0.5,0.1c0.4,1.6,0.6,3.3,0.7,4.9
				C578.9,643.3,579.5,643.3,579.5,643L579.5,643z"/>
		</g>
	</g>
	<g>
		<g>
			<path class="st2" d="M575.6,641.4c-0.3-1.3-0.6-2.7-0.9-4.1c-0.1-0.3-0.6-0.2-0.5,0.1c0.3,1.3,0.6,2.7,0.9,4.1
				C575.1,641.8,575.7,641.7,575.6,641.4L575.6,641.4z"/>
		</g>
	</g>
	<g>
		<g>
			<path class="st2" d="M570.2,641.9c-0.1-0.7-0.1-1.5-0.2-2.2c0-0.1-0.1-0.2-0.2-0.2c-0.1,0-0.3,0.1-0.2,0.2
				c0.1,0.7,0.1,1.5,0.2,2.2c0,0.1,0.1,0.2,0.2,0.2C570,642.1,570.2,642,570.2,641.9L570.2,641.9z"/>
		</g>
	</g>
	<g>
		<g>
			<path class="st2" d="M568.8,626.6c-0.1-0.6-0.1-1.2-0.2-1.8c0-0.1-0.1-0.2-0.2-0.2s-0.3,0.1-0.2,0.2c0.1,0.6,0.1,1.2,0.2,1.8
				c0,0.1,0.1,0.2,0.2,0.2C568.7,626.9,568.8,626.8,568.8,626.6L568.8,626.6z"/>
		</g>
	</g>
	<g>
		<g>
			<path class="st2" d="M614,641.7c0.1,1.1,0.3,2.2,0.8,3.3c0.1,0.3,0.6,0,0.4-0.3c-0.4-0.9-0.7-2-0.7-3.1
				C614.5,641.3,614,641.3,614,641.7L614,641.7z"/>
		</g>
	</g>
	<g>
		<g>
			<path class="st2" d="M617.2,643.3c0.2,0.3,0.4,0.6,0.6,0.9c0,0.1,0.1,0.1,0.1,0.1c0.1,0,0.1,0,0.2,0c0.1-0.1,0.2-0.2,0.1-0.3
				c-0.2-0.3-0.4-0.6-0.6-0.9c0-0.1-0.1-0.1-0.1-0.1c-0.1,0-0.1,0-0.2,0C617.2,643.1,617,643.2,617.2,643.3L617.2,643.3z"/>
		</g>
	</g>
	<g>
		<g>
			<path class="st2" d="M621.6,644.1c0.2,0.2,0.4,0.4,0.7,0.7c0.1,0.1,0.3,0.1,0.4,0s0.1-0.3,0-0.4c-0.2-0.2-0.4-0.4-0.7-0.7
				c-0.1-0.1-0.3-0.1-0.4,0C621.5,643.9,621.5,644,621.6,644.1L621.6,644.1z"/>
		</g>
	</g>
	<g>
		<g>
			<path class="st2" d="M710.2,638c-0.6-5.1-0.4-10.3,0.4-15.4c0.1-0.3-0.4-0.5-0.5-0.1c-0.8,5.1-1,10.4-0.4,15.5
				C709.7,638.4,710.2,638.4,710.2,638L710.2,638z"/>
		</g>
	</g>
	<g>
		<g>
			<path class="st2" d="M706.3,636.3c0.2-2.3,0.3-4.8,0.3-7.1c0-0.3-0.5-0.3-0.5,0c0,2.3-0.1,4.8-0.3,7.1
				C705.8,636.6,706.3,636.6,706.3,636.3L706.3,636.3z"/>
		</g>
	</g>
	<g>
		<g>
			<path class="st2" d="M702.3,637.2c0-1.7,0-3.5,0-5.2c0-0.3-0.5-0.3-0.5,0c0,1.7,0,3.5,0,5.2C701.8,637.5,702.3,637.5,702.3,637.2
				L702.3,637.2z"/>
		</g>
	</g>
	<g>
		<g>
			<path class="st2" d="M676.6,639.4c3-6.4,2.2-13.7,4.8-20.2c0.1-0.3-0.4-0.4-0.5-0.1c-2.6,6.4-1.8,13.7-4.8,20.1
				C676,639.4,676.3,639.7,676.6,639.4L676.6,639.4z"/>
		</g>
	</g>
	<g>
		<g>
			<path class="st2" d="M680.6,638.3c0.8-1.9,1.3-4,1.6-6c0-0.3-0.4-0.5-0.5-0.1c-0.3,2-0.8,4.1-1.6,6
				C679.9,638.5,680.4,638.6,680.6,638.3L680.6,638.3z"/>
		</g>
	</g>
	<g>
		<g>
			<path class="st2" d="M683.7,626.4c0.3,0,0.3-0.5,0-0.5C683.3,625.9,683.3,626.4,683.7,626.4L683.7,626.4z"/>
		</g>
	</g>
	<g>
		<g>
			<path class="st2" d="M709.7,599.9c0.5,2.5,0.6,5,0.2,7.5c-0.1,0.3,0.4,0.5,0.5,0.1c0.4-2.6,0.3-5.2-0.2-7.8
				C710.2,599.5,709.7,599.6,709.7,599.9L709.7,599.9z"/>
		</g>
	</g>
	<g>
		<g>
			<path class="st2" d="M705.4,601.2c0.1,0.4,0.1,0.9,0.2,1.3c0,0.1,0.2,0.2,0.3,0.2s0.2-0.2,0.2-0.3c-0.1-0.4-0.1-0.9-0.2-1.3
				c0-0.1-0.2-0.2-0.3-0.2C705.4,601.1,705.4,601.2,705.4,601.2L705.4,601.2z"/>
		</g>
	</g>
	<g>
		<g>
			<path class="st2" d="M676.2,598.8c0.8-4.5,1.8-9,3.1-13.5c0.1-0.3-0.4-0.4-0.5-0.1c-1.2,4.4-2.2,8.9-3.1,13.5
				C675.7,599,676.2,599.1,676.2,598.8L676.2,598.8z"/>
		</g>
	</g>
	<g>
		<g>
			<path class="st2" d="M674.2,592.7c0.1-1,0.3-2,0.7-3.1c0-0.1-0.1-0.3-0.2-0.3c-0.1,0-0.3,0-0.3,0.2c-0.4,1-0.6,2.1-0.7,3.2
				C673.7,593,674.2,593,674.2,592.7L674.2,592.7z"/>
		</g>
	</g>
	<g>
		<g>
			<path class="st2" d="M677.6,579.2c0-0.2,0-0.4,0-0.7c0-0.1-0.1-0.3-0.2-0.2c-0.1,0-0.2,0.1-0.2,0.2c0,0.2,0,0.4,0,0.7
				c0,0.1,0.1,0.3,0.2,0.2C677.6,579.5,677.6,579.4,677.6,579.2L677.6,579.2z"/>
		</g>
	</g>
	<g>
		<g>
			<path class="st2" d="M581.8,566.2c-0.4-5.1-0.8-10.2-1.2-15.3c0-0.3-0.5-0.3-0.5,0c0.4,5.1,0.8,10.2,1.2,15.3
				C581.5,566.5,582,566.5,581.8,566.2L581.8,566.2z"/>
		</g>
	</g>
	<g>
		<g>
			<path class="st2" d="M579.6,546.7c0.3,0,0.3-0.5,0-0.5C579.2,546.2,579.2,546.7,579.6,546.7L579.6,546.7z"/>
		</g>
	</g>
	<g>
		<g>
			<path class="st2" d="M584.6,559.8c-0.1-0.5-0.1-1-0.2-1.5c0-0.1-0.2-0.2-0.3-0.2s-0.2,0.2-0.2,0.3c0.1,0.5,0.1,1,0.2,1.5
				c0,0.1,0.2,0.2,0.3,0.2C584.6,560.1,584.6,560,584.6,559.8L584.6,559.8z"/>
		</g>
	</g>
	<g>
		<g>
			<path class="st2" d="M566.7,562.5c1.7-1.7,2.7-4.1,3.8-6.2c1.3-2.3,3.1-4.3,5.3-5.7c0.3-0.2,0-0.6-0.3-0.4
				c-2.1,1.3-4,3.2-5.2,5.3c-1.3,2.2-2.1,4.7-4,6.6C565.9,562.4,566.3,562.7,566.7,562.5L566.7,562.5z"/>
		</g>
	</g>
	<g>
		<g>
			<path class="st2" d="M563.2,566c0.3,0,0.3-0.5,0-0.5S562.9,566,563.2,566L563.2,566z"/>
		</g>
	</g>
	<g>
		<g>
			<path class="st2" d="M572.9,557.5C572.9,557.5,573,557.4,572.9,557.5C572.9,557.4,572.9,557.4,572.9,557.5
				c0.1-0.1,0.1-0.2,0.2-0.2c0.1-0.1,0.1-0.2,0.2-0.3c0.1-0.1,0.3-0.3,0.4-0.4c0.3-0.3,0.6-0.4,1-0.5c0.3-0.1,0.2-0.6-0.1-0.5
				c-0.9,0.2-1.7,0.9-2.1,1.8c-0.1,0.1,0.1,0.3,0.2,0.3C572.8,557.7,572.9,557.6,572.9,557.5L572.9,557.5z"/>
		</g>
	</g>
	<g>
		<g>
			<path class="st2" d="M620.4,569.5c1.2-1.8,2.9-3.4,4.8-4.5c0.3-0.2,0-0.6-0.3-0.4c-1.9,1.1-3.7,2.8-5,4.7
				C619.8,569.5,620.1,569.8,620.4,569.5L620.4,569.5z"/>
		</g>
	</g>
	<g>
		<g>
			<path class="st2" d="M618.1,573.6c0.3,0,0.3-0.5,0-0.5C617.7,573.1,617.7,573.6,618.1,573.6L618.1,573.6z"/>
		</g>
	</g>
	<g>
		<g>
			<path class="st2" d="M645.8,644.5c0.1-0.5,0.1-1,0.2-1.5c0-0.1,0-0.3-0.2-0.3c-0.1,0-0.3,0-0.3,0.2c-0.1,0.5-0.1,1-0.2,1.5
				c0,0.1,0,0.3,0.2,0.3C645.5,644.7,645.6,644.6,645.8,644.5L645.8,644.5z"/>
		</g>
	</g>
	<g>
		<g>
			<path class="st2" d="M641.4,645.1c0-0.4,0-0.9,0-1.3c0-0.1-0.1-0.3-0.2-0.2c-0.1,0-0.2,0.1-0.2,0.2c0,0.4,0,0.9,0,1.3
				c0,0.1,0.1,0.3,0.2,0.2C641.3,645.3,641.4,645.2,641.4,645.1L641.4,645.1z"/>
		</g>
	</g>
	<g>
		<g>
			<path class="st2" d="M697.5,621.7c0-0.4,0-0.9,0-1.3c0-0.1-0.1-0.3-0.2-0.2c-0.1,0-0.2,0.1-0.2,0.2c0,0.4,0,0.9,0,1.3
				c0,0.1,0.1,0.3,0.2,0.2C697.4,621.9,697.5,621.8,697.5,621.7L697.5,621.7z"/>
		</g>
	</g>
	<g>
		<g>
			<path class="st2" d="M671.7,556.5c0.3,0,0.3-0.5,0-0.5S671.5,556.5,671.7,556.5L671.7,556.5z"/>
		</g>
	</g>
	<g>
		<g>
			<path class="st2" d="M644.3,530.7c6.8-3.2,9.9-10.6,11.2-17.7c0.1-0.3-0.4-0.4-0.5-0.1c-1.4,6.8-4.3,14.2-11,17.4
				C643.8,530.4,643.9,530.8,644.3,530.7L644.3,530.7z"/>
		</g>
	</g>
	<g>
		<g>
			<path class="st2" d="M650.7,529.9c1.6-1.3,3-3.1,4-4.9c0.1-0.3-0.3-0.5-0.4-0.3c-0.9,1.8-2.2,3.5-3.9,4.8
				C650.1,529.7,650.5,530.1,650.7,529.9L650.7,529.9z"/>
		</g>
	</g>
	<g>
		<g>
			<path class="st2" d="M606.2,503.5c0.1-5.6,2.6-11,6.6-14.9c0.2-0.2-0.1-0.6-0.4-0.4c-4.2,4-6.6,9.5-6.7,15.2
				C605.7,503.8,606.2,503.8,606.2,503.5L606.2,503.5z"/>
		</g>
	</g>
	<g>
		<g>
			<path class="st2" d="M603.6,499c0.3-2.6,1.4-4.9,3.1-6.7c0.2-0.2-0.1-0.6-0.4-0.4c-1.7,2-2.9,4.5-3.3,7.1
				C603.1,499.3,603.6,499.3,603.6,499L603.6,499z"/>
		</g>
	</g>
	<g>
		<g>
			<path class="st0" d="M565.8,479c-5.8-0.2-12.2-0.8-16.2-5.4c-0.9-1-1.6-2.1-2-3.5c-0.2-0.5-0.6-1.4-0.4-1.9
				c0.4-1,1.7-0.9,2.6-0.9c3.1-0.1,6,0.7,8.7,2.3c0.4,0.3,0.9-0.3,0.7-0.7c-1.5-2.8-3.8-7.8-1.4-10.8c2.5-3.3,5.8,2.5,6.5,4.5
				c0.9,2.7,0.8,5.6,0.9,8.4c0.1,2.9,0,5.7,0.3,8.6c0.1,0.6,1.1,0.6,1,0c-0.5-5.4,0.2-10.9-1-16.2c-0.5-2.3-2-5-4-6.4
				c-2.1-1.5-4.4-0.3-5.2,2c-1.2,3.5,0.4,7.6,2.1,10.6c0.2-0.2,0.5-0.5,0.7-0.7c-3-1.8-6.5-2.8-10.1-2.5c-1.2,0.1-2.6,0.4-2.7,1.8
				c-0.1,1.4,0.6,3,1.3,4.1c3.7,6.4,11.6,7.6,18.4,7.8C566.5,480,566.5,479,565.8,479L565.8,479z"/>
		</g>
	</g>
	<g>
		<g>
			<path class="st0" d="M578.9,462.9c-2.9-2.7-5-6-5.9-9.9c-0.2-0.9-1.5-6.2,0.6-5.8c0.5,0.1,1,0.9,1.3,1.3s0.6,0.8,0.8,1.3
				c0.5,0.9,0.9,1.9,1.2,3c0.1,0.5,1.1,0.4,1-0.1c-0.3-2-0.1-4.5,1.1-6.2c0.3-0.4,0.7-0.7,1.2-0.7c0.6,0,0.9,0.4,1.1,0.8
				c0.6,0.9,0.7,1.9,0.8,3c0.2,4.8-2.7,9.3-4.2,13.7c-0.2,0.6,0.7,0.9,1,0.3c1-2.9,2.5-5.6,3.5-8.6c0.8-2.5,1.3-5.5,0.3-8
				c-0.3-0.8-0.9-1.7-1.7-2c-0.9-0.3-1.9,0.1-2.6,0.8c-1.6,1.8-1.8,4.8-1.5,7.1c0.3,0,0.7-0.1,1-0.1c-0.4-1.3-0.9-2.7-1.6-3.8
				c-0.5-0.8-1.2-2-2.2-2.5c-0.9-0.4-1.8,0-2.3,0.8c-0.6,1-0.4,2.3-0.3,3.5c0.6,5,3.1,9.6,6.7,13
				C578.5,464.2,579.4,463.3,578.9,462.9L578.9,462.9z"/>
		</g>
	</g>
</g>
<g>
	<g>
		<g>
			<g>
				<g>
					<g>
						<path class="st0" d="M492.1,908.1c12.1,16.8,35.7,13.1,53.8,9.5c14.5-2.9,29.3-4.7,44.2-4.2c7.3,0.2,15.1,0.5,22.2,2.3
							c3.4,0.9,7,1.9,9.4,4.6c3.8,4.6,3.8,9.2-0.1,13.6c-6.1,5-8.5,4.5-7.1-1.8c0.2,0.8,1.6,0.7,1.6-0.2c-0.5-9.6-16.5-0.7-6.2,6
							c11.3,7.3,21.6-9.7,14.3-18.4c-5.2-6.1-14.5-6.8-22.1-7.6c-12.9-1.3-26.1-0.9-39.1,0.7c-22.8,2.9-52,14.7-70-5.2
							C492.5,906.9,491.6,907.5,492.1,908.1L492.1,908.1z"/>
					</g>
					<g>
						<path class="st0" d="M591.7,922.4c1.1-5.8-7.6-4.2-6.1,1.1c2.7,9.7,16.6,1.6,18.2-4.5c3.1-11.1-9.9-18.3-19.7-18.4
							c-8.7-0.1-16.6,3.3-24.6,5.8c-4.8,1.5-9.7,2.9-14.9,2.9c-3.3,0-6.9-0.5-10-1.9c-1-0.7-2.1-1.3-3.1-1.9c-3.9-2.7-3.9-5,0-7
							c-0.8-1-2.3-0.2-1.8,1c2.7,6.1,12,1.7,8.9-4.4c-3.7-7.1-13.4-1.6-13.1,4.8c0.5,11.3,16.7,13.1,25.5,11.5
							c9.2-1.6,17.3-6.2,26.5-7.8c6.4-1.1,13.2-0.9,18.6,2.7c2.4,1.6,5.4,4.5,5.7,7.6c-0.5,2.4-0.8,4.7-1.3,7.1
							c-3.3,5.4-6.5,5.8-9.4,1.3C591,922.7,591.6,922.8,591.7,922.4L591.7,922.4z"/>
					</g>
				</g>
			</g>
		</g>
		<g>
			<g>
				<g>
					<g>
						<path class="st0" d="M770.2,907.7c-12.1,16.8-35.7,13.1-53.7,9.5c-14.5-2.9-29.3-4.7-44.2-4.2c-7.3,0.2-15.1,0.5-22.2,2.3
							c-3.4,0.9-7,1.9-9.4,4.6c-3.8,4.6-3.8,9.2,0.1,13.6c6.1,5,8.5,4.5,7.1-1.8c-0.2,0.8-1.6,0.7-1.5-0.2c0.5-9.6,16.5-0.7,6.2,6
							c-11.3,7.3-21.6-9.7-14.3-18.4c5.2-6.1,14.5-6.8,22.1-7.6c12.9-1.3,26.1-0.9,39.1,0.7c22.8,2.9,52,14.7,70-5.2
							C769.6,906.4,770.6,907.1,770.2,907.7L770.2,907.7z"/>
					</g>
					<g>
						<path class="st0" d="M670.5,922c-1.1-5.8,7.6-4.2,6.1,1.1c-2.7,9.7-16.6,1.6-18.2-4.5c-3.1-11.1,9.9-18.3,19.7-18.4
							c8.7-0.1,16.6,3.3,24.6,5.8c4.8,1.5,9.7,2.9,14.9,2.9c3.3,0,6.9-0.5,10-1.9c1-0.7,2.1-1.3,3.2-1.9c3.9-2.7,3.9-5,0-7
							c0.8-1,2.3-0.2,1.8,1c-2.7,6.1-12,1.7-8.9-4.4c3.7-7.1,13.4-1.6,13.2,4.8c-0.5,11.3-16.7,13.1-25.5,11.5
							c-9-1.6-17.3-6.2-26.5-7.8c-6.4-1.1-13.2-0.9-18.6,2.7c-2.4,1.7-5.4,4.5-5.7,7.6c0.5,2.4,0.8,4.7,1.3,7.1
							c3.3,5.4,6.5,5.8,9.4,1.3C671.2,922.2,670.6,922.3,670.5,922L670.5,922z"/>
					</g>
				</g>
			</g>
		</g>
	</g>
</g>
<g id="Capa_4">
</g>
<g>
	<path class="st0" d="M482.3,711.4c17.6-11,20.5-16,26.7-24.3c1.8-2.3,4.2-3.8,6.4,3.5c0,0-4.1,7.3-10.3,20.2
		c7.9-8.2,23.3-20.2,36.5-22.7c13-2.3,20.2,4.2,17.3,16.1c-2.8,11.3-12.2,18.5-31.8,28.7c-1.8,0.9-3.7,1.8-6,2.5
		c6-0.6,12-0.4,17.7,1c20.9,5.3,19.9,29.9,11.4,47c17.7-3.8,32.4-9.2,39.7-22.3c-2.5,13.8-20.2,19.8-40.4,24
		c-1.3,2.5-2.9,4.7-4.5,6.7c-23,28.7-51.5,34.9-60.6,26.4c-7.8-7.3,0.1-20.4,19.6-25.5c12.4-3.4,25.2-5.3,36.9-7.5
		c7.5-13.9,12.7-32.5,0.4-43.1c-6.6-5.7-17.1-6-26.9-4.7c-8.9,2.6-18.9,4.7-23.6,5.9c-3.1,7.3-6,15.4-9.1,23.9
		c-13.6,38.1-27.5,54.5-39.1,54.8c-16,0.4-17.4-22.6-8.2-39.5c13.5-24.7,31.3-39.1,52.7-52.1c5.1-11.7,10.8-22.8,15.1-31
		c-27.7,28.1-75.6,26.8-89.8,64.6C421.4,730.9,459.5,725.8,482.3,711.4z M450.5,763c-16.4,20.5-18.9,30.9-18.9,43.9
		c0,12,8.9,13.2,14.1,10c11.4-7.2,23-34.4,32.5-63.4c2.2-6.7,5-14.1,8.1-21.1C479,737.3,460.8,750.2,450.5,763z M499,796.5
		c-14.8,6.1-18.6,16.3-12.2,20.9c10,7.3,40.1-9.8,50.8-26.7c0.7-1.2,1.6-2.3,2.3-3.7C524.8,789.9,509.3,792.2,499,796.5z
		 M483.9,745.2h0.1H483.9z M516.3,734.1c12.9-5.1,37.3-19.3,35.3-36.5c-1.8-14.6-25-1.3-34.7,5.7c-7,5.1-12.2,10.7-14.8,13.9
		c-3.2,7-6.9,15.2-10.7,24.6C495.2,741,504.1,738.9,516.3,734.1z"/>
	<path class="st0" d="M608.5,795.8c8.3-12.3,18.6-33.2,25.8-34.9c-7.3,8.3-9.2,12.2-13.5,18.9c-8.1,13-12.4,21.8-17.1,21.1
		c-5.3-0.9-10.1-7.8-4.7-22.6c0.1-0.6,0.4-1.2,0.6-1.8c-6,7.3-11.7,14.4-17.3,8.1c-5.7-6.4-0.1-18,5.1-22.8c3.8-3.5,11-6.6,18.6-4.7
		c8.5,2.2,2.1,2.2,2.1,2.2s-10.8-2.3-18.6,10.1c-5.7,9.2-2.5,17.6,2.1,13.3c2.5-2.3,7.9-9.2,12.2-14.6c2.2-3.5,4.5-7.8,6.7-7.8
		c2.2-0.1,7.6,0.6,2.8,6.7C599.9,784.3,599.6,808.8,608.5,795.8z"/>
	<path class="st0" d="M631.7,761.2c5.3-1.2,8.2,1.9,2.6,12.4c-5.1,9.8,0.1,13.5,5.9,8.9c6.6-5.3,13.6-17.3,16-19.9
		c4-4.5,6.3-2.3,7,1.5c1.2,5.3-2.3,7.6-9.1,22.6c-6.1,13.5,1.8,15.4,9.8,6c12.9-15.1,16.3-30,25.6-31.5c-7.9,3.8-7.8,11.4-21.7,29.7
		c-3.8,5-11,13.6-18.6,7.3c-9.7-8.1,4.1-26.8,3.7-28.3c0,0-2.5,6-9.8,12.4c-7.8,6.9-14.6,3.2-16.7-1.3
		C623.9,775.7,629.9,769.7,631.7,761.2z"/>
	<path class="st0" d="M653.1,704.4c-3.7,2.5-6.7,7.3-2.8,11.3c7,7,27.2,6.3,51.3,3.8C707.7,708,711,705,711,705
		c1.5-2.3,6.3,2.9,4.8,5.4c-1.6,2.6-3.2,5.3-4.8,8.1c33.4-4,71.2-10.1,89.9-4.4c7,2.2,9.7,4.7,8.9,8.2c-0.3,1.9-2.3,3.1-3.2,1.2
		c-0.7-1.6,3.1-5.4-6.6-8.2c-19.3-5.4-56.8,0.9-90.1,4.8c-9.7,16.5-19.8,37.5-28.1,67.1c-6,21.2-0.6,30.9,9.1,18.7
		c10.8-13.6,21.2-42.9,32.8-44.8c-9.2,8.2-12.4,14.4-21.1,30.5c-12.2,22.8-19,24.2-23.9,20.2c-6.2-5-9.4-17.7,6.6-57.3
		c6.2-15.1,11.3-25.9,15.2-33.4c-24.2,2.5-44.5,2.9-51.8-4.8c-3.7-4-2.2-10.8,2.6-14.1C652.9,701.2,656.9,701.9,653.1,704.4z"/>
	<path class="st0" d="M733.7,778.5c-6.7,8.9-12,14.5-17.7,12.7c-9.1-2.9-1.5-25.6,5-29.9c2.9-1.5,4.4,0.1,4,2.5
		c-0.6,3.7-4.5,9.1-6.1,15.5c-1.2,4.8-2.6,10.4,1,10c4.5-0.4,12.9-13.3,18.7-20.5c4.8-6,6.3-7.8,9.4-7.8
		C743.5,763.2,739.9,770.4,733.7,778.5z M726.7,755.2c-1.8-0.6-1.9-1.6-0.6-4.1c1.5-2.8,0.6-3.4,2.9-4.7c1.6-0.9,6.9-0.3,5.1,3.4
		C732.3,753.7,728.8,755.8,726.7,755.2z"/>
	<path class="st0" d="M752,771.6c16.3-2.9,18.7-10.5,21.5-10.8c2.9-0.3,5.7,3.2,3.2,5.7c-10.4,10.7-26.1,24.6-26.8,28.4
		c3.8-1.8,9.7-0.9,11.9,1.8c28.8-16,32.2-33.4,36.5-34.9c-3.1,6.7-11.7,23.1-35.6,36.3c5.6,6.6,5,26.7-3.7,40.9
		c-5.3,8.8-16.5,18.7-27.7,15.7c-12.2-3.2-8.8-23.4,6.9-40.4c5.3-5.7,13.8-12.3,21.1-16.3c-2.5-2.2-6.9-2.2-9.5-0.4
		c-4.7,3.1-5,1.8-6-2.8c-0.9-4,16.3-21.1,20.1-25.3c-1.8,0.4-8.5,4.1-16,3.8c-9.7-0.4-6.3-8.5-4.2-11.1c2.3-3.1,7.6,0,5.6,2.5
		C746.6,767.6,746,772.6,752,771.6z M733.7,852.3c12.6,0,26.9-18.7,28.7-38.2c0.3-4,1-9.7-2.2-14.8
		C725.2,818.7,719.4,852.3,733.7,852.3z"/>
	<path class="st0" d="M800.1,753c6.6-0.1,11.9,3.8,11.9,14.2c0,3.1-0.7,7.3-1.9,11.4c2.1-0.9,4.2-2.2,6.4-4
		c8.8-7,10.8-14.1,15.4-13.6c-4.8,3.7-8.9,12.2-17.1,17.1c-1.6,1-3.4,1.8-5.3,2.3c-3.2,9.8-9.5,19.6-16.7,19.3
		c-10.2-0.3-11-13.8-6.1-23.3c0.6-1.2,1.2-2.3,1.8-3.4C782.3,761.9,792,753.1,800.1,753z M793.2,778.8c-1.5,2.6-2.6,5.3-3.4,7.9
		c-1.9,7.2,1.8,14.9,8.1,9.4c3.1-2.8,6.6-8.5,9.1-14.9C802.1,782,797.1,781.5,793.2,778.8z M797.9,761c4-0.6,4.4,3.2,4.1,5.4
		c0,0.1-4.2,4.7-7.8,10.5c3.4,2.6,8.2,3.7,13.5,2.3c3.1-8.8,4-18.3-1.2-22.6c-6.9-5.9-15.1,0.9-16.5,5.9c-0.7,2.8-0.7,5.6,0,7.9
		C793.6,764.6,796.7,761.2,797.9,761z"/>
</g>
<g>
	<path class="st3" d="M355,1012.7l-3.6,15.6h-1.3l-0.1-3.9c-0.1-1.4-0.4-2.7-0.9-3.8c-0.4-1.1-1.1-2.1-1.9-2.9
		c-0.8-0.8-1.9-1.4-3.2-1.9c-1.3-0.5-2.7-0.7-4.3-0.7c-4.2,0-7.9,1.2-11.1,3.5c-4,3-7.2,7.1-9.5,12.5c-1.9,4.5-2.8,9-2.8,13.5
		c0,4.7,1.4,8.4,4.1,11.1c2.7,2.8,6.2,4.2,10.6,4.2c3.3,0,6.2-0.7,8.8-2.2c2.6-1.5,4.9-3.7,7.1-6.8h1.6c-2.6,4.1-5.5,7.2-8.6,9.1
		s-6.9,2.9-11.3,2.9c-3.9,0-7.4-0.8-10.4-2.5c-3-1.6-5.3-4-6.9-6.9c-1.6-3-2.4-6.2-2.4-9.6c0-5.2,1.4-10.3,4.2-15.3
		c2.8-5,6.7-8.9,11.6-11.7c4.9-2.8,9.8-4.3,14.8-4.3c2.3,0,4.9,0.6,7.8,1.7c1.3,0.5,2.2,0.7,2.8,0.7c0.6,0,1-0.1,1.5-0.4
		c0.4-0.2,1.1-0.9,2.1-2H355z"/>
	<path class="st3" d="M386.4,1029.8l-6.9,24l-0.8,3.3c-0.1,0.3-0.1,0.5-0.1,0.7c0,0.4,0.1,0.7,0.4,1c0.2,0.2,0.4,0.3,0.7,0.3
		c0.3,0,0.7-0.2,1.2-0.6c0.9-0.7,2.1-2.1,3.7-4.2l1.2,0.8c-1.6,2.5-3.3,4.3-5,5.6c-1.7,1.3-3.3,1.9-4.8,1.9c-1,0-1.8-0.2-2.3-0.7
		c-0.5-0.5-0.8-1.2-0.8-2.2c0-1.2,0.3-2.7,0.8-4.6l0.7-2.7c-3.1,4-6,6.9-8.5,8.5c-1.9,1.1-3.7,1.7-5.5,1.7c-1.7,0-3.2-0.7-4.5-2.1
		c-1.2-1.4-1.9-3.4-1.9-5.9c0-3.8,1.1-7.7,3.4-11.9c2.2-4.2,5.1-7.5,8.6-10c2.7-2,5.2-3,7.7-3c1.5,0,2.7,0.4,3.6,1.1
		c1,0.8,1.7,2,2.2,3.8l1.3-4L386.4,1029.8z M373.8,1031.7c-1.5,0-3.1,0.7-4.8,2.2c-2.4,2-4.6,5-6.5,8.9c-1.9,3.9-2.8,7.5-2.8,10.7
		c0,1.6,0.4,2.8,1.2,3.8c0.8,0.9,1.7,1.4,2.8,1.4c2.6,0,5.3-1.9,8.4-5.7c4-5,6.1-10.2,6.1-15.5c0-2-0.4-3.4-1.2-4.4
		C376.2,1032.1,375.1,1031.7,373.8,1031.7z"/>
	<path class="st3" d="M404.7,1029.8l-2.5,8.2c2.6-3,4.9-5.1,6.9-6.4c2-1.2,4.1-1.8,6.2-1.8c2.1,0,3.9,0.8,5.4,2.5
		c1.5,1.7,2.2,3.8,2.2,6.5c0,5.2-2.1,10.5-6.3,15.8c-4.2,5.4-9.1,8-14.8,8c-1.2,0-2.2-0.1-3.1-0.4c-0.9-0.2-1.9-0.7-3-1.4l-2.6,9.1
		c-0.5,1.8-0.8,2.9-0.8,3.5s0.1,1,0.4,1.3c0.3,0.4,0.7,0.7,1.3,0.9c0.6,0.2,1.8,0.3,3.6,0.3l-0.3,1.3h-16.7l0.4-1.3
		c2.2-0.1,3.7-0.5,4.4-1.1c0.8-0.7,1.6-2.5,2.4-5.5l9-31c0.5-2,0.8-3.2,0.8-3.7c0-0.6-0.2-1.1-0.5-1.5c-0.4-0.4-0.9-0.5-1.7-0.5
		c-0.7,0-1.7,0.1-2.9,0.3v-1.4L404.7,1029.8z M396.4,1058.1c1.5,1.8,3.4,2.6,5.9,2.6c1.2,0,2.4-0.3,3.7-1s2.5-1.7,3.7-3
		c1.2-1.3,2.3-2.9,3.3-4.6c1-1.8,1.8-3.8,2.6-6.2c0.8-2.4,1.2-4.8,1.2-7.1c0-1.9-0.4-3.3-1.3-4.3c-0.9-1-1.9-1.5-3.1-1.5
		c-2.6,0-5.1,1.5-7.5,4.4c-2.5,2.9-4.3,6.3-5.5,10.3L396.4,1058.1z"/>
	<path class="st3" d="M441.5,1029.8l-7,24.8c-0.5,1.7-0.7,2.7-0.7,3c0,0.4,0.1,0.7,0.3,0.9c0.2,0.2,0.5,0.4,0.8,0.4
		c0.4,0,0.8-0.2,1.3-0.6c1.3-1.1,2.7-2.6,4.1-4.5l1.2,0.8c-1.6,2.4-3.5,4.5-5.7,6.2c-1.6,1.2-3.1,1.8-4.6,1.8c-1,0-1.8-0.3-2.4-0.9
		c-0.6-0.6-0.9-1.3-0.9-2.2c0-0.9,0.3-2.3,0.9-4.4l4.6-15.9c0.7-2.6,1.1-4.2,1.1-4.9c0-0.5-0.2-0.9-0.5-1.3
		c-0.4-0.3-0.9-0.5-1.5-0.5c-0.5,0-1.6,0.1-3.3,0.4v-1.4L441.5,1029.8z M441.1,1015.8c1,0,1.8,0.3,2.5,1c0.7,0.7,1,1.5,1,2.5
		c0,1-0.3,1.8-1,2.5c-0.7,0.7-1.5,1.1-2.5,1.1c-1,0-1.8-0.4-2.5-1.1c-0.7-0.7-1.1-1.5-1.1-2.5c0-1,0.3-1.8,1-2.5
		C439.2,1016.1,440.1,1015.8,441.1,1015.8z"/>
	<path class="st3" d="M466.5,1011.5l-12.1,42.1c-0.6,2.1-0.9,3.4-0.9,3.9c0,0.4,0.1,0.6,0.3,0.9c0.2,0.2,0.5,0.4,0.8,0.4
		c0.5,0,1-0.2,1.5-0.6c1.2-1,2.5-2.5,3.9-4.5l1.1,1.1c-2.2,3.2-4.3,5.4-6.2,6.6c-1.4,0.9-2.7,1.3-4,1.3c-0.9,0-1.6-0.3-2.2-0.9
		c-0.6-0.6-0.9-1.3-0.9-2.1c0-0.8,0.4-2.6,1.1-5.2l9.6-33.2c0.8-2.7,1.1-4.3,1.1-4.7c0-0.6-0.2-1.1-0.7-1.4
		c-0.5-0.4-1.2-0.5-2.1-0.5c-0.5,0-1.3,0.1-2.5,0.3v-1.3L466.5,1011.5z"/>
	<path class="st3" d="M486.7,1011.5l-12.1,42.1c-0.6,2.1-0.9,3.4-0.9,3.9c0,0.4,0.1,0.6,0.3,0.9c0.2,0.2,0.5,0.4,0.8,0.4
		c0.5,0,1-0.2,1.5-0.6c1.2-1,2.5-2.5,3.9-4.5l1.1,1.1c-2.2,3.2-4.3,5.4-6.2,6.6c-1.4,0.9-2.7,1.3-4,1.3c-0.9,0-1.6-0.3-2.2-0.9
		c-0.6-0.6-0.9-1.3-0.9-2.1c0-0.8,0.4-2.6,1.1-5.2l9.6-33.2c0.8-2.7,1.1-4.3,1.1-4.7c0-0.6-0.2-1.1-0.7-1.4
		c-0.5-0.4-1.2-0.5-2.1-0.5c-0.5,0-1.3,0.1-2.5,0.3v-1.3L486.7,1011.5z"/>
	<path class="st3" d="M519.3,1029.8l-6.9,24l-0.8,3.3c-0.1,0.3-0.1,0.5-0.1,0.7c0,0.4,0.1,0.7,0.4,1c0.2,0.2,0.4,0.3,0.7,0.3
		c0.3,0,0.7-0.2,1.2-0.6c0.9-0.7,2.1-2.1,3.7-4.2l1.2,0.8c-1.6,2.5-3.3,4.3-5,5.6c-1.7,1.3-3.3,1.9-4.8,1.9c-1,0-1.8-0.2-2.3-0.7
		c-0.5-0.5-0.8-1.2-0.8-2.2c0-1.2,0.3-2.7,0.8-4.6l0.7-2.7c-3.1,4-6,6.9-8.5,8.5c-1.9,1.1-3.7,1.7-5.5,1.7c-1.7,0-3.2-0.7-4.5-2.1
		c-1.2-1.4-1.9-3.4-1.9-5.9c0-3.8,1.1-7.7,3.4-11.9c2.2-4.2,5.1-7.5,8.6-10c2.7-2,5.2-3,7.7-3c1.5,0,2.7,0.4,3.6,1.1
		c1,0.8,1.7,2,2.2,3.8l1.3-4L519.3,1029.8z M506.7,1031.7c-1.5,0-3.1,0.7-4.8,2.2c-2.4,2-4.6,5-6.5,8.9c-1.9,3.9-2.8,7.5-2.8,10.7
		c0,1.6,0.4,2.8,1.2,3.8c0.8,0.9,1.7,1.4,2.8,1.4c2.6,0,5.3-1.9,8.4-5.7c4-5,6.1-10.2,6.1-15.5c0-2-0.4-3.4-1.2-4.4
		C509.1,1032.1,508,1031.7,506.7,1031.7z"/>
	<path class="st3" d="M572.9,1061.9h-35.6l0.5-1.3c1.9,0,3.2-0.2,3.8-0.4c1-0.4,1.7-1,2.2-1.7c0.7-1.1,1.5-3,2.3-5.9l8.5-29.2
		c0.7-2.4,1.1-4.2,1.1-5.3c0-0.9-0.3-1.6-1-2.1c-0.6-0.5-1.9-0.7-3.7-0.7c-0.4,0-0.7,0-0.9,0l0.4-1.3H570l-0.3,1.3
		c-2.2,0-3.8,0.2-4.7,0.6c-0.9,0.4-1.7,1.1-2.3,2.1c-0.4,0.6-1.1,2.6-2.1,5.9l-8.3,28.7c-0.6,2.2-1,3.7-1,4.5c0,0.6,0.3,1.1,1,1.6
		c0.4,0.4,1.3,0.5,2.7,0.5h4.6c3.4,0,6.1-0.4,8-1.3c1.5-0.6,2.8-1.6,4-2.9c0.6-0.7,1.8-2.5,3.5-5.3l0.9-1.6h1.3L572.9,1061.9z"/>
	<path class="st3" d="M614,1029.8l-6.9,24l-0.8,3.3c-0.1,0.3-0.1,0.5-0.1,0.7c0,0.4,0.1,0.7,0.4,1c0.2,0.2,0.4,0.3,0.7,0.3
		s0.7-0.2,1.2-0.6c0.9-0.7,2.1-2.1,3.7-4.2l1.2,0.8c-1.6,2.5-3.3,4.3-5,5.6c-1.7,1.3-3.3,1.9-4.8,1.9c-1,0-1.8-0.2-2.3-0.7
		c-0.5-0.5-0.8-1.2-0.8-2.2c0-1.2,0.3-2.7,0.8-4.6l0.7-2.7c-3.1,4-6,6.9-8.5,8.5c-1.9,1.1-3.7,1.7-5.5,1.7c-1.7,0-3.2-0.7-4.5-2.1
		c-1.2-1.4-1.9-3.4-1.9-5.9c0-3.8,1.1-7.7,3.4-11.9c2.2-4.2,5.1-7.5,8.6-10c2.7-2,5.2-3,7.7-3c1.5,0,2.7,0.4,3.6,1.1
		c1,0.8,1.7,2,2.2,3.8l1.3-4L614,1029.8z M601.4,1031.7c-1.5,0-3.1,0.7-4.8,2.2c-2.4,2-4.6,5-6.5,8.9c-1.9,3.9-2.8,7.5-2.8,10.7
		c0,1.6,0.4,2.8,1.2,3.8c0.8,0.9,1.7,1.4,2.8,1.4c2.6,0,5.3-1.9,8.4-5.7c4-5,6.1-10.2,6.1-15.5c0-2-0.4-3.4-1.2-4.4
		C603.8,1032.1,602.7,1031.7,601.4,1031.7z"/>
	<path class="st3" d="M657.8,1016.4l-5.5,19h4.5c3.2,0,5.6-0.5,7-1.5c1.4-1,2.7-2.8,3.7-5.4h1.3l-4.9,17.4h-1.4
		c0.4-1.5,0.6-2.7,0.6-3.8c0-1-0.2-1.8-0.6-2.4s-1-1.1-1.7-1.4c-0.7-0.3-2.2-0.4-4.6-0.4h-4.6l-4.6,15.9c-0.4,1.6-0.7,2.7-0.7,3.5
		c0,0.6,0.3,1.2,0.9,1.6c0.4,0.3,1.4,0.5,3,0.5h4.3c4.6,0,8.3-0.8,11.1-2.4c2.8-1.6,5.3-4.4,7.5-8.5h1.3l-4.5,13.3h-37.1l0.4-1.3
		c1.8,0,3.1-0.2,3.7-0.5c0.9-0.4,1.6-1,2.1-1.6c0.6-1,1.4-3,2.2-6.1l8.4-28.9c0.6-2.3,1-4.1,1-5.4c0-0.9-0.3-1.6-0.9-2.1
		c-0.6-0.5-1.8-0.8-3.7-0.8h-0.7l0.4-1.3h34.5l-2.9,11.6h-1.3c0.2-1.1,0.3-2,0.3-2.7c0-1.3-0.3-2.3-0.9-3.2c-0.8-1.1-2-1.9-3.5-2.5
		c-1.1-0.4-3.8-0.7-7.8-0.7H657.8z"/>
	<path class="st3" d="M704.9,1029.8l-2.2,10.9h-1.3c-0.1-3.2-0.8-5.5-2-6.9c-1.2-1.4-2.8-2.2-4.6-2.2c-1.4,0-2.6,0.4-3.5,1.2
		c-0.9,0.8-1.3,1.8-1.3,2.9c0,0.8,0.2,1.5,0.5,2.2c0.3,0.7,1.1,1.7,2.3,3c3,3.4,5,5.9,5.9,7.6c0.9,1.7,1.3,3.3,1.3,4.8
		c0,2.5-1,4.6-3.1,6.5c-2,1.9-4.6,2.8-7.7,2.8c-1.7,0-3.7-0.4-5.9-1.2c-0.8-0.3-1.4-0.4-1.8-0.4c-1.1,0-1.9,0.5-2.4,1.6h-1.3
		l2.2-11.5h1.3c0.1,3.6,0.8,6.2,2.2,7.6c1.3,1.5,3.2,2.2,5.5,2.2c1.8,0,3.2-0.5,4.3-1.5c1.1-1,1.6-2.2,1.6-3.7
		c0-0.9-0.2-1.8-0.6-2.6c-0.7-1.4-2.1-3.4-4.2-5.9c-2.1-2.5-3.5-4.4-4.1-5.6c-0.6-1.2-0.9-2.5-0.9-3.8c0-2.3,0.8-4.2,2.5-5.8
		c1.7-1.6,3.8-2.4,6.4-2.4c0.8,0,1.5,0.1,2.1,0.2c0.3,0.1,1.1,0.4,2.3,0.8c1.2,0.5,2,0.7,2.4,0.7c1,0,1.8-0.6,2.6-1.7H704.9z"/>
	<path class="st3" d="M722.9,1029.8l-2.5,8.2c2.6-3,4.9-5.1,6.9-6.4c2-1.2,4.1-1.8,6.2-1.8c2.1,0,3.9,0.8,5.4,2.5
		c1.5,1.7,2.2,3.8,2.2,6.5c0,5.2-2.1,10.5-6.3,15.8c-4.2,5.4-9.1,8-14.8,8c-1.2,0-2.2-0.1-3.1-0.4c-0.9-0.2-1.9-0.7-3-1.4l-2.6,9.1
		c-0.5,1.8-0.8,2.9-0.8,3.5s0.1,1,0.4,1.3c0.3,0.4,0.7,0.7,1.3,0.9c0.6,0.2,1.8,0.3,3.6,0.3l-0.3,1.3h-16.7l0.4-1.3
		c2.2-0.1,3.7-0.5,4.4-1.1s1.6-2.5,2.4-5.5l9-31c0.5-2,0.8-3.2,0.8-3.7c0-0.6-0.2-1.1-0.5-1.5s-0.9-0.5-1.7-0.5
		c-0.7,0-1.7,0.1-2.9,0.3v-1.4L722.9,1029.8z M714.6,1058.1c1.5,1.8,3.4,2.6,5.9,2.6c1.2,0,2.4-0.3,3.7-1s2.5-1.7,3.7-3
		c1.2-1.3,2.3-2.9,3.3-4.6s1.8-3.8,2.6-6.2c0.8-2.4,1.2-4.8,1.2-7.1c0-1.9-0.4-3.3-1.3-4.3c-0.9-1-1.9-1.5-3.1-1.5
		c-2.6,0-5.1,1.5-7.5,4.4c-2.5,2.9-4.3,6.3-5.5,10.3L714.6,1058.1z"/>
	<path class="st3" d="M751.7,1048.5c-0.1,1.2-0.2,2.1-0.2,2.9c0,2.1,0.7,3.9,2.2,5.4c1.5,1.5,3.3,2.2,5.4,2.2c1.7,0,3.3-0.4,4.9-1.1
		c1.6-0.7,3.9-2.2,7-4.6l0.7,1c-5.6,5.5-10.9,8.3-16,8.3c-3.4,0-6-1.1-7.8-3.3c-1.7-2.2-2.6-4.6-2.6-7.2c0-3.5,1.1-7.1,3.3-10.8
		c2.2-3.7,4.9-6.5,8.2-8.6c3.3-2.1,6.6-3.1,10.1-3.1c2.5,0,4.3,0.5,5.5,1.5c1.2,1,1.8,2.2,1.8,3.6c0,2-0.8,3.8-2.3,5.6
		c-2.1,2.3-5.1,4.2-9.1,5.7C760.2,1047.2,756.5,1048,751.7,1048.5z M752,1046.8c3.5-0.4,6.3-1.1,8.5-2.1c2.9-1.3,5.1-2.8,6.5-4.6
		s2.2-3.5,2.2-5.2c0-1-0.3-1.8-0.9-2.4c-0.6-0.6-1.5-0.9-2.7-0.9c-2.4,0-5,1.3-7.7,3.8C755.2,1038,753.3,1041.8,752,1046.8z"/>
	<path class="st3" d="M779.1,1031.8l12.2-2l-5.1,17.2c4.1-7.1,7.9-12,11.3-14.8c1.9-1.6,3.5-2.4,4.7-2.4c0.8,0,1.4,0.2,1.8,0.7
		c0.4,0.5,0.7,1.1,0.7,2c0,1.6-0.4,3-1.2,4.4c-0.6,1.1-1.4,1.6-2.5,1.6c-0.5,0-1-0.2-1.4-0.5c-0.4-0.4-0.6-0.9-0.7-1.6
		c0-0.4-0.1-0.7-0.3-0.9c-0.2-0.2-0.4-0.3-0.7-0.3c-0.4,0-0.8,0.1-1.1,0.3c-0.6,0.3-1.6,1.2-2.8,2.8c-2,2.3-4.1,5.3-6.4,9
		c-1,1.6-1.8,3.3-2.6,5.3c-1,2.7-1.5,4.3-1.7,4.9l-1.1,4.4h-5.4l6.6-22c0.7-2.6,1.1-4.4,1.1-5.5c0-0.4-0.2-0.8-0.5-1.1
		c-0.5-0.4-1.1-0.6-1.8-0.6c-0.5,0-1.4,0.1-2.7,0.3L779.1,1031.8z"/>
	<path class="st3" d="M837.5,1029.8l-6.9,24l-0.8,3.3c-0.1,0.3-0.1,0.5-0.1,0.7c0,0.4,0.1,0.7,0.4,1c0.2,0.2,0.4,0.3,0.7,0.3
		c0.3,0,0.7-0.2,1.2-0.6c0.9-0.7,2.1-2.1,3.7-4.2l1.2,0.8c-1.6,2.5-3.3,4.3-5,5.6c-1.7,1.3-3.3,1.9-4.8,1.9c-1,0-1.8-0.2-2.3-0.7
		c-0.5-0.5-0.8-1.2-0.8-2.2c0-1.2,0.3-2.7,0.8-4.6l0.7-2.7c-3.1,4-6,6.9-8.5,8.5c-1.9,1.1-3.7,1.7-5.5,1.7c-1.7,0-3.2-0.7-4.5-2.1
		s-1.9-3.4-1.9-5.9c0-3.8,1.1-7.7,3.4-11.9c2.2-4.2,5.1-7.5,8.6-10c2.7-2,5.2-3,7.7-3c1.5,0,2.7,0.4,3.6,1.1c1,0.8,1.7,2,2.2,3.8
		l1.3-4L837.5,1029.8z M824.9,1031.7c-1.5,0-3.1,0.7-4.8,2.2c-2.4,2-4.6,5-6.5,8.9c-1.9,3.9-2.8,7.5-2.8,10.7c0,1.6,0.4,2.8,1.2,3.8
		s1.7,1.4,2.8,1.4c2.6,0,5.3-1.9,8.4-5.7c4-5,6.1-10.2,6.1-15.5c0-2-0.4-3.4-1.2-4.4C827.3,1032.1,826.3,1031.7,824.9,1031.7z"/>
	<path class="st3" d="M855.8,1029.8L851,1046c4.4-6.6,7.8-10.9,10.1-13c2.4-2.1,4.6-3.1,6.8-3.1c1.2,0,2.1,0.4,2.9,1.2
		c0.8,0.8,1.1,1.8,1.1,3c0,1.4-0.3,3.3-1,5.7l-4.3,14.9c-0.5,1.7-0.7,2.8-0.7,3.2c0,0.3,0.1,0.6,0.3,0.8c0.2,0.2,0.4,0.3,0.6,0.3
		c0.3,0,0.6-0.1,1-0.4c1.3-1,2.6-2.5,4.1-4.5l1.1,0.7c-2.2,3.1-4.3,5.4-6.2,6.7c-1.4,0.9-2.6,1.4-3.7,1.4c-0.9,0-1.6-0.3-2.1-0.8
		c-0.5-0.5-0.8-1.2-0.8-2.1c0-1.1,0.4-3.1,1.2-5.8l4.1-14.2c0.5-1.8,0.7-3.1,0.7-4.1c0-0.5-0.2-0.9-0.5-1.1
		c-0.3-0.3-0.7-0.4-1.1-0.4c-0.6,0-1.4,0.3-2.4,0.8c-1.7,1.1-3.5,2.8-5.4,5.3c-1.9,2.4-3.9,5.6-6,9.3c-1.1,2-2,4.2-2.8,6.6l-1.8,5.8
		h-5.3l6.5-22.2c0.8-2.7,1.1-4.3,1.1-4.8s-0.2-1-0.6-1.4c-0.4-0.4-0.9-0.6-1.5-0.6c-0.3,0-0.8,0.1-1.5,0.2l-1.4,0.2l-0.2-1.3
		L855.8,1029.8z"/>
	<path class="st3" d="M882.1,1030.7h22.5v0.9l-24.5,25.5h10.3c2.5,0,4-0.1,4.7-0.3c0.7-0.2,1.3-0.6,1.8-1.2c0.6-0.6,1.2-1.7,1.8-3.3
		h1.3l-3.1,9.6h-23v-1l24.5-25.5h-10.2c-2.1,0-3.4,0.1-3.9,0.2c-0.7,0.1-1.3,0.5-2,1.1c-0.6,0.6-1.3,1.6-2,3h-1.4L882.1,1030.7z"/>
	<path class="st3" d="M938.3,1029.8l-6.9,24l-0.8,3.3c-0.1,0.3-0.1,0.5-0.1,0.7c0,0.4,0.1,0.7,0.4,1c0.2,0.2,0.4,0.3,0.7,0.3
		c0.3,0,0.7-0.2,1.2-0.6c0.9-0.7,2.1-2.1,3.7-4.2l1.2,0.8c-1.6,2.5-3.3,4.3-5,5.6c-1.7,1.3-3.3,1.9-4.8,1.9c-1,0-1.8-0.2-2.3-0.7
		c-0.5-0.5-0.8-1.2-0.8-2.2c0-1.2,0.3-2.7,0.8-4.6l0.7-2.7c-3.1,4-6,6.9-8.5,8.5c-1.9,1.1-3.7,1.7-5.5,1.7c-1.7,0-3.2-0.7-4.5-2.1
		s-1.9-3.4-1.9-5.9c0-3.8,1.1-7.7,3.4-11.9c2.2-4.2,5.1-7.5,8.6-10c2.7-2,5.2-3,7.7-3c1.5,0,2.7,0.4,3.6,1.1c1,0.8,1.7,2,2.2,3.8
		l1.3-4L938.3,1029.8z M925.6,1031.7c-1.5,0-3.1,0.7-4.8,2.2c-2.4,2-4.6,5-6.5,8.9c-1.9,3.9-2.8,7.5-2.8,10.7c0,1.6,0.4,2.8,1.2,3.8
		s1.7,1.4,2.8,1.4c2.6,0,5.3-1.9,8.4-5.7c4-5,6.1-10.2,6.1-15.5c0-2-0.4-3.4-1.2-4.4C928,1032.1,927,1031.7,925.6,1031.7z"/>
	<path class="st3" d="M238.1,1184.9l-1.2,0.6c-2.8-5.4-4.8-10.1-6.1-14.2c-0.9-3.2-1.4-6.5-1.4-9.7c0-7.6,1.8-14.4,5.3-20.4
		c4.3-7.4,11.3-14.5,21-21.5l0.8,1.2c-4.4,3.3-7.9,6.9-10.7,10.9c-3.4,5-6.2,11-8.4,18.1c-2.2,7.1-3.3,13.5-3.3,19.3
		C234.1,1173.6,235.5,1178.9,238.1,1184.9z"/>
	<path class="st3" d="M266.6,1143.4h22.1l3.5-11.8c0.7-2.3,1-4.1,1-5.4c0-0.6-0.1-1.1-0.4-1.6c-0.3-0.4-0.7-0.7-1.4-1
		s-1.8-0.3-3.6-0.3l0.4-1.3h19.3l-0.4,1.3c-1.6,0-2.8,0.1-3.6,0.5c-1.1,0.5-2,1.1-2.6,1.9c-0.8,1.1-1.6,3.1-2.4,5.8l-8.4,29
		c-0.7,2.4-1.1,4.1-1.1,5.2c0,0.9,0.3,1.6,0.9,2c0.6,0.5,2.1,0.8,4.5,0.9l-0.4,1.3h-18.7l0.5-1.3c1.8,0,3.1-0.2,3.7-0.5
		c0.9-0.4,1.6-1,2.1-1.6c0.6-0.9,1.4-2.9,2.2-6l4.4-14.7h-22.3l-4.4,14.7c-0.7,2.4-1,4.1-1,5.2c0,0.9,0.3,1.6,0.9,2
		c0.6,0.5,2.1,0.8,4.4,0.9l-0.3,1.3h-18.8l0.4-1.3c1.9,0,3.1-0.2,3.7-0.5c0.9-0.4,1.6-1,2.1-1.6c0.6-1,1.4-3,2.3-6l8.5-29
		c0.7-2.4,1-4.2,1-5.4c0-0.6-0.1-1.1-0.4-1.6c-0.3-0.4-0.8-0.7-1.4-1c-0.6-0.2-1.9-0.3-3.7-0.3l0.4-1.3h19l-0.4,1.3
		c-1.6,0-2.8,0.1-3.5,0.5c-1.1,0.5-1.9,1.1-2.4,1.9c-0.7,1.1-1.5,3-2.4,5.9L266.6,1143.4z"/>
	<path class="st3" d="M334.6,1149c0,3.5-0.9,7.1-2.8,10.5c-1.9,3.5-4.5,6.2-7.8,8.2c-3.3,2-6.6,3-9.8,3c-3.2,0-5.9-1-7.9-3.1
		c-2.1-2.1-3.1-4.7-3.1-8c0-3.5,1-7,3-10.5c2-3.5,4.7-6.3,8-8.3c3.3-2,6.6-3.1,9.7-3.1c3.1,0,5.7,1,7.7,3.1
		C333.5,1143.1,334.6,1145.7,334.6,1149z M328.7,1146.6c0-2.2-0.5-3.9-1.6-5.1c-1.1-1.2-2.5-1.8-4.2-1.8c-3.5,0-6.6,2.5-9.6,7.5
		c-2.9,5-4.4,9.9-4.4,14.8c0,2.2,0.6,4,1.7,5.2c1.1,1.2,2.6,1.8,4.3,1.8c3.3,0,6.5-2.5,9.4-7.4S328.7,1151.7,328.7,1146.6z"/>
	<path class="st3" d="M356.1,1129.1l-2.8,9.6h5.6l-0.6,2.2h-5.5l-6.1,20.8c-0.6,2.3-1,3.7-1,4.4c0,0.4,0.1,0.7,0.3,0.9
		s0.4,0.3,0.7,0.3c0.6,0,1.4-0.4,2.3-1.3c0.6-0.5,1.9-1.9,3.8-4.4l1.1,0.9c-2.2,3.1-4.2,5.4-6.2,6.7c-1.3,0.9-2.7,1.3-4,1.3
		c-1,0-1.9-0.3-2.5-1s-1-1.5-1-2.5c0-1.3,0.4-3.2,1.1-5.8l5.9-20.5h-5.4l0.4-1.4c2.6-0.7,4.8-1.8,6.5-3.2c1.7-1.4,3.6-3.8,5.8-7.3
		H356.1z"/>
	<path class="st3" d="M366,1156.6c-0.1,1.2-0.2,2.1-0.2,2.9c0,2.1,0.7,3.9,2.2,5.4c1.5,1.5,3.3,2.2,5.4,2.2c1.7,0,3.3-0.4,4.9-1.1
		c1.6-0.7,3.9-2.2,7-4.6l0.7,1c-5.6,5.5-10.9,8.3-16,8.3c-3.4,0-6-1.1-7.8-3.3c-1.7-2.2-2.6-4.6-2.6-7.2c0-3.5,1.1-7.1,3.3-10.8
		c2.2-3.7,4.9-6.5,8.2-8.6c3.3-2.1,6.6-3.1,10.1-3.1c2.5,0,4.3,0.5,5.5,1.5c1.2,1,1.8,2.2,1.8,3.6c0,2-0.8,3.8-2.3,5.6
		c-2.1,2.3-5.1,4.2-9.1,5.7C374.6,1155.3,370.8,1156.1,366,1156.6z M366.3,1154.9c3.5-0.4,6.3-1.1,8.5-2.1c2.9-1.3,5.1-2.8,6.5-4.6
		c1.5-1.8,2.2-3.5,2.2-5.2c0-1-0.3-1.8-0.9-2.4c-0.6-0.6-1.5-0.9-2.7-0.9c-2.4,0-5,1.3-7.7,3.8
		C369.6,1146.1,367.6,1149.9,366.3,1154.9z"/>
	<path class="st3" d="M411.2,1119.6l-12.1,42.1c-0.6,2.1-0.9,3.4-0.9,3.9c0,0.4,0.1,0.6,0.3,0.9c0.2,0.2,0.5,0.4,0.8,0.4
		c0.5,0,1-0.2,1.5-0.6c1.2-1,2.5-2.5,3.9-4.5l1.1,1.1c-2.2,3.2-4.3,5.4-6.2,6.6c-1.4,0.9-2.7,1.3-4,1.3c-0.9,0-1.6-0.3-2.2-0.9
		c-0.6-0.6-0.9-1.3-0.9-2.1c0-0.8,0.4-2.6,1.1-5.2l9.6-33.2c0.8-2.7,1.1-4.3,1.1-4.7c0-0.6-0.2-1.1-0.7-1.4
		c-0.5-0.4-1.2-0.5-2.1-0.5c-0.5,0-1.3,0.1-2.5,0.3v-1.3L411.2,1119.6z"/>
	<path class="st3" d="M451.4,1124.5l-5.5,19h4.5c3.2,0,5.6-0.5,7-1.5c1.4-1,2.7-2.8,3.7-5.4h1.3l-4.9,17.4H456
		c0.4-1.5,0.6-2.7,0.6-3.8c0-1-0.2-1.8-0.6-2.4c-0.4-0.6-1-1.1-1.7-1.4c-0.7-0.3-2.2-0.4-4.6-0.4h-4.6l-4.6,15.9
		c-0.4,1.6-0.7,2.7-0.7,3.5c0,0.6,0.3,1.2,0.9,1.6c0.4,0.3,1.4,0.5,3,0.5h4.3c4.6,0,8.3-0.8,11.1-2.4c2.8-1.6,5.3-4.4,7.5-8.5h1.3
		l-4.5,13.3h-37.1l0.4-1.3c1.8,0,3.1-0.2,3.7-0.5c0.9-0.4,1.6-1,2.1-1.6c0.6-1,1.4-3,2.2-6.1l8.4-28.9c0.6-2.3,1-4.1,1-5.4
		c0-0.9-0.3-1.6-0.9-2.1s-1.8-0.8-3.7-0.8h-0.7l0.4-1.3h34.5l-2.9,11.6h-1.3c0.2-1.1,0.3-2,0.3-2.7c0-1.3-0.3-2.3-0.9-3.2
		c-0.8-1.1-2-1.9-3.5-2.5c-1.1-0.4-3.8-0.7-7.8-0.7H451.4z"/>
	<path class="st3" d="M498.5,1137.9l-2.2,10.9H495c-0.1-3.2-0.8-5.5-2-6.9c-1.2-1.4-2.8-2.2-4.6-2.2c-1.4,0-2.6,0.4-3.5,1.2
		c-0.9,0.8-1.3,1.8-1.3,2.9c0,0.8,0.2,1.5,0.5,2.2c0.3,0.7,1.1,1.7,2.3,3c3,3.4,5,5.9,5.9,7.6c0.9,1.7,1.3,3.3,1.3,4.8
		c0,2.5-1,4.6-3.1,6.5c-2,1.9-4.6,2.8-7.7,2.8c-1.7,0-3.7-0.4-5.9-1.2c-0.8-0.3-1.4-0.4-1.8-0.4c-1.1,0-1.9,0.5-2.4,1.6h-1.3
		l2.2-11.5h1.3c0.1,3.6,0.8,6.2,2.2,7.6c1.3,1.5,3.2,2.2,5.5,2.2c1.8,0,3.2-0.5,4.3-1.5c1.1-1,1.6-2.2,1.6-3.7
		c0-0.9-0.2-1.8-0.6-2.6c-0.7-1.4-2.1-3.4-4.2-5.9c-2.1-2.5-3.5-4.4-4.1-5.6c-0.6-1.2-0.9-2.5-0.9-3.8c0-2.3,0.8-4.2,2.5-5.8
		c1.7-1.6,3.8-2.4,6.4-2.4c0.8,0,1.5,0.1,2.1,0.2c0.3,0.1,1.1,0.4,2.3,0.8c1.2,0.5,2,0.7,2.4,0.7c1,0,1.8-0.6,2.6-1.7H498.5z"/>
	<path class="st3" d="M519.2,1129.1l-2.8,9.6h5.6l-0.6,2.2h-5.5l-6.1,20.8c-0.6,2.3-1,3.7-1,4.4c0,0.4,0.1,0.7,0.3,0.9
		s0.4,0.3,0.7,0.3c0.6,0,1.4-0.4,2.3-1.3c0.6-0.5,1.9-1.9,3.8-4.4l1.1,0.9c-2.2,3.1-4.2,5.4-6.2,6.7c-1.3,0.9-2.7,1.3-4,1.3
		c-1,0-1.9-0.3-2.5-1s-1-1.5-1-2.5c0-1.3,0.4-3.2,1.1-5.8l5.9-20.5h-5.4l0.4-1.4c2.6-0.7,4.8-1.8,6.5-3.2c1.7-1.4,3.6-3.8,5.8-7.3
		H519.2z"/>
	<path class="st3" d="M529.2,1156.6c-0.1,1.2-0.2,2.1-0.2,2.9c0,2.1,0.7,3.9,2.2,5.4c1.5,1.5,3.3,2.2,5.4,2.2c1.7,0,3.3-0.4,4.9-1.1
		c1.6-0.7,3.9-2.2,7-4.6l0.7,1c-5.6,5.5-10.9,8.3-16,8.3c-3.4,0-6-1.1-7.8-3.3c-1.7-2.2-2.6-4.6-2.6-7.2c0-3.5,1.1-7.1,3.3-10.8
		c2.2-3.7,4.9-6.5,8.2-8.6c3.3-2.1,6.6-3.1,10.1-3.1c2.5,0,4.3,0.5,5.5,1.5c1.2,1,1.8,2.2,1.8,3.6c0,2-0.8,3.8-2.3,5.6
		c-2.1,2.3-5.1,4.2-9.1,5.7C537.7,1155.3,534,1156.1,529.2,1156.6z M529.4,1154.9c3.5-0.4,6.3-1.1,8.5-2.1c2.9-1.3,5.1-2.8,6.5-4.6
		c1.5-1.8,2.2-3.5,2.2-5.2c0-1-0.3-1.8-0.9-2.4c-0.6-0.6-1.5-0.9-2.7-0.9c-2.4,0-5,1.3-7.7,3.8
		C532.7,1146.1,530.7,1149.9,529.4,1154.9z"/>
	<path class="st3" d="M574.3,1119.6l-12.1,42.1c-0.6,2.1-0.9,3.4-0.9,3.9c0,0.4,0.1,0.6,0.3,0.9c0.2,0.2,0.5,0.4,0.8,0.4
		c0.5,0,1-0.2,1.5-0.6c1.2-1,2.5-2.5,3.9-4.5l1.1,1.1c-2.2,3.2-4.3,5.4-6.2,6.6c-1.4,0.9-2.7,1.3-4,1.3c-0.9,0-1.6-0.3-2.2-0.9
		c-0.6-0.6-0.9-1.3-0.9-2.1c0-0.8,0.4-2.6,1.1-5.2l9.6-33.2c0.8-2.7,1.1-4.3,1.1-4.7c0-0.6-0.2-1.1-0.7-1.4
		c-0.5-0.4-1.2-0.5-2.1-0.5c-0.5,0-1.3,0.1-2.5,0.3v-1.3L574.3,1119.6z"/>
	<path class="st3" d="M606.9,1137.9l-6.9,24l-0.8,3.3c-0.1,0.3-0.1,0.5-0.1,0.7c0,0.4,0.1,0.7,0.4,1c0.2,0.2,0.4,0.3,0.7,0.3
		c0.3,0,0.7-0.2,1.2-0.6c0.9-0.7,2.1-2.1,3.7-4.2l1.2,0.8c-1.6,2.5-3.3,4.3-5,5.6c-1.7,1.3-3.3,1.9-4.8,1.9c-1,0-1.8-0.2-2.3-0.7
		c-0.5-0.5-0.8-1.2-0.8-2.2c0-1.2,0.3-2.7,0.8-4.6l0.7-2.7c-3.1,4-6,6.9-8.5,8.5c-1.9,1.1-3.7,1.7-5.5,1.7c-1.7,0-3.2-0.7-4.5-2.1
		c-1.2-1.4-1.9-3.4-1.9-5.9c0-3.8,1.1-7.7,3.4-11.9c2.2-4.2,5.1-7.5,8.6-10c2.7-2,5.2-3,7.7-3c1.5,0,2.7,0.4,3.6,1.1
		c1,0.8,1.7,2,2.2,3.8l1.3-4L606.9,1137.9z M594.3,1139.7c-1.5,0-3.1,0.7-4.8,2.2c-2.4,2-4.6,5-6.5,8.9c-1.9,3.9-2.8,7.5-2.8,10.7
		c0,1.6,0.4,2.8,1.2,3.8c0.8,0.9,1.7,1.4,2.8,1.4c2.6,0,5.3-1.9,8.4-5.7c4-5,6.1-10.2,6.1-15.5c0-2-0.4-3.4-1.2-4.4
		C596.7,1140.2,595.6,1139.7,594.3,1139.7z"/>
	<path class="st3" d="M612.9,1139.9l12.2-2l-5.1,17.2c4.1-7.1,7.9-12,11.3-14.8c1.9-1.6,3.5-2.4,4.7-2.4c0.8,0,1.4,0.2,1.8,0.7
		c0.4,0.5,0.7,1.1,0.7,2c0,1.6-0.4,3-1.2,4.4c-0.6,1.1-1.4,1.6-2.5,1.6c-0.5,0-1-0.2-1.4-0.5c-0.4-0.4-0.6-0.9-0.7-1.6
		c0-0.4-0.1-0.7-0.3-0.9c-0.2-0.2-0.4-0.3-0.7-0.3c-0.4,0-0.8,0.1-1.1,0.3c-0.6,0.3-1.6,1.2-2.8,2.8c-2,2.3-4.1,5.3-6.4,9
		c-1,1.6-1.8,3.3-2.6,5.3c-1,2.7-1.5,4.3-1.7,4.9l-1.1,4.4h-5.4l6.6-22c0.7-2.6,1.1-4.4,1.1-5.5c0-0.4-0.2-0.8-0.5-1.1
		c-0.5-0.4-1.1-0.6-1.8-0.6c-0.5,0-1.4,0.1-2.7,0.3L612.9,1139.9z"/>
	<path class="st3" d="M688.7,1170h-35.6l0.5-1.3c1.9,0,3.2-0.2,3.8-0.4c1-0.4,1.7-1,2.2-1.7c0.7-1.1,1.5-3,2.3-5.9l8.5-29.2
		c0.7-2.4,1.1-4.2,1.1-5.3c0-0.9-0.3-1.6-1-2.1c-0.6-0.5-1.9-0.7-3.7-0.7c-0.4,0-0.7,0-0.9,0l0.4-1.3h19.6l-0.3,1.3
		c-2.2,0-3.8,0.2-4.7,0.6c-0.9,0.4-1.7,1.1-2.3,2.1c-0.4,0.6-1.1,2.6-2.1,5.9l-8.3,28.7c-0.6,2.2-1,3.7-1,4.5c0,0.6,0.3,1.1,1,1.6
		c0.4,0.4,1.3,0.5,2.7,0.5h4.6c3.4,0,6.1-0.4,8-1.3c1.5-0.6,2.8-1.6,4-2.9c0.6-0.7,1.8-2.5,3.5-5.3l0.9-1.6h1.3L688.7,1170z"/>
	<path class="st3" d="M729.8,1137.9l-6.9,24l-0.8,3.3c-0.1,0.3-0.1,0.5-0.1,0.7c0,0.4,0.1,0.7,0.4,1c0.2,0.2,0.4,0.3,0.7,0.3
		s0.7-0.2,1.2-0.6c0.9-0.7,2.1-2.1,3.7-4.2l1.2,0.8c-1.6,2.5-3.3,4.3-5,5.6c-1.7,1.3-3.3,1.9-4.8,1.9c-1,0-1.8-0.2-2.3-0.7
		c-0.5-0.5-0.8-1.2-0.8-2.2c0-1.2,0.3-2.7,0.8-4.6l0.7-2.7c-3.1,4-6,6.9-8.5,8.5c-1.9,1.1-3.7,1.7-5.5,1.7c-1.7,0-3.2-0.7-4.5-2.1
		c-1.2-1.4-1.9-3.4-1.9-5.9c0-3.8,1.1-7.7,3.4-11.9c2.2-4.2,5.1-7.5,8.6-10c2.7-2,5.2-3,7.7-3c1.5,0,2.7,0.4,3.6,1.1
		c1,0.8,1.7,2,2.2,3.8l1.3-4L729.8,1137.9z M717.2,1139.7c-1.5,0-3.1,0.7-4.8,2.2c-2.4,2-4.6,5-6.5,8.9c-1.9,3.9-2.8,7.5-2.8,10.7
		c0,1.6,0.4,2.8,1.2,3.8c0.8,0.9,1.7,1.4,2.8,1.4c2.6,0,5.3-1.9,8.4-5.7c4-5,6.1-10.2,6.1-15.5c0-2-0.4-3.4-1.2-4.4
		C719.6,1140.2,718.6,1139.7,717.2,1139.7z"/>
	<path class="st3" d="M773.7,1124.5l-5.7,19h6.3c2.8,0,4.9-0.4,6.3-1.3c1.4-0.9,2.9-2.7,4.4-5.6h1.3l-5,17.5H780
		c0.4-1.4,0.5-2.6,0.5-3.5c0-1.4-0.5-2.6-1.5-3.3c-1-0.8-2.8-1.2-5.4-1.2h-6.4l-4.2,14.5c-0.8,2.6-1.1,4.3-1.1,5.1s0.3,1.5,1,2
		c0.7,0.5,2.2,0.8,4.8,0.9l-0.4,1.3h-19l0.4-1.3c1.8,0,3.1-0.2,3.7-0.5c0.9-0.4,1.6-1,2.1-1.6c0.6-1,1.4-3,2.3-6l8.4-28.9
		c0.7-2.3,1.1-4.2,1.1-5.5c0-0.6-0.2-1.1-0.5-1.6c-0.3-0.4-0.8-0.7-1.4-1c-0.6-0.2-1.8-0.3-3.6-0.3l0.4-1.3h37.3l-3.5,12.2h-1.4
		c0.3-1.5,0.4-2.7,0.4-3.7c0-1.6-0.4-2.8-1.3-3.7c-0.9-0.9-2-1.6-3.3-1.9c-0.9-0.2-3-0.4-6.3-0.4H773.7z"/>
	<path class="st3" d="M828,1149c0,3.5-0.9,7.1-2.8,10.5c-1.9,3.5-4.5,6.2-7.8,8.2c-3.3,2-6.6,3-9.8,3c-3.2,0-5.9-1-7.9-3.1
		c-2.1-2.1-3.1-4.7-3.1-8c0-3.5,1-7,3-10.5c2-3.5,4.7-6.3,8-8.3c3.3-2,6.6-3.1,9.7-3.1c3.1,0,5.7,1,7.7,3.1
		C827,1143.1,828,1145.7,828,1149z M822.1,1146.6c0-2.2-0.5-3.9-1.6-5.1c-1.1-1.2-2.5-1.8-4.2-1.8c-3.5,0-6.6,2.5-9.6,7.5
		s-4.4,9.9-4.4,14.8c0,2.2,0.6,4,1.7,5.2c1.1,1.2,2.6,1.8,4.3,1.8c3.3,0,6.5-2.5,9.4-7.4C820.7,1156.7,822.1,1151.7,822.1,1146.6z"
		/>
	<path class="st3" d="M846.7,1137.9L842,1154c4.4-6.6,7.8-10.9,10.1-13c2.4-2.1,4.6-3.1,6.8-3.1c1.2,0,2.1,0.4,2.9,1.2
		c0.8,0.8,1.1,1.8,1.1,3c0,1.4-0.3,3.3-1,5.7l-4.3,14.9c-0.5,1.7-0.7,2.8-0.7,3.2c0,0.3,0.1,0.6,0.3,0.8c0.2,0.2,0.4,0.3,0.6,0.3
		c0.3,0,0.6-0.1,1-0.4c1.3-1,2.6-2.5,4.1-4.5l1.1,0.7c-2.2,3.1-4.3,5.4-6.2,6.7c-1.4,0.9-2.6,1.4-3.7,1.4c-0.9,0-1.6-0.3-2.1-0.8
		c-0.5-0.5-0.8-1.2-0.8-2.1c0-1.1,0.4-3.1,1.2-5.8l4.1-14.2c0.5-1.8,0.7-3.1,0.7-4.1c0-0.5-0.2-0.9-0.5-1.1
		c-0.3-0.3-0.7-0.4-1.1-0.4c-0.6,0-1.4,0.3-2.4,0.8c-1.7,1.1-3.5,2.8-5.4,5.3c-1.9,2.4-3.9,5.6-6,9.3c-1.1,2-2,4.2-2.8,6.6l-1.8,5.8
		H832l6.5-22.2c0.8-2.7,1.1-4.3,1.1-4.8c0-0.5-0.2-1-0.6-1.4c-0.4-0.4-0.9-0.6-1.5-0.6c-0.3,0-0.8,0.1-1.5,0.2l-1.4,0.2l-0.2-1.3
		L846.7,1137.9z"/>
	<path class="st3" d="M885.7,1129.1l-2.8,9.6h5.6l-0.6,2.2h-5.5l-6.1,20.8c-0.6,2.3-1,3.7-1,4.4c0,0.4,0.1,0.7,0.3,0.9
		s0.4,0.3,0.7,0.3c0.6,0,1.4-0.4,2.3-1.3c0.6-0.5,1.9-1.9,3.8-4.4l1.1,0.9c-2.2,3.1-4.2,5.4-6.2,6.7c-1.3,0.9-2.7,1.3-4,1.3
		c-1,0-1.9-0.3-2.5-1c-0.7-0.6-1-1.5-1-2.5c0-1.3,0.4-3.2,1.1-5.8l5.9-20.5h-5.4l0.4-1.4c2.6-0.7,4.8-1.8,6.5-3.2
		c1.7-1.4,3.6-3.8,5.8-7.3H885.7z"/>
	<path class="st3" d="M921.1,1137.9l-6.9,24l-0.8,3.3c-0.1,0.3-0.1,0.5-0.1,0.7c0,0.4,0.1,0.7,0.4,1c0.2,0.2,0.4,0.3,0.7,0.3
		c0.3,0,0.7-0.2,1.2-0.6c0.9-0.7,2.1-2.1,3.7-4.2l1.2,0.8c-1.6,2.5-3.3,4.3-5,5.6c-1.7,1.3-3.3,1.9-4.8,1.9c-1,0-1.8-0.2-2.3-0.7
		c-0.5-0.5-0.8-1.2-0.8-2.2c0-1.2,0.3-2.7,0.8-4.6l0.7-2.7c-3.1,4-6,6.9-8.5,8.5c-1.9,1.1-3.7,1.7-5.5,1.7c-1.7,0-3.2-0.7-4.5-2.1
		c-1.2-1.4-1.9-3.4-1.9-5.9c0-3.8,1.1-7.7,3.4-11.9c2.2-4.2,5.1-7.5,8.6-10c2.7-2,5.2-3,7.7-3c1.5,0,2.7,0.4,3.6,1.1
		c1,0.8,1.7,2,2.2,3.8l1.3-4L921.1,1137.9z M908.5,1139.7c-1.5,0-3.1,0.7-4.8,2.2c-2.4,2-4.6,5-6.5,8.9c-1.9,3.9-2.8,7.5-2.8,10.7
		c0,1.6,0.4,2.8,1.2,3.8c0.8,0.9,1.7,1.4,2.8,1.4c2.6,0,5.3-1.9,8.4-5.7c4-5,6.1-10.2,6.1-15.5c0-2-0.4-3.4-1.2-4.4
		C910.9,1140.2,909.8,1139.7,908.5,1139.7z"/>
	<path class="st3" d="M939.3,1137.9l-4.7,16.1c4.4-6.6,7.8-10.9,10.1-13c2.4-2.1,4.6-3.1,6.8-3.1c1.2,0,2.1,0.4,2.9,1.2
		c0.8,0.8,1.1,1.8,1.1,3c0,1.4-0.3,3.3-1,5.7l-4.3,14.9c-0.5,1.7-0.7,2.8-0.7,3.2c0,0.3,0.1,0.6,0.3,0.8c0.2,0.2,0.4,0.3,0.6,0.3
		c0.3,0,0.6-0.1,1-0.4c1.3-1,2.6-2.5,4.1-4.5l1.1,0.7c-2.2,3.1-4.3,5.4-6.2,6.7c-1.4,0.9-2.6,1.4-3.7,1.4c-0.9,0-1.6-0.3-2.1-0.8
		c-0.5-0.5-0.8-1.2-0.8-2.1c0-1.1,0.4-3.1,1.2-5.8l4.1-14.2c0.5-1.8,0.7-3.1,0.7-4.1c0-0.5-0.2-0.9-0.5-1.1
		c-0.3-0.3-0.7-0.4-1.1-0.4c-0.6,0-1.4,0.3-2.4,0.8c-1.7,1.1-3.5,2.8-5.4,5.3c-1.9,2.4-3.9,5.6-6,9.3c-1.1,2-2,4.2-2.8,6.6l-1.8,5.8
		h-5.3l6.5-22.2c0.8-2.7,1.1-4.3,1.1-4.8c0-0.5-0.2-1-0.6-1.4c-0.4-0.4-0.9-0.6-1.5-0.6c-0.3,0-0.8,0.1-1.5,0.2l-1.4,0.2l-0.2-1.3
		L939.3,1137.9z"/>
	<path class="st3" d="M993.6,1137.9l-6.9,24l-0.8,3.3c-0.1,0.3-0.1,0.5-0.1,0.7c0,0.4,0.1,0.7,0.4,1c0.2,0.2,0.4,0.3,0.7,0.3
		c0.3,0,0.7-0.2,1.2-0.6c0.9-0.7,2.1-2.1,3.7-4.2l1.2,0.8c-1.6,2.5-3.3,4.3-5,5.6c-1.7,1.3-3.3,1.9-4.8,1.9c-1,0-1.8-0.2-2.3-0.7
		c-0.5-0.5-0.8-1.2-0.8-2.2c0-1.2,0.3-2.7,0.8-4.6l0.7-2.7c-3.1,4-6,6.9-8.5,8.5c-1.9,1.1-3.7,1.7-5.5,1.7c-1.7,0-3.2-0.7-4.5-2.1
		c-1.2-1.4-1.9-3.4-1.9-5.9c0-3.8,1.1-7.7,3.4-11.9c2.2-4.2,5.1-7.5,8.6-10c2.7-2,5.2-3,7.7-3c1.5,0,2.7,0.4,3.6,1.1
		c1,0.8,1.7,2,2.2,3.8l1.3-4L993.6,1137.9z M981,1139.7c-1.5,0-3.1,0.7-4.8,2.2c-2.4,2-4.6,5-6.5,8.9c-1.9,3.9-2.8,7.5-2.8,10.7
		c0,1.6,0.4,2.8,1.2,3.8c0.8,0.9,1.7,1.4,2.8,1.4c2.6,0,5.3-1.9,8.4-5.7c4-5,6.1-10.2,6.1-15.5c0-2-0.4-3.4-1.2-4.4
		C983.4,1140.2,982.3,1139.7,981,1139.7z"/>
	<path class="st3" d="M1006.3,1120.3l1.2-0.7c2.8,5.3,4.8,10.1,6,14.2c1,3.2,1.5,6.5,1.5,9.7c0,7.6-1.8,14.4-5.3,20.4
		c-4.3,7.4-11.3,14.6-21,21.6l-0.9-1.1c4.4-3.3,7.9-6.9,10.7-10.9c3.4-5,6.2-11.1,8.4-18.2c2.2-7.1,3.3-13.5,3.3-19.4
		C1010.3,1131.6,1009,1126.3,1006.3,1120.3z"/>
</g>
<g>
	<path class="st3" d="M495.9,1398.9l-1.3,4.2h-16.3l1.3-4.2H495.9z"/>
	<path class="st3" d="M539.6,1371.4c2.7,0,4.9,1.1,6.8,3.4c1.8,2.2,2.8,5.8,2.8,10.6c0,4.1-0.7,8.4-2.1,12.7
		c-1.4,4.3-3.3,8.1-5.8,11.2c-2,2.5-4,4.3-6.2,5.4c-1.3,0.6-2.7,0.9-4.4,0.9c-2.7,0-5-1.1-6.9-3.4c-1.8-2.2-2.8-5.8-2.8-10.7
		c0-4.8,0.9-9.6,2.8-14.5c2.2-5.7,4.9-9.9,8.3-12.9C534.5,1372.4,536.9,1371.4,539.6,1371.4z M539.7,1373.1c-1.2,0-2.5,0.5-3.7,1.4
		c-1.2,1-2.5,2.9-3.9,6c-1.3,3-2.6,6.9-3.8,11.7c-1.6,6.2-2.3,11.5-2.3,15.9c0,2.2,0.5,3.8,1.4,4.9c0.9,1.1,2.1,1.6,3.4,1.6
		c1.3,0,2.4-0.4,3.3-1.3c2.4-2.3,4.5-6.1,6.2-11.6c2.8-8.9,4.2-16.2,4.2-21.8c0-2.3-0.5-4.1-1.4-5.2S541,1373.1,539.7,1373.1z"/>
	<path class="st3" d="M553,1415.7v-1c2.2-0.5,4-1.1,5.7-2c2.8-1.6,5.3-3.5,7.6-5.8c2.3-2.3,4.3-4.9,6-7.9c-1.3,0.6-2.3,1-3,1.2
		c-0.7,0.2-1.5,0.3-2.4,0.3c-3.2,0-5.6-1.1-7.2-3.2c-1.7-2.2-2.5-4.7-2.5-7.5c0-5,1.6-9.3,4.9-12.9c3.3-3.6,6.7-5.4,10.4-5.4
		c3.3,0,5.9,1.2,7.7,3.8c1.8,2.5,2.7,5.4,2.7,8.8c0,4.2-1,8.4-2.9,12.6c-2,4.2-4.6,7.7-8,10.7c-3.4,3-6.9,5.2-10.6,6.7
		C559,1414.8,556.2,1415.4,553,1415.7z M573.9,1396.4c3-6,4.5-11.3,4.5-16.1c0-2.3-0.6-4.1-1.7-5.3c-1.1-1.2-2.4-1.9-3.9-1.9
		c-2.5,0-4.7,1.7-6.8,5.2c-2,3.5-3.1,7.6-3.1,12.3c0,2.5,0.6,4.4,1.8,5.7s2.6,1.9,4.4,1.9c0.8,0,1.5-0.1,2.2-0.4
		C571.9,1397.7,572.8,1397.1,573.9,1396.4z"/>
	<path class="st3" d="M592,1409.2c0.9,0,1.6,0.3,2.2,0.9c0.6,0.6,0.9,1.4,0.9,2.3c0,0.9-0.3,1.6-0.9,2.2c-0.6,0.6-1.3,0.9-2.2,0.9
		c-0.9,0-1.6-0.3-2.3-0.9s-0.9-1.3-0.9-2.2c0-0.9,0.3-1.6,0.9-2.3S591.1,1409.2,592,1409.2z M598.6,1386.5c0.9,0,1.6,0.3,2.3,0.9
		c0.6,0.6,0.9,1.4,0.9,2.2c0,0.9-0.3,1.6-0.9,2.3s-1.4,0.9-2.3,0.9c-0.9,0-1.6-0.3-2.3-0.9s-0.9-1.4-0.9-2.3c0-0.9,0.3-1.6,0.9-2.2
		C597,1386.8,597.7,1386.5,598.6,1386.5z"/>
	<path class="st3" d="M630.3,1371.4c2.7,0,4.9,1.1,6.8,3.4c1.8,2.2,2.8,5.8,2.8,10.6c0,4.1-0.7,8.4-2.1,12.7
		c-1.4,4.3-3.3,8.1-5.8,11.2c-2,2.5-4,4.3-6.2,5.4c-1.3,0.6-2.7,0.9-4.4,0.9c-2.7,0-5-1.1-6.9-3.4c-1.8-2.2-2.8-5.8-2.8-10.7
		c0-4.8,0.9-9.6,2.8-14.5c2.2-5.7,4.9-9.9,8.3-12.9C625.1,1372.4,627.5,1371.4,630.3,1371.4z M630.3,1373.1c-1.2,0-2.5,0.5-3.7,1.4
		c-1.2,1-2.5,2.9-3.9,6c-1.3,3-2.6,6.9-3.8,11.7c-1.6,6.2-2.3,11.5-2.3,15.9c0,2.2,0.5,3.8,1.4,4.9c0.9,1.1,2.1,1.6,3.4,1.6
		c1.3,0,2.4-0.4,3.3-1.3c2.4-2.3,4.5-6.1,6.2-11.6c2.8-8.9,4.2-16.2,4.2-21.8c0-2.3-0.5-4.1-1.4-5.2S631.6,1373.1,630.3,1373.1z"/>
	<path class="st3" d="M664.1,1371.4c2.7,0,4.9,1.1,6.8,3.4c1.8,2.2,2.8,5.8,2.8,10.6c0,4.1-0.7,8.4-2.1,12.7
		c-1.4,4.3-3.3,8.1-5.8,11.2c-2,2.5-4,4.3-6.2,5.4c-1.3,0.6-2.7,0.9-4.4,0.9c-2.7,0-5-1.1-6.9-3.4c-1.8-2.2-2.8-5.8-2.8-10.7
		c0-4.8,0.9-9.6,2.8-14.5c2.2-5.7,4.9-9.9,8.3-12.9C658.9,1372.4,661.3,1371.4,664.1,1371.4z M664.1,1373.1c-1.2,0-2.5,0.5-3.7,1.4
		c-1.2,1-2.5,2.9-3.9,6c-1.3,3-2.6,6.9-3.8,11.7c-1.6,6.2-2.3,11.5-2.3,15.9c0,2.2,0.5,3.8,1.4,4.9c0.9,1.1,2.1,1.6,3.4,1.6
		c1.3,0,2.4-0.4,3.3-1.3c2.4-2.3,4.5-6.1,6.2-11.6c2.8-8.9,4.2-16.2,4.2-21.8c0-2.3-0.5-4.1-1.4-5.2S665.4,1373.1,664.1,1373.1z"/>
	<path class="st3" d="M712.2,1370.2l-8.8,30.5c3.8-5.8,6.8-9.6,8.9-11.5c2.1-1.9,4.2-2.8,6.1-2.8c1,0,1.9,0.4,2.5,1.1s1,1.6,1,2.8
		c0,1.4-0.3,3.1-0.9,5l-3.8,13.2c-0.5,1.6-0.7,2.5-0.7,2.7c0,0.3,0.1,0.5,0.3,0.7c0.2,0.2,0.4,0.3,0.6,0.3c0.3,0,0.6-0.1,0.9-0.4
		c1.2-0.9,2.4-2.2,3.6-3.8l1,0.6c-0.7,1.1-1.7,2.3-3,3.7c-1.3,1.3-2.4,2.2-3.3,2.8c-0.9,0.5-1.7,0.8-2.4,0.8c-0.8,0-1.4-0.2-1.9-0.7
		c-0.5-0.5-0.7-1.1-0.7-1.9c0-0.9,0.4-2.7,1.1-5.2l3.6-12.6c0.4-1.6,0.7-2.8,0.7-3.7c0-0.4-0.1-0.8-0.4-1c-0.3-0.3-0.6-0.4-1-0.4
		c-0.6,0-1.3,0.2-2.1,0.7c-1.4,0.9-3.1,2.5-4.9,4.9c-0.5,0.7-2.2,3.3-5,7.9c-0.9,1.5-1.6,3.1-2.2,4.8l-2,6.4h-4.7l10.4-36l1.1-3.9
		c0-0.5-0.2-1-0.7-1.4c-0.5-0.4-1-0.6-1.7-0.6c-0.4,0-0.9,0.1-1.7,0.2l-0.7,0.1v-1.2L712.2,1370.2z"/>
	<path class="st3" d="M764,1398.9l-1.3,4.2h-16.3l1.3-4.2H764z"/>
</g>
<g>
	<path class="st3" d="M263.6,1290.8h-16.5l-2.9,6.7c-0.7,1.6-1.1,2.9-1.1,3.7c0,0.7,0.3,1.2,0.9,1.7c0.6,0.5,2,0.8,4,0.9v1.2h-13.4
		v-1.2c1.8-0.3,2.9-0.7,3.4-1.2c1.1-1,2.3-3.1,3.6-6.1l15-35.1h1.1l14.8,35.5c1.2,2.8,2.2,4.7,3.2,5.5c1,0.8,2.3,1.3,4.1,1.4v1.2
		h-16.8v-1.2c1.7-0.1,2.9-0.4,3.5-0.8c0.6-0.5,0.9-1.1,0.9-1.8c0-0.9-0.4-2.4-1.2-4.3L263.6,1290.8z M262.8,1288.4l-7.2-17.2
		l-7.4,17.2H262.8z"/>
	<path class="st3" d="M281.2,1276.3h13.6v1.1h-0.9c-0.8,0-1.4,0.2-1.9,0.6c-0.4,0.4-0.6,0.9-0.6,1.6c0,0.7,0.2,1.6,0.7,2.6l6.7,15.9
		l6.7-16.5c0.5-1.2,0.7-2.1,0.7-2.7c0-0.3-0.1-0.5-0.3-0.7c-0.2-0.3-0.5-0.5-0.9-0.6c-0.4-0.1-1.1-0.2-2.2-0.2v-1.1h9.4v1.1
		c-1.1,0.1-1.8,0.3-2.3,0.7c-0.7,0.6-1.4,1.7-2,3.2l-10.2,24.7h-1.3l-10.3-24.3c-0.4-1.1-0.9-1.9-1.3-2.4c-0.4-0.5-1-0.9-1.6-1.2
		c-0.4-0.2-1.1-0.4-2.1-0.5V1276.3z"/>
	<path class="st3" d="M319.7,1287.1c0,4.3,1,7.7,3.1,10.1c2.1,2.4,4.6,3.6,7.4,3.6c1.9,0,3.5-0.5,4.9-1.5c1.4-1,2.6-2.8,3.5-5.3
		l1,0.6c-0.4,2.9-1.7,5.5-3.8,7.9c-2.1,2.4-4.8,3.6-8,3.6c-3.5,0-6.4-1.3-8.9-4s-3.7-6.3-3.7-10.9c0-4.9,1.3-8.8,3.8-11.5
		c2.5-2.8,5.7-4.1,9.5-4.1c3.2,0,5.9,1.1,7.9,3.2c2.1,2.1,3.1,5,3.1,8.5H319.7z M319.7,1285.3h13.4c-0.1-1.8-0.3-3.2-0.7-3.9
		c-0.5-1.2-1.3-2.1-2.3-2.8c-1-0.7-2.1-1-3.2-1c-1.7,0-3.3,0.7-4.7,2C320.7,1281,319.9,1282.9,319.7,1285.3z"/>
	<path class="st3" d="M351.9,1281.5c3.4-4.1,6.6-6.1,9.7-6.1c1.6,0,2.9,0.4,4,1.2s2,2.1,2.7,3.9c0.4,1.3,0.7,3.2,0.7,5.8v12.3
		c0,1.8,0.2,3.1,0.5,3.7c0.2,0.5,0.6,0.9,1.1,1.2c0.5,0.3,1.5,0.4,2.8,0.4v1.1h-14.3v-1.1h0.6c1.3,0,2.3-0.2,2.8-0.6
		c0.5-0.4,0.9-1,1.1-1.8c0.1-0.3,0.2-1.3,0.2-3v-11.8c0-2.6-0.3-4.5-1-5.7c-0.7-1.2-1.8-1.8-3.5-1.8c-2.5,0-5,1.4-7.5,4.1v15.2
		c0,2,0.1,3.2,0.4,3.6c0.3,0.6,0.7,1,1.2,1.3c0.5,0.3,1.5,0.4,3.1,0.4v1.1h-14.2v-1.1h0.6c1.5,0,2.4-0.4,3-1.1
		c0.5-0.7,0.8-2.2,0.8-4.3v-10.7c0-3.5-0.1-5.6-0.2-6.3c-0.2-0.8-0.4-1.3-0.7-1.5c-0.3-0.3-0.8-0.4-1.3-0.4c-0.6,0-1.3,0.2-2.1,0.5
		l-0.5-1.1l8.7-3.5h1.3V1281.5z"/>
	<path class="st3" d="M385.6,1275.4v23.1c0,1.8,0.1,3,0.4,3.6c0.3,0.6,0.6,1,1.2,1.3c0.5,0.3,1.5,0.4,2.8,0.4v1.1h-14v-1.1
		c1.4,0,2.3-0.1,2.8-0.4c0.5-0.3,0.9-0.7,1.1-1.3s0.4-1.8,0.4-3.6v-11.1c0-3.1-0.1-5.1-0.3-6.1c-0.2-0.7-0.4-1.1-0.7-1.4
		c-0.3-0.3-0.7-0.4-1.3-0.4c-0.6,0-1.3,0.2-2.1,0.5l-0.5-1.1l8.7-3.5H385.6z M383,1260.3c0.9,0,1.6,0.3,2.2,0.9
		c0.6,0.6,0.9,1.4,0.9,2.3c0,0.9-0.3,1.6-0.9,2.2c-0.6,0.6-1.4,1-2.2,1c-0.9,0-1.6-0.3-2.3-1c-0.6-0.6-0.9-1.4-0.9-2.2
		c0-0.9,0.3-1.6,0.9-2.3C381.3,1260.6,382.1,1260.3,383,1260.3z"/>
	<path class="st3" d="M413.9,1301.8c-1.4,1.5-2.8,2.5-4.1,3.2c-1.3,0.7-2.8,1-4.3,1c-3.2,0-5.9-1.3-8.2-4c-2.3-2.6-3.5-6-3.5-10.1
		c0-4.1,1.3-7.9,3.9-11.3c2.6-3.4,5.9-5.1,10-5.1c2.6,0,4.6,0.8,6.3,2.4v-5.3c0-3.3-0.1-5.3-0.2-6.1c-0.2-0.8-0.4-1.3-0.7-1.5
		c-0.3-0.3-0.7-0.4-1.3-0.4c-0.5,0-1.3,0.2-2.1,0.5l-0.4-1.1l8.6-3.5h1.4v33.3c0,3.4,0.1,5.4,0.2,6.2c0.2,0.8,0.4,1.3,0.8,1.6
		c0.4,0.3,0.8,0.4,1.2,0.4c0.5,0,1.3-0.2,2.2-0.5l0.4,1.1l-8.6,3.6h-1.4V1301.8z M413.9,1299.6v-14.8c-0.1-1.4-0.5-2.7-1.1-3.9
		c-0.6-1.2-1.5-2.1-2.5-2.7c-1-0.6-2-0.9-3-0.9c-1.8,0-3.5,0.8-5,2.5c-1.9,2.2-2.9,5.3-2.9,9.5c0,4.2,0.9,7.5,2.8,9.7
		c1.8,2.3,3.9,3.4,6.2,3.4C410.3,1302.5,412.1,1301.5,413.9,1299.6z"/>
	<path class="st3" d="M442,1300.9c-2.9,2.3-4.8,3.6-5.5,3.9c-1.1,0.5-2.4,0.8-3.6,0.8c-2,0-3.6-0.7-4.9-2c-1.3-1.4-1.9-3.2-1.9-5.4
		c0-1.4,0.3-2.6,0.9-3.6c0.9-1.4,2.3-2.8,4.5-4c2.1-1.2,5.7-2.8,10.6-4.6v-1.1c0-2.9-0.5-4.8-1.4-5.9c-0.9-1.1-2.2-1.6-4-1.6
		c-1.3,0-2.3,0.4-3.1,1.1c-0.8,0.7-1.2,1.5-1.2,2.5l0.1,1.8c0,1-0.2,1.7-0.7,2.2c-0.5,0.5-1.1,0.8-1.9,0.8s-1.4-0.3-1.9-0.8
		c-0.5-0.5-0.7-1.3-0.7-2.2c0-1.8,0.9-3.5,2.8-5c1.8-1.5,4.4-2.3,7.8-2.3c2.6,0,4.6,0.4,6.3,1.3c1.2,0.7,2.1,1.7,2.7,3
		c0.4,0.9,0.5,2.8,0.5,5.5v9.8c0,2.7,0.1,4.4,0.2,5c0.1,0.6,0.3,1,0.5,1.2c0.2,0.2,0.5,0.3,0.8,0.3c0.3,0,0.6-0.1,0.9-0.2
		c0.4-0.3,1.3-1,2.6-2.3v1.8c-2.4,3.1-4.6,4.7-6.8,4.7c-1,0-1.8-0.4-2.4-1.1C442.4,1303.8,442.1,1302.6,442,1300.9z M442,1298.8v-11
		c-3.2,1.3-5.2,2.2-6.1,2.7c-1.6,0.9-2.8,1.9-3.5,2.9c-0.7,1-1.1,2.1-1.1,3.3c0,1.5,0.4,2.8,1.3,3.8c0.9,1,1.9,1.5,3.1,1.5
		C437.3,1302,439.4,1300.9,442,1298.8z"/>
	<path class="st3" d="M507.2,1261.4l1,14.5h-1c-1.3-4.3-3.2-7.5-5.6-9.4c-2.4-1.9-5.3-2.9-8.7-2.9c-2.8,0-5.4,0.7-7.7,2.2
		c-2.3,1.4-4.1,3.7-5.4,6.9c-1.3,3.1-2,7.1-2,11.7c0,3.9,0.6,7.2,1.9,10c1.2,2.8,3.1,5,5.6,6.5c2.5,1.5,5.3,2.3,8.5,2.3
		c2.8,0,5.2-0.6,7.3-1.8c2.1-1.2,4.4-3.5,7-7.1l0.9,0.6c-2.1,3.8-4.6,6.6-7.5,8.3s-6.2,2.6-10.1,2.6c-7.1,0-12.5-2.6-16.4-7.9
		c-2.9-3.9-4.3-8.5-4.3-13.8c0-4.2,1-8.2,2.9-11.7c1.9-3.6,4.5-6.3,7.9-8.3c3.3-2,7-2.9,11-2.9c3.1,0,6.1,0.8,9.1,2.3
		c0.9,0.5,1.5,0.7,1.9,0.7c0.6,0,1.1-0.2,1.5-0.6c0.5-0.6,0.9-1.4,1.1-2.4H507.2z"/>
	<path class="st3" d="M529.7,1300.9c-2.9,2.3-4.8,3.6-5.5,3.9c-1.1,0.5-2.4,0.8-3.6,0.8c-2,0-3.6-0.7-4.9-2
		c-1.3-1.4-1.9-3.2-1.9-5.4c0-1.4,0.3-2.6,0.9-3.6c0.9-1.4,2.3-2.8,4.5-4c2.1-1.2,5.7-2.8,10.6-4.6v-1.1c0-2.9-0.5-4.8-1.4-5.9
		c-0.9-1.1-2.2-1.6-4-1.6c-1.3,0-2.3,0.4-3.1,1.1c-0.8,0.7-1.2,1.5-1.2,2.5l0.1,1.8c0,1-0.2,1.7-0.7,2.2c-0.5,0.5-1.1,0.8-1.9,0.8
		s-1.4-0.3-1.9-0.8c-0.5-0.5-0.7-1.3-0.7-2.2c0-1.8,0.9-3.5,2.8-5c1.8-1.5,4.4-2.3,7.8-2.3c2.6,0,4.6,0.4,6.3,1.3
		c1.2,0.7,2.1,1.7,2.7,3c0.4,0.9,0.5,2.8,0.5,5.5v9.8c0,2.7,0.1,4.4,0.2,5c0.1,0.6,0.3,1,0.5,1.2c0.2,0.2,0.5,0.3,0.8,0.3
		c0.3,0,0.6-0.1,0.9-0.2c0.4-0.3,1.3-1,2.6-2.3v1.8c-2.4,3.1-4.6,4.7-6.8,4.7c-1,0-1.8-0.4-2.4-1.1
		C530,1303.8,529.7,1302.6,529.7,1300.9z M529.7,1298.8v-11c-3.2,1.3-5.2,2.2-6.1,2.7c-1.6,0.9-2.8,1.9-3.5,2.9
		c-0.7,1-1.1,2.1-1.1,3.3c0,1.5,0.4,2.8,1.3,3.8c0.9,1,1.9,1.5,3.1,1.5C525,1302,527.1,1300.9,529.7,1298.8z"/>
	<path class="st3" d="M551.9,1260.3v38.2c0,1.8,0.1,3,0.4,3.6c0.3,0.6,0.7,1,1.2,1.3c0.5,0.3,1.6,0.4,3,0.4v1.1h-14.1v-1.1
		c1.3,0,2.2-0.1,2.7-0.4c0.5-0.3,0.9-0.7,1.1-1.3c0.3-0.6,0.4-1.8,0.4-3.6v-26.1c0-3.3-0.1-5.3-0.2-6c-0.1-0.7-0.4-1.2-0.7-1.5
		c-0.3-0.3-0.7-0.4-1.2-0.4c-0.5,0-1.2,0.2-2.1,0.5l-0.5-1.1l8.6-3.5H551.9z"/>
	<path class="st3" d="M569.8,1260.3v38.2c0,1.8,0.1,3,0.4,3.6c0.3,0.6,0.7,1,1.2,1.3c0.5,0.3,1.6,0.4,3,0.4v1.1h-14.1v-1.1
		c1.3,0,2.2-0.1,2.7-0.4c0.5-0.3,0.9-0.7,1.1-1.3c0.3-0.6,0.4-1.8,0.4-3.6v-26.1c0-3.3-0.1-5.3-0.2-6c-0.1-0.7-0.4-1.2-0.7-1.5
		c-0.3-0.3-0.7-0.4-1.2-0.4c-0.5,0-1.2,0.2-2.1,0.5l-0.5-1.1l8.6-3.5H569.8z"/>
	<path class="st3" d="M582.6,1287.1c0,4.3,1,7.7,3.1,10.1c2.1,2.4,4.6,3.6,7.4,3.6c1.9,0,3.5-0.5,4.9-1.5c1.4-1,2.6-2.8,3.5-5.3
		l1,0.6c-0.4,2.9-1.7,5.5-3.8,7.9c-2.1,2.4-4.8,3.6-8,3.6c-3.5,0-6.4-1.3-8.9-4s-3.7-6.3-3.7-10.9c0-4.9,1.3-8.8,3.8-11.5
		c2.5-2.8,5.7-4.1,9.5-4.1c3.2,0,5.9,1.1,7.9,3.2c2.1,2.1,3.1,5,3.1,8.5H582.6z M582.6,1285.3H596c-0.1-1.8-0.3-3.2-0.7-3.9
		c-0.5-1.2-1.3-2.1-2.3-2.8c-1-0.7-2.1-1-3.2-1c-1.7,0-3.3,0.7-4.7,2C583.6,1281,582.8,1282.9,582.6,1285.3z"/>
	<path class="st3" d="M628,1266.6l10.4-5h1v36c0,2.4,0.1,3.8,0.3,4.4c0.2,0.6,0.6,1,1.2,1.4c0.6,0.3,1.9,0.5,3.8,0.5v1.2h-16v-1.2
		c2,0,3.3-0.2,3.9-0.5s1-0.7,1.2-1.2s0.4-2,0.4-4.6v-23c0-3.1-0.1-5.1-0.3-6c-0.2-0.7-0.4-1.1-0.8-1.5c-0.4-0.3-0.9-0.5-1.4-0.5
		c-0.8,0-1.9,0.3-3.2,1L628,1266.6z"/>
	<path class="st3" d="M682.2,1296.8l-3,8.2H654v-1.2c7.4-6.7,12.6-12.3,15.6-16.5c3-4.3,4.5-8.2,4.5-11.7c0-2.7-0.8-4.9-2.5-6.7
		c-1.7-1.7-3.6-2.6-5.9-2.6c-2.1,0-4,0.6-5.7,1.8c-1.7,1.2-2.9,3-3.7,5.4h-1.2c0.5-3.9,1.9-6.9,4-8.9c2.2-2.1,4.9-3.1,8.1-3.1
		c3.5,0,6.4,1.1,8.7,3.3c2.3,2.2,3.5,4.8,3.5,7.8c0,2.2-0.5,4.3-1.5,6.5c-1.5,3.4-4,7-7.5,10.8c-5.2,5.7-8.5,9.1-9.8,10.3h11.1
		c2.3,0,3.9-0.1,4.8-0.2c0.9-0.2,1.7-0.5,2.5-1c0.7-0.5,1.4-1.2,1.9-2.2H682.2z"/>
	<path class="st3" d="M691.3,1262.4h22.9v1.2l-14.2,42.3h-3.5l12.7-38.4h-11.7c-2.4,0-4.1,0.3-5.1,0.8c-1.7,1-3.2,2.5-4.2,4.5
		l-0.9-0.4L691.3,1262.4z"/>
	<path class="st3" d="M736.7,1305.9l2.9-14.3h-5.4v-2.6h5.9l2.2-10.8h-8v-2.5h8.6l2.9-14.3h2.6l-2.9,14.3h10.6l3-14.3h2.6l-3,14.3
		h5.4v2.5h-5.8l-2.2,10.8h8v2.6h-8.6l-2.9,14.3h-2.5l2.9-14.3h-10.7l-3,14.3H736.7z M742.8,1289h10.7l2.3-10.8H745L742.8,1289z"/>
	<path class="st3" d="M788.9,1266.6l10.4-5h1v36c0,2.4,0.1,3.8,0.3,4.4c0.2,0.6,0.6,1,1.2,1.4c0.6,0.3,1.9,0.5,3.8,0.5v1.2h-16v-1.2
		c2,0,3.3-0.2,3.9-0.5s1-0.7,1.2-1.2s0.4-2,0.4-4.6v-23c0-3.1-0.1-5.1-0.3-6c-0.2-0.7-0.4-1.1-0.8-1.5c-0.4-0.3-0.9-0.5-1.4-0.5
		c-0.8,0-1.9,0.3-3.2,1L788.9,1266.6z"/>
	<path class="st3" d="M841.5,1262.4l-2.5,5.4h-12.9l-2.8,5.7c5.5,0.8,9.9,2.9,13.2,6.2c2.8,2.9,4.2,6.2,4.2,10.1
		c0,2.2-0.5,4.3-1.4,6.2c-0.9,1.9-2.1,3.5-3.4,4.9c-1.4,1.3-2.9,2.4-4.6,3.2c-2.4,1.1-4.9,1.7-7.4,1.7c-2.6,0-4.4-0.4-5.6-1.3
		c-1.2-0.9-1.7-1.8-1.7-2.9c0-0.6,0.2-1.1,0.7-1.5c0.5-0.5,1.1-0.7,1.8-0.7c0.5,0,1,0.1,1.4,0.3c0.4,0.2,1.1,0.6,2.1,1.3
		c1.6,1.1,3.2,1.6,4.8,1.6c2.4,0,4.6-0.9,6.4-2.8c1.8-1.8,2.8-4.1,2.8-6.8c0-2.6-0.8-5-2.5-7.2c-1.7-2.2-3.9-4-6.9-5.2
		c-2.3-1-5.4-1.5-9.3-1.6l8.2-16.6H841.5z"/>
	<path class="st3" d="M875.2,1290.8h-16.5l-2.9,6.7c-0.7,1.6-1.1,2.9-1.1,3.7c0,0.7,0.3,1.2,0.9,1.7c0.6,0.5,2,0.8,4,0.9v1.2h-13.4
		v-1.2c1.8-0.3,2.9-0.7,3.4-1.2c1.1-1,2.3-3.1,3.6-6.1l15-35.1h1.1l14.8,35.5c1.2,2.8,2.2,4.7,3.2,5.5c1,0.8,2.3,1.3,4.1,1.4v1.2
		h-16.8v-1.2c1.7-0.1,2.9-0.4,3.5-0.8c0.6-0.5,0.9-1.1,0.9-1.8c0-0.9-0.4-2.4-1.2-4.3L875.2,1290.8z M874.4,1288.4l-7.2-17.2
		l-7.4,17.2H874.4z"/>
	<path class="st3" d="M911,1288.2h16.2v4.8H911V1288.2z"/>
	<path class="st3" d="M953.5,1266.6l10.4-5h1v36c0,2.4,0.1,3.8,0.3,4.4c0.2,0.6,0.6,1,1.2,1.4c0.6,0.3,1.9,0.5,3.8,0.5v1.2h-16v-1.2
		c2,0,3.3-0.2,3.9-0.5s1-0.7,1.2-1.2s0.4-2,0.4-4.6v-23c0-3.1-0.1-5.1-0.3-6c-0.2-0.7-0.4-1.1-0.8-1.5c-0.4-0.3-0.9-0.5-1.4-0.5
		c-0.8,0-1.9,0.3-3.2,1L953.5,1266.6z"/>
	<path class="st3" d="M980.4,1284c0-4.9,0.7-9.1,2.2-12.6c1.5-3.5,3.4-6.1,5.9-7.9c1.9-1.4,3.8-2,5.8-2c3.3,0,6.2,1.7,8.8,5
		c3.3,4.1,4.9,9.7,4.9,16.8c0,4.9-0.7,9.1-2.1,12.6c-1.4,3.5-3.3,6-5.5,7.5c-2.2,1.6-4.3,2.3-6.4,2.3c-4.1,0-7.4-2.4-10.2-7.2
		C981.6,1294.6,980.4,1289.7,980.4,1284z M986.6,1284.8c0,5.9,0.7,10.7,2.2,14.4c1.2,3.1,3,4.7,5.4,4.7c1.1,0,2.3-0.5,3.5-1.5
		c1.2-1,2.1-2.7,2.8-5.1c1-3.6,1.4-8.7,1.4-15.3c0-4.8-0.5-8.9-1.5-12.1c-0.8-2.4-1.7-4.1-2.9-5.1c-0.9-0.7-1.9-1.1-3.1-1.1
		c-1.4,0-2.7,0.6-3.8,1.9c-1.5,1.7-2.5,4.5-3.1,8.2C986.9,1277.5,986.6,1281.2,986.6,1284.8z"/>
</g>
<text transform="matrix(1 0 0 1 1478.1249 1041.8739)"><tspan x="0" y="0" style="font-family:'Vijaya'; font-size:90.0707px;">Capilla La Esperanza</tspan><tspan x="-79.5" y="108.1" style="font-family:'Vijaya'; font-size:90.0707px;">(Hotel Estelar La Fontana)</tspan></text>
<text transform="matrix(1 0 0 1 1650.7855 1394.9578)" style="font-family:'Vijaya'; font-size:80px; letter-spacing:1;">- 09:00 h -</text>
<text transform="matrix(1 0 0 1 1408.2964 1285.0511)" style="font-family:'Aparajita'; font-size:80px;">Avenida Calle 127 # 15A - 10</text>
</svg>
