<?xml version="1.0" encoding="utf-8"?>
<!-- Generator: Adobe Illustrator 25.4.1, SVG Export Plug-In . SVG Version: 6.00 Build 0)  -->
<svg version="1.1" id="Capa_1" xmlns="http://www.w3.org/2000/svg" xmlns:xlink="http://www.w3.org/1999/xlink" x="0px" y="0px"
	 viewBox="0 0 1245.1 2206.7" style="enable-background:new 0 0 1245.1 2206.7;" xml:space="preserve">
<style type="text/css">
	.st0{display:none;}
	.st1{fill:#4D4D4D;}
	.st2{fill:#49707F;}
	.st3{fill-rule:evenodd;clip-rule:evenodd;fill:#49707F;}
	.st4{fill:none;stroke:#49707F;stroke-miterlimit:10;}
	.st5{fill:#808080;}
	.st6{enable-background:new    ;}
</style>
<g id="Fondo" class="st0">
	
		<image style="display:inline;overflow:visible;enable-background:new    ;" width="3494" height="4990" xlink:href="6AE9371E.jpeg"  transform="matrix(0.5452 0 0 0.5452 -289.8659 -395.4105)">
	</image>
</g>
<g id="dorado1" class="st0">
	
		<image style="display:inline;overflow:visible;enable-background:new    ;" width="2030" height="4054" xlink:href="6AE93722.png"  transform="matrix(-0.2889 0.2344 -0.2049 -0.2526 1387.6326 1427.0857)">
	</image>
</g>
<g id="verde2" class="st0">
	
		<image style="display:inline;overflow:visible;enable-background:new    ;" width="1969" height="3500" xlink:href="6AE93725.png"  transform="matrix(0.1762 0.1873 -0.1873 0.1762 745.7935 843.0763)">
	</image>
</g>
<g id="verde1" class="st0">
	
		<image style="display:inline;overflow:visible;enable-background:new    ;" width="2446" height="4000" xlink:href="6AE93726.png"  transform="matrix(-6.690000e-02 0.2879 -0.2977 -6.920000e-02 1292.1241 1371.0154)">
	</image>
</g>
<g id="manchadorada" class="st0">
	
		<image style="display:inline;overflow:visible;enable-background:new    ;" width="1000" height="1000" xlink:href="6AE93724.png"  transform="matrix(0.2977 0.2589 -0.2589 0.2977 1152.2159 1037.2382)">
	</image>
</g>
<g id="dorado2" class="st0">
	
		<image style="display:inline;overflow:visible;enable-background:new    ;" width="2030" height="4054" xlink:href="6AE93723.png"  transform="matrix(0.2522 -0.2261 0.1956 0.2181 -83.5832 674.8178)">
	</image>
</g>
<g id="dorado3" class="st0">
	
		<image style="display:inline;overflow:visible;enable-background:new    ;" width="2499" height="3609" xlink:href="6AE9372D.png"  transform="matrix(-8.450000e-02 0.2621 0.3109 0.1002 185.4846 163.5658)">
	</image>
</g>
<g id="verde3" class="st0">
	
		<image style="display:inline;overflow:visible;opacity:0.75;enable-background:new    ;" width="2030" height="4054" xlink:href="6AE9372E.png"  transform="matrix(-0.1815 -0.2587 0.2587 -0.1815 318.7391 1474.7139)">
	</image>
</g>
<g id="manchadorado2" class="st0">
	
		<image style="display:inline;overflow:visible;enable-background:new    ;" width="1000" height="1000" xlink:href="6AE9372C.png"  transform="matrix(0.1819 -0.3501 0.3501 0.1819 -29.9088 373.4069)">
	</image>
</g>
<g>
	<path class="st1" d="M470.1,417.6c-17.4,49.7-30.8,59.7-43.2,62.2c-21.4,4.3-28.1-15.3-18.1-34.4c10.5-19.6,34.4-31.9,47.1-33.4
		c-5.3,2.3-21.9,7.3-37,22.5c-22.5,22.7-12.5,55.2,12.3,40.3c15.2-9.3,28.1-48.8,40-82.7c7.3-21,17.5-44.4,23.8-58.5
		c-7,7.4-21.6,14.4-39.1,22.7c-18.4,8.7-22.8,26.3-22.8,26.3s-1.5-7.9,9.4-19.1c10-10.4,24.5-14.9,37.7-23.1
		c11.4-7,18.1-15.8,20.2-18.9c1.5-2.1,5.5-1.5,7.2,4.1C507.9,325.5,489,363.6,470.1,417.6z"/>
	<path class="st1" d="M461.6,344.4c-3.8,2.6-7,7.6-2.9,11.7c7.3,7.3,28.3,6.6,53.2,4c6.4-11.9,9.8-15.1,9.8-15.1
		c1.5-2.4,6.6,3,5.1,5.6c-1.7,2.7-3.4,5.5-5.1,8.3c34.7-4.1,73.9-10.5,93.3-4.5c7.3,2.3,10,4.9,9.3,8.5c-0.3,1.9-2.4,3.2-3.4,1.2
		c-0.8-1.7,3.2-5.6-6.8-8.5c-20-5.6-59,0.9-93.5,5.1c-10,17.2-20.6,38.9-29.2,69.7c-6.2,22.1-0.6,32.1,9.4,19.5
		c11.3-14.2,22.1-44.6,34-46.5c-9.6,8.5-12.9,14.9-21.9,31.6c-12.6,23.8-19.8,25.1-24.8,21c-6.4-5.1-9.7-18.4,6.8-59.5
		c6.4-15.7,11.7-26.9,15.8-34.7c-25.1,2.6-46.3,3-53.8-5.1c-3.8-4.1-2.3-11.3,2.7-14.6C461.4,341,465.6,341.7,461.6,344.4z"/>
	<path class="st1" d="M545.4,421.3c-7,9.3-12.5,15.1-18.4,13.2c-9.4-3-1.5-26.6,5.1-31c3-1.5,4.5,0.2,4.1,2.6
		c-0.6,3.8-4.7,9.4-6.4,16.1c-1.2,5.1-2.7,10.8,1.1,10.4c4.7-0.4,13.4-13.8,19.5-21.3c5.1-6.2,6.6-8.1,9.7-8.1
		C555.5,405.5,551.7,412.9,545.4,421.3z M538.1,397.1c-1.9-0.6-1.9-1.7-0.6-4.3c1.5-2.9,0.6-3.5,3-4.9c1.7-0.9,7.2-0.3,5.3,3.5
		C543.9,395.6,540.2,397.7,538.1,397.1z"/>
	<path class="st1" d="M565.3,408c0.2,5.1-1.5,7.4-4.3,13.2c6.4-9.1,21.1-23.8,31.2-26.5c5.8-1.5,8.3,3.8,7.9,7.7
		c-0.8,5.9-17.6,29.1-19.8,37.6c-3,12.6,4.9,8.5,7.3,6.7c7.3-5.5,21-30.1,27.2-37.2c7.6-8.8,10.5-5.9,10.5-5.9
		c-12.1,2.9-26.6,41.7-40,47c-4,1.7-10,0.6-11.9-5.8c-3.5-12.8,19.6-42.3,20.4-46.7c0.8-5.1-14,4-24.4,15.8
		c-7,8.1-10.6,14.2-13.6,18.9c-0.6,1.1-4.1,1.1-5.6-1.5c-0.6-1.1-2.4-3.5,3.2-15.1c6.2-12.6,3.6-12.1,3.6-12.1
		C558.5,402.2,565.1,403.1,565.3,408z"/>
	<path class="st1" d="M617.6,418.6c-2.4,11.7,4,16.3,10.6,13.6c11.3-4.4,21.9-29.1,29.8-28.9c-7.7,7.2-8.3,9.4-13.6,16.3
		c-7,9-14.3,16.7-23,15.8c-11.4-1.2-12.8-15.5-9.8-22.2c3-7,9.1-14.9,18.7-15.5c7.9-0.4,11,7,3.4,13.4c-4.5,3.8-11.3,5.6-15.7,6.4
		C617.9,417.6,617.6,418.2,617.6,418.6z M624.1,414.1c12.3-4.1,14.4-13.4,8.1-11.9c0,0-10,1.2-13.8,13.4
		C619.9,415.4,622,414.9,624.1,414.1z"/>
	<path class="st1" d="M661.7,404.6c9.8,6.2,13.2,13.1,4.7,25.5c-9,13.1-10.4,34,2.1,24c7.3-5.9,12.8-16.1,21.9-31.5
		c8.8-14.9,11-17.4,14.9-19.5c-1.2,2.3-8.1,11.5-12.6,19.8c-10.2,18.5-20.8,36.3-30.1,35.5s-13.1-13.6-7-25.9
		c6.6-13.4,14-18.7,2.1-26.3c-15.1-9.7-7.2-17.5-3.5-19.6c4.4-2.6,11-1.5,11,5.1c0,4.9-3.4,9-5.9,11.3
		C660,403.5,660.7,403.9,661.7,404.6z M657.3,388.3c-4.3,1.9-6.6,7.7,1.1,14c2.6-3,4.4-6.2,4.9-8.1
		C664.3,390.1,660.7,386.8,657.3,388.3z"/>
	<path class="st1" d="M724.9,439.2c8.7-12.8,19.3-34.5,26.8-36.2c-7.6,8.7-9.6,12.6-14,19.6c-8.3,13.6-12.9,22.7-17.8,21.9
		c-5.5-0.9-10.5-8.1-4.9-23.4c0.2-0.6,0.4-1.2,0.6-1.9c-6.2,7.6-12.1,14.9-17.9,8.3c-5.9-6.6-0.2-18.7,5.3-23.8
		c4-3.6,11.4-6.8,19.3-4.9c8.8,2.3,2.1,2.3,2.1,2.3s-11.3-2.4-19.3,10.5c-5.9,9.6-2.6,18.3,2.1,13.8c2.6-2.4,8.2-9.6,12.6-15.2
		c2.3-3.6,4.7-8.1,7-8.1c2.3-0.2,7.9,0.6,2.9,7C716,427.3,715.7,452.8,724.9,439.2z"/>
	<path class="st1" d="M754.7,404.6c9.8,6.2,13.2,13.1,4.7,25.5c-9,13.1-10.4,34,2.1,24c7.3-5.9,12.8-16.1,21.9-31.5
		c8.8-14.9,11-17.4,14.9-19.5c-1.2,2.3-8.1,11.5-12.6,19.8c-10.2,18.5-20.8,36.3-30.1,35.5s-13.1-13.6-7-25.9
		c6.6-13.4,14-18.7,2.1-26.3c-15.1-9.7-7.2-17.5-3.5-19.6c4.4-2.6,11-1.5,11,5.1c0,4.9-3.4,9-5.9,11.3
		C753.1,403.5,753.8,403.9,754.7,404.6z M750.3,388.3c-4.3,1.9-6.6,7.7,1.1,14c2.6-3,4.4-6.2,4.9-8.1
		C757.3,390.1,753.8,386.8,750.3,388.3z"/>
	<path class="st1" d="M810.3,421.3c-7,9.3-12.5,15.1-18.4,13.2c-9.4-3-1.5-26.6,5.1-31c3-1.5,4.5,0.2,4.1,2.6
		c-0.6,3.8-4.7,9.4-6.4,16.1c-1.2,5.1-2.7,10.8,1.1,10.4c4.7-0.4,13.4-13.8,19.5-21.3c5.1-6.2,6.6-8.1,9.7-8.1
		C820.5,405.5,816.7,412.9,810.3,421.3z M803.1,397.1c-1.9-0.6-1.9-1.7-0.6-4.3c1.5-2.9,0.6-3.5,3-4.9c1.7-0.9,7.2-0.3,5.3,3.5
		C808.8,395.6,805.2,397.7,803.1,397.1z"/>
	<path class="st1" d="M825,394.8c6.8-0.2,12.3,4,12.3,14.7c0,3.2-0.8,7.6-1.9,11.9c2.1-0.9,4.4-2.3,6.7-4.1
		c9.1-7.3,11.3-14.6,16-14.2c-5.1,3.8-9.3,12.6-17.8,17.8c-1.7,1.1-3.5,1.9-5.5,2.4c-3.4,10.2-9.8,20.4-17.4,20
		C806.8,443,806,429,811,419.1c0.6-1.2,1.2-2.4,1.9-3.5C806.5,404.1,816.6,395,825,394.8z M817.8,421.6c-1.5,2.7-2.7,5.5-3.5,8.2
		c-1.9,7.4,1.9,15.5,8.3,9.7c3.2-2.9,6.8-8.8,9.4-15.5C827.1,424.9,822,424.5,817.8,421.6z M822.7,403.1c4.1-0.6,4.5,3.4,4.3,5.6
		c0,0.2-4.4,4.9-8.1,11c3.5,2.7,8.5,3.8,14,2.4c3.2-9.1,4.1-19-1.2-23.4c-7.2-6.1-15.7,0.9-17.2,6.1c-0.8,2.9-0.8,5.8,0,8.2
		C818.2,406.9,821.4,403.3,822.7,403.1z"/>
</g>
<g>
	<g>
		<g>
			<g>
				<g>
					<g>
						<path class="st2" d="M489.4,538c12.4,17.1,36.4,13.3,54.8,9.7c14.9-2.9,29.9-4.8,45.1-4.4c7.5,0.2,15.4,0.5,22.7,2.4
							c3.5,0.9,7.1,2,9.6,4.7c3.9,4.7,3.8,9.3-0.1,13.9c-6.2,5.1-8.6,4.5-7.3-1.9c0.2,0.8,1.6,0.7,1.6-0.2c-0.4-9.8-16.8-0.7-6.3,6
							c11.6,7.5,22-10,14.6-18.7c-5.2-6.2-14.8-6.9-22.5-7.7c-13.2-1.3-26.6-0.9-39.8,0.7c-23.2,2.9-53,14.9-71.3-5.3
							C490,536.7,489,537.4,489.4,538L489.4,538z"/>
					</g>
					<g>
						<path class="st2" d="M591,552.6c1.1-5.9-7.7-4.4-6.2,1.2c2.8,9.9,16.9,1.6,18.6-4.6c3.2-11.3-10-18.6-20.1-18.8
							c-8.8-0.1-17,3.4-25.1,6c-4.9,1.6-9.9,3-15.2,2.9c-3.4,0-7-0.5-10.1-1.9c-1.1-0.7-2.1-1.3-3.2-2c-4-2.8-4-5.1-0.1-7.1
							c-0.8-1-2.4-0.2-1.8,1c2.8,6.2,12.3,1.7,9.2-4.4c-3.7-7.3-13.6-1.7-13.4,4.9c0.4,11.6,17,13.3,26,11.7
							c9.3-1.7,17.6-6.3,26.9-8c6.5-1.2,13.4-0.9,18.9,2.9c2.5,1.7,5.4,4.6,5.8,7.7c-0.4,2.4-0.9,4.8-1.3,7.2
							c-3.4,5.5-6.6,5.9-9.6,1.3C590.3,552.8,590.9,552.9,591,552.6L591,552.6z"/>
					</g>
				</g>
			</g>
		</g>
		<g>
			<g>
				<g>
					<g>
						<path class="st2" d="M772.9,537.5c-12.4,17.1-36.4,13.3-54.8,9.7c-14.9-2.9-29.9-4.8-45.1-4.4c-7.5,0.2-15.4,0.5-22.7,2.4
							c-3.5,0.9-7.1,2-9.6,4.7c-3.9,4.7-3.9,9.3,0.1,13.9c6.2,5.1,8.6,4.5,7.3-1.9c-0.2,0.8-1.6,0.7-1.6-0.2c0.4-9.8,16.8-0.7,6.3,6
							c-11.6,7.5-22-10-14.6-18.7c5.2-6.2,14.8-6.9,22.5-7.7c13.2-1.3,26.6-0.9,39.8,0.7c23.2,2.9,53,14.9,71.3-5.3
							C772.4,536.2,773.4,536.9,772.9,537.5L772.9,537.5z"/>
					</g>
					<g>
						<path class="st2" d="M671.4,552.1c-1.1-5.9,7.7-4.4,6.2,1.2c-2.8,9.9-16.9,1.6-18.6-4.6c-3.1-11.3,10-18.6,20.1-18.8
							c8.8-0.1,17,3.3,25.2,6c4.9,1.6,9.9,3,15.2,2.9c3.4,0,7-0.5,10.1-1.9c1.1-0.7,2.1-1.3,3.2-2c4-2.8,4-5.1,0.1-7.1
							c0.8-1,2.4-0.2,1.8,1c-2.8,6.2-12.3,1.7-9.2-4.4c3.7-7.3,13.6-1.7,13.4,4.9c-0.4,11.6-17,13.3-26,11.7
							c-9.3-1.7-17.6-6.3-26.9-8c-6.5-1.2-13.4-0.9-18.9,2.9c-2.5,1.7-5.4,4.6-5.8,7.7c0.4,2.4,0.9,4.8,1.3,7.2
							c3.4,5.5,6.6,5.9,9.6,1.3C672,552.3,671.5,552.4,671.4,552.1L671.4,552.1z"/>
					</g>
				</g>
			</g>
		</g>
	</g>
</g>
<g>
	<path class="st3" d="M659.4,1212.1c3.6-1.6,6.8-3.6,9.8-5.9c0.6-0.4-0.2-1.3-0.8-0.9c-0.1,0.1-0.3,0.1-0.3,0.2
		c18.4-18,22.2-50.2,2.7-68.9c-18.8-18-52.9-22.1-73-5.2c-0.2,0-0.3,0-0.5,0.1c-23.2,10.4-22.3,46-10.5,64.4
		C601.7,1218.5,636.1,1226,659.4,1212.1z M590.3,1140.4c0.3,0.3,0.7,0.5,1,0.2c21.3-23.4,54.2-22.8,78.1-2.7
		c20.8,17.6,13.5,51.9-4.8,68.2c-1,0.9-2.1,1.8-3.2,2.5c-17.4,7.6-34.6,8.9-53.3,0.3C580.5,1196.1,579.1,1164.5,590.3,1140.4z
		 M589.2,1140.3c-11.8,21.4-10.5,47.3,8.3,63.7c-3.4-2.8-6.3-5.9-8.9-9.4C578.2,1180.2,577.6,1154.9,589.2,1140.3z"/>
	<path class="st3" d="M607.1,1150.1c-1.3,1.6-1.8,3.5-1.9,5.5c-2.5,15.7,13.8,28.8,23.9,39.2c0.2,0.3,0.4,0.6,0.6,0.9
		c0,0,0,0-0.1,0.1c-0.9,1,0.6,2.5,1.5,1.4c0.2-0.2,0.4-0.4,0.6-0.7l0.1-0.1c9.8-10.9,26.9-30.9,21.1-46.2c-3.7-9.9-18.8-0.9-22,6.3
		c-0.1-0.1-0.1-0.2-0.2-0.3c0.1-0.1,0.1-0.3,0.2-0.4c0.2-0.5-0.3-0.8-0.8-0.6C625.3,1148.1,613.2,1142.8,607.1,1150.1z
		 M630.3,1159.2c0.2,0.3,0.4,0.4,0.7,0.4c-1.9,7.7-4.5,15.1-7.3,22.5c-0.2,0.5,0.6,0.8,0.8,0.3c1.5-2.5,2.7-5.2,3.7-7.9
		c-1,3.4-1.9,6.8-2.6,10.1c-0.1,0.4,0.6,0.8,0.8,0.3c4.2-9.1,6.2-19.2,9.8-28.5c0.3-0.9-1.2-1.4-1.5-0.4c-1.8,4.6-3.6,9.2-5.1,14
		c1-3.7,1.8-7.4,2.5-11.2v-0.1c0.3-0.2,0.4-0.5,0.3-0.8c0.3-0.5,0.9-1.2,1.8-2.3c1.1-1.4,2.4-2.7,3.6-4c3-3.1,10.7-7.8,13.9,0.8
		c1.4,3.7-0.3,8.4-1.5,11.9c-1.4,3.9-3.2,7.6-5.3,11.3c1.4-4.4,2.9-8.8,4.5-13.2c0.3-0.8-1-1.1-1.3-0.3c-2.1,5.7-4.3,11.3-5.5,17.3
		c-1,1.5-2.1,3.1-3.2,4.6c3.2-7,5-14.8,6.9-22.2c0.3-0.9-1.2-1.4-1.4-0.4c-2.5,8.8-5.8,17.3-8.2,26.1c-1.7,2.1-3.5,4.2-5.2,6.2
		c-0.2-0.2-0.3-0.4-0.6-0.6c-3-4.7-6.7-9-10.4-13.4c0.7-1,1.2-2.1,1.7-3.2c-0.3,1.2-0.7,2.4-0.9,3.6c-0.2,0.6,0.7,0.9,1,0.4
		c3.7-6.8,5.4-14.6,7.9-22C630.2,1158.8,630.3,1158.9,630.3,1159.2z M618,1149.2c4.8,0.9,8.7,4,11.2,8c-1.5,3.9-3.1,7.9-4.7,11.8
		c0.9-3.9,1.7-7.9,2.7-11.4c0.3-0.8-0.9-1-1.2-0.3c-2.3,7-4.7,14.2-6.8,21.3c-0.5-0.6-1-1.2-1.5-1.9c4.2-6.6,5.3-15.3,6.5-22.8
		c0.2-0.9-1.3-1.4-1.4-0.4c-1.4,7.6-3.9,14.8-5.9,22.2c-0.5-0.6-1-1.3-1.4-1.9c3.4-6.4,4.1-14.5,6.3-21.2c0.3-0.9-1.2-1.4-1.4-0.4
		c-2.2,6.5-4.2,13.1-6.2,19.6c-0.4-0.6-0.8-1.2-1.3-1.8c3-5.4,4.1-12.3,5.7-18.1c0.3-0.8-1-1.2-1.4-0.3c-1.8,5.5-4.5,11.3-5.2,17.1
		c-0.4-0.7-0.8-1.3-1.2-1.9c1.4-1.7,2.1-4.1,2.7-6.1c1.1-3.5,1.5-7,2.3-10.6c0.1-0.6-0.8-0.8-0.9-0.3c-0.7,2.8-1.4,5.5-2.3,8.3
		c-0.7,2.3-1.9,4.5-2.8,6.8c-0.3-0.4-0.4-0.9-0.6-1.4c0.1,0,0.2-0.1,0.3-0.2c2.8-3.6,3.5-9,4.1-13.2c0.1-0.8-1.2-1.3-1.4-0.3
		c-0.3,2.2-0.9,4.3-1.6,6.4c-0.6,1.9-1.5,3.8-1.9,5.8c-0.2-0.5-0.3-1-0.5-1.6c0.5-1.2,0.7-2.5,1-3.6c0.6-2,1.3-4,1.9-6
		c0.1-0.3,0-0.6-0.3-0.8C612.8,1149,615.2,1148.7,618,1149.2z M607.5,1156.4c0,0.1-0.1,0.1-0.1,0.2c-0.1-2.3,0.7-4.1,1.9-5.4
		C608.8,1152.9,608.1,1154.6,607.5,1156.4z"/>
	<path class="st3" d="M632.7,1176.8c0.5-1,0.8-2,1.3-3c0.2-0.4-0.4-0.8-0.7-0.3c-0.5,1-0.8,2.1-1.2,3.1
		C632,1176.9,632.5,1177.1,632.7,1176.8z"/>
	<path class="st3" d="M630.9,1187.3c5.8-9.9,7.9-21.5,11.4-32.3c0.2-0.6-0.8-0.8-1-0.3c-3.9,10.7-7.1,21.6-11.2,32.2
		C629.9,1187.5,630.7,1187.8,630.9,1187.3z"/>
	<path class="st3" d="M641.9,1162.8c-2.7,9.7-6.8,18.9-9.8,28.6c-0.1,0.3,0.4,0.5,0.5,0.3c4.6-9,7.9-18.8,10.3-28.5
		C643.2,1162.5,642.1,1162.1,641.9,1162.8z"/>
	<path class="st3" d="M653.5,1208.7c9.5-4.8,20.5-12.4,22.2-23.6c0.1-0.5-0.7-0.9-0.9-0.4c-2.2,5.1-4.3,9.5-8.3,13.5
		c-3.9,4-8.5,7-13.2,10.1C652.9,1208.3,653.2,1208.7,653.5,1208.7z"/>
	<path class="st3" d="M587.6,1158.6c3.5-10.2,8.4-18.5,17.8-24.5c0.4-0.3,0.2-0.9-0.3-0.8c-9.4,3.7-17.6,15.2-18.4,25.2
		C586.6,1159,587.5,1159.1,587.6,1158.6z"/>
	<path class="st3" d="M677.1,1178c0.9-1.4,1.2-3.4,1.5-5c0.2-0.8-1-1.1-1.2-0.3c-0.4,1.6-1.2,3.5-1,5.1
		C676.5,1178.2,676.9,1178.4,677.1,1178z"/>
	<path class="st3" d="M608,1132.3c1.2-0.7,2.9-1.2,3.9-2.3c0.4-0.4,0.1-1-0.4-1.1c-1.5-0.2-3,1.2-4.1,2
		C606.6,1131.6,607.3,1132.8,608,1132.3z"/>
	<path class="st3" d="M653.3,1225.1c1.4,2.8,2.2,6.2,4.1,8.7c0.3,0.5,1.1,0.2,1-0.4c-0.6-3.1-2.5-6.2-4.3-8.7
		C653.9,1224.2,653.2,1224.6,653.3,1225.1z"/>
	<path class="st3" d="M680.1,1109.6c-15-11.9-34.2-17.5-53.3-17.3c-25.6,0.3-43.7,14-60.4,31.6c-0.3,0.3-0.3,0.8-0.1,1.1
		c-23.4,33.3-15.7,78.4,17.2,102.9c34.1,25.5,85.4,19.3,111.7-13.6C721.1,1182.2,711,1134.4,680.1,1109.6z M556.4,1155
		c-0.5,4.7-0.5,9.4-0.1,14.1c-0.3,0.1-0.5,0.1-0.8,0.2c-0.2,0-0.3,0.2-0.3,0.3C555.3,1164.8,555.6,1159.9,556.4,1155z M570.9,1214.1
		c-10.5-12.5-15.4-27.9-15.6-43.8c0.1,0.2,0.3,0.3,0.5,0.3c0.3,0,0.5,0,0.8-0.1c0.3,2.7,0.8,5.4,1.4,8c0.8,4.4,1.9,8.7,3.2,12.9
		c-0.5-0.9-1-1.9-1.5-2.9c-0.3-0.5-1.3-0.2-1,0.4c0.8,2.2,1.8,4.5,2.8,6.8c-0.5,0.4-0.3,1.4,0.4,1.1l0,0c2.5,5.8,5.7,11.6,9.7,16.5
		C571.1,1213.6,570.9,1213.8,570.9,1214.1z M587.1,1228.3c-5.8-3.6-10.7-7.9-14.9-12.5c1.9,1.7,3.8,3.5,5.8,5.2
		c0.1,0.3,0.3,0.6,0.8,0.7c3.4,3,7,5.8,10.8,8.1C588.7,1229.2,588,1228.7,587.1,1228.3z M692.1,1215.3c-23.4,29.2-66,32.8-98,16.7
		c0.8,0.2,1.2-0.8,0.5-1.2c-0.3-0.3-0.7-0.5-1-0.8c2.6,1.4,5.2,2.8,8,3.9c0.1,0.5,0.7,0.8,1,0.4c26.5,10.5,58.8,5.5,80-13.3
		c0.5,0.4,1,0.8,1.6,0.9c0.3,0.2,0.8-0.3,0.7-0.7c-0.3-0.5-0.6-1-0.9-1.5c3.8-3.6,7.2-7.4,10.1-11.9c1.8-2.6,3.1-5.5,4.3-8.5
		c0.5,0.1,0.9,0.2,1.4,0.2c0.3,0,0.5-0.4,0.3-0.7c-0.3-0.3-0.7-0.7-1.1-0.9c5.6-15.1,4.7-32.9,2.6-48c-2.6-18.9-12.3-32.5-28.8-42.2
		c-3.8-2.2-7.9-4.1-12.1-5.8c-0.2-0.4-0.6-0.6-1-0.4c-31.3-11.6-71.4-6.3-86.8,26c-0.3,0.6,0.5,1.1,0.9,0.5c1.7-2.7,3.6-5.2,5.5-7.5
		c0.8,0.7,1.7,1.4,2.5,2.1c1.1,0.9,2.1,2.1,3.4,2.8c0.5,0.3,1.1-0.3,0.8-0.8c-0.7-1.3-1.9-2.3-2.9-3.2c-0.8-0.8-1.8-1.4-2.8-2.1
		c6.2-7,13.3-12.3,21.1-15.7c1.4,3.3,2.5,7.6,5.3,10c0.2,0.2,0.4,0,0.4-0.3c-0.8-3.5-2.5-7.2-4.3-10.4c8.1-3.4,16.9-5.1,26-5.1
		c-0.2,1.7-0.2,3.4-0.2,5.1c0,2-0.2,4.1,0.5,6c0.1,0.4,0.7,0.4,0.8,0c0.5-1.7,0.5-3.5,0.5-5.2c0-1.9,0-4-0.2-5.9
		c9.4,0.2,18.9,2,28.3,5.3c-1.9,3-3.5,6.5-4.4,9.7c-0.1,0.4,0.4,0.8,0.8,0.4c2.5-2.4,3.8-6.3,5.2-9.6c3,1.2,6.2,2.5,9.1,3.9
		c5.4,2.6,10.1,5.9,14,9.8c-1,0.7-1.9,1.7-2.9,2.5c-1.4,1.3-3.6,2.7-4.5,4.4c-0.2,0.3,0,0.7,0.3,0.7c1.9-0.2,3.6-2,4.8-3.2
		c1.1-1,2.5-2,3.2-3.3c5.1,5.2,9,11.3,11.8,18c-0.4-0.8-0.8-1.4-1.3-2.2c-0.1-0.2-0.5-0.1-0.4,0.2c1.1,2.7,2,5.5,2.8,8.3
		c-3.5,0.7-7,2.2-10.2,3.6c-0.6,0.3-0.3,1.1,0.3,0.9c3.4-0.8,7.4-1.4,10.3-3.4c0.7,2.5,1.4,5.1,2,7.5c0.1,0.5,0.8,0.5,1,0.1
		c1.1,5.8,1.5,11.8,1.4,17.7c-1.8-0.2-3.6,0.1-5.3,0.3c-1.7,0.2-3.3,0.4-4.8,1.1c-0.5,0.3-0.3,1.2,0.3,1.1c1.8-0.2,3.5-0.4,5.2-0.6
		c1.5-0.1,3.1-0.1,4.7-0.6c-0.3,9.1-1.9,18.2-4.6,26.6c-0.9-0.4-2-0.8-3-1.3c-2.2-1-4.4-1.9-6.7-3c-0.6-0.3-1.2,0.6-0.5,0.9
		c2.1,1.2,4.1,2.5,6.3,3.6c1,0.5,2.1,1.1,3.2,1.6c-2.9,8.3-7.4,15.1-13.2,20.5c-0.9-1.2-2.2-2.2-3.3-3.1c-1.8-1.6-3.7-3-5.8-4.2
		c-0.8-0.5-1.5,0.8-0.8,1.3c2,1.4,3.8,3,5.7,4.7c0.9,0.8,1.8,1.8,2.8,2.6c-13.3,11.8-32.1,17.1-50.7,16.8c0.2-3.3,0-6.7-0.2-10
		c-0.1-0.8-1.2-0.8-1.3,0c-0.3,3.1-0.9,6.8,0.3,10c-9.3-0.3-18.5-1.9-26.9-4.7c0.5-1,1.1-2,1.6-3.1c0.5-1.2,1.2-2.5,1-3.9
		c0-0.3-0.5-0.7-0.8-0.3c-0.8,0.8-1.2,1.9-1.6,3c-0.5,1.3-1,2.5-1.6,3.7c-1.5-0.5-3-1.1-4.5-1.7c-6.2-2.6-11.8-6.4-16.7-11
		c2.2-2,4.5-4.1,5.9-6.6c0.3-0.5-0.3-1.2-0.8-0.8c-2.3,1.8-4.3,4.1-6.3,6.3c-6.3-6.3-11.5-14-15.3-22.3c0,0,0,0,0-0.1
		c1.1-0.3,2.1-0.6,3.2-0.9c1.6-0.5,3.1-0.8,4.4-1.9c0.3-0.3,0.1-0.8-0.3-0.8c-1.6,0-3,0.6-4.6,1.1c-1.1,0.3-2.1,0.8-3.1,1.1
		c-2.3-8.5-3.8-16.6-4.5-24.8c0.5-0.1,1-0.3,1.5-0.3c1.9-0.5,4-0.7,5.8-1.4c0.3-0.2,0.2-0.6-0.1-0.8c-1.5-0.6-3.1-0.2-4.7,0.2
		c-0.8,0.2-1.8,0.4-2.6,0.7c-0.1-2.1-0.2-4.2-0.2-6.3c1.5-6.7,3-13.1,4.9-19.4l0,0c0.1,0.2,0.3,0.3,0.6,0.3c0.8,0.3,1.6,0.5,2.4,0.8
		c1.6,0.6,3.2,1.4,5,1.4c0.6,0,0.8-0.8,0.3-1.1c-1.5-0.8-3.2-1.3-4.8-1.9c-0.7-0.3-1.3-0.5-1.9-0.7c2.8-5.5,5.2-11.3,8.5-16.6
		c0.3-0.4-0.3-0.8-0.7-0.3c-3.9,5.2-6.7,10.6-8.9,16.6c1.2-3.7,2.5-7.4,4.1-11.2c0.3-0.5-0.4-0.9-0.8-0.4
		c-3.7,5.4-6.4,11.9-8.2,18.7c-0.3-0.1-0.7,0-0.8,0.3c-0.5,2-1,4.1-1.4,6.3c1.3-10.4,5-20.3,11.6-28.4c0.5-0.7-0.4-1.5-0.9-0.9
		c-2,2.5-3.7,5.2-5.2,7.9c1.2-2.6,2.5-5.2,3.9-7.8c0.3,0,0.5,0,0.7-0.3c16.8-16.3,31.8-28.6,56.2-30.9c18.8-1.8,37.5,4.5,52.7,15
		C711.2,1133.1,718,1183,692.1,1215.3z"/>
	<path class="st3" d="M562.7,1126c4.6-6.5,10-12,15.6-17.7c0.3-0.3-0.1-0.7-0.3-0.5c-6.8,4.2-11.6,11.2-15.6,17.9
		C562.1,1126,562.4,1126.3,562.7,1126z"/>
	<path class="st3" d="M698.6,1213.1c-4.8,7.5-10.4,14.1-17.8,19.3c-0.5,0.3-0.1,1,0.4,0.8c8.2-3.8,14.3-11.8,18.3-19.5
		C699.8,1213,698.9,1212.5,698.6,1213.1z"/>
	<path class="st3" d="M543,1089c-0.2-0.7-0.9-0.6-1.3-0.2c0,0,0,0-0.1,0c-3,0.5-2.5,9-2.5,11c-0.5,7.9-0.8,15.4-3.7,22.7
		c-1.4-11-0.6-22.3-2.6-33c-0.1-0.6-0.8-0.4-1,0c-1.4,3.1-1,26.8-3,30.7c-0.8-6.8,0.8-32.1-6.1-31.8c-0.5,0-0.5,0.8,0,0.8
		c0.1,0,0.3,0.1,0.3,0.1c-1.7,10.2,0.1,20.5,0.6,30.8c0.5,9.4,6.7,16,7.4,25.5c0.4,5.6,0.5,11.2,0.5,16.8c-0.2-0.3-0.3-0.8-0.4-1.2
		c-0.3-1.1-1.9-0.6-1.7,0.4c0.3,1.4,0.8,2.7,2.1,3.5l0,0c0,0.7,0,1.4-0.1,2c-0.3-0.2-0.4-0.3-0.7-0.5c-0.8-0.7-1.9,0.3-1.1,1.1
		c0.5,0.5,1.1,0.9,1.7,1.3c-0.3,9.9-0.8,19.8-1.4,29.5c-0.8,12.8-1.3,25.5-0.3,38.2c0.3,4.8,0.5,14.6,6.3,16.6
		c0.4,0.2,0.8-0.2,0.9-0.5c3.9-14.9,2.5-34.6,0.4-49.7c-1.4-10.7-2.5-22.1-2.9-33.5c1.1-0.1,2.3-0.4,2.6-1.4
		c0.1-0.3-0.1-0.6-0.3-0.6c-0.8-0.2-1.6,0.2-2.4,0.3c0-0.7-0.1-1.4-0.1-2c0.5-0.1,0.9-0.3,1.1-0.7c0.1-0.3,0.1-0.5-0.1-0.7
		c-0.3-0.3-0.7-0.3-1-0.4c0-9.2,0.6-18.4,2.3-27c0-0.2,0-0.3-0.1-0.5C541,1120.3,547,1106.5,543,1089z M536.7,1215.7
		c0.3,6.5-0.3,13-0.2,19.6c0.1,2.4,0.4,21.4-3.1,12.9c-3.4-7.9-2.5-18.4-2.5-26.7c0-17.3,1.4-34.7,1.8-52c0.1,0,0.2,0,0.3,0.1
		C533.7,1185,536.1,1200.6,536.7,1215.7z M541.2,1117.8c-1.8,7.4-5.8,14-7,21.6c0,0.1,0,0.2,0.1,0.2c-0.7,3.8-1.2,7.6-1.4,11.5
		c-0.2-5.2-0.6-10.5-1.9-15.5c-1.8-6.8-5.5-12.4-5.8-20c-0.4-8.5-1.4-17-1.1-25.5c3.5,4.7,1.4,27.8,3.5,31.7
		c0.3,0.5,0.8,0.4,1.2,0.2c3.8-1,3.2-20,3.3-22.2c0.1-2.4,0.2-4.7,0.4-7c0.3,10.2-1.1,21.4,1.8,31.3c0.1,0.3,0.3,0.4,0.4,0.5
		c-0.1,0.2-0.2,0.4-0.3,0.6c-0.3,0.6,0.3,1.2,0.9,0.9c4.7-2.4,4.7-11.3,5.2-15.7c0.4-4,0.6-7.9,0.8-11.8c0.1-2-0.1-5,0.8-7.2
		C543.2,1099.9,543.2,1109.4,541.2,1117.8z"/>
	<path class="st3" d="M735.9,1179.8c0.3-0.2,0.4-0.4,0.6-0.8c0.3-0.5-0.2-1.1-0.8-1.1c0-0.3,0-0.7-0.1-1c0-0.1,0.1-0.2,0.1-0.3
		c0.1-0.2,0-0.3-0.2-0.4c-0.3-4.6-0.3-9.2-0.4-13.9c-0.1-13.2,0.6-26.6,1.2-39.7c0.5-12-1.3-24.2,0.1-36c0.1-0.8-1.3-1-1.4-0.2
		c-0.1,0.3-0.1,0.4-0.1,0.7c0-0.5-0.6-1.1-1.3-0.8c-4.3,2-5.5,6.5-6.6,10.8c-2.8,10.3-5.1,21.3-7.4,31.8c-0.9,4.4-1.8,8.5-2.3,12.7
		c-0.4,0.2-0.7,0.7-0.3,1.1c0.1,0.1,0.2,0.3,0.3,0.3c-0.3,4.2-0.3,8.5,0.5,12.9c1.4,7.8,8.9,12.1,12.7,18.7
		c-0.3,0.2-0.6,0.4-0.5,0.8c0.3,1,0.8,2,1.8,2.6c-0.1,0.3-0.1,0.5-0.2,0.8c-0.3-0.1-0.8-0.2-1.1-0.3c-1-0.3-1.4,1.2-0.4,1.6
		c0.4,0.2,0.8,0.3,1.3,0.3c-3.6,21-12.2,43.1-7.2,64.3c2.6,11,11.8,5.5,12.7-3C739,1221.2,737,1200.5,735.9,1179.8z M730.1,1170.1
		c-1.9-2.3-4.1-4.5-6.2-6.8c-3.6-3.7-4.9-8.4-5.2-13.3c0.8,0.9,1.5,2.2,2.8,2.6c0.3,0.1,0.6-0.2,0.5-0.5c-0.3-1.3-1.4-2.4-2.4-3.3
		c-0.3-0.3-0.7-0.3-0.9-0.1c0-1.3,0-2.5,0.1-3.7c0.1,0.2,0.2,0.3,0.3,0.4c0.6,0.9,1,2,1.9,2.6c0.3,0.2,0.6,0,0.7-0.3
		c0.3-1.9-1.4-3.8-2.6-5.3c0.2-1.9,0.4-3.6,0.7-5.3c0.2-0.9,0.3-1.8,0.5-2.7c0.5,1.8,0.7,3.6,0.8,5.5c0,0.2,0.3,0.3,0.3,0.1
		c1.1-2.5,0.4-4.8-0.9-7c0.4-2.3,0.9-4.5,1.5-6.8c0.2,0.9,0.5,1.8,1,2.5c0.3,0.3,0.8,0.1,0.8-0.3c0.5-1.7-0.5-3.9-1-5.5
		c0.4-1.4,0.8-3,1.3-4.4c0.1,1.3,0.3,2.5,1.1,3.4c0.2,0.2,0.5,0.1,0.5-0.2c0.8-1.9,0-4.5-0.5-6.4c0-0.1-0.1-0.1-0.1-0.1
		c0.3-0.7,0.4-1.4,0.7-2c0.3-1.1,0.7-2.5,0.8-4c0.1,0.3,0.2,0.7,0.3,0.9c0.4,1.4,0.7,2.8,1.6,3.9c0.2,0.3,0.6,0.1,0.7-0.2
		c0.8-2.5-1-5.6-2-7.9c0.2-1.5,0.4-3.1,0.7-4.7c0.3,1.4,0.8,2.5,1.9,3.2c0.5,0.3,0.9-0.2,0.8-0.7c-0.2-0.9-0.7-1.8-1-2.6
		c-0.4-1-0.7-2.1-1-3.2c0-0.1-0.1-0.1-0.2-0.2c1-4.6,2.7-8.5,6.3-10.1c0.2-0.1,0.3-0.3,0.4-0.4c-1,6.3-0.6,12.5-0.2,18.9
		c0.6,9.5-0.4,19.1-0.7,28.6c-0.4,14-0.3,27.7,0.3,41.4c-0.3,0.1-0.5,0.2-0.8,0.3c0-0.3,0-0.5,0-0.8c0-0.5-0.3-0.7-0.7-0.6
		C732.4,1173.4,731.7,1171.8,730.1,1170.1z M735.9,1225.5c0,4.5-0.3,9-0.5,13.4c1.2,6.8-1.9,8.6-9.1,5.5c-0.9-3.6-1.4-7.4-1.4-11.2
		c-0.8-17.9,7.2-34.8,8.5-52.4c0.4,0,0.8-0.1,1.2-0.3c0.3,6,0.5,12,0.9,18C736.1,1207.6,735.9,1216.5,735.9,1225.5z"/>
	<path class="st3" d="M739.4,1231.1c-0.7,8.5-2.6,16.5-5.9,24.3c-0.1,0.3,0.3,0.3,0.4,0.2c4.3-7.6,7.1-15.6,6.7-24.4
		C740.7,1230.3,739.5,1230.3,739.4,1231.1z"/>
	<path class="st3" d="M523.7,1228.2c0.3,4.1,0.4,8.4,2.3,12.2c0.3,0.5,0.9,0.1,0.8-0.3c-0.7-4-1.4-7.9-1.9-11.8
		C524.8,1227.4,523.6,1227.4,523.7,1228.2z"/>
	<path class="st3" d="M521.7,1235.6c-0.1,2.9,0.8,6,2.8,8.1c0.3,0.3,0.8,0,0.8-0.4c-0.5-2.7-2.1-5-2.4-7.7
		C522.8,1234.9,521.7,1234.9,521.7,1235.6z"/>
	<path class="st3" d="M545.2,1087.6c1.2,3.6,1.6,7.4,2.3,11.1c0.1,0.3,0.5,0.3,0.6,0c0.5-3.8-0.7-7.8-1.9-11.3
		C545.9,1086.8,545,1087,545.2,1087.6z"/>
	<path class="st3" d="M722.9,1097.6c0.8-1.5,1.2-3.4,1.7-5c0.8-2.1,1.8-4.2,3.4-5.9c0.6-0.6-0.3-1.5-0.9-0.9
		c-2.8,2.7-5.3,7.6-5.1,11.6C722,1097.9,722.7,1098.1,722.9,1097.6z"/>
</g>
<g id="XMLID_4_">
	<g>
		<path id="XMLID_677_" class="st4" d="M605.1,1534.8c0.7-3.8,1.5-7.6,3.2-11.1s4.6-6.6,8.4-7.9c3.8-1.3,7.7-1.1,11.5-1l11.5,0.7
			l11.5,0.6c3.8,0.3,7.7,0.2,11.5,1.4c1.8,0.6,3.7,1.6,5,3c1.4,1.4,2.4,3.2,3,5.1c1.2,3.8,1.2,7.7,1,11.5c0,0.3-0.3,0.5-0.5,0.5
			c-0.3,0-0.4-0.2-0.5-0.5v-0.1c-0.2-3.8-0.3-7.6-1.7-10.9c-1.2-3.3-3.8-5.7-7.1-6.6s-7-1-10.8-1.1l-11.5-0.5l-11.5-0.8
			c-3.8-0.3-7.4-0.3-10.7,0.7c-3.2,0.9-5.8,3.4-7.4,6.6c-1.8,3.1-2.7,6.8-3.8,10.5v0.1c-0.1,0.3-0.4,0.5-0.7,0.4
			C605.3,1535.4,605.1,1535.1,605.1,1534.8z"/>
		<path id="XMLID_676_" class="st4" d="M606.1,1535.5c0.7-1.4,2-2.4,3.4-2.9s2.8-0.8,4.2-0.9l8.3-0.6c2.8-0.2,5.5-0.5,8.3-0.5
			s5.5,0.2,8.3,0.3l16.5,1.1l8.3,0.5c1.4,0.1,2.8,0.3,4.2,0.8c1.3,0.4,2.7,1.4,3.3,2.9c0.1,0.3,0,0.5-0.3,0.6s-0.5,0-0.6-0.2
			l-0.1-0.1c-1.3-2.1-4.1-2.4-6.7-2.4l-8.3-0.2c-5.5-0.1-11-0.5-16.5-0.8c-2.7-0.2-5.4-0.3-8.1-0.3c-2.7-0.1-5.4,0.3-8.1,0.3
			l-8.2,0.3c-2.6,0.1-5.3,0.4-6.7,2.4l-0.1,0.1c-0.2,0.3-0.5,0.3-0.9,0.2C606.1,1536.1,606,1535.8,606.1,1535.5z"/>
		<path id="XMLID_675_" class="st4" d="M571.6,1605.9c-1.5-3.3-4.3-6-6.6-9.1s-3.9-6.7-5.1-10.3c-1.1-3.7-1.9-7.3-2.6-11.1
			c-0.3-1.8-0.5-3.8-0.3-5.8s1-3.8,1.8-5.5c1.7-3.4,3.2-6.9,5.9-9.8c2.6-2.9,6.6-4.4,10.5-4.5s7.9,1.6,10.5,4.5s4.2,6.8,3.9,10.8
			c0,0.3-0.3,0.5-0.5,0.4c-0.3,0-0.4-0.3-0.4-0.5v-0.1c-0.2-7.4-6.6-13.6-13.4-13.1c-3.3,0.2-6.6,1.5-8.7,3.9
			c-2.2,2.4-3.8,5.9-5.4,9.3c-0.8,1.6-1.4,3.2-1.7,4.8c-0.3,1.6-0.1,3.2,0.2,5c0.7,3.6,1.6,7.3,2.4,10.9c1,3.6,2.3,6.9,4.4,9.9
			c2,3.1,4.8,5.9,6.2,9.7v0.1c0.1,0.3-0.1,0.7-0.3,0.8C572.1,1606.3,571.7,1606.2,571.6,1605.9z"/>
		<path id="XMLID_674_" class="st4" d="M683.9,1557c3.9-6.1,11.6-9.4,18.7-7.9c3.5,0.8,6.7,2.6,9.2,5.2c2.4,2.5,4,5.9,4.5,9.4
			c1.2,7.1-0.8,14.1-2.4,20.7c-1.7,6.6-4.1,13.7-9.6,18.5c-0.2,0.2-0.5,0.2-0.7-0.1c-0.2-0.2-0.2-0.5,0-0.7l0.1-0.1
			c2.4-2.5,4.1-5.4,5.2-8.6c1.3-3.1,2.2-6.4,2.9-9.8c1.5-6.7,3.4-13.6,2.2-19.8c-0.5-3.1-1.7-5.9-3.8-8.2c-2.1-2.3-4.9-3.8-7.9-4.7
			c-6-1.6-13.1,1-17.2,6.3v0.1c-0.2,0.3-0.6,0.3-0.9,0.1C683.7,1557.6,683.7,1557.3,683.9,1557z"/>
		<path id="XMLID_673_" class="st4" d="M587,1562.3c-0.1-5,3.2-9.3,7.2-11.6c4-2.5,8.7-3.2,13.4-3.7c9.2-0.6,18.3-0.9,27.5-0.9
			c9.2-0.1,18.4,0.1,27.5,0.5c4.5,0.3,9.2,0.3,13.7,1.5c4.5,1,8.9,3.5,11.4,7.6c0.2,0.3,0.1,0.5-0.2,0.7s-0.5,0.1-0.7-0.2l0,0
			c-2.5-3.7-6.7-5.7-10.9-6.5c-4.3-0.9-8.8-0.9-13.4-1c-9.1-0.3-18.2-0.5-27.3-0.3c-9.1-0.1-18.3,0.3-27.3,0.7
			c-4.5,0.3-8.8,0.9-12.5,3.1c-3.7,2-6.8,5.7-7,10.1v0.1c0,0.3-0.3,0.6-0.6,0.6C587.2,1562.9,587,1562.6,587,1562.3z"/>
		<path id="XMLID_672_" class="st4" d="M585.2,1552.1c-0.1-7.5,0.3-15,1-22.6c0.4-3.8,0.9-7.4,1.6-11.2c0.8-3.7,2.3-7.6,5.8-9.7
			c1.7-1,3.5-1.6,5.3-2c1.8-0.5,3.7-0.9,5.5-1.2c3.8-0.7,7.5-1,11.2-1.2c7.5-0.4,15-0.4,22.6-0.3c7.5,0.2,15,0.6,22.5,1.3
			c3.8,0.4,7.5,0.6,11.2,1.7c1.8,0.5,3.6,1.5,5,2.9s2.4,3.1,3,4.9c1.3,3.6,1.9,7.3,2.7,11s1.4,7.3,2,11.1c1.2,7.4,2,15,2.6,22.4
			c0,0.3-0.2,0.5-0.4,0.5c-0.3,0-0.5-0.2-0.5-0.4l0,0c-0.8-7.4-1.9-14.9-3.3-22.2c-0.7-3.7-1.4-7.3-2.2-11
			c-0.9-3.6-1.6-7.4-2.8-10.6c-1.3-3.2-3.4-5.4-6.6-6.4c-3.1-1-7.1-1.1-10.8-1.5c-7.4-0.7-14.9-1-22.3-1.2c-7.4-0.2-15-0.2-22.4,0.2
			c-3.7,0.2-7.3,0.5-10.9,1.2c-1.8,0.3-3.6,0.7-5.3,1.1s-3.4,1-4.8,1.7c-2.7,1.5-4.1,4.7-4.9,8.2c-0.8,3.5-1.2,7.3-1.7,10.9
			c-1,7.3-1.6,14.9-1.7,22.4l0,0c0,0.3-0.3,0.6-0.6,0.6C585.5,1552.7,585.2,1552.5,585.2,1552.1z"/>
		<path id="XMLID_671_" class="st4" d="M558.4,1569.4c1.9,0.8,4.3,0.8,6.4,0c2-0.8,3.8-2.3,5-4.2c1-2,1.1-4.3,0.6-6.5
			s-1.8-4.1-3.6-5.2c-0.3-0.2-0.3-0.4-0.2-0.7c0.1-0.2,0.3-0.3,0.5-0.2l0.2,0.1c1.2,0.4,2.2,1.2,3.1,2.2c0.9,1,1.5,2.2,1.9,3.4
			c0.9,2.5,0.8,5.5-0.5,8s-3.7,4.4-6.3,5.1c-1.3,0.3-2.6,0.5-3.9,0.4c-1.3-0.2-2.5-0.5-3.6-1.3l-0.2-0.1c-0.3-0.2-0.3-0.5-0.2-0.8
			C557.8,1569.4,558.1,1569.4,558.4,1569.4z"/>
		<path id="XMLID_670_" class="st4" d="M706.5,1551.5c-1.5,1.7-2.6,3.7-3.1,5.8c-0.5,2.2,0,4.5,1.5,6.1s3.6,2.6,5.7,3.6
			c1,0.4,2.1,0.9,3.1,1s2.2-0.1,2.9-0.8c0.2-0.2,0.5-0.2,0.7,0.1c0.2,0.2,0.2,0.4,0,0.6l-0.1,0.2c-0.8,1.1-2.4,1.6-3.8,1.6
			c-1.4,0-2.6-0.3-3.8-0.7c-2.3-0.7-4.6-1.7-6.6-3.8c-1-1-1.7-2.4-2-3.9s-0.3-3,0.2-4.3c0.8-2.6,2.4-4.7,4.3-6.1l0.2-0.1
			c0.3-0.2,0.6-0.2,0.8,0.1C706.7,1551,706.7,1551.3,706.5,1551.5z"/>
		<path id="XMLID_669_" class="st4" d="M564.6,1604.9c23.2,0.7,46.4-1.4,69.6-2c23.3-0.8,46.4,0,69.7,0.8c0.3,0,0.5,0.3,0.5,0.5
			c0,0.3-0.3,0.5-0.5,0.5l0,0l-17.4,0.2h-17.4c-11.6,0-23.2,0-34.7,0.5c-11.5,0.3-23.2,1-34.8,1.3c-5.9,0.2-11.6,0.3-17.5,0.3
			c-5.9-0.1-11.6-0.3-17.5-0.8l0,0c-0.3,0-0.6-0.3-0.5-0.6C564,1605,564.3,1604.9,564.6,1604.9z"/>
		<path id="XMLID_668_" class="st4" d="M569,1619c22.2-2,44.5-3.1,66.8-3.6c22.3-0.6,44.6-0.4,66.9,0.5c0.3,0,0.5,0.3,0.5,0.5
			c0,0.3-0.3,0.5-0.5,0.5l0,0l-33.4,0.3c-11.1,0.2-22.3,0.2-33.4,0.6c-11.1,0.2-22.2,0.6-33.4,1l-33.4,1.3l0,0
			c-0.3,0-0.6-0.3-0.6-0.6C568.5,1619.4,568.8,1619.1,569,1619z"/>
		<path id="XMLID_667_" class="st4" d="M706.7,1603.5c0.9-0.1,1.7-0.2,2.7,0.1c1,0.3,1.7,1.4,1.5,2.4c-0.4,1.8-1.3,3.1-2.1,4.6
			s-1.7,2.9-2.6,4.3c-1,1.3-2,2.8-3.8,3.5c-0.3,0.1-0.5,0-0.6-0.3c-0.1-0.2,0-0.3,0.1-0.5l0.2-0.2c0.5-0.6,1-1.1,1.3-1.7
			s0.7-1.2,1-2c0.7-1.5,1.5-2.8,2.2-4.2l1.1-2c0.4-0.7,0.8-1.4,0.9-1.6s0.4,0,0.2-0.3c-0.3-0.3-1.1-0.5-1.9-0.7l-0.3-0.1
			c-0.3-0.1-0.5-0.3-0.4-0.7C706.3,1603.6,706.4,1603.5,706.7,1603.5z"/>
		<path id="XMLID_666_" class="st4" d="M565.3,1606.1c-0.2-0.3-0.8-0.3-1.3,0.1c-0.4,0.3-0.7,0.9-0.7,1.5c0.1,1.2,0.9,2.5,1.5,3.8
			c1.5,2.4,3,4.8,4.9,6.8c0.2,0.2,0.2,0.5,0,0.6c-0.2,0.2-0.3,0.2-0.5,0.1l-0.3-0.1c-0.7-0.3-1.3-0.8-1.9-1.2c-0.5-0.5-1-1-1.6-1.5
			c-1-1-1.8-2.3-2.6-3.5c-0.3-0.7-0.7-1.2-1-2s-0.7-1.7-0.5-2.8c0-1,0.7-2.5,1.7-3.1c0.5-0.3,1-0.4,1.7-0.4c0.6,0,1.2,0.3,1.5,0.8
			l0.2,0.3c0.2,0.3,0.1,0.6-0.2,0.8C565.9,1606.4,565.5,1606.3,565.3,1606.1z"/>
		<path id="XMLID_665_" class="st4" d="M583.8,1605c-0.2,2.1,0.1,4.1,0.1,6.2c0.3,2,0.3,4.1,0.7,6.1c0.1,0.3-0.1,0.5-0.3,0.5
			s-0.3,0-0.4-0.2l-0.3-0.3c-0.4-0.4-0.6-1-1-1.5l-0.6-1.5c-0.3-1-0.5-2.1-0.6-3.1s-0.1-2.1,0.2-3.1l0.3-1.6c0.3-0.5,0.3-1,0.7-1.6
			l0.2-0.3c0.2-0.3,0.5-0.3,0.7-0.2C583.7,1604.6,583.8,1604.9,583.8,1605z"/>
		<path id="XMLID_664_" class="st4" d="M690.7,1603.8c0,1.8,0.3,3.6,0.3,5.4c0.2,1.8,0.1,3.6,0.3,5.4c0,0.3-0.2,0.4-0.3,0.4
			c-0.2,0-0.3-0.1-0.3-0.2l-0.3-0.3c-0.3-0.4-0.5-0.9-0.8-1.3l-0.4-1.3c-0.3-0.9-0.3-1.7-0.5-2.5c0-0.9-0.1-1.7,0.2-2.6l0.3-1.3
			c0.2-0.4,0.3-1,0.6-1.4l0.3-0.4c0.2-0.3,0.4-0.3,0.7-0.2C690.5,1603.5,690.7,1603.6,690.7,1603.8z"/>
		<path id="XMLID_663_" class="st4" d="M604.4,1607.6c10.6-1.1,21.1-2.1,31.7-2.4c10.6-0.5,21.2-0.3,31.8,0.1c0.3,0,0.5,0.3,0.5,0.5
			c0,0.3-0.2,0.4-0.4,0.5h-0.1c-2.6,0.3-5.3,0.3-8,0.4l-7.9,0.3c-5.2,0.2-10.5,0.3-15.7,0.6c-5.2,0.1-10.5,0.4-15.7,0.6l-7.9,0.3
			c-2.6,0-5.2,0.2-8,0.2h-0.1c-0.3,0-0.6-0.3-0.6-0.6C603.9,1607.8,604.1,1607.6,604.4,1607.6z"/>
		<path id="XMLID_662_" class="st4" d="M608,1606.3c-0.5,1.6-0.5,3.2-0.7,4.8c0.1,1.7,0,3.2,0.4,4.9c0.1,0.2-0.1,0.4-0.3,0.5
			c-0.2,0-0.3,0-0.3-0.1l-0.3-0.3c-0.4-0.3-0.6-0.8-0.9-1.2l-0.5-1.2c-0.3-0.9-0.4-1.7-0.4-2.5c0.1-0.9,0.1-1.7,0.5-2.5
			c0.2-0.4,0.3-0.9,0.5-1.2c0.3-0.4,0.5-0.8,1-1.1l0.4-0.3c0.2-0.2,0.5-0.2,0.7,0C608,1605.9,608.1,1606.1,608,1606.3z"/>
		<path id="XMLID_661_" class="st4" d="M670.2,1605.3c-0.3,1.5-0.2,3-0.3,4.4c0,1.5-0.2,2.9-0.1,4.4c0,0.2-0.2,0.4-0.3,0.4
			c-0.2,0-0.3-0.1-0.3-0.2l-0.3-0.3c-0.3-0.4-0.4-0.8-0.7-1.1l-0.3-1.1c-0.3-0.7-0.3-1.4-0.3-2.2c0.1-0.7,0.1-1.4,0.4-2.1l0.4-1
			c0.3-0.3,0.4-0.7,0.8-1.1l0.4-0.4c0.2-0.2,0.4-0.2,0.7,0C670.2,1605,670.3,1605.1,670.2,1605.3z"/>
		<path id="XMLID_660_" class="st4" d="M604.5,1613.7c12.8-1.7,25.7-1.5,38.5-1.2c12.9,0.1,25.7,0.2,38.4-1.3c0.3,0,0.5,0.2,0.5,0.4
			c0,0.3-0.2,0.5-0.3,0.5h-0.1c-3.1,0.7-6.4,1.1-9.6,1.6c-3.2,0.3-6.5,0.6-9.6,0.8c-6.5,0.3-12.9,0.3-19.3,0.3
			c-6.4-0.2-12.8-0.2-19.2-0.3c-3.2-0.1-6.4,0-9.5,0.1l-4.8,0.1c-1.6,0.1-3.2,0.2-4.8,0.2h-0.1c-0.3,0-0.6-0.3-0.6-0.6
			C604,1614,604.2,1613.7,604.5,1613.7z"/>
		<path id="XMLID_659_" class="st4" d="M577.5,1617.6c0.7,4.2,1.5,8.5,2.3,12.7l1.2,6.3c0.1,0.5,0.2,1,0.4,1.3
			c0.3,0.3,0.8,0.3,1.3,0.3l3.2-0.3l6.4-0.8c0.5-0.1,1.1-0.1,1.4-0.3c0.3-0.3,0.3-0.8,0.3-1.3l0.2-3.2c0.3-4.3,0.4-8.6,0.6-12.9
			c0-0.3,0.3-0.5,0.5-0.5c0.3,0,0.4,0.2,0.5,0.4v0.1c0.3,2.2,0.3,4.3,0.4,6.5l0.1,6.5c0,1,0,2.2,0,3.2c0,0.3,0,0.5-0.1,1
			c-0.1,0.4-0.3,1.2-1,1.8c-0.7,0.6-1.4,0.7-1.7,0.8l-0.9,0.1l-6.4,1l-3.2,0.3c-0.3,0-0.8,0.1-1.3-0.1c-0.5-0.1-1.3-0.3-1.8-1
			c-1-1.2-1-2.1-1-2.5c-0.3-2.1-0.8-4.2-1-6.4l-0.9-6.4c-0.2-2.2-0.4-4.3-0.5-6.5v-0.1c0-0.3,0.3-0.6,0.6-0.6
			C577.2,1617.1,577.4,1617.3,577.5,1617.6z"/>
		<path id="XMLID_658_" class="st4" d="M681.9,1616.5c0.4,6.2,1.1,12.4,1.7,18.5l-0.4-0.3c2.6-0.7,5.2,0.3,7.5,0.5
			c1.2,0.2,2.4,0.2,3.6-0.2c0.5-0.2,1.1-0.5,1.4-0.9c0.3-0.3,0.3-1,0.3-1.7l0.9-7.4l0.7-6.6c-0.3,0-0.5-0.2-0.5-0.4
			c0-0.3,0.2-0.5,0.4-0.5c0.3-0.1,0.9,0.2,1,0.4c0.2,0.3,0.2,0.4,0.3,0.7c0.1,0.5,0.1,0.8,0.1,1v1.9c0,1.2,0,2.5-0.1,3.8
			c-0.2,2.5-0.2,5-0.4,7.5l-0.1,1c-0.1,0.4-0.2,1.1-0.7,1.7c-1,1.1-1.7,1.3-2.4,1.7c-1.7,0.6-3.3,0.5-4.7,0.3
			c-2.7-0.3-5-1.1-6.6-0.6c-1,0.3-2.3-0.3-2.5-1.3c-0.1-0.2-0.1-0.3-0.1-0.4l0,0l-0.4-4.6l-0.2-4.6c-0.2-3.1-0.1-6.2,0-9.4v-0.2
			c0-0.3,0.3-0.6,0.6-0.5S681.9,1616.2,681.9,1616.5z"/>
		<path id="XMLID_657_" class="st4" d="M610,1590.1c-0.9,1.2-1.7,2.5-2.5,3.8c-0.8,1.2-1.1,2.7-0.1,3.5c1,0.7,2.6,0.5,3.6-0.3
			c1-1,1.6-2.4,2-3.8c0.1-0.3,0.3-0.3,0.5-0.3c0.2,0.1,0.3,0.3,0.3,0.5c-0.2,1.2-0.3,2.4,0.1,3.5c0.4,1,1.6,1.5,2.6,1.1
			c1-0.3,1.8-1.3,1.9-2.4s-0.3-2.4-1-3.2c-0.1-0.1-0.1-0.3,0-0.4s0.2-0.1,0.2-0.1c1.1,0.2,2.4-0.4,3.1-1.4c0.7-1,0.9-2.3,0.3-3.2
			c-0.5-1-1.7-1.7-2.8-1.8c-1-0.2-2.4,0.7-2.2,1.7l-0.5-0.2c1-0.8,0.8-2.3,0.3-3.5c-0.5-1.1-1.4-2.4-2.5-2.9s-2.4,0.2-2.7,1.4
			c-0.3,1.1,0,2.5,0.4,3.8l-0.9,0.2c0.1,0-0.2-0.1-0.3,0c-0.1,0-0.3,0.3-0.3,0.6c-0.1,0.7,0,1.6,0,2.3c0.1,1.5,0.8,3,2,3.5
			c0.3,0.1,0.3,0.3,0.3,0.6c-0.1,0.3-0.3,0.3-0.6,0.3H611c-1-0.3-1.7-1-2.2-1.7c-0.5-0.8-0.7-1.7-0.9-2.5c-0.1-1-0.2-1.6-0.2-2.6
			c0.1-0.5,0.2-1.4,1.2-1.9c0.4-0.2,1-0.3,1.5-0.1c0.5,0.1,1.2,0.7,1.3,1.5c0.1,0.7-0.4,1.4-1.2,1.5c-0.6,0.1-1.2-0.3-1.4-0.9l0,0
			c-0.4-1.3-1.1-2.9-0.5-5c0.3-1,0.9-1.9,1.9-2.5c1-0.7,2.5-0.6,3.5-0.2c2,1,3,2.3,3.8,3.8c0.3,0.8,0.6,1.7,0.6,2.8
			s-0.4,2.4-1.5,3.3c-0.9,0.7-2.1,0.6-2.8-0.3c-0.2-0.2-0.3-0.4-0.3-0.6l0,0c-0.3-0.8-0.2-1.8,0.2-2.4c0.3-0.7,0.8-1.1,1.2-1.4
			c0.9-0.7,2.2-1,3.1-0.8c2,0.2,3.7,1.4,4.6,3.1c0.4,0.9,0.7,1.9,0.6,3.1c-0.1,1-0.5,2-1.1,2.8c-1.2,1.5-3.1,2.5-5.2,2.3l1.9-3.5
			c1,1.4,1.7,3.1,1.6,5c-0.1,1-0.4,1.9-1.1,2.8c-0.7,0.9-1.5,1.4-2.5,1.7c-1,0.3-2.1,0.3-3.2-0.1s-1.9-1.4-2.4-2.4
			c-0.8-1.9-0.3-3.5-0.2-4.8l3.5,0.9c-0.5,1.5-1.2,3.2-2.7,4.6c-1.7,1.4-4.1,1.8-6.1,0.3c-1-0.8-1.4-2.2-1.2-3.2s0.6-1.8,1-2.5
			c1-1.3,1.8-2.4,2.9-3.7v-0.1c0.2-0.3,0.6-0.3,0.9-0.1C610.1,1589.5,610.2,1589.8,610,1590.1z"/>
		<path id="XMLID_656_" class="st4" d="M619.8,1590.9c0.6-2.1,3.1-3,4.8-1.7c1.6,1.2,1.5,3.8-0.2,4.9c-0.2,0.1-0.4,0.1-0.5-0.1
			s-0.1-0.3,0-0.4c0.8-1,2.1-1.5,3.3-1.2s2.2,1.3,2.4,2.5c0.3,1.2-0.3,2.4-1,3.3s-1.9,1.4-3.1,1.6c-2.3,0.4-4.8,0.1-6.6-1.4
			s-2.9-4.2-1.7-6.6c0.1-0.3,0.4-0.3,0.7-0.2c0.2,0.1,0.3,0.3,0.3,0.5v0.2c-0.5,1.9,0.6,3.8,2,4.6c1.4,0.9,3.4,1,5.1,0.5
			c0.8-0.2,1.5-0.5,1.7-0.9c0.3-0.4,0.5-1,0.4-1.1c-0.1-0.6-1-1-1.6-0.4l-2.5-2.7c0.1,0.1,0.3-0.2,0.4-0.5c0.1-0.3,0-0.8-0.2-1
			c-0.1-0.3-0.6-0.5-1.1-0.4s-1.1,0.3-1.4,0.9l-0.1,0.2c-0.2,0.3-0.5,0.3-0.8,0.2C619.8,1591.4,619.8,1591,619.8,1590.9z"/>
		<path id="XMLID_655_" class="st4" d="M608.6,1586.6c0.3-1.7,0.4-3.5-0.2-5.1c-0.6-1.6-1.9-2.9-3.6-3.1c-0.8-0.2-1.6,0.1-1.8,0.8
			c-0.3,0.8-0.4,1.7-0.4,2.5c0,1.7,0.7,3.5,1.8,4.8l-0.4,0.3c-0.7-1-1.6-1.8-2.5-2.4c-1-0.5-2.3-0.6-3.3-0.1c-1,0.4-1.7,1.6-1.5,2.6
			c0.3,1,1.4,1.9,2.4,1.5l0.1,0.6c-1.3,0-2,1.8-1.6,3.1c0.3,1.3,1.5,2.4,2.9,2.6c1.4,0.3,2.8-0.2,4-1s2.2-1.8,3.1-3.1
			c0.2-0.2,0.5-0.3,0.7-0.1c0.2,0.2,0.3,0.4,0.1,0.6l-0.1,0.1c-0.8,1.3-1.7,2.6-3.1,3.7s-3.1,1.7-5.2,1.5c-2-0.2-3.9-1.7-4.5-3.8
			c-0.3-1-0.3-2.4,0.2-3.5c0.4-1,1.7-2.4,3.4-2.4c1,0,2,0.9,2,1.9c0,0.9-0.5,1.6-1.2,1.8h-0.1c-1.2,0.5-2.7,0.2-3.6-0.4
			c-0.9-0.6-1.5-1.5-1.8-2.5s-0.1-2.5,0.4-3.4c0.5-1,1.4-1.7,2.2-2c0.9-0.4,1.7-0.6,2.7-0.6c1,0.1,1.8,0.3,2.6,0.7
			c1.6,0.8,2.6,1.9,3.4,3.1v0.1c0.7,1,0.4,2.2-0.5,2.9c-0.9,0.6-2.1,0.4-2.8-0.3c-1.5-1.7-2.3-4-2.4-6.3c0-1.1,0.2-2.2,0.7-3.4
			c0.3-0.7,1.1-1.7,1.9-1.8c0.9-0.3,1.6-0.3,2.2-0.2c2.5,0.5,4.2,2.4,4.9,4.5c0.6,2.1,0.4,4.1-0.2,5.9v0.1c-0.1,0.3-0.4,0.5-0.8,0.3
			C608.7,1587.2,608.6,1586.9,608.6,1586.6z"/>
		<path id="XMLID_654_" class="st4" d="M601.6,1585.1c-1.7-2.7-1.6-5.8-2.1-8.6c-0.3-1.4-0.5-2.8-1.2-4c-0.6-1.2-1.6-2.4-2.7-3.1
			c-0.5-0.4-0.9,0.2-1,0.9c0,0.7,0,1.4,0.1,2.1c0.2,1.4,0.6,2.8,1.2,4c1.2,2.5,3.4,4.6,5.9,5.6c0.3,0.1,0.3,0.3,0.3,0.6
			c-0.1,0.2-0.3,0.3-0.5,0.3h-0.2c-1.5-0.3-3-1-4.3-2c-1.2-1-2.4-2.3-3.1-3.7c-0.9-1.4-1.4-3.1-1.7-4.7c-0.2-0.9-0.1-1.7-0.1-2.5
			c0.1-0.5,0-1.2,0.9-2.3c0.4-0.5,1.3-1,2.2-1c0.8,0,1.3,0.3,1.6,0.5c1.7,1.1,2.7,2.4,3.6,4c0.8,1.6,1.1,3.2,1.2,4.8l0.3,4.3
			c0,1.4,0.3,2.6,0.7,3.9l0.1,0.2c0.1,0.3-0.1,0.6-0.3,0.7C602,1585.4,601.7,1585.3,601.6,1585.1z"/>
		<path id="XMLID_653_" class="st4" d="M601.9,1585c-2.9-3.8-5.8-7.4-8.7-11.1l-4.4-5.5c-0.7-0.9-1.5-1.8-2.3-2.5
			c-0.4-0.3-0.9-0.7-1.4-0.9c-0.3-0.1-0.3-0.2-0.4,0s-0.2,0.5-0.2,0.7c0,1,0.6,2.1,1.2,3.1c0.6,1,1.3,1.9,2,2.9
			c1.4,1.8,2.9,3.7,4.5,5.2c1.7,1.7,3.4,3.1,5.3,4.5c1.9,1.3,3.9,2.7,6.1,2.5c0.3,0,0.5,0.2,0.5,0.4s-0.2,0.5-0.4,0.5h-0.1
			c-2.7,0.4-5.1-1.1-7.1-2.2c-2-1.3-4-2.8-5.9-4.4s-3.4-3.5-5-5.4c-0.8-1-1.5-1.9-2.1-3c-0.6-1-1.7-2.3-1.7-4.5
			c0-0.3,0.1-0.5,0.1-0.8c0.1-0.3,0.1-0.5,0.4-1c0.2-0.4,1-1.2,2.1-1.3c1,0,1.2,0.3,1.4,0.3c0.8,0.3,1.4,0.8,2,1.3
			c1.1,1,1.9,2,2.6,2.9c1.4,1.8,2.9,3.7,4.3,5.6l4.1,5.8c1.3,2,2.6,3.9,3.8,5.9l0.1,0.1c0.2,0.3,0.1,0.6-0.2,0.8
			C602.4,1585.4,602.1,1585.3,601.9,1585z"/>
		<path id="XMLID_652_" class="st4" d="M663.6,1589.4c0.8,1.3,1.7,2.5,2.4,3.8c0.3,0.7,0.8,1.5,0.8,2.4c0.1,0.9-0.3,1.9-1,2.4
			c-1.6,1-3.6,0.7-4.8-0.5s-1.7-2.8-2.2-4.2l0.9-0.2c0.2,1.2,0.3,2.6-0.3,3.9c-0.3,0.6-0.8,1.2-1.5,1.5s-1.4,0.3-2.1,0
			c-1.3-0.4-2.4-1.7-2.4-3.1c-0.1-1.4,0.4-2.6,1.3-3.7l0.3,0.4c-1.4,0.2-2.7-0.6-3.5-1.7c-0.9-1-1-2.6-0.4-3.8
			c0.6-1.2,1.8-2.1,3.1-2.2c0.7-0.1,1.4,0.1,2,0.4c0.5,0.3,1.1,1.1,0.9,1.9c-0.1,0.2-0.3,0.3-0.4,0.2c-0.1,0-0.1,0-0.1-0.1
			c-1.3-1.1-1-3-0.4-4.2c0.6-1.3,1.5-2.5,2.9-3.2c0.7-0.3,1.6-0.3,2.4,0c0.7,0.4,1.2,1,1.5,1.8c0.5,1.5,0,3-0.3,4.3l0,0
			c-0.1,0.3-0.3,0.3-0.5,0.3c-0.2-0.1-0.3-0.3-0.3-0.5c0.2-0.9,1-1,1.6-0.7s0.8,0.9,0.9,1.3c0.1,0.9,0.1,1.7,0,2.4
			c-0.1,1.6-0.8,3.6-2.5,4.4c-0.3,0.1-0.5,0-0.6-0.3s0-0.5,0.2-0.6l0.1-0.1c1.1-0.7,1.6-2.1,1.5-3.5c0-0.6-0.1-1.7-0.2-2.2
			c0-0.2-0.3-0.3,0.1,0c0.1,0.1,0.2,0.1,0.3,0.1s0.5-0.3,0.5-0.7l-2.6-0.5c0.3-1.3,0.5-2.5,0.2-3.1c-0.2-0.3-0.4-0.6-0.6-0.7
			c-0.2,0-0.3,0-0.5,0.1c-0.5,0.3-1.3,1.3-1.7,2.2c-0.2,0.4-0.3,1-0.3,1.2c0,0.3,0.1,0.3,0.2,0.3l-3.2,0.9c-0.1,0.2,0,0.5,0,0.6
			c0.1,0.1,0.1,0.1,0,0.1c-0.1-0.1-0.2-0.1-0.4,0c-0.4,0.1-1,0.5-1.3,1c-0.2,0.4-0.1,0.8,0.2,1.2c0.3,0.5,1,0.8,1.3,0.7h0.1
			c1.1-0.2,2.2,0.7,2.4,1.8c0.1,0.6-0.2,1.2-0.5,1.7c-0.5,0.5-0.8,1.4-0.8,1.9c0.1,0.6,0.2,0.8,0.7,1c0.5,0.1,0.4,0.2,0.7-0.2
			c0.2-0.3,0.3-1.5,0.2-2.6v-0.2c-0.2-1,0.5-1.9,1.6-2c0.9-0.1,1.7,0.4,2,1.3c0.3,1.4,0.8,2.6,1.5,3.4c0.5,0.7,1.7,0.9,2.3,0.5
			c0.3-0.1,0.4-0.3,0.5-0.9c0-0.4-0.2-1.1-0.4-1.7l-2.1-4v-0.1c-0.2-0.3,0-0.7,0.3-0.8C663.1,1589,663.4,1589.1,663.6,1589.4z"/>
		<path id="XMLID_651_" class="st4" d="M651.6,1591.1c-0.2-1.2-2-2.1-3.1-1.3c-1.1,0.7-1.1,2.9,0.1,3.6l-0.5,0.5
			c-0.5-0.8-1.7-1.2-2.6-1c-1,0.2-1.8,1-2.1,2s0.2,2.1,0.9,2.9s1.7,1.2,2.8,1.4c2.1,0.3,4.5-0.1,6.1-1.4s2.3-3.8,1.2-5.5
			c-0.2-0.3-0.1-0.5,0.2-0.7c0.2-0.2,0.5-0.1,0.6,0.1l0.1,0.1c1.7,2.1,1.2,5.6-1,7.5c-2.1,2-5,2.6-7.7,2.3c-1.4-0.2-3-0.8-4.2-2
			c-1.1-1.2-2-3.1-1.5-5.1c0.5-1.9,2-3.4,3.9-3.8c1.9-0.3,3.8,0.5,4.9,2.1l0.1,0.2c0.5,0.9,0.3,2-0.5,2.6c-0.6,0.4-1.5,0.3-2.1,0
			c-1.3-0.9-1.8-2.4-1.8-3.7c0-1.2,0.6-2.6,1.8-3.4s2.6-0.5,3.6,0s1.7,1.5,1.8,2.6v0.2c0,0.3-0.3,0.6-0.6,0.6
			C651.9,1591.7,651.7,1591.4,651.6,1591.1z"/>
		<path id="XMLID_650_" class="st4" d="M662.7,1586.8c-0.3-1.8-0.3-3.8,0.5-5.6c0.8-1.7,2.3-3.3,4.3-3.6c0.5-0.1,1-0.1,1.6,0.2
			c0.5,0.2,1,0.7,1.1,1.1c0.3,1,0.4,1.8,0.4,2.8c-0.1,1.8-0.8,3.8-2,5.2c-0.1,0.1-0.3,0.2-0.4,0c-0.1-0.1-0.2-0.3-0.1-0.4
			c0.8-1,1.7-1.9,2.8-2.4s2.5-0.6,3.8-0.1c1.1,0.5,2.2,1.8,1.7,3.2c-0.3,1.2-1.7,2.4-3.1,1.9c-0.2-0.1-0.3-0.2-0.2-0.3
			c0.1-0.1,0.2-0.2,0.3-0.2c0.9,0,1.7,0.7,2,1.4c0.3,0.7,0.4,1.7,0.2,2.4c-0.3,1.6-1.7,2.9-3.4,3.1c-1.6,0.3-3.2-0.1-4.5-0.9
			s-2.4-1.9-3.4-3.1c-0.2-0.2-0.2-0.5,0.1-0.7c0.2-0.2,0.4-0.2,0.6,0l0.1,0.1c1.1,1,2.2,1.9,3.4,2.4s2.4,0.6,3.4,0.3
			c1-0.3,1.6-1,1.7-1.8c0.2-0.7-0.7-1.3-0.2-1l0.7-3.8c-0.1-0.1-0.3,0-0.2-0.1s0.2-0.3,0.2-0.3s0-0.3-0.5-0.4s-1-0.2-1.7,0.1
			c-0.6,0.3-1.4,0.9-1.9,1.7l-3.2-2.6c0.9-1,1.4-2.3,1.5-3.7c0-0.6,0-1.5-0.1-1.9c-0.1-0.2,0.2,0.1,0.2,0c0,0-0.2-0.1-0.4-0.1
			c-1.1,0-2.3,1-3.1,2.2c-0.8,1.3-1,3-0.9,4.7v0.1c0,0.3-0.3,0.6-0.6,0.6C663.1,1587.3,662.8,1587.1,662.7,1586.8z"/>
		<path id="XMLID_649_" class="st4" d="M670,1584.4c1.6-2.2,1.8-5.2,2.4-8c0.3-1.4,0.7-2.9,1.4-4.2c0.7-1.3,1.7-2.4,3-3.2
			c0.3-0.3,1-0.3,1.3,0.1c0.3,0.3,0.3,0.8,0.4,1.1c0.1,0.7,0.1,1.5,0,2.2c-0.2,1.5-0.5,2.9-1.1,4.2c-1.3,2.6-3.4,4.9-6.1,6.3
			c-0.3,0.1-0.5,0-0.7-0.2c-0.1-0.2-0.1-0.4,0.2-0.6l0.1-0.1c1.1-0.9,2.1-1.8,2.8-2.9c0.8-1,1.4-2.2,1.8-3.3
			c0.3-1.2,0.7-2.4,0.7-3.6c0-0.6,0-1.1,0-1.7c0-0.2-0.2-0.3,0.2,0.3c0.2,0.3,0.8,0.5,1.2,0.5s0.6-0.2,0.6-0.2
			c-0.8,0.5-1.7,1.4-2.2,2.3c-0.6,1-1,2.1-1.3,3.4s-0.7,2.7-1.1,4.2c-0.5,1.4-1.2,3-2.4,4l-0.1,0.1c-0.3,0.3-0.6,0.2-0.9,0
			C669.8,1584.9,669.8,1584.6,670,1584.4z"/>
		<path id="XMLID_648_" class="st4" d="M669.7,1584.3c3.1-3.6,6-7.2,9-10.8l4.5-5.4c0.8-0.9,1.5-1.8,2.4-2.6c0.4-0.3,1-0.7,1.6-1
			c0.2-0.1,0.3-0.2,0.5-0.2c0.3,0,0.4,0.2,0.5,0.3c0.2,0.3,0.2,0.6,0.3,1c0,1.3-0.6,2.4-1.2,3.4c-0.6,1-1.3,2-2,3
			c-1.4,1.9-2.9,3.7-4.5,5.4c-1.7,1.7-3.5,3.2-5.3,4.6s-3.8,3-6.6,3c-0.3,0-0.5-0.3-0.5-0.5s0.2-0.4,0.4-0.5h0.1
			c2.1-0.3,3.8-1.7,5.5-3.3c1.7-1.5,3.4-3.1,4.9-4.8c1.5-1.7,3-3.4,4.2-5.2c0.6-1,1.2-1.8,1.8-2.8s0.9-1.8,0.9-2v-0.1
			c0,0,0,0,0.1,0.3c0.1,0.2,0.7,0.8,1.4,0.8c0.6,0,0.7-0.2,0.5-0.1c-0.3,0.1-0.6,0.3-1,0.6c-0.7,0.5-1.4,1.3-2.1,2.3
			c-1.5,1.7-3,3.6-4.6,5.3l-4.8,5.2c-1.7,1.7-3.2,3.4-5.1,5l-0.1,0.1c-0.3,0.2-0.6,0.2-0.9,0
			C669.5,1584.8,669.5,1584.5,669.7,1584.3z"/>
	</g>
</g>
<g>
	<g>
		<g>
			<g>
				<g>
					<path class="st2" d="M634.2,696.7c7.8,8.8,15.5,17.7,23,26.7c7.9,9.3,15.6,18.9,23,28.6c4.6,6,9.1,12,13.6,18.1
						c0.2,0.2,0.6,0.4,0.8,0.1c1.2-1.4,2.5-2.9,3.7-4.3c0.2-0.2,0.2-0.4,0.1-0.6c-8.1-11.2-16.5-22.2-25.3-32.9
						c-8.2-10.2-16.6-20.2-25.2-30.1c-4.1-4.7-8.2-9.5-12.4-14.2c-0.5-0.6-1-1.1-1.5-1.7c-0.3-0.3-0.6-0.6-1.1-0.6
						c-0.6,0.1-1,0.7-1.4,1c-0.6,0.6-1.3,1.3-2.1,1.8c-2.5,2.4-4.9,4.7-7.4,7.1c-9.7,9.6-19.1,19.6-28.3,29.7
						c-9.1,10-18,20.1-26.9,30.2c-1,1.2-2.2,2.5-3.3,3.7c-0.2,0.2-0.2,0.5,0,0.7c0.9,1,1.7,2.2,2.8,3c1,0.7,2.2,0.4,3-0.5
						c1.2-1.3,2.5-2.8,3.7-4.2c4.7-5.3,9.5-10.7,14.1-16c9.2-10.5,18.7-20.8,28.6-30.8c2.9-3,5.7-5.9,8.7-8.7c1.4-1.4,3-2.9,4.5-4.3
						C630.3,697.4,632.4,694.7,634.2,696.7c0.5,0.5,1.2-0.2,0.7-0.7c-0.8-0.8-2-1.2-3.1-0.9c-1.4,0.4-2.6,1.8-3.6,3
						c-2.7,2.6-5.3,5.1-8,7.8c-5.1,5-10,10.2-14.9,15.3c-9.6,10.2-18.9,20.6-28.1,31.1c-2.7,3.1-5.4,6.2-8.1,9.2
						c-0.6,0.7-1.3,1.4-2.3,0.6c-0.2-0.2-0.5-0.5-0.7-0.8c-0.6-0.6-1.1-1.2-1.7-1.8c0,0.2,0,0.5,0,0.7c8.7-9.9,17.4-19.7,26.2-29.5
						c8.9-9.9,18-19.6,27.3-29.1c4.7-4.8,9.6-9.6,14.5-14.2c0.4-0.3,0.6-0.6,1-0.2c0.3,0.2,0.6,0.6,0.8,0.9c0.5,0.6,1,1.1,1.5,1.7
						c1,1.1,2.1,2.3,3.1,3.5c2.1,2.3,4,4.6,6,6.9c8.3,9.6,16.5,19.3,24.5,29.1c8.5,10.5,16.9,21.3,25,32.1c1,1.4,2.2,2.9,3.1,4.3
						c0-0.2,0.1-0.4,0.1-0.6c-1.2,1.4-2.5,2.9-3.7,4.3c0.2,0,0.6,0.1,0.8,0.1c-7.7-10.5-15.6-20.8-23.7-31
						c-7.5-9.2-15.1-18.4-22.8-27.3c-4.4-5.1-8.8-10.2-13.3-15.2C634.5,695.5,633.8,696.2,634.2,696.7z"/>
				</g>
			</g>
			<g>
				<g>
					<path class="st2" d="M647.7,858.3c3.9-0.2,7.6-0.3,11.5-0.5c1.1-0.1,2.6,0,3.6-0.5c1.2-0.6,1.6-2,2-3.1
						c1.8-7.5,3.5-15.2,5.1-22.8c3.4-16.1,6.4-32.5,9.2-48.7c1.5-8.8,3.1-17.7,4.6-26.7c0.1-0.6-0.9-0.9-1-0.2
						c-2.7,15.5-5.3,31-8.1,46.5c-2.9,15.6-5.9,31.1-9.6,46.5c-0.4,1.8-0.8,3.8-1.3,5.6c-0.2,0.8-0.6,1.7-1.4,2.1
						c-0.6,0.2-1.4,0.2-2.2,0.3c-4,0.3-8.1,0.4-12.2,0.6C647.1,857.3,647.1,858.3,647.7,858.3L647.7,858.3z"/>
				</g>
			</g>
			<g>
				<g>
					<path class="st2" d="M582.1,747.8c1.8,17.4,3.7,34.8,5.6,52.2c2,16.9,4.1,33.9,6.8,50.7c0.2,1.2,0.4,2.5,0.6,3.7
						c0.2,1,0.2,2.2,0.6,3.2c0.6,1.6,2,2.5,3.7,2.8c2.1,0.3,4.3,0,6.3-0.1c2.6-0.1,5.1-0.2,7.6-0.3c0.6,0,0.6-1,0-1
						c-4.2,0.2-8.3,0.6-12.5,0.5c-2.1-0.1-3.8-0.6-4.3-2.8c-0.5-2-0.7-4-1-6.1c-1.3-8.2-2.6-16.5-3.7-24.7
						c-2.2-16.3-3.9-32.8-5.7-49.2c-1-9.6-2.1-19.2-3.1-28.8C583.2,747.1,582,747.1,582.1,747.8L582.1,747.8z"/>
				</g>
			</g>
			<g>
				<g>
					<path class="st2" d="M617.6,850.2c-0.9-9.8-2.4-19.6-2.3-29.5c0.1-5.1,0.4-10.3,1.4-15.2c0.7-3.3,1.8-6.5,3.6-9.2
						c3.5-5.3,10.1-8.1,16.2-6.3c4.4,1.3,7.1,5.5,8.6,9.7c1.7,4.6,2.3,9.6,2.6,14.4c0.6,12-1.3,23.8-3.2,35.6
						c-0.1,0.6,0.9,0.9,1,0.2c1.8-11.1,3.6-22.2,3.3-33.4c-0.2-5-0.6-10.1-2-14.9c-1.2-4.2-3.3-8.8-7.1-11.2
						c-5.7-3.8-14.1-1.8-18.6,3.1c-5.1,5.5-6.3,14-6.8,21.3c-0.4,5.9-0.3,11.8,0.2,17.7c0.5,6,1.2,11.9,1.8,17.9
						C616.5,850.8,617.6,850.8,617.6,850.2L617.6,850.2z"/>
				</g>
			</g>
			<g>
				<g>
					<path class="st2" d="M630.7,789.1c-0.1,15.7-0.1,31.5-0.2,47.3c0,4.5,0,8.9,0,13.5c0,0.6,1,0.6,1,0c0.1-15.8,0.1-31.5,0.2-47.4
						c0-4.4,0-8.9,0-13.4C631.6,788.4,630.7,788.4,630.7,789.1L630.7,789.1z"/>
				</g>
			</g>
			<g>
				<g>
					<path class="st2" d="M613.2,851.1c0.2,3.3,0.3,7,1.6,10c0.2,0.6,0.6,1.1,1.3,1.1c0.4,0,0.8,0,1.2,0c3.1,0,6.3,0,9.5,0.1
						c3.9,0,7.7,0,11.6,0c2.3,0,4.7,0.2,7-0.1c1-0.2,1.4-1.4,1.6-2.3c0.9-2.9,0.9-6.1,0.6-9.1c0-0.3-0.2-0.5-0.5-0.5
						c-11.2-0.6-22.3,0.4-33.5,0.2c-0.6,0-0.6,1,0,1c11.2,0.2,22.3-0.8,33.5-0.2c-0.2-0.2-0.3-0.3-0.5-0.5c0.2,2.7,0.2,5.4-0.4,8
						c-0.2,0.7-0.4,1.4-0.7,2.1c0,0.1-0.2,0.3-0.2,0.2c0,0,0.1,0,0,0c-2.1,0.2-4.2,0.1-6.2,0.1c-6.7,0-13.6,0-20.2-0.1
						c-0.6,0-1.1,0-1.7,0c-0.3,0-0.9,0.1-1.1,0c-0.2-0.2-0.6-1.3-0.6-1.7c-0.2-0.8-0.4-1.7-0.6-2.6c-0.3-2-0.5-3.9-0.6-5.9
						C614.4,850.5,613.1,850.5,613.2,851.1L613.2,851.1z"/>
				</g>
			</g>
			<g>
				<g>
					<path class="st2" d="M628.3,729.7c-3.5,0.7-6.2,2.6-8.7,5.1c-2.4,2.3-4.2,5.1-5,8.3c-1.7,7,0.2,15,5.9,19.7
						c6,5,14.9,4.7,20.9,0c6.3-4.9,8.5-13.4,6.3-20.9c-1.2-4.2-3.7-8.3-7.5-10.6C636.6,729,632.5,728.9,628.3,729.7
						c-0.6,0.2-0.4,1.1,0.2,1c3.5-0.7,7.1-0.6,10.4,1c3.4,1.7,5.7,4.8,7.1,8.3c2.8,6.9,1.7,14.9-3.5,20.3
						c-5.1,5.2-13.6,6.7-19.8,2.7c-5.9-3.7-8.2-10.9-7.5-17.6c0.4-3.5,1.8-6.7,4.3-9.2c2.6-2.7,5.3-4.8,9-5.6
						C629.2,730.5,629,729.5,628.3,729.7z"/>
				</g>
			</g>
			<g>
				<g>
					<path class="st2" d="M630.3,730.1c0.1,4,0.2,8,0.2,12c0.1,6.4,0.2,12.8,0.3,19.1c0,1.4,0.1,3,0.1,4.4c0,0.6,1,0.6,1,0
						c-0.1-4-0.2-8-0.2-12c-0.1-6.4-0.2-12.8-0.3-19.1c0-1.4-0.1-3-0.1-4.4C631.3,729.5,630.3,729.5,630.3,730.1L630.3,730.1z"/>
				</g>
			</g>
			<g>
				<g>
					<path class="st2" d="M614.8,750.1c4.1-0.4,8.3-0.4,12.4-0.5c5.5-0.2,11.2-0.3,16.7-0.5c1.2,0,2.5-0.1,3.7-0.1c0.6,0,0.6-1,0-1
						c-9.2,0.2-18.4,0.5-27.6,0.8c-1.7,0.1-3.5,0.1-5.2,0.2C614.1,749.2,614.1,750.2,614.8,750.1L614.8,750.1z"/>
				</g>
			</g>
			<g>
				<g>
					<path class="st2" d="M585.8,778.1c-0.5,0.1-0.9,0.6-1.2,0.8c-0.6,0.6-1.2,1.3-1.8,2c-1.8,2.2-3.5,4.3-5.1,6.5
						c-3.5,4.6-7,9.2-10.4,14c-0.4,0.6-0.9,1.2-1.3,1.8c-0.2,0.2-0.4,0.5-0.4,0.7c-0.1,0.6,0.2,1.5,0.2,2.2
						c0.4,4.4,0.9,8.8,1.3,13.3c1.1,11.6,2.3,23.3,3.3,35c0.2,1.5,0.2,3.1,0.4,4.7c0,0.3,0,0.6,0.1,1v0.1c0-0.3,0,0.2,0,0.2
						c0.1,0.2,0.2,0.3,0.5,0.4c1,0.4,2.4,0.2,3.5,0.2c2.4,0,4.7,0,7.1-0.1c10.4-0.2,20.7-0.6,31.1-1.1c0.2,0,0.4,0,0.6,0
						c0.6,0,0.6-1,0-1c-8.8,0.4-17.8,0.7-26.7,1c-4.7,0.2-9.3,0.4-14,0.2c-0.3,0-1-0.2-1.2-0.1c-0.2,0.1,0-0.2,0,0
						c0-0.2,0.2,0.9,0.2,0.3c0-0.1,0-0.2,0-0.2c0-1-0.2-2.2-0.2-3.4c-0.9-11-2.1-21.9-3.1-32.8c-0.5-5-1-10.1-1.4-15.1
						c-0.2-1.4-0.2-2.7-0.4-4.1c0-0.2-0.1-0.5-0.1-0.7c0-0.1-0.2,0.3,0,0.2c0.1-0.1,0.2-0.3,0.3-0.4c2.8-3.9,5.5-7.7,8.4-11.6
						c1.8-2.5,3.8-5,5.6-7.4c1.4-1.7,2.7-3.5,4.3-5c0.2-0.2,0.7-0.6,0.9-0.7C586.7,779,586.6,778,585.8,778.1L585.8,778.1z"/>
				</g>
			</g>
			<g>
				<g>
					<path class="st2" d="M660.4,857.9c4.3-0.2,8.5-0.3,12.8-0.5c6.8-0.2,13.6-0.5,20.4-0.7c1.5-0.1,3.1-0.1,4.7-0.2
						c0.2,0,0.5-0.2,0.5-0.5c0.1-4,0.1-8,0.2-12c0.1-6.5,0.2-12.8,0.2-19.3c0-1.4,0-3,0.1-4.4c0-0.2-0.1-0.4-0.2-0.4
						c-7.3-3.2-14.6-6.5-22-9.7c-1-0.5-2.1-0.9-3.1-1.4c-0.6-0.2-1.1,0.6-0.5,0.9c7.3,3.2,14.6,6.5,22,9.7c1,0.5,2.1,0.9,3.1,1.4
						c-0.1-0.2-0.2-0.3-0.2-0.4c-0.1,4-0.1,8-0.2,12c-0.1,6.5-0.2,12.8-0.2,19.3c0,1.4,0,3-0.1,4.4c0.2-0.2,0.3-0.3,0.5-0.5
						c-4.3,0.2-8.5,0.3-12.8,0.5c-6.8,0.2-13.6,0.5-20.4,0.7c-1.5,0.1-3.1,0.1-4.7,0.2C659.7,856.8,659.7,857.9,660.4,857.9
						L660.4,857.9z"/>
				</g>
			</g>
			<g>
				<g>
					<path class="st2" d="M636.3,657.3c0.1,11.2,0.2,22.4,1.1,33.6c0.1,0.6,1,0.6,1,0c-0.9-11.2-1-22.3-1.1-33.6
						C637.3,656.6,636.2,656.6,636.3,657.3L636.3,657.3z"/>
				</g>
			</g>
			<g>
				<g>
					<path class="st2" d="M629.4,648.4c0-2.3-0.1-4.6-0.2-6.9c-0.1-1-0.1-2.2-0.2-3.2c-0.1-1-0.2-2.2-0.2-3.2
						c0.2-1.4,1.6-1.3,2.8-1.4c0.6-0.1,1.2-0.1,1.8-0.2c0.6-0.1,1.2-0.2,1.8-0.1c0.6,0.2,0.6,1,0.6,1.5c0,0.6,0.1,1.2,0.1,1.8
						c0,1.1,0.1,2.3,0.1,3.5c0.1,2.7,0.1,5.3,0.2,8c0,0.6,1,0.6,1,0c0-2.8-0.1-5.5-0.2-8.3c0-1.4-0.1-2.8-0.1-4.2
						c0-1,0.2-2.5-0.7-3.1s-2.4-0.2-3.4-0.2c-1.1,0.1-2.6,0-3.7,0.5c-0.9,0.4-1.2,1.4-1.2,2.4c0,1.3,0.2,2.6,0.2,3.9
						c0.2,3.1,0.2,6.1,0.3,9.1C628.3,649.1,629.5,649.2,629.4,648.4L629.4,648.4z"/>
				</g>
			</g>
			<g>
				<g>
					<path class="st2" d="M630,689.4c-0.8-10.5-0.6-21.1-0.6-31.6c0-0.6-1-0.6-1,0c0,10.6-0.2,21.1,0.6,31.6
						C629.1,690.1,630.1,690.1,630,689.4L630,689.4z"/>
				</g>
			</g>
			<g>
				<g>
					<path class="st2" d="M614.8,658.5c10-0.6,20.1-1,30.1-1.6c2.2-0.1,4.4-0.2,6.7-0.3c1.5-0.1,3.4-0.1,3.5-2.2
						c0.1-1.2,0-2.5,0-3.6c0-0.5,0-1,0-1.5c-0.2-1-1-1.4-2-1.5c-6.5-0.8-12.9,0-19.4,0.6c-3.7,0.3-7.5,0.6-11.2,0.6
						c-1.8,0-3.8-0.1-5.6-0.2c-0.8,0-1.6-0.1-2.4-0.1c-0.8-0.1-1.8-0.2-2.6-0.2c-1.3,0.2-1.1,1.6-1.1,2.6c0.1,1.6,0.4,3.3,0.6,4.9
						c0.1,1,0.4,2.1,1.5,2.4C613.6,658.5,614.4,658.5,614.8,658.5c0.6,0,0.6-1,0-1c-0.4,0-0.9,0.1-1.4,0c-1.5-0.2-1.2-2.6-1.4-3.8
						c-0.1-0.6-0.2-1.3-0.2-1.8c-0.1-0.5-0.2-1.2-0.1-1.7c0.2-0.9,1.6-0.5,2.4-0.4c0.8,0.1,1.6,0.1,2.4,0.1c6.1,0.2,12,0.1,18-0.6
						c5.9-0.6,11.6-1.2,17.4-0.6c1,0.1,2.1,0,2.2,1.2c0,0.1,0,0.2,0,0.2c0,0.6,0,1.4,0,2.1c0,1,0.4,3.1-0.9,3.4
						c-0.9,0.2-2,0.1-2.9,0.2c-2.2,0.1-4.4,0.2-6.6,0.3c-5.9,0.3-11.8,0.6-17.7,1c-3.8,0.2-7.5,0.4-11.2,0.6
						C614.2,657.5,614.2,658.5,614.8,658.5z"/>
				</g>
			</g>
			<g>
				<g>
					<path class="st2" d="M625.2,823.8c-0.4,0.4-0.5,1-0.2,1.6c0.2,0.2,0.4,0.4,0.6,0.4c0.2,0,0.6,0,0.8-0.1s0.5-0.2,0.6-0.5
						c0.1-0.2,0.2-0.5,0.1-0.8c0-0.5-0.2-1-0.6-1.2c-0.6-0.2-1.2,0.2-1.4,0.7c-0.2,0.2,0.2,0.4,0.3,0.2c0.2-0.3,0.5-0.6,0.9-0.6
						c0.3,0.1,0.5,0.4,0.5,0.7c0.1,0.3,0.1,0.8-0.3,1c-0.2,0.1-0.4,0.1-0.6,0.1c-0.2,0-0.4,0-0.5-0.1c-0.2-0.2-0.2-0.4-0.2-0.6
						c0-0.2,0.1-0.4,0.2-0.6c0.1-0.1,0.1-0.2,0-0.3C625.4,823.7,625.3,823.7,625.2,823.8L625.2,823.8z"/>
				</g>
			</g>
			<g>
				<g>
					<path class="st2" d="M636.2,822.9c-0.3,0-0.6,0.2-0.8,0.3c-0.1,0.1-0.2,0.2-0.3,0.2c-0.1,0.1-0.2,0.2-0.2,0.4
						c-0.1,0.5,0,1.1,0.3,1.5s0.9,0.6,1.4,0.3c0.5-0.2,0.6-0.8,0.6-1.2c0-0.3,0.1-0.6-0.1-1c-0.1-0.2-0.3-0.5-0.6-0.6
						c-0.1,0-0.2,0-0.2,0.2c0,0.1,0,0.2,0.2,0.2c0.5,0.1,0.4,0.6,0.4,1s-0.1,0.7-0.3,1c-0.2,0.2-0.6,0.2-0.9-0.1
						c-0.3-0.2-0.4-0.6-0.3-1c0-0.1,0-0.2,0.1-0.3c0-0.1,0.1-0.2,0.2-0.2c0.2-0.2,0.4-0.2,0.6-0.2c0.1,0,0.2-0.1,0.2-0.2
						C636.3,823,636.3,822.9,636.2,822.9L636.2,822.9z"/>
				</g>
			</g>
		</g>
	</g>
	<g>
		<g>
			<path class="st5" d="M588.1,759.3c-0.7-4.9-1.3-9.9-1.8-14.8c0-0.2-0.4-0.2-0.4,0c0.4,5,1,10,1.8,14.9
				C587.7,759.6,588.1,759.5,588.1,759.3L588.1,759.3z"/>
		</g>
	</g>
	<g>
		<g>
			<path class="st5" d="M589.5,748.8c-0.2-2.8-0.4-5.5-0.6-8.3c0-0.2-0.4-0.2-0.4,0c0.2,2.8,0.4,5.5,0.6,8.3
				C589.1,749.1,589.5,749.1,589.5,748.8L589.5,748.8z"/>
		</g>
	</g>
	<g>
		<g>
			<path class="st5" d="M588.7,763.1c0.2,0,0.2-0.4,0-0.4C588.5,762.7,588.5,763.1,588.7,763.1L588.7,763.1z"/>
		</g>
	</g>
	<g>
		<g>
			<path class="st5" d="M676.7,770.6c1-6.2,2.3-12.1,4.2-18.1c0.1-0.2-0.3-0.3-0.4-0.1c-2,5.9-3.2,11.9-4.2,18.1
				C676.2,770.8,676.6,770.8,676.7,770.6L676.7,770.6z"/>
		</g>
	</g>
	<g>
		<g>
			<path class="st5" d="M676,760.3c1.1-3.5,2.2-7.1,3.4-10.7c0.1-0.2-0.3-0.3-0.4-0.1c-1.1,3.5-2.2,7.1-3.4,10.7
				C675.5,760.4,675.9,760.6,676,760.3L676,760.3z"/>
		</g>
	</g>
	<g>
		<g>
			<path class="st5" d="M676.5,750.5c0.4-1,0.8-2.1,1.2-3.1c0.1-0.1-0.1-0.2-0.2-0.2c-0.1,0-0.2,0.1-0.2,0.2c-0.4,1-0.8,2.1-1.2,3.1
				c-0.1,0.1,0.1,0.2,0.2,0.2C676.3,750.7,676.4,750.6,676.5,750.5L676.5,750.5z"/>
		</g>
	</g>
	<g>
		<g>
			<path class="st5" d="M643.7,707.2c-0.1,1.7-0.2,3.5-0.5,5.1c0,0.2,0.3,0.4,0.4,0.1c0.2-1.7,0.4-3.5,0.5-5.3
				C644.1,706.9,643.7,706.9,643.7,707.2L643.7,707.2z"/>
		</g>
	</g>
	<g>
		<g>
			<path class="st5" d="M645.9,710.1c-0.2,2.2-0.2,4.3-0.4,6.5c0,0.2,0.4,0.2,0.4,0c0.2-2.2,0.2-4.3,0.4-6.5
				C646.4,709.8,645.9,709.8,645.9,710.1L645.9,710.1z"/>
		</g>
	</g>
	<g>
		<g>
			<path class="st5" d="M648.9,712.7c-0.1,0.6-0.1,1-0.2,1.6c0,0.1,0.1,0.2,0.2,0.2s0.2-0.1,0.2-0.2c0.1-0.6,0.1-1,0.2-1.6
				c0-0.1-0.1-0.2-0.2-0.2C649,712.6,648.9,712.6,648.9,712.7L648.9,712.7z"/>
		</g>
	</g>
	<g>
		<g>
			<path class="st5" d="M624.4,744.5c0.7-0.9,1.4-1.8,2.2-2.8c0.1-0.1,0.1-0.2,0-0.3s-0.2-0.1-0.3,0c-0.7,0.9-1.4,1.8-2.2,2.8
				c-0.1,0.1-0.1,0.2,0,0.3S624.3,744.6,624.4,744.5L624.4,744.5z"/>
		</g>
	</g>
	<g>
		<g>
			<path class="st5" d="M621.3,744.5c1.5-2.2,3.2-4.2,4.9-6.2c0.2-0.2-0.1-0.5-0.3-0.3c-1.7,2.1-3.5,4.1-5,6.3
				C620.8,744.5,621.2,744.7,621.3,744.5L621.3,744.5z"/>
		</g>
	</g>
	<g>
		<g>
			<path class="st5" d="M636.6,743.1c0.4-0.6,0.8-1,1.2-1.6c0.1-0.1,0.1-0.2,0-0.3s-0.2-0.1-0.3,0c-0.4,0.6-0.8,1-1.2,1.6
				c-0.1,0.1-0.1,0.2,0,0.3H636.6L636.6,743.1z"/>
		</g>
	</g>
	<g>
		<g>
			<path class="st5" d="M637.4,759.8c0.8-1.4,1.8-2.8,3.1-3.9c0.2-0.2-0.1-0.5-0.3-0.3c-1.1,1.2-2.2,2.6-3.1,4
				C636.9,759.8,637.2,760,637.4,759.8L637.4,759.8z"/>
		</g>
	</g>
	<g>
		<g>
			<path class="st5" d="M636.7,756.3c0.2-0.5,0.5-1,0.9-1.3c0.1-0.1,0.1-0.2,0-0.3s-0.2-0.1-0.3,0c-0.5,0.4-0.8,0.9-1,1.5
				c0,0.1,0,0.2,0.2,0.2C636.7,756.5,636.7,756.4,636.7,756.3L636.7,756.3z"/>
		</g>
	</g>
	<g>
		<g>
			<path class="st5" d="M626.2,755.4c0.2,0,0.2-0.4,0-0.4C625.9,754.9,625.9,755.4,626.2,755.4L626.2,755.4z"/>
		</g>
	</g>
	<g>
		<g>
			<path class="st5" d="M620.1,850.4c-0.1-1.8-0.2-3.7-0.2-5.5c0-0.2-0.4-0.2-0.4,0c0.1,1.8,0.2,3.7,0.2,5.5
				C619.7,850.7,620.1,850.7,620.1,850.4L620.1,850.4z"/>
		</g>
	</g>
	<g>
		<g>
			<path class="st5" d="M622.7,850.4c-0.2-1-0.4-2-0.3-3.1c0-0.2-0.4-0.2-0.4,0c0,1,0.1,2.2,0.4,3.1
				C622.4,850.7,622.8,850.6,622.7,850.4L622.7,850.4z"/>
		</g>
	</g>
	<g>
		<g>
			<path class="st5" d="M620.3,841c0.2,0,0.2-0.4,0-0.4S620.1,841,620.3,841L620.3,841z"/>
		</g>
	</g>
	<g>
		<g>
			<path class="st5" d="M641.9,849.9c0.6-4.5,1.3-9,2-13.6c0-0.2-0.3-0.4-0.4-0.1c-0.6,4.5-1.3,9-2,13.6
				C641.5,850.1,641.8,850.2,641.9,849.9L641.9,849.9z"/>
		</g>
	</g>
	<g>
		<g>
			<path class="st5" d="M639.1,850.1c-0.1-1.7,0.1-3.4,0.5-5c0.1-0.2-0.3-0.3-0.4-0.1c-0.4,1.6-0.6,3.4-0.5,5.1
				C638.7,850.3,639.1,850.3,639.1,850.1L639.1,850.1z"/>
		</g>
	</g>
	<g>
		<g>
			<path class="st5" d="M603.4,855.4c-2.2-0.6-3.2-2.8-3.6-4.8c-0.5-2.1-0.8-4.1-1.1-6.3c-0.6-4.3-1-8.7-1-13c0-0.2-0.4-0.2-0.4,0
				c0,4.8,0.4,9.6,1.2,14.4c0.3,2.2,0.6,4.7,1.4,6.8c0.6,1.5,1.7,3,3.5,3.4C603.5,855.9,603.8,855.5,603.4,855.4L603.4,855.4z"/>
		</g>
	</g>
	<g>
		<g>
			<path class="st5" d="M603.4,852.2c-1.7-3.5-2.5-7.4-2.2-11.3c0-0.2-0.4-0.2-0.4,0c-0.2,3.9,0.6,7.9,2.3,11.5
				C603.1,852.6,603.4,852.3,603.4,852.2L603.4,852.2z"/>
		</g>
	</g>
	<g>
		<g>
			<path class="st5" d="M601,836.5c0.2,0,0.2-0.4,0-0.4S600.8,836.5,601,836.5L601,836.5z"/>
		</g>
	</g>
	<g>
		<g>
			<path class="st5" d="M592.3,857.1c-1-3.1-1.3-6.2-1-9.3c0-0.2-0.4-0.2-0.4,0c-0.3,3.2,0,6.4,1,9.5
				C591.9,857.6,592.3,857.4,592.3,857.1L592.3,857.1z"/>
		</g>
	</g>
	<g>
		<g>
			<path class="st5" d="M589.8,857.1c-0.1-1.4-0.2-2.7-0.6-4c-0.1-0.2-0.5-0.2-0.4,0.1c0.3,1.3,0.5,2.6,0.6,3.9
				C589.3,857.3,589.8,857.3,589.8,857.1L589.8,857.1z"/>
		</g>
	</g>
	<g>
		<g>
			<path class="st5" d="M586.7,855.8c-0.2-1-0.5-2.2-0.7-3.3c-0.1-0.2-0.5-0.2-0.4,0.1c0.2,1,0.5,2.2,0.7,3.3
				C586.3,856.1,586.7,856,586.7,855.8L586.7,855.8z"/>
		</g>
	</g>
	<g>
		<g>
			<path class="st5" d="M582.3,856.2c-0.1-0.6-0.1-1.2-0.2-1.8c0-0.1-0.1-0.2-0.2-0.2c-0.1,0-0.2,0.1-0.2,0.2
				c0.1,0.6,0.1,1.2,0.2,1.8c0,0.1,0.1,0.2,0.2,0.2C582.2,856.3,582.3,856.3,582.3,856.2L582.3,856.2z"/>
		</g>
	</g>
	<g>
		<g>
			<path class="st5" d="M581.2,843.9c-0.1-0.5-0.1-1-0.2-1.4c0-0.1-0.1-0.2-0.2-0.2s-0.2,0.1-0.2,0.2c0.1,0.5,0.1,1,0.2,1.4
				c0,0.1,0.1,0.2,0.2,0.2C581.1,844.1,581.2,844.1,581.2,843.9L581.2,843.9z"/>
		</g>
	</g>
	<g>
		<g>
			<path class="st5" d="M617.5,856c0.1,0.9,0.2,1.8,0.6,2.6c0.1,0.2,0.5,0,0.3-0.2c-0.3-0.7-0.6-1.6-0.6-2.5
				C617.9,855.7,617.5,855.7,617.5,856L617.5,856z"/>
		</g>
	</g>
	<g>
		<g>
			<path class="st5" d="M620.1,857.3c0.2,0.2,0.3,0.5,0.5,0.7c0,0.1,0.1,0.1,0.1,0.1c0.1,0,0.1,0,0.2,0c0.1-0.1,0.2-0.2,0.1-0.2
				c-0.2-0.2-0.3-0.5-0.5-0.7c0-0.1-0.1-0.1-0.1-0.1c-0.1,0-0.1,0-0.2,0C620.1,857.1,619.9,857.2,620.1,857.3L620.1,857.3z"/>
		</g>
	</g>
	<g>
		<g>
			<path class="st5" d="M623.6,857.9c0.2,0.2,0.3,0.3,0.6,0.6c0.1,0.1,0.2,0.1,0.3,0s0.1-0.2,0-0.3c-0.2-0.2-0.3-0.3-0.6-0.6
				c-0.1-0.1-0.2-0.1-0.3,0C623.5,857.8,623.5,857.9,623.6,857.9L623.6,857.9z"/>
		</g>
	</g>
	<g>
		<g>
			<path class="st5" d="M694.7,853c-0.5-4.1-0.3-8.3,0.3-12.4c0.1-0.2-0.3-0.4-0.4-0.1c-0.6,4.1-0.8,8.3-0.3,12.4
				C694.3,853.4,694.7,853.4,694.7,853L694.7,853z"/>
		</g>
	</g>
	<g>
		<g>
			<path class="st5" d="M691.6,851.7c0.2-1.8,0.2-3.9,0.2-5.7c0-0.2-0.4-0.2-0.4,0c0,1.8-0.1,3.9-0.2,5.7
				C691.2,851.9,691.6,851.9,691.6,851.7L691.6,851.7z"/>
		</g>
	</g>
	<g>
		<g>
			<path class="st5" d="M688.4,852.4c0-1.4,0-2.8,0-4.2c0-0.2-0.4-0.2-0.4,0c0,1.4,0,2.8,0,4.2C688,852.6,688.4,852.6,688.4,852.4
				L688.4,852.4z"/>
		</g>
	</g>
	<g>
		<g>
			<path class="st5" d="M667.7,854.2c2.4-5.1,1.8-11,3.9-16.2c0.1-0.2-0.3-0.3-0.4-0.1c-2.1,5.1-1.4,11-3.9,16.1
				C667.3,854.2,667.5,854.4,667.7,854.2L667.7,854.2z"/>
		</g>
	</g>
	<g>
		<g>
			<path class="st5" d="M670.9,853.3c0.6-1.5,1-3.2,1.3-4.8c0-0.2-0.3-0.4-0.4-0.1c-0.2,1.6-0.6,3.3-1.3,4.8
				C670.4,853.4,670.8,853.5,670.9,853.3L670.9,853.3z"/>
		</g>
	</g>
	<g>
		<g>
			<path class="st5" d="M673.4,843.7c0.2,0,0.2-0.4,0-0.4C673.1,843.3,673.1,843.7,673.4,843.7L673.4,843.7z"/>
		</g>
	</g>
	<g>
		<g>
			<path class="st5" d="M694.3,822.5c0.4,2,0.5,4,0.2,6c-0.1,0.2,0.3,0.4,0.4,0.1c0.3-2.1,0.2-4.2-0.2-6.3
				C694.7,822.1,694.3,822.2,694.3,822.5L694.3,822.5z"/>
		</g>
	</g>
	<g>
		<g>
			<path class="st5" d="M690.9,823.5c0.1,0.3,0.1,0.7,0.2,1c0,0.1,0.2,0.2,0.2,0.2l0.2-0.2c-0.1-0.3-0.1-0.7-0.2-1
				c0-0.1-0.2-0.2-0.2-0.2C690.9,823.4,690.9,823.5,690.9,823.5L690.9,823.5z"/>
		</g>
	</g>
	<g>
		<g>
			<path class="st5" d="M667.4,821.6c0.6-3.6,1.4-7.2,2.5-10.8c0.1-0.2-0.3-0.3-0.4-0.1c-1,3.5-1.8,7.1-2.5,10.8
				C667,821.7,667.4,821.8,667.4,821.6L667.4,821.6z"/>
		</g>
	</g>
	<g>
		<g>
			<path class="st5" d="M665.8,816.7c0.1-0.8,0.2-1.6,0.6-2.5c0-0.1-0.1-0.2-0.2-0.2c-0.1,0-0.2,0-0.2,0.2c-0.3,0.8-0.5,1.7-0.6,2.6
				C665.4,816.9,665.8,816.9,665.8,816.7L665.8,816.7z"/>
		</g>
	</g>
	<g>
		<g>
			<path class="st5" d="M668.5,805.8c0-0.2,0-0.3,0-0.6c0-0.1-0.1-0.2-0.2-0.2c-0.1,0-0.2,0.1-0.2,0.2c0,0.2,0,0.3,0,0.6
				c0,0.1,0.1,0.2,0.2,0.2C668.5,806.1,668.5,806,668.5,805.8L668.5,805.8z"/>
		</g>
	</g>
	<g>
		<g>
			<path class="st5" d="M591.6,795.4c-0.3-4.1-0.6-8.2-1-12.3c0-0.2-0.4-0.2-0.4,0c0.3,4.1,0.6,8.2,1,12.3
				C591.4,795.6,591.8,795.6,591.6,795.4L591.6,795.4z"/>
		</g>
	</g>
	<g>
		<g>
			<path class="st5" d="M589.9,779.8c0.2,0,0.2-0.4,0-0.4C589.5,779.4,589.5,779.8,589.9,779.8L589.9,779.8z"/>
		</g>
	</g>
	<g>
		<g>
			<path class="st5" d="M593.9,790.3c-0.1-0.4-0.1-0.8-0.2-1.2c0-0.1-0.2-0.2-0.2-0.2c-0.1,0-0.2,0.2-0.2,0.2
				c0.1,0.4,0.1,0.8,0.2,1.2c0,0.1,0.2,0.2,0.2,0.2C593.9,790.5,593.9,790.4,593.9,790.3L593.9,790.3z"/>
		</g>
	</g>
	<g>
		<g>
			<path class="st5" d="M579.5,792.4c1.4-1.4,2.2-3.3,3.1-5c1-1.8,2.5-3.5,4.3-4.6c0.2-0.2,0-0.5-0.2-0.3c-1.7,1-3.2,2.6-4.2,4.3
				c-1,1.8-1.7,3.8-3.2,5.3C578.9,792.4,579.2,792.6,579.5,792.4L579.5,792.4z"/>
		</g>
	</g>
	<g>
		<g>
			<path class="st5" d="M576.7,795.2c0.2,0,0.2-0.4,0-0.4S576.5,795.2,576.7,795.2L576.7,795.2z"/>
		</g>
	</g>
	<g>
		<g>
			<path class="st5" d="M584.5,788.4C584.5,788.4,584.6,788.3,584.5,788.4C584.5,788.3,584.5,788.3,584.5,788.4
				c0.1-0.1,0.1-0.2,0.2-0.2c0.1-0.1,0.1-0.2,0.2-0.2c0.1-0.1,0.2-0.2,0.3-0.3c0.2-0.2,0.5-0.3,0.8-0.4c0.2-0.1,0.2-0.5-0.1-0.4
				c-0.7,0.2-1.4,0.7-1.7,1.4C584.1,788.4,584.3,788.5,584.5,788.4C584.4,788.6,584.5,788.5,584.5,788.4L584.5,788.4z"/>
		</g>
	</g>
	<g>
		<g>
			<path class="st5" d="M622.6,798.1c1-1.4,2.3-2.7,3.9-3.6c0.2-0.2,0-0.5-0.2-0.3c-1.5,0.9-3,2.2-4,3.8
				C622.1,798.1,622.4,798.3,622.6,798.1L622.6,798.1z"/>
		</g>
	</g>
	<g>
		<g>
			<path class="st5" d="M620.8,801.3c0.2,0,0.2-0.4,0-0.4C620.5,800.9,620.5,801.3,620.8,801.3L620.8,801.3z"/>
		</g>
	</g>
	<g>
		<g>
			<path class="st5" d="M643,858.3c0.1-0.4,0.1-0.8,0.2-1.2c0-0.1,0-0.2-0.2-0.2c-0.1,0-0.2,0-0.2,0.2c-0.1,0.4-0.1,0.8-0.2,1.2
				c0,0.1,0,0.2,0.2,0.2C642.8,858.4,642.9,858.3,643,858.3L643,858.3z"/>
		</g>
	</g>
	<g>
		<g>
			<path class="st5" d="M639.5,858.7c0-0.3,0-0.7,0-1c0-0.1-0.1-0.2-0.2-0.2c-0.1,0-0.2,0.1-0.2,0.2c0,0.3,0,0.7,0,1
				c0,0.1,0.1,0.2,0.2,0.2S639.5,858.8,639.5,858.7L639.5,858.7z"/>
		</g>
	</g>
	<g>
		<g>
			<path class="st5" d="M684.5,840c0-0.3,0-0.7,0-1c0-0.1-0.1-0.2-0.2-0.2c-0.1,0-0.2,0.1-0.2,0.2c0,0.3,0,0.7,0,1
				c0,0.1,0.1,0.2,0.2,0.2C684.4,840.1,684.5,840,684.5,840L684.5,840z"/>
		</g>
	</g>
	<g>
		<g>
			<path class="st5" d="M663.8,787.6c0.2,0,0.2-0.4,0-0.4C663.6,787.2,663.6,787.6,663.8,787.6L663.8,787.6z"/>
		</g>
	</g>
	<g>
		<g>
			<path class="st5" d="M641.8,766.9c5.5-2.6,7.9-8.5,9-14.2c0.1-0.2-0.3-0.3-0.4-0.1c-1.1,5.5-3.5,11.4-8.8,14
				C641.4,766.7,641.5,767,641.8,766.9L641.8,766.9z"/>
		</g>
	</g>
	<g>
		<g>
			<path class="st5" d="M646.9,766.3c1.3-1,2.4-2.5,3.2-3.9c0.1-0.2-0.2-0.4-0.3-0.2c-0.7,1.4-1.8,2.8-3.1,3.9
				C646.5,766.1,646.8,766.4,646.9,766.3L646.9,766.3z"/>
		</g>
	</g>
	<g>
		<g>
			<path class="st5" d="M611.2,745.1c0.1-4.5,2.1-8.8,5.3-12c0.2-0.2-0.1-0.5-0.3-0.3c-3.4,3.2-5.3,7.6-5.4,12.2
				C610.8,745.3,611.2,745.3,611.2,745.1L611.2,745.1z"/>
		</g>
	</g>
	<g>
		<g>
			<path class="st5" d="M609.1,741.5c0.2-2.1,1.1-3.9,2.5-5.4c0.2-0.2-0.1-0.5-0.3-0.3c-1.4,1.6-2.3,3.6-2.6,5.7
				C608.7,741.7,609.1,741.7,609.1,741.5L609.1,741.5z"/>
		</g>
	</g>
	<g>
		<g>
			<path class="st2" d="M578.8,725.4c-4.7-0.2-9.8-0.6-13-4.3c-0.7-0.8-1.3-1.7-1.6-2.8c-0.2-0.4-0.5-1.1-0.3-1.5
				c0.3-0.8,1.4-0.7,2.1-0.7c2.5-0.1,4.8,0.6,7,1.8c0.3,0.2,0.7-0.2,0.6-0.6c-1.2-2.2-3.1-6.3-1.1-8.7c2-2.6,4.7,2,5.2,3.6
				c0.7,2.2,0.6,4.5,0.7,6.7c0.1,2.3,0,4.6,0.2,6.9c0.1,0.5,0.9,0.5,0.8,0c-0.4-4.3,0.2-8.8-0.8-13c-0.4-1.8-1.6-4-3.2-5.1
				c-1.7-1.2-3.5-0.2-4.2,1.6c-1,2.8,0.3,6.1,1.7,8.5c0.2-0.2,0.4-0.4,0.6-0.6c-2.4-1.4-5.2-2.2-8.1-2c-1,0.1-2.1,0.3-2.2,1.4
				c-0.1,1.1,0.5,2.4,1,3.3c3,5.1,9.3,6.1,14.8,6.3C579.4,726.2,579.4,725.4,578.8,725.4L578.8,725.4z"/>
		</g>
	</g>
	<g>
		<g>
			<path class="st2" d="M589.3,712.5c-2.3-2.2-4-4.8-4.7-7.9c-0.2-0.7-1.2-5,0.5-4.7c0.4,0.1,0.8,0.7,1,1s0.5,0.6,0.6,1
				c0.4,0.7,0.7,1.5,1,2.4c0.1,0.4,0.9,0.3,0.8-0.1c-0.2-1.6-0.1-3.6,0.9-5c0.2-0.3,0.6-0.6,1-0.6c0.5,0,0.7,0.3,0.9,0.6
				c0.5,0.7,0.6,1.5,0.6,2.4c0.2,3.9-2.2,7.5-3.4,11c-0.2,0.5,0.6,0.7,0.8,0.2c0.8-2.3,2-4.5,2.8-6.9c0.6-2,1-4.4,0.2-6.4
				c-0.2-0.6-0.7-1.4-1.4-1.6c-0.7-0.2-1.5,0.1-2.1,0.6c-1.3,1.4-1.4,3.9-1.2,5.7c0.2,0,0.6-0.1,0.8-0.1c-0.3-1-0.7-2.2-1.3-3.1
				c-0.4-0.6-1-1.6-1.8-2c-0.7-0.3-1.4,0-1.8,0.6c-0.5,0.8-0.3,1.8-0.2,2.8c0.5,4,2.5,7.7,5.4,10.4
				C589,713.5,589.7,712.8,589.3,712.5L589.3,712.5z"/>
		</g>
	</g>
</g>
<g class="st6">
	<path class="st1" d="M239.7,943.4c0-4.7,0.7-8.7,2.1-12c1.4-3.4,3.3-5.9,5.6-7.5c1.8-1.3,3.6-1.9,5.6-1.9c3.1,0,6,1.6,8.4,4.8
		c3.1,3.9,4.7,9.3,4.7,16.1c0,4.7-0.7,8.7-2.1,12s-3.1,5.7-5.2,7.2s-4.2,2.2-6.1,2.2c-3.9,0-7.1-2.3-9.7-6.9
		C240.7,953.5,239.7,948.8,239.7,943.4z M245.5,944.1c0,5.6,0.7,10.2,2.1,13.7c1.1,3,2.9,4.5,5.1,4.5c1.1,0,2.2-0.5,3.4-1.5
		c1.2-1,2.1-2.6,2.7-4.9c0.9-3.5,1.4-8.3,1.4-14.6c0-4.6-0.5-8.5-1.5-11.6c-0.7-2.3-1.7-3.9-2.8-4.9c-0.8-0.7-1.8-1-3-1
		c-1.4,0-2.6,0.6-3.7,1.8c-1.4,1.7-2.4,4.3-3,7.9C245.8,937.2,245.5,940.7,245.5,944.1z"/>
	<path class="st1" d="M271.5,964.4v-1.1c2.6,0,5-0.7,7.3-1.8c2.2-1.2,4.4-3.2,6.5-6.1c2.1-2.9,3.5-6.1,4.4-9.7c-3.1,2-6,3-8.5,3
		c-2.9,0-5.4-1.1-7.4-3.3s-3.1-5.2-3.1-8.8s1-6.7,3.1-9.5c2.5-3.4,5.7-5.1,9.7-5.1c3.3,0,6.2,1.4,8.6,4.1c2.9,3.4,4.4,7.7,4.4,12.7
		c0,4.5-1.1,8.8-3.3,12.7c-2.2,3.9-5.3,7.2-9.3,9.8c-3.2,2.1-6.7,3.2-10.5,3.2h-1.9L271.5,964.4L271.5,964.4z M290.1,943.4
		c0.4-2.6,0.6-4.7,0.6-6.2c0-1.9-0.3-4-1-6.3s-1.6-4-2.8-5.2c-1.2-1.2-2.6-1.8-4.1-1.8c-1.8,0-3.4,0.8-4.7,2.4c-1.3,1.6-2,4-2,7.2
		c0,4.2,0.9,7.5,2.7,9.9c1.3,1.7,2.9,2.6,4.8,2.6c0.9,0,2-0.2,3.3-0.7C288,944.8,289.1,944.2,290.1,943.4z"/>
	<path class="st1" d="M307.6,957.7c0.9,0,1.7,0.3,2.4,1c0.6,0.7,1,1.5,1,2.4s-0.3,1.7-1,2.4s-1.5,1-2.4,1s-1.7-0.3-2.4-1
		c-0.6-0.7-1-1.5-1-2.4s0.3-1.7,1-2.4C305.9,958,306.7,957.7,307.6,957.7z M307.7,935.1c0.9,0,1.7,0.3,2.4,1c0.6,0.6,1,1.4,1,2.4
		c0,0.9-0.3,1.7-1,2.4c-0.6,0.7-1.4,1-2.4,1c-0.9,0-1.7-0.3-2.4-1c-0.7-0.7-1-1.5-1-2.4s0.3-1.7,1-2.4
		C306,935.5,306.8,935.1,307.7,935.1z"/>
	<path class="st1" d="M318.3,943.4c0-4.7,0.7-8.7,2.1-12c1.4-3.4,3.3-5.9,5.6-7.5c1.8-1.3,3.6-1.9,5.6-1.9c3.1,0,6,1.6,8.4,4.8
		c3.1,3.9,4.7,9.3,4.7,16.1c0,4.7-0.7,8.7-2.1,12s-3.1,5.7-5.2,7.2s-4.2,2.2-6.1,2.2c-3.9,0-7.1-2.3-9.7-6.9
		C319.4,953.5,318.3,948.8,318.3,943.4z M324.2,944.1c0,5.6,0.7,10.2,2.1,13.7c1.1,3,2.9,4.5,5.1,4.5c1.1,0,2.2-0.5,3.4-1.5
		c1.2-1,2.1-2.6,2.7-4.9c0.9-3.5,1.4-8.3,1.4-14.6c0-4.6-0.5-8.5-1.5-11.6c-0.7-2.3-1.7-3.9-2.8-4.9c-0.8-0.7-1.8-1-3-1
		c-1.4,0-2.6,0.6-3.7,1.8c-1.4,1.7-2.4,4.3-3,7.9C324.5,937.2,324.2,940.7,324.2,944.1z"/>
	<path class="st1" d="M349.1,943.4c0-4.7,0.7-8.7,2.1-12c1.4-3.4,3.3-5.9,5.6-7.5c1.8-1.3,3.6-1.9,5.6-1.9c3.1,0,6,1.6,8.4,4.8
		c3.1,3.9,4.7,9.3,4.7,16.1c0,4.7-0.7,8.7-2.1,12s-3.1,5.7-5.2,7.2s-4.2,2.2-6.1,2.2c-3.9,0-7.1-2.3-9.7-6.9
		C350.2,953.5,349.1,948.8,349.1,943.4z M355,944.1c0,5.6,0.7,10.2,2.1,13.7c1.1,3,2.9,4.5,5.1,4.5c1.1,0,2.2-0.5,3.4-1.5
		c1.2-1,2.1-2.6,2.7-4.9c0.9-3.5,1.4-8.3,1.4-14.6c0-4.6-0.5-8.5-1.5-11.6c-0.7-2.3-1.7-3.9-2.8-4.9c-0.8-0.7-1.8-1-3-1
		c-1.4,0-2.6,0.6-3.7,1.8c-1.4,1.7-2.4,4.3-3,7.9C355.2,937.2,355,940.7,355,944.1z"/>
	<path class="st1" d="M481.7,947.4h15.5v4.6h-15.5V947.4z"/>
	<path class="st1" d="M552.2,921.8l0.9,13.9h-0.9c-1.2-4.2-3-7.2-5.3-9s-5.1-2.7-8.3-2.7c-2.7,0-5.2,0.7-7.3,2.1
		c-2.2,1.4-3.9,3.6-5.2,6.6s-1.9,6.7-1.9,11.2c0,3.7,0.6,6.9,1.8,9.6c1.2,2.7,3,4.8,5.3,6.2c2.4,1.4,5.1,2.2,8.1,2.2
		c2.7,0,5-0.6,7-1.7c2-1.1,4.2-3.4,6.7-6.7l0.9,0.6c-2,3.6-4.4,6.3-7.2,8c-2.7,1.7-6,2.5-9.7,2.5c-6.7,0-12-2.5-15.7-7.5
		c-2.8-3.7-4.1-8.1-4.1-13.2c0-4.1,0.9-7.8,2.7-11.2c1.8-3.4,4.3-6.1,7.5-7.9c3.2-1.9,6.7-2.8,10.5-2.8c2.9,0,5.8,0.7,8.7,2.2
		c0.8,0.4,1.5,0.7,1.8,0.7c0.5,0,1-0.2,1.4-0.6c0.5-0.5,0.9-1.3,1.1-2.3h1.2V921.8z"/>
	<path class="st1" d="M562.8,946.3c0,4.1,1,7.3,3,9.6s4.4,3.5,7.1,3.5c1.8,0,3.4-0.5,4.7-1.5s2.4-2.7,3.3-5.1l0.9,0.6
		c-0.4,2.7-1.6,5.2-3.7,7.5c-2,2.3-4.6,3.4-7.6,3.4c-3.3,0-6.1-1.3-8.5-3.9c-2.4-2.6-3.5-6-3.5-10.4c0-4.7,1.2-8.4,3.6-11
		c2.4-2.6,5.5-4,9.1-4c3.1,0,5.6,1,7.6,3s3,4.8,3,8.2h-19L562.8,946.3L562.8,946.3z M562.8,944.6h12.8c-0.1-1.8-0.3-3-0.6-3.7
		c-0.5-1.1-1.2-2-2.2-2.7s-2-1-3.1-1c-1.7,0-3.2,0.6-4.5,1.9C563.7,940.5,563,942.3,562.8,944.6z"/>
	<path class="st1" d="M593.5,935.2v6.2c2.3-4.1,4.7-6.2,7.1-6.2c1.1,0,2,0.3,2.7,1s1.1,1.4,1.1,2.3c0,0.8-0.3,1.5-0.8,2
		s-1.1,0.8-1.8,0.8s-1.5-0.3-2.4-1s-1.5-1-1.9-1s-0.8,0.2-1.2,0.6c-0.9,0.8-1.8,2.2-2.8,4v13.2c0,1.5,0.2,2.7,0.6,3.4
		c0.2,0.5,0.7,1,1.4,1.4s1.6,0.5,2.9,0.5v1.1h-14.1v-1.1c1.4,0,2.4-0.2,3.1-0.7c0.5-0.3,0.8-0.8,1-1.5c0.1-0.3,0.1-1.3,0.1-2.9
		v-10.7c0-3.2-0.1-5.1-0.2-5.7c-0.1-0.6-0.4-1.1-0.7-1.3c-0.3-0.3-0.8-0.4-1.3-0.4c-0.6,0-1.3,0.1-2.1,0.4l-0.3-1.1l8.3-3.4h1.3
		L593.5,935.2L593.5,935.2z"/>
	<path class="st1" d="M610.6,946.3c0,4.1,1,7.3,3,9.6s4.4,3.5,7.1,3.5c1.8,0,3.4-0.5,4.7-1.5s2.4-2.7,3.3-5.1l0.9,0.6
		c-0.4,2.7-1.6,5.2-3.7,7.5c-2,2.3-4.6,3.4-7.6,3.4c-3.3,0-6.1-1.3-8.5-3.9c-2.4-2.6-3.5-6-3.5-10.4c0-4.7,1.2-8.4,3.6-11
		c2.4-2.6,5.5-4,9.1-4c3.1,0,5.6,1,7.6,3s3,4.8,3,8.2h-19L610.6,946.3L610.6,946.3z M610.6,944.6h12.8c-0.1-1.8-0.3-3-0.6-3.7
		c-0.5-1.1-1.2-2-2.2-2.7s-2-1-3.1-1c-1.7,0-3.2,0.6-4.5,1.9C611.6,940.5,610.8,942.3,610.6,944.6z"/>
	<path class="st1" d="M641.5,941c2-2,3.2-3.2,3.5-3.5c0.9-0.7,1.9-1.3,2.9-1.8c1-0.4,2.1-0.6,3.1-0.6c1.7,0,3.2,0.5,4.5,1.5
		c1.2,1,2.1,2.5,2.5,4.4c2.1-2.4,3.8-4,5.2-4.7s2.9-1.1,4.4-1.1s2.8,0.4,3.9,1.1c1.1,0.7,2,2,2.7,3.7c0.4,1.1,0.7,3,0.7,5.5v11.8
		c0,1.7,0.1,2.9,0.4,3.5c0.2,0.4,0.6,0.8,1.1,1.1s1.4,0.5,2.6,0.5v1.1h-13.6v-1.1h0.6c1.2,0,2.1-0.2,2.8-0.7c0.4-0.3,0.8-0.8,1-1.6
		c0.1-0.3,0.1-1.3,0.1-2.9v-11.8c0-2.2-0.3-3.8-0.8-4.7c-0.8-1.3-2.1-1.9-3.8-1.9c-1.1,0-2.1,0.3-3.2,0.8c-1.1,0.5-2.4,1.5-3.9,3
		l-0.1,0.3l0.1,1.3v13.1c0,1.9,0.1,3.1,0.3,3.5c0.2,0.5,0.6,0.8,1.2,1.2s1.6,0.5,3,0.5v1.1h-13.9v-1.1c1.5,0,2.6-0.2,3.1-0.5
		c0.6-0.4,1-0.9,1.2-1.6c0.1-0.3,0.1-1.3,0.1-3v-11.8c0-2.2-0.3-3.8-1-4.8c-0.9-1.3-2.1-1.9-3.7-1.9c-1.1,0-2.2,0.3-3.2,0.9
		c-1.7,0.9-3,1.9-3.9,3v14.8c0,1.8,0.1,3,0.4,3.5c0.3,0.5,0.6,0.9,1.1,1.2s1.5,0.4,3,0.4v1.1h-13.6v-1.1c1.2,0,2.1-0.1,2.6-0.4
		c0.5-0.3,0.9-0.7,1.2-1.3s0.4-1.7,0.4-3.5V947c0-3-0.1-5-0.3-5.9c-0.1-0.7-0.3-1.1-0.6-1.4s-0.7-0.4-1.2-0.4c-0.6,0-1.2,0.1-2,0.4
		l-0.4-1.1l8.3-3.4h1.3L641.5,941L641.5,941z"/>
	<path class="st1" d="M694.7,935.2c4.2,0,7.5,1.6,10,4.7c2.1,2.7,3.2,5.8,3.2,9.3c0,2.5-0.6,5-1.8,7.5s-2.8,4.4-4.9,5.7
		c-2.1,1.3-4.4,1.9-6.9,1.9c-4.1,0-7.4-1.7-9.9-5c-2-2.8-3.1-5.9-3.1-9.4c0-2.5,0.6-5.1,1.9-7.5s2.9-4.3,4.9-5.5
		S692.4,935.2,694.7,935.2z M693.8,937.1c-1,0-2.1,0.3-3.2,1c-1.1,0.6-2,1.7-2.6,3.3c-0.7,1.6-1,3.6-1,6.1c0,4,0.8,7.5,2.4,10.4
		s3.7,4.4,6.3,4.4c1.9,0,3.5-0.8,4.8-2.4s1.9-4.3,1.9-8.3c0-4.9-1-8.8-3.1-11.6C697.8,938.1,696,937.1,693.8,937.1z"/>
	<path class="st1" d="M720,941c3.2-3.9,6.3-5.8,9.3-5.8c1.5,0,2.8,0.4,3.9,1.1s1.9,2,2.6,3.7c0.4,1.2,0.6,3.1,0.6,5.6v11.7
		c0,1.7,0.1,2.9,0.4,3.5c0.2,0.5,0.6,0.9,1.1,1.2s1.4,0.4,2.7,0.4v1.1H727v-1.1h0.6c1.3,0,2.2-0.2,2.7-0.6s0.9-1,1.1-1.7
		c0.1-0.3,0.1-1.2,0.1-2.8V946c0-2.5-0.3-4.3-1-5.4c-0.7-1.1-1.8-1.7-3.3-1.7c-2.4,0-4.8,1.3-7.1,3.9v14.5c0,1.9,0.1,3,0.3,3.5
		c0.3,0.6,0.7,1,1.2,1.3s1.5,0.4,3,0.4v1.1H711v-1.1h0.6c1.4,0,2.3-0.4,2.8-1.1c0.5-0.7,0.7-2.1,0.7-4.1v-10.2
		c0-3.3-0.1-5.3-0.2-6.1s-0.4-1.2-0.7-1.5s-0.7-0.4-1.3-0.4s-1.2,0.1-2,0.4l-0.4-1.1l8.3-3.4h1.3L720,941L720,941z"/>
	<path class="st1" d="M752.3,935.2v22.1c0,1.7,0.1,2.9,0.4,3.5c0.2,0.6,0.6,1,1.1,1.3s1.4,0.4,2.7,0.4v1.1h-13.4v-1.1
		c1.3,0,2.2-0.1,2.7-0.4s0.8-0.7,1.1-1.3s0.4-1.8,0.4-3.5v-10.6c0-3-0.1-4.9-0.3-5.8c-0.1-0.6-0.4-1.1-0.7-1.3s-0.7-0.4-1.2-0.4
		s-1.2,0.1-2,0.4l-0.4-1.1l8.3-3.4L752.3,935.2L752.3,935.2z M749.8,920.8c0.8,0,1.6,0.3,2.1,0.9c0.6,0.6,0.9,1.3,0.9,2.2
		c0,0.8-0.3,1.5-0.9,2.1c-0.6,0.6-1.3,0.9-2.1,0.9s-1.6-0.3-2.2-0.9c-0.6-0.6-0.9-1.3-0.9-2.1s0.3-1.6,0.9-2.2
		S748.9,920.8,749.8,920.8z"/>
	<path class="st1" d="M775.5,959.6c-2.8,2.2-4.6,3.4-5.3,3.8c-1.1,0.5-2.3,0.7-3.5,0.7c-1.9,0-3.5-0.6-4.7-1.9
		c-1.2-1.3-1.8-3-1.8-5.2c0-1.3,0.3-2.5,0.9-3.5c0.8-1.4,2.2-2.7,4.3-3.8c2-1.2,5.4-2.7,10.1-4.4v-1.1c0-2.7-0.4-4.6-1.3-5.6
		c-0.9-1-2.1-1.5-3.8-1.5c-1.2,0-2.2,0.3-3,1s-1.2,1.5-1.2,2.4l0.1,1.8c0,0.9-0.2,1.6-0.7,2.1s-1.1,0.7-1.8,0.7s-1.4-0.3-1.8-0.8
		c-0.5-0.5-0.7-1.2-0.7-2.1c0-1.7,0.9-3.3,2.7-4.7s4.2-2.2,7.4-2.2c2.4,0,4.4,0.4,6,1.2c1.2,0.6,2,1.6,2.6,2.9
		c0.3,0.9,0.5,2.6,0.5,5.3v9.3c0,2.6,0,4.2,0.1,4.8s0.3,1,0.5,1.2s0.5,0.3,0.8,0.3s0.6-0.1,0.8-0.2c0.4-0.2,1.2-1,2.5-2.2v1.7
		c-2.3,3-4.4,4.5-6.5,4.5c-1,0-1.8-0.3-2.3-1C775.8,962.4,775.5,961.2,775.5,959.6z M775.5,957.6v-10.5c-3,1.2-5,2.1-5.9,2.6
		c-1.6,0.9-2.7,1.8-3.4,2.8s-1,2-1,3.1c0,1.4,0.4,2.6,1.3,3.6c0.9,1,1.8,1.4,3,1.4C771,960.6,773,959.6,775.5,957.6z"/>
	<path class="st1" d="M810.7,935.2v6.2c2.3-4.1,4.7-6.2,7.1-6.2c1.1,0,2,0.3,2.7,1s1.1,1.4,1.1,2.3c0,0.8-0.3,1.5-0.8,2
		s-1.1,0.8-1.8,0.8s-1.5-0.3-2.4-1s-1.5-1-1.9-1s-0.8,0.2-1.2,0.6c-0.9,0.8-1.8,2.2-2.8,4v13.2c0,1.5,0.2,2.7,0.6,3.4
		c0.2,0.5,0.7,1,1.4,1.4s1.6,0.5,2.9,0.5v1.1h-14.1v-1.1c1.4,0,2.4-0.2,3.1-0.7c0.5-0.3,0.8-0.8,1-1.5c0.1-0.3,0.1-1.3,0.1-2.9
		v-10.7c0-3.2-0.1-5.1-0.2-5.7c-0.1-0.6-0.4-1.1-0.7-1.3c-0.3-0.3-0.8-0.4-1.3-0.4c-0.6,0-1.3,0.1-2.1,0.4l-0.3-1.1l8.3-3.4h1.3
		L810.7,935.2L810.7,935.2z"/>
	<path class="st1" d="M827.8,946.3c0,4.1,1,7.3,3,9.6s4.4,3.5,7.1,3.5c1.8,0,3.4-0.5,4.7-1.5s2.4-2.7,3.3-5.1l0.9,0.6
		c-0.4,2.7-1.6,5.2-3.7,7.5c-2,2.3-4.6,3.4-7.6,3.4c-3.3,0-6.1-1.3-8.5-3.9c-2.4-2.6-3.5-6-3.5-10.4c0-4.7,1.2-8.4,3.6-11
		c2.4-2.6,5.5-4,9.1-4c3.1,0,5.6,1,7.6,3s3,4.8,3,8.2h-19L827.8,946.3L827.8,946.3z M827.8,944.6h12.8c-0.1-1.8-0.3-3-0.6-3.7
		c-0.5-1.1-1.2-2-2.2-2.7s-2-1-3.1-1c-1.7,0-3.2,0.6-4.5,1.9C828.8,940.5,828,942.3,827.8,944.6z"/>
	<path class="st1" d="M860,920.8v36.5c0,1.7,0.1,2.9,0.4,3.5s0.6,1,1.2,1.3c0.5,0.3,1.5,0.4,2.9,0.4v1.1H851v-1.1
		c1.3,0,2.1-0.1,2.6-0.4s0.8-0.7,1.1-1.3s0.4-1.8,0.4-3.5v-25c0-3.1-0.1-5-0.2-5.7c-0.1-0.7-0.4-1.2-0.7-1.5s-0.7-0.4-1.2-0.4
		s-1.2,0.2-2,0.5l-0.5-1.1l8.2-3.4h1.3L860,920.8L860,920.8z"/>
	<path class="st1" d="M877.1,935.2v22.1c0,1.7,0.1,2.9,0.4,3.5c0.2,0.6,0.6,1,1.1,1.3s1.4,0.4,2.7,0.4v1.1h-13.4v-1.1
		c1.3,0,2.2-0.1,2.7-0.4s0.8-0.7,1.1-1.3s0.4-1.8,0.4-3.5v-10.6c0-3-0.1-4.9-0.3-5.8c-0.1-0.6-0.4-1.1-0.7-1.3s-0.7-0.4-1.2-0.4
		s-1.2,0.1-2,0.4l-0.4-1.1l8.3-3.4L877.1,935.2L877.1,935.2z M874.6,920.8c0.8,0,1.6,0.3,2.1,0.9c0.6,0.6,0.9,1.3,0.9,2.2
		c0,0.8-0.3,1.5-0.9,2.1c-0.6,0.6-1.3,0.9-2.1,0.9s-1.6-0.3-2.2-0.9c-0.6-0.6-0.9-1.3-0.9-2.1s0.3-1.6,0.9-2.2
		S873.7,920.8,874.6,920.8z"/>
	<path class="st1" d="M892.1,953.5c-1.7-0.8-3-2-3.9-3.4s-1.3-3.1-1.3-4.9c0-2.7,1-5.1,3.1-7c2.1-2,4.7-3,7.9-3
		c2.6,0,4.9,0.6,6.8,1.9h5.8c0.9,0,1.4,0,1.5,0.1c0.1,0,0.2,0.1,0.3,0.3s0.2,0.5,0.2,1s-0.1,0.9-0.2,1.1c-0.1,0.1-0.2,0.2-0.3,0.2
		c-0.1,0.1-0.7,0.1-1.5,0.1H907c1.1,1.4,1.7,3.3,1.7,5.5c0,2.6-1,4.8-3,6.6s-4.6,2.7-7.9,2.7c-1.4,0-2.8-0.2-4.2-0.6
		c-0.9,0.8-1.5,1.4-1.8,2s-0.5,1.1-0.5,1.5c0,0.3,0.2,0.7,0.5,1s1,0.5,1.9,0.7c0.6,0.1,2,0.1,4.2,0.2c4.1,0.1,6.8,0.2,8,0.4
		c1.9,0.2,3.4,0.9,4.5,2.1c1.1,1.1,1.7,2.5,1.7,4.2c0,2.3-1.1,4.4-3.2,6.4c-3.1,2.9-7.2,4.4-12.3,4.4c-3.9,0-7.1-0.9-9.8-2.6
		c-1.5-1-2.2-2-2.2-3.1c0-0.5,0.1-1,0.3-1.5c0.3-0.7,1-1.7,2.1-3.1c0.1-0.2,1.2-1.3,3.1-3.2c-1-0.6-1.8-1.2-2.2-1.7
		s-0.7-1.1-0.7-1.7c0-0.7,0.3-1.5,0.9-2.5C888.7,956.5,890,955.2,892.1,953.5z M891.8,963.5c-0.9,1-1.7,2-2.1,2.9
		c-0.5,0.9-0.7,1.7-0.7,2.4c0,0.9,0.6,1.8,1.8,2.5c2,1.2,4.9,1.9,8.7,1.9c3.6,0,6.2-0.6,8-1.9c1.7-1.3,2.6-2.6,2.6-4.1
		c0-1-0.5-1.8-1.5-2.2s-3.1-0.7-6.2-0.7C897.7,964.1,894.2,963.9,891.8,963.5z M897.3,936.6c-1.5,0-2.7,0.6-3.7,1.8s-1.5,3-1.5,5.4
		c0,3.2,0.7,5.6,2,7.4c1,1.3,2.4,2,4,2c1.5,0,2.8-0.6,3.8-1.7c1-1.1,1.5-2.9,1.5-5.4c0-3.2-0.7-5.7-2.1-7.5
		C900.2,937.3,898.9,936.6,897.3,936.6z"/>
	<path class="st1" d="M925,935.2v22.1c0,1.7,0.1,2.9,0.4,3.5s0.6,1,1.1,1.3s1.4,0.4,2.7,0.4v1.1h-13.4v-1.1c1.3,0,2.2-0.1,2.7-0.4
		s0.8-0.7,1.1-1.3s0.4-1.8,0.4-3.5v-10.6c0-3-0.1-4.9-0.3-5.8c-0.1-0.6-0.4-1.1-0.7-1.3s-0.7-0.4-1.2-0.4s-1.2,0.1-2,0.4l-0.4-1.1
		l8.3-3.4L925,935.2L925,935.2z M922.5,920.8c0.8,0,1.6,0.3,2.1,0.9c0.6,0.6,0.9,1.3,0.9,2.2c0,0.8-0.3,1.5-0.9,2.1
		c-0.6,0.6-1.3,0.9-2.1,0.9s-1.6-0.3-2.2-0.9s-0.9-1.3-0.9-2.1s0.3-1.6,0.9-2.2S921.6,920.8,922.5,920.8z"/>
	<path class="st1" d="M946.1,935.2c4.2,0,7.5,1.6,10,4.7c2.1,2.7,3.2,5.8,3.2,9.3c0,2.5-0.6,5-1.8,7.5s-2.8,4.4-4.9,5.7
		c-2.1,1.3-4.4,1.9-6.9,1.9c-4.1,0-7.4-1.7-9.9-5c-2-2.8-3.1-5.9-3.1-9.4c0-2.5,0.6-5.1,1.9-7.5c1.2-2.5,2.9-4.3,4.9-5.5
		S943.8,935.2,946.1,935.2z M945.1,937.1c-1,0-2.1,0.3-3.2,1c-1.1,0.6-2,1.7-2.6,3.3c-0.7,1.6-1,3.6-1,6.1c0,4,0.8,7.5,2.4,10.4
		s3.7,4.4,6.3,4.4c1.9,0,3.5-0.8,4.8-2.4s1.9-4.3,1.9-8.3c0-4.9-1-8.8-3.1-11.6C949.2,938.1,947.3,937.1,945.1,937.1z"/>
	<path class="st1" d="M981.2,935.2v9.4h-1c-0.8-2.9-1.8-4.9-3-6s-2.7-1.6-4.6-1.6c-1.4,0-2.5,0.4-3.4,1.1c-0.9,0.7-1.3,1.6-1.3,2.5
		c0,1.1,0.3,2.1,1,2.9c0.6,0.8,1.9,1.7,3.8,2.6l4.4,2.2c4.1,2,6.1,4.6,6.1,7.8c0,2.5-1,4.5-2.9,6.1s-4,2.3-6.4,2.3
		c-1.7,0-3.6-0.3-5.8-0.9c-0.7-0.2-1.2-0.3-1.6-0.3c-0.4,0-0.8,0.3-1.1,0.8h-1v-9.8h1c0.6,2.8,1.6,4.9,3.2,6.4
		c1.6,1.4,3.4,2.1,5.3,2.1c1.4,0,2.5-0.4,3.4-1.2s1.3-1.8,1.3-2.9c0-1.4-0.5-2.6-1.5-3.5s-2.9-2.1-5.8-3.6s-4.8-2.8-5.7-3.9
		c-0.9-1.1-1.3-2.6-1.3-4.3c0-2.3,0.8-4.2,2.3-5.7s3.5-2.3,6-2.3c1.1,0,2.4,0.2,4,0.7c1,0.3,1.7,0.4,2,0.4s0.6-0.1,0.8-0.2
		c0.2-0.1,0.4-0.4,0.7-0.9h1.1V935.2z"/>
	<path class="st1" d="M1003,959.6c-2.8,2.2-4.6,3.4-5.3,3.8c-1.1,0.5-2.3,0.7-3.5,0.7c-1.9,0-3.5-0.6-4.7-1.9
		c-1.2-1.3-1.8-3-1.8-5.2c0-1.3,0.3-2.5,0.9-3.5c0.8-1.4,2.2-2.7,4.3-3.8c2-1.2,5.4-2.7,10.1-4.4v-1.1c0-2.7-0.4-4.6-1.3-5.6
		c-0.9-1-2.1-1.5-3.8-1.5c-1.2,0-2.2,0.3-3,1s-1.2,1.5-1.2,2.4l0.1,1.8c0,0.9-0.2,1.6-0.7,2.1s-1.1,0.7-1.8,0.7s-1.4-0.3-1.8-0.8
		c-0.5-0.5-0.7-1.2-0.7-2.1c0-1.7,0.9-3.3,2.7-4.7s4.2-2.2,7.4-2.2c2.4,0,4.4,0.4,6,1.2c1.2,0.6,2,1.6,2.6,2.9
		c0.3,0.9,0.5,2.6,0.5,5.3v9.3c0,2.6,0,4.2,0.1,4.8s0.3,1,0.5,1.2s0.5,0.3,0.8,0.3s0.6-0.1,0.8-0.2c0.4-0.2,1.2-1,2.5-2.2v1.7
		c-2.3,3-4.4,4.5-6.5,4.5c-1,0-1.8-0.3-2.3-1C1003.3,962.4,1003,961.2,1003,959.6z M1003,957.6v-10.5c-3,1.2-5,2.1-5.9,2.6
		c-1.6,0.9-2.7,1.8-3.4,2.8s-1,2-1,3.1c0,1.4,0.4,2.6,1.3,3.6s1.8,1.4,3,1.4C998.5,960.6,1000.5,959.6,1003,957.6z"/>
</g>
<g class="st6">
	<path class="st1" d="M398.5,1321.1l9.9-4.8h1v34.4c0,2.3,0.1,3.7,0.3,4.2c0.2,0.6,0.6,1,1.2,1.3s1.8,0.5,3.7,0.5v1.1h-15.3v-1.1
		c1.9,0,3.2-0.2,3.7-0.5s1-0.7,1.2-1.2s0.3-1.9,0.3-4.4v-22c0-3-0.1-4.9-0.3-5.7c-0.1-0.6-0.4-1.1-0.8-1.4s-0.8-0.5-1.3-0.5
		c-0.7,0-1.8,0.3-3.1,0.9L398.5,1321.1z"/>
	<path class="st1" d="M424.3,1337.8c0-4.7,0.7-8.7,2.1-12c1.4-3.4,3.3-5.9,5.6-7.5c1.8-1.3,3.6-1.9,5.6-1.9c3.1,0,6,1.6,8.4,4.8
		c3.1,3.9,4.7,9.3,4.7,16.1c0,4.7-0.7,8.7-2.1,12s-3.1,5.7-5.2,7.2s-4.2,2.2-6.1,2.2c-3.9,0-7.1-2.3-9.7-6.9
		C425.4,1347.9,424.3,1343.3,424.3,1337.8z M430.1,1338.6c0,5.6,0.7,10.2,2.1,13.7c1.1,3,2.9,4.5,5.1,4.5c1.1,0,2.2-0.5,3.4-1.5
		c1.2-1,2.1-2.6,2.7-4.9c0.9-3.5,1.4-8.3,1.4-14.6c0-4.6-0.5-8.5-1.5-11.6c-0.7-2.3-1.7-3.9-2.8-4.9c-0.8-0.7-1.8-1-3-1
		c-1.4,0-2.6,0.6-3.7,1.8c-1.4,1.7-2.4,4.3-3,7.9C430.4,1331.6,430.1,1335.1,430.1,1338.6z"/>
	<path class="st1" d="M461.4,1352.1c0.9,0,1.7,0.3,2.4,1c0.6,0.7,1,1.5,1,2.4s-0.3,1.7-1,2.4c-0.7,0.7-1.5,1-2.4,1s-1.7-0.3-2.4-1
		c-0.6-0.7-1-1.5-1-2.4s0.3-1.7,1-2.4C459.7,1352.4,460.5,1352.1,461.4,1352.1z M461.5,1329.5c0.9,0,1.7,0.3,2.4,1
		c0.6,0.6,1,1.4,1,2.4c0,0.9-0.3,1.7-1,2.4c-0.6,0.7-1.4,1-2.4,1c-0.9,0-1.7-0.3-2.4-1c-0.7-0.7-1-1.5-1-2.4s0.3-1.7,1-2.4
		C459.8,1329.9,460.6,1329.5,461.5,1329.5z"/>
	<path class="st1" d="M473.1,1324.9c1.1-2.7,2.6-4.9,4.4-6.4s4-2.2,6.6-2.2c3.3,0,5.8,1.1,7.5,3.2c1.3,1.6,2,3.3,2,5.1
		c0,3-1.9,6-5.6,9.2c2.5,1,4.4,2.4,5.7,4.2c1.3,1.8,1.9,4,1.9,6.4c0,3.5-1.1,6.6-3.4,9.2c-2.9,3.4-7.1,5-12.7,5
		c-2.7,0-4.6-0.3-5.6-1s-1.5-1.4-1.5-2.2c0-0.6,0.2-1.1,0.7-1.5s1-0.7,1.7-0.7c0.5,0,1,0.1,1.5,0.3c0.3,0.1,1.1,0.5,2.3,1.1
		c1.2,0.6,2,1,2.5,1.1c0.7,0.2,1.5,0.3,2.4,0.3c2,0,3.8-0.8,5.3-2.4s2.3-3.5,2.3-5.6c0-1.6-0.3-3.1-1-4.6c-0.5-1.1-1.1-2-1.7-2.5
		c-0.8-0.8-2-1.5-3.5-2.2s-3-1-4.6-1h-1v-0.9c1.6-0.2,3.2-0.8,4.8-1.7c1.6-0.9,2.8-2.1,3.5-3.4s1.1-2.8,1.1-4.3c0-2.1-0.6-3.7-1.9-5
		c-1.3-1.3-2.9-1.9-4.8-1.9c-3.1,0-5.7,1.7-7.8,5L473.1,1324.9z"/>
	<path class="st1" d="M502.9,1337.8c0-4.7,0.7-8.7,2.1-12c1.4-3.4,3.3-5.9,5.6-7.5c1.8-1.3,3.6-1.9,5.6-1.9c3.1,0,6,1.6,8.4,4.8
		c3.1,3.9,4.7,9.3,4.7,16.1c0,4.7-0.7,8.7-2.1,12s-3.1,5.7-5.2,7.2c-2.1,1.5-4.2,2.2-6.1,2.2c-3.9,0-7.1-2.3-9.7-6.9
		C504,1347.9,502.9,1343.3,502.9,1337.8z M508.8,1338.6c0,5.6,0.7,10.2,2.1,13.7c1.1,3,2.9,4.5,5.1,4.5c1.1,0,2.2-0.5,3.4-1.5
		s2.1-2.6,2.7-4.9c0.9-3.5,1.4-8.3,1.4-14.6c0-4.6-0.5-8.5-1.5-11.6c-0.7-2.3-1.7-3.9-2.8-4.9c-0.8-0.7-1.8-1-3-1
		c-1.4,0-2.6,0.6-3.7,1.8c-1.4,1.7-2.4,4.3-3,7.9C509.1,1331.6,508.8,1335.1,508.8,1338.6z"/>
	<path class="st1" d="M635.6,1341.8h15.5v4.6h-15.5V1341.8z"/>
	<path class="st1" d="M697.4,1337.1c2.8,0.6,4.9,1.6,6.3,2.9c1.9,1.8,2.9,4.1,2.9,6.8c0,2-0.6,4-1.9,5.8s-3,3.2-5.3,4.1
		c-2.2,0.8-5.6,1.3-10.2,1.3H670v-1.1h1.5c1.7,0,3-0.5,3.7-1.6c0.4-0.7,0.7-2.2,0.7-4.5v-26.3c0-2.5-0.3-4.1-0.9-4.8
		c-0.8-0.9-2-1.3-3.5-1.3H670v-1.1h17.6c3.3,0,5.9,0.2,7.9,0.7c3,0.7,5.3,2,6.9,3.8c1.6,1.8,2.4,3.9,2.4,6.3c0,2-0.6,3.9-1.9,5.5
		C701.7,1335.2,699.8,1336.4,697.4,1337.1z M681.7,1335.5c0.7,0.1,1.6,0.3,2.5,0.3c1,0.1,2,0.1,3.2,0.1c2.9,0,5.1-0.3,6.6-1
		c1.5-0.6,2.6-1.6,3.4-2.9c0.8-1.3,1.2-2.7,1.2-4.3c0-2.4-1-4.4-2.9-6.1s-4.8-2.5-8.5-2.5c-2,0-3.8,0.2-5.4,0.7L681.7,1335.5
		L681.7,1335.5z M681.7,1355c2.3,0.5,4.6,0.8,6.9,0.8c3.6,0,6.4-0.8,8.3-2.4c1.9-1.6,2.9-3.7,2.9-6.1c0-1.6-0.4-3.1-1.3-4.6
		s-2.3-2.6-4.2-3.5s-4.3-1.3-7.2-1.3c-1.2,0-2.3,0-3.2,0.1s-1.6,0.1-2.1,0.2v16.8H681.7z"/>
	<path class="st1" d="M720,1329.6v6.2c2.3-4.1,4.7-6.2,7.1-6.2c1.1,0,2,0.3,2.7,1s1.1,1.4,1.1,2.3c0,0.8-0.3,1.5-0.8,2
		s-1.1,0.8-1.8,0.8s-1.5-0.3-2.4-1s-1.5-1-1.9-1s-0.8,0.2-1.2,0.6c-0.9,0.8-1.8,2.2-2.8,4v13.2c0,1.5,0.2,2.7,0.6,3.4
		c0.2,0.5,0.7,1,1.4,1.4s1.6,0.5,2.9,0.5v1.1h-14.1v-1.1c1.4,0,2.4-0.2,3.1-0.7c0.5-0.3,0.8-0.8,1-1.5c0.1-0.3,0.1-1.3,0.1-2.9V1341
		c0-3.2-0.1-5.1-0.2-5.7c-0.1-0.6-0.4-1.1-0.7-1.3c-0.3-0.3-0.8-0.4-1.3-0.4c-0.6,0-1.3,0.1-2.1,0.4l-0.3-1.1l8.3-3.4L720,1329.6
		L720,1329.6z"/>
	<path class="st1" d="M756.6,1330.4v16.7c0,3.2,0.1,5.1,0.2,5.9c0.1,0.7,0.4,1.2,0.7,1.5s0.7,0.4,1.1,0.4c0.6,0,1.3-0.2,2.1-0.5
		l0.4,1.1l-8.3,3.4h-1.3v-5.9c-2.4,2.6-4.2,4.2-5.4,4.9s-2.6,1-3.9,1c-1.5,0-2.9-0.4-4-1.3s-1.9-2-2.4-3.5c-0.4-1.4-0.7-3.4-0.7-6
		v-12.3c0-1.3-0.1-2.2-0.4-2.7c-0.3-0.5-0.7-0.9-1.2-1.2c-0.5-0.3-1.5-0.4-3-0.4v-1.1h9.6v18.4c0,2.6,0.4,4.3,1.3,5.1s2,1.2,3.2,1.2
		c0.9,0,1.9-0.3,3-0.8s2.4-1.6,3.9-3.1v-15.6c0-1.6-0.3-2.6-0.9-3.2s-1.8-0.8-3.5-0.9v-1.1H756.6z"/>
	<path class="st1" d="M771.3,1335.4c3.2-3.9,6.3-5.8,9.3-5.8c1.5,0,2.8,0.4,3.9,1.1c1.1,0.7,1.9,2,2.6,3.7c0.4,1.2,0.6,3.1,0.6,5.6
		v11.7c0,1.7,0.1,2.9,0.4,3.5c0.2,0.5,0.6,0.9,1.1,1.2c0.5,0.3,1.4,0.4,2.7,0.4v1.1h-13.6v-1.1h0.6c1.3,0,2.2-0.2,2.7-0.6
		s0.9-1,1.1-1.7c0.1-0.3,0.1-1.2,0.1-2.8v-11.3c0-2.5-0.3-4.3-1-5.4s-1.8-1.7-3.3-1.7c-2.4,0-4.8,1.3-7.1,3.9v14.5
		c0,1.9,0.1,3,0.3,3.5c0.3,0.6,0.7,1,1.2,1.3s1.5,0.4,3,0.4v1.1h-13.6v-1.1h0.6c1.4,0,2.3-0.4,2.8-1.1s0.7-2.1,0.7-4.1v-10.2
		c0-3.3-0.1-5.3-0.2-6.1s-0.4-1.2-0.7-1.5s-0.7-0.4-1.3-0.4s-1.2,0.1-2,0.4l-0.4-1.1l8.3-3.4h1.3L771.3,1335.4L771.3,1335.4z"/>
	<path class="st1" d="M817.4,1347.5c-0.7,3.6-2.2,6.4-4.4,8.4s-4.6,2.9-7.2,2.9c-3.1,0-5.9-1.3-8.2-3.9s-3.5-6.2-3.5-10.7
		c0-4.3,1.3-7.9,3.9-10.6c2.6-2.7,5.7-4.1,9.3-4.1c2.7,0,4.9,0.7,6.7,2.1s2.6,2.9,2.6,4.5c0,0.8-0.2,1.4-0.7,1.8
		c-0.5,0.5-1.2,0.7-2.1,0.7c-1.2,0-2.1-0.4-2.7-1.1c-0.3-0.4-0.5-1.2-0.7-2.4c-0.1-1.2-0.5-2.1-1.2-2.7s-1.7-0.9-2.9-0.9
		c-2,0-3.6,0.7-4.9,2.2c-1.6,2-2.4,4.6-2.4,7.8c0,3.3,0.8,6.2,2.4,8.7c1.6,2.5,3.8,3.8,6.6,3.8c2,0,3.7-0.7,5.3-2
		c1.1-0.9,2.2-2.6,3.2-5L817.4,1347.5z"/>
	<path class="st1" d="M829.5,1315.2v20.2c2.2-2.5,4-4,5.3-4.7s2.6-1,3.9-1c1.6,0,2.9,0.4,4,1.3s2,2.2,2.5,4.1
		c0.4,1.3,0.6,3.6,0.6,7.1v9.7c0,1.7,0.1,2.9,0.4,3.6c0.2,0.5,0.5,0.9,1,1.1c0.5,0.3,1.4,0.4,2.7,0.4v1.1h-13.5v-1.1h0.6
		c1.3,0,2.2-0.2,2.7-0.6s0.8-1,1-1.7c0.1-0.3,0.1-1.3,0.1-2.8v-9.7c0-3-0.2-5-0.5-5.9s-0.8-1.7-1.5-2.1c-0.7-0.5-1.5-0.7-2.5-0.7
		s-2,0.3-3,0.8c-1.1,0.5-2.3,1.6-3.8,3.2v14.5c0,1.9,0.1,3.1,0.3,3.5c0.2,0.5,0.6,0.8,1.2,1.2c0.6,0.3,1.6,0.5,3,0.5v1.1h-13.6v-1.1
		c1.2,0,2.2-0.2,2.9-0.6c0.4-0.2,0.7-0.6,1-1.1s0.4-1.7,0.4-3.5v-24.9c0-3.1-0.1-5.1-0.2-5.8c-0.1-0.7-0.4-1.2-0.7-1.5
		s-0.7-0.4-1.3-0.4c-0.4,0-1.1,0.2-2,0.5l-0.4-1.1l8.3-3.4h1.1V1315.2z"/>
</g>
<path class="st1" d="M366.7,1703.7c1.1-2.7,2.6-4.9,4.4-6.4s4-2.2,6.6-2.2c3.3,0,5.8,1.1,7.5,3.2c1.3,1.6,2,3.3,2,5.1
	c0,3-1.9,6-5.6,9.2c2.5,1,4.4,2.4,5.7,4.2c1.3,1.8,1.9,4,1.9,6.4c0,3.5-1.1,6.6-3.4,9.2c-2.9,3.4-7.1,5-12.7,5c-2.7,0-4.6-0.3-5.6-1
	s-1.5-1.4-1.5-2.2c0-0.6,0.2-1.1,0.7-1.5s1-0.7,1.7-0.7c0.5,0,1,0.1,1.5,0.3c0.3,0.1,1.1,0.5,2.3,1.1c1.2,0.6,2,1,2.5,1.1
	c0.7,0.2,1.5,0.3,2.4,0.3c2,0,3.8-0.8,5.3-2.4s2.3-3.5,2.3-5.6c0-1.6-0.3-3.1-1-4.6c-0.5-1.1-1.1-2-1.7-2.5c-0.8-0.8-2-1.5-3.5-2.2
	s-3-1-4.6-1h-1v-0.9c1.6-0.2,3.2-0.8,4.8-1.7c1.6-0.9,2.8-2.1,3.5-3.4s1.1-2.8,1.1-4.3c0-2.1-0.6-3.7-1.9-5s-2.9-1.9-4.8-1.9
	c-3.1,0-5.7,1.7-7.8,5L366.7,1703.7z"/>
<path class="st1" d="M340.8,1699.3l9.9-4.8h1v34.4c0,2.3,0.1,3.7,0.3,4.2c0.2,0.6,0.6,1,1.2,1.3s1.8,0.5,3.7,0.5v1.1h-15.3v-1.1
	c1.9,0,3.2-0.2,3.7-0.5s1-0.7,1.2-1.2s0.3-1.9,0.3-4.4v-22c0-3-0.1-4.9-0.3-5.7c-0.1-0.6-0.4-1.1-0.8-1.4s-0.8-0.5-1.3-0.5
	c-0.7,0-1.8,0.3-3.1,0.9L340.8,1699.3z"/>
<path class="st1" d="M408.9,1715.9c0-4.7,0.7-8.7,2.1-12c1.4-3.4,3.3-5.9,5.6-7.5c1.8-1.3,3.6-1.9,5.6-1.9c3.1,0,6,1.6,8.4,4.8
	c3.1,3.9,4.7,9.3,4.7,16.1c0,4.7-0.7,8.7-2.1,12s-3.1,5.7-5.2,7.2s-4.2,2.2-6.1,2.2c-3.9,0-7.1-2.3-9.7-6.9
	C409.9,1726,408.9,1721.4,408.9,1715.9z M414.7,1716.7c0,5.6,0.7,10.2,2.1,13.7c1.1,3,2.9,4.5,5.1,4.5c1.1,0,2.2-0.5,3.4-1.5
	c1.2-1,2.1-2.6,2.7-4.9c0.9-3.5,1.4-8.3,1.4-14.6c0-4.6-0.5-8.5-1.5-11.6c-0.7-2.3-1.7-3.9-2.8-4.9c-0.8-0.7-1.8-1-3-1
	c-1.4,0-2.6,0.6-3.7,1.8c-1.4,1.7-2.4,4.3-3,7.9C415,1709.7,414.7,1713.2,414.7,1716.7z"/>
<path class="st1" d="M400.7,1730.2c0.9,0,1.7,0.3,2.4,1c0.6,0.7,1,1.5,1,2.4s-0.3,1.7-1,2.4c-0.7,0.7-1.5,1-2.4,1s-1.7-0.3-2.4-1
	c-0.6-0.7-1-1.5-1-2.4s0.3-1.7,1-2.4C399,1730.5,399.8,1730.2,400.7,1730.2z M400.8,1707.7c0.9,0,1.7,0.3,2.4,1c0.6,0.6,1,1.4,1,2.4
	c0,0.9-0.3,1.7-1,2.4c-0.6,0.7-1.4,1-2.4,1c-0.9,0-1.7-0.3-2.4-1c-0.7-0.7-1-1.5-1-2.4s0.3-1.7,1-2.4
	C399.1,1708,399.9,1707.7,400.8,1707.7z"/>
<path class="st1" d="M441.2,1715.9c0-4.7,0.7-8.7,2.1-12c1.4-3.4,3.3-5.9,5.6-7.5c1.8-1.3,3.6-1.9,5.6-1.9c3.1,0,6,1.6,8.4,4.8
	c3.1,3.9,4.7,9.3,4.7,16.1c0,4.7-0.7,8.7-2.1,12s-3.1,5.7-5.2,7.2s-4.2,2.2-6.1,2.2c-3.9,0-7.1-2.3-9.7-6.9
	C442.3,1726,441.2,1721.4,441.2,1715.9z M447.1,1716.7c0,5.6,0.7,10.2,2.1,13.7c1.1,3,2.9,4.5,5.1,4.5c1.1,0,2.2-0.5,3.4-1.5
	c1.2-1,2.1-2.6,2.7-4.9c0.9-3.5,1.4-8.3,1.4-14.6c0-4.6-0.5-8.5-1.5-11.6c-0.7-2.3-1.7-3.9-2.8-4.9c-0.8-0.7-1.8-1-3-1
	c-1.4,0-2.6,0.6-3.7,1.8c-1.4,1.7-2.4,4.3-3,7.9C447.4,1709.7,447.1,1713.2,447.1,1716.7z"/>
<path class="st1" d="M572.8,1720h15.5v4.6h-15.5V1720z"/>
<path class="st1" d="M618.8,1697.5v16h7.4c1.7,0,3-0.4,3.8-1.1s1.3-2.2,1.6-4.5h1.1v13.8h-1.1c0-1.6-0.2-2.8-0.6-3.5
	c-0.4-0.7-0.9-1.3-1.6-1.7c-0.7-0.4-1.7-0.6-3.1-0.6h-7.4v12.8c0,2.1,0.1,3.4,0.4,4.1c0.2,0.5,0.6,0.9,1.3,1.3
	c0.9,0.5,1.8,0.7,2.8,0.7h1.5v1.1h-17.5v-1.1h1.4c1.7,0,2.9-0.5,3.7-1.5c0.5-0.6,0.7-2.2,0.7-4.6v-26.3c0-2.1-0.1-3.4-0.4-4.1
	c-0.2-0.5-0.6-0.9-1.2-1.3c-0.8-0.5-1.8-0.7-2.8-0.7h-1.4v-1.1h30.3l0.4,9h-1c-0.5-1.9-1.1-3.3-1.8-4.2c-0.7-0.9-1.5-1.5-2.6-1.9
	c-1-0.4-2.6-0.6-4.7-0.6L618.8,1697.5L618.8,1697.5z"/>
<path class="st1" d="M651.9,1707.7v22.1c0,1.7,0.1,2.9,0.4,3.5c0.2,0.6,0.6,1,1.1,1.3s1.4,0.4,2.7,0.4v1.1h-13.4v-1.1
	c1.3,0,2.2-0.1,2.7-0.4s0.8-0.7,1.1-1.3c0.3-0.6,0.4-1.8,0.4-3.5v-10.6c0-3-0.1-4.9-0.3-5.8c-0.1-0.6-0.4-1.1-0.7-1.3
	s-0.7-0.4-1.2-0.4s-1.2,0.1-2,0.4l-0.4-1.1l8.3-3.4h1.3L651.9,1707.7L651.9,1707.7z M649.4,1693.3c0.8,0,1.6,0.3,2.1,0.9
	c0.6,0.6,0.9,1.3,0.9,2.2c0,0.8-0.3,1.5-0.9,2.1c-0.6,0.6-1.3,0.9-2.1,0.9s-1.6-0.3-2.2-0.9c-0.6-0.6-0.9-1.3-0.9-2.1
	c0-0.8,0.3-1.6,0.9-2.2S648.6,1693.3,649.4,1693.3z"/>
<path class="st1" d="M667.5,1713.5c3.2-3.9,6.3-5.8,9.3-5.8c1.5,0,2.8,0.4,3.9,1.1c1.1,0.7,1.9,2,2.6,3.7c0.4,1.2,0.6,3.1,0.6,5.6
	v11.7c0,1.7,0.1,2.9,0.4,3.5c0.2,0.5,0.6,0.9,1.1,1.2c0.5,0.3,1.4,0.4,2.7,0.4v1.1h-13.6v-1.1h0.6c1.3,0,2.2-0.2,2.7-0.6
	s0.9-1,1.1-1.7c0.1-0.3,0.1-1.2,0.1-2.8v-11.3c0-2.5-0.3-4.3-1-5.4s-1.8-1.7-3.3-1.7c-2.4,0-4.8,1.3-7.1,3.9v14.5
	c0,1.9,0.1,3,0.3,3.5c0.3,0.6,0.7,1,1.2,1.3s1.5,0.4,3,0.4v1.1h-13.6v-1.1h0.6c1.4,0,2.3-0.4,2.8-1.1s0.7-2.1,0.7-4.1v-10.2
	c0-3.3-0.1-5.3-0.2-6.1s-0.4-1.2-0.7-1.5s-0.7-0.4-1.3-0.4s-1.2,0.1-2,0.4l-0.4-1.1l8.3-3.4h1.3L667.5,1713.5L667.5,1713.5z"/>
<path class="st1" d="M725.1,1733c-1.3,1.4-2.7,2.4-3.9,3c-1.3,0.6-2.7,0.9-4.1,0.9c-3,0-5.6-1.3-7.9-3.8c-2.2-2.5-3.4-5.8-3.4-9.7
	c0-4,1.2-7.6,3.7-10.9s5.7-4.9,9.6-4.9c2.4,0,4.4,0.8,6,2.3v-5.1c0-3.1-0.1-5.1-0.2-5.8c-0.1-0.7-0.4-1.2-0.7-1.5s-0.7-0.4-1.2-0.4
	s-1.2,0.2-2.1,0.5l-0.4-1.1l8.2-3.4h1.3v31.9c0,3.2,0.1,5.2,0.2,5.9c0.2,0.7,0.4,1.2,0.7,1.5s0.7,0.4,1.2,0.4s1.2-0.2,2.1-0.5
	l0.3,1.1l-8.2,3.4h-1.4v-3.8H725.1z M725.1,1730.9v-14.2c-0.1-1.4-0.5-2.6-1.1-3.7s-1.4-2-2.4-2.5c-1-0.6-1.9-0.9-2.9-0.9
	c-1.8,0-3.3,0.8-4.7,2.4c-1.8,2.1-2.7,5.1-2.7,9.1c0,4.1,0.9,7.2,2.7,9.3c1.8,2.2,3.7,3.2,5.9,3.2
	C721.7,1733.6,723.5,1732.7,725.1,1730.9z"/>
<path class="st1" d="M741.1,1718.9c0,4.1,1,7.3,3,9.6c2,2.3,4.4,3.5,7.1,3.5c1.8,0,3.4-0.5,4.7-1.5s2.4-2.7,3.3-5.1l0.9,0.6
	c-0.4,2.7-1.6,5.2-3.7,7.5c-2,2.3-4.6,3.4-7.6,3.4c-3.3,0-6.1-1.3-8.5-3.9s-3.5-6-3.5-10.4c0-4.7,1.2-8.4,3.6-11
	c2.4-2.6,5.5-4,9.1-4c3.1,0,5.6,1,7.6,3s3,4.8,3,8.2h-19L741.1,1718.9L741.1,1718.9z M741.1,1717.2h12.8c-0.1-1.8-0.3-3-0.6-3.7
	c-0.5-1.1-1.2-2-2.2-2.7s-2-1-3.1-1c-1.7,0-3.2,0.6-4.5,1.9C742.1,1713,741.3,1714.8,741.1,1717.2z"/>
<path class="st1" d="M790,1710.7v18.1c0,2.6,0.3,4.2,0.8,4.9c0.7,0.9,1.7,1.3,3,1.3h2.5v1.1h-16.5v-1.1h1.2c0.8,0,1.6-0.2,2.2-0.6
	c0.7-0.4,1.1-0.9,1.4-1.6s0.4-2,0.4-4v-18.1h-5.3v-2.2h5.3v-1.8c0-2.7,0.4-5.1,1.3-7c0.9-1.9,2.2-3.4,4-4.6s3.8-1.8,6.1-1.8
	c2.1,0,4.1,0.7,5.8,2.1c1.1,0.9,1.7,1.9,1.7,3c0,0.6-0.3,1.2-0.8,1.7s-1.1,0.8-1.7,0.8c-0.4,0-0.9-0.2-1.4-0.5s-1.1-1.1-1.9-2.1
	c-0.7-1.1-1.4-1.8-2.1-2.2c-0.6-0.4-1.3-0.6-2.1-0.6c-0.9,0-1.7,0.2-2.4,0.7c-0.6,0.5-1.1,1.2-1.4,2.3c-0.3,1-0.4,3.7-0.4,8v2h7.1
	v2.2L790,1710.7L790,1710.7z"/>
<path class="st1" d="M809.2,1707.7v22.1c0,1.7,0.1,2.9,0.4,3.5s0.6,1,1.1,1.3s1.4,0.4,2.7,0.4v1.1H800v-1.1c1.3,0,2.2-0.1,2.7-0.4
	s0.8-0.7,1.1-1.3s0.4-1.8,0.4-3.5v-10.6c0-3-0.1-4.9-0.3-5.8c-0.1-0.6-0.4-1.1-0.7-1.3s-0.7-0.4-1.2-0.4s-1.2,0.1-2,0.4l-0.4-1.1
	l8.3-3.4h1.3L809.2,1707.7L809.2,1707.7z M806.7,1693.3c0.8,0,1.6,0.3,2.1,0.9s0.9,1.3,0.9,2.2c0,0.8-0.3,1.5-0.9,2.1
	s-1.3,0.9-2.1,0.9s-1.6-0.3-2.2-0.9s-0.9-1.3-0.9-2.1c0-0.8,0.3-1.6,0.9-2.2C805.1,1693.6,805.9,1693.3,806.7,1693.3z"/>
<path class="st1" d="M821.4,1718.9c0,4.1,1,7.3,3,9.6c2,2.3,4.4,3.5,7.1,3.5c1.8,0,3.4-0.5,4.7-1.5s2.4-2.7,3.3-5.1l0.9,0.6
	c-0.4,2.7-1.6,5.2-3.7,7.5c-2,2.3-4.6,3.4-7.6,3.4c-3.3,0-6.1-1.3-8.5-3.9s-3.5-6-3.5-10.4c0-4.7,1.2-8.4,3.6-11
	c2.4-2.6,5.5-4,9.1-4c3.1,0,5.6,1,7.6,3s3,4.8,3,8.2h-19L821.4,1718.9L821.4,1718.9z M821.4,1717.2h12.8c-0.1-1.8-0.3-3-0.6-3.7
	c-0.5-1.1-1.2-2-2.2-2.7s-2-1-3.1-1c-1.7,0-3.2,0.6-4.5,1.9C822.4,1713,821.7,1714.8,821.4,1717.2z"/>
<path class="st1" d="M862,1707.7v9.4h-1c-0.8-2.9-1.8-4.9-3-6s-2.7-1.6-4.6-1.6c-1.4,0-2.5,0.4-3.4,1.1s-1.3,1.6-1.3,2.5
	c0,1.1,0.3,2.1,1,2.9c0.6,0.8,1.9,1.7,3.8,2.6l4.4,2.2c4.1,2,6.1,4.6,6.1,7.8c0,2.5-1,4.5-2.9,6.1s-4,2.3-6.4,2.3
	c-1.7,0-3.6-0.3-5.8-0.9c-0.7-0.2-1.2-0.3-1.6-0.3c-0.4,0-0.8,0.3-1.1,0.8h-1v-9.8h1c0.6,2.8,1.6,4.9,3.2,6.4
	c1.6,1.4,3.4,2.1,5.3,2.1c1.4,0,2.5-0.4,3.4-1.2c0.9-0.8,1.3-1.8,1.3-2.9c0-1.4-0.5-2.6-1.5-3.5s-2.9-2.1-5.8-3.6
	c-2.9-1.4-4.8-2.8-5.7-3.9s-1.3-2.6-1.3-4.3c0-2.3,0.8-4.2,2.3-5.7s3.5-2.3,6-2.3c1.1,0,2.4,0.2,4,0.7c1,0.3,1.7,0.4,2,0.4
	s0.6-0.1,0.8-0.2s0.4-0.4,0.7-0.9h1.1V1707.7z"/>
<path class="st1" d="M876.2,1699.5v9.1h6.4v2.1h-6.4v17.9c0,1.8,0.3,3,0.8,3.6s1.2,0.9,2,0.9c0.6,0,1.3-0.2,1.9-0.6
	c0.6-0.4,1.1-1,1.5-1.8h1.2c-0.7,2-1.7,3.4-3,4.4s-2.6,1.5-3.9,1.5c-0.9,0-1.9-0.3-2.7-0.8c-0.9-0.5-1.5-1.2-1.9-2.2
	c-0.4-0.9-0.6-2.4-0.6-4.4v-18.5h-4.4v-1c1.1-0.4,2.2-1.2,3.4-2.2s2.2-2.3,3.1-3.8c0.5-0.7,1.1-2.1,1.9-4.2H876.2z"/>
<path class="st1" d="M900.9,1732.1c-2.8,2.2-4.6,3.4-5.3,3.8c-1.1,0.5-2.3,0.7-3.5,0.7c-1.9,0-3.5-0.6-4.7-1.9s-1.8-3-1.8-5.2
	c0-1.3,0.3-2.5,0.9-3.5c0.8-1.4,2.2-2.7,4.3-3.8c2-1.2,5.4-2.7,10.1-4.4v-1.1c0-2.7-0.4-4.6-1.3-5.6c-0.9-1-2.1-1.5-3.8-1.5
	c-1.2,0-2.2,0.3-3,1s-1.2,1.5-1.2,2.4l0.1,1.8c0,0.9-0.2,1.6-0.7,2.1s-1.1,0.7-1.8,0.7s-1.4-0.3-1.8-0.8c-0.5-0.5-0.7-1.2-0.7-2.1
	c0-1.7,0.9-3.3,2.7-4.7s4.2-2.2,7.4-2.2c2.4,0,4.4,0.4,6,1.2c1.2,0.6,2,1.6,2.6,2.9c0.3,0.9,0.5,2.6,0.5,5.3v9.3
	c0,2.6,0,4.2,0.1,4.8s0.3,1,0.5,1.2s0.5,0.3,0.8,0.3s0.6-0.1,0.8-0.2c0.4-0.2,1.2-1,2.5-2.2v1.7c-2.3,3-4.4,4.5-6.5,4.5
	c-1,0-1.8-0.3-2.3-1C901.2,1734.9,900.9,1733.7,900.9,1732.1z M900.9,1730.1v-10.5c-3,1.2-5,2.1-5.9,2.6c-1.6,0.9-2.7,1.8-3.4,2.8
	s-1,2-1,3.1c0,1.4,0.4,2.6,1.3,3.6s1.8,1.4,3,1.4C896.4,1733.1,898.4,1732.1,900.9,1730.1z"/>
<g>
	<path class="st1" d="M411.9,960c-2.9,2.3-4.8,3.6-5.5,3.9c-1.1,0.5-2.4,0.8-3.6,0.8c-2,0-3.6-0.7-4.9-2c-1.3-1.4-1.9-3.2-1.9-5.4
		c0-1.4,0.3-2.6,0.9-3.6c0.9-1.4,2.3-2.8,4.5-4c2.1-1.2,5.7-2.8,10.6-4.6v-1.1c0-2.9-0.5-4.8-1.4-5.9c-0.9-1.1-2.2-1.6-4-1.6
		c-1.3,0-2.3,0.4-3.1,1.1c-0.8,0.7-1.2,1.5-1.2,2.5l0.1,1.8c0,1-0.2,1.7-0.7,2.2c-0.5,0.5-1.1,0.8-1.9,0.8s-1.4-0.3-1.9-0.8
		c-0.5-0.5-0.7-1.3-0.7-2.2c0-1.8,0.9-3.5,2.8-5c1.8-1.5,4.4-2.3,7.8-2.3c2.6,0,4.6,0.4,6.3,1.3c1.2,0.7,2.1,1.7,2.7,3
		c0.4,0.9,0.5,2.8,0.5,5.5v9.8c0,2.7,0.1,4.4,0.2,5c0.1,0.6,0.3,1,0.5,1.2c0.2,0.2,0.5,0.3,0.8,0.3c0.3,0,0.6-0.1,0.9-0.2
		c0.4-0.3,1.3-1,2.6-2.3v1.8c-2.4,3.1-4.6,4.7-6.8,4.7c-1,0-1.8-0.4-2.4-1.1C412.2,963,411.9,961.8,411.9,960z M411.9,958v-11
		c-3.2,1.3-5.2,2.2-6.1,2.7c-1.6,0.9-2.8,1.9-3.5,2.9c-0.7,1-1.1,2.1-1.1,3.3c0,1.5,0.4,2.8,1.3,3.8c0.9,1,1.9,1.5,3.1,1.5
		C407.2,961.1,409.3,960.1,411.9,958z"/>
	<path class="st1" d="M432.7,940.7c2.1-2.1,3.3-3.3,3.7-3.6c1-0.8,2-1.4,3.1-1.8c1.1-0.4,2.2-0.7,3.2-0.7c1.8,0,3.4,0.5,4.7,1.6
		c1.3,1,2.2,2.6,2.6,4.6c2.2-2.5,4-4.2,5.5-5c1.5-0.8,3-1.2,4.6-1.2c1.5,0,2.9,0.4,4.1,1.2c1.2,0.8,2.1,2.1,2.8,3.9
		c0.5,1.2,0.7,3.1,0.7,5.7v12.4c0,1.8,0.1,3.1,0.4,3.7c0.2,0.5,0.6,0.9,1.2,1.2c0.6,0.3,1.5,0.5,2.8,0.5v1.1h-14.2V963h0.6
		c1.2,0,2.2-0.2,2.9-0.7c0.5-0.3,0.8-0.9,1-1.6c0.1-0.3,0.1-1.4,0.1-3v-12.4c0-2.3-0.3-4-0.8-5c-0.8-1.4-2.1-2-3.9-2
		c-1.1,0-2.2,0.3-3.4,0.8c-1.1,0.6-2.5,1.6-4.1,3.1l-0.1,0.4l0.1,1.4v13.7c0,2,0.1,3.2,0.3,3.7c0.2,0.5,0.6,0.9,1.2,1.2
		c0.6,0.3,1.6,0.5,3.1,0.5v1.1h-14.6V963c1.6,0,2.7-0.2,3.3-0.6c0.6-0.4,1-0.9,1.2-1.7c0.1-0.4,0.2-1.4,0.2-3.1v-12.4
		c0-2.3-0.3-4-1-5c-0.9-1.4-2.2-2-3.9-2c-1.1,0-2.3,0.3-3.4,0.9c-1.7,0.9-3.1,2-4.1,3.1v15.4c0,1.9,0.1,3.1,0.4,3.7
		c0.3,0.6,0.7,1,1.2,1.3c0.5,0.3,1.5,0.4,3.1,0.4v1.1h-14.2V963c1.3,0,2.2-0.1,2.8-0.4c0.5-0.3,0.9-0.7,1.2-1.3
		c0.3-0.6,0.4-1.8,0.4-3.6v-11c0-3.2-0.1-5.2-0.3-6.1c-0.1-0.7-0.4-1.2-0.7-1.4c-0.3-0.3-0.7-0.4-1.3-0.4c-0.6,0-1.3,0.2-2.1,0.5
		l-0.5-1.1l8.7-3.5h1.3V940.7z"/>
</g>
<g>
	<path class="st1" d="M562.9,1354c-2.9,2.3-4.8,3.6-5.5,3.9c-1.1,0.5-2.4,0.8-3.6,0.8c-2,0-3.6-0.7-4.9-2c-1.3-1.4-1.9-3.2-1.9-5.4
		c0-1.4,0.3-2.6,0.9-3.6c0.9-1.4,2.3-2.8,4.5-4c2.1-1.2,5.7-2.8,10.6-4.6v-1.1c0-2.9-0.5-4.8-1.4-5.9c-0.9-1.1-2.2-1.6-4-1.6
		c-1.3,0-2.3,0.4-3.1,1.1c-0.8,0.7-1.2,1.5-1.2,2.5l0.1,1.8c0,1-0.2,1.7-0.7,2.2c-0.5,0.5-1.1,0.8-1.9,0.8s-1.4-0.3-1.9-0.8
		c-0.5-0.5-0.7-1.3-0.7-2.2c0-1.8,0.9-3.5,2.8-5c1.8-1.5,4.4-2.3,7.8-2.3c2.6,0,4.6,0.4,6.3,1.3c1.2,0.7,2.1,1.7,2.7,3
		c0.4,0.9,0.5,2.8,0.5,5.5v9.8c0,2.7,0.1,4.4,0.2,5c0.1,0.6,0.3,1,0.5,1.2c0.2,0.2,0.5,0.3,0.8,0.3c0.3,0,0.6-0.1,0.9-0.2
		c0.4-0.3,1.3-1,2.6-2.3v1.8c-2.4,3.1-4.6,4.7-6.8,4.7c-1,0-1.8-0.4-2.4-1.1C563.2,1357,562.9,1355.8,562.9,1354z M562.9,1352v-11
		c-3.2,1.3-5.2,2.2-6.1,2.7c-1.6,0.9-2.8,1.9-3.5,2.9c-0.7,1-1.1,2.1-1.1,3.3c0,1.5,0.4,2.8,1.3,3.8c0.9,1,1.9,1.5,3.1,1.5
		C558.2,1355.1,560.3,1354.1,562.9,1352z"/>
	<path class="st1" d="M583.7,1334.7c2.1-2.1,3.3-3.3,3.7-3.6c1-0.8,2-1.4,3.1-1.8c1.1-0.4,2.2-0.7,3.2-0.7c1.8,0,3.4,0.5,4.7,1.6
		c1.3,1,2.2,2.6,2.6,4.6c2.2-2.5,4-4.2,5.5-5c1.5-0.8,3-1.2,4.6-1.2c1.5,0,2.9,0.4,4.1,1.2c1.2,0.8,2.1,2.1,2.8,3.9
		c0.5,1.2,0.7,3.1,0.7,5.7v12.4c0,1.8,0.1,3.1,0.4,3.7c0.2,0.5,0.6,0.9,1.2,1.2c0.6,0.3,1.5,0.5,2.8,0.5v1.1h-14.2v-1.1h0.6
		c1.2,0,2.2-0.2,2.9-0.7c0.5-0.3,0.8-0.9,1-1.6c0.1-0.3,0.1-1.4,0.1-3v-12.4c0-2.3-0.3-4-0.8-5c-0.8-1.4-2.1-2-3.9-2
		c-1.1,0-2.2,0.3-3.4,0.8c-1.1,0.6-2.5,1.6-4.1,3.1l-0.1,0.4l0.1,1.4v13.7c0,2,0.1,3.2,0.3,3.7c0.2,0.5,0.6,0.9,1.2,1.2
		c0.6,0.3,1.6,0.5,3.1,0.5v1.1h-14.6v-1.1c1.6,0,2.7-0.2,3.3-0.6c0.6-0.4,1-0.9,1.2-1.7c0.1-0.4,0.2-1.4,0.2-3.1v-12.4
		c0-2.3-0.3-4-1-5c-0.9-1.4-2.2-2-3.9-2c-1.1,0-2.3,0.3-3.4,0.9c-1.7,0.9-3.1,2-4.1,3.1v15.4c0,1.9,0.1,3.1,0.4,3.7
		c0.3,0.6,0.7,1,1.2,1.3c0.5,0.3,1.5,0.4,3.1,0.4v1.1h-14.2v-1.1c1.3,0,2.2-0.1,2.8-0.4c0.5-0.3,0.9-0.7,1.2-1.3
		c0.3-0.6,0.4-1.8,0.4-3.6v-11c0-3.2-0.1-5.2-0.3-6.1c-0.1-0.7-0.4-1.2-0.7-1.4c-0.3-0.3-0.7-0.4-1.3-0.4c-0.6,0-1.3,0.2-2.1,0.5
		l-0.5-1.1l8.7-3.5h1.3V1334.7z"/>
</g>
<g>
	<path class="st1" d="M481.9,1709.8l8.9-3.6h1.2v6.7c1.5-2.5,3-4.3,4.5-5.3c1.5-1,3.1-1.5,4.7-1.5c2.9,0,5.3,1.1,7.2,3.4
		c2.4,2.8,3.6,6.4,3.6,10.8c0,5-1.4,9.1-4.3,12.3c-2.3,2.7-5.3,4-8.9,4c-1.5,0-2.9-0.2-4-0.7c-0.8-0.3-1.8-1-2.8-1.9v8.8
		c0,2,0.1,3.2,0.4,3.8c0.2,0.5,0.7,1,1.2,1.3s1.7,0.5,3.3,0.5v1.2h-15.1v-1.2h0.8c1.2,0,2.2-0.2,3-0.7c0.4-0.2,0.7-0.6,0.9-1.1
		c0.2-0.5,0.3-1.8,0.3-3.9v-27.2c0-1.9-0.1-3.1-0.3-3.6c-0.2-0.5-0.4-0.9-0.8-1.1c-0.4-0.3-0.9-0.4-1.5-0.4c-0.5,0-1.1,0.2-1.9,0.5
		L481.9,1709.8z M492,1714.8v10.7c0,2.3,0.1,3.9,0.3,4.6c0.3,1.2,1,2.3,2.2,3.2c1.1,0.9,2.6,1.4,4.3,1.4c2.1,0,3.8-0.8,5.1-2.5
		c1.7-2.1,2.6-5.1,2.6-9c0-4.4-1-7.8-2.9-10.2c-1.4-1.6-3-2.4-4.8-2.4c-1,0-2,0.2-3,0.7C495,1711.8,493.7,1712.9,492,1714.8z"/>
	<path class="st1" d="M524.7,1712.2c2.1-2.1,3.3-3.3,3.7-3.6c1-0.8,2-1.4,3.1-1.8c1.1-0.4,2.2-0.7,3.2-0.7c1.8,0,3.4,0.5,4.7,1.6
		c1.3,1,2.2,2.6,2.6,4.6c2.2-2.5,4-4.2,5.5-5c1.5-0.8,3-1.2,4.6-1.2c1.5,0,2.9,0.4,4.1,1.2c1.2,0.8,2.1,2.1,2.8,3.9
		c0.5,1.2,0.7,3.1,0.7,5.7v12.4c0,1.8,0.1,3.1,0.4,3.7c0.2,0.5,0.6,0.9,1.2,1.2c0.6,0.3,1.5,0.5,2.8,0.5v1.1h-14.2v-1.1h0.6
		c1.2,0,2.2-0.2,2.9-0.7c0.5-0.3,0.8-0.9,1-1.6c0.1-0.3,0.1-1.4,0.1-3v-12.4c0-2.3-0.3-4-0.8-5c-0.8-1.4-2.1-2-3.9-2
		c-1.1,0-2.2,0.3-3.4,0.8c-1.1,0.6-2.5,1.6-4.1,3.1l-0.1,0.4l0.1,1.4v13.7c0,2,0.1,3.2,0.3,3.7c0.2,0.5,0.6,0.9,1.2,1.2
		c0.6,0.3,1.6,0.5,3.1,0.5v1.1h-14.6v-1.1c1.6,0,2.7-0.2,3.3-0.6c0.6-0.4,1-0.9,1.2-1.7c0.1-0.4,0.2-1.4,0.2-3.1v-12.4
		c0-2.3-0.3-4-1-5c-0.9-1.4-2.2-2-3.9-2c-1.1,0-2.3,0.3-3.4,0.9c-1.7,0.9-3.1,2-4.1,3.1v15.4c0,1.9,0.1,3.1,0.4,3.7
		c0.3,0.6,0.7,1,1.2,1.3c0.5,0.3,1.5,0.4,3.1,0.4v1.1h-14.2v-1.1c1.3,0,2.2-0.1,2.8-0.4c0.5-0.3,0.9-0.7,1.2-1.3
		c0.3-0.6,0.4-1.8,0.4-3.6v-11c0-3.2-0.1-5.2-0.3-6.1c-0.1-0.7-0.4-1.2-0.7-1.4c-0.3-0.3-0.7-0.4-1.3-0.4c-0.6,0-1.3,0.2-2.1,0.5
		l-0.5-1.1l8.7-3.5h1.3V1712.2z"/>
</g>
<text transform="matrix(1 0 0 1 1359.9932 1141.7656)" style="font-family:'Aparajita'; font-size:80px;">pm</text>
</svg>
