<?xml version="1.0" encoding="utf-8"?>
<!-- Generator: Adobe Illustrator 25.4.1, SVG Export Plug-In . SVG Version: 6.00 Build 0)  -->
<svg version="1.1" id="Capa_1" xmlns="http://www.w3.org/2000/svg" xmlns:xlink="http://www.w3.org/1999/xlink" x="0px" y="0px"
	 viewBox="0 0 1242 2208" style="enable-background:new 0 0 1242 2208;" xml:space="preserve">
<style type="text/css">
	.st0{fill:#FFFFFF;}
	.st1{enable-background:new    ;}
</style>
<g>
	<path class="st0" d="M516.5,1090c69.7,0,139.3,0,209,0c0,95,0,190,0,285.1c-69.7,0-139.3,0-209,0C516.5,1280,516.5,1185,516.5,1090
		z M611.7,1205.4c0-0.8,0-1.5,0-2.2c0-13.4,0-26.8,0-40.2c0-4.2-1.2-7.9-3.8-11.2c-4.4-5.3-10-7.8-16.8-6.4
		c-9,1.8-14.3,8.7-14.3,17.9c0,21.2,0,42.4,0,63.6c0,1.2-0.3,1.9-1.3,2.6c-3.7,2.3-7.3,4.8-10.9,7.2c-11,7.6-16.3,18-15,31.3
		c0.7,7.2,3.2,13.9,5.8,20.6c6.7,17.3,16.5,32.6,29.6,45.9c0.5,0.6,0.9,1.5,0.9,2.3c0.1,5.7,0,11.3,0,17c0,3.4,1.4,4.8,4.8,4.8
		c8,0,16,0,24,0c18.8,0,37.6,0,56.4,0c3.5,0,4.8-1.3,4.8-4.7c0-5.8,0-11.6,0-17.3c0-0.9,0.3-2,0.8-2.8c11-17.5,16.9-36.5,17.4-57.2
		c0.3-11.6,0.1-23.2,0.1-34.8c0-2.3,0.1-4.6-0.3-6.9c-1.7-9.4-10.4-15.5-19.8-13.8c-2.7,0.5-5.3,1.7-8.1,2.6
		c-1.8-5.2-5.4-9.3-11.1-11.2c-5.7-1.9-11.2-0.9-16.1,2.4C632.2,1202.6,625.1,1200,611.7,1205.4z M549.3,1109.5
		c-1.7,0.2-2.9,1-3.5,2.4c-0.7,1.5-0.5,3,0.7,4.2c6.8,6.9,13.7,13.7,20.6,20.5c1.7,1.7,3.9,1.6,5.4,0c1.5-1.5,1.4-3.8-0.3-5.4
		c-6.7-6.7-13.5-13.5-20.2-20.1C551.2,1110.3,550.2,1110,549.3,1109.5z M640.1,1109.5c-0.9,0.4-1.9,0.7-2.6,1.4
		c-6.9,6.8-13.8,13.6-20.6,20.5c-1,1.1-1.5,2.3-0.9,3.8c1.1,2.8,4.1,3.3,6.4,1.1c4.3-4.3,8.7-8.6,13-12.9c2.5-2.4,4.9-4.9,7.4-7.4
		c1.2-1.2,1.4-2.7,0.8-4.2C643,1110.5,641.8,1109.8,640.1,1109.5z M598.3,1115.2c0-2.9,0-5.8,0-8.7c0-2.4-1.5-4-3.6-4
		c-2.1-0.1-3.8,1.7-3.8,4c0,5.8,0,11.7,0,17.5c0,2.4,1.7,4,3.8,4s3.6-1.6,3.6-4C598.3,1121.1,598.3,1118.2,598.3,1115.2z
		 M548.8,1162.4c2.9,0,5.8,0,8.7,0c2.4,0,4-1.4,4.1-3.5c0.1-2.2-1.5-3.9-3.9-3.9c-5.9-0.1-11.8-0.1-17.6,0c-2.4,0-4.1,1.8-4,3.9
		s1.7,3.5,4.1,3.5C543,1162.5,545.9,1162.4,548.8,1162.4z M640.3,1162.4c3,0,6.1,0,9.1,0c2.2,0,3.7-1.4,3.8-3.4
		c0.1-2.1-1.3-3.9-3.5-3.9c-6.1-0.1-12.2-0.1-18.3,0c-2.2,0-3.8,1.9-3.7,3.8c0.1,2.1,1.6,3.5,3.9,3.5
		C634.5,1162.5,637.4,1162.4,640.3,1162.4z"/>
	<path d="M611.7,1205.4c13.4-5.4,20.4-2.9,27,9.7c5-3.4,10.4-4.4,16.1-2.4c5.7,1.9,9.3,6,11.1,11.2c2.8-0.9,5.4-2.1,8.1-2.6
		c9.3-1.7,18,4.4,19.8,13.8c0.4,2.2,0.3,4.6,0.3,6.9c0,11.6,0.2,23.2-0.1,34.8c-0.5,20.6-6.4,39.7-17.4,57.2
		c-0.5,0.8-0.8,1.9-0.8,2.8c-0.1,5.8,0,11.6,0,17.3c0,3.4-1.4,4.7-4.8,4.7c-18.8,0-37.6,0-56.4,0c-8,0-16,0-24,0
		c-3.4,0-4.8-1.4-4.8-4.8c0-5.7,0-11.3,0-17c0-0.8-0.4-1.8-0.9-2.3c-13-13.2-22.9-28.5-29.6-45.9c-2.6-6.7-5.1-13.5-5.8-20.6
		c-1.3-13.3,3.9-23.8,15-31.3c3.6-2.5,7.2-4.9,10.9-7.2c1-0.7,1.3-1.4,1.3-2.6c0-21.2,0-42.4,0-63.6c0-9.2,5.3-16.1,14.3-17.9
		c6.8-1.4,12.4,1.1,16.8,6.4c2.7,3.2,3.8,7,3.8,11.2c0,13.4,0,26.8,0,40.2C611.7,1203.9,611.7,1204.6,611.7,1205.4z M576.7,1237.6
		c-3.4,2.3-6.7,4.3-9.7,6.5c-6.4,4.8-9.8,11.2-10.3,19.2c-0.3,5,1.2,9.6,2.7,14.3c6.2,20.5,17,38.2,32.3,53.2c1.2,1.2,1.7,2.4,1.7,4
		c0,4.8,0.1,9.7-0.1,14.5c0,1.7,0.4,2.2,2.1,2.2c21.7-0.1,43.4,0,65.1,0c2.6,0,5.1,0,7.8,0c0-5.6-0.1-10.9,0.1-16.2
		c0-1.4,0.5-2.9,1.2-4.1c10.3-15.9,16.2-33.3,16.8-52.2c0.5-13.6,0.3-27.1,0.2-40.7c0-6-4.9-9.6-8.8-9.8
		c-6.9-0.4-11.2,3.9-11.2,10.8c0,4.2,0,8.4,0,12.6c0,2.5-1.7,4-4.1,3.8c-2-0.2-3.3-1.7-3.3-4.1c0-7.3,0-14.6,0-21.9
		c0-1.1-0.1-2.1-0.4-3.1c-1.2-4.7-5.7-7.7-10.7-7.3c-4.6,0.4-8.4,4.3-8.8,9c-0.1,1.6-0.1,3.2-0.1,4.9c0,6.1,0,12.1,0,18.2
		c0,2.9-1.6,4.5-4.1,4.4c-2.1-0.2-3.4-1.7-3.4-4.4c0-10.2,0-20.3,0-30.4c0-2.2-0.4-4.3-1.6-6.2c-2.6-3.9-7-5.3-11.7-3.9
		c-3.8,1.2-6.6,5.1-6.7,9.5c0,9.7,0,19.3,0,28.9c0,1.1,0.1,2.2-0.1,3.4c-0.2,1.9-1.8,3.2-3.7,3.2c-2,0-3.5-1.4-3.7-3.4
		c0-0.5,0-1,0-1.5c0-20.8,0-41.5,0-62.2c0-8.5-0.1-17.1,0-25.6c0.1-6.5-5.3-10.9-10.8-10.3c-5.4,0.5-9.3,4.8-9.3,10.5
		c0,23.8,0,47.7,0,71.5c0,11.7,0,23.3,0,35c0,1-0.2,2-0.7,2.8c-0.8,1.3-2.6,1.8-4.2,1.3c-1.5-0.5-2.5-1.9-2.5-3.8
		c0-6.7,0-13.5,0-20.2C576.7,1245.8,576.7,1241.9,576.7,1237.6z"/>
	<path d="M549.3,1109.5c0.9,0.5,1.9,0.8,2.6,1.5c6.8,6.7,13.5,13.4,20.2,20.1c1.6,1.6,1.7,3.9,0.3,5.4c-1.5,1.6-3.7,1.6-5.4,0
		c-6.9-6.8-13.7-13.7-20.6-20.5c-1.2-1.2-1.4-2.6-0.7-4.2C546.4,1110.4,547.5,1109.7,549.3,1109.5z"/>
	<path d="M640.1,1109.5c1.7,0.2,2.9,0.9,3.5,2.4s0.5,3-0.8,4.2c-2.5,2.5-4.9,4.9-7.4,7.4c-4.3,4.3-8.6,8.6-13,12.9
		c-2.2,2.2-5.3,1.7-6.4-1.1c-0.6-1.5-0.2-2.8,0.9-3.8c6.8-6.9,13.7-13.7,20.6-20.5C638.2,1110.2,639.2,1110,640.1,1109.5z"/>
	<path d="M598.3,1115.2c0,2.9,0,5.8,0,8.7c0,2.4-1.5,4-3.6,4c-2.2,0-3.8-1.6-3.8-4c0-5.8,0-11.7,0-17.5c0-2.4,1.7-4.1,3.8-4
		s3.6,1.6,3.6,4C598.3,1109.4,598.3,1112.3,598.3,1115.2z"/>
	<path d="M548.8,1162.4c-2.9,0-5.8,0-8.7,0c-2.4,0-4-1.4-4.1-3.5s1.6-3.8,4-3.9c5.9-0.1,11.8-0.1,17.6,0c2.4,0,4,1.7,3.9,3.9
		c-0.1,2.1-1.6,3.5-4.1,3.5C554.7,1162.5,551.8,1162.4,548.8,1162.4z"/>
	<path d="M640.3,1162.4c-2.9,0-5.8,0-8.8,0c-2.3,0-3.8-1.4-3.9-3.5c-0.1-2,1.5-3.8,3.7-3.8c6.1-0.1,12.2-0.1,18.3,0
		c2.2,0,3.6,1.8,3.5,3.9s-1.5,3.4-3.8,3.4C646.4,1162.5,643.3,1162.4,640.3,1162.4z"/>
	<path class="st0" d="M576.7,1237.6c0,4.3,0,8.2,0,12.1c0,6.7,0,13.5,0,20.2c0,1.9,1,3.3,2.5,3.8c1.6,0.5,3.4,0.1,4.2-1.3
		c0.5-0.8,0.7-1.9,0.7-2.8c0-11.7,0-23.3,0-35c0-23.8,0-47.7,0-71.5c0-5.7,3.9-10,9.3-10.5c5.5-0.5,10.9,3.8,10.8,10.3
		c-0.1,8.5,0,17.1,0,25.6c0,20.8,0,41.5,0,62.2c0,0.5,0,1,0,1.5c0.2,2,1.7,3.4,3.7,3.4c1.9,0,3.5-1.3,3.7-3.2
		c0.1-1.1,0.1-2.2,0.1-3.4c0-9.7,0-19.3,0-28.9c0-4.4,2.8-8.3,6.7-9.5c4.7-1.4,9.1,0.1,11.7,3.9c1.3,1.9,1.7,4,1.6,6.2
		c0,10.2,0,20.3,0,30.4c0,2.7,1.3,4.2,3.4,4.4c2.5,0.2,4.1-1.5,4.1-4.4c0-6.1,0-12.1,0-18.2c0-1.6,0-3.3,0.1-4.9
		c0.3-4.7,4.1-8.5,8.8-9c5-0.5,9.5,2.6,10.7,7.3c0.3,1,0.4,2.1,0.4,3.1c0,7.3,0,14.6,0,21.9c0,2.4,1.3,3.9,3.3,4.1
		c2.4,0.2,4.1-1.4,4.1-3.8c0-4.2,0-8.4,0-12.6c0-6.9,4.3-11.2,11.2-10.8c4,0.2,8.8,3.9,8.8,9.8c0.1,13.6,0.2,27.2-0.2,40.7
		c-0.6,18.9-6.6,36.3-16.8,52.2c-0.7,1.2-1.2,2.7-1.2,4.1c-0.1,5.3-0.1,10.6-0.1,16.2c-2.7,0-5.3,0-7.8,0c-21.7,0-43.4,0-65.1,0
		c-1.7,0-2.2-0.5-2.1-2.2c0.1-4.8,0-9.7,0.1-14.5c0-1.6-0.5-2.9-1.7-4c-15.2-15-26-32.7-32.3-53.2c-1.4-4.7-3-9.3-2.7-14.3
		c0.5-7.9,3.9-14.4,10.3-19.2C570.1,1241.9,573.3,1239.9,576.7,1237.6z"/>
</g>
<g class="st1">
	<path d="M286,1498.3v-35.8h4.7v14.7h18.6v-14.7h4.7v35.8h-4.7v-16.9h-18.6v16.9H286z"/>
	<path d="M338.3,1495.2c-1.6,1.4-3.2,2.4-4.7,2.9c-1.5,0.6-3.1,0.8-4.9,0.8c-2.9,0-5-0.7-6.6-2.1s-2.3-3.2-2.3-5.3
		c0-1.3,0.3-2.4,0.9-3.5c0.6-1.1,1.3-1.9,2.3-2.5c0.9-0.6,2-1.1,3.2-1.4c0.9-0.2,2.2-0.4,3.9-0.7c3.5-0.4,6.2-0.9,7.8-1.5
		c0-0.6,0-1,0-1.2c0-1.8-0.4-3.1-1.2-3.8c-1.1-1-2.8-1.5-5-1.5c-2.1,0-3.6,0.4-4.6,1.1c-1,0.7-1.7,2-2.2,3.8l-4.3-0.6
		c0.4-1.8,1-3.3,1.9-4.5c0.9-1.1,2.2-2,3.9-2.6s3.6-0.9,5.9-0.9c2.2,0,4,0.3,5.4,0.8c1.4,0.5,2.4,1.2,3,2c0.6,0.8,1.1,1.8,1.4,3
		c0.1,0.8,0.2,2.1,0.2,4.1v5.9c0,4.1,0.1,6.7,0.3,7.8s0.6,2.1,1.1,3.1h-4.6C338.7,1497.4,338.4,1496.4,338.3,1495.2z M337.9,1485.3
		c-1.6,0.7-4,1.2-7.2,1.7c-1.8,0.3-3.1,0.6-3.8,0.9s-1.3,0.8-1.7,1.4c-0.4,0.6-0.6,1.3-0.6,2.1c0,1.2,0.4,2.2,1.3,2.9
		c0.9,0.8,2.2,1.2,3.9,1.2c1.7,0,3.2-0.4,4.5-1.1c1.3-0.7,2.3-1.8,2.9-3c0.5-1,0.7-2.5,0.7-4.4L337.9,1485.3L337.9,1485.3z"/>
	<path d="M346.9,1498.3v-3.6l16.5-18.9c-1.9,0.1-3.5,0.2-5,0.2h-10.6v-3.6H369v2.9l-14,16.5l-2.7,3c2-0.2,3.8-0.2,5.5-0.2h12v3.8
		L346.9,1498.3L346.9,1498.3z"/>
	<path d="M405,1488.8l4.3,0.6c-0.5,3-1.7,5.3-3.6,7c-2,1.7-4.3,2.5-7.2,2.5c-3.5,0-6.4-1.2-8.6-3.5s-3.2-5.6-3.2-10
		c0-2.8,0.5-5.2,1.4-7.3s2.3-3.7,4.2-4.7c1.9-1.1,4-1.6,6.2-1.6c2.8,0,5.1,0.7,6.9,2.1c1.8,1.4,2.9,3.4,3.4,6.1l-4.3,0.7
		c-0.4-1.7-1.1-3.1-2.2-3.9s-2.3-1.3-3.8-1.3c-2.2,0-4,0.8-5.4,2.4c-1.4,1.6-2.1,4.1-2.1,7.5c0,3.5,0.7,6,2,7.6s3.1,2.4,5.2,2.4
		c1.7,0,3.2-0.5,4.3-1.6C403.9,1492.7,404.7,1491.1,405,1488.8z"/>
	<path d="M413,1498.3v-35.8h4.4v35.8H413z"/>
	<path d="M424.2,1467.6v-5.1h4.4v5.1H424.2z M424.2,1498.3v-25.9h4.4v25.9H424.2z"/>
	<path d="M452.2,1488.8l4.3,0.6c-0.5,3-1.7,5.3-3.6,7c-2,1.7-4.3,2.5-7.2,2.5c-3.5,0-6.4-1.2-8.6-3.5s-3.2-5.6-3.2-10
		c0-2.8,0.5-5.2,1.4-7.3s2.3-3.7,4.2-4.7c1.9-1.1,4-1.6,6.2-1.6c2.8,0,5.1,0.7,6.9,2.1c1.8,1.4,2.9,3.4,3.4,6.1l-4.3,0.7
		c-0.4-1.7-1.1-3.1-2.2-3.9s-2.3-1.3-3.8-1.3c-2.2,0-4,0.8-5.4,2.4c-1.4,1.6-2.1,4.1-2.1,7.5c0,3.5,0.7,6,2,7.6s3.1,2.4,5.2,2.4
		c1.7,0,3.2-0.5,4.3-1.6C451.2,1492.7,451.9,1491.1,452.2,1488.8z"/>
	<path d="M460.3,1498.3v-35.8h4.4v20.4l10.4-10.6h5.7l-9.9,9.6l10.9,16.3h-5.4l-8.6-13.3l-3.1,3v10.3H460.3z"/>
	<path d="M499,1508.3l-0.5-4.1c1,0.3,1.8,0.4,2.5,0.4c1,0,1.8-0.2,2.3-0.5c0.6-0.3,1.1-0.8,1.4-1.4c0.3-0.4,0.7-1.5,1.3-3.3
		c0.1-0.2,0.2-0.6,0.4-1.1l-9.8-26h4.7l5.4,15c0.7,1.9,1.3,3.9,1.9,6c0.5-2,1.1-4,1.8-5.9l5.5-15.1h4.4l-9.9,26.4
		c-1.1,2.8-1.9,4.8-2.5,5.9c-0.8,1.4-1.7,2.5-2.7,3.2c-1,0.7-2.2,1-3.6,1C501,1508.9,500,1508.7,499,1508.3z"/>
	<path d="M554.9,1498.3v-3.3c-1.6,2.6-4.1,3.9-7.2,3.9c-2.1,0-4-0.6-5.7-1.7s-3.1-2.7-4-4.8s-1.4-4.4-1.4-7c0-2.6,0.4-4.9,1.3-7
		c0.9-2.1,2.2-3.7,3.9-4.8c1.7-1.1,3.7-1.7,5.8-1.7c1.6,0,3,0.3,4.2,1s2.2,1.5,3,2.6v-12.8h4.4v35.8L554.9,1498.3L554.9,1498.3z
		 M541,1485.4c0,3.3,0.7,5.8,2.1,7.4c1.4,1.6,3,2.5,5,2.5c1.9,0,3.5-0.8,4.9-2.4c1.3-1.6,2-4,2-7.2c0-3.6-0.7-6.2-2-7.8
		s-3-2.5-5-2.5c-2,0-3.6,0.8-4.9,2.4C541.7,1479.5,541,1482,541,1485.4z"/>
	<path d="M583.6,1490l4.5,0.6c-0.7,2.7-2,4.7-4,6.2c-1.9,1.5-4.4,2.2-7.4,2.2c-3.8,0-6.8-1.2-9-3.5c-2.2-2.3-3.3-5.6-3.3-9.8
		c0-4.4,1.1-7.8,3.4-10.2s5.2-3.6,8.7-3.6c3.5,0,6.3,1.2,8.5,3.5s3.3,5.7,3.3,10c0,0.3,0,0.7,0,1.2H569c0.2,2.8,1,5,2.4,6.5
		s3.2,2.3,5.4,2.3c1.6,0,3-0.4,4.1-1.3C582,1493.2,583,1491.9,583.6,1490z M569.2,1482.9h14.5c-0.2-2.2-0.8-3.8-1.7-4.9
		c-1.4-1.7-3.2-2.5-5.4-2.5c-2,0-3.7,0.7-5.1,2C570.1,1478.8,569.3,1480.6,569.2,1482.9z"/>
	<path d="M591.9,1490.6l4.3-0.7c0.2,1.7,0.9,3.1,2,4c1.1,0.9,2.7,1.4,4.7,1.4c2,0,3.5-0.4,4.5-1.2c1-0.8,1.5-1.8,1.5-2.9
		c0-1-0.4-1.8-1.3-2.3c-0.6-0.4-2.1-0.9-4.5-1.5c-3.2-0.8-5.5-1.5-6.7-2.1c-1.2-0.6-2.2-1.4-2.8-2.5c-0.6-1.1-1-2.2-1-3.5
		c0-1.2,0.3-2.2,0.8-3.2c0.5-1,1.2-1.8,2.2-2.4c0.7-0.5,1.6-0.9,2.8-1.3s2.5-0.5,3.8-0.5c2,0,3.8,0.3,5.4,0.9s2.7,1.4,3.4,2.4
		c0.7,1,1.2,2.3,1.5,4l-4.3,0.6c-0.2-1.3-0.8-2.4-1.7-3.1c-0.9-0.8-2.3-1.1-4-1.1c-2,0-3.5,0.3-4.3,1s-1.3,1.4-1.3,2.3
		c0,0.6,0.2,1.1,0.5,1.5c0.4,0.5,0.9,0.9,1.7,1.2c0.4,0.2,1.7,0.5,3.9,1.1c3.1,0.8,5.3,1.5,6.5,2s2.2,1.3,2.9,2.3s1,2.3,1,3.8
		c0,1.5-0.4,2.8-1.3,4.1c-0.8,1.3-2.1,2.3-3.7,3s-3.4,1.1-5.5,1.1c-3.4,0-5.9-0.7-7.7-2.1C593.5,1495.4,592.4,1493.4,591.9,1490.6z"
		/>
	<path d="M618.6,1498.3v-35.8h4.4v35.8H618.6z"/>
	<path d="M629.8,1467.6v-5.1h4.4v5.1H629.8z M629.8,1498.3v-25.9h4.4v25.9H629.8z"/>
	<path d="M638.6,1498.3v-3.6l16.5-18.9c-1.9,0.1-3.5,0.2-5,0.2h-10.6v-3.6h21.2v2.9l-14,16.5l-2.7,3c2-0.2,3.8-0.2,5.5-0.2h12v3.8
		L638.6,1498.3L638.6,1498.3z"/>
	<path d="M682.8,1495.2c-1.6,1.4-3.2,2.4-4.7,2.9s-3.1,0.8-4.8,0.8c-2.8,0-5-0.7-6.6-2.1s-2.3-3.2-2.3-5.3c0-1.3,0.3-2.4,0.9-3.5
		c0.6-1.1,1.3-1.9,2.3-2.5c0.9-0.6,2-1.1,3.2-1.4c0.9-0.2,2.2-0.4,3.9-0.7c3.5-0.4,6.2-0.9,7.8-1.5c0-0.6,0-1,0-1.2
		c0-1.8-0.4-3.1-1.2-3.8c-1.1-1-2.8-1.5-5-1.5c-2.1,0-3.6,0.4-4.6,1.1c-1,0.7-1.7,2-2.2,3.8l-4.3-0.6c0.4-1.8,1-3.3,1.9-4.5
		c0.9-1.1,2.2-2,3.9-2.6s3.7-0.9,5.9-0.9c2.2,0,4,0.3,5.4,0.8c1.4,0.5,2.4,1.2,3,2c0.7,0.8,1.1,1.8,1.4,3c0.2,0.8,0.2,2.1,0.2,4.1
		v5.9c0,4.1,0.1,6.7,0.3,7.8s0.6,2.1,1.1,3.1h-4.6C683.2,1497.4,682.9,1496.4,682.8,1495.2z M682.5,1485.3c-1.6,0.7-4,1.2-7.2,1.7
		c-1.8,0.3-3.1,0.6-3.8,0.9s-1.3,0.8-1.7,1.4c-0.4,0.6-0.6,1.3-0.6,2.1c0,1.2,0.4,2.2,1.3,2.9s2.2,1.2,3.9,1.2
		c1.7,0,3.2-0.4,4.5-1.1s2.3-1.8,2.9-3c0.5-1,0.7-2.5,0.7-4.4L682.5,1485.3L682.5,1485.3z"/>
	<path d="M707.6,1498.3v-35.8h4.4v12.8c2-2.4,4.6-3.6,7.8-3.6c1.9,0,3.6,0.4,5,1.1c1.4,0.8,2.4,1.8,3,3.1c0.6,1.3,0.9,3.3,0.9,5.8
		v16.4h-4.4v-16.4c0-2.2-0.5-3.8-1.4-4.8s-2.3-1.5-4-1.5c-1.3,0-2.5,0.3-3.7,1c-1.2,0.7-2,1.6-2.5,2.8s-0.7,2.8-0.7,4.8v14.2H707.6z
		"/>
	<path d="M752.3,1495.2c-1.6,1.4-3.2,2.4-4.7,2.9c-1.5,0.6-3.1,0.8-4.8,0.8c-2.8,0-5-0.7-6.6-2.1s-2.3-3.2-2.3-5.3
		c0-1.3,0.3-2.4,0.9-3.5c0.6-1.1,1.3-1.9,2.3-2.5s2-1.1,3.2-1.4c0.9-0.2,2.2-0.4,3.9-0.7c3.5-0.4,6.2-0.9,7.8-1.5c0-0.6,0-1,0-1.2
		c0-1.8-0.4-3.1-1.2-3.8c-1.1-1-2.8-1.5-5-1.5c-2.1,0-3.6,0.4-4.6,1.1c-1,0.7-1.7,2-2.2,3.8l-4.3-0.6c0.4-1.8,1-3.3,1.9-4.5
		c0.9-1.1,2.2-2,3.9-2.6s3.7-0.9,5.9-0.9c2.2,0,4,0.3,5.4,0.8c1.4,0.5,2.4,1.2,3,2c0.7,0.8,1.1,1.8,1.4,3c0.2,0.8,0.2,2.1,0.2,4.1
		v5.9c0,4.1,0.1,6.7,0.3,7.8s0.6,2.1,1.1,3.1h-4.6C752.7,1497.4,752.5,1496.4,752.3,1495.2z M752,1485.3c-1.6,0.7-4,1.2-7.2,1.7
		c-1.8,0.3-3.1,0.6-3.8,0.9s-1.3,0.8-1.7,1.4c-0.4,0.6-0.6,1.3-0.6,2.1c0,1.2,0.4,2.2,1.3,2.9s2.2,1.2,3.9,1.2
		c1.7,0,3.2-0.4,4.5-1.1s2.3-1.8,2.9-3c0.5-1,0.7-2.5,0.7-4.4L752,1485.3L752,1485.3z"/>
	<path d="M780.1,1488.8l4.3,0.6c-0.5,3-1.7,5.3-3.6,7c-2,1.7-4.3,2.5-7.2,2.5c-3.5,0-6.4-1.2-8.6-3.5s-3.2-5.6-3.2-10
		c0-2.8,0.5-5.2,1.4-7.3s2.3-3.7,4.2-4.7c1.9-1.1,4-1.6,6.2-1.6c2.8,0,5.1,0.7,6.9,2.1c1.8,1.4,2.9,3.4,3.4,6.1l-4.3,0.7
		c-0.4-1.7-1.1-3.1-2.2-3.9c-1-0.9-2.3-1.3-3.8-1.3c-2.2,0-4,0.8-5.4,2.4c-1.4,1.6-2.1,4.1-2.1,7.5c0,3.5,0.7,6,2,7.6
		s3.1,2.4,5.2,2.4c1.7,0,3.2-0.5,4.3-1.6C779.1,1492.7,779.8,1491.1,780.1,1488.8z"/>
	<path d="M788.2,1467.6v-5.1h4.4v5.1H788.2z M788.2,1498.3v-25.9h4.4v25.9H788.2z"/>
	<path d="M816.2,1495.2c-1.6,1.4-3.2,2.4-4.7,2.9c-1.5,0.6-3.1,0.8-4.8,0.8c-2.8,0-5-0.7-6.6-2.1s-2.3-3.2-2.3-5.3
		c0-1.3,0.3-2.4,0.9-3.5c0.6-1.1,1.3-1.9,2.3-2.5s2-1.1,3.2-1.4c0.9-0.2,2.2-0.4,3.9-0.7c3.5-0.4,6.2-0.9,7.8-1.5c0-0.6,0-1,0-1.2
		c0-1.8-0.4-3.1-1.2-3.8c-1.1-1-2.8-1.5-5-1.5c-2.1,0-3.6,0.4-4.6,1.1c-1,0.7-1.7,2-2.2,3.8l-4.3-0.6c0.4-1.8,1-3.3,1.9-4.5
		c0.9-1.1,2.2-2,3.9-2.6s3.7-0.9,5.9-0.9c2.2,0,4,0.3,5.4,0.8c1.4,0.5,2.4,1.2,3,2c0.7,0.8,1.1,1.8,1.4,3c0.2,0.8,0.2,2.1,0.2,4.1
		v5.9c0,4.1,0.1,6.7,0.3,7.8s0.6,2.1,1.1,3.1h-4.6C816.7,1497.4,816.4,1496.4,816.2,1495.2z M815.9,1485.3c-1.6,0.7-4,1.2-7.2,1.7
		c-1.8,0.3-3.1,0.6-3.8,0.9s-1.3,0.8-1.7,1.4c-0.4,0.6-0.6,1.3-0.6,2.1c0,1.2,0.4,2.2,1.3,2.9s2.2,1.2,3.9,1.2
		c1.7,0,3.2-0.4,4.5-1.1s2.3-1.8,2.9-3c0.5-1,0.7-2.5,0.7-4.4L815.9,1485.3L815.9,1485.3z"/>
	<path d="M857.9,1495.2c-1.6,1.4-3.2,2.4-4.7,2.9c-1.5,0.6-3.1,0.8-4.8,0.8c-2.8,0-5-0.7-6.6-2.1s-2.3-3.2-2.3-5.3
		c0-1.3,0.3-2.4,0.9-3.5c0.6-1.1,1.3-1.9,2.3-2.5s2-1.1,3.2-1.4c0.9-0.2,2.2-0.4,3.9-0.7c3.5-0.4,6.2-0.9,7.8-1.5c0-0.6,0-1,0-1.2
		c0-1.8-0.4-3.1-1.2-3.8c-1.1-1-2.8-1.5-5-1.5c-2.1,0-3.6,0.4-4.6,1.1c-1,0.7-1.7,2-2.2,3.8l-4.3-0.6c0.4-1.8,1-3.3,1.9-4.5
		c0.9-1.1,2.2-2,3.9-2.6s3.7-0.9,5.9-0.9c2.2,0,4,0.3,5.4,0.8c1.4,0.5,2.4,1.2,3,2c0.7,0.8,1.1,1.8,1.4,3c0.2,0.8,0.2,2.1,0.2,4.1
		v5.9c0,4.1,0.1,6.7,0.3,7.8s0.6,2.1,1.1,3.1h-4.6C858.4,1497.4,858.1,1496.4,857.9,1495.2z M857.6,1485.3c-1.6,0.7-4,1.2-7.2,1.7
		c-1.8,0.3-3.1,0.6-3.8,0.9s-1.3,0.8-1.7,1.4c-0.4,0.6-0.6,1.3-0.6,2.1c0,1.2,0.4,2.2,1.3,2.9s2.2,1.2,3.9,1.2
		c1.7,0,3.2-0.4,4.5-1.1s2.3-1.8,2.9-3c0.5-1,0.7-2.5,0.7-4.4L857.6,1485.3L857.6,1485.3z"/>
	<path d="M872.9,1498.3h-4.1v-35.8h4.4v12.8c1.9-2.3,4.2-3.5,7.1-3.5c1.6,0,3.1,0.3,4.5,1c1.4,0.6,2.6,1.6,3.5,2.7
		c0.9,1.2,1.6,2.6,2.2,4.2c0.5,1.6,0.8,3.4,0.8,5.3c0,4.4-1.1,7.9-3.3,10.3c-2.2,2.4-4.8,3.6-7.9,3.6c-3.1,0-5.5-1.3-7.2-3.8
		L872.9,1498.3L872.9,1498.3z M872.8,1485.2c0,3.1,0.4,5.4,1.3,6.7c1.4,2.3,3.2,3.4,5.6,3.4c1.9,0,3.6-0.8,5-2.5
		c1.4-1.7,2.1-4.2,2.1-7.5c0-3.4-0.7-5.9-2-7.5c-1.3-1.6-3-2.4-4.9-2.4c-1.9,0-3.6,0.8-5,2.5C873.5,1479.6,872.8,1482,872.8,1485.2z
		"/>
	<path d="M913.5,1495.2c-1.6,1.4-3.2,2.4-4.7,2.9c-1.5,0.6-3.1,0.8-4.8,0.8c-2.8,0-5-0.7-6.6-2.1s-2.3-3.2-2.3-5.3
		c0-1.3,0.3-2.4,0.9-3.5c0.6-1.1,1.3-1.9,2.3-2.5s2-1.1,3.2-1.4c0.9-0.2,2.2-0.4,3.9-0.7c3.5-0.4,6.2-0.9,7.8-1.5c0-0.6,0-1,0-1.2
		c0-1.8-0.4-3.1-1.2-3.8c-1.1-1-2.8-1.5-5-1.5c-2.1,0-3.6,0.4-4.6,1.1c-1,0.7-1.7,2-2.2,3.8l-4.3-0.6c0.4-1.8,1-3.3,1.9-4.5
		c0.9-1.1,2.2-2,3.9-2.6s3.7-0.9,5.9-0.9c2.2,0,4,0.3,5.4,0.8c1.4,0.5,2.4,1.2,3,2c0.7,0.8,1.1,1.8,1.4,3c0.2,0.8,0.2,2.1,0.2,4.1
		v5.9c0,4.1,0.1,6.7,0.3,7.8s0.6,2.1,1.1,3.1h-4.6C914,1497.4,913.7,1496.4,913.5,1495.2z M913.2,1485.3c-1.6,0.7-4,1.2-7.2,1.7
		c-1.8,0.3-3.1,0.6-3.8,0.9s-1.3,0.8-1.7,1.4c-0.4,0.6-0.6,1.3-0.6,2.1c0,1.2,0.4,2.2,1.3,2.9s2.2,1.2,3.9,1.2
		c1.7,0,3.2-0.4,4.5-1.1s2.3-1.8,2.9-3c0.5-1,0.7-2.5,0.7-4.4L913.2,1485.3L913.2,1485.3z"/>
	<path d="M918.8,1508.4l0.8-3.7c0.9,0.2,1.6,0.3,2.1,0.3c0.9,0,1.6-0.3,2-0.9s0.7-2.1,0.7-4.5v-27.2h4.4v27.3c0,3.2-0.4,5.4-1.2,6.7
		c-1.1,1.6-2.8,2.4-5.3,2.4C921.1,1508.9,920,1508.7,918.8,1508.4z M924.4,1467.7v-5.1h4.4v5.1H924.4z"/>
	<path d="M933.9,1485.4c0-4.8,1.3-8.4,4-10.7c2.2-1.9,5-2.9,8.2-2.9c3.6,0,6.5,1.2,8.7,3.5s3.4,5.6,3.4,9.7c0,3.3-0.5,6-1.5,7.9
		s-2.5,3.4-4.4,4.5c-1.9,1.1-4,1.6-6.3,1.6c-3.6,0-6.6-1.2-8.8-3.5C935,1493.1,933.9,1489.8,933.9,1485.4z M938.4,1485.4
		c0,3.3,0.7,5.8,2.2,7.5c1.5,1.7,3.3,2.5,5.5,2.5c2.2,0,4-0.8,5.4-2.5c1.5-1.7,2.2-4.2,2.2-7.6c0-3.2-0.7-5.6-2.2-7.3
		s-3.3-2.5-5.4-2.5c-2.2,0-4,0.8-5.5,2.5C939.2,1479.6,938.4,1482.1,938.4,1485.4z"/>
</g>
<g>
	<path d="M136.9,747.9c-20.7,2.8-52.3,13.6-59.1,41.7c3.4-26.9,32.9-39.2,54.2-42.7c5.1-0.8,10.5-1.4,16-1.8
		c16-17.8,35.1-25.3,44.8-27.3c29.3-6.2,42.6,9.1,26.3,21c-11,8-38.7,6.7-63.6,7.7c-15,16.7-21,33.7-21.2,51.5
		c-0.3,18.2,7.6,30.8,29.3,16.2c26.5-17.6,41.6-57.7,45-62.7c2.1-3.1,7.4,2,6.1,4.8c-2.5,5-10.1,20-14.2,33.7
		c-12.3,41.3,12,60.2,47.6,51c12.3-3.2,27.9-15.1,27.9-15.1c-22.9,22.3-66,28-80.7-0.3c-6.9-13.4-5.8-29.7,0.6-45.8
		c-7.4,17.1-24.6,34.4-38.1,40.2c-19.7,8.3-27.2-1.1-29.9-14.3c-1.1-5.5-4.4-18.5,8.6-44.9c3-5.2,6.4-9.8,9.9-13.9
		C143.2,747.1,140,747.5,136.9,747.9z M161.7,740.4c-1.6,1.4-2.8,2.8-4.2,4.2c22-1,43.8-0.3,52.5-3.5c22.4-8.3,13.9-20.7-0.3-22.1
		C194.3,717.6,173.8,728.9,161.7,740.4z"/>
	<path d="M226.3,793.3c-3.7,4.9-6.4,10.9-4.7,17.9c0.7,3.4,5.9,5.7,12,1.8c11.8-7.6,22.4-26.2,31.4-30.7
		c-6.5,5.3-13.5,16.5-23.6,26.3c-9.3,9-16.3,11.2-22.1,6.4c-6.8-5.6-4.5-19.3,1.1-26.2c6.5-8,14.4-12.2,21.8-10.1
		c7.8,2.1,5,8.5,2.7,11.8c-2.3,3.2-5.5,6.2-8.6,3.6c-3.1-2.5,1.1-5.2,2-4.9s3.7,0,5.7-2.2c2.7-2.9,0.4-5.3-3-4.8
		C238.9,782.7,232.9,784.5,226.3,793.3z"/>
	<path d="M264.8,774.7c6.4-0.1,11.5,3.6,11.5,13.6c0,2.9-0.7,7-1.8,10.9c2-0.8,4.1-2.1,6.2-3.8c8.5-6.7,10.5-13.4,14.9-13
		c-4.7,3.5-8.6,11.6-16.6,16.4c-1.6,1-3.3,1.7-5.1,2.2c-3.1,9.4-9.2,18.8-16.1,18.5c-9.9-0.3-10.6-13.2-5.9-22.3
		c0.6-1.1,1.1-2.2,1.7-3.2C247.7,783.2,257,774.8,264.8,774.7z M258.2,799.3c-1.4,2.5-2.5,5-3.3,7.6c-1.8,6.9,1.7,14.3,7.8,9
		c3-2.7,6.4-8.1,8.8-14.3C266.8,802.4,262,802,258.2,799.3z M262.7,782.4c3.8-0.6,4.2,3.1,4,5.2c0,0.1-4.1,4.5-7.5,10.1
		c3.3,2.5,7.9,3.5,13,2.2c3-8.4,3.8-17.5-1.1-21.6c-6.7-5.6-14.6,0.8-16,5.6c-0.7,2.7-0.7,5.3,0,7.6
		C258.6,785.7,261.6,782.5,262.7,782.4z"/>
	<path d="M299.4,788.5c0.1,2.9-3.3,9.7-3.8,10.9c0.4,0,1.6-2,4.7-5.7c4-4.9,8.1-8.1,11.2-7.7c4.5,1.5,4.8,5.2,3,9.5
		c-1.8,4.3-3.8,12.3,0.4,7.1c3.4-4.1,17.8-22.8,23.8-25.6c4.8-2.2,10.3,1.3,7.4,10.4c-1,3.4-4.2,9.4-9.8,17.5
		c-8.2,12-8.2,24.2,0.7,17.1c13.7-10.8,19.4-40,32.4-39.6c-10.6,4.8-14.7,18.3-19.4,26.2c-8.8,15-16.1,19.7-21.4,16.1
		c-5.4-3.6-6.7-9.9-0.3-20.2c8.8-14,16-30.9,9.5-25.5c-9.2,7.7-19.7,22.7-22.4,25.5c-2.4,2.5-5.1,2.5-6.9,0.7
		c-1.6-1.7-2.4-5.2,1-13.6c3.1-7.6-1-3.9-4.4-1c-6.1,5.5-14,20.9-15.9,23.8c-3.1,4.9-7.5-1.3-5.7-6.3c0.3-0.8,10.3-22.8,9.2-25.3
		C294.1,782,299.1,781.7,299.4,788.5z"/>
	<path d="M310.6,870.6c-1.3-18.5,33-48.9,38.5-53.8c2.1-2,4-3.5,5.2-4.3c2.4-8,4.1-14,4.8-15.8c4.5-13,7.4-14.8,9.1-14.1
		c2.4,1.1,2.3,3.9,0.8,8.3c4.5-5.5,10.5-10.8,18.4-10.9c9.8-0.3,12.6,9.1,9.3,19.9c7.5-2.5,14.9-6.7,21.5-16.9
		c-3.5,11.1-12.3,15.3-22,18.3c-1.1,3.2-3,6.9-5.4,10.1c-10.3,14.6-23.6,12.7-25.3,8c-1.4-4.1,1.4-7.7,5.7-10.5
		c6.1-3.9,12.3-5.3,18.6-7c3.4-8.7,4.1-19-2.1-19.6c-8.2-0.8-15.3,6.4-20.3,13c-2.3,5.7-5.7,13.3-8.4,22.1
		c-5,16.4-11.8,36.1-20.4,49.3C327.4,883.7,311.4,883.3,310.6,870.6z M344.8,823.5c-11.8,10.8-19.8,19.9-26.9,31.5
		c-7.6,12.6-6.4,23.1,0.7,22.5c14.6-1.4,27.8-38.9,35-62.6C351.8,817,349.1,819.8,344.8,823.5z M372.7,809.7
		c-5.1,3.2-6.2,7.4-5.1,9.2c3,4.8,12-1,18.1-9.7c1.3-1.7,2.4-3.6,3.4-5.9C383.2,805.1,377.5,806.7,372.7,809.7z"/>
	<path d="M436.9,815.6c8.1-11.8,18-31.8,24.9-33.3c-7.1,8-8.9,11.6-13,18.1c-7.8,12.5-12,20.9-16.6,20.2c-5.1-0.8-9.8-7.4-4.5-21.6
		c0.1-0.6,0.4-1.1,0.6-1.7c-5.8,7-11.3,13.7-16.7,7.7c-5.5-6.2-0.1-17.2,5-21.8c3.7-3.4,10.6-6.3,18-4.5c8.2,2.1,2,2.1,2,2.1
		s-10.5-2.2-18,9.7c-5.5,8.8-2.4,16.8,2,12.7c2.4-2.2,7.6-8.8,11.8-14c2.1-3.4,4.4-7.4,6.5-7.4c2.1-0.1,7.4,0.6,2.7,6.4
		C428.5,804.6,428.2,828,436.9,815.6z"/>
	<path d="M466.9,786.9c0.1,4.6-1.4,6.9-4,12.2c5.9-8.4,19.7-21.8,29-24.4c5.4-1.4,7.8,3.5,7.4,7.1c-0.7,5.5-16.4,26.7-18.4,34.6
		c-2.8,11.6,4.5,7.8,6.8,6.2c6.8-5,19.5-27.7,25.3-34.3c7.1-8.1,9.8-5.5,9.8-5.5c-11.2,2.7-24.8,38.4-37.2,43.3
		c-3.7,1.5-9.3,0.6-11-5.3c-3.3-11.8,18.3-38.9,19-43c0.7-4.6-13,3.6-22.7,14.6c-6.5,7.4-9.9,13-12.7,17.4c-0.6,1-3.8,1-5.2-1.4
		c-0.6-1-2.3-3.2,3-13.9c5.8-11.6,3.4-11.2,3.4-11.2C460.5,781.4,466.8,782.4,466.9,786.9z"/>
	<path d="M538.8,815.6c8.1-11.8,18-31.8,24.9-33.3c-7.1,8-8.9,11.6-13,18.1c-7.8,12.5-12,20.9-16.6,20.2c-5.1-0.8-9.8-7.4-4.5-21.6
		c0.1-0.6,0.4-1.1,0.6-1.7c-5.8,7-11.3,13.7-16.7,7.7c-5.5-6.2-0.1-17.2,5-21.8c3.7-3.4,10.6-6.3,18-4.5c8.2,2.1,2,2.1,2,2.1
		s-10.5-2.2-18,9.7c-5.5,8.8-2.4,16.8,2,12.7c2.4-2.2,7.6-8.8,11.8-14c2.1-3.4,4.4-7.4,6.5-7.4c2.1-0.1,7.4,0.6,2.7,6.4
		C530.5,804.6,530.2,828,538.8,815.6z"/>
	<path d="M567.7,788.5c0.1,2.9-3.3,9.7-3.8,10.9c0.4,0,1.6-2,4.7-5.7c4-4.9,8.1-8.1,11.2-7.7c4.5,1.5,4.8,5.2,3,9.5
		c-1.8,4.3-3.8,12.3,0.4,7.1c3.4-4.1,17.8-22.8,23.8-25.6c4.8-2.2,10.3,1.3,7.4,10.4c-1,3.4-4.2,9.4-9.8,17.5
		c-8.2,12-8.2,24.2,0.7,17.1c13.7-10.8,19.4-40,32.4-39.6c-10.6,4.8-14.7,18.3-19.4,26.2c-8.8,15-16.1,19.7-21.4,16.1
		c-5.4-3.6-6.7-9.9-0.3-20.2c8.8-14,16-30.9,9.5-25.5c-9.2,7.7-19.7,22.7-22.4,25.5c-2.4,2.5-5.1,2.5-6.9,0.7
		c-1.6-1.7-2.4-5.2,1-13.6c3.1-7.6-1-3.9-4.4-1c-6.1,5.5-14,20.9-15.9,23.8c-3.1,4.9-7.5-1.3-5.7-6.3c0.3-0.8,10.3-22.8,9.2-25.3
		C562.5,782,567.4,781.7,567.7,788.5z"/>
	<path d="M630.6,796.5c-2.3,10.8,3.7,15,9.9,12.5c10.5-4.1,20.4-26.7,27.8-26.6c-7.2,6.6-7.8,8.7-12.7,15
		c-6.5,8.3-13.3,15.4-21.4,14.6c-10.6-1.1-11.9-14.3-9.2-20.4c2.8-6.4,8.5-13.7,17.4-14.3c7.4-0.4,10.2,6.4,3.1,12.3
		c-4.2,3.5-10.5,5.2-14.6,5.9C630.9,795.7,630.6,796.2,630.6,796.5z M636.7,792.5c11.5-3.8,13.5-12.3,7.5-10.9
		c0,0-9.3,1.1-12.9,12.3C632.7,793.6,634.7,793.2,636.7,792.5z"/>
	<path d="M735.8,815.6c8.1-11.8,18-31.8,24.9-33.3c-7.1,8-8.9,11.6-13,18.1c-7.8,12.5-12,20.9-16.6,20.2c-5.1-0.8-9.8-7.4-4.5-21.6
		c0.1-0.6,0.4-1.1,0.6-1.7c-5.8,7-11.3,13.7-16.7,7.7c-5.5-6.2-0.1-17.2,5-21.8c3.7-3.4,10.6-6.3,18-4.5c8.2,2.1,2,2.1,2,2.1
		s-10.5-2.2-18,9.7c-5.5,8.8-2.4,16.8,2,12.7c2.4-2.2,7.6-8.8,11.8-14c2.1-3.4,4.4-7.4,6.5-7.4c2.1-0.1,7.4,0.6,2.7,6.4
		C727.5,804.6,727.2,828,735.8,815.6z"/>
	<path d="M807.1,793.3c-3.7,4.9-6.4,10.9-4.7,17.9c0.7,3.4,5.9,5.7,12,1.8c11.8-7.6,22.4-26.2,31.4-30.7
		c-6.5,5.3-13.5,16.5-23.7,26.3c-9.3,9-16.3,11.2-22.1,6.4c-6.8-5.6-4.5-19.3,1.1-26.2c6.5-8,14.4-12.2,21.8-10.1
		c7.8,2.1,5,8.5,2.7,11.8c-2.3,3.2-5.5,6.2-8.6,3.6c-3.1-2.5,1.1-5.2,2-4.9s3.7,0,5.7-2.2c2.7-2.9,0.4-5.3-3-4.8
		C819.7,782.7,813.7,784.5,807.1,793.3z"/>
	<path d="M838.9,796.5c-2.3,10.8,3.7,15,9.9,12.5c10.5-4.1,20.4-26.7,27.8-26.6c-7.2,6.6-7.8,8.7-12.7,15
		c-6.5,8.3-13.3,15.4-21.4,14.6c-10.6-1.1-11.9-14.3-9.2-20.4c2.8-6.4,8.5-13.7,17.4-14.3c7.4-0.4,10.2,6.4,3.1,12.3
		c-4.2,3.5-10.5,5.2-14.6,5.9C839.2,795.7,838.9,796.2,838.9,796.5z M845,792.5c11.5-3.8,13.5-12.3,7.5-10.9c0,0-9.3,1.1-12.9,12.3
		C841,793.6,843,793.2,845,792.5z"/>
	<path d="M867.7,821.6c-0.4,4.1,0.1,7.3,3.8,2.1c11-15.3,24.5-36.3,35.8-41.2c-7.8,7.1-17.7,18.3-25.8,30.1
		c-11,16.1-12.6,17.1-15.7,15.4c-5.8-2.9-3-19.6,0.6-30.9c4.2-13.6,15.4-40.7,28-58.7c6.1-8.7,11.3-15.4,16.7-18.9
		c4.2-2.9,9.6-4.1,12.5,0.1c6.2,9.2-28.7,48.9-39.2,58.2c-2,1.8-3.4,3.1-4.5,3.9C871.1,802.3,868.5,814.2,867.7,821.6z M886.1,768.4
		c-1.7,3.5-3.3,6.9-4.7,9.9c5.5-5.6,15.7-16.2,21.7-23.8c13.6-17.2,17.8-25.9,18.8-29.8c2.4-9.8-7.6,0.4-10.5,3.5
		C906.8,733.4,897.7,744.7,886.1,768.4z"/>
	<path d="M900.5,796.5c-2.3,10.8,3.7,15,9.9,12.5c10.5-4.1,20.4-26.7,27.8-26.6c-7.2,6.6-7.8,8.7-12.7,15
		c-6.5,8.3-13.3,15.4-21.4,14.6c-10.6-1.1-11.9-14.3-9.2-20.4c2.8-6.4,8.5-13.7,17.4-14.3c7.4-0.4,10.2,6.4,3.1,12.3
		c-4.2,3.5-10.5,5.2-14.6,5.9C900.8,795.7,900.5,796.2,900.5,796.5z M906.6,792.5c11.5-3.8,13.5-12.3,7.5-10.9
		c0,0-9.3,1.1-12.9,12.3C902.6,793.6,904.6,793.2,906.6,792.5z"/>
	<path d="M960.8,790.1c-0.3-6.2-5.9-10.6-13.7-5.5c-7.4,4.9-9.8,11.3-11.9,17.1c0,0-8.6,2.7-5-8.5c5.2-15.5,13-31.9,23.4-46.5
		c11.6-16.2,27.5-32.3,37.2-26.5c6.8,4.1-6.7,28.4-30.7,47.7c-10.5,8.4-15.6,11.6-18,12.7c-1.1,2.7-2.4,5.9-3.7,9.5
		c1.1-1.7,2.4-3.4,4.1-4.9c11.6-10.6,23.2-3.8,23.4,6.6c0,2.8-0.4,5.7-1.6,8.8c15.6-6.3,20.3-16.1,20.3-15.7
		c0.1,3.4-7.4,12.5-21,17.6c-5.8,14.3-21.1,29-31,27.7c-7.6-1-10.5-9.2-4.2-15.8c3.1-3.4,8.4-7.4,22.8-10.1c2.3-0.4,4.4-0.8,6.4-1.4
		C959.9,798.5,961,794,960.8,790.1z M949,806.6c-26.8,5.2-24.8,22.4-16.7,20.9c7.9-1.4,18.6-11.8,24.4-22.5
		C954.2,805.5,951.8,806,949,806.6z M947.1,775.5c14.4-9.8,31-25.5,39.8-40.7c5.9-10.5,4.7-15-3.4-10.1
		c-8.8,5.5-22.9,21.3-31.3,36.7c-4.7,8.7-6.9,13-8.8,16.8C944.4,777.5,945.6,776.6,947.1,775.5z"/>
	<path d="M990,783.6c9.2,5.7,12.3,12,4.4,23.5c-8.4,12-9.6,31.4,2,22.1c6.8-5.5,11.9-14.8,20.4-29c8.2-13.7,10.2-16,13.9-17.9
		c-1.1,2.1-7.5,10.6-11.8,18.2c-9.5,17.1-19.4,33.5-28,32.8c-8.6-0.7-12.2-12.6-6.5-23.8c6.1-12.3,13-17.2,2-24.2
		c-14-9-6.7-16.1-3.3-18.1c4.1-2.4,10.2-1.4,10.2,4.6c0,4.5-3.1,8.3-5.5,10.4C988.5,782.7,989.2,783.1,990,783.6z M985.9,768.7
		c-4,1.7-6.1,7.1,1,12.9c2.4-2.8,4.1-5.7,4.5-7.4C992.4,770.3,989.2,767.3,985.9,768.7z"/>
	<path d="M1048.9,815.6c8.1-11.8,18-31.8,24.9-33.3c-7.1,8-8.9,11.6-13,18.1c-7.8,12.5-12,20.9-16.6,20.2c-5.1-0.8-9.8-7.4-4.5-21.6
		c0.1-0.6,0.4-1.1,0.6-1.7c-5.8,7-11.3,13.7-16.7,7.7c-5.5-6.2-0.1-17.2,5-21.8c3.7-3.4,10.6-6.3,18-4.5c8.2,2.1,2,2.1,2,2.1
		s-10.5-2.2-18,9.7c-5.5,8.8-2.4,16.8,2,12.7c2.4-2.2,7.6-8.8,11.8-14c2.1-3.4,4.4-7.4,6.5-7.4c2.1-0.1,7.4,0.6,2.7,6.4
		C1040.6,804.6,1040.3,828,1048.9,815.6z"/>
	<path d="M1076.7,783.6c9.2,5.7,12.3,12,4.4,23.5c-8.4,12-9.6,31.4,2,22.1c6.8-5.5,11.9-14.8,20.4-29c8.2-13.7,10.2-16,13.9-17.9
		c-1.1,2.1-7.5,10.6-11.8,18.2c-9.5,17.1-19.4,33.5-28,32.8c-8.6-0.7-12.2-12.6-6.5-23.8c6.1-12.3,13-17.2,2-24.2
		c-14-9-6.7-16.1-3.3-18.1c4.1-2.4,10.2-1.4,10.2,4.6c0,4.5-3.1,8.3-5.5,10.4C1075.1,782.7,1075.8,783.1,1076.7,783.6z
		 M1072.6,768.7c-4,1.7-6.1,7.1,1,12.9c2.4-2.8,4.1-5.7,4.5-7.4C1079.1,770.3,1075.8,767.3,1072.6,768.7z"/>
	<path d="M335.9,956.5c0.1,2.9-3.3,9.7-3.8,10.9c0.4,0,1.6-2,4.7-5.7c4-4.9,8.1-8.1,11.2-7.7c4.5,1.5,4.8,5.2,3,9.5
		c-1.8,4.3-3.8,12.3,0.4,7.1c3.4-4.1,17.8-22.8,23.8-25.6c4.8-2.2,10.3,1.3,7.4,10.4c-1,3.4-4.2,9.4-9.8,17.5
		c-8.2,12-8.2,24.2,0.7,17.1c13.7-10.8,19.4-40,32.4-39.6c-10.6,4.8-14.7,18.3-19.4,26.2c-8.8,15-16.1,19.7-21.4,16.1
		c-5.4-3.6-6.7-9.9-0.3-20.2c8.8-14,16-30.9,9.5-25.5c-9.2,7.7-19.7,22.7-22.4,25.5c-2.4,2.5-5.1,2.5-6.9,0.7
		c-1.6-1.7-2.4-5.2,1-13.6c3.1-7.6-1-3.9-4.4-1c-6.1,5.5-14,20.9-15.9,23.8c-3.1,4.9-7.5-1.3-5.7-6.3c0.3-0.8,10.3-22.8,9.2-25.3
		C330.7,950,335.6,949.7,335.9,956.5z"/>
	<path d="M414.9,967c-6.5,8.5-11.6,13.9-17.1,12.2c-8.8-2.8-1.4-24.5,4.8-28.6c2.8-1.4,4.2,0.1,3.8,2.4c-0.6,3.5-4.4,8.7-5.9,14.8
		c-1.1,4.6-2.5,9.9,1,9.5c4.4-0.4,12.5-12.7,18.1-19.6c4.7-5.7,6.1-7.4,9.1-7.4C424.4,952.5,420.9,959.3,414.9,967z M408.1,944.8
		c-1.7-0.6-1.8-1.5-0.6-3.9c1.4-2.7,0.6-3.2,2.8-4.5c1.6-0.8,6.7-0.3,5,3.2C413.5,943.4,410.1,945.3,408.1,944.8z"/>
	<path d="M536.6,902.9c17-10.5,19.8-15.3,25.8-23.2c1.7-2.2,4.1-3.6,6.2,3.4c0,0-4,7-9.9,19.3c7.6-7.8,22.5-19.3,35.3-21.7
		c12.6-2.2,19.5,4.1,16.7,15.4c-2.7,10.8-11.8,17.6-30.7,27.4c-1.7,0.8-3.5,1.7-5.8,2.4c5.8-0.6,11.6-0.4,17.1,1
		c20.3,5,19.3,28.6,11,44.9c17.1-3.6,31.3-8.8,38.4-21.3c-2.4,13.2-19.5,18.9-39.1,23c-1.3,2.4-2.8,4.5-4.4,6.4
		c-22.2,27.4-49.8,33.3-58.6,25.2c-7.5-7,0.1-19.5,19-24.4c12-3.2,24.4-5,35.7-7.1c7.2-13.3,12.3-31.1,0.4-41.2
		c-6.4-5.5-16.6-5.7-26.1-4.5c-8.6,2.5-18.3,4.5-22.8,5.6c-3,7-5.8,14.7-8.8,22.8c-13.2,36.4-26.6,52.1-37.8,52.4
		c-15.4,0.4-16.9-21.6-7.9-37.8c13-23.7,30.3-37.4,51-49.8c5-11.2,10.5-21.8,14.6-29.7c-26.8,26.9-73.1,25.6-86.8,61.7
		C477.7,921.5,514.5,916.6,536.6,902.9z M505.8,952.2c-15.9,19.6-18.3,29.5-18.3,42c0,11.5,8.6,12.6,13.6,9.5
		c11-6.9,22.2-32.9,31.4-60.6c2.1-6.4,4.8-13.4,7.8-20.2C533.3,927.7,515.8,940,505.8,952.2z M552.7,984.3
		c-14.3,5.9-18,15.5-11.8,20c9.6,7,38.8-9.4,49.1-25.5c0.7-1.1,1.6-2.2,2.3-3.5C577.6,978,562.6,980.2,552.7,984.3z M538.1,935.3
		h0.1H538.1z M569.4,924.6c12.5-4.9,36.1-18.5,34.1-34.9c-1.7-14-24.2-1.3-33.6,5.5c-6.8,4.9-11.8,10.2-14.3,13.3
		c-3.1,6.7-6.7,14.6-10.3,23.5C549,931.2,557.7,929.2,569.4,924.6z"/>
	<path d="M658.6,983.6c8.1-11.8,18-31.8,24.9-33.3c-7.1,8-8.9,11.6-13,18.1c-7.8,12.5-12,20.9-16.6,20.2c-5.1-0.8-9.8-7.4-4.5-21.6
		c0.1-0.6,0.4-1.1,0.6-1.7c-5.8,7-11.3,13.7-16.7,7.7c-5.5-6.2-0.1-17.2,5-21.8c3.7-3.4,10.6-6.3,18-4.5c8.2,2.1,2,2.1,2,2.1
		s-10.5-2.2-18,9.7c-5.5,8.8-2.4,16.8,2,12.7c2.4-2.2,7.6-8.8,11.8-14c2.1-3.4,4.4-7.4,6.5-7.4c2.1-0.1,7.4,0.6,2.7,6.4
		C650.3,972.6,650,996,658.6,983.6z"/>
	<path d="M681,950.5c5.1-1.1,7.9,1.8,2.5,11.9c-5,9.4,0.1,12.9,5.7,8.5c6.4-5,13.2-16.5,15.4-19c3.8-4.3,6.1-2.2,6.8,1.4
		c1.1,5-2.3,7.3-8.8,21.6c-5.9,12.9,1.7,14.7,9.5,5.7c12.5-14.4,15.7-28.7,24.8-30.1c-7.6,3.6-7.5,10.9-21,28.4
		c-3.7,4.8-10.6,13-18,7c-9.3-7.7,4-25.6,3.5-27c0,0-2.4,5.7-9.5,11.9c-7.5,6.6-14.2,3.1-16.1-1.3
		C673.5,964.4,679.3,958.6,681,950.5z"/>
	<path d="M701.7,896.2c-3.5,2.4-6.5,7-2.7,10.8c6.8,6.7,26.3,6,49.6,3.6c5.9-10.9,9.2-13.9,9.2-13.9c1.4-2.2,6.1,2.8,4.7,5.2
		c-1.6,2.5-3.1,5-4.7,7.7c32.3-3.8,68.8-9.7,87-4.2c6.8,2.1,9.3,4.5,8.6,7.8c-0.3,1.8-2.3,2.9-3.1,1.1c-0.7-1.5,3-5.2-6.4-7.8
		c-18.7-5.2-54.9,0.8-87.1,4.6c-9.3,15.8-19.1,35.8-27.2,64.1c-5.8,20.3-0.6,29.5,8.8,17.9c10.5-13,20.5-41,31.7-42.8
		c-8.9,7.8-12,13.7-20.4,29.1c-11.8,21.8-18.4,23.1-23.1,19.3c-5.9-4.8-9.1-16.9,6.4-54.7c5.9-14.4,10.9-24.8,14.7-31.9
		c-23.4,2.4-43.1,2.8-50.1-4.6c-3.5-3.8-2.1-10.4,2.5-13.4C701.6,893.1,705.4,893.8,701.7,896.2z"/>
	<path d="M779.7,967c-6.5,8.5-11.6,13.9-17.1,12.2c-8.8-2.8-1.4-24.5,4.8-28.6c2.8-1.4,4.2,0.1,3.8,2.4c-0.6,3.5-4.4,8.7-5.9,14.8
		c-1.1,4.6-2.5,9.9,1,9.5c4.4-0.4,12.5-12.7,18.1-19.6c4.7-5.7,6.1-7.4,9.1-7.4C789.2,952.5,785.7,959.3,779.7,967z M772.9,944.8
		c-1.7-0.6-1.8-1.5-0.6-3.9c1.4-2.7,0.6-3.2,2.8-4.5c1.6-0.8,6.7-0.3,5,3.2C778.3,943.4,774.9,945.3,772.9,944.8z"/>
	<path d="M797.4,960.5c15.7-2.8,18.1-10.1,20.8-10.4c2.8-0.3,5.5,3.1,3.1,5.5c-10.1,10.2-25.2,23.5-25.9,27.2
		c3.7-1.7,9.3-0.8,11.5,1.7c27.9-15.3,31.2-31.9,35.3-33.3c-3,6.4-11.3,22.1-34.4,34.7c5.4,6.3,4.8,25.5-3.5,39.1
		c-5.1,8.4-16,17.9-26.8,15c-11.8-3.1-8.5-22.4,6.7-38.6c5.1-5.5,13.3-11.8,20.4-15.5c-2.4-2.1-6.7-2.1-9.2-0.4
		c-4.5,2.9-4.8,1.7-5.8-2.7c-0.8-3.8,15.7-20.2,19.4-24.2c-1.7,0.4-8.2,3.9-15.4,3.6c-9.3-0.4-6.1-8.1-4.1-10.6
		c2.3-2.9,7.4,0,5.4,2.4C792.2,956.7,791.6,961.4,797.4,960.5z M779.7,1037.6c12.2,0,26.1-17.9,27.8-36.5c0.3-3.8,1-9.2-2.1-14.1
		C771.5,1005.5,765.8,1037.6,779.7,1037.6z"/>
	<path d="M843.9,942.7c6.4-0.1,11.5,3.6,11.5,13.6c0,2.9-0.7,7-1.8,10.9c2-0.8,4.1-2.1,6.2-3.8c8.5-6.7,10.5-13.4,14.9-13
		c-4.7,3.5-8.6,11.6-16.6,16.4c-1.6,1-3.3,1.7-5.1,2.2c-3.1,9.4-9.2,18.8-16.1,18.5c-9.9-0.3-10.6-13.2-5.9-22.3
		c0.6-1.1,1.1-2.2,1.7-3.2C826.7,951.2,836.1,942.8,843.9,942.7z M837.2,967.3c-1.4,2.5-2.5,5-3.3,7.6c-1.8,6.9,1.7,14.3,7.8,9
		c3-2.7,6.4-8.1,8.8-14.3C845.9,970.4,841,970,837.2,967.3z M841.8,950.4c3.8-0.6,4.2,3.1,4,5.2c0,0.1-4.1,4.5-7.5,10.1
		c3.3,2.5,7.9,3.5,13,2.2c3-8.4,3.8-17.5-1.1-21.6c-6.7-5.6-14.6,0.8-16,5.6c-0.7,2.7-0.7,5.3,0,7.6
		C837.6,953.7,840.6,950.5,841.8,950.4z"/>
</g>
<path d="M468.4,757.6c-1,0.2-1.9,0.7-2.6,1.5c-0.8,0.9-1.4,1.8-1.9,2.7c-0.7,1.1-1.2,2.4-1.6,3.7l-2.5-0.7c0.5-2.1,1.1-4,2-5.7
	c0.3-0.7,0.8-1.5,1.2-2.2c0.5-0.7,1-1.4,1.6-2c0.6-0.6,1.3-1.1,2-1.5c0.7-0.4,1.5-0.7,2.4-0.8c1.4-0.2,2.6,0,3.6,0.7
	c1,0.7,1.9,1.5,2.8,2.4c0.9,0.9,1.7,1.7,2.4,2.5c0.8,0.7,1.6,1,2.4,0.9c1-0.2,1.9-0.6,2.6-1.5c0.7-0.8,1.4-1.7,1.9-2.7
	c0.6-1.1,1.2-2.4,1.6-3.8l2.5,0.7c-0.5,2.1-1.1,4-2,5.7c-0.3,0.7-0.8,1.5-1.2,2.2c-0.5,0.7-1,1.4-1.6,2c-0.6,0.6-1.3,1.1-2,1.5
	c-0.7,0.4-1.5,0.7-2.4,0.8c-1.4,0.2-2.5,0-3.6-0.7c-1-0.7-2-1.5-2.8-2.4c-0.9-0.9-1.7-1.7-2.4-2.5
	C470.1,757.8,469.3,757.5,468.4,757.6z"/>
<path d="M429.3,769.4h-4.7l12.2-13.3h8.5L429.3,769.4z"/>
</svg>
