<?xml version="1.0" encoding="utf-8"?>
<!-- Generator: Adobe Illustrator 25.4.1, SVG Export Plug-In . SVG Version: 6.00 Build 0)  -->
<svg version="1.1" id="regalo" xmlns="http://www.w3.org/2000/svg" xmlns:xlink="http://www.w3.org/1999/xlink" x="0px" y="0px"
	 viewBox="0 0 1242 2208" style="enable-background:new 0 0 1242 2208;" xml:space="preserve">
<style type="text/css">
	.st0{fill:none;stroke:#000000;stroke-width:1.5008;stroke-linecap:round;}
	.st1{fill:#49707F;}
	.st2{fill:none;}
	.st3{fill:#808384;}
	.st4{enable-background:new    ;}
	.st5{fill:#FFFFFF;}
	.st6{fill:#838283;}
	.st7{fill:#4D4D4D;}
	.st8{fill:#4D4D4D;stroke:#4D4D4D;stroke-linecap:round;stroke-linejoin:round;stroke-miterlimit:10;}
	.st9{fill:#5D4D63;}
</style>
<script  type="text/ecmascript">
	<![CDATA[
      function changerect(evt) {
        console.log("aaaaa")
		navigator.clipboard.writeText("ES1111111111111111111111").then(function() {
          /* Alert the copied text */
          alert("IBAN copiado: IBAN ES11 1111 1111 1111 1111 1111");
        });
      }
    
		
		
		
		
		
		
		]]>
</script>
<line class="st0" x1="488.1" y1="-297.1" x2="632.8" y2="-297.1"/>
<g>
	<g>
		<g>
			<g>
				<g>
					<path class="st1" d="M511.6,694.5c10.4,14.3,30.2,11,45.4,8.1c12.3-2.4,24.8-4,37.5-3.7c6.2,0.1,12.7,0.4,18.9,2
						c2.9,0.8,5.9,1.6,8.1,3.9c3.2,3.9,3.2,7.6-0.1,11.6c-5.2,4.2-7.2,3.8-6-1.5c0.1,0.8,1.3,0.5,1.3-0.1c-0.3-8.2-13.9-0.5-5.3,4.9
						c9.7,6.2,18.3-8.3,12.1-15.6c-4.4-5.2-12.3-5.8-18.7-6.3c-11-1.1-22.1-0.9-33,0.5c-19.2,2.4-44,12.3-59.2-4.4
						C512.2,693.5,511.3,694.1,511.6,694.5L511.6,694.5z"/>
				</g>
				<g>
					<path class="st1" d="M596,706.7c1-4.9-6.4-3.7-5,1c2.4,8.3,14.1,1.4,15.5-3.8c2.6-9.4-8.3-15.5-16.7-15.6
						c-7.3-0.1-14.2,2.8-20.8,4.9c-4.1,1.3-8.3,2.5-12.6,2.5c-2.8,0-5.9-0.3-8.4-1.6c-1-0.5-1.7-1.1-2.7-1.6c-3.3-2.4-3.3-4.2,0-5.9
						c-0.8-0.9-2-0.1-1.5,0.9c2.4,5.2,10.1,1.4,7.6-3.7c-3.1-6-11.3-1.4-11.1,4.1c0.3,9.7,14.2,11.1,21.6,9.7
						c7.6-1.4,14.6-5.2,22.3-6.5c5.4-1,11.1-0.9,15.7,2.4c2.1,1.4,4.5,3.8,4.8,6.3c-0.3,2-0.8,4-1.1,6c-2.8,4.6-5.6,4.9-8.1,1.1
						C595.4,706.9,595.9,706.9,596,706.7L596,706.7z"/>
				</g>
			</g>
		</g>
	</g>
	<g>
		<g>
			<g>
				<g>
					<path class="st1" d="M747,694.2c-10.4,14.3-30.2,11-45.4,8.1c-12.3-2.4-24.8-4-37.5-3.7c-6.2,0.1-12.7,0.4-18.9,2
						c-2.9,0.8-5.9,1.6-8.1,3.9c-3.2,3.9-3.2,7.6,0.1,11.6c5.2,4.2,7.2,3.8,6-1.5c-0.1,0.8-1.3,0.5-1.3-0.1
						c0.3-8.2,13.9-0.5,5.3,4.9c-9.7,6.2-18.3-8.3-12.1-15.6c4.4-5.2,12.3-5.8,18.7-6.3c11-1.1,22.1-0.9,33,0.5
						c19.2,2.4,44,12.3,59.2-4.4C746.5,693,747.3,693.6,747,694.2L747,694.2z"/>
				</g>
				<g>
					<path class="st1" d="M662.7,706.2c-1-4.9,6.4-3.7,5.2,1c-2.4,8.3-14.1,1.4-15.5-3.8c-2.6-9.4,8.3-15.5,16.7-15.6
						c7.3-0.1,14.2,2.8,20.8,4.9c4.1,1.3,8.3,2.5,12.6,2.5c2.8,0,5.9-0.3,8.4-1.6c1-0.5,1.7-1.1,2.7-1.6c3.3-2.4,3.3-4.2,0-5.9
						c0.8-0.9,2-0.1,1.5,0.9c-2.4,5.2-10.1,1.4-7.6-3.7c3.1-6,11.3-1.4,11.1,4.1c-0.3,9.7-14.2,11.1-21.6,9.7
						c-7.6-1.4-14.6-5.2-22.3-6.5c-5.4-1-11.1-0.9-15.7,2.4c-2.1,1.4-4.5,3.8-4.8,6.3c0.3,2,0.8,4,1.1,6c2.8,4.6,5.6,4.9,8.1,1.1
						C663.2,706.5,662.8,706.5,662.7,706.2L662.7,706.2z"/>
				</g>
			</g>
		</g>
	</g>
</g>
<g>
	<path class="st1" d="M518,488.4c22-11.8,23.3-17.7,25.7-21.2c0.8-1.5,2-3.4,4.1-1.2c2.5,2.6,1.3,7,1.3,7s-8.2,16.7-15.2,32.9
		c5.3-6.9,16.5-20,28.1-26.3c8.6-4.6,20.5-6.4,26,0.2c7.1,8.8,2.6,23.3-8.2,36c-15,17.7-31.9,22.3-35.8,24.6
		c8.4,0.2,17.4,7.6,17,19.5c-0.4,11.9-6.5,17.3-6.9,30c-0.2,12.5,13,9.2,25.2-18.7c10-22.8,13.4-29.1,17.4-29.8
		c-8.1,4.9-19.9,57.3-38.7,57.1c-12.1,0-10.4-18.5-4.1-34.9c5.9-15.5-4.7-25.1-17.2-20.3c-12.3,4.7-9.7-3.7-9.7-3.7s2.5-0.5,6.8-1.9
		c4.2-1.3,13.1-3.4,23.6-10.2c18.1-11.7,26.2-22.8,29-36.2c3.2-15.6-9.4-16.9-20.9-11.7c-16.9,7.6-34.9,33.5-34.9,33.5l-0.9,0.9
		c-1.3,3.1-2.5,5.9-3.5,8.5c-7,17.4-22.1,59.9-33.3,69.6c-9.9,8.6-16.1-0.4-14.5-11.6c3.1-21.4,19.5-43.3,42.4-63.1
		c5-12.2,10.8-25.7,17.5-40.3c-21.8,23-72.2,23.9-73.3,62.2C463.3,509.8,490.8,503,518,488.4z M481.1,586.2
		c0.1,8.6,5.8,8.6,11.6-0.5c5.9-9.2,12.2-23.4,19.9-45.2c2.3-6,4.7-12.5,7.5-19.4C500.5,539.9,480.7,563.9,481.1,586.2z"/>
	<path class="st1" d="M591.2,556c-2.3,11.1,3.7,15.5,9.8,12.9c10.4-4.1,20-27.6,27.3-27.3c-7.1,6.9-7.6,8.9-12.6,15.5
		c-6.4,8.5-13.1,15.9-21,14.9c-10.5-1.2-11.7-14.7-9-21c2.8-6.5,8.4-14.2,17.2-14.7c7.3-0.4,10,6.5,3.1,12.7
		c-4.1,3.7-10.4,5.3-14.4,6C591.5,555.2,591.2,555.7,591.2,556z M597.2,551.7c11.3-3.9,13.2-12.7,7.4-11.2c0,0-9.2,1.2-12.7,12.7
		C593.3,552.9,595.3,552.6,597.2,551.7z"/>
	<path class="st1" d="M630.9,567.4c5.4-1.5,9.8-1.3,13,0.2c13.2-8.8,20.9-14.7,27.2-26.3c-1.4,9.2-12,18.3-25.6,27.3
		c6,4.1,7.4,13.4,6,20.8c-2.6,13.5-10.5,25.1-25,34.4c-10.8,7.1-25.6,8.8-31.1,4.7c-14.5-10.4,6.2-33.5,21.8-43.8
		c9.7-6.4,17.4-11.6,24.1-15.7c-2.4-1.1-5.4-1.4-9.4-0.4c-6.5,1.5-11,3.4-11,3.4S625.1,568.8,630.9,567.4z M618.8,586.4
		c-33.5,22.8-32.9,51-5.6,38c31-14.8,35.3-37.4,33.8-47c-0.4-2.6-1.5-5.3-3.9-7.1C635.4,575.6,626.9,580.7,618.8,586.4z
		 M644.4,539.6c0.8,0.4,1.5,1.2,2,2.5c2.4,7.3-6,18.6-15.9,24.2c-9,5.2-15,3.1-16.5-4.9c-2.3-12.9,12.2-22.8,19-24.6
		c2.9-0.9,5.2-1.1,7-1.1C644.4,535.9,645.7,538.2,644.4,539.6z M625.5,548.8c-7.3,7.8-8.8,17.5-3.1,17.1c5.9-0.4,12.1-4.9,17.7-12
		c4.5-5.8,4.1-11.7,2.9-14.1C640.6,540,632.4,541.3,625.5,548.8z"/>
	<path class="st1" d="M688.7,575.6c8.1-12.1,17.7-32.7,24.5-34.2c-7,8.3-8.8,12-12.9,18.6c-7.6,12.9-11.9,21.5-16.2,20.7
		c-5-0.9-9.7-7.6-4.5-22.1c0.1-0.5,0.3-1.2,0.5-1.7c-5.7,7.2-11.2,14.2-16.5,7.8c-5.4-6.3-0.1-17.7,4.8-22.5
		c3.7-3.4,10.5-6.4,17.7-4.6c8.2,2.1,2,2.1,2,2.1s-10.4-2.4-17.7,9.9c-5.4,9-2.4,17.3,2,13.1c2.4-2.4,7.5-9,11.6-14.4
		c2.1-3.4,4.4-7.6,6.4-7.6c2.1-0.1,7.3,0.5,2.6,6.5C680.4,564.4,680.2,588.5,688.7,575.6z"/>
	<path class="st1" d="M703.8,581.8c-0.3,4.1,0.1,7.5,3.8,2.1c10.8-15.7,24.2-37.4,35.3-42.4c-7.6,7.3-17.4,18.9-25.3,31
		c-10.8,16.6-12.3,17.5-15.5,15.9c-5.7-3.1-2.9-20.2,0.5-31.8c4.1-14.1,15.2-42,27.6-60.3c6-8.9,11.2-15.9,16.5-19.4
		c4.1-3.1,9.4-4.1,12.2,0.1c6.1,9.6-28.2,50.2-38.7,59.9c-2,1.9-3.3,3.2-4.5,4C707.2,561.9,704.7,574.2,703.8,581.8z M721.9,527
		c-1.6,3.7-3.2,7.1-4.6,10.2c5.4-5.8,15.5-16.7,21.4-24.5c13.4-17.7,17.5-26.6,18.5-30.6c2.4-10.1-7.5,0.4-10.4,3.7
		C742.3,491,733.3,502.7,721.9,527z"/>
	<path class="st1" d="M742.7,533.5c6.2-0.1,11.3,3.8,11.3,14.1c0,3.1-0.8,7.2-1.7,11.2c2-0.9,4-2.1,6.1-3.9
		c8.4-7,10.4-13.7,14.6-13.4c-4.6,3.7-8.5,12-16.2,16.9c-1.5,1.1-3.2,1.7-5,2.4c-3.1,9.7-9,19.3-15.9,19c-9.8-0.2-10.5-13.5-5.9-23
		c0.5-1.2,1.2-2.4,1.6-3.3C725.8,542.4,735,533.6,742.7,533.5z M736.2,558.8c-1.4,2.6-2.5,5.2-3.2,7.7c-1.7,7.1,1.6,14.7,7.6,9.2
		c2.9-2.7,6.2-8.4,8.6-14.7C744.7,562,740,561.7,736.2,558.8z M740.6,541.5c3.8-0.5,4.1,3.2,3.9,5.3c0,0.1-4,4.6-7.4,10.4
		c3.2,2.6,7.7,3.7,12.9,2.4c2.9-8.6,3.8-18-1.2-22.1c-6.5-5.8-14.4,0.9-15.8,5.8c-0.8,2.7-0.8,5.6,0,7.7
		C736.6,545,739.4,541.7,740.6,541.5z"/>
</g>
<a onclick="changerect()" pointer-events="all">
	<g>
		<rect x="1753.4" y="1336.6" class="st2" width="327.5" height="171"/>
		<path class="st3" d="M1781.9,1375.3h13.9h2.1v2.1v83.6c0,2.9,1.2,5.4,3.1,7.3s4.4,3,7.3,3h52.8h2.1v2.1v8.9
			c0,4.1-1.7,7.7-4.4,10.5c-2.8,2.8-6.4,4.4-10.5,4.4h-66.7c-4.1,0-7.7-1.7-10.5-4.4c-2.8-2.8-4.4-6.4-4.4-10.5v-92.4
			c0-4.1,1.7-7.7,4.4-10.5C1773.8,1376.9,1777.7,1375.3,1781.9,1375.3L1781.9,1375.3z M1793.5,1379.7h-11.7c-2.9,0-5.4,1.2-7.3,3
			c-1.9,1.9-3.1,4.4-3.1,7.3v92.4c0,2.9,1.2,5.4,3.1,7.3s4.4,3,7.3,3h66.8c2.9,0,5.4-1.2,7.3-3c1.9-1.9,3-4.4,3-7.3v-6.7h-50.7
			c-4.1,0-7.7-1.7-10.5-4.4c-2.8-2.8-4.4-6.4-4.4-10.5v-81.2L1793.5,1379.7L1793.5,1379.7z"/>
		<g>
			<g>
				<g class="st4">
					<path class="st3" d="M1937.1,1396.6l0.9,12.8h-0.9c-1.2-4-2.9-6.5-4.9-8.3c-2.1-1.7-4.6-2.5-7.6-2.5c-2.5,0-4.6,0.8-6.7,1.9
						c-2,1.2-3.5,3.3-4.6,6.1c-1.2,2.8-1.7,6.2-1.7,10.3c0,3.3,0.4,6.4,1.7,8.7c1,2.5,2.8,4.4,4.9,5.7c2.1,1.3,4.6,2,7.4,2
						c2.5,0,4.5-0.4,6.4-1.4c1.9-1,4-3,6.2-6.2l0.9,0.4c-1.9,3.3-4.1,5.7-6.5,7.4c-2.5,1.4-5.6,2.4-8.9,2.4c-6.2,0-11-2.4-14.6-7
						c-2.5-3.3-4-7.4-4-12.1c0-3.7,0.9-7.3,2.5-10.3c1.7-3.2,4.1-5.6,7-7.3c3-1.7,6.2-2.5,9.7-2.5c2.8,0,5.4,0.8,8.2,2
						c0.9,0.3,1.3,0.8,1.7,0.8c0.4,0,1-0.1,1.3-0.4c0.4-0.4,0.9-1.2,1-2h0.9v-0.4L1937.1,1396.6L1937.1,1396.6L1937.1,1396.6z"/>
					<path class="st3" d="M1954.9,1409c4,0,7,1.4,9.3,4.4c2,2.5,3,5.4,3,8.6c0,2.1-0.4,4.5-1.7,7c-1.2,2.4-2.5,4.1-4.5,5.3
						c-1.9,1.2-4.1,1.9-6.4,1.9c-4,0-7-1.4-9.1-4.5c-1.9-2.5-2.9-5.4-2.9-8.6c0-2.4,0.4-4.6,1.7-7c1.2-2.1,2.8-4.1,4.5-5.2
						C1950.9,1409.5,1952.9,1409,1954.9,1409z M1954.1,1410.8c-1,0-2,0.3-2.9,0.9c-1,0.4-1.9,1.7-2.4,3c-0.8,1.4-0.9,3.3-0.9,5.6
						c0,3.7,0.8,7,2.1,9.7c1.4,2.8,3.3,4.1,6,4.1c1.9,0,3.2-0.8,4.4-2.1c1.2-1.4,1.7-4.1,1.7-7.6c0-4.5-1-8.2-2.9-10.6
						C1958,1411.6,1956.1,1410.8,1954.1,1410.8z"/>
					<path class="st3" d="M1969.1,1412.3l7.7-3.2h1v6c1.3-2.1,2.8-3.7,4-4.6c1.3-0.9,2.8-1.3,4.2-1.3c2.5,0,4.6,1,6.4,3
						c2,2.4,3.2,5.6,3.2,9.7c0,4.4-1.2,7.8-3.7,10.7c-2,2.4-4.6,3.5-7.7,3.5c-1.3,0-2.5-0.1-3.5-0.4c-0.8-0.3-1.4-0.9-2.5-1.7v7.7
						c0,1.7,0.1,2.9,0.3,3.3c0.1,0.4,0.4,0.9,1.2,1.2c0.4,0.3,1.4,0.3,2.9,0.3v1h-13.4v-1h0.8c1,0,1.9-0.1,2.8-0.4
						c0.3-0.1,0.8-0.4,0.9-1c0.1-0.4,0.3-1.7,0.3-3.5v-24.1c0-1.7,0-2.8-0.1-3.2c-0.1-0.4-0.3-0.9-0.8-1c-0.3-0.1-0.8-0.3-1.3-0.3
						c-0.4,0-1,0.1-1.7,0.3L1969.1,1412.3z M1978.1,1416.8v9.4c0,2,0,3.3,0.1,4.1c0.3,1,0.9,2,1.9,2.9s2.1,1.2,4,1.2
						s3.3-0.8,4.5-2.1c1.4-1.9,2.1-4.5,2.1-7.8c0-4-0.9-7-2.5-8.9c-1.2-1.3-2.5-2.1-4.2-2.1c-0.9,0-1.7,0.1-2.8,0.8
						C1980.8,1414,1979.6,1414.9,1978.1,1416.8z"/>
					<path class="st3" d="M2008.2,1409v20.4c0,1.7,0.1,2.8,0.3,3.2c0.1,0.4,0.4,0.9,1,1.2c0.4,0.3,1.3,0.3,2.5,0.3v1h-12.3v-1
						c1.2,0,2-0.1,2.5-0.3c0.4-0.1,0.8-0.8,1-1.2c0.1-0.4,0.3-1.7,0.3-3.2v-9.8c0-2.8,0-4.5-0.1-5.4c-0.1-0.8-0.3-1-0.8-1.2
						c-0.3-0.1-0.8-0.3-1.2-0.3c-0.4,0-1.2,0.1-1.9,0.3l-0.3-1l7.6-3H2008.2L2008.2,1409z M2005.9,1395.6c0.9,0,1.4,0.3,2,0.9
						c0.4,0.4,0.9,1.2,0.9,2s-0.3,1.3-0.9,2c-0.4,0.4-1.2,0.9-2,0.9c-0.9,0-1.4-0.3-2-0.9c-0.4-0.4-0.9-1.2-0.9-2
						c0-0.9,0.3-1.4,0.9-2C2004.5,1395.9,2005.1,1395.6,2005.9,1395.6z"/>
					<path class="st3" d="M2029.6,1431.5c-2.5,2-4.2,3.2-4.9,3.5c-1,0.4-2,0.8-3.2,0.8c-1.7,0-3.2-0.8-4.4-1.9
						c-1.2-1.2-1.7-2.8-1.7-4.6c0-1.2,0.3-2.4,0.9-3.2c0.8-1.2,2-2.5,4-3.5c1.9-1,5.2-2.5,9.3-4.1v-1c0-2.5-0.3-4.2-1.2-5.3
						c-0.9-1-2-1.3-3.5-1.3c-1.2,0-2,0.3-2.8,1c-0.8,0.8-1,1.3-1,2.1v1.7c0,0.9-0.1,1.4-0.8,2c-0.4,0.4-1,0.8-1.7,0.8
						c-0.8,0-1.2-0.1-1.7-0.8c-0.4-0.4-0.8-1.2-0.8-2c0-1.4,0.9-3,2.4-4.4c1.7-1.3,4-2,7-2c2.1,0,4.1,0.3,5.6,1.2
						c1,0.4,1.9,1.4,2.4,2.8c0.3,0.9,0.4,2.4,0.4,4.9v8.6c0,2.4,0,4,0.1,4.4c0.1,0.4,0.1,0.9,0.4,1.2c0.1,0.1,0.4,0.3,0.8,0.3
						s0.4,0,0.8-0.1c0.3-0.1,1.2-0.9,2.1-2v1.4c-2,2.8-4.1,4.2-6,4.2c-0.9,0-1.7-0.3-2.1-1C2030,1434.1,2029.6,1432.9,2029.6,1431.5
						z M2029.6,1429.6v-9.7c-2.8,1.2-4.5,1.9-5.4,2.4c-1.4,0.9-2.5,1.7-3,2.5c-0.8,0.9-1,1.9-1,2.9c0,1.3,0.3,2.4,1.2,3.3
						c0.9,1,1.7,1.3,2.8,1.3C2025.5,1432.5,2027.4,1431.6,2029.6,1429.6z"/>
					<path class="st3" d="M2047.8,1409v5.7c2.1-4,4.4-5.7,6.5-5.7c1,0,1.9,0.3,2.5,1c0.8,0.8,1,1.3,1,2.1c0,0.8-0.1,1.3-0.8,1.9
						c-0.4,0.4-1,0.8-1.7,0.8s-1.3-0.3-2.1-1c-0.9-0.8-1.3-1-1.7-1c-0.3,0-0.8,0.1-1.2,0.4c-0.9,0.8-1.7,2-2.5,3.7v12.1
						c0,1.3,0.1,2.5,0.4,3.2c0.1,0.4,0.8,0.9,1.2,1.2c0.8,0.3,1.4,0.4,2.8,0.4v1h-13v-1c1.3,0,2.1-0.1,2.9-0.8
						c0.4-0.3,0.9-0.9,1-1.3c0.1-0.3,0.1-1.2,0.1-2.8v-9.8c0-2.9,0-4.6-0.1-5.3c-0.1-0.4-0.3-1-0.8-1.2s-0.8-0.3-1.2-0.3
						c-0.4,0-1.2,0.1-1.9,0.3l-0.3-1l7.7-3h1L2047.8,1409L2047.8,1409L2047.8,1409L2047.8,1409z"/>
				</g>
			</g>
		</g>
		<path class="st5" d="M1875.6,1473.2h-66.1c-6.2,0-11.5-5.2-11.5-11.5v-93.8c0-6.2,5.2-11.5,11.5-11.5h66.1
			c6.2,0,11.5,5.2,11.5,11.5v93.8C1887.1,1468.2,1881.8,1473.2,1875.6,1473.2z"/>
		<path class="st3" d="M1808.2,1354h66.7c4.1,0,7.7,1.7,10.5,4.4c2.8,2.8,4.4,6.4,4.4,10.5v92.4c0,4.1-1.7,7.7-4.4,10.5
			c-2.7,2.8-6.4,4.4-10.5,4.4h-66.7c-4.1,0-7.7-1.7-10.5-4.4c-2.8-2.8-4.4-6.4-4.4-10.5v-92.4c0-4.1,1.7-7.7,4.4-10.5
			C1800.3,1355.6,1804.1,1354,1808.2,1354L1808.2,1354z M1874.6,1358.4h-66.7c-2.9,0-5.4,1.2-7.3,3c-1.9,1.9-3.1,4.4-3.1,7.3v92.4
			c0,2.9,1.2,5.4,3.1,7.3s4.4,3,7.3,3h66.7c2.9,0,5.4-1.2,7.3-3c1.9-1.9,3-4.4,3-7.3v-92.4c0-2.9-1.2-5.4-3-7.3
			C1880,1359.5,1877.5,1358.4,1874.6,1358.4z"/>
	</g>
</a>
<g>
	<path class="st6" d="M1476,1264.9v1.1h-16.8v-1.1h1.4c1.6,0,2.8-0.5,3.5-1.4c0.5-0.6,0.7-2.1,0.7-4.5v-25.3c0-2-0.1-3.3-0.4-4
		c-0.2-0.5-0.6-0.9-1.2-1.2c-0.9-0.5-1.7-0.7-2.7-0.7h-1.4v-1.1h16.8v1.1h-1.4c-1.6,0-2.7,0.5-3.5,1.4c-0.5,0.6-0.7,2.1-0.7,4.5
		v25.3c0,2,0.1,3.3,0.4,3.9c0.2,0.5,0.6,0.9,1.2,1.3c0.8,0.5,1.7,0.7,2.6,0.7L1476,1264.9L1476,1264.9z"/>
	<path class="st6" d="M1504.8,1246c2.7,0.6,4.7,1.5,6.1,2.8c1.9,1.8,2.8,3.9,2.8,6.5c0,2-0.6,3.8-1.8,5.6c-1.2,1.8-2.9,3.1-5.1,3.9
		c-2.1,0.8-5.4,1.2-9.8,1.2h-18.6v-1.1h1.5c1.7,0,2.8-0.5,3.6-1.5c0.4-0.7,0.6-2.1,0.6-4.3v-25.3c0-2.4-0.3-4-0.8-4.6
		c-0.8-0.9-1.9-1.3-3.4-1.3h-1.5v-1.1h17c3.2,0,5.7,0.2,7.6,0.7c2.9,0.7,5.1,1.9,6.6,3.7s2.3,3.8,2.3,6.1c0,2-0.6,3.7-1.8,5.3
		S1507.1,1245.3,1504.8,1246z M1489.6,1244.4c0.7,0.1,1.5,0.3,2.4,0.3c0.9,0.1,1.9,0.1,3,0.1c2.8,0,4.9-0.3,6.3-0.9s2.5-1.5,3.3-2.8
		s1.1-2.6,1.1-4.1c0-2.3-0.9-4.2-2.8-5.9c-1.9-1.6-4.6-2.4-8.2-2.4c-1.9,0-3.7,0.2-5.2,0.6L1489.6,1244.4L1489.6,1244.4z
		 M1489.6,1263.2c2.2,0.5,4.4,0.8,6.6,0.8c3.5,0,6.2-0.8,8-2.4c1.8-1.6,2.7-3.5,2.7-5.8c0-1.5-0.4-3-1.3-4.4
		c-0.8-1.4-2.2-2.5-4.1-3.3s-4.2-1.2-6.9-1.2c-1.2,0-2.2,0-3.1,0.1c-0.9,0-1.5,0.1-2,0.2L1489.6,1263.2L1489.6,1263.2z"/>
	<path class="st6" d="M1544,1252.9h-15.2l-2.7,6.2c-0.7,1.5-1,2.6-1,3.4c0,0.6,0.3,1.1,0.9,1.6s1.8,0.7,3.7,0.9v1.1h-12.3v-1.1
		c1.6-0.3,2.7-0.7,3.2-1.1c1-0.9,2.1-2.8,3.3-5.6l13.8-32.3h1l13.6,32.6c1.1,2.6,2.1,4.3,3,5.1c0.9,0.8,2.1,1.2,3.8,1.3v1.1h-15.5
		v-1.1c1.6-0.1,2.6-0.3,3.2-0.8c0.5-0.4,0.8-1,0.8-1.6c0-0.8-0.4-2.2-1.1-4L1544,1252.9z M1543.2,1250.8l-6.6-15.8l-6.8,15.8H1543.2
		z"/>
	<path class="st6" d="M1558.9,1226.8h10.7l24,29.4v-22.6c0-2.4-0.3-3.9-0.8-4.5c-0.7-0.8-1.8-1.2-3.4-1.2h-1.4v-1.1h13.6v1.1h-1.4
		c-1.7,0-2.9,0.5-3.6,1.5c-0.4,0.6-0.6,2-0.6,4.2v33h-1l-25.9-31.6v24.1c0,2.4,0.3,3.9,0.8,4.5c0.7,0.8,1.8,1.2,3.4,1.2h1.4v1.1
		h-13.6v-1.1h1.3c1.7,0,2.9-0.5,3.6-1.5c0.4-0.6,0.6-2,0.6-4.2v-27.3c-1.1-1.3-2-2.2-2.6-2.6s-1.5-0.8-2.6-1.2
		c-0.6-0.2-1.4-0.3-2.5-0.3V1226.8z"/>
	<path class="st6" d="M1629.6,1229v15.5h8.6c2.2,0,3.7-0.3,4.5-1c1-0.9,1.6-2.4,1.7-4.7h1.1v13.6h-1.1c-0.3-1.9-0.5-3.1-0.8-3.7
		c-0.3-0.7-0.9-1.2-1.7-1.6c-0.8-0.4-2-0.6-3.7-0.6h-8.6v12.9c0,1.7,0.1,2.8,0.2,3.2c0.1,0.4,0.4,0.7,0.8,0.9
		c0.4,0.2,1.1,0.3,2.2,0.3h6.6c2.2,0,3.8-0.1,4.8-0.4s2-0.9,2.9-1.8c1.2-1.2,2.4-3,3.7-5.4h1.1l-3.4,9.8h-30.2v-1.1h1.4
		c0.9,0,1.8-0.2,2.7-0.6c0.6-0.3,1-0.8,1.2-1.4s0.3-1.9,0.3-3.8v-25.5c0-2.5-0.3-4-0.8-4.6c-0.7-0.8-1.9-1.1-3.5-1.1h-1.4v-1.1h30.2
		l0.4,8.6h-1.1c-0.4-2.1-0.9-3.5-1.3-4.3c-0.4-0.8-1.2-1.4-2.2-1.8c-0.8-0.3-2.2-0.4-4.1-0.4L1629.6,1229L1629.6,1229z"/>
	<path class="st6" d="M1680.6,1225.9v13.6h-1.1c-0.3-2.6-1-4.7-1.8-6.2c-0.8-1.5-2.2-2.8-3.8-3.7c-1.7-0.9-3.4-1.4-5.2-1.4
		c-2,0-3.6,0.6-5,1.8c-1.3,1.2-2,2.6-2,4.2c0,1.2,0.4,2.3,1.3,3.3c1.2,1.5,4,3.4,8.5,5.8c3.7,2,6.2,3.5,7.5,4.5
		c1.3,1.1,2.4,2.3,3.1,3.7c0.7,1.4,1.1,2.9,1.1,4.5c0,3-1.2,5.5-3.4,7.7c-2.3,2.2-5.3,3.2-8.9,3.2c-1.1,0-2.2-0.1-3.2-0.3
		c-0.6-0.1-1.8-0.4-3.7-1.1c-1.9-0.6-3.1-0.9-3.6-0.9s-0.9,0.1-1.1,0.4c-0.3,0.3-0.5,0.9-0.6,1.8h-1v-13.4h1c0.5,2.8,1.2,4.9,2,6.3
		s2.1,2.6,3.9,3.5c1.7,0.9,3.7,1.4,5.7,1.4c2.4,0,4.3-0.6,5.7-1.9s2.1-2.8,2.1-4.5c0-1-0.3-1.9-0.8-2.9s-1.4-1.9-2.5-2.7
		c-0.7-0.6-2.8-1.8-6.1-3.7c-3.4-1.9-5.7-3.4-7.2-4.5c-1.4-1.1-2.5-2.4-3.2-3.7c-0.7-1.4-1.1-2.8-1.1-4.4c0-2.8,1.1-5.3,3.2-7.3
		c2.2-2,4.9-3.1,8.3-3.1c2.1,0,4.3,0.5,6.6,1.5c1.1,0.5,1.8,0.7,2.3,0.7s0.9-0.1,1.2-0.4s0.6-0.9,0.8-1.8H1680.6z"/>
	<path class="st6" d="M1693.3,1230.6l9.6-4.6h0.9v33.1c0,2.2,0.1,3.5,0.3,4.1c0.2,0.5,0.6,1,1.1,1.3c0.6,0.3,1.7,0.5,3.5,0.5v1.1
		H1694v-1.1c1.8,0,3-0.2,3.6-0.5c0.5-0.3,0.9-0.7,1.1-1.1c0.2-0.5,0.3-1.9,0.3-4.2V1238c0-2.8-0.1-4.7-0.3-5.5
		c-0.1-0.6-0.4-1-0.8-1.3c-0.4-0.3-0.8-0.4-1.3-0.4c-0.7,0-1.7,0.3-3,0.9L1693.3,1230.6z"/>
	<path class="st6" d="M1722.9,1230.6l9.6-4.6h0.9v33.1c0,2.2,0.1,3.5,0.3,4.1c0.2,0.5,0.6,1,1.1,1.3c0.6,0.3,1.7,0.5,3.5,0.5v1.1
		h-14.7v-1.1c1.8,0,3-0.2,3.6-0.5c0.5-0.3,0.9-0.7,1.1-1.1c0.2-0.5,0.3-1.9,0.3-4.2V1238c0-2.8-0.1-4.7-0.3-5.5
		c-0.1-0.6-0.4-1-0.8-1.3s-0.8-0.4-1.3-0.4c-0.7,0-1.7,0.3-3,0.9L1722.9,1230.6z"/>
	<path class="st6" d="M1767.3,1230.6l9.6-4.6h0.9v33.1c0,2.2,0.1,3.5,0.3,4.1c0.2,0.5,0.6,1,1.1,1.3c0.6,0.3,1.7,0.5,3.5,0.5v1.1
		H1768v-1.1c1.8,0,3-0.2,3.6-0.5c0.5-0.3,0.9-0.7,1.1-1.1c0.2-0.5,0.3-1.9,0.3-4.2V1238c0-2.8-0.1-4.7-0.3-5.5
		c-0.1-0.6-0.4-1-0.8-1.3c-0.4-0.3-0.8-0.4-1.3-0.4c-0.7,0-1.7,0.3-3,0.9L1767.3,1230.6z"/>
	<path class="st6" d="M1796.9,1230.6l9.6-4.6h0.9v33.1c0,2.2,0.1,3.5,0.3,4.1c0.2,0.5,0.6,1,1.1,1.3c0.6,0.3,1.7,0.5,3.5,0.5v1.1
		h-14.7v-1.1c1.8,0,3-0.2,3.6-0.5c0.5-0.3,0.9-0.7,1.1-1.1c0.2-0.5,0.3-1.9,0.3-4.2V1238c0-2.8-0.1-4.7-0.3-5.5
		c-0.1-0.6-0.4-1-0.8-1.3s-0.8-0.4-1.3-0.4c-0.7,0-1.7,0.3-3,0.9L1796.9,1230.6z"/>
	<path class="st6" d="M1826.5,1230.6l9.6-4.6h0.9v33.1c0,2.2,0.1,3.5,0.3,4.1c0.2,0.5,0.6,1,1.1,1.3c0.6,0.3,1.7,0.5,3.5,0.5v1.1
		h-14.7v-1.1c1.8,0,3-0.2,3.6-0.5c0.5-0.3,0.9-0.7,1.1-1.1c0.2-0.5,0.3-1.9,0.3-4.2V1238c0-2.8-0.1-4.7-0.3-5.5
		c-0.1-0.6-0.4-1-0.8-1.3s-0.8-0.4-1.3-0.4c-0.7,0-1.7,0.3-3,0.9L1826.5,1230.6z"/>
	<path class="st6" d="M1856.1,1230.6l9.6-4.6h0.9v33.1c0,2.2,0.1,3.5,0.3,4.1c0.2,0.5,0.6,1,1.1,1.3c0.6,0.3,1.7,0.5,3.5,0.5v1.1
		h-14.7v-1.1c1.8,0,3-0.2,3.6-0.5c0.5-0.3,0.9-0.7,1.1-1.1c0.2-0.5,0.3-1.9,0.3-4.2V1238c0-2.8-0.1-4.7-0.3-5.5
		c-0.1-0.6-0.4-1-0.8-1.3c-0.4-0.3-0.8-0.4-1.3-0.4c-0.7,0-1.7,0.3-3,0.9L1856.1,1230.6z"/>
	<path class="st6" d="M1900.4,1230.6l9.6-4.6h0.9v33.1c0,2.2,0.1,3.5,0.3,4.1c0.2,0.5,0.6,1,1.1,1.3c0.6,0.3,1.7,0.5,3.5,0.5v1.1
		h-14.7v-1.1c1.8,0,3-0.2,3.6-0.5c0.5-0.3,0.9-0.7,1.1-1.1c0.2-0.5,0.3-1.9,0.3-4.2V1238c0-2.8-0.1-4.7-0.3-5.5
		c-0.1-0.6-0.4-1-0.8-1.3c-0.4-0.3-0.8-0.4-1.3-0.4c-0.7,0-1.7,0.3-3,0.9L1900.4,1230.6z"/>
	<path class="st6" d="M1930,1230.6l9.6-4.6h0.9v33.1c0,2.2,0.1,3.5,0.3,4.1c0.2,0.5,0.6,1,1.1,1.3c0.6,0.3,1.7,0.5,3.5,0.5v1.1
		h-14.7v-1.1c1.8,0,3-0.2,3.6-0.5c0.5-0.3,0.9-0.7,1.1-1.1c0.2-0.5,0.3-1.9,0.3-4.2V1238c0-2.8-0.1-4.7-0.3-5.5
		c-0.1-0.6-0.4-1-0.8-1.3s-0.8-0.4-1.3-0.4c-0.7,0-1.7,0.3-3,0.9L1930,1230.6z"/>
	<path class="st6" d="M1959.6,1230.6l9.6-4.6h0.9v33.1c0,2.2,0.1,3.5,0.3,4.1c0.2,0.5,0.6,1,1.1,1.3c0.6,0.3,1.7,0.5,3.5,0.5v1.1
		h-14.6v-1.1c1.8,0,3-0.2,3.6-0.5c0.5-0.3,0.9-0.7,1.1-1.1c0.2-0.5,0.3-1.9,0.3-4.2V1238c0-2.8-0.1-4.7-0.3-5.5
		c-0.1-0.6-0.4-1-0.8-1.3c-0.4-0.3-0.8-0.4-1.3-0.4c-0.7,0-1.7,0.3-3,0.9L1959.6,1230.6z"/>
	<path class="st6" d="M1989.2,1230.6l9.6-4.6h0.9v33.1c0,2.2,0.1,3.5,0.3,4.1c0.2,0.5,0.6,1,1.1,1.3c0.6,0.3,1.7,0.5,3.5,0.5v1.1
		h-14.7v-1.1c1.8,0,3-0.2,3.6-0.5c0.5-0.3,0.9-0.7,1.1-1.1c0.2-0.5,0.3-1.9,0.3-4.2V1238c0-2.8-0.1-4.7-0.3-5.5
		c-0.1-0.6-0.4-1-0.8-1.3c-0.4-0.3-0.8-0.4-1.3-0.4c-0.7,0-1.7,0.3-3,0.9L1989.2,1230.6z"/>
	<path class="st6" d="M2033.6,1230.6l9.6-4.6h0.9v33.1c0,2.2,0.1,3.5,0.3,4.1c0.2,0.5,0.6,1,1.1,1.3c0.6,0.3,1.7,0.5,3.5,0.5v1.1
		h-14.7v-1.1c1.8,0,3-0.2,3.6-0.5c0.5-0.3,0.9-0.7,1.1-1.1c0.2-0.5,0.3-1.9,0.3-4.2V1238c0-2.8-0.1-4.7-0.3-5.5
		c-0.1-0.6-0.4-1-0.8-1.3c-0.4-0.3-0.8-0.4-1.3-0.4c-0.7,0-1.7,0.3-3,0.9L2033.6,1230.6z"/>
	<path class="st6" d="M2063.2,1230.6l9.6-4.6h0.9v33.1c0,2.2,0.1,3.5,0.3,4.1c0.2,0.5,0.6,1,1.1,1.3c0.6,0.3,1.7,0.5,3.5,0.5v1.1
		h-14.7v-1.1c1.8,0,3-0.2,3.6-0.5c0.5-0.3,0.9-0.7,1.1-1.1c0.2-0.5,0.3-1.9,0.3-4.2V1238c0-2.8-0.1-4.7-0.3-5.5
		c-0.1-0.6-0.4-1-0.8-1.3c-0.4-0.3-0.8-0.4-1.3-0.4c-0.7,0-1.7,0.3-3,0.9L2063.2,1230.6z"/>
	<path class="st6" d="M2092.8,1230.6l9.6-4.6h0.9v33.1c0,2.2,0.1,3.5,0.3,4.1c0.2,0.5,0.6,1,1.1,1.3c0.6,0.3,1.7,0.5,3.5,0.5v1.1
		h-14.7v-1.1c1.8,0,3-0.2,3.6-0.5c0.5-0.3,0.9-0.7,1.1-1.1c0.2-0.5,0.3-1.9,0.3-4.2V1238c0-2.8-0.1-4.7-0.3-5.5
		c-0.1-0.6-0.4-1-0.8-1.3c-0.4-0.3-0.8-0.4-1.3-0.4c-0.7,0-1.7,0.3-3,0.9L2092.8,1230.6z"/>
	<path class="st6" d="M2122.4,1230.6l9.6-4.6h0.9v33.1c0,2.2,0.1,3.5,0.3,4.1c0.2,0.5,0.6,1,1.1,1.3c0.6,0.3,1.7,0.5,3.5,0.5v1.1
		h-14.7v-1.1c1.8,0,3-0.2,3.6-0.5c0.5-0.3,0.9-0.7,1.1-1.1c0.2-0.5,0.3-1.9,0.3-4.2V1238c0-2.8-0.1-4.7-0.3-5.5
		c-0.1-0.6-0.4-1-0.8-1.3s-0.8-0.4-1.3-0.4c-0.7,0-1.7,0.3-3,0.9L2122.4,1230.6z"/>
	<path class="st6" d="M2166.8,1230.6l9.6-4.6h0.9v33.1c0,2.2,0.1,3.5,0.3,4.1c0.2,0.5,0.6,1,1.1,1.3c0.6,0.3,1.7,0.5,3.5,0.5v1.1
		h-14.7v-1.1c1.8,0,3-0.2,3.6-0.5c0.5-0.3,0.9-0.7,1.1-1.1c0.2-0.5,0.3-1.9,0.3-4.2V1238c0-2.8-0.1-4.7-0.3-5.5
		c-0.1-0.6-0.4-1-0.8-1.3c-0.4-0.3-0.8-0.4-1.3-0.4c-0.7,0-1.7,0.3-3,0.9L2166.8,1230.6z"/>
	<path class="st6" d="M2196.4,1230.6l9.6-4.6h0.9v33.1c0,2.2,0.1,3.5,0.3,4.1c0.2,0.5,0.6,1,1.1,1.3c0.6,0.3,1.7,0.5,3.5,0.5v1.1
		h-14.7v-1.1c1.8,0,3-0.2,3.6-0.5c0.5-0.3,0.9-0.7,1.1-1.1c0.2-0.5,0.3-1.9,0.3-4.2V1238c0-2.8-0.1-4.7-0.3-5.5
		c-0.1-0.6-0.4-1-0.8-1.3s-0.8-0.4-1.3-0.4c-0.7,0-1.7,0.3-3,0.9L2196.4,1230.6z"/>
	<path class="st6" d="M2226,1230.6l9.6-4.6h0.9v33.1c0,2.2,0.1,3.5,0.3,4.1c0.2,0.5,0.6,1,1.1,1.3c0.6,0.3,1.7,0.5,3.5,0.5v1.1
		h-14.7v-1.1c1.8,0,3-0.2,3.6-0.5c0.5-0.3,0.9-0.7,1.1-1.1c0.2-0.5,0.3-1.9,0.3-4.2V1238c0-2.8-0.1-4.7-0.3-5.5
		c-0.1-0.6-0.4-1-0.8-1.3c-0.4-0.3-0.8-0.4-1.3-0.4c-0.7,0-1.7,0.3-3,0.9L2226,1230.6z"/>
	<path class="st6" d="M2255.6,1230.6l9.6-4.6h0.9v33.1c0,2.2,0.1,3.5,0.3,4.1c0.2,0.5,0.6,1,1.1,1.3c0.6,0.3,1.7,0.5,3.5,0.5v1.1
		h-14.7v-1.1c1.8,0,3-0.2,3.6-0.5c0.5-0.3,0.9-0.7,1.1-1.1c0.2-0.5,0.3-1.9,0.3-4.2V1238c0-2.8-0.1-4.7-0.3-5.5
		c-0.1-0.6-0.4-1-0.8-1.3c-0.4-0.3-0.8-0.4-1.3-0.4c-0.7,0-1.7,0.3-3,0.9L2255.6,1230.6z"/>
	<path class="st6" d="M2300,1230.6l9.6-4.6h0.9v33.1c0,2.2,0.1,3.5,0.3,4.1c0.2,0.5,0.6,1,1.1,1.3c0.6,0.3,1.7,0.5,3.5,0.5v1.1
		h-14.7v-1.1c1.8,0,3-0.2,3.6-0.5c0.5-0.3,0.9-0.7,1.1-1.1c0.2-0.5,0.3-1.9,0.3-4.2V1238c0-2.8-0.1-4.7-0.3-5.5
		c-0.1-0.6-0.4-1-0.8-1.3c-0.4-0.3-0.8-0.4-1.3-0.4c-0.7,0-1.7,0.3-3,0.9L2300,1230.6z"/>
	<path class="st6" d="M2329.6,1230.6l9.6-4.6h0.9v33.1c0,2.2,0.1,3.5,0.3,4.1c0.2,0.5,0.6,1,1.1,1.3c0.6,0.3,1.7,0.5,3.5,0.5v1.1
		h-14.7v-1.1c1.8,0,3-0.2,3.6-0.5c0.5-0.3,0.9-0.7,1.1-1.1c0.2-0.5,0.3-1.9,0.3-4.2V1238c0-2.8-0.1-4.7-0.3-5.5
		c-0.1-0.6-0.4-1-0.8-1.3c-0.4-0.3-0.8-0.4-1.3-0.4c-0.7,0-1.7,0.3-3,0.9L2329.6,1230.6z"/>
	<path class="st6" d="M2359.2,1230.6l9.6-4.6h0.9v33.1c0,2.2,0.1,3.5,0.3,4.1c0.2,0.5,0.6,1,1.1,1.3c0.6,0.3,1.7,0.5,3.5,0.5v1.1
		h-14.7v-1.1c1.8,0,3-0.2,3.6-0.5c0.5-0.3,0.9-0.7,1.1-1.1c0.2-0.5,0.3-1.9,0.3-4.2V1238c0-2.8-0.1-4.7-0.3-5.5
		c-0.1-0.6-0.4-1-0.8-1.3c-0.4-0.3-0.8-0.4-1.3-0.4c-0.7,0-1.7,0.3-3,0.9L2359.2,1230.6z"/>
	<path class="st6" d="M2388.8,1230.6l9.6-4.6h0.9v33.1c0,2.2,0.1,3.5,0.3,4.1c0.2,0.5,0.6,1,1.1,1.3c0.6,0.3,1.7,0.5,3.5,0.5v1.1
		h-14.7v-1.1c1.8,0,3-0.2,3.6-0.5c0.5-0.3,0.9-0.7,1.1-1.1c0.2-0.5,0.3-1.9,0.3-4.2V1238c0-2.8-0.1-4.7-0.3-5.5
		c-0.1-0.6-0.4-1-0.8-1.3c-0.4-0.3-0.8-0.4-1.3-0.4c-0.7,0-1.7,0.3-3,0.9L2388.8,1230.6z"/>
</g>
<g>
	<path class="st7" d="M399.1,844.1H366l0.5-1.2c1.8,0,2.9-0.2,3.5-0.4c0.9-0.4,1.6-0.9,2-1.6c0.7-1,1.4-2.8,2.2-5.5l7.9-27.2
		c0.7-2.2,1-3.9,1-5c0-0.8-0.3-1.5-0.9-1.9c-0.6-0.5-1.7-0.7-3.4-0.7c-0.4,0-0.6,0-0.9,0l0.4-1.2h18.2l-0.2,1.2
		c-2,0-3.5,0.2-4.4,0.6c-0.9,0.4-1.6,1-2.1,1.9c-0.4,0.6-1,2.4-1.9,5.5l-7.7,26.7c-0.6,2-0.9,3.4-0.9,4.2c0,0.5,0.3,1.1,0.9,1.5
		c0.4,0.3,1.2,0.5,2.5,0.5h4.3c3.1,0,5.6-0.4,7.5-1.2c1.4-0.6,2.6-1.5,3.8-2.7c0.6-0.7,1.7-2.3,3.2-4.9l0.9-1.5h1.2L399.1,844.1z"/>
	<path class="st7" d="M436.9,824.5c0,3.3-0.9,6.6-2.6,9.8c-1.7,3.2-4.2,5.8-7.3,7.7c-3.1,1.9-6.1,2.8-9.1,2.8c-3,0-5.5-1-7.4-2.9
		c-1.9-1.9-2.9-4.4-2.9-7.4c0-3.2,0.9-6.5,2.8-9.7c1.9-3.2,4.3-5.8,7.5-7.7c3.1-1.9,6.1-2.8,9-2.8c2.9,0,5.3,1,7.2,2.9
		C436,819,436.9,821.5,436.9,824.5z M431.5,822.3c0-2-0.5-3.6-1.5-4.7s-2.3-1.6-3.9-1.6c-3.2,0-6.2,2.3-8.9,6.9
		c-2.7,4.6-4.1,9.2-4.1,13.8c0,2.1,0.5,3.7,1.6,4.8s2.4,1.7,4,1.7c3.1,0,6-2.3,8.7-6.9C430.1,831.7,431.5,827,431.5,822.3z"/>
	<path class="st7" d="M470.9,814.2l-4.3,14.9c1.9-3.5,3.5-6.1,4.9-7.9c2.1-2.7,4.1-4.7,6.1-5.9c1.2-0.7,2.4-1.1,3.6-1.1
		c1.1,0,2,0.4,2.7,1.1c0.7,0.7,1.1,1.6,1.1,2.7s-0.3,2.5-0.8,4.2l-2.3,8.4c3.6-6.7,7-11.4,10.2-14.1c1.8-1.5,3.5-2.3,5.2-2.3
		c1,0,1.8,0.3,2.5,1c0.7,0.7,1,1.8,1,3.2c0,1.3-0.2,2.6-0.6,4.1l-3.6,12.8c-0.8,2.8-1.2,4.4-1.2,4.7c0,0.3,0.1,0.6,0.3,0.8
		c0.1,0.2,0.3,0.2,0.5,0.2s0.6-0.2,1.1-0.6c1.3-1,2.4-2.3,3.5-3.8l1.1,0.7c-0.5,0.9-1.5,2.1-2.9,3.6s-2.6,2.6-3.6,3.1
		s-1.9,0.8-2.7,0.8c-0.8,0-1.4-0.3-1.9-0.8c-0.5-0.5-0.8-1.2-0.8-1.9c0-1.1,0.4-3.2,1.3-6.4l3-10.6c0.7-2.5,1-3.8,1.1-4.1
		c0.1-0.4,0.1-0.8,0.1-1.2c0-0.5-0.1-1-0.4-1.3c-0.3-0.3-0.6-0.5-0.9-0.5c-0.9,0-1.9,0.5-2.9,1.4c-3.1,2.8-5.9,6.7-8.5,11.7
		c-1.7,3.3-3.4,7.6-4.9,12.8h-5l5.7-19.9c0.6-2.2,0.9-3.6,0.9-4.3c0-0.6-0.1-1-0.3-1.3c-0.2-0.3-0.5-0.4-0.9-0.4
		c-0.7,0-1.5,0.3-2.3,0.8c-1.3,0.9-3,2.7-5.1,5.5c-2.1,2.8-3.7,5.5-4.8,8.1c-0.5,1.2-1.9,5.1-3.9,11.6h-4.9l6.1-21.4l0.8-2.7
		c0.2-0.4,0.2-0.8,0.2-0.9c0-0.5-0.2-0.9-0.7-1.3c-0.4-0.4-1-0.6-1.7-0.6c-0.3,0-1.1,0.1-2.4,0.4l-0.3-1.2L470.9,814.2z"/>
	<path class="st7" d="M536.8,814.2l-6.4,22.4l-0.7,3c-0.1,0.3-0.1,0.5-0.1,0.7c0,0.4,0.1,0.7,0.3,0.9c0.2,0.2,0.4,0.3,0.7,0.3
		c0.3,0,0.6-0.2,1.1-0.5c0.8-0.6,2-1.9,3.4-3.9l1.1,0.8c-1.5,2.3-3.1,4-4.7,5.2c-1.6,1.2-3.1,1.8-4.5,1.8c-0.9,0-1.6-0.2-2.1-0.7
		s-0.7-1.1-0.7-2c0-1.1,0.2-2.5,0.7-4.3l0.7-2.5c-2.9,3.8-5.5,6.4-7.9,7.9c-1.7,1.1-3.5,1.6-5.1,1.6c-1.6,0-3-0.7-4.2-2
		c-1.2-1.3-1.7-3.1-1.7-5.5c0-3.5,1-7.2,3.1-11.1s4.8-7,8-9.3c2.5-1.9,4.9-2.8,7.1-2.8c1.4,0,2.5,0.4,3.4,1.1c0.9,0.7,1.6,1.9,2,3.5
		l1.2-3.8L536.8,814.2z M525,815.9c-1.4,0-2.9,0.7-4.5,2c-2.3,1.9-4.3,4.6-6,8.3c-1.7,3.7-2.6,7-2.6,10c0,1.5,0.4,2.6,1.1,3.5
		c0.8,0.9,1.6,1.3,2.6,1.3c2.4,0,5-1.8,7.8-5.3c3.8-4.7,5.6-9.5,5.6-14.5c0-1.9-0.4-3.2-1.1-4.1C527.3,816.4,526.3,815.9,525,815.9z
		 M535,797.8l-9.7,11.3h-1.1l3.4-11.3H535z"/>
	<path class="st7" d="M563.3,814.2l-2,10.2h-1.2c-0.1-2.9-0.7-5.1-1.9-6.4c-1.1-1.3-2.6-2-4.3-2c-1.3,0-2.4,0.4-3.2,1.1
		c-0.8,0.7-1.2,1.6-1.2,2.7c0,0.7,0.2,1.4,0.5,2.1s1,1.6,2.1,2.8c2.8,3.1,4.7,5.5,5.5,7.1c0.8,1.6,1.2,3.1,1.2,4.5
		c0,2.3-0.9,4.3-2.8,6.1c-1.9,1.8-4.3,2.6-7.2,2.6c-1.6,0-3.4-0.4-5.5-1.1c-0.7-0.3-1.3-0.4-1.7-0.4c-1,0-1.7,0.5-2.3,1.5h-1.2
		l2-10.7h1.2c0.1,3.4,0.8,5.7,2,7.1c1.3,1.4,3,2.1,5.2,2.1c1.7,0,3-0.5,4-1.4s1.5-2.1,1.5-3.4c0-0.9-0.2-1.7-0.5-2.5
		c-0.6-1.3-1.9-3.1-3.9-5.5c-2-2.3-3.2-4.1-3.8-5.2c-0.6-1.2-0.8-2.3-0.8-3.5c0-2.1,0.8-3.9,2.3-5.4c1.6-1.5,3.5-2.2,6-2.2
		c0.7,0,1.4,0.1,1.9,0.2c0.3,0.1,1,0.3,2.1,0.8c1.1,0.4,1.9,0.6,2.3,0.6c0.9,0,1.7-0.5,2.4-1.6H563.3z"/>
	<path class="st7" d="M597.5,814.2l-6.5,23.1c-0.4,1.6-0.7,2.5-0.7,2.8c0,0.4,0.1,0.6,0.3,0.9c0.2,0.2,0.4,0.3,0.7,0.3
		c0.4,0,0.8-0.2,1.2-0.5c1.3-1,2.5-2.4,3.8-4.2l1.1,0.8c-1.5,2.3-3.3,4.2-5.3,5.8c-1.5,1.1-2.9,1.7-4.3,1.7c-0.9,0-1.6-0.3-2.2-0.8
		s-0.9-1.2-0.9-2c0-0.8,0.3-2.2,0.8-4.1l4.3-14.8c0.7-2.4,1-3.9,1-4.5c0-0.5-0.2-0.9-0.5-1.2c-0.3-0.3-0.8-0.5-1.4-0.5
		c-0.5,0-1.5,0.1-3,0.4v-1.3L597.5,814.2z M597.1,801.2c0.9,0,1.7,0.3,2.3,1c0.6,0.6,0.9,1.4,0.9,2.3s-0.3,1.7-1,2.3
		c-0.6,0.7-1.4,1-2.3,1c-0.9,0-1.7-0.3-2.3-1c-0.7-0.7-1-1.4-1-2.3s0.3-1.7,1-2.3C595.4,801.5,596.1,801.2,597.1,801.2z"/>
	<path class="st7" d="M615.3,814.2l-4.3,14.9c1.9-3.5,3.5-6.1,4.9-7.9c2.1-2.7,4.1-4.7,6.1-5.9c1.2-0.7,2.4-1.1,3.6-1.1
		c1.1,0,2,0.4,2.7,1.1c0.7,0.7,1.1,1.6,1.1,2.7s-0.3,2.5-0.8,4.2l-2.3,8.4c3.6-6.7,7-11.4,10.2-14.1c1.8-1.5,3.5-2.3,5.2-2.3
		c1,0,1.8,0.3,2.5,1c0.7,0.7,1,1.8,1,3.2c0,1.3-0.2,2.6-0.6,4.1l-3.6,12.8c-0.8,2.8-1.2,4.4-1.2,4.7c0,0.3,0.1,0.6,0.3,0.8
		c0.1,0.2,0.3,0.2,0.5,0.2s0.6-0.2,1.1-0.6c1.3-1,2.4-2.3,3.5-3.8l1.1,0.7c-0.5,0.9-1.5,2.1-2.9,3.6c-1.4,1.5-2.6,2.6-3.6,3.1
		s-1.9,0.8-2.7,0.8c-0.8,0-1.4-0.3-1.9-0.8s-0.8-1.2-0.8-1.9c0-1.1,0.5-3.2,1.4-6.4l3-10.6c0.7-2.5,1-3.8,1.1-4.1
		c0.1-0.4,0.1-0.8,0.1-1.2c0-0.5-0.1-1-0.4-1.3c-0.3-0.3-0.6-0.5-0.9-0.5c-0.9,0-1.9,0.5-2.9,1.4c-3.1,2.8-5.9,6.7-8.5,11.7
		c-1.7,3.3-3.4,7.6-4.9,12.8h-5l5.7-19.9c0.6-2.2,0.9-3.6,0.9-4.3c0-0.6-0.1-1-0.3-1.3c-0.2-0.3-0.5-0.4-0.9-0.4
		c-0.7,0-1.5,0.3-2.3,0.8c-1.3,0.9-3,2.7-5.1,5.5c-2.1,2.8-3.7,5.5-4.8,8.1c-0.5,1.2-1.9,5.1-3.9,11.6h-4.9l6.1-21.4l0.8-2.7
		c0.2-0.4,0.2-0.8,0.2-0.9c0-0.5-0.2-0.9-0.7-1.3c-0.4-0.4-1-0.6-1.7-0.6c-0.3,0-1.1,0.1-2.4,0.4l-0.3-1.2L615.3,814.2z"/>
	<path class="st7" d="M664.4,814.2l-2.3,7.6c2.4-2.8,4.5-4.8,6.4-5.9c1.9-1.1,3.8-1.7,5.7-1.7c2,0,3.6,0.8,5,2.3
		c1.4,1.6,2.1,3.6,2.1,6.1c0,4.8-2,9.7-5.9,14.7c-3.9,5-8.5,7.5-13.8,7.5c-1.1,0-2.1-0.1-2.9-0.3c-0.8-0.2-1.8-0.7-2.8-1.3l-2.4,8.5
		c-0.5,1.7-0.7,2.7-0.7,3.2s0.1,0.9,0.4,1.2c0.3,0.3,0.7,0.6,1.2,0.8c0.6,0.2,1.7,0.3,3.4,0.3l-0.3,1.2H642l0.3-1.2
		c2-0.1,3.4-0.4,4.1-1s1.5-2.3,2.3-5.1l8.4-28.9c0.5-1.8,0.7-3,0.7-3.4c0-0.6-0.2-1.1-0.5-1.4c-0.3-0.3-0.8-0.5-1.6-0.5
		c-0.7,0-1.5,0.1-2.7,0.2v-1.3L664.4,814.2z M656.7,840.6c1.4,1.6,3.2,2.5,5.5,2.5c1.1,0,2.3-0.3,3.5-1c1.2-0.6,2.3-1.6,3.5-2.8
		c1.1-1.2,2.1-2.7,3-4.3c0.9-1.6,1.7-3.6,2.4-5.8c0.7-2.2,1.1-4.4,1.1-6.6c0-1.7-0.4-3.1-1.2-4c-0.8-0.9-1.8-1.4-2.8-1.4
		c-2.4,0-4.7,1.4-7,4.1c-2.3,2.7-4,5.9-5.1,9.6L656.7,840.6z"/>
	<path class="st7" d="M714.4,824.5c0,3.3-0.9,6.6-2.6,9.8c-1.7,3.2-4.2,5.8-7.3,7.7c-3.1,1.9-6.1,2.8-9.1,2.8c-3,0-5.5-1-7.4-2.9
		c-1.9-1.9-2.9-4.4-2.9-7.4c0-3.2,0.9-6.5,2.8-9.7c1.9-3.2,4.3-5.8,7.5-7.7c3.1-1.9,6.1-2.8,9-2.8c2.9,0,5.3,1,7.2,2.9
		C713.5,819,714.4,821.5,714.4,824.5z M709,822.3c0-2-0.5-3.6-1.5-4.7c-1-1.1-2.3-1.6-3.9-1.6c-3.2,0-6.2,2.3-8.9,6.9
		c-2.7,4.6-4.1,9.2-4.1,13.8c0,2.1,0.5,3.7,1.6,4.8s2.4,1.7,4,1.7c3.1,0,6-2.3,8.7-6.9C707.6,831.7,709,827,709,822.3z"/>
	<path class="st7" d="M720.5,816.1l11.4-1.9l-4.7,16c3.8-6.6,7.3-11.2,10.5-13.8c1.8-1.5,3.2-2.3,4.3-2.3c0.7,0,1.3,0.2,1.7,0.7
		s0.6,1.1,0.6,1.9c0,1.4-0.4,2.8-1.1,4.1c-0.5,1-1.3,1.5-2.3,1.5c-0.5,0-0.9-0.2-1.3-0.5c-0.4-0.3-0.6-0.8-0.7-1.5
		c0-0.4-0.1-0.7-0.3-0.8c-0.2-0.2-0.4-0.2-0.6-0.2c-0.4,0-0.7,0.1-1.1,0.2c-0.6,0.3-1.4,1.2-2.6,2.6c-1.8,2.2-3.8,4.9-5.9,8.4
		c-0.9,1.4-1.7,3.1-2.4,4.9c-0.9,2.5-1.4,4-1.6,4.5l-1.1,4.1h-5l6.1-20.5c0.7-2.4,1-4.1,1-5.1c0-0.4-0.2-0.7-0.5-1
		c-0.4-0.4-1-0.5-1.7-0.5c-0.5,0-1.3,0.1-2.5,0.3L720.5,816.1z"/>
	<path class="st7" d="M760.8,806.1l-2.6,9h5.2l-0.6,2.1h-5.1l-5.7,19.4c-0.6,2.1-0.9,3.5-0.9,4.1c0,0.4,0.1,0.7,0.2,0.9
		c0.2,0.2,0.4,0.3,0.6,0.3c0.5,0,1.3-0.4,2.2-1.2c0.5-0.4,1.7-1.8,3.6-4.1l1.1,0.9c-2,2.9-3.9,5-5.7,6.2c-1.2,0.8-2.5,1.2-3.7,1.2
		c-1,0-1.7-0.3-2.4-0.9c-0.6-0.6-0.9-1.4-0.9-2.3c0-1.2,0.3-3,1-5.4l5.5-19.1h-5l0.3-1.3c2.4-0.7,4.4-1.6,6-2.9
		c1.6-1.3,3.4-3.6,5.4-6.8H760.8z"/>
	<path class="st7" d="M793.7,814.2l-6.4,22.4l-0.7,3c-0.1,0.3-0.1,0.5-0.1,0.7c0,0.4,0.1,0.7,0.3,0.9c0.2,0.2,0.4,0.3,0.7,0.3
		c0.3,0,0.6-0.2,1.1-0.5c0.8-0.6,2-1.9,3.4-3.9l1.1,0.8c-1.5,2.3-3.1,4-4.7,5.2c-1.6,1.2-3.1,1.8-4.5,1.8c-0.9,0-1.6-0.2-2.1-0.7
		s-0.7-1.1-0.7-2c0-1.1,0.2-2.5,0.7-4.3l0.7-2.5c-2.9,3.8-5.5,6.4-7.9,7.9c-1.7,1.1-3.5,1.6-5.1,1.6c-1.6,0-3-0.7-4.2-2
		c-1.2-1.3-1.7-3.1-1.7-5.5c0-3.5,1-7.2,3.1-11.1s4.8-7,8-9.3c2.5-1.9,4.9-2.8,7.1-2.8c1.4,0,2.5,0.4,3.4,1.1c0.9,0.7,1.6,1.9,2,3.5
		l1.2-3.8L793.7,814.2z M781.9,815.9c-1.4,0-2.9,0.7-4.5,2c-2.3,1.9-4.3,4.6-6,8.3c-1.7,3.7-2.6,7-2.6,10c0,1.5,0.4,2.6,1.1,3.5
		c0.8,0.9,1.6,1.3,2.6,1.3c2.4,0,5-1.8,7.8-5.3c3.8-4.7,5.6-9.5,5.6-14.5c0-1.9-0.4-3.2-1.1-4.1
		C784.2,816.4,783.2,815.9,781.9,815.9z"/>
	<path class="st7" d="M810.6,814.2l-4.4,15c4.1-6.1,7.2-10.2,9.4-12.1c2.2-1.9,4.3-2.9,6.3-2.9c1.1,0,2,0.4,2.7,1.1
		c0.7,0.7,1.1,1.7,1.1,2.8c0,1.3-0.3,3.1-0.9,5.3l-4,13.9c-0.5,1.6-0.7,2.6-0.7,2.9c0,0.3,0.1,0.6,0.3,0.8c0.2,0.2,0.4,0.3,0.6,0.3
		c0.2,0,0.6-0.1,0.9-0.4c1.2-0.9,2.5-2.3,3.8-4.2l1,0.6c-2,2.9-4,5-5.8,6.3c-1.3,0.8-2.4,1.3-3.4,1.3c-0.8,0-1.5-0.2-1.9-0.7
		s-0.7-1.1-0.7-2c0-1.1,0.4-2.9,1.1-5.4l3.8-13.3c0.5-1.6,0.7-2.9,0.7-3.8c0-0.4-0.1-0.8-0.4-1.1c-0.3-0.3-0.6-0.4-1-0.4
		c-0.6,0-1.3,0.3-2.2,0.8c-1.6,1-3.3,2.6-5.1,4.9c-1.8,2.3-3.6,5.2-5.6,8.7c-1,1.9-1.9,3.9-2.6,6.1l-1.6,5.4h-5l6-20.6
		c0.7-2.5,1.1-4,1.1-4.5s-0.2-0.9-0.6-1.3c-0.4-0.4-0.9-0.6-1.4-0.6c-0.3,0-0.7,0.1-1.4,0.2l-1.3,0.2l-0.2-1.2L810.6,814.2z"/>
	<path class="st7" d="M847,806.1l-2.6,9h5.2l-0.6,2.1h-5.1l-5.7,19.4c-0.6,2.1-0.9,3.5-0.9,4.1c0,0.4,0.1,0.7,0.2,0.9
		c0.2,0.2,0.4,0.3,0.6,0.3c0.5,0,1.3-0.4,2.2-1.2c0.5-0.4,1.7-1.8,3.6-4.1l1.1,0.9c-2,2.9-3.9,5-5.7,6.2c-1.2,0.8-2.5,1.2-3.7,1.2
		c-1,0-1.7-0.3-2.4-0.9c-0.6-0.6-0.9-1.4-0.9-2.3c0-1.2,0.3-3,1-5.4l5.5-19.1h-5l0.3-1.3c2.4-0.7,4.4-1.6,6-2.9
		c1.6-1.3,3.4-3.6,5.4-6.8H847z"/>
	<path class="st7" d="M856.2,831.7c-0.1,1.1-0.2,2-0.2,2.7c0,2,0.7,3.6,2.1,5c1.4,1.4,3.1,2.1,5.1,2.1c1.6,0,3.1-0.3,4.6-1
		c1.5-0.7,3.6-2.1,6.5-4.3l0.7,0.9c-5.2,5.2-10.2,7.7-14.9,7.7c-3.2,0-5.6-1-7.2-3c-1.6-2-2.4-4.2-2.4-6.7c0-3.3,1-6.6,3-10.1
		c2-3.4,4.6-6.1,7.6-8c3-1.9,6.2-2.9,9.4-2.9c2.3,0,4,0.5,5.2,1.4c1.1,1,1.7,2.1,1.7,3.4c0,1.8-0.7,3.6-2.2,5.2
		c-1.9,2.2-4.7,3.9-8.4,5.3C864.2,830.4,860.7,831.1,856.2,831.7z M856.5,830c3.2-0.4,5.9-1,7.9-1.9c2.7-1.2,4.7-2.6,6.1-4.3
		c1.4-1.7,2-3.3,2-4.8c0-0.9-0.3-1.6-0.9-2.2s-1.4-0.9-2.5-0.9c-2.2,0-4.6,1.2-7.1,3.6C859.5,821.8,857.7,825.4,856.5,830z"/>
	<path class="st7" d="M353.8,932.3c-0.1,1.1-0.2,2-0.2,2.7c0,2,0.7,3.6,2.1,5c1.4,1.4,3.1,2.1,5.1,2.1c1.6,0,3.1-0.3,4.6-1
		c1.5-0.7,3.6-2.1,6.5-4.3l0.7,0.9c-5.2,5.2-10.2,7.7-14.9,7.7c-3.2,0-5.6-1-7.2-3c-1.6-2-2.4-4.2-2.4-6.7c0-3.3,1-6.6,3-10.1
		c2-3.4,4.6-6.1,7.6-8c3-1.9,6.2-2.9,9.4-2.9c2.3,0,4,0.5,5.2,1.4c1.1,1,1.7,2.1,1.7,3.4c0,1.8-0.7,3.6-2.2,5.2
		c-1.9,2.2-4.7,3.9-8.4,5.3C361.7,931.1,358.2,931.8,353.8,932.3z M354,930.6c3.2-0.4,5.9-1,7.9-1.9c2.7-1.2,4.7-2.6,6.1-4.3
		s2-3.3,2-4.8c0-0.9-0.3-1.6-0.9-2.2s-1.4-0.9-2.5-0.9c-2.2,0-4.6,1.2-7.1,3.6C357.1,922.5,355.2,926,354,930.6z"/>
	<path class="st7" d="M400.2,914.8l-2,10.2H397c-0.1-2.9-0.7-5.1-1.9-6.4c-1.1-1.3-2.6-2-4.3-2c-1.3,0-2.4,0.4-3.2,1.1
		c-0.8,0.7-1.2,1.6-1.2,2.7c0,0.7,0.2,1.4,0.5,2.1c0.3,0.7,1,1.6,2.1,2.8c2.8,3.1,4.7,5.5,5.5,7.1c0.8,1.6,1.2,3.1,1.2,4.5
		c0,2.3-0.9,4.3-2.8,6.1c-1.9,1.8-4.3,2.6-7.2,2.6c-1.6,0-3.4-0.4-5.5-1.1c-0.7-0.3-1.3-0.4-1.7-0.4c-1,0-1.7,0.5-2.3,1.5h-1.2
		l2-10.7h1.2c0.1,3.4,0.8,5.7,2,7.1c1.3,1.4,3,2.1,5.2,2.1c1.7,0,3-0.5,4-1.4c1-0.9,1.5-2.1,1.5-3.4c0-0.9-0.2-1.7-0.5-2.5
		c-0.6-1.3-1.9-3.1-3.9-5.5c-2-2.3-3.2-4.1-3.8-5.2c-0.6-1.2-0.8-2.3-0.8-3.5c0-2.1,0.8-3.9,2.3-5.4c1.6-1.5,3.5-2.2,6-2.2
		c0.7,0,1.4,0.1,1.9,0.2c0.3,0.1,1,0.3,2.1,0.8c1.1,0.4,1.9,0.6,2.3,0.6c0.9,0,1.7-0.5,2.4-1.6H400.2z"/>
	<path class="st7" d="M420.3,916.9l9.5-2c0.7,1.6,1.2,3.3,1.6,5c0.6,2.5,1.1,5.4,1.5,8.8c0.2,1.7,0.4,5.3,0.7,10.8
		c2.8-3,4.4-4.9,4.9-5.6c2.9-3.9,4.6-6.2,5-6.9c0.7-1.2,1.2-2.2,1.5-3.1c0.2-0.7,0.4-1.3,0.4-1.9c0-0.6-0.5-1.2-1.5-2
		c-1-0.8-1.5-1.6-1.5-2.5c0-0.7,0.3-1.3,0.8-1.9c0.6-0.6,1.2-0.8,2-0.8c0.9,0,1.7,0.4,2.4,1.1c0.7,0.8,1,1.7,1,2.8
		c0,1.1-0.2,2.2-0.5,3.2c-0.5,1.7-1.6,3.7-3.2,6.1c-1.6,2.4-4.1,5.6-7.6,9.7c-0.4,0.5-2.9,3-7.3,7.6h-1.2c-0.5-13.9-1.7-22.6-3.3-26
		c-0.5-1.1-1.5-1.7-2.7-1.7c-0.5,0-1.3,0.1-2.3,0.3L420.3,916.9z"/>
	<path class="st7" d="M480.6,915.7l-5.7,19.7c-0.8,2.9-1.3,4.8-1.3,5.5c0,0.4,0.1,0.7,0.2,0.9c0.1,0.2,0.3,0.3,0.6,0.3
		c0.4,0,0.8-0.2,1.2-0.5c0.5-0.3,1.6-1.7,3.4-4.1l1,0.8c-1.7,2.7-3.5,4.7-5.4,6.1c-1.2,0.8-2.4,1.2-3.5,1.2c-0.9,0-1.5-0.2-2-0.7
		s-0.7-1.1-0.7-1.9c0-0.8,0.1-1.8,0.4-3c0.4-1.6,1.4-5.1,3-10.6c-3.7,6.1-6.9,10.4-9.4,12.7c-2.5,2.3-4.8,3.5-7,3.5
		c-1,0-1.9-0.3-2.6-1c-0.7-0.7-1.1-1.6-1.1-2.7c0-1.6,0.5-4.2,1.4-7.6l2.9-10.2c0.7-2.4,1-3.9,1-4.5c0-0.2-0.1-0.5-0.3-0.7
		c-0.2-0.2-0.4-0.3-0.6-0.3c-0.5,0-0.9,0.2-1.4,0.5c-0.5,0.3-1.5,1.5-3.2,3.6l-1-0.7c1.7-2.6,3.4-4.4,5.2-5.7c1.4-1,2.7-1.4,3.9-1.4
		c0.8,0,1.5,0.3,2,0.8c0.5,0.5,0.8,1.2,0.8,2c0,1.2-0.4,3.3-1.3,6.3l-3.1,10.6c-0.8,2.9-1.3,4.8-1.3,5.5c0,0.4,0.1,0.7,0.4,1
		c0.3,0.3,0.6,0.4,1.1,0.4c0.7,0,1.7-0.4,2.8-1.1c1.2-0.7,2.7-2.3,4.7-4.8c1.9-2.5,3.5-4.8,4.8-7c1.3-2.2,2.6-5.7,4-10.4l0.7-2.5
		H480.6z"/>
	<path class="st7" d="M490.6,932.3c-0.1,1.1-0.2,2-0.2,2.7c0,2,0.7,3.6,2.1,5c1.4,1.4,3.1,2.1,5.1,2.1c1.6,0,3.1-0.3,4.6-1
		c1.5-0.7,3.6-2.1,6.5-4.3l0.7,0.9c-5.2,5.2-10.2,7.7-14.9,7.7c-3.2,0-5.6-1-7.2-3c-1.6-2-2.4-4.2-2.4-6.7c0-3.3,1-6.6,3-10.1
		c2-3.4,4.6-6.1,7.6-8c3-1.9,6.2-2.9,9.4-2.9c2.3,0,4,0.5,5.2,1.4c1.1,1,1.7,2.1,1.7,3.4c0,1.8-0.7,3.6-2.2,5.2
		c-1.9,2.2-4.7,3.9-8.4,5.3C498.5,931.1,495.1,931.8,490.6,932.3z M490.8,930.6c3.2-0.4,5.9-1,7.9-1.9c2.7-1.2,4.7-2.6,6.1-4.3
		c1.4-1.7,2-3.3,2-4.8c0-0.9-0.3-1.6-0.9-2.2s-1.4-0.9-2.5-0.9c-2.2,0-4.6,1.2-7.1,3.6C493.9,922.5,492,926,490.8,930.6z"/>
	<path class="st7" d="M537,914.8l-2,10.2h-1.2c-0.1-2.9-0.7-5.1-1.9-6.4c-1.1-1.3-2.6-2-4.3-2c-1.3,0-2.4,0.4-3.2,1.1
		c-0.8,0.7-1.2,1.6-1.2,2.7c0,0.7,0.2,1.4,0.5,2.1s1,1.6,2.1,2.8c2.8,3.1,4.7,5.5,5.5,7.1c0.8,1.6,1.2,3.1,1.2,4.5
		c0,2.3-0.9,4.3-2.8,6.1c-1.9,1.8-4.3,2.6-7.2,2.6c-1.6,0-3.4-0.4-5.5-1.1c-0.7-0.3-1.3-0.4-1.7-0.4c-1,0-1.7,0.5-2.3,1.5h-1.2
		l2-10.7h1.2c0.1,3.4,0.8,5.7,2,7.1c1.3,1.4,3,2.1,5.2,2.1c1.7,0,3-0.5,4-1.4s1.5-2.1,1.5-3.4c0-0.9-0.2-1.7-0.5-2.5
		c-0.6-1.3-1.9-3.1-3.9-5.5c-2-2.3-3.2-4.1-3.8-5.2c-0.6-1.2-0.8-2.3-0.8-3.5c0-2.1,0.8-3.9,2.3-5.4c1.6-1.5,3.5-2.2,6-2.2
		c0.7,0,1.4,0.1,1.9,0.2c0.3,0.1,1,0.3,2.1,0.8c1.1,0.4,1.9,0.6,2.3,0.6c0.9,0,1.7-0.5,2.4-1.6H537z"/>
	<path class="st7" d="M556.3,906.7l-2.6,9h5.2l-0.6,2.1h-5.1l-5.7,19.4c-0.6,2.1-0.9,3.5-0.9,4.1c0,0.4,0.1,0.7,0.2,0.9
		c0.2,0.2,0.4,0.3,0.6,0.3c0.5,0,1.3-0.4,2.2-1.2c0.5-0.4,1.7-1.8,3.6-4.1l1.1,0.9c-2,2.9-3.9,5-5.7,6.2c-1.2,0.8-2.5,1.2-3.7,1.2
		c-1,0-1.7-0.3-2.4-0.9c-0.6-0.6-0.9-1.4-0.9-2.3c0-1.2,0.3-3,1-5.4l5.5-19.1h-5l0.3-1.3c2.4-0.7,4.4-1.6,6-2.9
		c1.6-1.3,3.4-3.6,5.4-6.8H556.3z"/>
	<path class="st7" d="M561.1,916.7l11.4-1.9l-4.7,16c3.8-6.6,7.3-11.2,10.5-13.8c1.8-1.5,3.2-2.3,4.3-2.3c0.7,0,1.3,0.2,1.7,0.7
		s0.6,1.1,0.6,1.9c0,1.4-0.4,2.8-1.1,4.1c-0.5,1-1.3,1.5-2.3,1.5c-0.5,0-0.9-0.2-1.3-0.5c-0.4-0.3-0.6-0.8-0.7-1.5
		c0-0.4-0.1-0.7-0.3-0.8c-0.2-0.2-0.4-0.2-0.6-0.2c-0.4,0-0.7,0.1-1.1,0.2c-0.6,0.3-1.4,1.2-2.6,2.6c-1.8,2.2-3.8,4.9-5.9,8.4
		c-0.9,1.4-1.7,3.1-2.4,4.9c-0.9,2.5-1.4,4-1.6,4.5l-1.1,4.1h-5l6.1-20.5c0.7-2.4,1-4.1,1-5.1c0-0.4-0.2-0.7-0.5-1
		c-0.4-0.4-1-0.5-1.7-0.5c-0.5,0-1.3,0.1-2.5,0.3L561.1,916.7z"/>
	<path class="st7" d="M615.5,914.8l-6.4,22.4l-0.7,3c-0.1,0.3-0.1,0.5-0.1,0.7c0,0.4,0.1,0.7,0.3,0.9c0.2,0.2,0.4,0.3,0.7,0.3
		c0.3,0,0.6-0.2,1.1-0.5c0.8-0.6,2-1.9,3.4-3.9l1.1,0.8c-1.5,2.3-3.1,4-4.7,5.2c-1.6,1.2-3.1,1.8-4.5,1.8c-0.9,0-1.6-0.2-2.1-0.7
		s-0.7-1.1-0.7-2c0-1.1,0.2-2.5,0.7-4.3l0.7-2.5c-2.9,3.8-5.5,6.4-7.9,7.9c-1.7,1.1-3.5,1.6-5.1,1.6c-1.6,0-3-0.7-4.2-2
		c-1.2-1.3-1.7-3.1-1.7-5.5c0-3.5,1-7.2,3.1-11.1s4.8-7,8-9.3c2.5-1.9,4.9-2.8,7.1-2.8c1.4,0,2.5,0.4,3.4,1.1c0.9,0.7,1.6,1.9,2,3.5
		l1.2-3.8L615.5,914.8z M603.8,916.6c-1.4,0-2.9,0.7-4.5,2c-2.3,1.9-4.3,4.6-6,8.3c-1.7,3.7-2.6,7-2.6,10c0,1.5,0.4,2.6,1.1,3.5
		c0.8,0.9,1.6,1.3,2.6,1.3c2.4,0,5-1.8,7.8-5.3c3.8-4.7,5.6-9.5,5.6-14.5c0-1.9-0.4-3.2-1.1-4.1C606,917,605,916.6,603.8,916.6z"/>
	<path class="st7" d="M660.5,937.5c-2.3,2.7-4.6,4.7-6.9,6c-2.3,1.3-4.8,1.9-7.4,1.9c-3.1,0-5.5-0.9-7.3-2.6
		c-1.7-1.7-2.6-4.1-2.6-7.1c0-3.4,0.9-6.7,2.8-9.9c1.9-3.3,4.4-5.9,7.6-7.9c3.2-2,6.3-3,9.3-3c2.4,0,4.2,0.5,5.4,1.5
		c1.2,1,1.8,2.2,1.8,3.7c0,1.4-0.4,2.5-1.3,3.5c-0.6,0.8-1.4,1.1-2.3,1.1c-0.7,0-1.2-0.2-1.7-0.7s-0.7-1-0.7-1.7
		c0-0.4,0.1-0.8,0.2-1.1s0.5-0.8,1-1.3s0.8-0.8,0.9-1.1c0.1-0.2,0.2-0.5,0.2-0.7c0-0.5-0.2-0.8-0.6-1.1c-0.7-0.4-1.6-0.7-2.7-0.7
		c-2.2,0-4.3,0.8-6.4,2.3s-3.9,3.7-5.4,6.4c-1.8,3.4-2.7,6.8-2.7,10.2c0,2.2,0.6,4,1.9,5.3c1.3,1.3,3,2,5.2,2c1.7,0,3.4-0.4,5-1.3
		c1.7-0.8,3.5-2.4,5.6-4.6L660.5,937.5z"/>
	<path class="st7" d="M695.6,925.2c0,3.3-0.9,6.6-2.6,9.8c-1.7,3.2-4.2,5.8-7.3,7.7c-3.1,1.9-6.1,2.8-9.1,2.8c-3,0-5.5-1-7.4-2.9
		c-1.9-1.9-2.9-4.4-2.9-7.4c0-3.2,0.9-6.5,2.8-9.7c1.9-3.2,4.3-5.8,7.5-7.7c3.1-1.9,6.1-2.8,9-2.8c2.9,0,5.3,1,7.2,2.9
		C694.7,919.7,695.6,922.1,695.6,925.2z M690.2,922.9c0-2-0.5-3.6-1.5-4.7c-1-1.1-2.3-1.6-3.9-1.6c-3.2,0-6.2,2.3-8.9,6.9
		c-2.7,4.6-4.1,9.2-4.1,13.8c0,2.1,0.5,3.7,1.6,4.8s2.4,1.7,4,1.7c3.1,0,6-2.3,8.7-6.9C688.8,932.3,690.2,927.7,690.2,922.9z"/>
	<path class="st7" d="M712.8,914.8l-4.3,14.9c1.9-3.5,3.5-6.1,4.9-7.9c2.1-2.7,4.1-4.7,6.1-5.9c1.2-0.7,2.4-1.1,3.6-1.1
		c1.1,0,2,0.4,2.7,1.1c0.7,0.7,1.1,1.6,1.1,2.7s-0.3,2.5-0.8,4.2l-2.3,8.4c3.6-6.7,7-11.4,10.2-14.1c1.8-1.5,3.5-2.3,5.2-2.3
		c1,0,1.8,0.3,2.5,1c0.7,0.7,1,1.8,1,3.2c0,1.3-0.2,2.6-0.6,4.1l-3.6,12.8c-0.8,2.8-1.2,4.4-1.2,4.7c0,0.3,0.1,0.6,0.3,0.8
		c0.1,0.2,0.3,0.2,0.5,0.2s0.6-0.2,1.1-0.6c1.3-1,2.4-2.3,3.5-3.8l1.1,0.7c-0.5,0.9-1.5,2.1-2.9,3.6c-1.4,1.5-2.6,2.6-3.6,3.1
		s-1.9,0.8-2.7,0.8c-0.8,0-1.4-0.3-1.9-0.8s-0.8-1.2-0.8-1.9c0-1.1,0.5-3.2,1.4-6.4l3-10.6c0.7-2.5,1-3.8,1.1-4.1
		c0.1-0.4,0.1-0.8,0.1-1.2c0-0.5-0.1-1-0.4-1.3c-0.3-0.3-0.6-0.5-0.9-0.5c-0.9,0-1.9,0.5-2.9,1.4c-3.1,2.8-5.9,6.7-8.5,11.7
		c-1.7,3.3-3.4,7.6-4.9,12.8h-5l5.7-19.9c0.6-2.2,0.9-3.6,0.9-4.3c0-0.6-0.1-1-0.3-1.3c-0.2-0.3-0.5-0.4-0.9-0.4
		c-0.7,0-1.5,0.3-2.3,0.8c-1.3,0.9-3,2.7-5.1,5.5c-2.1,2.8-3.7,5.5-4.8,8.1c-0.5,1.2-1.9,5.1-3.9,11.6h-4.9l6.1-21.4l0.8-2.7
		c0.2-0.4,0.2-0.8,0.2-0.9c0-0.5-0.2-0.9-0.7-1.3c-0.4-0.4-1-0.6-1.7-0.6c-0.3,0-1.1,0.1-2.4,0.4l-0.3-1.2L712.8,914.8z"/>
	<path class="st7" d="M761.9,914.8l-2.3,7.6c2.4-2.8,4.5-4.8,6.4-5.9c1.9-1.1,3.8-1.7,5.7-1.7c2,0,3.6,0.8,5,2.3
		c1.4,1.6,2.1,3.6,2.1,6.1c0,4.8-2,9.7-5.9,14.7c-3.9,5-8.5,7.5-13.8,7.5c-1.1,0-2.1-0.1-2.9-0.3c-0.8-0.2-1.8-0.7-2.8-1.3l-2.4,8.5
		c-0.5,1.7-0.7,2.7-0.7,3.2s0.1,0.9,0.4,1.2c0.3,0.3,0.7,0.6,1.2,0.8c0.6,0.2,1.7,0.3,3.4,0.3l-0.3,1.2h-15.5l0.3-1.2
		c2-0.1,3.4-0.4,4.1-1s1.5-2.3,2.3-5.1l8.4-28.9c0.5-1.8,0.7-3,0.7-3.4c0-0.6-0.2-1.1-0.5-1.4c-0.3-0.3-0.8-0.5-1.6-0.5
		c-0.7,0-1.5,0.1-2.7,0.2v-1.3L761.9,914.8z M754.2,941.2c1.4,1.6,3.2,2.5,5.5,2.5c1.1,0,2.3-0.3,3.5-1c1.2-0.6,2.3-1.6,3.5-2.8
		c1.1-1.2,2.1-2.7,3-4.3c0.9-1.6,1.7-3.6,2.4-5.8c0.7-2.2,1.1-4.4,1.1-6.6c0-1.7-0.4-3.1-1.2-4c-0.8-0.9-1.8-1.4-2.8-1.4
		c-2.4,0-4.7,1.4-7,4.1c-2.3,2.7-4,5.9-5.1,9.6L754.2,941.2z"/>
	<path class="st7" d="M812.3,914.8l-6.4,22.4l-0.7,3c-0.1,0.3-0.1,0.5-0.1,0.7c0,0.4,0.1,0.7,0.3,0.9c0.2,0.2,0.4,0.3,0.7,0.3
		c0.3,0,0.6-0.2,1.1-0.5c0.8-0.6,2-1.9,3.4-3.9l1.1,0.8c-1.5,2.3-3.1,4-4.7,5.2c-1.6,1.2-3.1,1.8-4.5,1.8c-0.9,0-1.6-0.2-2.1-0.7
		s-0.7-1.1-0.7-2c0-1.1,0.2-2.5,0.7-4.3l0.7-2.5c-2.9,3.8-5.5,6.4-7.9,7.9c-1.7,1.1-3.5,1.6-5.1,1.6c-1.6,0-3-0.7-4.2-2
		c-1.2-1.3-1.7-3.1-1.7-5.5c0-3.5,1-7.2,3.1-11.1s4.8-7,8-9.3c2.5-1.9,4.9-2.8,7.1-2.8c1.4,0,2.5,0.4,3.4,1.1c0.9,0.7,1.6,1.9,2,3.5
		l1.2-3.8L812.3,914.8z M800.6,916.6c-1.4,0-2.9,0.7-4.5,2c-2.3,1.9-4.3,4.6-6,8.3c-1.7,3.7-2.6,7-2.6,10c0,1.5,0.4,2.6,1.1,3.5
		c0.8,0.9,1.6,1.3,2.6,1.3c2.4,0,5-1.8,7.8-5.3c3.8-4.7,5.6-9.5,5.6-14.5c0-1.9-0.4-3.2-1.1-4.1C802.8,917,801.8,916.6,800.6,916.6z
		"/>
	<path class="st7" d="M829.3,914.8l-4.4,15c4.1-6.1,7.2-10.2,9.4-12.1c2.2-1.9,4.3-2.9,6.3-2.9c1.1,0,2,0.4,2.7,1.1
		c0.7,0.7,1.1,1.7,1.1,2.8c0,1.3-0.3,3.1-0.9,5.3l-4,13.9c-0.5,1.6-0.7,2.6-0.7,2.9c0,0.3,0.1,0.6,0.3,0.8c0.2,0.2,0.4,0.3,0.6,0.3
		c0.2,0,0.6-0.1,0.9-0.4c1.2-0.9,2.5-2.3,3.8-4.2l1,0.6c-2,2.9-4,5-5.8,6.3c-1.3,0.8-2.4,1.3-3.4,1.3c-0.8,0-1.5-0.2-1.9-0.7
		s-0.7-1.1-0.7-2c0-1.1,0.4-2.9,1.1-5.4l3.8-13.3c0.5-1.6,0.7-2.9,0.7-3.8c0-0.4-0.1-0.8-0.4-1.1c-0.3-0.3-0.6-0.4-1-0.4
		c-0.6,0-1.3,0.3-2.2,0.8c-1.6,1-3.3,2.6-5.1,4.9c-1.8,2.3-3.6,5.2-5.6,8.7c-1,1.9-1.9,3.9-2.6,6.1l-1.6,5.4h-5l6-20.6
		c0.7-2.5,1.1-4,1.1-4.5s-0.2-0.9-0.6-1.3c-0.4-0.4-0.9-0.6-1.4-0.6c-0.3,0-0.7,0.1-1.4,0.2l-1.3,0.2l-0.2-1.2L829.3,914.8z
		 M846.6,899.7h1c0,2.8-0.6,5-1.8,6.4s-2.6,2.2-4.3,2.2c-1.6,0-3.5-0.7-5.5-2s-3.4-2.1-3.9-2.3c-0.4-0.2-0.8-0.3-1.3-0.3
		c-0.8,0-1.4,0.3-1.9,0.9s-0.9,1.8-1.2,3.6h-1.1c0.2-3.1,0.8-5.3,2-6.6c1.2-1.3,2.6-2,4.2-2c1.6,0,3.5,0.8,5.9,2.3
		c2.3,1.5,3.9,2.3,4.8,2.3c0.8,0,1.4-0.3,1.9-0.9C845.9,902.7,846.3,901.5,846.6,899.7z"/>
	<path class="st7" d="M863.6,914.8l-6.5,23.1c-0.4,1.6-0.7,2.5-0.7,2.8c0,0.4,0.1,0.6,0.3,0.9c0.2,0.2,0.4,0.3,0.7,0.3
		c0.4,0,0.8-0.2,1.2-0.5c1.3-1,2.5-2.4,3.8-4.2l1.1,0.8c-1.5,2.3-3.3,4.2-5.3,5.8c-1.5,1.1-2.9,1.7-4.3,1.7c-0.9,0-1.6-0.3-2.2-0.8
		s-0.9-1.2-0.9-2c0-0.8,0.3-2.2,0.8-4.1l4.3-14.8c0.7-2.4,1-3.9,1-4.5c0-0.5-0.2-0.9-0.5-1.2c-0.3-0.3-0.8-0.5-1.4-0.5
		c-0.5,0-1.5,0.1-3,0.4v-1.3L863.6,914.8z M870.7,898.5l-9.7,11.3h-1.1l3.4-11.3H870.7z"/>
	<path class="st7" d="M898.6,914.8l-6.4,22.4l-0.7,3c-0.1,0.3-0.1,0.5-0.1,0.7c0,0.4,0.1,0.7,0.3,0.9c0.2,0.2,0.4,0.3,0.7,0.3
		c0.3,0,0.6-0.2,1.1-0.5c0.8-0.6,2-1.9,3.4-3.9l1.1,0.8c-1.5,2.3-3.1,4-4.7,5.2c-1.6,1.2-3.1,1.8-4.5,1.8c-0.9,0-1.6-0.2-2.1-0.7
		s-0.7-1.1-0.7-2c0-1.1,0.2-2.5,0.7-4.3l0.7-2.5c-2.9,3.8-5.5,6.4-7.9,7.9c-1.7,1.1-3.5,1.6-5.1,1.6c-1.6,0-3-0.7-4.2-2
		c-1.2-1.3-1.7-3.1-1.7-5.5c0-3.5,1-7.2,3.1-11.1s4.8-7,8-9.3c2.5-1.9,4.9-2.8,7.1-2.8c1.4,0,2.5,0.4,3.4,1.1c0.9,0.7,1.6,1.9,2,3.5
		l1.2-3.8L898.6,914.8z M886.8,916.6c-1.4,0-2.9,0.7-4.5,2c-2.3,1.9-4.3,4.6-6,8.3c-1.7,3.7-2.6,7-2.6,10c0,1.5,0.4,2.6,1.1,3.5
		c0.8,0.9,1.6,1.3,2.6,1.3c2.4,0,5-1.8,7.8-5.3c3.8-4.7,5.6-9.5,5.6-14.5c0-1.9-0.4-3.2-1.1-4.1C889.1,917,888.1,916.6,886.8,916.6z
		"/>
	<path class="st7" d="M899.9,952.1c1.6-0.7,3-1.7,4-2.8c0.8-0.9,1.2-1.7,1.2-2.5c0-0.4-0.1-0.8-0.2-1.1c-0.1-0.2-0.4-0.5-0.9-1
		c-0.5-0.5-0.8-0.9-0.9-1.1c-0.1-0.4-0.2-0.8-0.2-1.3c0-1,0.3-1.8,1-2.5c0.6-0.7,1.4-1,2.3-1c0.9,0,1.7,0.4,2.4,1.1
		c0.7,0.7,1,1.6,1,2.7c0,2-0.8,4-2.3,6c-1.5,2-3.8,3.6-6.7,4.6L899.9,952.1z"/>
	<path class="st7" d="M174.2,1015.5l-2.3,7.6c2.4-2.8,4.5-4.8,6.4-5.9s3.8-1.7,5.7-1.7c2,0,3.6,0.8,5,2.3c1.4,1.6,2.1,3.6,2.1,6.1
		c0,4.8-2,9.7-5.9,14.7c-3.9,5-8.5,7.5-13.8,7.5c-1.1,0-2.1-0.1-2.9-0.3c-0.8-0.2-1.8-0.7-2.8-1.3l-2.4,8.5
		c-0.5,1.7-0.7,2.7-0.7,3.2s0.1,0.9,0.4,1.2c0.3,0.3,0.7,0.6,1.2,0.8c0.6,0.2,1.7,0.3,3.4,0.3l-0.3,1.2h-15.5l0.3-1.2
		c2-0.1,3.4-0.4,4.1-1c0.7-0.6,1.5-2.3,2.3-5.1l8.4-28.9c0.5-1.8,0.7-3,0.7-3.4c0-0.6-0.2-1.1-0.5-1.4c-0.3-0.3-0.8-0.5-1.6-0.5
		c-0.7,0-1.5,0.1-2.7,0.2v-1.3L174.2,1015.5z M166.5,1041.8c1.4,1.6,3.2,2.5,5.5,2.5c1.1,0,2.3-0.3,3.5-1c1.2-0.6,2.3-1.6,3.5-2.8
		c1.1-1.2,2.1-2.7,3.1-4.3s1.7-3.6,2.4-5.8c0.7-2.2,1.1-4.4,1.1-6.6c0-1.7-0.4-3.1-1.2-4c-0.8-0.9-1.8-1.4-2.8-1.4
		c-2.4,0-4.7,1.4-7,4.1c-2.3,2.7-4,5.9-5.1,9.6L166.5,1041.8z"/>
	<path class="st7" d="M201,1032.9c-0.1,1.1-0.2,2-0.2,2.7c0,2,0.7,3.6,2.1,5c1.4,1.4,3.1,2.1,5.1,2.1c1.6,0,3.1-0.3,4.6-1
		c1.5-0.7,3.6-2.1,6.5-4.3l0.7,0.9c-5.2,5.2-10.2,7.7-14.9,7.7c-3.2,0-5.6-1-7.2-3c-1.6-2-2.4-4.2-2.4-6.7c0-3.3,1-6.6,3-10.1
		c2-3.4,4.6-6.1,7.6-8c3-1.9,6.2-2.9,9.4-2.9c2.3,0,4,0.5,5.2,1.4c1.1,1,1.7,2.1,1.7,3.4c0,1.8-0.7,3.6-2.2,5.2
		c-1.9,2.2-4.7,3.9-8.4,5.3C208.9,1031.7,205.4,1032.4,201,1032.9z M201.2,1031.3c3.2-0.4,5.9-1,7.9-1.9c2.7-1.2,4.7-2.6,6.1-4.3
		s2-3.3,2-4.8c0-0.9-0.3-1.6-0.9-2.2s-1.4-0.9-2.5-0.9c-2.2,0-4.6,1.2-7.1,3.6C204.3,1023.1,202.4,1026.6,201.2,1031.3z"/>
	<path class="st7" d="M226.4,1017.3l11.4-1.9l-4.7,16c3.8-6.6,7.3-11.2,10.5-13.8c1.8-1.5,3.2-2.3,4.3-2.3c0.7,0,1.3,0.2,1.7,0.7
		c0.4,0.4,0.6,1.1,0.6,1.9c0,1.4-0.4,2.8-1.1,4.1c-0.5,1-1.3,1.5-2.3,1.5c-0.5,0-0.9-0.2-1.3-0.5c-0.4-0.3-0.6-0.8-0.7-1.5
		c0-0.4-0.1-0.7-0.3-0.8c-0.2-0.2-0.4-0.2-0.6-0.2c-0.4,0-0.7,0.1-1.1,0.2c-0.6,0.3-1.4,1.2-2.6,2.6c-1.8,2.2-3.8,4.9-5.9,8.4
		c-0.9,1.4-1.7,3.1-2.4,4.9c-0.9,2.5-1.4,4-1.6,4.5l-1.1,4.1h-5l6.1-20.5c0.7-2.4,1-4.1,1-5.1c0-0.4-0.2-0.7-0.5-1
		c-0.4-0.4-1-0.5-1.7-0.5c-0.5,0-1.3,0.1-2.5,0.3L226.4,1017.3z"/>
	<path class="st7" d="M280.4,1025.8c0,3.3-0.9,6.6-2.6,9.8c-1.7,3.2-4.2,5.8-7.3,7.7c-3.1,1.9-6.1,2.8-9.1,2.8c-3,0-5.5-1-7.4-2.9
		c-1.9-1.9-2.9-4.4-2.9-7.4c0-3.2,0.9-6.5,2.8-9.7c1.9-3.2,4.3-5.8,7.5-7.7c3.1-1.9,6.1-2.8,9-2.8c2.9,0,5.3,1,7.2,2.9
		C279.5,1020.3,280.4,1022.7,280.4,1025.8z M274.9,1023.5c0-2-0.5-3.6-1.5-4.7s-2.3-1.6-3.9-1.6c-3.2,0-6.2,2.3-8.9,6.9
		c-2.7,4.6-4.1,9.2-4.1,13.8c0,2.1,0.5,3.7,1.6,4.8s2.4,1.7,4,1.7c3.1,0,6-2.3,8.7-6.9C273.6,1032.9,274.9,1028.3,274.9,1023.5z"/>
	<path class="st7" d="M324.3,1015.5l-2,10.2H321c-0.1-2.9-0.7-5.1-1.9-6.4c-1.1-1.3-2.6-2-4.3-2c-1.3,0-2.4,0.4-3.2,1.1
		c-0.8,0.7-1.2,1.6-1.2,2.7c0,0.7,0.2,1.4,0.5,2.1c0.3,0.7,1,1.6,2.1,2.8c2.8,3.1,4.7,5.5,5.5,7.1c0.8,1.6,1.2,3.1,1.2,4.5
		c0,2.3-0.9,4.3-2.8,6.1c-1.9,1.8-4.3,2.6-7.2,2.6c-1.6,0-3.4-0.4-5.5-1.1c-0.7-0.3-1.3-0.4-1.7-0.4c-1,0-1.7,0.5-2.3,1.5h-1.2
		l2-10.7h1.2c0.1,3.4,0.8,5.7,2,7.1c1.3,1.4,3,2.1,5.2,2.1c1.7,0,3-0.5,4-1.4c1-0.9,1.5-2.1,1.5-3.4c0-0.9-0.2-1.7-0.5-2.5
		c-0.6-1.3-1.9-3.1-3.9-5.5c-2-2.3-3.2-4.1-3.8-5.2c-0.6-1.2-0.8-2.3-0.8-3.5c0-2.1,0.8-3.9,2.3-5.4c1.6-1.5,3.5-2.2,6-2.2
		c0.7,0,1.4,0.1,1.9,0.2c0.3,0.1,1,0.3,2.1,0.8c1.1,0.4,1.9,0.6,2.3,0.6c0.9,0,1.7-0.5,2.4-1.6H324.3z"/>
	<path class="st7" d="M341.6,1015.5l-6.5,23.1c-0.4,1.6-0.7,2.5-0.7,2.8c0,0.4,0.1,0.6,0.3,0.9c0.2,0.2,0.4,0.3,0.7,0.3
		c0.4,0,0.8-0.2,1.2-0.5c1.3-1,2.5-2.4,3.8-4.2l1.1,0.8c-1.5,2.3-3.3,4.2-5.3,5.8c-1.5,1.1-2.9,1.7-4.3,1.7c-0.9,0-1.6-0.3-2.2-0.8
		s-0.9-1.2-0.9-2c0-0.8,0.3-2.2,0.8-4.1l4.3-14.8c0.7-2.4,1-3.9,1-4.5c0-0.5-0.2-0.9-0.5-1.2c-0.3-0.3-0.8-0.5-1.4-0.5
		c-0.5,0-1.5,0.1-3,0.4v-1.3L341.6,1015.5z M341.2,1002.4c0.9,0,1.7,0.3,2.3,1c0.6,0.6,0.9,1.4,0.9,2.3s-0.3,1.7-1,2.3
		c-0.6,0.7-1.4,1-2.3,1c-0.9,0-1.7-0.3-2.3-1c-0.7-0.7-1-1.4-1-2.3s0.3-1.7,1-2.3C339.5,1002.7,340.3,1002.4,341.2,1002.4z"/>
	<path class="st7" d="M393.7,1015.5l-10.8,37.3c-0.5,1.7-0.7,2.8-0.7,3.3s0.1,0.9,0.4,1.3c0.2,0.4,0.6,0.6,1,0.8
		c0.7,0.3,1.6,0.4,2.7,0.4l-0.4,1.2h-15.8l0.3-1.2c2.2-0.2,3.5-0.4,4-0.6c0.8-0.3,1.5-0.9,2.1-1.6s1.1-2.3,1.8-4.7l4.5-16.3
		c-2.9,4.2-5.6,7.2-8.1,8.9c-1.8,1.2-3.4,1.8-5,1.8c-2.2,0-3.9-0.9-5-2.7c-1.1-1.8-1.7-3.7-1.7-5.8c0-3.3,1-6.8,3.1-10.4
		s4.7-6.6,8.1-9c2.6-1.8,5-2.7,7.1-2.7c1.6,0,2.8,0.4,3.8,1.1c1,0.8,1.8,2,2.3,3.6l1-3.7L393.7,1015.5z M386.2,1021.9
		c0-1.4-0.4-2.5-1.3-3.4c-0.9-0.9-1.9-1.4-3.2-1.4c-2.7,0-5.5,2.3-8.5,6.9c-3,4.6-4.4,9-4.4,13.1c0,1.6,0.4,2.9,1.1,3.7
		c0.7,0.9,1.6,1.3,2.7,1.3c1.4,0,2.9-0.8,4.6-2.3c2.6-2.3,4.7-5.2,6.4-8.7C385.3,1027.6,386.2,1024.5,386.2,1021.9z"/>
	<path class="st7" d="M427.2,1016.3l-5.7,19.7c-0.8,2.9-1.3,4.8-1.3,5.5c0,0.4,0.1,0.7,0.2,0.9c0.1,0.2,0.3,0.3,0.6,0.3
		c0.4,0,0.8-0.2,1.2-0.5c0.5-0.3,1.6-1.7,3.4-4.1l1,0.8c-1.7,2.7-3.5,4.7-5.4,6.1c-1.2,0.8-2.4,1.2-3.5,1.2c-0.9,0-1.5-0.2-2-0.7
		c-0.5-0.5-0.7-1.1-0.7-1.9c0-0.8,0.1-1.8,0.4-3c0.4-1.6,1.4-5.1,3-10.6c-3.7,6.1-6.9,10.4-9.4,12.7c-2.5,2.3-4.8,3.5-7,3.5
		c-1,0-1.9-0.3-2.6-1c-0.7-0.7-1.1-1.6-1.1-2.7c0-1.6,0.5-4.2,1.4-7.6l2.9-10.2c0.7-2.4,1-3.9,1-4.5c0-0.2-0.1-0.5-0.3-0.7
		c-0.2-0.2-0.4-0.3-0.6-0.3c-0.5,0-0.9,0.2-1.4,0.5c-0.5,0.3-1.5,1.5-3.2,3.6l-1-0.7c1.7-2.6,3.4-4.4,5.2-5.7c1.4-1,2.7-1.4,3.9-1.4
		c0.8,0,1.5,0.3,2,0.8c0.5,0.5,0.8,1.2,0.8,2c0,1.2-0.4,3.3-1.3,6.3l-3.1,10.6c-0.8,2.9-1.3,4.8-1.3,5.5c0,0.4,0.1,0.7,0.4,1
		c0.3,0.3,0.6,0.4,1.1,0.4c0.7,0,1.7-0.4,2.8-1.1c1.2-0.7,2.7-2.3,4.7-4.8c1.9-2.5,3.5-4.8,4.8-7c1.3-2.2,2.6-5.7,4-10.4l0.7-2.5
		H427.2z"/>
	<path class="st7" d="M437.2,1032.9c-0.1,1.1-0.2,2-0.2,2.7c0,2,0.7,3.6,2.1,5c1.4,1.4,3.1,2.1,5.1,2.1c1.6,0,3.1-0.3,4.6-1
		c1.5-0.7,3.6-2.1,6.5-4.3l0.7,0.9c-5.2,5.2-10.2,7.7-14.9,7.7c-3.2,0-5.6-1-7.2-3c-1.6-2-2.4-4.2-2.4-6.7c0-3.3,1-6.6,3-10.1
		c2-3.4,4.6-6.1,7.6-8c3-1.9,6.2-2.9,9.4-2.9c2.3,0,4,0.5,5.2,1.4c1.1,1,1.7,2.1,1.7,3.4c0,1.8-0.7,3.6-2.2,5.2
		c-1.9,2.2-4.7,3.9-8.4,5.3C445.1,1031.7,441.7,1032.4,437.2,1032.9z M437.4,1031.3c3.2-0.4,5.9-1,7.9-1.9c2.7-1.2,4.7-2.6,6.1-4.3
		s2-3.3,2-4.8c0-0.9-0.3-1.6-0.9-2.2s-1.4-0.9-2.5-0.9c-2.2,0-4.6,1.2-7.1,3.6C440.5,1023.1,438.6,1026.6,437.4,1031.3z"/>
	<path class="st7" d="M462.7,1017.3l11.4-1.9l-4.8,16c3.8-6.6,7.3-11.2,10.5-13.8c1.8-1.5,3.2-2.3,4.3-2.3c0.7,0,1.3,0.2,1.7,0.7
		c0.4,0.4,0.6,1.1,0.6,1.9c0,1.4-0.4,2.8-1.1,4.1c-0.5,1-1.3,1.5-2.3,1.5c-0.5,0-0.9-0.2-1.3-0.5c-0.4-0.3-0.6-0.8-0.7-1.5
		c0-0.4-0.1-0.7-0.3-0.8c-0.2-0.2-0.4-0.2-0.6-0.2c-0.4,0-0.7,0.1-1.1,0.2c-0.6,0.3-1.4,1.2-2.6,2.6c-1.8,2.2-3.8,4.9-5.9,8.4
		c-0.9,1.4-1.7,3.1-2.4,4.9c-0.9,2.5-1.4,4-1.6,4.5l-1.1,4.1h-5l6.1-20.5c0.7-2.4,1-4.1,1-5.1c0-0.4-0.2-0.7-0.5-1
		c-0.4-0.4-1-0.5-1.7-0.5c-0.5,0-1.3,0.1-2.5,0.3L462.7,1017.3z"/>
	<path class="st7" d="M493.4,1032.9c-0.1,1.1-0.2,2-0.2,2.7c0,2,0.7,3.6,2.1,5c1.4,1.4,3.1,2.1,5.1,2.1c1.6,0,3.1-0.3,4.6-1
		c1.5-0.7,3.6-2.1,6.5-4.3l0.7,0.9c-5.2,5.2-10.2,7.7-14.9,7.7c-3.2,0-5.6-1-7.2-3c-1.6-2-2.4-4.2-2.4-6.7c0-3.3,1-6.6,3-10.1
		c2-3.4,4.6-6.1,7.6-8c3-1.9,6.2-2.9,9.4-2.9c2.3,0,4,0.5,5.2,1.4c1.1,1,1.7,2.1,1.7,3.4c0,1.8-0.7,3.6-2.2,5.2
		c-1.9,2.2-4.7,3.9-8.4,5.3C501.4,1031.7,497.9,1032.4,493.4,1032.9z M493.7,1031.3c3.2-0.4,5.9-1,7.9-1.9c2.7-1.2,4.7-2.6,6.1-4.3
		c1.4-1.7,2-3.3,2-4.8c0-0.9-0.3-1.6-0.9-2.2s-1.4-0.9-2.5-0.9c-2.2,0-4.6,1.2-7.1,3.6C496.8,1023.1,494.9,1026.6,493.7,1031.3z
		 M513.5,999.1l-9.7,11.3h-1.1l3.4-11.3H513.5z"/>
	<path class="st7" d="M530.9,1015.5l-6.5,23.1c-0.4,1.6-0.7,2.5-0.7,2.8c0,0.4,0.1,0.6,0.3,0.9c0.2,0.2,0.4,0.3,0.7,0.3
		c0.4,0,0.8-0.2,1.2-0.5c1.3-1,2.5-2.4,3.8-4.2l1.1,0.8c-1.5,2.3-3.3,4.2-5.3,5.8c-1.5,1.1-2.9,1.7-4.3,1.7c-0.9,0-1.6-0.3-2.2-0.8
		s-0.9-1.2-0.9-2c0-0.8,0.3-2.2,0.8-4.1l4.3-14.8c0.7-2.4,1-3.9,1-4.5c0-0.5-0.2-0.9-0.5-1.2c-0.3-0.3-0.8-0.5-1.4-0.5
		c-0.5,0-1.5,0.1-3,0.4v-1.3L530.9,1015.5z M530.5,1002.4c0.9,0,1.7,0.3,2.3,1c0.6,0.6,0.9,1.4,0.9,2.3s-0.3,1.7-1,2.3
		c-0.6,0.7-1.4,1-2.3,1c-0.9,0-1.7-0.3-2.3-1c-0.7-0.7-1-1.4-1-2.3s0.3-1.7,1-2.3C528.8,1002.7,529.6,1002.4,530.5,1002.4z"/>
	<path class="st7" d="M558.6,1015.5l-2,10.2h-1.2c-0.1-2.9-0.7-5.1-1.9-6.4c-1.1-1.3-2.6-2-4.3-2c-1.3,0-2.4,0.4-3.2,1.1
		c-0.8,0.7-1.2,1.6-1.2,2.7c0,0.7,0.2,1.4,0.5,2.1s1,1.6,2.1,2.8c2.8,3.1,4.7,5.5,5.5,7.1c0.8,1.6,1.2,3.1,1.2,4.5
		c0,2.3-0.9,4.3-2.8,6.1c-1.9,1.8-4.3,2.6-7.2,2.6c-1.6,0-3.4-0.4-5.5-1.1c-0.7-0.3-1.3-0.4-1.7-0.4c-1,0-1.7,0.5-2.3,1.5h-1.2
		l2-10.7h1.2c0.1,3.4,0.8,5.7,2,7.1c1.3,1.4,3,2.1,5.2,2.1c1.7,0,3-0.5,4-1.4s1.5-2.1,1.5-3.4c0-0.9-0.2-1.7-0.5-2.5
		c-0.6-1.3-1.9-3.1-3.9-5.5c-2-2.3-3.2-4.1-3.8-5.2c-0.6-1.2-0.8-2.3-0.8-3.5c0-2.1,0.8-3.9,2.3-5.4c1.6-1.5,3.5-2.2,6-2.2
		c0.7,0,1.4,0.1,1.9,0.2c0.3,0.1,1,0.3,2.1,0.8c1.1,0.4,1.9,0.6,2.3,0.6c0.9,0,1.7-0.5,2.4-1.6H558.6z"/>
	<path class="st7" d="M597.1,998.4l-9.3,32c4-6,7.1-10,9.3-12c2.2-2,4.4-3,6.4-3c1.1,0,1.9,0.4,2.6,1.1c0.7,0.7,1,1.7,1,2.9
		c0,1.4-0.3,3.2-0.9,5.3l-4,13.8c-0.5,1.7-0.8,2.6-0.8,2.8c0,0.3,0.1,0.5,0.3,0.7c0.2,0.2,0.4,0.3,0.7,0.3c0.3,0,0.6-0.1,1-0.4
		c1.3-1,2.5-2.3,3.7-4l1,0.6c-0.8,1.2-1.8,2.5-3.1,3.8c-1.3,1.4-2.5,2.4-3.4,2.9s-1.8,0.8-2.5,0.8c-0.8,0-1.5-0.3-2-0.8
		c-0.5-0.5-0.8-1.2-0.8-2c0-1,0.4-2.8,1.1-5.4l3.8-13.2c0.5-1.7,0.7-3,0.7-3.9c0-0.4-0.1-0.8-0.4-1.1c-0.3-0.3-0.6-0.4-1.1-0.4
		c-0.6,0-1.4,0.2-2.2,0.7c-1.5,0.9-3.2,2.6-5.2,5.2c-0.5,0.7-2.3,3.4-5.3,8.2c-0.9,1.5-1.7,3.2-2.3,5l-2.1,6.8h-5l10.8-37.7l1.1-4.1
		c0-0.6-0.2-1.1-0.7-1.5s-1.1-0.7-1.7-0.7c-0.4,0-1,0.1-1.8,0.2l-0.7,0.1v-1.3L597.1,998.4z"/>
	<path class="st7" d="M642.7,1015.5l-6.4,22.4l-0.7,3c-0.1,0.3-0.1,0.5-0.1,0.7c0,0.4,0.1,0.7,0.3,0.9c0.2,0.2,0.4,0.3,0.7,0.3
		c0.3,0,0.6-0.2,1.1-0.5c0.8-0.6,2-1.9,3.4-3.9l1.1,0.8c-1.5,2.3-3.1,4-4.7,5.2c-1.6,1.2-3.1,1.8-4.5,1.8c-0.9,0-1.6-0.2-2.1-0.7
		s-0.7-1.1-0.7-2c0-1.1,0.2-2.5,0.7-4.3l0.7-2.5c-2.9,3.8-5.5,6.4-7.9,7.9c-1.7,1.1-3.5,1.6-5.1,1.6c-1.6,0-3-0.7-4.2-2
		c-1.2-1.3-1.7-3.1-1.7-5.5c0-3.5,1-7.2,3.1-11.1s4.8-7,8-9.3c2.5-1.9,4.9-2.8,7.1-2.8c1.4,0,2.5,0.4,3.4,1.1c0.9,0.7,1.6,1.9,2,3.5
		l1.2-3.8L642.7,1015.5z M631,1017.2c-1.4,0-2.9,0.7-4.5,2c-2.3,1.9-4.3,4.6-6,8.3c-1.7,3.7-2.6,7-2.6,10c0,1.5,0.4,2.6,1.1,3.5
		c0.8,0.9,1.6,1.3,2.6,1.3c2.4,0,5-1.8,7.8-5.3c3.8-4.7,5.6-9.5,5.6-14.5c0-1.9-0.4-3.2-1.1-4.1
		C633.2,1017.6,632.2,1017.2,631,1017.2z"/>
	<path class="st7" d="M670.8,1038.1c-2.3,2.7-4.6,4.7-6.9,6c-2.3,1.3-4.8,1.9-7.4,1.9c-3.1,0-5.5-0.9-7.3-2.6
		c-1.7-1.7-2.6-4.1-2.6-7.1c0-3.4,0.9-6.7,2.8-9.9c1.9-3.3,4.4-5.9,7.6-7.9c3.2-2,6.3-3,9.3-3c2.4,0,4.2,0.5,5.4,1.5
		c1.2,1,1.8,2.2,1.8,3.7c0,1.4-0.4,2.5-1.3,3.5c-0.6,0.8-1.4,1.1-2.3,1.1c-0.7,0-1.2-0.2-1.7-0.7s-0.7-1-0.7-1.7
		c0-0.4,0.1-0.8,0.2-1.1s0.5-0.8,1-1.3s0.8-0.8,0.9-1.1c0.1-0.2,0.2-0.5,0.2-0.7c0-0.5-0.2-0.8-0.6-1.1c-0.7-0.4-1.6-0.7-2.7-0.7
		c-2.2,0-4.3,0.8-6.4,2.3s-3.9,3.7-5.4,6.4c-1.8,3.4-2.7,6.8-2.7,10.2c0,2.2,0.6,4,1.9,5.3c1.3,1.3,3,2,5.2,2c1.7,0,3.4-0.4,5-1.3
		c1.7-0.8,3.5-2.4,5.6-4.6L670.8,1038.1z"/>
	<path class="st7" d="M682.8,1032.9c-0.1,1.1-0.2,2-0.2,2.7c0,2,0.7,3.6,2.1,5c1.4,1.4,3.1,2.1,5.1,2.1c1.6,0,3.1-0.3,4.6-1
		c1.5-0.7,3.6-2.1,6.5-4.3l0.7,0.9c-5.2,5.2-10.2,7.7-14.9,7.7c-3.2,0-5.6-1-7.2-3c-1.6-2-2.4-4.2-2.4-6.7c0-3.3,1-6.6,3-10.1
		c2-3.4,4.6-6.1,7.6-8c3-1.9,6.2-2.9,9.4-2.9c2.3,0,4,0.5,5.2,1.4c1.1,1,1.7,2.1,1.7,3.4c0,1.8-0.7,3.6-2.2,5.2
		c-1.9,2.2-4.7,3.9-8.4,5.3C690.7,1031.7,687.2,1032.4,682.8,1032.9z M683,1031.3c3.2-0.4,5.9-1,7.9-1.9c2.7-1.2,4.7-2.6,6.1-4.3
		c1.4-1.7,2-3.3,2-4.8c0-0.9-0.3-1.6-0.9-2.2s-1.4-0.9-2.5-0.9c-2.2,0-4.6,1.2-7.1,3.6C686.1,1023.1,684.2,1026.6,683,1031.3z"/>
	<path class="st7" d="M708.2,1017.3l11.4-1.9l-4.7,16c3.8-6.6,7.3-11.2,10.5-13.8c1.8-1.5,3.2-2.3,4.3-2.3c0.7,0,1.3,0.2,1.7,0.7
		s0.6,1.1,0.6,1.9c0,1.4-0.4,2.8-1.1,4.1c-0.5,1-1.3,1.5-2.3,1.5c-0.5,0-0.9-0.2-1.3-0.5c-0.4-0.3-0.6-0.8-0.7-1.5
		c0-0.4-0.1-0.7-0.3-0.8c-0.2-0.2-0.4-0.2-0.6-0.2c-0.4,0-0.7,0.1-1.1,0.2c-0.6,0.3-1.4,1.2-2.6,2.6c-1.8,2.2-3.8,4.9-5.9,8.4
		c-0.9,1.4-1.7,3.1-2.4,4.9c-0.9,2.5-1.4,4-1.6,4.5l-1.1,4.1h-5l6.1-20.5c0.7-2.4,1-4.1,1-5.1c0-0.4-0.2-0.7-0.5-1
		c-0.4-0.4-1-0.5-1.7-0.5c-0.5,0-1.3,0.1-2.5,0.3L708.2,1017.3z"/>
	<path class="st7" d="M745.6,1015.5l-4.3,14.9c1.9-3.5,3.5-6.1,4.9-7.9c2.1-2.7,4.1-4.7,6.1-5.9c1.2-0.7,2.4-1.1,3.6-1.1
		c1.1,0,2,0.4,2.7,1.1c0.7,0.7,1.1,1.6,1.1,2.7s-0.3,2.5-0.8,4.2l-2.3,8.4c3.6-6.7,7-11.4,10.2-14.1c1.8-1.5,3.5-2.3,5.2-2.3
		c1,0,1.8,0.3,2.5,1c0.7,0.7,1,1.8,1,3.2c0,1.3-0.2,2.6-0.6,4.1l-3.6,12.8c-0.8,2.8-1.2,4.4-1.2,4.7c0,0.3,0.1,0.6,0.3,0.8
		c0.1,0.2,0.3,0.2,0.5,0.2s0.6-0.2,1.1-0.6c1.3-1,2.4-2.3,3.5-3.8l1.1,0.7c-0.5,0.9-1.5,2.1-2.9,3.6c-1.4,1.5-2.6,2.6-3.6,3.1
		s-1.9,0.8-2.7,0.8c-0.8,0-1.4-0.3-1.9-0.8s-0.8-1.2-0.8-1.9c0-1.1,0.5-3.2,1.4-6.4l3-10.6c0.7-2.5,1-3.8,1.1-4.1
		c0.1-0.4,0.1-0.8,0.1-1.2c0-0.5-0.1-1-0.4-1.3c-0.3-0.3-0.6-0.5-0.9-0.5c-0.9,0-1.9,0.5-2.9,1.4c-3.1,2.8-5.9,6.7-8.5,11.7
		c-1.7,3.3-3.4,7.6-4.9,12.8h-5l5.7-19.9c0.6-2.2,0.9-3.6,0.9-4.3c0-0.6-0.1-1-0.3-1.3c-0.2-0.3-0.5-0.4-0.9-0.4
		c-0.7,0-1.5,0.3-2.3,0.8c-1.3,0.9-3,2.7-5.1,5.5c-2.1,2.8-3.7,5.5-4.8,8.1c-0.5,1.2-1.9,5.1-3.9,11.6h-4.9l6.1-21.4l0.8-2.7
		c0.2-0.4,0.2-0.8,0.2-0.9c0-0.5-0.2-0.9-0.7-1.3c-0.4-0.4-1-0.6-1.7-0.6c-0.3,0-1.1,0.1-2.4,0.4l-0.3-1.2L745.6,1015.5z"/>
	<path class="st7" d="M787.8,1032.9c-0.1,1.1-0.2,2-0.2,2.7c0,2,0.7,3.6,2.1,5c1.4,1.4,3.1,2.1,5.1,2.1c1.6,0,3.1-0.3,4.6-1
		c1.5-0.7,3.6-2.1,6.5-4.3l0.7,0.9c-5.2,5.2-10.2,7.7-14.9,7.7c-3.2,0-5.6-1-7.2-3c-1.6-2-2.4-4.2-2.4-6.7c0-3.3,1-6.6,3-10.1
		c2-3.4,4.6-6.1,7.6-8c3-1.9,6.2-2.9,9.4-2.9c2.3,0,4,0.5,5.2,1.4c1.1,1,1.7,2.1,1.7,3.4c0,1.8-0.7,3.6-2.2,5.2
		c-1.9,2.2-4.7,3.9-8.4,5.3C795.7,1031.7,792.2,1032.4,787.8,1032.9z M788,1031.3c3.2-0.4,5.9-1,7.9-1.9c2.7-1.2,4.7-2.6,6.1-4.3
		c1.4-1.7,2-3.3,2-4.8c0-0.9-0.3-1.6-0.9-2.2s-1.4-0.9-2.5-0.9c-2.2,0-4.6,1.2-7.1,3.6C791.1,1023.1,789.2,1026.6,788,1031.3z"/>
	<path class="st7" d="M858.4,1016.3l-5.7,19.7c-0.8,2.9-1.3,4.8-1.3,5.5c0,0.4,0.1,0.7,0.2,0.9c0.1,0.2,0.3,0.3,0.6,0.3
		c0.4,0,0.8-0.2,1.2-0.5c0.5-0.3,1.6-1.7,3.4-4.1l1,0.8c-1.7,2.7-3.5,4.7-5.4,6.1c-1.2,0.8-2.4,1.2-3.5,1.2c-0.9,0-1.5-0.2-2-0.7
		s-0.7-1.1-0.7-1.9c0-0.8,0.1-1.8,0.4-3c0.4-1.6,1.4-5.1,3-10.6c-3.7,6.1-6.9,10.4-9.4,12.7c-2.5,2.3-4.8,3.5-7,3.5
		c-1,0-1.9-0.3-2.6-1c-0.7-0.7-1.1-1.6-1.1-2.7c0-1.6,0.5-4.2,1.4-7.6l2.9-10.2c0.7-2.4,1-3.9,1-4.5c0-0.2-0.1-0.5-0.3-0.7
		c-0.2-0.2-0.4-0.3-0.6-0.3c-0.5,0-0.9,0.2-1.4,0.5c-0.5,0.3-1.5,1.5-3.2,3.6l-1-0.7c1.7-2.6,3.4-4.4,5.2-5.7c1.4-1,2.7-1.4,3.9-1.4
		c0.8,0,1.5,0.3,2,0.8c0.5,0.5,0.8,1.2,0.8,2c0,1.2-0.4,3.3-1.3,6.3l-3.1,10.6c-0.8,2.9-1.3,4.8-1.3,5.5c0,0.4,0.1,0.7,0.4,1
		c0.3,0.3,0.6,0.4,1.1,0.4c0.7,0,1.7-0.4,2.8-1.1c1.2-0.7,2.7-2.3,4.7-4.8c1.9-2.5,3.5-4.8,4.8-7c1.3-2.2,2.6-5.7,4-10.4l0.7-2.5
		H858.4z"/>
	<path class="st7" d="M875.2,1015.5l-4.4,15c4.1-6.1,7.2-10.2,9.4-12.1c2.2-1.9,4.3-2.9,6.3-2.9c1.1,0,2,0.4,2.7,1.1
		c0.7,0.7,1.1,1.7,1.1,2.8c0,1.3-0.3,3.1-0.9,5.3l-4,13.9c-0.5,1.6-0.7,2.6-0.7,2.9c0,0.3,0.1,0.6,0.3,0.8c0.2,0.2,0.4,0.3,0.6,0.3
		c0.2,0,0.6-0.1,0.9-0.4c1.2-0.9,2.5-2.3,3.8-4.2l1,0.6c-2,2.9-4,5-5.8,6.3c-1.3,0.8-2.4,1.3-3.4,1.3c-0.8,0-1.5-0.2-1.9-0.7
		s-0.7-1.1-0.7-2c0-1.1,0.4-2.9,1.1-5.4l3.8-13.3c0.5-1.6,0.7-2.9,0.7-3.8c0-0.4-0.1-0.8-0.4-1.1c-0.3-0.3-0.6-0.4-1-0.4
		c-0.6,0-1.3,0.3-2.2,0.8c-1.6,1-3.3,2.6-5.1,4.9c-1.8,2.3-3.6,5.2-5.6,8.7c-1,1.9-1.9,3.9-2.6,6.1l-1.6,5.4h-5l6-20.6
		c0.7-2.5,1.1-4,1.1-4.5s-0.2-0.9-0.6-1.3c-0.4-0.4-0.9-0.6-1.4-0.6c-0.3,0-0.7,0.1-1.4,0.2l-1.3,0.2l-0.2-1.2L875.2,1015.5z"/>
	<path class="st7" d="M914.4,1017.3l11.4-1.9l-4.7,16c3.8-6.6,7.3-11.2,10.5-13.8c1.8-1.5,3.2-2.3,4.3-2.3c0.7,0,1.3,0.2,1.7,0.7
		s0.6,1.1,0.6,1.9c0,1.4-0.4,2.8-1.1,4.1c-0.5,1-1.3,1.5-2.3,1.5c-0.5,0-0.9-0.2-1.3-0.5c-0.4-0.3-0.6-0.8-0.7-1.5
		c0-0.4-0.1-0.7-0.3-0.8c-0.2-0.2-0.4-0.2-0.6-0.2c-0.4,0-0.7,0.1-1.1,0.2c-0.6,0.3-1.4,1.2-2.6,2.6c-1.8,2.2-3.8,4.9-5.9,8.4
		c-0.9,1.4-1.7,3.1-2.4,4.9c-0.9,2.5-1.4,4-1.6,4.5l-1.1,4.1h-5l6.1-20.5c0.7-2.4,1-4.1,1-5.1c0-0.4-0.2-0.7-0.5-1
		c-0.4-0.4-1-0.5-1.7-0.5c-0.5,0-1.3,0.1-2.5,0.3L914.4,1017.3z"/>
	<path class="st7" d="M945.2,1032.9c-0.1,1.1-0.2,2-0.2,2.7c0,2,0.7,3.6,2.1,5c1.4,1.4,3.1,2.1,5.1,2.1c1.6,0,3.1-0.3,4.6-1
		c1.5-0.7,3.6-2.1,6.5-4.3l0.7,0.9c-5.2,5.2-10.2,7.7-14.9,7.7c-3.2,0-5.6-1-7.2-3c-1.6-2-2.4-4.2-2.4-6.7c0-3.3,1-6.6,3-10.1
		c2-3.4,4.6-6.1,7.6-8c3-1.9,6.2-2.9,9.4-2.9c2.3,0,4,0.5,5.2,1.4c1.1,1,1.7,2.1,1.7,3.4c0,1.8-0.7,3.6-2.2,5.2
		c-1.9,2.2-4.7,3.9-8.4,5.3C953.2,1031.7,949.7,1032.4,945.2,1032.9z M945.5,1031.3c3.2-0.4,5.9-1,7.9-1.9c2.7-1.2,4.7-2.6,6.1-4.3
		c1.4-1.7,2-3.3,2-4.8c0-0.9-0.3-1.6-0.9-2.2s-1.4-0.9-2.5-0.9c-2.2,0-4.6,1.2-7.1,3.6C948.5,1023.1,946.7,1026.6,945.5,1031.3z"/>
	<path class="st7" d="M1002.3,1017.5l-0.9,3.4h-5.5c0.4,1.2,0.6,2.3,0.6,3.3c0,2.9-1.2,5.5-3.7,7.8c-2.5,2.2-5.9,3.5-10.2,3.7
		c-2.3,0.7-4.1,1.6-5.2,2.5c-0.4,0.3-0.7,0.7-0.7,1.1c0,0.4,0.2,0.8,0.6,1.2s1.4,0.7,3,1.1l6.4,1.5c3.5,0.8,5.9,1.8,7,2.9
		c1.1,1.2,1.7,2.5,1.7,4c0,1.8-0.7,3.5-2,5c-1.3,1.5-3.3,2.7-5.8,3.5c-2.6,0.8-5.4,1.3-8.5,1.3c-2.7,0-5.2-0.3-7.5-1
		c-2.2-0.7-3.8-1.5-4.8-2.6c-1-1.1-1.5-2.2-1.5-3.4c0-0.9,0.3-1.9,0.9-2.9s1.4-1.9,2.3-2.5c0.6-0.4,2.3-1.4,5-3
		c-1-0.8-1.5-1.7-1.5-2.6c0-0.9,0.5-1.8,1.4-2.8s2.8-2.1,5.7-3.3c-2.4-0.5-4.3-1.5-5.8-3c-1.4-1.6-2.1-3.3-2.1-5.2
		c0-3.1,1.4-5.9,4.1-8.4c2.7-2.5,6.4-3.7,10.9-3.7c1.6,0,3,0.2,4,0.5c1,0.3,2.1,0.9,3.1,1.5H1002.3z M975.1,1045.3
		c-1.8,0.8-3.1,1.9-4,3.1c-0.9,1.3-1.4,2.5-1.4,3.7c0,1.4,0.7,2.6,2,3.6c1.9,1.4,4.7,2,8.3,2c3.1,0,5.8-0.5,8.1-1.6
		c2.2-1.1,3.4-2.4,3.4-4.1c0-0.9-0.4-1.7-1.2-2.5c-0.8-0.8-2.4-1.4-4.8-1.9C984.1,1047.5,980.7,1046.7,975.1,1045.3z M990.9,1022.7
		c0-1.8-0.5-3.2-1.5-4.2c-1-1-2.3-1.5-3.8-1.5c-2.5,0-4.5,1.2-6.1,3.7s-2.4,5.1-2.4,7.8c0,1.7,0.5,3.1,1.5,4.2s2.3,1.6,3.7,1.6
		c1.2,0,2.3-0.3,3.4-1c1.1-0.6,2-1.5,2.7-2.6c0.7-1.1,1.3-2.5,1.8-4.3C990.7,1024.7,990.9,1023.5,990.9,1022.7z"/>
	<path class="st7" d="M1032.6,1015.5l-6.4,22.4l-0.7,3c-0.1,0.3-0.1,0.5-0.1,0.7c0,0.4,0.1,0.7,0.3,0.9c0.2,0.2,0.4,0.3,0.7,0.3
		c0.3,0,0.6-0.2,1.1-0.5c0.8-0.6,2-1.9,3.4-3.9l1.1,0.8c-1.5,2.3-3.1,4-4.7,5.2c-1.6,1.2-3.1,1.8-4.5,1.8c-0.9,0-1.6-0.2-2.1-0.7
		s-0.7-1.1-0.7-2c0-1.1,0.2-2.5,0.7-4.3l0.7-2.5c-2.9,3.8-5.5,6.4-7.9,7.9c-1.7,1.1-3.5,1.6-5.1,1.6c-1.6,0-3-0.7-4.2-2
		c-1.2-1.3-1.7-3.1-1.7-5.5c0-3.5,1-7.2,3.1-11.1s4.8-7,8-9.3c2.5-1.9,4.9-2.8,7.1-2.8c1.4,0,2.5,0.4,3.4,1.1c0.9,0.7,1.6,1.9,2,3.5
		l1.2-3.8L1032.6,1015.5z M1020.8,1017.2c-1.4,0-2.9,0.7-4.5,2c-2.3,1.9-4.3,4.6-6,8.3c-1.7,3.7-2.6,7-2.6,10c0,1.5,0.4,2.6,1.1,3.5
		c0.8,0.9,1.6,1.3,2.6,1.3c2.4,0,5-1.8,7.8-5.3c3.8-4.7,5.6-9.5,5.6-14.5c0-1.9-0.4-3.2-1.1-4.1
		C1023.1,1017.6,1022.1,1017.2,1020.8,1017.2z"/>
	<path class="st7" d="M1054.7,998.4l-11.3,39.2c-0.5,2-0.8,3.2-0.8,3.6c0,0.3,0.1,0.6,0.3,0.8c0.2,0.2,0.5,0.3,0.8,0.3
		c0.4,0,0.9-0.2,1.4-0.6c1.1-0.9,2.3-2.3,3.6-4.2l1,1c-2.1,2.9-4,5-5.8,6.2c-1.3,0.8-2.5,1.2-3.7,1.2c-0.8,0-1.5-0.3-2.1-0.9
		c-0.6-0.6-0.8-1.2-0.8-2c0-0.8,0.3-2.4,1-4.9l9-30.9c0.7-2.5,1.1-4,1.1-4.3c0-0.5-0.2-1-0.6-1.3c-0.4-0.3-1.1-0.5-1.9-0.5
		c-0.5,0-1.3,0.1-2.3,0.2v-1.2L1054.7,998.4z"/>
	<path class="st7" d="M1084.6,1025.8c0,3.3-0.9,6.6-2.6,9.8c-1.7,3.2-4.2,5.8-7.3,7.7c-3.1,1.9-6.1,2.8-9.1,2.8c-3,0-5.5-1-7.4-2.9
		c-1.9-1.9-2.9-4.4-2.9-7.4c0-3.2,0.9-6.5,2.8-9.7c1.9-3.2,4.3-5.8,7.5-7.7c3.1-1.9,6.1-2.8,9-2.8c2.9,0,5.3,1,7.2,2.9
		C1083.7,1020.3,1084.6,1022.7,1084.6,1025.8z M1079.1,1023.5c0-2-0.5-3.6-1.5-4.7c-1-1.1-2.3-1.6-3.9-1.6c-3.2,0-6.2,2.3-8.9,6.9
		c-2.7,4.6-4.1,9.2-4.1,13.8c0,2.1,0.5,3.7,1.6,4.8s2.4,1.7,4,1.7c3.1,0,6-2.3,8.7-6.9C1077.8,1032.9,1079.1,1028.3,1079.1,1023.5z"
		/>
	<path class="st7" d="M1086.4,1052.7c1.6-0.7,3-1.7,4-2.8c0.8-0.9,1.2-1.7,1.2-2.5c0-0.4-0.1-0.8-0.2-1.1c-0.1-0.2-0.4-0.5-0.9-1
		c-0.5-0.5-0.8-0.9-0.9-1.1c-0.1-0.4-0.2-0.8-0.2-1.3c0-1,0.3-1.8,1-2.5c0.6-0.7,1.4-1,2.3-1c0.9,0,1.7,0.4,2.4,1.1
		c0.7,0.7,1,1.6,1,2.7c0,2-0.8,4-2.3,6c-1.5,2-3.8,3.6-6.7,4.6L1086.4,1052.7z"/>
	<path class="st7" d="M328.1,1116.1l-10.8,37.3c-0.5,1.7-0.7,2.8-0.7,3.3s0.1,0.9,0.4,1.3c0.2,0.4,0.6,0.6,1,0.8
		c0.7,0.3,1.6,0.4,2.7,0.4l-0.4,1.2h-15.8l0.3-1.2c2.2-0.2,3.5-0.4,4-0.6c0.8-0.3,1.5-0.9,2.1-1.6s1.1-2.3,1.8-4.7l4.5-16.3
		c-2.9,4.2-5.6,7.2-8.1,8.9c-1.8,1.2-3.4,1.8-5,1.8c-2.2,0-3.9-0.9-5-2.7c-1.1-1.8-1.7-3.7-1.7-5.8c0-3.3,1-6.8,3.1-10.4
		s4.7-6.6,8.1-9c2.6-1.8,5-2.7,7.1-2.7c1.6,0,2.8,0.4,3.8,1.1c1,0.8,1.8,2,2.3,3.6l1-3.7L328.1,1116.1z M320.6,1122.5
		c0-1.4-0.4-2.5-1.3-3.4c-0.9-0.9-1.9-1.4-3.2-1.4c-2.7,0-5.5,2.3-8.5,6.9c-3,4.6-4.4,9-4.4,13.1c0,1.6,0.4,2.9,1.1,3.7
		c0.7,0.9,1.6,1.3,2.7,1.3c1.4,0,2.9-0.8,4.6-2.3c2.6-2.3,4.7-5.2,6.4-8.7C319.7,1128.2,320.6,1125.1,320.6,1122.5z"/>
	<path class="st7" d="M361.6,1116.9l-5.7,19.7c-0.8,2.9-1.3,4.8-1.3,5.5c0,0.4,0.1,0.7,0.2,0.9c0.1,0.2,0.3,0.3,0.6,0.3
		c0.4,0,0.8-0.2,1.2-0.5c0.5-0.3,1.6-1.7,3.4-4.1l1,0.8c-1.7,2.7-3.5,4.7-5.4,6.1c-1.2,0.8-2.4,1.2-3.5,1.2c-0.9,0-1.5-0.2-2-0.7
		c-0.5-0.5-0.7-1.1-0.7-1.9c0-0.8,0.1-1.8,0.4-3c0.4-1.6,1.4-5.1,3-10.6c-3.7,6.1-6.9,10.4-9.4,12.7c-2.5,2.3-4.8,3.5-7,3.5
		c-1,0-1.9-0.3-2.6-1c-0.7-0.7-1.1-1.6-1.1-2.7c0-1.6,0.5-4.2,1.4-7.6l2.9-10.2c0.7-2.4,1-3.9,1-4.5c0-0.2-0.1-0.5-0.3-0.7
		c-0.2-0.2-0.4-0.3-0.6-0.3c-0.5,0-0.9,0.2-1.4,0.5c-0.5,0.3-1.5,1.5-3.2,3.6l-1-0.7c1.7-2.6,3.4-4.4,5.2-5.7c1.4-1,2.7-1.4,3.9-1.4
		c0.8,0,1.5,0.3,2,0.8c0.5,0.5,0.8,1.2,0.8,2c0,1.2-0.4,3.3-1.3,6.3l-3.1,10.6c-0.8,2.9-1.3,4.8-1.3,5.5c0,0.4,0.1,0.7,0.4,1
		c0.3,0.3,0.6,0.4,1.1,0.4c0.7,0,1.7-0.4,2.8-1.1c1.2-0.7,2.7-2.3,4.7-4.8c1.9-2.5,3.5-4.8,4.8-7c1.3-2.2,2.6-5.7,4-10.4l0.7-2.5
		H361.6z"/>
	<path class="st7" d="M371.6,1133.5c-0.1,1.1-0.2,2-0.2,2.7c0,2,0.7,3.6,2.1,5c1.4,1.4,3.1,2.1,5.1,2.1c1.6,0,3.1-0.3,4.6-1
		c1.5-0.7,3.6-2.1,6.5-4.3l0.7,0.9c-5.2,5.2-10.2,7.7-14.9,7.7c-3.2,0-5.6-1-7.2-3c-1.6-2-2.4-4.2-2.4-6.7c0-3.3,1-6.6,3-10.1
		c2-3.4,4.6-6.1,7.6-8c3-1.9,6.2-2.9,9.4-2.9c2.3,0,4,0.5,5.2,1.4c1.1,1,1.7,2.1,1.7,3.4c0,1.8-0.7,3.6-2.2,5.2
		c-1.9,2.2-4.7,3.9-8.4,5.3C379.5,1132.3,376,1133,371.6,1133.5z M371.8,1131.9c3.2-0.4,5.9-1,7.9-1.9c2.7-1.2,4.7-2.6,6.1-4.3
		s2-3.3,2-4.8c0-0.9-0.3-1.6-0.9-2.2s-1.4-0.9-2.5-0.9c-2.2,0-4.6,1.2-7.1,3.6C374.9,1123.7,373,1127.2,371.8,1131.9z"/>
	<path class="st7" d="M434.9,1116.1l-2,10.2h-1.2c-0.1-2.9-0.7-5.1-1.9-6.4c-1.1-1.3-2.6-2-4.3-2c-1.3,0-2.4,0.4-3.2,1.1
		c-0.8,0.7-1.2,1.6-1.2,2.7c0,0.7,0.2,1.4,0.5,2.1c0.3,0.7,1,1.6,2.1,2.8c2.8,3.1,4.7,5.5,5.5,7.1c0.8,1.6,1.2,3.1,1.2,4.5
		c0,2.3-0.9,4.3-2.8,6.1c-1.9,1.8-4.3,2.6-7.2,2.6c-1.6,0-3.4-0.4-5.5-1.1c-0.7-0.3-1.3-0.4-1.7-0.4c-1,0-1.7,0.5-2.3,1.5h-1.2
		l2-10.7h1.2c0.1,3.4,0.8,5.7,2,7.1c1.3,1.4,3,2.1,5.2,2.1c1.7,0,3-0.5,4-1.4c1-0.9,1.5-2.1,1.5-3.4c0-0.9-0.2-1.7-0.5-2.5
		c-0.6-1.3-1.9-3.1-3.9-5.5c-2-2.3-3.2-4.1-3.8-5.2c-0.6-1.2-0.8-2.3-0.8-3.5c0-2.1,0.8-3.9,2.3-5.4c1.6-1.5,3.5-2.2,6-2.2
		c0.7,0,1.4,0.1,1.9,0.2c0.3,0.1,1,0.3,2.1,0.8c1.1,0.4,1.9,0.6,2.3,0.6c0.9,0,1.7-0.5,2.4-1.6H434.9z"/>
	<path class="st7" d="M444.7,1133.5c-0.1,1.1-0.2,2-0.2,2.7c0,2,0.7,3.6,2.1,5c1.4,1.4,3.1,2.1,5.1,2.1c1.6,0,3.1-0.3,4.6-1
		c1.5-0.7,3.6-2.1,6.5-4.3l0.7,0.9c-5.2,5.2-10.2,7.7-14.9,7.7c-3.2,0-5.6-1-7.2-3c-1.6-2-2.4-4.2-2.4-6.7c0-3.3,1-6.6,3-10.1
		c2-3.4,4.6-6.1,7.6-8c3-1.9,6.2-2.9,9.4-2.9c2.3,0,4,0.5,5.2,1.4c1.1,1,1.7,2.1,1.7,3.4c0,1.8-0.7,3.6-2.2,5.2
		c-1.9,2.2-4.7,3.9-8.4,5.3C452.6,1132.3,449.2,1133,444.7,1133.5z M444.9,1131.9c3.2-0.4,5.9-1,7.9-1.9c2.7-1.2,4.7-2.6,6.1-4.3
		s2-3.3,2-4.8c0-0.9-0.3-1.6-0.9-2.2s-1.4-0.9-2.5-0.9c-2.2,0-4.6,1.2-7.1,3.6C448,1123.7,446.1,1127.2,444.9,1131.9z"/>
	<path class="st7" d="M498.3,1116.1l-6.4,22.4l-0.7,3c-0.1,0.3-0.1,0.5-0.1,0.7c0,0.4,0.1,0.7,0.3,0.9c0.2,0.2,0.4,0.3,0.7,0.3
		c0.3,0,0.6-0.2,1.1-0.5c0.8-0.6,2-1.9,3.4-3.9l1.1,0.8c-1.5,2.3-3.1,4-4.7,5.2c-1.6,1.2-3.1,1.8-4.5,1.8c-0.9,0-1.6-0.2-2.1-0.7
		s-0.7-1.1-0.7-2c0-1.1,0.2-2.5,0.7-4.3l0.7-2.5c-2.9,3.8-5.5,6.4-7.9,7.9c-1.7,1.1-3.5,1.6-5.1,1.6c-1.6,0-3-0.7-4.2-2
		c-1.2-1.3-1.7-3.1-1.7-5.5c0-3.5,1-7.2,3.1-11.1s4.8-7,8-9.3c2.5-1.9,4.9-2.8,7.1-2.8c1.4,0,2.5,0.4,3.4,1.1c0.9,0.7,1.6,1.9,2,3.5
		l1.2-3.8L498.3,1116.1z M486.6,1117.8c-1.4,0-2.9,0.7-4.5,2c-2.3,1.9-4.3,4.6-6,8.3c-1.7,3.7-2.6,7-2.6,10c0,1.5,0.4,2.6,1.1,3.5
		c0.8,0.9,1.6,1.3,2.6,1.3c2.4,0,5-1.8,7.8-5.3c3.8-4.7,5.6-9.5,5.6-14.5c0-1.9-0.4-3.2-1.1-4.1
		C488.8,1118.2,487.8,1117.8,486.6,1117.8z"/>
	<path class="st7" d="M537.3,1099l-11.3,39.2c-0.5,2-0.8,3.2-0.8,3.6c0,0.3,0.1,0.6,0.3,0.8c0.2,0.2,0.5,0.3,0.8,0.3
		c0.4,0,0.9-0.2,1.4-0.6c1.1-0.9,2.3-2.3,3.6-4.2l1,1c-2.1,2.9-4,5-5.8,6.2c-1.3,0.8-2.5,1.2-3.7,1.2c-0.8,0-1.5-0.3-2.1-0.9
		c-0.6-0.6-0.8-1.2-0.8-2c0-0.8,0.3-2.4,1-4.9l9-30.9c0.7-2.5,1.1-4,1.1-4.3c0-0.5-0.2-1-0.6-1.3c-0.4-0.3-1.1-0.5-1.9-0.5
		c-0.5,0-1.3,0.1-2.3,0.2v-1.2L537.3,1099z"/>
	<path class="st7" d="M556,1099l-11.3,39.2c-0.5,2-0.8,3.2-0.8,3.6c0,0.3,0.1,0.6,0.3,0.8c0.2,0.2,0.5,0.3,0.8,0.3
		c0.4,0,0.9-0.2,1.4-0.6c1.1-0.9,2.3-2.3,3.6-4.2l1,1c-2.1,2.9-4,5-5.8,6.2c-1.3,0.8-2.5,1.2-3.7,1.2c-0.8,0-1.5-0.3-2.1-0.9
		c-0.6-0.6-0.8-1.2-0.8-2c0-0.8,0.3-2.4,1-4.9l9-30.9c0.7-2.5,1.1-4,1.1-4.3c0-0.5-0.2-1-0.6-1.3c-0.4-0.3-1.1-0.5-1.9-0.5
		c-0.5,0-1.3,0.1-2.3,0.2v-1.2L556,1099z"/>
	<path class="st7" d="M586.5,1116.9l-5.7,19.7c-0.8,2.9-1.3,4.8-1.3,5.5c0,0.4,0.1,0.7,0.2,0.9c0.1,0.2,0.3,0.3,0.6,0.3
		c0.4,0,0.8-0.2,1.2-0.5c0.5-0.3,1.6-1.7,3.4-4.1l1,0.8c-1.7,2.7-3.5,4.7-5.4,6.1c-1.2,0.8-2.4,1.2-3.5,1.2c-0.9,0-1.5-0.2-2-0.7
		s-0.7-1.1-0.7-1.9c0-0.8,0.1-1.8,0.4-3c0.4-1.6,1.4-5.1,3-10.6c-3.7,6.1-6.9,10.4-9.4,12.7c-2.5,2.3-4.8,3.5-7,3.5
		c-1,0-1.9-0.3-2.6-1c-0.7-0.7-1.1-1.6-1.1-2.7c0-1.6,0.5-4.2,1.4-7.6l2.9-10.2c0.7-2.4,1-3.9,1-4.5c0-0.2-0.1-0.5-0.3-0.7
		c-0.2-0.2-0.4-0.3-0.6-0.3c-0.5,0-0.9,0.2-1.4,0.5c-0.5,0.3-1.5,1.5-3.2,3.6l-1-0.7c1.7-2.6,3.4-4.4,5.2-5.7c1.4-1,2.7-1.4,3.9-1.4
		c0.8,0,1.5,0.3,2,0.8c0.5,0.5,0.8,1.2,0.8,2c0,1.2-0.4,3.3-1.3,6.3l-3.1,10.6c-0.8,2.9-1.3,4.8-1.3,5.5c0,0.4,0.1,0.7,0.4,1
		c0.3,0.3,0.6,0.4,1.1,0.4c0.7,0,1.7-0.4,2.8-1.1c1.2-0.7,2.7-2.3,4.7-4.8c1.9-2.5,3.5-4.8,4.8-7c1.3-2.2,2.6-5.7,4-10.4l0.7-2.5
		H586.5z"/>
	<path class="st7" d="M589.9,1118.1l9.5-2c0.7,1.6,1.2,3.3,1.6,5c0.6,2.5,1.1,5.4,1.5,8.8c0.2,1.7,0.4,5.3,0.7,10.8
		c2.8-3,4.4-4.9,4.9-5.6c2.9-3.9,4.6-6.2,5-6.9c0.7-1.2,1.2-2.2,1.5-3.1c0.2-0.7,0.4-1.3,0.4-1.9c0-0.6-0.5-1.2-1.5-2
		c-1-0.8-1.5-1.6-1.5-2.5c0-0.7,0.3-1.3,0.8-1.9c0.6-0.6,1.2-0.8,2-0.8c0.9,0,1.7,0.4,2.4,1.1s1,1.7,1,2.8c0,1.1-0.2,2.2-0.5,3.2
		c-0.5,1.7-1.6,3.7-3.2,6.1c-1.6,2.4-4.1,5.6-7.6,9.7c-0.4,0.5-2.9,3-7.3,7.6h-1.2c-0.5-13.9-1.7-22.6-3.3-26
		c-0.5-1.1-1.5-1.7-2.7-1.7c-0.5,0-1.3,0.1-2.3,0.3L589.9,1118.1z"/>
	<path class="st7" d="M634,1116.1l-6.5,23.1c-0.4,1.6-0.7,2.5-0.7,2.8c0,0.4,0.1,0.6,0.3,0.9c0.2,0.2,0.4,0.3,0.7,0.3
		c0.4,0,0.8-0.2,1.2-0.5c1.3-1,2.5-2.4,3.8-4.2l1.1,0.8c-1.5,2.3-3.3,4.2-5.3,5.8c-1.5,1.1-2.9,1.7-4.3,1.7c-0.9,0-1.6-0.3-2.2-0.8
		s-0.9-1.2-0.9-2c0-0.8,0.3-2.2,0.8-4.1l4.3-14.8c0.7-2.4,1-3.9,1-4.5c0-0.5-0.2-0.9-0.5-1.2c-0.3-0.3-0.8-0.5-1.4-0.5
		c-0.5,0-1.5,0.1-3,0.4v-1.3L634,1116.1z M633.5,1103c0.9,0,1.7,0.3,2.3,1c0.6,0.6,0.9,1.4,0.9,2.3s-0.3,1.7-1,2.3
		c-0.6,0.7-1.4,1-2.3,1c-0.9,0-1.7-0.3-2.3-1c-0.7-0.7-1-1.4-1-2.3s0.3-1.7,1-2.3C631.8,1103.3,632.6,1103,633.5,1103z"/>
	<path class="st7" d="M668.9,1116.1l-6.4,22.4l-0.7,3c-0.1,0.3-0.1,0.5-0.1,0.7c0,0.4,0.1,0.7,0.3,0.9c0.2,0.2,0.4,0.3,0.7,0.3
		c0.3,0,0.6-0.2,1.1-0.5c0.8-0.6,2-1.9,3.4-3.9l1.1,0.8c-1.5,2.3-3.1,4-4.7,5.2c-1.6,1.2-3.1,1.8-4.5,1.8c-0.9,0-1.6-0.2-2.1-0.7
		s-0.7-1.1-0.7-2c0-1.1,0.2-2.5,0.7-4.3l0.7-2.5c-2.9,3.8-5.5,6.4-7.9,7.9c-1.7,1.1-3.5,1.6-5.1,1.6c-1.6,0-3-0.7-4.2-2
		c-1.2-1.3-1.7-3.1-1.7-5.5c0-3.5,1-7.2,3.1-11.1s4.8-7,8-9.3c2.5-1.9,4.9-2.8,7.1-2.8c1.4,0,2.5,0.4,3.4,1.1c0.9,0.7,1.6,1.9,2,3.5
		l1.2-3.8L668.9,1116.1z M657.1,1117.8c-1.4,0-2.9,0.7-4.5,2c-2.3,1.9-4.3,4.6-6,8.3c-1.7,3.7-2.6,7-2.6,10c0,1.5,0.4,2.6,1.1,3.5
		c0.8,0.9,1.6,1.3,2.6,1.3c2.4,0,5-1.8,7.8-5.3c3.8-4.7,5.6-9.5,5.6-14.5c0-1.9-0.4-3.2-1.1-4.1
		C659.4,1118.2,658.4,1117.8,657.1,1117.8z"/>
	<path class="st7" d="M724.3,1099l-11.3,38.9c-0.6,2.1-0.9,3.5-0.9,4.2c0,0.2,0.1,0.4,0.3,0.6c0.2,0.2,0.4,0.3,0.6,0.3
		c0.3,0,0.6-0.1,1-0.4c0.8-0.5,2-1.9,3.8-4l1.1,0.7c-1.6,2.2-3.2,4-4.8,5.3c-1.6,1.4-3.1,2-4.5,2c-0.8,0-1.4-0.3-1.9-0.8
		s-0.7-1.3-0.7-2.3c0-1.3,0.3-2.9,1-5l1.3-4.1c-3.2,4.9-6.1,8.4-8.7,10.2c-1.8,1.3-3.5,1.9-5.2,1.9c-1.7,0-3.2-0.7-4.4-2.2
		c-1.2-1.5-1.9-3.5-1.9-6.1c0-3.3,1-6.8,3.1-10.5s4.9-6.7,8.3-9c2.7-1.9,5.2-2.8,7.5-2.8c1.2,0,2.2,0.2,3.1,0.7
		c0.9,0.5,1.7,1.3,2.6,2.4l3.2-11.5c0.2-0.8,0.4-1.5,0.6-2c0.3-0.9,0.4-1.6,0.4-2.2c0-0.5-0.2-0.8-0.5-1.1c-0.5-0.4-1.1-0.6-1.8-0.6
		c-0.5,0-1.3,0.1-2.5,0.2v-1.2L724.3,1099z M712.1,1122.5c0-1.4-0.4-2.6-1.2-3.4c-0.8-0.8-1.8-1.3-3.1-1.3c-2.8,0-5.7,2.3-8.7,6.8
		c-3,4.6-4.5,8.9-4.5,13.1c0,1.7,0.4,2.9,1.1,3.8c0.7,0.9,1.6,1.3,2.6,1.3c2.3,0,5.2-2.5,8.6-7.4
		C710.4,1130.5,712.1,1126.1,712.1,1122.5z"/>
	<path class="st7" d="M729.6,1133.5c-0.1,1.1-0.2,2-0.2,2.7c0,2,0.7,3.6,2.1,5c1.4,1.4,3.1,2.1,5.1,2.1c1.6,0,3.1-0.3,4.6-1
		c1.5-0.7,3.6-2.1,6.5-4.3l0.7,0.9c-5.2,5.2-10.2,7.7-14.9,7.7c-3.2,0-5.6-1-7.2-3c-1.6-2-2.4-4.2-2.4-6.7c0-3.3,1-6.6,3-10.1
		c2-3.4,4.6-6.1,7.6-8c3-1.9,6.2-2.9,9.4-2.9c2.3,0,4,0.5,5.2,1.4c1.1,1,1.7,2.1,1.7,3.4c0,1.8-0.7,3.6-2.2,5.2
		c-1.9,2.2-4.7,3.9-8.4,5.3C737.5,1132.3,734,1133,729.6,1133.5z M729.8,1131.9c3.2-0.4,5.9-1,7.9-1.9c2.7-1.2,4.7-2.6,6.1-4.3
		c1.4-1.7,2-3.3,2-4.8c0-0.9-0.3-1.6-0.9-2.2s-1.4-0.9-2.5-0.9c-2.2,0-4.6,1.2-7.1,3.6C732.9,1123.7,731,1127.2,729.8,1131.9z"/>
	<path class="st7" d="M792.8,1116.1l-2,10.2h-1.2c-0.1-2.9-0.7-5.1-1.9-6.4c-1.1-1.3-2.6-2-4.3-2c-1.3,0-2.4,0.4-3.2,1.1
		c-0.8,0.7-1.2,1.6-1.2,2.7c0,0.7,0.2,1.4,0.5,2.1s1,1.6,2.1,2.8c2.8,3.1,4.7,5.5,5.5,7.1c0.8,1.6,1.2,3.1,1.2,4.5
		c0,2.3-0.9,4.3-2.8,6.1c-1.9,1.8-4.3,2.6-7.2,2.6c-1.6,0-3.4-0.4-5.5-1.1c-0.7-0.3-1.3-0.4-1.7-0.4c-1,0-1.7,0.5-2.3,1.5h-1.2
		l2-10.7h1.2c0.1,3.4,0.8,5.7,2,7.1c1.3,1.4,3,2.1,5.2,2.1c1.7,0,3-0.5,4-1.4s1.5-2.1,1.5-3.4c0-0.9-0.2-1.7-0.5-2.5
		c-0.6-1.3-1.9-3.1-3.9-5.5c-2-2.3-3.2-4.1-3.8-5.2c-0.6-1.2-0.8-2.3-0.8-3.5c0-2.1,0.8-3.9,2.3-5.4c1.6-1.5,3.5-2.2,6-2.2
		c0.7,0,1.4,0.1,1.9,0.2c0.3,0.1,1,0.3,2.1,0.8c1.1,0.4,1.9,0.6,2.3,0.6c0.9,0,1.7-0.5,2.4-1.6H792.8z"/>
	<path class="st7" d="M825.8,1126.4c0,3.3-0.9,6.6-2.6,9.8c-1.7,3.2-4.2,5.8-7.3,7.7c-3.1,1.9-6.1,2.8-9.1,2.8c-3,0-5.5-1-7.4-2.9
		c-1.9-1.9-2.9-4.4-2.9-7.4c0-3.2,0.9-6.5,2.8-9.7c1.9-3.2,4.3-5.8,7.5-7.7c3.1-1.9,6.1-2.8,9-2.8c2.9,0,5.3,1,7.2,2.9
		C824.9,1120.9,825.8,1123.4,825.8,1126.4z M820.4,1124.1c0-2-0.5-3.6-1.5-4.7c-1-1.1-2.3-1.6-3.9-1.6c-3.2,0-6.2,2.3-8.9,6.9
		c-2.7,4.6-4.1,9.2-4.1,13.8c0,2.1,0.5,3.7,1.6,4.8s2.4,1.7,4,1.7c3.1,0,6-2.3,8.7-6.9C819,1133.6,820.4,1128.9,820.4,1124.1z"/>
	<path class="st7" d="M847.9,1099l-6.5,22.8c2.1-2.2,3.9-3.7,5.5-4.5c1.6-0.8,3.2-1.2,4.9-1.2c2.4,0,4.4,0.8,6,2.4
		c1.5,1.6,2.3,3.8,2.3,6.6c0,3.5-1,7-3.1,10.5c-2,3.5-4.6,6.2-7.6,8.2c-3,2-6.1,2.9-9,2.9c-3.3,0-6.7-1.2-10.2-3.7l10-34.5
		c0.8-2.7,1.1-4.2,1.1-4.7c0-0.6-0.2-1-0.5-1.3c-0.5-0.4-1.2-0.6-2.2-0.6c-0.5,0-1.2,0.1-2.1,0.2v-1.3L847.9,1099z M835.1,1143.3
		c2.2,1.2,4.1,1.8,5.8,1.8c1.9,0,3.9-0.7,6-2.1c2.1-1.4,3.9-3.8,5.4-7.2s2.3-6.8,2.3-10.2c0-2-0.5-3.6-1.5-4.7
		c-1-1.1-2.2-1.7-3.5-1.7c-2,0-4.1,0.8-6,2.5c-2,1.6-3.4,3.9-4.2,6.8L835.1,1143.3z"/>
	<path class="st7" d="M865.6,1118l11.4-1.9l-4.7,16c3.8-6.6,7.3-11.2,10.5-13.8c1.8-1.5,3.2-2.3,4.3-2.3c0.7,0,1.3,0.2,1.7,0.7
		s0.6,1.1,0.6,1.9c0,1.4-0.4,2.8-1.1,4.1c-0.5,1-1.3,1.5-2.3,1.5c-0.5,0-0.9-0.2-1.3-0.5c-0.4-0.3-0.6-0.8-0.7-1.5
		c0-0.4-0.1-0.7-0.3-0.8c-0.2-0.2-0.4-0.2-0.6-0.2c-0.4,0-0.7,0.1-1.1,0.2c-0.6,0.3-1.4,1.2-2.6,2.6c-1.8,2.2-3.8,4.9-5.9,8.4
		c-0.9,1.4-1.7,3.1-2.4,4.9c-0.9,2.5-1.4,4-1.6,4.5l-1.1,4.1h-5l6.1-20.5c0.7-2.4,1-4.1,1-5.1c0-0.4-0.2-0.7-0.5-1
		c-0.4-0.4-1-0.5-1.7-0.5c-0.5,0-1.3,0.1-2.5,0.3L865.6,1118z"/>
	<path class="st7" d="M896.4,1133.5c-0.1,1.1-0.2,2-0.2,2.7c0,2,0.7,3.6,2.1,5c1.4,1.4,3.1,2.1,5.1,2.1c1.6,0,3.1-0.3,4.6-1
		c1.5-0.7,3.6-2.1,6.5-4.3l0.7,0.9c-5.2,5.2-10.2,7.7-14.9,7.7c-3.2,0-5.6-1-7.2-3c-1.6-2-2.4-4.2-2.4-6.7c0-3.3,1-6.6,3-10.1
		c2-3.4,4.6-6.1,7.6-8c3-1.9,6.2-2.9,9.4-2.9c2.3,0,4,0.5,5.2,1.4c1.1,1,1.7,2.1,1.7,3.4c0,1.8-0.7,3.6-2.2,5.2
		c-1.9,2.2-4.7,3.9-8.4,5.3C904.4,1132.3,900.9,1133,896.4,1133.5z M896.7,1131.9c3.2-0.4,5.9-1,7.9-1.9c2.7-1.2,4.7-2.6,6.1-4.3
		c1.4-1.7,2-3.3,2-4.8c0-0.9-0.3-1.6-0.9-2.2s-1.4-0.9-2.5-0.9c-2.2,0-4.6,1.2-7.1,3.6C899.7,1123.7,897.9,1127.2,896.7,1131.9z"/>
	<path class="st7" d="M942.9,1116.1l-2,10.2h-1.2c-0.1-2.9-0.7-5.1-1.9-6.4c-1.1-1.3-2.6-2-4.3-2c-1.3,0-2.4,0.4-3.2,1.1
		c-0.8,0.7-1.2,1.6-1.2,2.7c0,0.7,0.2,1.4,0.5,2.1s1,1.6,2.1,2.8c2.8,3.1,4.7,5.5,5.5,7.1c0.8,1.6,1.2,3.1,1.2,4.5
		c0,2.3-0.9,4.3-2.8,6.1c-1.9,1.8-4.3,2.6-7.2,2.6c-1.6,0-3.4-0.4-5.5-1.1c-0.7-0.3-1.3-0.4-1.7-0.4c-1,0-1.7,0.5-2.3,1.5h-1.2
		l2-10.7h1.2c0.1,3.4,0.8,5.7,2,7.1c1.3,1.4,3,2.1,5.2,2.1c1.7,0,3-0.5,4-1.4s1.5-2.1,1.5-3.4c0-0.9-0.2-1.7-0.5-2.5
		c-0.6-1.3-1.9-3.1-3.9-5.5c-2-2.3-3.2-4.1-3.8-5.2c-0.6-1.2-0.8-2.3-0.8-3.5c0-2.1,0.8-3.9,2.3-5.4c1.6-1.5,3.5-2.2,6-2.2
		c0.7,0,1.4,0.1,1.9,0.2c0.3,0.1,1,0.3,2.1,0.8c1.1,0.4,1.9,0.6,2.3,0.6c0.9,0,1.7-0.5,2.4-1.6H942.9z"/>
	<path class="st7" d="M953.1,1140.3c1,0,1.8,0.3,2.4,1c0.7,0.7,1,1.4,1,2.4c0,0.9-0.3,1.7-1,2.4c-0.7,0.7-1.5,1-2.4,1
		c-0.9,0-1.7-0.3-2.4-1c-0.7-0.7-1-1.5-1-2.4c0-0.9,0.3-1.7,1-2.4C951.4,1140.6,952.2,1140.3,953.1,1140.3z M955.3,1135H954
		c1.1-4,1.9-7,2.3-9.1c0.4-2.1,0.9-4.8,1.5-8.2c1.1-7,1.8-11.1,2-12.2c0.4-2,1.2-3.5,2.2-4.5c0.5-0.5,1.1-0.8,1.9-0.8
		c0.6,0,1.2,0.2,1.6,0.7s0.6,1.1,0.6,2c0,0.9-0.2,2-0.6,3.4c-0.9,3-2.7,8-5.3,14.9c-1.3,3.3-2,5.1-2.1,5.5
		C957.6,1127.9,956.7,1130.7,955.3,1135z"/>
</g>
<g>
	<g>
		<path class="st7" d="M640.3,1304.7c-4.7-2.3-17.6-8.7-14.5-16.4c2.9-7.2,11.3,1,13.3,4.6c0.9-4.4,1.1-7.5,5.7-9.7
			c4.5-2.1,9.3-1.6,10.3,3.7c1.5,7.3-8.7,13.7-13.2,18.3"/>
	</g>
	<g>
		<path class="st7" d="M549.6,1254.3l13.8,58.1c4.6,19.3,9.1,38.7,13.6,58l-1.5-0.7c12.5-6,25.3-11.3,38.3-16.2s26.2-9.2,39.5-12.9
			c13.4-3.7,26.9-6.8,40.6-8.9c6.9-1.1,13.8-1.9,20.7-2.4s13.9-0.7,20.9-0.6l-1.2,1.5l-23-107.5l1.3,0.9l-81.3,15.5L549.6,1254.3
			L549.6,1254.3z M548.4,1253.4l81.7-16.2l82-16c0.6-0.1,1.2,0.3,1.3,0.9l23.3,107.5c0.1,0.7-0.3,1.3-1,1.5c-0.1,0-0.2,0-0.3,0l0,0
			c-6.9-0.1-13.7,0.1-20.6,0.6c-6.9,0.6-13.7,1.3-20.5,2.4c-13.6,2.1-27.1,5.1-40.4,8.8c-13.3,3.7-26.4,8-39.4,12.8
			c-12.9,4.8-25.7,10.1-38.1,16l0,0c-0.5,0.2-1.1,0-1.4-0.5c0-0.1-0.1-0.1-0.1-0.2c-4.5-19.6-9-39.2-13.4-58.8L548.4,1253.4
			L548.4,1253.4z"/>
	</g>
	<g>
		<path class="st7" d="M549.4,1253.2l22.9,11.5l22.8,11.6l45.6,23.3l-1.5,0.3c5.8-6.8,11.7-13.4,17.6-20c5.9-6.6,11.9-13.2,18-19.7
			c6-6.5,12.2-13,18.3-19.4c6.2-6.4,12.5-12.7,18.8-19c0.3-0.3,0.8-0.3,1.1,0c0.3,0.3,0.3,0.8,0,1.1l0,0
			c-6.2,6.4-12.3,12.8-18.4,19.3c-6.1,6.5-12.1,13-18.1,19.6s-12,13.1-17.9,19.8c-5.9,6.6-11.8,13.3-17.6,20l0,0
			c-0.4,0.4-1,0.5-1.5,0.3l-45.5-23.6l-22.7-11.8l-22.6-11.9c-0.3-0.2-0.5-0.6-0.3-1S549,1253.1,549.4,1253.2z"/>
	</g>
	<g>
		<g>
			<path class="st7" d="M639.1,1304.9c-4.5-2.2-9.4-4.7-12.6-8.6c-1.6-2-2.5-4.4-1.4-6.9c1.2-2.5,3.5-2.1,5.5-0.9
				c2.3,1.4,4.5,3.5,5.8,5.9c0.4,0.7,1.7,0.6,1.8-0.2c0.5-2.7,0.8-5.7,3-7.6c2-1.8,5.8-3.2,8.4-2.1c2.7,1.1,3.2,4.6,2.4,7.2
				c-0.9,2.8-3.1,5.2-5.3,7.2c-2.4,2.3-5,4.3-7.4,6.7c-0.9,0.9,0.5,2.3,1.4,1.4c2.5-2.5,5.3-4.6,7.8-7c2.4-2.4,4.9-5.2,5.6-8.6
				c0.7-3.1-0.3-6.9-3.3-8.5s-6.9-0.5-9.6,1.2c-3.6,2.2-4.3,5.8-5,9.7c0.6-0.1,1.2-0.2,1.8-0.2c-1.4-2.5-3.6-4.6-6-6.2
				c-2.2-1.5-5.3-2.6-7.5-0.6s-2.6,5.5-1.5,8.1c1.2,2.9,3.7,5.1,6.2,6.9c2.7,2,5.7,3.5,8.7,5
				C639.2,1307.2,640.2,1305.5,639.1,1304.9L639.1,1304.9z"/>
		</g>
	</g>
	<g>
		<g>
			<path class="st7" d="M559.4,1275.1c2.1,8,3.9,16,6,24c0.2,0.8,1.4,0.4,1.2-0.3c-2.1-8-4-16-6-24
				C560.4,1274,559.2,1274.3,559.4,1275.1L559.4,1275.1z"/>
		</g>
	</g>
	<g>
		<g>
			<path class="st7" d="M569.5,1317.9c0.6,2.1,0.9,4.4,1.3,6.6c0.5,2.3,1,4.7,1.6,7c1.1,4.6,2.4,9.3,3.8,13.8
				c0.2,0.8,1.4,0.4,1.2-0.3c-1.4-4.6-2.7-9.2-3.8-13.8c-0.6-2.3-1.1-4.6-1.6-7c-0.5-2.2-0.7-4.4-1.3-6.6
				C570.5,1316.8,569.3,1317.2,569.5,1317.9L569.5,1317.9z"/>
		</g>
	</g>
	<g>
		<g>
			<path class="st7" d="M706.9,1324.2c-5.6-0.4-11.2,0.3-16.8,1.1c-7.1,1-14.2,2.5-21.2,4.1c-14.8,3.5-29.4,7.7-43.7,12.6
				c-6,2-11.9,4.1-17.7,6.6c-0.7,0.3-0.4,1.5,0.3,1.2c11.6-4.9,23.7-8.7,35.8-12.3c14.4-4.3,29.1-8.2,44-10.6
				c6.3-1,12.9-1.9,19.3-1.5C707.7,1325.5,707.7,1324.2,706.9,1324.2L706.9,1324.2z"/>
		</g>
	</g>
	<line class="st8" x1="678.1" y1="1235.9" x2="586" y2="1254"/>
	<g>
		<g>
			<path class="st7" d="M725.9,1321c-0.5-7.4-3.2-14.4-5-21.5c-0.2-0.8-1.4-0.4-1.2,0.3c1.8,7,4.6,13.9,5,21.2
				C724.7,1321.8,726,1321.8,725.9,1321L725.9,1321z"/>
		</g>
	</g>
	<g>
		<g>
			<path class="st7" d="M719.4,1285.2c-4.1-13-5.7-26.6-8-40c-0.2-0.9-1.6-0.5-1.4,0.4c2.3,13.4,3.9,27,8,40
				C718.2,1286.5,719.7,1286.1,719.4,1285.2L719.4,1285.2z"/>
		</g>
	</g>
	<g>
		<g>
			<path class="st9" d="M701.2,1303.6c0.8,0,0.8-1.2,0-1.2C700.4,1302.3,700.4,1303.6,701.2,1303.6L701.2,1303.6z"/>
		</g>
	</g>
	<g>
		<g>
			<path class="st9" d="M696.9,1277.2c0.8,0,0.8-1.2,0-1.2C696.1,1275.9,696.1,1277.2,696.9,1277.2L696.9,1277.2z"/>
		</g>
	</g>
	<g>
		<g>
			<path class="st9" d="M676.1,1288c0.8,0,0.8-1.2,0-1.2C675.3,1286.8,675.3,1288,676.1,1288L676.1,1288z"/>
		</g>
	</g>
	<g>
		<g>
			<path class="st9" d="M670.2,1315.4c0.1,0.2,0.2,0.4,0.4,0.6c0,0.1,0.1,0.1,0.2,0.2c0.1,0.1,0.1,0.1,0.2,0.1c0.1,0,0.2,0,0.2,0
				c0.1,0,0.2,0,0.2-0.1l0.1-0.1c0.1-0.1,0.1-0.2,0.2-0.3c0-0.1,0-0.1,0-0.2c0-0.1,0-0.2-0.1-0.3c-0.1-0.2-0.2-0.4-0.4-0.6
				c0-0.1-0.1-0.1-0.2-0.2c-0.1-0.1-0.1-0.1-0.2-0.1c-0.1,0-0.2,0-0.2,0c-0.1,0-0.2,0-0.2,0.1l-0.1,0.1c-0.1,0.1-0.1,0.2-0.2,0.3
				c0,0.1,0,0.1,0,0.2S670.2,1315.3,670.2,1315.4L670.2,1315.4z"/>
		</g>
	</g>
	<g>
		<g>
			<path class="st9" d="M633.6,1327.7c0.8,0,0.8-1.2,0-1.2C632.8,1326.5,632.8,1327.7,633.6,1327.7L633.6,1327.7z"/>
		</g>
	</g>
	<g>
		<g>
			<path class="st9" d="M607.7,1306.8c0.8,0,0.8-1.2,0-1.2S606.9,1306.8,607.7,1306.8L607.7,1306.8z"/>
		</g>
	</g>
	<g>
		<g>
			<path class="st9" d="M595.1,1334.2c0.2,0,0.3,0.1,0.5,0.1c0.1,0,0.2,0,0.2,0c0.1,0,0.2,0,0.2-0.1c0.1,0,0.1-0.1,0.2-0.2
				c0.1-0.1,0.1-0.1,0.1-0.2c0-0.1,0-0.1,0-0.2s0-0.2-0.1-0.3l-0.1-0.1c-0.1-0.1-0.2-0.1-0.3-0.2c-0.2,0-0.3-0.1-0.5-0.1
				c-0.1,0-0.2,0-0.2,0c-0.1,0-0.2,0-0.2,0.1c-0.1,0-0.1,0.1-0.2,0.2c-0.1,0.1-0.1,0.1-0.1,0.2c0,0.1,0,0.1,0,0.2s0,0.2,0.1,0.3
				l0.1,0.1C594.9,1334.1,595,1334.2,595.1,1334.2L595.1,1334.2z"/>
		</g>
	</g>
	<g>
		<g>
			<path class="st9" d="M578.2,1292c0.1,0.2,0.2,0.4,0.4,0.6c0,0.1,0.1,0.1,0.2,0.2c0.1,0.1,0.1,0.1,0.2,0.1c0.1,0,0.2,0,0.2,0
				c0.1,0,0.2,0,0.2-0.1l0.1-0.1c0.1-0.1,0.1-0.2,0.2-0.3c0-0.1,0-0.1,0-0.2s0-0.2-0.1-0.3c-0.1-0.2-0.2-0.4-0.4-0.6
				c0-0.1-0.1-0.1-0.2-0.2c-0.1-0.1-0.1-0.1-0.2-0.1c-0.1,0-0.2,0-0.2,0c-0.1,0-0.2,0-0.2,0.1l-0.1,0.1c-0.1,0.1-0.1,0.2-0.2,0.3
				c0,0.1,0,0.1,0,0.2C578.1,1291.8,578.1,1291.9,578.2,1292L578.2,1292z"/>
		</g>
	</g>
	<g>
		<g>
			<path class="st9" d="M670,1247.7c0.8,0,0.8-1.2,0-1.2S669.2,1247.7,670,1247.7L670,1247.7z"/>
		</g>
	</g>
	<g>
		<g>
			<path class="st9" d="M645.7,1254.1c0.8,0,0.8-1.2,0-1.2C644.9,1252.8,644.9,1254.1,645.7,1254.1L645.7,1254.1z"/>
		</g>
	</g>
	<g>
		<g>
			<path class="st9" d="M645.8,1272.3c0.8,0,0.8-1.2,0-1.2C645,1271,645,1272.3,645.8,1272.3L645.8,1272.3z"/>
		</g>
	</g>
	<g>
		<g>
			<path class="st9" d="M613.4,1260.4c0.1,0.2,0.2,0.4,0.4,0.6c0,0.1,0.1,0.1,0.2,0.2c0.1,0.1,0.1,0.1,0.2,0.1c0.1,0,0.2,0,0.2,0
				c0.1,0,0.2,0,0.2-0.1l0.1-0.1c0.1-0.1,0.1-0.2,0.2-0.3c0-0.1,0-0.1,0-0.2c0-0.1,0-0.2-0.1-0.3c-0.1-0.2-0.2-0.4-0.4-0.6
				c0-0.1-0.1-0.1-0.2-0.2c-0.1-0.1-0.1-0.1-0.2-0.1c-0.1,0-0.2,0-0.2,0c-0.1,0-0.2,0-0.2,0.1l-0.1,0.1c-0.1,0.1-0.1,0.2-0.2,0.3
				c0,0.1,0,0.1,0,0.2C613.4,1260.2,613.4,1260.3,613.4,1260.4L613.4,1260.4z"/>
		</g>
	</g>
</g>
</svg>
