<?xml version="1.0" encoding="utf-8"?>
<!-- Generator: Adobe Illustrator 25.4.1, SVG Export Plug-In . SVG Version: 6.00 Build 0)  -->
<svg version="1.1" id="texto" xmlns="http://www.w3.org/2000/svg" xmlns:xlink="http://www.w3.org/1999/xlink" x="0px" y="0px"
	 viewBox="0 0 1245.1 2206.7" style="enable-background:new 0 0 1245.1 2206.7;" xml:space="preserve">
<style type="text/css">
	.st0{enable-background:new    ;}
	.st1{fill:#808384;}
	.st2{fill:#C0DFDD;}
	.st3{fill-rule:evenodd;clip-rule:evenodd;fill:#808384;}
	.st4{fill:none;}
</style>
<g>
	<g class="st0">
		<path class="st1" d="M427.4,895.5H441c3.6,0,6.3,0.8,8.1,2.3c1.8,1.5,2.7,3.4,2.7,5.7c0,1.8-0.6,3.5-1.7,5.1c-1.1,1.7-2.8,3-5,4
			s-4.6,1.5-7.2,1.5c-1.6,0-3.7-0.3-6.1-0.9l-2.7,9.5c-0.7,2.2-1,3.7-1,4.5c0,0.6,0.2,1,0.7,1.4c0.5,0.4,1.6,0.6,3.3,0.7l-0.3,1
			h-13.8l0.3-1c1.8,0,3.1-0.3,3.8-0.9c0.7-0.6,1.5-2.3,2.3-5.1l5.8-19.8c0.7-2.4,1-4,1-4.8c0-0.6-0.2-1.1-0.7-1.5
			c-0.5-0.4-1.6-0.6-3.2-0.7L427.4,895.5z M432.1,911.7c1.9,0.5,3.5,0.8,4.7,0.8c1.8,0,3.5-0.4,5.1-1.2c1.5-0.8,2.7-1.9,3.6-3.5
			c0.9-1.5,1.3-3.1,1.3-4.8c0-1.7-0.5-3.1-1.6-4.1c-1.1-1-2.7-1.5-4.8-1.5c-1.2,0-2.6,0.1-4.2,0.4L432.1,911.7z"/>
		<path class="st1" d="M475.5,915.1c0,2.6-0.7,5.1-2,7.6c-1.4,2.5-3.2,4.5-5.7,6c-2.4,1.5-4.8,2.2-7.1,2.2c-2.3,0-4.2-0.7-5.7-2.2
			c-1.5-1.5-2.2-3.4-2.2-5.8c0-2.5,0.7-5.1,2.2-7.6c1.4-2.5,3.4-4.5,5.8-6c2.4-1.5,4.8-2.2,7-2.2c2.3,0,4.1,0.7,5.6,2.2
			C474.7,910.8,475.5,912.7,475.5,915.1z M471.2,913.3c0-1.6-0.4-2.8-1.2-3.7c-0.8-0.8-1.8-1.3-3-1.3c-2.5,0-4.8,1.8-6.9,5.4
			c-2.1,3.6-3.2,7.2-3.2,10.7c0,1.6,0.4,2.9,1.2,3.7s1.9,1.3,3.1,1.3c2.4,0,4.7-1.8,6.8-5.4C470.2,920.6,471.2,917,471.2,913.3z"/>
		<path class="st1" d="M480.2,908.5l8.9-1.5l-3.7,12.5c3-5.1,5.7-8.7,8.1-10.7c1.4-1.2,2.5-1.8,3.4-1.8c0.6,0,1,0.2,1.3,0.5
			c0.3,0.3,0.5,0.8,0.5,1.5c0,1.1-0.3,2.2-0.9,3.2c-0.4,0.8-1,1.1-1.8,1.1c-0.4,0-0.7-0.1-1-0.4c-0.3-0.3-0.5-0.6-0.5-1.2
			c0-0.3-0.1-0.5-0.2-0.6c-0.1-0.1-0.3-0.2-0.5-0.2c-0.3,0-0.6,0.1-0.8,0.2c-0.4,0.2-1.1,0.9-2,2c-1.4,1.7-3,3.8-4.6,6.5
			c-0.7,1.1-1.3,2.4-1.8,3.8c-0.7,2-1.1,3.1-1.2,3.5l-0.8,3.2h-3.9l4.7-15.9c0.5-1.8,0.8-3.2,0.8-3.9c0-0.3-0.1-0.6-0.4-0.8
			c-0.3-0.3-0.8-0.4-1.3-0.4c-0.4,0-1,0.1-2,0.2L480.2,908.5z"/>
		<path class="st1" d="M526.6,907.7l-0.5,1.7h-3.7l-2.8,11.2c-1.3,4.9-2.5,8.7-3.8,11.5c-1.8,3.8-3.7,6.4-5.8,7.9
			c-1.6,1.1-3.1,1.7-4.7,1.7c-1,0-1.9-0.3-2.6-0.9c-0.5-0.4-0.8-1-0.8-1.7c0-0.6,0.2-1,0.7-1.4c0.4-0.4,1-0.6,1.6-0.6
			c0.5,0,0.9,0.1,1.2,0.4c0.3,0.3,0.5,0.6,0.5,1s-0.2,0.7-0.5,1.1c-0.3,0.2-0.4,0.4-0.4,0.5c0,0.1,0.1,0.3,0.2,0.4
			c0.1,0.1,0.4,0.2,0.7,0.2c0.7,0,1.5-0.2,2.3-0.7c0.8-0.5,1.5-1.2,2.2-2.1s1.2-2.2,1.8-3.9c0.2-0.7,0.9-3.1,1.9-7.1l4.5-17.4h-4.5
			l0.4-1.7c1.4,0,2.4-0.1,3-0.3c0.6-0.2,1.1-0.6,1.5-1.1c0.5-0.6,1.1-1.6,1.8-3.1c1-2,2-3.6,2.9-4.7c1.3-1.5,2.6-2.7,4-3.4
			c1.4-0.8,2.7-1.1,3.9-1.1c1.3,0,2.3,0.3,3.1,1c0.8,0.7,1.2,1.4,1.2,2.1c0,0.6-0.2,1.1-0.6,1.5c-0.4,0.4-0.9,0.6-1.5,0.6
			c-0.5,0-1-0.2-1.3-0.5c-0.3-0.3-0.5-0.7-0.5-1.1c0-0.3,0.1-0.6,0.3-1c0.2-0.4,0.3-0.7,0.3-0.8c0-0.2-0.1-0.4-0.2-0.5
			c-0.2-0.2-0.5-0.3-1-0.3c-1.1,0-2,0.3-2.9,1c-1.1,0.9-2.2,2.3-3.1,4.3c-0.5,1-1.3,3.5-2.5,7.5H526.6z"/>
		<path class="st1" d="M550.2,907l-5,17.4l-0.6,2.4c0,0.2-0.1,0.4-0.1,0.5c0,0.3,0.1,0.5,0.3,0.7c0.1,0.1,0.3,0.2,0.5,0.2
			c0.2,0,0.5-0.1,0.9-0.4c0.7-0.5,1.5-1.5,2.7-3.1l0.9,0.6c-1.2,1.8-2.4,3.1-3.6,4.1c-1.3,0.9-2.4,1.4-3.5,1.4
			c-0.7,0-1.3-0.2-1.6-0.5c-0.4-0.4-0.6-0.9-0.6-1.6c0-0.8,0.2-2,0.6-3.3l0.5-1.9c-2.2,2.9-4.3,5-6.2,6.1c-1.4,0.8-2.7,1.2-4,1.2
			c-1.3,0-2.3-0.5-3.2-1.5c-0.9-1-1.4-2.4-1.4-4.2c0-2.7,0.8-5.6,2.4-8.6c1.6-3,3.7-5.4,6.2-7.2c2-1.4,3.8-2.2,5.5-2.2
			c1.1,0,1.9,0.3,2.6,0.8c0.7,0.6,1.2,1.5,1.6,2.7l0.9-2.9L550.2,907z M541.1,908.4c-1.1,0-2.2,0.5-3.5,1.6
			c-1.8,1.4-3.3,3.6-4.7,6.4c-1.4,2.9-2,5.4-2,7.8c0,1.1,0.3,2.1,0.9,2.7c0.6,0.7,1.3,1,2,1c1.8,0,3.9-1.4,6-4.1
			c2.9-3.7,4.4-7.4,4.4-11.2c0-1.4-0.3-2.5-0.8-3.2C542.8,908.7,542.1,908.4,541.1,908.4z"/>
		<path class="st1" d="M552.9,908.6l7.4-1.6c0.5,1.3,1,2.6,1.3,3.9c0.5,1.9,0.8,4.2,1.1,6.9c0.1,1.3,0.3,4.1,0.5,8.4
			c2.1-2.4,3.4-3.8,3.8-4.4c2.3-3.1,3.6-4.8,3.9-5.4c0.6-0.9,0.9-1.7,1.2-2.4c0.2-0.5,0.3-1,0.3-1.5c0-0.4-0.4-1-1.2-1.5
			c-0.8-0.6-1.2-1.2-1.2-2c0-0.5,0.2-1,0.7-1.4c0.4-0.4,0.9-0.7,1.5-0.7c0.7,0,1.4,0.3,1.9,0.9c0.5,0.6,0.8,1.3,0.8,2.2
			s-0.1,1.7-0.4,2.5c-0.4,1.3-1.2,2.9-2.5,4.7c-1.2,1.9-3.2,4.4-5.9,7.5c-0.3,0.4-2.2,2.4-5.7,5.9h-0.9c-0.4-10.8-1.3-17.6-2.6-20.2
			c-0.4-0.9-1.1-1.3-2.1-1.3c-0.4,0-1,0.1-1.8,0.3L552.9,908.6z"/>
		<path class="st1" d="M599.4,915.1c0,2.6-0.7,5.1-2,7.6c-1.4,2.5-3.2,4.5-5.7,6c-2.4,1.5-4.8,2.2-7.1,2.2c-2.3,0-4.2-0.7-5.7-2.2
			c-1.5-1.5-2.2-3.4-2.2-5.8c0-2.5,0.7-5.1,2.2-7.6c1.4-2.5,3.4-4.5,5.8-6c2.4-1.5,4.8-2.2,7-2.2c2.3,0,4.1,0.7,5.6,2.2
			C598.6,910.8,599.4,912.7,599.4,915.1z M595.1,913.3c0-1.6-0.4-2.8-1.2-3.7c-0.8-0.8-1.8-1.3-3-1.3c-2.5,0-4.8,1.8-6.9,5.4
			c-2.1,3.6-3.2,7.2-3.2,10.7c0,1.6,0.4,2.9,1.2,3.7s1.9,1.3,3.1,1.3c2.4,0,4.7-1.8,6.8-5.4C594.1,920.6,595.1,917,595.1,913.3z"/>
		<path class="st1" d="M604.1,908.5l8.9-1.5l-3.7,12.5c3-5.1,5.7-8.7,8.1-10.7c1.4-1.2,2.5-1.8,3.4-1.8c0.6,0,1,0.2,1.3,0.5
			c0.3,0.3,0.5,0.8,0.5,1.5c0,1.1-0.3,2.2-0.9,3.2c-0.4,0.8-1,1.1-1.8,1.1c-0.4,0-0.7-0.1-1-0.4c-0.3-0.3-0.5-0.6-0.5-1.2
			c0-0.3-0.1-0.5-0.2-0.6c-0.1-0.1-0.3-0.2-0.5-0.2c-0.3,0-0.6,0.1-0.8,0.2c-0.4,0.2-1.1,0.9-2,2c-1.4,1.7-3,3.8-4.6,6.5
			c-0.7,1.1-1.3,2.4-1.8,3.8c-0.7,2-1.1,3.1-1.2,3.5l-0.8,3.2h-3.9l4.7-15.9c0.5-1.8,0.8-3.2,0.8-3.9c0-0.3-0.1-0.6-0.4-0.8
			c-0.3-0.3-0.8-0.4-1.3-0.4c-0.4,0-1,0.1-2,0.2L604.1,908.5z"/>
		<path class="st1" d="M621.2,936c1.3-0.6,2.3-1.3,3.1-2.2c0.6-0.7,0.9-1.3,0.9-2c0-0.3-0.1-0.6-0.2-0.9c-0.1-0.1-0.3-0.4-0.7-0.8
			c-0.4-0.4-0.6-0.7-0.7-0.8c-0.1-0.3-0.2-0.6-0.2-1c0-0.7,0.2-1.4,0.7-1.9c0.5-0.5,1.1-0.8,1.8-0.8c0.7,0,1.3,0.3,1.9,0.8
			c0.5,0.6,0.8,1.3,0.8,2.1c0,1.5-0.6,3.1-1.8,4.6s-2.9,2.8-5.2,3.6L621.2,936z"/>
		<path class="st1" d="M668.3,924.7c-1.8,2.1-3.6,3.7-5.4,4.7s-3.7,1.5-5.7,1.5c-2.4,0-4.3-0.7-5.7-2c-1.4-1.4-2-3.2-2-5.5
			c0-2.6,0.7-5.2,2.2-7.7c1.5-2.5,3.4-4.6,5.9-6.2c2.5-1.6,4.9-2.4,7.3-2.4c1.9,0,3.3,0.4,4.2,1.2c0.9,0.8,1.4,1.7,1.4,2.9
			c0,1.1-0.3,2-1,2.7c-0.5,0.6-1.1,0.9-1.8,0.9c-0.5,0-1-0.2-1.3-0.5c-0.4-0.3-0.5-0.8-0.5-1.3c0-0.3,0.1-0.6,0.2-0.9
			c0.1-0.3,0.4-0.6,0.8-1c0.4-0.4,0.6-0.7,0.7-0.8c0.1-0.2,0.1-0.3,0.1-0.5c0-0.4-0.2-0.7-0.5-0.9c-0.5-0.3-1.2-0.5-2.1-0.5
			c-1.7,0-3.3,0.6-5,1.8c-1.6,1.2-3.1,2.8-4.2,5c-1.4,2.6-2.1,5.3-2.1,7.9c0,1.7,0.5,3.1,1.5,4.1c1,1,2.3,1.5,4,1.5
			c1.3,0,2.6-0.3,3.9-1c1.3-0.7,2.7-1.8,4.3-3.6L668.3,924.7z"/>
		<path class="st1" d="M695.6,915.1c0,2.6-0.7,5.1-2,7.6c-1.4,2.5-3.2,4.5-5.7,6c-2.4,1.5-4.8,2.2-7.1,2.2c-2.3,0-4.2-0.7-5.7-2.2
			c-1.5-1.5-2.2-3.4-2.2-5.8c0-2.5,0.7-5.1,2.2-7.6c1.4-2.5,3.4-4.5,5.8-6c2.4-1.5,4.8-2.2,7-2.2c2.3,0,4.1,0.7,5.6,2.2
			S695.6,912.7,695.6,915.1z M691.3,913.3c0-1.6-0.4-2.8-1.2-3.7c-0.8-0.8-1.8-1.3-3-1.3c-2.5,0-4.8,1.8-6.9,5.4
			c-2.1,3.6-3.2,7.2-3.2,10.7c0,1.6,0.4,2.9,1.2,3.7c0.8,0.9,1.9,1.3,3.1,1.3c2.4,0,4.7-1.8,6.8-5.4
			C690.3,920.6,691.3,917,691.3,913.3z"/>
		<path class="st1" d="M709.1,907l-3.4,11.7c3.2-4.8,5.6-7.9,7.3-9.4c1.7-1.5,3.3-2.3,4.9-2.3c0.8,0,1.5,0.3,2.1,0.9
			s0.8,1.3,0.8,2.2c0,1-0.2,2.4-0.7,4.1l-3.1,10.8c-0.4,1.3-0.5,2-0.5,2.3c0,0.2,0.1,0.4,0.2,0.6s0.3,0.2,0.4,0.2
			c0.2,0,0.4-0.1,0.7-0.3c0.9-0.7,1.9-1.8,3-3.3l0.8,0.5c-1.6,2.3-3.1,3.9-4.5,4.9c-1,0.7-1.9,1-2.7,1c-0.6,0-1.1-0.2-1.5-0.6
			c-0.4-0.4-0.6-0.9-0.6-1.5c0-0.8,0.3-2.2,0.9-4.2l3-10.3c0.4-1.3,0.5-2.3,0.5-3c0-0.3-0.1-0.6-0.3-0.8c-0.2-0.2-0.5-0.3-0.8-0.3
			c-0.5,0-1,0.2-1.7,0.6c-1.3,0.8-2.6,2-3.9,3.8c-1.4,1.8-2.8,4-4.3,6.8c-0.8,1.5-1.5,3.1-2,4.8l-1.3,4.2h-3.9l4.7-16
			c0.6-1.9,0.8-3.1,0.8-3.5s-0.2-0.7-0.5-1c-0.3-0.3-0.7-0.4-1.1-0.4c-0.2,0-0.6,0-1.1,0.1l-1,0.1l-0.2-0.9L709.1,907z"/>
		<path class="st1" d="M739.3,907.7l-0.5,1.7h-3.7l-2.8,11.2c-1.3,4.9-2.5,8.7-3.8,11.5c-1.8,3.8-3.7,6.4-5.8,7.9
			c-1.6,1.1-3.1,1.7-4.7,1.7c-1,0-1.9-0.3-2.6-0.9c-0.5-0.4-0.8-1-0.8-1.7c0-0.6,0.2-1,0.7-1.4c0.4-0.4,1-0.6,1.6-0.6
			c0.5,0,0.9,0.1,1.2,0.4c0.3,0.3,0.5,0.6,0.5,1s-0.2,0.7-0.5,1.1c-0.3,0.2-0.4,0.4-0.4,0.5c0,0.1,0.1,0.3,0.2,0.4
			c0.1,0.1,0.4,0.2,0.7,0.2c0.7,0,1.5-0.2,2.3-0.7c0.8-0.5,1.5-1.2,2.2-2.1s1.2-2.2,1.8-3.9c0.2-0.7,0.9-3.1,1.9-7.1l4.5-17.4h-4.5
			l0.4-1.7c1.4,0,2.4-0.1,3-0.3c0.6-0.2,1.1-0.6,1.5-1.1c0.5-0.6,1.1-1.6,1.8-3.1c1-2,2-3.6,2.9-4.7c1.3-1.5,2.6-2.7,4-3.4
			c1.4-0.8,2.7-1.1,3.9-1.1c1.3,0,2.3,0.3,3.1,1c0.8,0.7,1.2,1.4,1.2,2.1c0,0.6-0.2,1.1-0.6,1.5c-0.4,0.4-0.9,0.6-1.5,0.6
			c-0.5,0-1-0.2-1.3-0.5c-0.3-0.3-0.5-0.7-0.5-1.1c0-0.3,0.1-0.6,0.3-1c0.2-0.4,0.3-0.7,0.3-0.8c0-0.2-0.1-0.4-0.2-0.5
			c-0.2-0.2-0.5-0.3-1-0.3c-1.1,0-2,0.3-2.9,1c-1.1,0.9-2.2,2.3-3.1,4.3c-0.5,1-1.3,3.5-2.5,7.5H739.3z"/>
		<path class="st1" d="M750.4,907l-5.1,18c-0.3,1.2-0.5,1.9-0.5,2.2c0,0.3,0.1,0.5,0.2,0.7s0.3,0.3,0.6,0.3c0.3,0,0.6-0.1,0.9-0.4
			c1-0.8,2-1.9,3-3.3l0.9,0.6c-1.2,1.8-2.5,3.3-4.1,4.5c-1.1,0.9-2.2,1.3-3.3,1.3c-0.7,0-1.3-0.2-1.7-0.6c-0.4-0.4-0.7-0.9-0.7-1.6
			s0.2-1.7,0.6-3.2l3.3-11.5c0.5-1.9,0.8-3,0.8-3.5c0-0.4-0.1-0.7-0.4-0.9c-0.3-0.2-0.6-0.4-1.1-0.4c-0.4,0-1.2,0.1-2.4,0.3v-1
			L750.4,907z M750.1,896.9c0.7,0,1.3,0.2,1.8,0.7c0.5,0.5,0.7,1.1,0.7,1.8s-0.2,1.3-0.7,1.8c-0.5,0.5-1.1,0.8-1.8,0.8
			c-0.7,0-1.3-0.3-1.8-0.8c-0.5-0.5-0.8-1.1-0.8-1.8s0.2-1.3,0.7-1.8C748.8,897.1,749.4,896.9,750.1,896.9z"/>
		<path class="st1" d="M755.7,908.5l8.9-1.5l-3.7,12.5c3-5.1,5.7-8.7,8.1-10.7c1.4-1.2,2.5-1.8,3.4-1.8c0.6,0,1,0.2,1.3,0.5
			c0.3,0.3,0.5,0.8,0.5,1.5c0,1.1-0.3,2.2-0.9,3.2c-0.4,0.8-1,1.1-1.8,1.1c-0.4,0-0.7-0.1-1-0.4c-0.3-0.3-0.5-0.6-0.5-1.2
			c0-0.3-0.1-0.5-0.2-0.6c-0.1-0.1-0.3-0.2-0.5-0.2c-0.3,0-0.6,0.1-0.8,0.2c-0.4,0.2-1.1,0.9-2,2c-1.4,1.7-3,3.8-4.6,6.5
			c-0.7,1.1-1.3,2.4-1.8,3.8c-0.7,2-1.1,3.1-1.2,3.5l-0.8,3.2H754l4.7-15.9c0.5-1.8,0.8-3.2,0.8-3.9c0-0.3-0.1-0.6-0.4-0.8
			c-0.3-0.3-0.8-0.4-1.3-0.4c-0.4,0-1,0.1-2,0.2L755.7,908.5z"/>
		<path class="st1" d="M784.7,907l-3.3,11.6c1.5-2.7,2.7-4.8,3.8-6.1c1.6-2.1,3.2-3.7,4.7-4.6c0.9-0.6,1.9-0.8,2.8-0.8
			c0.8,0,1.6,0.3,2.1,0.8c0.6,0.6,0.9,1.3,0.9,2.1s-0.2,1.9-0.6,3.3l-1.8,6.5c2.8-5.2,5.4-8.9,7.9-11c1.4-1.2,2.7-1.8,4.1-1.8
			c0.8,0,1.4,0.3,1.9,0.8c0.5,0.5,0.8,1.4,0.8,2.5c0,1-0.2,2-0.5,3.2l-2.8,10c-0.6,2.2-0.9,3.4-0.9,3.6s0.1,0.4,0.2,0.6
			c0.1,0.1,0.2,0.2,0.4,0.2c0.2,0,0.5-0.2,0.9-0.5c1-0.8,1.9-1.8,2.7-3l0.9,0.5c-0.4,0.7-1.2,1.6-2.3,2.8c-1.1,1.2-2,2-2.8,2.4
			c-0.8,0.4-1.5,0.6-2.1,0.6c-0.6,0-1.1-0.2-1.5-0.6c-0.4-0.4-0.6-0.9-0.6-1.5c0-0.8,0.3-2.5,1.1-5l2.3-8.2c0.5-1.9,0.8-3,0.8-3.2
			c0.1-0.3,0.1-0.7,0.1-1c0-0.4-0.1-0.8-0.3-1c-0.2-0.3-0.4-0.4-0.7-0.4c-0.7,0-1.5,0.4-2.3,1.1c-2.4,2.2-4.6,5.2-6.6,9.1
			c-1.4,2.6-2.6,5.9-3.8,9.9h-3.9l4.4-15.5c0.5-1.7,0.7-2.8,0.7-3.3c0-0.5-0.1-0.8-0.3-1c-0.2-0.2-0.4-0.3-0.7-0.3
			c-0.6,0-1.2,0.2-1.8,0.6c-1,0.7-2.3,2.1-3.9,4.3c-1.6,2.2-2.9,4.3-3.8,6.3c-0.4,0.9-1.4,3.9-3.1,9h-3.8l4.7-16.6l0.6-2.1
			c0.1-0.3,0.2-0.6,0.2-0.7c0-0.4-0.2-0.7-0.5-1c-0.3-0.3-0.8-0.4-1.3-0.4c-0.2,0-0.8,0.1-1.8,0.3l-0.2-1L784.7,907z"/>
		<path class="st1" d="M835.9,907l-5,17.4l-0.6,2.4c0,0.2-0.1,0.4-0.1,0.5c0,0.3,0.1,0.5,0.3,0.7c0.1,0.1,0.3,0.2,0.5,0.2
			s0.5-0.1,0.9-0.4c0.7-0.5,1.5-1.5,2.7-3.1l0.9,0.6c-1.2,1.8-2.4,3.1-3.6,4.1c-1.3,0.9-2.4,1.4-3.5,1.4c-0.7,0-1.3-0.2-1.6-0.5
			c-0.4-0.4-0.6-0.9-0.6-1.6c0-0.8,0.2-2,0.6-3.3l0.5-1.9c-2.2,2.9-4.3,5-6.2,6.1c-1.4,0.8-2.7,1.2-4,1.2c-1.3,0-2.3-0.5-3.2-1.5
			c-0.9-1-1.4-2.4-1.4-4.2c0-2.7,0.8-5.6,2.4-8.6c1.6-3,3.7-5.4,6.2-7.2c2-1.4,3.8-2.2,5.5-2.2c1.1,0,1.9,0.3,2.6,0.8
			c0.7,0.6,1.2,1.5,1.6,2.7l0.9-2.9L835.9,907z M826.8,908.4c-1.1,0-2.2,0.5-3.5,1.6c-1.8,1.4-3.3,3.6-4.7,6.4c-1.4,2.9-2,5.4-2,7.8
			c0,1.1,0.3,2.1,0.9,2.7c0.6,0.7,1.3,1,2,1c1.8,0,3.9-1.4,6-4.1c2.9-3.7,4.4-7.4,4.4-11.2c0-1.4-0.3-2.5-0.8-3.2
			C828.5,908.7,827.8,908.4,826.8,908.4z"/>
	</g>
	<g class="st0">
		<path class="st1" d="M513,982.9l-2,7h4l-0.4,1.6h-4l-4.4,15.1c-0.5,1.6-0.7,2.7-0.7,3.2c0,0.3,0.1,0.5,0.2,0.7s0.3,0.2,0.5,0.2
			c0.4,0,1-0.3,1.7-0.9c0.4-0.3,1.3-1.4,2.8-3.2l0.8,0.7c-1.6,2.3-3.1,3.9-4.5,4.8c-1,0.6-1.9,1-2.9,1c-0.7,0-1.4-0.2-1.8-0.7
			s-0.7-1.1-0.7-1.8c0-0.9,0.3-2.3,0.8-4.2l4.3-14.8h-3.9l0.3-1c1.9-0.5,3.5-1.3,4.7-2.3s2.6-2.8,4.2-5.3H513z"/>
		<path class="st1" d="M538.6,989.9l-4.5,15.3c-0.7,2.3-1,3.7-1,4.3c0,0.3,0.1,0.5,0.2,0.7c0.1,0.1,0.3,0.2,0.4,0.2
			c0.3,0,0.6-0.1,1-0.4c0.4-0.3,1.2-1.3,2.6-3.2l0.8,0.6c-1.4,2.1-2.7,3.7-4.2,4.7c-0.9,0.6-1.8,1-2.7,1c-0.7,0-1.2-0.2-1.6-0.6
			c-0.4-0.4-0.6-0.9-0.6-1.4s0.1-1.4,0.3-2.3c0.3-1.3,1.1-4,2.4-8.2c-2.9,4.8-5.3,8.1-7.3,9.9c-2,1.8-3.8,2.7-5.4,2.7
			c-0.8,0-1.5-0.3-2-0.8c-0.6-0.5-0.8-1.2-0.8-2.1c0-1.3,0.4-3.2,1.1-5.9l2.3-7.9c0.5-1.9,0.8-3.1,0.8-3.5c0-0.2-0.1-0.4-0.2-0.5
			c-0.1-0.1-0.3-0.2-0.5-0.2c-0.4,0-0.7,0.1-1.1,0.4c-0.4,0.3-1.2,1.2-2.5,2.8l-0.8-0.5c1.3-2,2.7-3.5,4.1-4.4
			c1.1-0.7,2.1-1.1,3-1.1c0.6,0,1.2,0.2,1.6,0.6c0.4,0.4,0.6,0.9,0.6,1.6c0,0.9-0.3,2.6-1,4.9l-2.4,8.3c-0.7,2.3-1,3.7-1,4.3
			c0,0.3,0.1,0.6,0.3,0.8c0.2,0.2,0.5,0.3,0.9,0.3c0.6,0,1.3-0.3,2.2-0.8s2.1-1.8,3.6-3.8c1.5-1.9,2.8-3.8,3.7-5.5s2-4.4,3.1-8.1
			l0.6-1.9H538.6z"/>
		<path class="st1" d="M564.9,989.2l-1.8,5.9c1.9-2.2,3.5-3.7,5-4.6s2.9-1.3,4.5-1.3c1.5,0,2.8,0.6,3.9,1.8c1.1,1.2,1.6,2.8,1.6,4.7
			c0,3.8-1.5,7.6-4.6,11.5s-6.6,5.8-10.7,5.8c-0.8,0-1.6-0.1-2.3-0.3c-0.7-0.2-1.4-0.5-2.2-1l-1.9,6.6c-0.4,1.3-0.6,2.1-0.6,2.5
			s0.1,0.7,0.3,1c0.2,0.3,0.5,0.5,1,0.6s1.3,0.2,2.6,0.2l-0.2,1h-12.1l0.3-1c1.6-0.1,2.7-0.3,3.2-0.8s1.1-1.8,1.8-4l6.5-22.4
			c0.4-1.4,0.6-2.3,0.6-2.6c0-0.5-0.1-0.8-0.4-1.1c-0.3-0.3-0.7-0.4-1.2-0.4c-0.5,0-1.2,0.1-2.1,0.2v-1L564.9,989.2z M558.9,1009.7
			c1.1,1.3,2.5,1.9,4.3,1.9c0.9,0,1.8-0.2,2.7-0.7c0.9-0.5,1.8-1.2,2.7-2.2c0.9-1,1.7-2.1,2.4-3.4c0.7-1.3,1.3-2.8,1.9-4.5
			c0.6-1.7,0.8-3.4,0.8-5.1c0-1.4-0.3-2.4-0.9-3.1s-1.4-1.1-2.2-1.1c-1.8,0-3.7,1.1-5.5,3.2c-1.8,2.1-3.1,4.6-4,7.4L558.9,1009.7z"
			/>
		<path class="st1" d="M582.2,990.7l8.9-1.5l-3.7,12.5c3-5.1,5.7-8.7,8.1-10.7c1.4-1.2,2.5-1.8,3.4-1.8c0.6,0,1,0.2,1.3,0.5
			c0.3,0.3,0.5,0.8,0.5,1.5c0,1.1-0.3,2.2-0.9,3.2c-0.4,0.8-1,1.1-1.8,1.1c-0.4,0-0.7-0.1-1-0.4c-0.3-0.3-0.5-0.6-0.5-1.2
			c0-0.3-0.1-0.5-0.2-0.6c-0.1-0.1-0.3-0.2-0.5-0.2c-0.3,0-0.6,0.1-0.8,0.2c-0.4,0.2-1.1,0.9-2,2c-1.4,1.7-3,3.8-4.6,6.5
			c-0.7,1.1-1.3,2.4-1.8,3.8c-0.7,2-1.1,3.1-1.2,3.5l-0.8,3.2h-3.9l4.7-15.9c0.5-1.8,0.8-3.2,0.8-3.9c0-0.3-0.1-0.6-0.4-0.8
			c-0.3-0.3-0.8-0.4-1.3-0.4c-0.4,0-1,0.1-2,0.2L582.2,990.7z"/>
		<path class="st1" d="M606.2,1002.8c-0.1,0.8-0.2,1.5-0.2,2.1c0,1.5,0.5,2.8,1.6,3.9c1.1,1.1,2.4,1.6,3.9,1.6
			c1.2,0,2.4-0.3,3.5-0.8c1.1-0.5,2.8-1.6,5-3.3l0.5,0.7c-4.1,4-7.9,6-11.6,6c-2.5,0-4.4-0.8-5.6-2.4c-1.3-1.6-1.9-3.3-1.9-5.2
			c0-2.5,0.8-5.2,2.4-7.8c1.6-2.7,3.5-4.7,5.9-6.2c2.4-1.5,4.8-2.2,7.3-2.2c1.8,0,3.1,0.4,4,1.1c0.9,0.7,1.3,1.6,1.3,2.6
			c0,1.4-0.6,2.8-1.7,4.1c-1.5,1.7-3.7,3.1-6.6,4.1C612.4,1001.9,609.7,1002.4,606.2,1002.8z M606.4,1001.5c2.5-0.3,4.6-0.8,6.2-1.5
			c2.1-0.9,3.7-2.1,4.7-3.4c1.1-1.3,1.6-2.6,1.6-3.7c0-0.7-0.2-1.3-0.7-1.7c-0.5-0.4-1.1-0.7-1.9-0.7c-1.7,0-3.6,0.9-5.5,2.8
			C608.8,995.2,607.3,997.9,606.4,1001.5z"/>
		<path class="st1" d="M642.3,989.2l-1.6,7.9h-1c-0.1-2.3-0.6-4-1.5-5c-0.9-1-2-1.6-3.3-1.6c-1,0-1.9,0.3-2.5,0.9s-0.9,1.3-0.9,2.1
			c0,0.6,0.1,1.1,0.4,1.6s0.8,1.2,1.6,2.1c2.2,2.4,3.6,4.3,4.3,5.5c0.6,1.2,1,2.4,1,3.5c0,1.8-0.7,3.4-2.2,4.7
			c-1.5,1.4-3.3,2.1-5.6,2.1c-1.2,0-2.7-0.3-4.3-0.9c-0.6-0.2-1-0.3-1.3-0.3c-0.8,0-1.3,0.4-1.8,1.2h-0.9l1.6-8.3h1
			c0.1,2.6,0.6,4.5,1.6,5.5c1,1.1,2.3,1.6,4,1.6c1.3,0,2.3-0.4,3.1-1.1s1.1-1.6,1.1-2.7c0-0.7-0.1-1.3-0.4-1.9c-0.5-1-1.5-2.4-3-4.2
			s-2.5-3.2-2.9-4.1c-0.4-0.9-0.7-1.8-0.7-2.7c0-1.7,0.6-3.1,1.8-4.2c1.2-1.1,2.8-1.7,4.6-1.7c0.6,0,1,0,1.5,0.1
			c0.2,0.1,0.8,0.3,1.7,0.6c0.9,0.3,1.5,0.5,1.8,0.5c0.7,0,1.3-0.4,1.8-1.2H642.3z"/>
		<path class="st1" d="M649.9,1002.8c-0.1,0.8-0.2,1.5-0.2,2.1c0,1.5,0.5,2.8,1.6,3.9c1.1,1.1,2.4,1.6,3.9,1.6
			c1.2,0,2.4-0.3,3.5-0.8c1.1-0.5,2.8-1.6,5-3.3l0.5,0.7c-4.1,4-7.9,6-11.6,6c-2.5,0-4.4-0.8-5.6-2.4c-1.3-1.6-1.9-3.3-1.9-5.2
			c0-2.5,0.8-5.2,2.4-7.8s3.5-4.7,5.9-6.2s4.8-2.2,7.3-2.2c1.8,0,3.1,0.4,4,1.1c0.9,0.7,1.3,1.6,1.3,2.6c0,1.4-0.6,2.8-1.7,4.1
			c-1.5,1.7-3.7,3.1-6.6,4.1C656.1,1001.9,653.4,1002.4,649.9,1002.8z M650.1,1001.5c2.5-0.3,4.6-0.8,6.2-1.5
			c2.1-0.9,3.7-2.1,4.7-3.4c1-1.3,1.6-2.6,1.6-3.7c0-0.7-0.2-1.3-0.7-1.7c-0.5-0.4-1.1-0.7-1.9-0.7c-1.7,0-3.6,0.9-5.5,2.8
			C652.5,995.2,651,997.9,650.1,1001.5z"/>
		<path class="st1" d="M678.6,989.2l-3.4,11.7c3.2-4.8,5.6-7.9,7.3-9.4c1.7-1.5,3.3-2.3,4.9-2.3c0.8,0,1.5,0.3,2.1,0.9
			s0.8,1.3,0.8,2.2c0,1-0.2,2.4-0.7,4.1l-3.1,10.8c-0.4,1.3-0.5,2-0.5,2.3c0,0.2,0.1,0.4,0.2,0.6s0.3,0.2,0.4,0.2
			c0.2,0,0.4-0.1,0.7-0.3c0.9-0.7,1.9-1.8,3-3.3l0.8,0.5c-1.6,2.3-3.1,3.9-4.5,4.9c-1,0.7-1.9,1-2.7,1c-0.6,0-1.1-0.2-1.5-0.6
			c-0.4-0.4-0.6-0.9-0.6-1.5c0-0.8,0.3-2.2,0.9-4.2l3-10.3c0.4-1.3,0.5-2.3,0.5-3c0-0.3-0.1-0.6-0.3-0.8c-0.2-0.2-0.5-0.3-0.8-0.3
			c-0.5,0-1,0.2-1.7,0.6c-1.3,0.8-2.6,2-3.9,3.8c-1.4,1.8-2.8,4-4.3,6.8c-0.8,1.5-1.5,3.1-2,4.8l-1.3,4.2H668l4.7-16
			c0.6-1.9,0.8-3.1,0.8-3.5s-0.2-0.7-0.5-1c-0.3-0.3-0.7-0.4-1.1-0.4c-0.2,0-0.6,0-1.1,0.1l-1,0.1l-0.2-0.9L678.6,989.2z"/>
		<path class="st1" d="M713.5,1006.9c-1.8,2.1-3.6,3.7-5.4,4.7c-1.8,1-3.7,1.5-5.7,1.5c-2.4,0-4.3-0.7-5.7-2c-1.4-1.4-2-3.2-2-5.5
			c0-2.6,0.7-5.2,2.2-7.7c1.5-2.5,3.4-4.6,5.9-6.2c2.5-1.6,4.9-2.4,7.3-2.4c1.9,0,3.3,0.4,4.2,1.2c0.9,0.8,1.4,1.7,1.4,2.9
			c0,1.1-0.3,2-1,2.7c-0.5,0.6-1,0.9-1.8,0.9c-0.5,0-1-0.2-1.3-0.5c-0.4-0.3-0.5-0.8-0.5-1.3c0-0.3,0.1-0.6,0.2-0.9
			c0.1-0.3,0.4-0.6,0.8-1s0.6-0.7,0.7-0.8c0.1-0.2,0.1-0.3,0.1-0.5c0-0.4-0.2-0.7-0.5-0.9c-0.5-0.3-1.2-0.5-2.1-0.5
			c-1.7,0-3.3,0.6-5,1.8s-3.1,2.8-4.2,5c-1.4,2.6-2.1,5.3-2.1,7.9c0,1.7,0.5,3.1,1.5,4.1c1,1,2.3,1.5,4,1.5c1.3,0,2.6-0.3,3.9-1
			s2.7-1.8,4.3-3.6L713.5,1006.9z"/>
		<path class="st1" d="M728.6,989.2l-5.1,18c-0.3,1.2-0.5,1.9-0.5,2.2c0,0.3,0.1,0.5,0.2,0.7s0.3,0.3,0.6,0.3c0.3,0,0.6-0.1,0.9-0.4
			c1-0.8,2-1.9,3-3.3l0.9,0.6c-1.2,1.8-2.5,3.3-4.1,4.5c-1.1,0.9-2.2,1.3-3.3,1.3c-0.7,0-1.3-0.2-1.7-0.6c-0.4-0.4-0.7-0.9-0.7-1.6
			s0.2-1.7,0.6-3.2l3.3-11.5c0.5-1.9,0.8-3,0.8-3.5c0-0.4-0.1-0.7-0.4-0.9c-0.3-0.2-0.6-0.4-1.1-0.4c-0.4,0-1.2,0.1-2.4,0.3v-1
			L728.6,989.2z M728.3,979.1c0.7,0,1.3,0.2,1.8,0.7c0.5,0.5,0.7,1.1,0.7,1.8s-0.2,1.3-0.7,1.8c-0.5,0.5-1.1,0.8-1.8,0.8
			c-0.7,0-1.3-0.3-1.8-0.8c-0.5-0.5-0.8-1.1-0.8-1.8s0.2-1.3,0.7-1.8C726.9,979.3,727.5,979.1,728.3,979.1z"/>
		<path class="st1" d="M755.7,989.2l-5,17.4l-0.6,2.4c0,0.2-0.1,0.4-0.1,0.5c0,0.3,0.1,0.5,0.3,0.7c0.1,0.1,0.3,0.2,0.5,0.2
			s0.5-0.1,0.9-0.4c0.7-0.5,1.5-1.5,2.7-3.1l0.9,0.6c-1.2,1.8-2.4,3.1-3.6,4.1c-1.3,0.9-2.4,1.4-3.5,1.4c-0.7,0-1.3-0.2-1.6-0.5
			c-0.4-0.4-0.6-0.9-0.6-1.6c0-0.8,0.2-2,0.6-3.3l0.5-1.9c-2.2,2.9-4.3,5-6.2,6.1c-1.4,0.8-2.7,1.2-4,1.2c-1.3,0-2.3-0.5-3.2-1.5
			c-0.9-1-1.4-2.4-1.4-4.2c0-2.7,0.8-5.6,2.4-8.6c1.6-3,3.7-5.4,6.2-7.2c2-1.4,3.8-2.2,5.5-2.2c1.1,0,1.9,0.3,2.6,0.8
			c0.7,0.6,1.2,1.5,1.6,2.7l0.9-2.9L755.7,989.2z M746.6,990.6c-1.1,0-2.2,0.5-3.5,1.6c-1.8,1.4-3.3,3.6-4.7,6.4
			c-1.4,2.9-2,5.4-2,7.8c0,1.1,0.3,2.1,0.9,2.7c0.6,0.7,1.3,1,2,1c1.8,0,3.9-1.4,6-4.1c2.9-3.7,4.4-7.4,4.4-11.2
			c0-1.4-0.3-2.5-0.8-3.2C748.4,990.9,747.6,990.6,746.6,990.6z"/>
	</g>
</g>
<g>
	<g>
		<g>
			<g>
				<g>
					<g>
						<path class="st2" d="M503.6,599.6c10.6,14.7,31.2,11.4,47,8.3c12.7-2.5,25.6-4.1,38.6-3.7c6.4,0.2,13.2,0.5,19.4,2
							c3,0.8,6.1,1.8,8.2,4c3.3,4,3.3,8-0.1,11.9c-5.3,4.4-7.4,3.9-6.2-1.6c0.2,0.7,1.4,0.6,1.3-0.2c-0.4-8.4-14.4-0.6-5.4,5.2
							c9.9,6.4,18.9-8.5,12.5-16.1c-4.5-5.3-12.7-5.9-19.3-6.6c-11.3-1.1-22.8-0.8-34.1,0.6c-19.8,2.5-45.4,12.8-61.1-4.5
							C504.1,598.5,503.3,599.1,503.6,599.6L503.6,599.6z"/>
					</g>
					<g>
						<path class="st2" d="M590.6,612c1-5.1-6.6-3.7-5.3,1c2.4,8.5,14.5,1.4,16-3.9c2.7-9.7-8.5-16-17.2-16.1
							c-7.5-0.1-14.5,2.9-21.5,5.1c-4.2,1.3-8.5,2.5-13,2.5c-2.9,0-6-0.4-8.7-1.7c-0.9-0.6-1.8-1.1-2.8-1.7c-3.4-2.4-3.4-4.4,0-6.1
							c-0.7-0.9-2-0.2-1.6,0.9c2.4,5.3,10.5,1.5,7.8-3.8c-3.2-6.2-11.7-1.4-11.5,4.2c0.4,9.9,14.6,11.4,22.3,10
							c8-1.4,15.1-5.4,23-6.8c5.6-1,11.5-0.8,16.2,2.5c2.1,1.5,4.7,3.9,5,6.6c-0.4,2-0.7,4.1-1.1,6.2c-2.9,4.7-5.7,5.1-8.2,1.1
							C590.1,612.3,590.6,612.3,590.6,612L590.6,612z"/>
					</g>
				</g>
			</g>
		</g>
		<g>
			<g>
				<g>
					<g>
						<path class="st2" d="M746.5,599.2c-10.6,14.7-31.2,11.4-47,8.3c-12.7-2.5-25.6-4.1-38.6-3.7c-6.4,0.2-13.2,0.5-19.4,2
							c-3,0.8-6.1,1.8-8.2,4c-3.3,4-3.3,8,0.1,11.9c5.3,4.4,7.4,3.9,6.2-1.6c-0.2,0.7-1.4,0.6-1.3-0.2c0.4-8.4,14.4-0.6,5.4,5.2
							c-9.9,6.4-18.9-8.5-12.5-16.1c4.5-5.3,12.7-5.9,19.3-6.6c11.3-1.1,22.8-0.8,34.1,0.6c19.8,2.5,45.4,12.8,61.1-4.5
							C746,598,746.9,598.6,746.5,599.2L746.5,599.2z"/>
					</g>
					<g>
						<path class="st2" d="M659.5,611.6c-1-5.1,6.6-3.7,5.3,1c-2.4,8.5-14.5,1.4-16-3.9c-2.7-9.7,8.6-16,17.2-16.1
							c7.5-0.1,14.5,2.9,21.5,5.1c4.2,1.3,8.5,2.5,13,2.5c2.9,0,6-0.4,8.7-1.7c0.9-0.6,1.8-1.1,2.8-1.7c3.4-2.4,3.4-4.4,0-6.1
							c0.7-0.9,2-0.2,1.5,0.9c-2.4,5.3-10.5,1.5-7.8-3.8c3.2-6.2,11.7-1.4,11.5,4.2c-0.4,9.9-14.6,11.4-22.3,10
							c-8-1.4-15.1-5.4-23-6.8c-5.6-1-11.5-0.8-16.2,2.5c-2.1,1.5-4.7,3.9-5,6.6c0.4,2,0.7,4.1,1.1,6.2c2.9,4.7,5.7,5.1,8.2,1.1
							C660.1,611.8,659.6,611.9,659.5,611.6L659.5,611.6z"/>
					</g>
				</g>
			</g>
		</g>
	</g>
</g>
<g class="st0">
	<path class="st1" d="M567.1,1296.7l3.2,28l20.2-28h8.5v1c-1.8,0.1-2.9,0.2-3.2,0.4c-0.6,0.2-1.1,0.7-1.6,1.4
		c-0.5,0.7-1,1.9-1.5,3.8l-6.4,22c-0.4,1.3-0.6,2.3-0.6,3c0,0.7,0.2,1.2,0.7,1.5c0.7,0.5,1.7,0.7,3.1,0.7h0.6l-0.2,1h-14.6l0.3-1
		h0.7c1.3,0,2.3-0.2,3-0.5c0.5-0.3,1-0.8,1.4-1.6c0.4-0.8,1-2.5,1.8-5.1l5.8-20.2l-20.3,28.3h-1l-3.3-28.3l-6.2,21.5
		c-0.5,1.8-0.8,3.1-0.8,3.7c0,0.6,0.2,1.1,0.7,1.5c0.5,0.3,1.6,0.6,3.4,0.7l-0.3,1h-11.5l0.3-1h0.7c1.7,0,2.9-0.4,3.7-1.3
		c0.6-0.6,1.1-2,1.7-4l7.5-25.9c-0.6-0.6-1.1-1-1.6-1.2c-0.5-0.2-1.5-0.4-2.8-0.5l0.3-1H567.1z"/>
	<path class="st1" d="M618.8,1308.3l-5,17.4l-0.6,2.4c0,0.2-0.1,0.4-0.1,0.5c0,0.3,0.1,0.5,0.3,0.7c0.1,0.1,0.3,0.2,0.5,0.2
		c0.2,0,0.5-0.1,0.9-0.4c0.7-0.5,1.5-1.5,2.7-3.1l0.9,0.6c-1.2,1.8-2.4,3.1-3.6,4.1c-1.3,0.9-2.4,1.4-3.5,1.4
		c-0.7,0-1.3-0.2-1.6-0.5c-0.4-0.4-0.6-0.9-0.6-1.6c0-0.8,0.2-2,0.6-3.3l0.5-1.9c-2.2,2.9-4.3,5-6.2,6.1c-1.4,0.8-2.7,1.2-4,1.2
		c-1.3,0-2.3-0.5-3.2-1.5c-0.9-1-1.4-2.4-1.4-4.2c0-2.7,0.8-5.6,2.4-8.6c1.6-3,3.7-5.4,6.2-7.2c2-1.4,3.8-2.2,5.5-2.2
		c1.1,0,1.9,0.3,2.6,0.8c0.7,0.6,1.2,1.5,1.6,2.7l0.9-2.9L618.8,1308.3z M609.7,1309.6c-1.1,0-2.2,0.5-3.5,1.6
		c-1.8,1.4-3.3,3.6-4.7,6.4c-1.4,2.9-2,5.4-2,7.8c0,1.1,0.3,2.1,0.9,2.7c0.6,0.7,1.3,1,2,1c1.8,0,3.9-1.4,6-4.1
		c2.9-3.7,4.4-7.4,4.4-11.2c0-1.4-0.3-2.5-0.8-3.2C611.4,1309.9,610.7,1309.6,609.7,1309.6z"/>
	<path class="st1" d="M623.2,1309.7l8.8-1.5l-3.7,12.5c3-5.1,5.7-8.7,8.1-10.7c1.4-1.2,2.5-1.8,3.4-1.8c0.6,0,1,0.2,1.3,0.5
		c0.3,0.3,0.5,0.8,0.5,1.5c0,1.1-0.3,2.2-0.9,3.2c-0.4,0.8-1,1.1-1.8,1.1c-0.4,0-0.7-0.1-1-0.4c-0.3-0.3-0.5-0.6-0.5-1.2
		c0-0.3-0.1-0.5-0.2-0.6c-0.1-0.1-0.3-0.2-0.5-0.2c-0.3,0-0.6,0.1-0.8,0.2c-0.4,0.2-1.1,0.9-2,2c-1.4,1.7-3,3.8-4.6,6.5
		c-0.7,1.1-1.3,2.4-1.8,3.8c-0.7,2-1.1,3.1-1.2,3.5l-0.8,3.2h-3.9l4.7-15.9c0.5-1.8,0.8-3.2,0.8-3.9c0-0.3-0.1-0.6-0.4-0.8
		c-0.3-0.3-0.8-0.4-1.3-0.4c-0.4,0-1,0.1-2,0.2L623.2,1309.7z"/>
	<path class="st1" d="M654.5,1301.9l-2,7h4l-0.4,1.6h-4l-4.4,15.1c-0.5,1.6-0.7,2.7-0.7,3.2c0,0.3,0.1,0.5,0.2,0.7
		c0.1,0.2,0.3,0.2,0.5,0.2c0.4,0,1-0.3,1.7-0.9c0.4-0.3,1.3-1.4,2.8-3.2l0.8,0.7c-1.6,2.3-3.1,3.9-4.5,4.8c-1,0.6-1.9,1-2.9,1
		c-0.7,0-1.4-0.2-1.8-0.7s-0.7-1.1-0.7-1.8c0-0.9,0.3-2.3,0.8-4.2l4.3-14.8h-3.9l0.3-1c1.9-0.5,3.5-1.3,4.7-2.3
		c1.2-1,2.6-2.8,4.2-5.3H654.5z"/>
	<path class="st1" d="M670.8,1295l-7.2,24.9c3.1-4.7,5.5-7.8,7.3-9.3c1.7-1.5,3.4-2.3,5-2.3c0.8,0,1.5,0.3,2.1,0.9
		c0.5,0.6,0.8,1.3,0.8,2.3c0,1.1-0.2,2.5-0.7,4.1l-3.1,10.7c-0.4,1.3-0.6,2-0.6,2.2c0,0.2,0.1,0.4,0.2,0.6s0.3,0.2,0.5,0.2
		c0.2,0,0.5-0.1,0.8-0.3c1-0.8,1.9-1.8,2.9-3.1l0.8,0.5c-0.6,0.9-1.4,1.9-2.4,3c-1,1.1-1.9,1.8-2.7,2.2c-0.7,0.4-1.4,0.6-2,0.6
		c-0.6,0-1.2-0.2-1.6-0.6s-0.6-0.9-0.6-1.5c0-0.8,0.3-2.2,0.9-4.2l3-10.2c0.4-1.3,0.5-2.3,0.5-3c0-0.3-0.1-0.6-0.3-0.8
		c-0.2-0.2-0.5-0.3-0.8-0.3c-0.5,0-1.1,0.2-1.7,0.6c-1.2,0.7-2.5,2.1-4,4c-0.4,0.5-1.8,2.7-4.1,6.4c-0.7,1.2-1.3,2.5-1.8,3.9
		l-1.6,5.3h-3.9l8.4-29.3l0.9-3.2c0-0.4-0.2-0.8-0.6-1.2c-0.4-0.3-0.8-0.5-1.4-0.5c-0.3,0-0.8,0.1-1.4,0.2l-0.5,0.1v-1L670.8,1295z"
		/>
	<path class="st1" d="M706.3,1308.3l-5,17.4l-0.6,2.4c0,0.2-0.1,0.4-0.1,0.5c0,0.3,0.1,0.5,0.3,0.7c0.1,0.1,0.3,0.2,0.5,0.2
		c0.2,0,0.5-0.1,0.9-0.4c0.7-0.5,1.5-1.5,2.7-3.1l0.9,0.6c-1.2,1.8-2.4,3.1-3.6,4.1c-1.3,0.9-2.4,1.4-3.5,1.4
		c-0.7,0-1.3-0.2-1.6-0.5s-0.6-0.9-0.6-1.6c0-0.8,0.2-2,0.6-3.3l0.5-1.9c-2.2,2.9-4.3,5-6.2,6.1c-1.4,0.8-2.7,1.2-4,1.2
		c-1.3,0-2.3-0.5-3.2-1.5c-0.9-1-1.4-2.4-1.4-4.2c0-2.7,0.8-5.6,2.4-8.6c1.6-3,3.7-5.4,6.2-7.2c2-1.4,3.8-2.2,5.5-2.2
		c1.1,0,1.9,0.3,2.6,0.8c0.7,0.6,1.2,1.5,1.6,2.7l0.9-2.9L706.3,1308.3z M697.2,1309.6c-1.1,0-2.2,0.5-3.5,1.6
		c-1.8,1.4-3.3,3.6-4.7,6.4c-1.4,2.9-2,5.4-2,7.8c0,1.1,0.3,2.1,0.9,2.7c0.6,0.7,1.3,1,2,1c1.8,0,3.9-1.4,6-4.1
		c2.9-3.7,4.4-7.4,4.4-11.2c0-1.4-0.3-2.5-0.8-3.2C698.9,1309.9,698.1,1309.6,697.2,1309.6z"/>
</g>
<g>
	<path class="st1" d="M490.1,446.3c16.5-8.6,17.5-12.9,19.2-15.4c0.5-1.1,1.5-2.5,3.1-0.8c1.9,1.9,0.9,5,0.9,5s-6.1,12.1-11.4,23.8
		c4-4.9,12.3-14.5,21.1-19c6.5-3.3,15.4-4.7,19.5,0.2c5.3,6.4,2,16.9-6.1,26c-11.3,12.9-23.9,16.2-26.9,17.9
		c6.3,0.2,13.1,5.5,12.7,14.2s-4.9,12.5-5.1,21.7c-0.2,9.1,9.7,6.7,18.9-13.6c7.5-16.5,10-21.1,13.1-21.6
		c-6,3.5-14.9,41.6-28.9,41.5c-9.1,0-7.7-13.4-3.1-25.3c4.4-11.2-3.5-18.2-12.9-14.7s-7.2-2.6-7.2-2.6s1.9-0.4,5-1.4
		c3.1-0.9,9.8-2.5,17.8-7.4c13.6-8.5,19.6-16.5,21.7-26.2c2.4-11.3-7.1-12.2-15.7-8.5c-12.6,5.5-26.1,24.2-26.1,24.2l-0.6,0.6
		c-0.9,2.2-1.9,4.3-2.6,6.2c-5.2,12.6-16.6,43.5-25,50.5c-7.4,6.3-12.1-0.3-10.9-8.4c2.3-15.5,14.6-31.3,31.8-45.8
		c3.8-8.9,8.1-18.6,13.2-29.2c-16.3,16.6-54.1,17.3-55,45.1C449.2,461.8,469.7,456.9,490.1,446.3z M462.4,517.1
		c0.1,6.3,4.3,6.3,8.7-0.4s9.2-17,14.9-32.8c1.7-4.4,3.5-9.1,5.6-14.1C476.9,483.6,462.2,501.1,462.4,517.1z"/>
	<path class="st1" d="M606,432.8c-29.7,13.4,7,61.8-18.4,85.9c-13.9,13.2-37.6,11.9-43.7-3.1c-2.5-6.5-2.3-21.6,11.6-28.2
		c7.1-3.3,10-3.7,14.6-3.9c10.9-0.6,22.7,9.2,7.9,19.6c5.8-12.6-2.2-20.6-15.6-17c-19.4,5.1-20.8,23.8-15.7,31.4
		c7.9,11.8,31.2,6.1,38.4-2.9c18.9-23.8-12.4-66.4,16.9-82c7.9-4.2,18.4-2.9,21,3.5c2.5-1.4,5.5-2.4,8.7-2.8
		c-2.1,1.1-4.3,0.9-8.2,4.3c1.8,7.9-3.7,19-8.4,19c-8.8,0.1-4.5-13.2,6.7-19.7C619.6,431.1,611.7,430.2,606,432.8z M619.8,441.5
		c-10.3,12.2-3.2,20.7,1.8,5.6c1.2-3.5,1.4-6.3,0.9-8.5C621.7,439.5,620.8,440.4,619.8,441.5z"/>
	<path class="st1" d="M657,501.4c-0.9,9.8-0.9,36.7,6,25.5c14.7-23.7,36.1-91.1,75.2-96.1c-40.6,8.2-64.1,88.9-75.2,100.1
		c-5,5-13.3-4.2-10.8-36.8c0.8-10.9,2.3-27.7,11.5-50.5c-1.7,1.4-3.5,2.8-5.5,4.2c-16.9,11.4-44.9,13.4-46.9,40.3
		c-1.2-13.3,7.6-24,27.7-32.5c13.2-5.5,23.6-11.9,26.5-16.3l0.1-0.2c0.9-2.2,4.6-3.8,5.6-2.9c1.2,0.9,1.5,2.6,1,3.7
		C662.2,462,659.1,480.6,657,501.4z"/>
	<path class="st1" d="M704.8,474.7c8.5-9.2,22.6-13.5,34-20.9c11.2-7.2,15.2-12.3,16.6-14.6c0.4-0.8,1.8-5.3,4-3.1
		c1.9,1.9,2.1,4.8,2.1,4.8s-6,11.3-11.4,22.7c2.4-2.9,5.6-6.6,8.8-9c6-4.5,17.8-13.3,29.8-10.8c11.1,2.3,13.7,15.7,7.9,26.9
		c-5,9.8-13.7,18.2-22.2,24.2h1.2c8.4,0.3,21.8-0.7,25.7-10.1c-2.2,10.3-17.1,11.3-27.2,11.2c-0.4,0-0.8-0.1-1.2-0.1
		c-7.3,5-14.2,8.5-18.3,9.6c-9.1,2.6-9.6-4.7-4.9-7.4c4.2-2.4,11.4-3.2,19-3.2c14.9-11.5,31.4-30.8,24.3-43.9
		c-4.4-7.9-13.5-6.7-21.5-2.8c-13.2,6.4-21.9,18-24.7,22.2c-1.7,3.7-3.1,7.1-4.2,9.8c-4.8,12.9-14.7,43.7-24,49.4
		c-9.3,5.8-12.6-0.4-11.4-8.5c2.3-15.6,14.7-31.5,32-46.1c4.2-9.6,8.9-20.3,12.3-27.8c-5.8,6.7-20.1,13-35.4,20.8
		c-15.9,8.1-18.9,23.2-18.9,23.2S695.7,484.7,704.8,474.7z M708.8,524.9c0.1,6.3,4.8,6.9,9.2,0.2c4.4-6.7,8.7-17.5,14.4-33.3
		c1.2-3.5,3.5-8.8,5.8-14.4C723.8,491.9,708.5,508.2,708.8,524.9z M748.3,502.6c0.3,4.2,9.1,0.5,18.9-6.8
		C758.2,495.9,747.9,497.1,748.3,502.6z"/>
</g>
<g>
	<g>
		<path class="st1" d="M624.5,757.6c2.5-2.2,4.5-4.6,7.1-6.2c5.4-3.5,11.2-3.1,16.6,0.1c5.9,3.4,8.2,8.9,8.1,15.6
			c-0.2,7.7-3.7,14-8.4,19.7c-5.5,6.5-12.1,11.7-19.4,15.9c-1.2,0.7-3.4,0.9-4.6,0.3c-10.6-5.6-20.5-12.2-26.6-23
			c-4-6.9-5.6-14.3-1.4-21.7c5.1-9,17.4-11.5,25.6-3.6C622.5,755.6,623.6,756.7,624.5,757.6z M596.8,767.3c1,3,1.7,6.2,3.2,9
			c5.4,10.2,14.5,16.5,24.3,22c0.9,0.5,2.7,0.4,3.5-0.2c5.2-3.9,10.5-7.8,15.1-12.2c5.1-5,8.8-11,9.7-18.4
			c0.8-6.6-3.7-14.2-12.5-14.5c-6.2-0.2-11.8,6.4-12.7,12.5c-0.2,1-1.5,2.7-2.2,2.7c-1-0.1-2.1-1.4-3-2.2c-0.2-0.2-0.2-0.8-0.2-1.2
			c-0.6-4.9-6.9-11.5-13-10.8C601.8,754.6,597.1,760.3,596.8,767.3z"/>
		<path class="st1" d="M638.4,692.3c4.1,0,8,0.1,12-0.1c0.9,0,2.1-1.1,2.7-2c5.4-9.1,15.5-11.7,24.6-9.8c3.4,0.7,5.7,3.7,6.4,7.1
			c0.6,3.2,1.7,4.8,5.7,4.7c6.5-0.2,8.9,2.1,9.2,8.7c0.4,9.2,0.3,18.4,0.2,27.5c-0.1,6.5-0.8,12.9-0.8,19.4c0,5.4,0.5,10.8,0.7,16.2
			c0.1,5.2,0.2,10.4,0,15.6c-0.4,15.4-1,30.8-1.5,46.3c0,0.1,0,0.2,0,0.4c0.7,10-1.3,12.5-13.5,12.6c-28.8,0.3-57.5,0.3-86.3,0.1
			c-12.2-0.1-24.5-1.3-36.7-2c-3.4-0.2-5.7-2.4-5.9-6c-0.4-7.5-0.6-14.9-0.9-22.4c-1.2-30.2-2.6-60.4-3.7-90.7
			c-0.2-6.4,0.8-12.9,1.5-19.4c0.5-4.3,2.9-6.4,7.5-6.9c1.8-0.2,3.6-0.2,5.6-0.3c1.7-7.4,7.4-10.2,14.4-11.7
			c7.7-1.7,15.5,2.5,17.5,9.8c0.6,2.3,1.6,3,3.9,2.8c2.4-0.2,5,0.8,5.9-2.9c2.4-9.5,14.3-13,21.3-10.1
			C633.8,681.5,636.9,685.9,638.4,692.3z M624.6,722.3c0,0.1,0,0.2,0,0.3c-21.1,0-42.2,0-63.3,0c-6.1,0-6.1-0.2-5.9,5.8
			c0.9,19.3,1.8,38.5,2.7,57.8c0.6,13.6,1.2,27.2,1.5,40.8c0.1,3.5,1.5,5.2,5.1,5.5c12.7,0.8,25.4,2,38.1,2.2
			c19.4,0.4,38.7,0.2,58.1-0.1c9.1-0.1,18.3-0.9,27.4-1.4c1.8-0.1,3.7-0.2,3.7-2.9c0.1-5.3,0.8-10.5,1-15.8
			c0.4-11.7,0.6-23.4,1-35.1c0.1-4.1,0.9-8.1,1-12.2c0-3.3-0.9-6.6-0.9-9.9c-0.1-10.2-0.2-20.3,0-30.5c0.1-3.8-1.2-4.7-5-4.7
			C667.6,722.4,646.1,722.3,624.6,722.3z M572.5,694.8c2.2,3.6,2.2,3.7,7.1,3.9c3,0.1,5.1,2.1,5.1,5c0.1,2.4-1,5.7-2.6,7.1
			c-1.3,1.2-5,1.2-6.2,0c-3.9-4.2-7.6-8.9-10.6-13.9c-1.7-2.8-3.4-1.8-5-1.5c-0.9,0.1-2.3,1.8-2.5,3c-0.7,4.5-1.1,9.1-1.4,13.7
			c-0.4,6.7-0.4,6.8,5.4,6.8c38.5,0.1,77,0.1,115.4,0.1c4.3,0,8.7-0.1,13-0.5c1-0.1,2.9-1.5,2.9-2.3c0-6.6-0.3-13.2-0.6-20.4
			c-10.3,0-20,0-29.8,0c0,0.1-0.1,0.3,0,0.4c1.7,2.8,3.5,4.2,6.8,2.8c2.5-1.1,5.2-0.3,6.8,2.9c1.5,3,1.4,6.1-0.9,8.1
			c-1.6,1.4-5,2.7-6.2,1.8c-5.2-4.1-9.8-9.1-14.7-13.6c-1.4-1.2-3.1-2.8-4.7-2.8c-10.6-0.2-21.3,0.1-31.9,0.2
			c-0.9,0-1.9,0.3-3.2,0.5c2.3,3.6,4.2,5.4,7.7,2.5c2.6-2.1,5.3-0.8,7.3,1.8c2,2.6,2,5.4,0.2,8.1c-1.9,2.8-4.5,3.5-7.4,2.3
			c-1.8-0.8-3.6-1.8-5.4-2.5c-4.1-1.7-7.4-4.8-9-9.3c-1.1-3.1-2.7-3.4-5-3.5c-7.3-0.1-14.7-0.4-22-0.6
			C578.3,694.8,575.6,694.8,572.5,694.8z M630.9,691.9c-1.8-5.2-5.5-7.8-9.5-7.1c-4.9,0.8-7.4,3.2-7.4,7.1
			C619.6,691.9,625.1,691.9,630.9,691.9z M677.5,691.9c0.3-0.3,0.6-0.7,0.9-1c-1.3-1.5-2.3-3.7-4-4.2c-5.1-1.5-11.4,1.2-13.6,5.2
			C666.4,691.9,672,691.9,677.5,691.9z M590.7,691.3c-1.9-3.8-4.3-5.9-8.2-5.6c-5.4,0.3-8.3,2.1-9.2,5.6
			C578.8,691.3,584.4,691.3,590.7,691.3z"/>
	</g>
</g>
<g class="st0">
	<path class="st1" d="M609,1650.9h-25.8l0.3-1c1.4,0,2.3-0.1,2.7-0.3c0.7-0.3,1.3-0.7,1.6-1.2c0.5-0.8,1.1-2.2,1.7-4.3l6.1-21.1
		c0.5-1.7,0.8-3,0.8-3.9c0-0.6-0.2-1.1-0.7-1.5c-0.5-0.4-1.4-0.5-2.7-0.5c-0.3,0-0.5,0-0.7,0l0.3-1h14.2l-0.2,1
		c-1.6,0-2.7,0.2-3.4,0.5c-0.7,0.3-1.2,0.8-1.7,1.5c-0.3,0.5-0.8,1.9-1.5,4.3l-6,20.8c-0.5,1.6-0.7,2.7-0.7,3.3
		c0,0.4,0.2,0.8,0.7,1.2c0.3,0.3,0.9,0.4,2,0.4h3.3c2.4,0,4.4-0.3,5.8-0.9c1.1-0.4,2-1.1,2.9-2.1c0.5-0.5,1.3-1.8,2.5-3.8l0.7-1.1h1
		L609,1650.9z"/>
	<path class="st1" d="M638.8,1628.4l-4.5,15.3c-0.7,2.3-1,3.7-1,4.3c0,0.3,0.1,0.5,0.2,0.7c0.1,0.1,0.3,0.2,0.4,0.2
		c0.3,0,0.6-0.1,1-0.4c0.4-0.3,1.2-1.3,2.6-3.2l0.8,0.6c-1.4,2.1-2.7,3.7-4.2,4.7c-0.9,0.6-1.8,1-2.7,1c-0.7,0-1.2-0.2-1.6-0.6
		s-0.6-0.9-0.6-1.4s0.1-1.4,0.3-2.3c0.3-1.3,1.1-4,2.4-8.2c-2.9,4.8-5.3,8.1-7.3,9.9c-2,1.8-3.8,2.7-5.4,2.7c-0.8,0-1.5-0.3-2-0.8
		s-0.8-1.2-0.8-2.1c0-1.3,0.4-3.2,1.1-5.9l2.3-7.9c0.5-1.9,0.8-3.1,0.8-3.5c0-0.2-0.1-0.4-0.2-0.5c-0.1-0.1-0.3-0.2-0.5-0.2
		c-0.4,0-0.7,0.1-1.1,0.4c-0.4,0.3-1.2,1.2-2.5,2.8l-0.8-0.5c1.3-2,2.7-3.5,4.1-4.4c1.1-0.7,2.1-1.1,3-1.1c0.6,0,1.2,0.2,1.6,0.6
		c0.4,0.4,0.6,0.9,0.6,1.6c0,0.9-0.3,2.6-1,4.9l-2.4,8.3c-0.7,2.3-1,3.7-1,4.3c0,0.3,0.1,0.6,0.3,0.8c0.2,0.2,0.5,0.3,0.9,0.3
		c0.6,0,1.3-0.3,2.2-0.8c0.9-0.6,2.1-1.8,3.6-3.8c1.5-1.9,2.8-3.8,3.7-5.5c1-1.7,2-4.4,3.1-8.1l0.6-1.9H638.8z"/>
	<path class="st1" d="M652.4,1627.7l-5.1,18c-0.3,1.2-0.5,1.9-0.5,2.2c0,0.3,0.1,0.5,0.2,0.7s0.3,0.3,0.6,0.3c0.3,0,0.6-0.1,0.9-0.4
		c1-0.8,2-1.9,3-3.3l0.9,0.6c-1.2,1.8-2.5,3.3-4.1,4.5c-1.1,0.9-2.2,1.3-3.3,1.3c-0.7,0-1.3-0.2-1.7-0.6c-0.4-0.4-0.7-0.9-0.7-1.6
		s0.2-1.7,0.6-3.2l3.3-11.5c0.5-1.9,0.8-3,0.8-3.5c0-0.4-0.1-0.7-0.4-0.9c-0.3-0.2-0.6-0.4-1.1-0.4c-0.4,0-1.2,0.1-2.4,0.3v-1
		L652.4,1627.7z M652.1,1617.6c0.7,0,1.3,0.2,1.8,0.7c0.5,0.5,0.7,1.1,0.7,1.8s-0.2,1.3-0.7,1.8c-0.5,0.5-1.1,0.8-1.8,0.8
		s-1.3-0.3-1.8-0.8c-0.5-0.5-0.8-1.1-0.8-1.8s0.2-1.3,0.7-1.8C650.7,1617.8,651.4,1617.6,652.1,1617.6z"/>
	<path class="st1" d="M674,1627.7l-1.6,7.9h-1c-0.1-2.3-0.6-4-1.5-5c-0.9-1-2-1.6-3.3-1.6c-1,0-1.9,0.3-2.5,0.9s-0.9,1.3-0.9,2.1
		c0,0.6,0.1,1.1,0.4,1.6s0.8,1.2,1.6,2.1c2.2,2.4,3.6,4.3,4.3,5.5c0.6,1.2,1,2.4,1,3.5c0,1.8-0.7,3.4-2.2,4.7
		c-1.5,1.4-3.3,2.1-5.6,2.1c-1.2,0-2.7-0.3-4.3-0.9c-0.6-0.2-1-0.3-1.3-0.3c-0.8,0-1.3,0.4-1.8,1.2h-0.9l1.6-8.3h1
		c0.1,2.6,0.6,4.5,1.6,5.5c1,1.1,2.3,1.6,4,1.6c1.3,0,2.3-0.4,3.1-1.1s1.1-1.6,1.1-2.7c0-0.7-0.1-1.3-0.4-1.9c-0.5-1-1.5-2.4-3-4.2
		s-2.5-3.2-2.9-4.1c-0.4-0.9-0.7-1.8-0.7-2.7c0-1.7,0.6-3.1,1.8-4.2c1.2-1.1,2.8-1.7,4.6-1.7c0.6,0,1,0,1.5,0.1
		c0.2,0.1,0.8,0.3,1.7,0.6c0.9,0.3,1.5,0.5,1.8,0.5c0.7,0,1.3-0.4,1.8-1.2H674z"/>
</g>
<g>
	<path class="st3" d="M689.4,1097.8c-16-16.1-37.4-24.9-60.1-24.9c-46.8,0-85,38.1-85,85c0,15,3.9,29.6,11.3,42.5l-12.1,44.1
		l45.1-11.8c12.4,6.8,26.4,10.3,40.6,10.3h0l0,0c46.8,0,85-38.1,85-85C714.3,1135.2,705.5,1113.8,689.4,1097.8z M629.3,1228.5
		L629.3,1228.5c-12.7,0-25.1-3.4-36-9.8l-2.6-1.5l-26.7,7l7.1-26.1l-1.7-2.7c-7.1-11.2-10.8-24.2-10.8-37.6
		c0-38.9,31.7-70.7,70.7-70.7c18.9,0,36.6,7.4,50,20.7c13.3,13.3,20.7,31.1,20.7,50C699.9,1196.8,668.2,1228.5,629.3,1228.5z"/>
	<path class="st3" d="M668.1,1175.6c-2.1-1.1-12.6-6.2-14.5-6.9c-2-0.7-3.4-1.1-4.8,1.1c-1.4,2.1-5.5,6.9-6.7,8.3
		c-1.2,1.4-2.5,1.6-4.6,0.5c-2.1-1.1-9-3.3-17.1-10.5c-6.3-5.6-10.6-12.6-11.8-14.7c-1.2-2.1-0.1-3.3,0.9-4.3c1-0.9,2.1-2.5,3.2-3.7
		c1.1-1.2,1.4-2.1,2.1-3.5c0.7-1.4,0.3-2.7-0.2-3.7c-0.5-1.1-4.8-11.5-6.5-15.8c-1.7-4.1-3.5-3.6-4.8-3.7c-1.2-0.1-2.7-0.1-4.1-0.1
		s-3.7,0.5-5.7,2.7c-2,2.1-7.4,7.3-7.4,17.7s7.6,20.6,8.7,22c1.1,1.4,15,22.9,36.3,32.1c5.1,2.2,9,3.5,12.1,4.5
		c5.1,1.6,9.7,1.4,13.4,0.8c4.1-0.6,12.6-5.1,14.3-10.1s1.8-9.2,1.2-10.1C671.6,1177.2,670.2,1176.7,668.1,1175.6z"/>
</g>
<g>
	<a xlink:href="https://wa.me/+527471317460"  pointer-events="all" target="_blank">
		<rect x="529" y="1063.5" class="st4" width="198.4" height="198.4"/>
		<path class="st3" d="M689.4,1419.4c-16-16.1-37.4-24.9-60.1-24.9c-46.8,0-85,38.1-85,85c0,15,3.9,29.6,11.3,42.5l-12.1,44.1
			l45.1-11.8c12.4,6.8,26.4,10.3,40.6,10.3h0l0,0c46.8,0,85-38.1,85-85C714.3,1456.9,705.5,1435.5,689.4,1419.4z M629.3,1550.2
			L629.3,1550.2c-12.7,0-25.1-3.4-36-9.8l-2.6-1.5l-26.7,7l7.1-26.1l-1.7-2.7c-7.1-11.2-10.8-24.2-10.8-37.6
			c0-38.9,31.7-70.7,70.7-70.7c18.9,0,36.6,7.4,50,20.7c13.3,13.3,20.7,31.1,20.7,50C699.9,1518.5,668.2,1550.2,629.3,1550.2z"/>
	</a>
	<a xlink:href="https://wa.me/+526646960265"  pointer-events="all" target="_blank">
		<rect x="529" y="1385.1" class="st4" width="198.4" height="198.4"/>
		<path class="st3" d="M668.1,1497.3c-2.1-1.1-12.6-6.2-14.5-6.9c-2-0.7-3.4-1.1-4.8,1.1c-1.4,2.1-5.5,6.9-6.7,8.3
			c-1.2,1.4-2.5,1.6-4.6,0.5c-2.1-1.1-9-3.3-17.1-10.5c-6.3-5.6-10.6-12.6-11.8-14.7c-1.2-2.1-0.1-3.3,0.9-4.3
			c1-0.9,2.1-2.5,3.2-3.7c1.1-1.2,1.4-2.1,2.1-3.5c0.7-1.4,0.3-2.7-0.2-3.7c-0.5-1.1-4.8-11.5-6.5-15.8c-1.7-4.1-3.5-3.6-4.8-3.7
			c-1.2-0.1-2.7-0.1-4.1-0.1s-3.7,0.5-5.7,2.7c-2,2.1-7.4,7.3-7.4,17.7s7.6,20.6,8.7,22c1.1,1.4,15,22.9,36.3,32.1
			c5.1,2.2,9,3.5,12.1,4.5c5.1,1.6,9.7,1.4,13.4,0.8c4.1-0.6,12.6-5.1,14.3-10.1s1.8-9.2,1.2-10.1
			C671.6,1498.9,670.2,1498.4,668.1,1497.3z"/>
	</a>
</g>
</svg>
